<?xml version="1.0" encoding="UTF-8" standalone="no"?>
<!DOCTYPE svg PUBLIC "-//W3C//DTD SVG 1.1//EN"
 "http://www.w3.org/Graphics/SVG/1.1/DTD/svg11.dtd">
<!-- Generated by graphviz version 2.40.1 (20161225.0304)
 -->
<!-- Title: src/util/android/Filesystem.cxx Pages: 1 -->
<svg width="1237pt" height="196pt"
 viewBox="0.00 0.00 1237.00 196.00" xmlns="http://www.w3.org/2000/svg" xmlns:xlink="http://www.w3.org/1999/xlink">
<g id="graph0" class="graph" transform="scale(1 1) rotate(0) translate(4 192)">
<title>src/util/android/Filesystem.cxx</title>
<!-- Node0 -->
<g id="node1" class="node">
<title>Node0</title>
<polygon fill="#bfbfbf" stroke="#000000" points="709.5,-168.5 709.5,-187.5 874.5,-187.5 874.5,-168.5 709.5,-168.5"/>
<text text-anchor="middle" x="792" y="-175.5" font-family="Helvetica,sans-Serif" font-size="10.00" fill="#000000">src/util/android/Filesystem.cxx</text>
</g>
<!-- Node1 -->
<g id="node2" class="node">
<title>Node1</title>
<g id="a_node2"><a xlink:href="Filesystem_8hxx.html" target="_top" xlink:title="Filesystem.hxx">
<polygon fill="none" stroke="#000000" points="83,-112.5 83,-131.5 173,-131.5 173,-112.5 83,-112.5"/>
<text text-anchor="middle" x="128" y="-119.5" font-family="Helvetica,sans-Serif" font-size="10.00" fill="#000000">Filesystem.hxx</text>
</a>
</g>
</g>
<!-- Node0&#45;&gt;Node1 -->
<g id="edge1" class="edge">
<title>Node0&#45;&gt;Node1</title>
<path fill="none" stroke="#191970" d="M709.2465,-171.0208C571.7295,-159.423 299.7632,-136.4861 183.175,-126.6533"/>
<polygon fill="#191970" stroke="#191970" points="183.3101,-123.1524 173.0513,-125.7995 182.7218,-130.1276 183.3101,-123.1524"/>
</g>
<!-- Node5 -->
<g id="node6" class="node">
<title>Node5</title>
<g id="a_node6"><a xlink:href="Settings_8hxx.html" target="_top" xlink:title="Settings.hxx">
<polygon fill="none" stroke="#000000" points="326.5,-112.5 326.5,-131.5 403.5,-131.5 403.5,-112.5 326.5,-112.5"/>
<text text-anchor="middle" x="365" y="-119.5" font-family="Helvetica,sans-Serif" font-size="10.00" fill="#000000">Settings.hxx</text>
</a>
</g>
</g>
<!-- Node0&#45;&gt;Node5 -->
<g id="edge5" class="edge">
<title>Node0&#45;&gt;Node5</title>
<path fill="none" stroke="#191970" d="M719.0813,-168.4369C631.9504,-157.0099 488.5863,-138.208 413.8139,-128.4018"/>
<polygon fill="#191970" stroke="#191970" points="414.1017,-124.9097 403.7315,-127.0795 413.1914,-131.8502 414.1017,-124.9097"/>
</g>
<!-- Node13 -->
<g id="node14" class="node">
<title>Node13</title>
<g id="a_node14"><a xlink:href="LOG_8hxx.html" target="_top" xlink:title="LOG.hxx">
<polygon fill="none" stroke="#000000" points="763,-112.5 763,-131.5 821,-131.5 821,-112.5 763,-112.5"/>
<text text-anchor="middle" x="792" y="-119.5" font-family="Helvetica,sans-Serif" font-size="10.00" fill="#000000">LOG.hxx</text>
</a>
</g>
</g>
<!-- Node0&#45;&gt;Node13 -->
<g id="edge14" class="edge">
<title>Node0&#45;&gt;Node13</title>
<path fill="none" stroke="#191970" d="M792,-168.2455C792,-160.9382 792,-150.6944 792,-141.7046"/>
<polygon fill="#191970" stroke="#191970" points="795.5001,-141.6426 792,-131.6427 788.5001,-141.6427 795.5001,-141.6426"/>
</g>
<!-- Node19 -->
<g id="node20" class="node">
<title>Node19</title>
<polygon fill="none" stroke="#bfbfbf" points="1111.5,-56.5 1111.5,-75.5 1166.5,-75.5 1166.5,-56.5 1111.5,-56.5"/>
<text text-anchor="middle" x="1139" y="-63.5" font-family="Helvetica,sans-Serif" font-size="10.00" fill="#000000">fstream</text>
</g>
<!-- Node0&#45;&gt;Node19 -->
<g id="edge29" class="edge">
<title>Node0&#45;&gt;Node19</title>
<path fill="none" stroke="#191970" d="M821.585,-168.4509C884.6949,-148.0812 1032.4134,-100.4026 1101.7804,-78.0133"/>
<polygon fill="#191970" stroke="#191970" points="1102.9854,-81.3022 1111.4269,-74.8997 1100.8353,-74.6406 1102.9854,-81.3022"/>
</g>
<!-- Node21 -->
<g id="node22" class="node">
<title>Node21</title>
<polygon fill="none" stroke="#bfbfbf" points="1185,-56.5 1185,-75.5 1229,-75.5 1229,-56.5 1185,-56.5"/>
<text text-anchor="middle" x="1207" y="-63.5" font-family="Helvetica,sans-Serif" font-size="10.00" fill="#000000">SDL.h</text>
</g>
<!-- Node0&#45;&gt;Node21 -->
<g id="edge30" class="edge">
<title>Node0&#45;&gt;Node21</title>
<path fill="none" stroke="#191970" d="M832.8215,-168.4884C870.9801,-159.4846 929.4939,-145.3888 980,-132 1064.4934,-109.6014 1087.7106,-102.8278 1174.887,-76.2824"/>
<polygon fill="#191970" stroke="#191970" points="1176.1311,-79.5623 1184.6772,-73.3002 1174.0913,-72.8661 1176.1311,-79.5623"/>
</g>
<!-- Node2 -->
<g id="node3" class="node">
<title>Node2</title>
<polygon fill="none" stroke="#bfbfbf" points="0,-56.5 0,-75.5 54,-75.5 54,-56.5 0,-56.5"/>
<text text-anchor="middle" x="27" y="-63.5" font-family="Helvetica,sans-Serif" font-size="10.00" fill="#000000">ciso646</text>
</g>
<!-- Node1&#45;&gt;Node2 -->
<g id="edge2" class="edge">
<title>Node1&#45;&gt;Node2</title>
<path fill="none" stroke="#191970" d="M110.4071,-112.2455C94.621,-103.4928 71.2361,-90.527 53.2413,-80.5496"/>
<polygon fill="#191970" stroke="#191970" points="54.8341,-77.4308 44.3913,-75.6427 51.4397,-83.5528 54.8341,-77.4308"/>
</g>
<!-- Node3 -->
<g id="node4" class="node">
<title>Node3</title>
<polygon fill="none" stroke="#bfbfbf" points="138,-56.5 138,-75.5 182,-75.5 182,-56.5 138,-56.5"/>
<text text-anchor="middle" x="160" y="-63.5" font-family="Helvetica,sans-Serif" font-size="10.00" fill="#000000">string</text>
</g>
<!-- Node1&#45;&gt;Node3 -->
<g id="edge3" class="edge">
<title>Node1&#45;&gt;Node3</title>
<path fill="none" stroke="#191970" d="M133.574,-112.2455C137.9331,-104.617 144.1211,-93.7881 149.4133,-84.5267"/>
<polygon fill="#191970" stroke="#191970" points="152.5673,-86.0616 154.4899,-75.6427 146.4896,-82.5886 152.5673,-86.0616"/>
</g>
<!-- Node4 -->
<g id="node5" class="node">
<title>Node4</title>
<polygon fill="none" stroke="#bfbfbf" points="72.5,-56.5 72.5,-75.5 119.5,-75.5 119.5,-56.5 72.5,-56.5"/>
<text text-anchor="middle" x="96" y="-63.5" font-family="Helvetica,sans-Serif" font-size="10.00" fill="#000000">vector</text>
</g>
<!-- Node1&#45;&gt;Node4 -->
<g id="edge4" class="edge">
<title>Node1&#45;&gt;Node4</title>
<path fill="none" stroke="#191970" d="M122.426,-112.2455C118.0669,-104.617 111.8789,-93.7881 106.5867,-84.5267"/>
<polygon fill="#191970" stroke="#191970" points="109.5104,-82.5886 101.5101,-75.6427 103.4327,-86.0616 109.5104,-82.5886"/>
</g>
<!-- Node5&#45;&gt;Node3 -->
<g id="edge6" class="edge">
<title>Node5&#45;&gt;Node3</title>
<path fill="none" stroke="#191970" d="M326.4782,-112.447C293.1825,-104.0494 243.5643,-91.2011 191.9618,-76.1824"/>
<polygon fill="#191970" stroke="#191970" points="192.8876,-72.8066 182.3069,-73.3535 190.9192,-79.5242 192.8876,-72.8066"/>
</g>
<!-- Node6 -->
<g id="node7" class="node">
<title>Node6</title>
<g id="a_node7"><a xlink:href="Singleton_8hxx.html" target="_top" xlink:title="../../util/Singleton.hxx">
<polygon fill="none" stroke="#000000" points="200,-56.5 200,-75.5 320,-75.5 320,-56.5 200,-56.5"/>
<text text-anchor="middle" x="260" y="-63.5" font-family="Helvetica,sans-Serif" font-size="10.00" fill="#000000">../../util/Singleton.hxx</text>
</a>
</g>
</g>
<!-- Node5&#45;&gt;Node6 -->
<g id="edge7" class="edge">
<title>Node5&#45;&gt;Node6</title>
<path fill="none" stroke="#191970" d="M346.7104,-112.2455C330.2238,-103.4527 305.7648,-90.4079 287.0235,-80.4125"/>
<polygon fill="#191970" stroke="#191970" points="288.5506,-77.2604 278.08,-75.6427 285.2565,-83.4368 288.5506,-77.2604"/>
</g>
<!-- Node7 -->
<g id="node8" class="node">
<title>Node7</title>
<g id="a_node8"><a xlink:href="Meta_8hxx.html" target="_top" xlink:title="../../util/Meta.hxx">
<polygon fill="none" stroke="#000000" points="410,-56.5 410,-75.5 508,-75.5 508,-56.5 410,-56.5"/>
<text text-anchor="middle" x="459" y="-63.5" font-family="Helvetica,sans-Serif" font-size="10.00" fill="#000000">../../util/Meta.hxx</text>
</a>
</g>
</g>
<!-- Node5&#45;&gt;Node7 -->
<g id="edge8" class="edge">
<title>Node5&#45;&gt;Node7</title>
<path fill="none" stroke="#191970" d="M381.3736,-112.2455C395.9308,-103.5731 417.431,-90.7645 434.1152,-80.825"/>
<polygon fill="#191970" stroke="#191970" points="436.0144,-83.7676 442.8141,-75.6427 432.4317,-77.7539 436.0144,-83.7676"/>
</g>
<!-- Node12 -->
<g id="node13" class="node">
<title>Node12</title>
<polygon fill="none" stroke="#bfbfbf" points="338.5,-56.5 338.5,-75.5 391.5,-75.5 391.5,-56.5 338.5,-56.5"/>
<text text-anchor="middle" x="365" y="-63.5" font-family="Helvetica,sans-Serif" font-size="10.00" fill="#000000">cstddef</text>
</g>
<!-- Node5&#45;&gt;Node12 -->
<g id="edge13" class="edge">
<title>Node5&#45;&gt;Node12</title>
<path fill="none" stroke="#191970" d="M365,-112.2455C365,-104.9382 365,-94.6944 365,-85.7046"/>
<polygon fill="#191970" stroke="#191970" points="368.5001,-85.6426 365,-75.6427 361.5001,-85.6427 368.5001,-85.6426"/>
</g>
<!-- Node8 -->
<g id="node9" class="node">
<title>Node8</title>
<polygon fill="none" stroke="#bfbfbf" points="498,-.5 498,-19.5 558,-19.5 558,-.5 498,-.5"/>
<text text-anchor="middle" x="528" y="-7.5" font-family="Helvetica,sans-Serif" font-size="10.00" fill="#000000">iostream</text>
</g>
<!-- Node7&#45;&gt;Node8 -->
<g id="edge9" class="edge">
<title>Node7&#45;&gt;Node8</title>
<path fill="none" stroke="#191970" d="M471.0189,-56.2455C481.2098,-47.9746 496.0362,-35.9416 508.0107,-26.2232"/>
<polygon fill="#191970" stroke="#191970" points="510.5598,-28.662 516.1188,-19.6427 506.1486,-23.2268 510.5598,-28.662"/>
</g>
<!-- Node9 -->
<g id="node10" class="node">
<title>Node9</title>
<polygon fill="none" stroke="#bfbfbf" points="282.5,-.5 282.5,-19.5 351.5,-19.5 351.5,-.5 282.5,-.5"/>
<text text-anchor="middle" x="317" y="-7.5" font-family="Helvetica,sans-Serif" font-size="10.00" fill="#000000">type_traits</text>
</g>
<!-- Node7&#45;&gt;Node9 -->
<g id="edge10" class="edge">
<title>Node7&#45;&gt;Node9</title>
<path fill="none" stroke="#191970" d="M434.5893,-56.3733C411.3858,-47.2226 376.2962,-33.3844 350.4858,-23.2057"/>
<polygon fill="#191970" stroke="#191970" points="351.6789,-19.9139 341.0921,-19.5011 349.1108,-26.4258 351.6789,-19.9139"/>
</g>
<!-- Node10 -->
<g id="node11" class="node">
<title>Node10</title>
<polygon fill="none" stroke="#bfbfbf" points="369.5,-.5 369.5,-19.5 420.5,-19.5 420.5,-.5 369.5,-.5"/>
<text text-anchor="middle" x="395" y="-7.5" font-family="Helvetica,sans-Serif" font-size="10.00" fill="#000000">variant</text>
</g>
<!-- Node7&#45;&gt;Node10 -->
<g id="edge11" class="edge">
<title>Node7&#45;&gt;Node10</title>
<path fill="none" stroke="#191970" d="M447.8521,-56.2455C438.4913,-48.0549 424.9142,-36.1749 413.8651,-26.5069"/>
<polygon fill="#191970" stroke="#191970" points="415.8508,-23.5937 406.0202,-19.6427 411.2412,-28.8618 415.8508,-23.5937"/>
</g>
<!-- Node11 -->
<g id="node12" class="node">
<title>Node11</title>
<polygon fill="none" stroke="#bfbfbf" points="438.5,-.5 438.5,-19.5 479.5,-19.5 479.5,-.5 438.5,-.5"/>
<text text-anchor="middle" x="459" y="-7.5" font-family="Helvetica,sans-Serif" font-size="10.00" fill="#000000">tuple</text>
</g>
<!-- Node7&#45;&gt;Node11 -->
<g id="edge12" class="edge">
<title>Node7&#45;&gt;Node11</title>
<path fill="none" stroke="#191970" d="M459,-56.2455C459,-48.9382 459,-38.6944 459,-29.7046"/>
<polygon fill="#191970" stroke="#191970" points="462.5001,-29.6426 459,-19.6427 455.5001,-29.6427 462.5001,-29.6426"/>
</g>
<!-- Node13&#45;&gt;Node3 -->
<g id="edge15" class="edge">
<title>Node13&#45;&gt;Node3</title>
<path fill="none" stroke="#191970" d="M762.886,-120.682C661.1642,-115.9391 321.2478,-98.8956 192.1975,-75.743"/>
<polygon fill="#191970" stroke="#191970" points="192.6622,-72.2689 182.1858,-73.8487 191.3608,-79.1469 192.6622,-72.2689"/>
</g>
<!-- Node13&#45;&gt;Node7 -->
<g id="edge27" class="edge">
<title>Node13&#45;&gt;Node7</title>
<path fill="none" stroke="#191970" d="M762.7403,-117.0795C708.2082,-107.9089 590.073,-88.0423 518.262,-75.966"/>
<polygon fill="#191970" stroke="#191970" points="518.4581,-72.4499 508.0161,-74.2429 517.2972,-79.353 518.4581,-72.4499"/>
</g>
<!-- Node13&#45;&gt;Node8 -->
<g id="edge19" class="edge">
<title>Node13&#45;&gt;Node8</title>
<path fill="none" stroke="#191970" d="M762.9941,-119.7876C706.9474,-114.9755 586.5121,-101.8544 555,-76 541.1191,-64.6113 534.3003,-44.9437 530.997,-30.0328"/>
<polygon fill="#191970" stroke="#191970" points="534.3596,-28.9692 529.0974,-19.7736 527.4766,-30.2437 534.3596,-28.9692"/>
</g>
<!-- Node14 -->
<g id="node15" class="node">
<title>Node14</title>
<g id="a_node15"><a xlink:href="Exception_8hxx.html" target="_top" xlink:title="Exception.hxx">
<polygon fill="none" stroke="#000000" points="564,-56.5 564,-75.5 650,-75.5 650,-56.5 564,-56.5"/>
<text text-anchor="middle" x="607" y="-63.5" font-family="Helvetica,sans-Serif" font-size="10.00" fill="#000000">Exception.hxx</text>
</a>
</g>
</g>
<!-- Node13&#45;&gt;Node14 -->
<g id="edge16" class="edge">
<title>Node13&#45;&gt;Node14</title>
<path fill="none" stroke="#191970" d="M762.6862,-113.1266C731.8995,-103.8074 683.2248,-89.0735 648.4998,-78.5621"/>
<polygon fill="#191970" stroke="#191970" points="649.2399,-75.1294 638.6548,-75.582 647.2119,-81.8292 649.2399,-75.1294"/>
</g>
<!-- Node17 -->
<g id="node18" class="node">
<title>Node17</title>
<polygon fill="none" stroke="#bfbfbf" points="668,-56.5 668,-75.5 718,-75.5 718,-56.5 668,-56.5"/>
<text text-anchor="middle" x="693" y="-63.5" font-family="Helvetica,sans-Serif" font-size="10.00" fill="#000000">chrono</text>
</g>
<!-- Node13&#45;&gt;Node17 -->
<g id="edge20" class="edge">
<title>Node13&#45;&gt;Node17</title>
<path fill="none" stroke="#191970" d="M774.7555,-112.2455C759.4239,-103.5731 736.7801,-90.7645 719.2084,-80.825"/>
<polygon fill="#191970" stroke="#191970" points="720.4741,-77.5198 710.0469,-75.6427 717.0276,-83.6126 720.4741,-77.5198"/>
</g>
<!-- Node18 -->
<g id="node19" class="node">
<title>Node18</title>
<polygon fill="none" stroke="#bfbfbf" points="736,-56.5 736,-75.5 780,-75.5 780,-56.5 736,-56.5"/>
<text text-anchor="middle" x="758" y="-63.5" font-family="Helvetica,sans-Serif" font-size="10.00" fill="#000000">ctime</text>
</g>
<!-- Node13&#45;&gt;Node18 -->
<g id="edge21" class="edge">
<title>Node13&#45;&gt;Node18</title>
<path fill="none" stroke="#191970" d="M786.0777,-112.2455C781.3973,-104.5367 774.7327,-93.5598 769.0711,-84.2348"/>
<polygon fill="#191970" stroke="#191970" points="772.0361,-82.3741 763.8545,-75.6427 766.0525,-86.007 772.0361,-82.3741"/>
</g>
<!-- Node13&#45;&gt;Node19 -->
<g id="edge22" class="edge">
<title>Node13&#45;&gt;Node19</title>
<path fill="none" stroke="#191970" d="M821.263,-118.812C874.875,-112.7242 992.5733,-98.2144 1101.3783,-75.9251"/>
<polygon fill="#191970" stroke="#191970" points="1102.1236,-79.3451 1111.2035,-73.8857 1100.7009,-72.4911 1102.1236,-79.3451"/>
</g>
<!-- Node20 -->
<g id="node21" class="node">
<title>Node20</title>
<polygon fill="none" stroke="#bfbfbf" points="798,-56.5 798,-75.5 854,-75.5 854,-56.5 798,-56.5"/>
<text text-anchor="middle" x="826" y="-63.5" font-family="Helvetica,sans-Serif" font-size="10.00" fill="#000000">sstream</text>
</g>
<!-- Node13&#45;&gt;Node20 -->
<g id="edge23" class="edge">
<title>Node13&#45;&gt;Node20</title>
<path fill="none" stroke="#191970" d="M797.9223,-112.2455C802.6027,-104.5367 809.2673,-93.5598 814.9289,-84.2348"/>
<polygon fill="#191970" stroke="#191970" points="817.9475,-86.007 820.1455,-75.6427 811.9639,-82.3741 817.9475,-86.007"/>
</g>
<!-- Node13&#45;&gt;Node21 -->
<g id="edge24" class="edge">
<title>Node13&#45;&gt;Node21</title>
<path fill="none" stroke="#191970" d="M821.2218,-120.426C884.3259,-116.6186 1038.0483,-105.1442 1174.9625,-75.8699"/>
<polygon fill="#191970" stroke="#191970" points="1175.7628,-79.2777 1184.7898,-73.7312 1174.2742,-72.4378 1175.7628,-79.2777"/>
</g>
<!-- Node22 -->
<g id="node23" class="node">
<title>Node22</title>
<polygon fill="none" stroke="#bfbfbf" points="872,-56.5 872,-75.5 936,-75.5 936,-56.5 872,-56.5"/>
<text text-anchor="middle" x="904" y="-63.5" font-family="Helvetica,sans-Serif" font-size="10.00" fill="#000000">algorithm</text>
</g>
<!-- Node13&#45;&gt;Node22 -->
<g id="edge25" class="edge">
<title>Node13&#45;&gt;Node22</title>
<path fill="none" stroke="#191970" d="M811.2535,-112.3733C829.0712,-103.4644 855.7747,-90.1127 875.9594,-80.0203"/>
<polygon fill="#191970" stroke="#191970" points="877.6187,-83.1038 884.9978,-75.5011 874.4882,-76.8428 877.6187,-83.1038"/>
</g>
<!-- Node23 -->
<g id="node24" class="node">
<title>Node23</title>
<polygon fill="none" stroke="#bfbfbf" points="954,-56.5 954,-75.5 1002,-75.5 1002,-56.5 954,-56.5"/>
<text text-anchor="middle" x="978" y="-63.5" font-family="Helvetica,sans-Serif" font-size="10.00" fill="#000000">mutex</text>
</g>
<!-- Node13&#45;&gt;Node23 -->
<g id="edge26" class="edge">
<title>Node13&#45;&gt;Node23</title>
<path fill="none" stroke="#191970" d="M821.0522,-113.2859C849.9087,-104.6259 895.673,-90.8798 944.1285,-76.259"/>
<polygon fill="#191970" stroke="#191970" points="945.2892,-79.5647 953.8513,-73.3244 943.2665,-72.8633 945.2892,-79.5647"/>
</g>
<!-- Node24 -->
<g id="node25" class="node">
<title>Node24</title>
<g id="a_node25"><a xlink:href="LOG_8inl_8hxx.html" target="_top" xlink:title="LOG.inl.hxx">
<polygon fill="none" stroke="#000000" points="1020.5,-56.5 1020.5,-75.5 1093.5,-75.5 1093.5,-56.5 1020.5,-56.5"/>
<text text-anchor="middle" x="1057" y="-63.5" font-family="Helvetica,sans-Serif" font-size="10.00" fill="#000000">LOG.inl.hxx</text>
</a>
</g>
</g>
<!-- Node13&#45;&gt;Node24 -->
<g id="edge28" class="edge">
<title>Node13&#45;&gt;Node24</title>
<path fill="none" stroke="#191970" d="M821.0622,-115.9634C861.2163,-107.608 936.1907,-91.9544 1010.3641,-76.1249"/>
<polygon fill="#191970" stroke="#191970" points="1011.2986,-79.5044 1020.3467,-73.9924 1009.8362,-72.6588 1011.2986,-79.5044"/>
</g>
<!-- Node15 -->
<g id="node16" class="node">
<title>Node15</title>
<polygon fill="none" stroke="#bfbfbf" points="576.5,-.5 576.5,-19.5 641.5,-19.5 641.5,-.5 576.5,-.5"/>
<text text-anchor="middle" x="609" y="-7.5" font-family="Helvetica,sans-Serif" font-size="10.00" fill="#000000">stdexcept</text>
</g>
<!-- Node14&#45;&gt;Node15 -->
<g id="edge17" class="edge">
<title>Node14&#45;&gt;Node15</title>
<path fill="none" stroke="#191970" d="M607.3484,-56.2455C607.6093,-48.9382 607.9752,-38.6944 608.2963,-29.7046"/>
<polygon fill="#191970" stroke="#191970" points="611.7964,-29.7613 608.6556,-19.6427 604.8008,-29.5113 611.7964,-29.7613"/>
</g>
<!-- Node16 -->
<g id="node17" class="node">
<title>Node16</title>
<polygon fill="none" stroke="#bfbfbf" points="659.5,-.5 659.5,-19.5 724.5,-19.5 724.5,-.5 659.5,-.5"/>
<text text-anchor="middle" x="692" y="-7.5" font-family="Helvetica,sans-Serif" font-size="10.00" fill="#000000">exception</text>
</g>
<!-- Node14&#45;&gt;Node16 -->
<g id="edge18" class="edge">
<title>Node14&#45;&gt;Node16</title>
<path fill="none" stroke="#191970" d="M621.8059,-56.2455C634.7256,-47.7337 653.6931,-35.2375 668.6552,-25.3801"/>
<polygon fill="#191970" stroke="#191970" points="670.9387,-28.067 677.3638,-19.6427 667.0876,-22.2216 670.9387,-28.067"/>
</g>
</g>
</svg>
