<?xml version="1.0" encoding="UTF-8" standalone="no"?>
<!DOCTYPE svg PUBLIC "-//W3C//DTD SVG 1.1//EN"
 "http://www.w3.org/Graphics/SVG/1.1/DTD/svg11.dtd">
<!-- Generated by graphviz version 2.40.1 (20161225.0304)
 -->
<!-- Title: src/services/AudioMixer.hxx Pages: 1 -->
<svg width="1309pt" height="308pt"
 viewBox="0.00 0.00 1309.00 308.00" xmlns="http://www.w3.org/2000/svg" xmlns:xlink="http://www.w3.org/1999/xlink">
<g id="graph0" class="graph" transform="scale(1 1) rotate(0) translate(4 304)">
<title>src/services/AudioMixer.hxx</title>
<!-- Node0 -->
<g id="node1" class="node">
<title>Node0</title>
<polygon fill="#bfbfbf" stroke="#000000" points="500,-280.5 500,-299.5 652,-299.5 652,-280.5 500,-280.5"/>
<text text-anchor="middle" x="576" y="-287.5" font-family="Helvetica,sans-Serif" font-size="10.00" fill="#000000">src/services/AudioMixer.hxx</text>
</g>
<!-- Node1 -->
<g id="node2" class="node">
<title>Node1</title>
<polygon fill="none" stroke="#bfbfbf" points="0,-224.5 0,-243.5 42,-243.5 42,-224.5 0,-224.5"/>
<text text-anchor="middle" x="21" y="-231.5" font-family="Helvetica,sans-Serif" font-size="10.00" fill="#000000">array</text>
</g>
<!-- Node0&#45;&gt;Node1 -->
<g id="edge1" class="edge">
<title>Node0&#45;&gt;Node1</title>
<path fill="none" stroke="#191970" d="M499.8978,-285.533C379.8875,-278.131 150.9895,-262.4743 52.1328,-243.7294"/>
<polygon fill="#191970" stroke="#191970" points="52.6291,-240.2594 42.1366,-241.7279 51.2548,-247.1232 52.6291,-240.2594"/>
</g>
<!-- Node2 -->
<g id="node3" class="node">
<title>Node2</title>
<polygon fill="none" stroke="#bfbfbf" points="60,-224.5 60,-243.5 146,-243.5 146,-224.5 60,-224.5"/>
<text text-anchor="middle" x="103" y="-231.5" font-family="Helvetica,sans-Serif" font-size="10.00" fill="#000000">unordered_set</text>
</g>
<!-- Node0&#45;&gt;Node2 -->
<g id="edge2" class="edge">
<title>Node0&#45;&gt;Node2</title>
<path fill="none" stroke="#191970" d="M499.9067,-283.0499C416.3554,-275.0777 278.3283,-260.9044 160,-244 158.7412,-243.8202 157.4676,-243.6337 156.1836,-243.4416"/>
<polygon fill="#191970" stroke="#191970" points="156.6354,-239.9698 146.2139,-241.8786 155.5511,-246.8853 156.6354,-239.9698"/>
</g>
<!-- Node3 -->
<g id="node4" class="node">
<title>Node3</title>
<polygon fill="none" stroke="#bfbfbf" points="302.5,-56.5 302.5,-75.5 349.5,-75.5 349.5,-56.5 302.5,-56.5"/>
<text text-anchor="middle" x="326" y="-63.5" font-family="Helvetica,sans-Serif" font-size="10.00" fill="#000000">vector</text>
</g>
<!-- Node0&#45;&gt;Node3 -->
<g id="edge3" class="edge">
<title>Node0&#45;&gt;Node3</title>
<path fill="none" stroke="#191970" d="M499.8889,-282.8419C431.1175,-272.6083 331.1267,-247.8331 267,-188 239.6724,-162.5021 211.1488,-143.6681 231,-112 244.3594,-90.6881 270.7041,-79.0057 292.2685,-72.7535"/>
<polygon fill="#191970" stroke="#191970" points="293.3013,-76.101 302.0838,-70.1749 291.5226,-69.3308 293.3013,-76.101"/>
</g>
<!-- Node4 -->
<g id="node5" class="node">
<title>Node4</title>
<polygon fill="none" stroke="#bfbfbf" points="186,-56.5 186,-75.5 244,-75.5 244,-56.5 186,-56.5"/>
<text text-anchor="middle" x="215" y="-63.5" font-family="Helvetica,sans-Serif" font-size="10.00" fill="#000000">memory</text>
</g>
<!-- Node0&#45;&gt;Node4 -->
<g id="edge4" class="edge">
<title>Node0&#45;&gt;Node4</title>
<path fill="none" stroke="#191970" d="M499.8435,-280.663C435.0071,-271.9694 347.3768,-258.2421 315,-244 255.5146,-217.8332 235.4808,-195.3523 221,-132 217.5101,-116.7318 216.0351,-99.0398 215.419,-85.8186"/>
<polygon fill="#191970" stroke="#191970" points="218.9069,-85.3997 215.0697,-75.5242 211.911,-85.6372 218.9069,-85.3997"/>
</g>
<!-- Node5 -->
<g id="node6" class="node">
<title>Node5</title>
<polygon fill="none" stroke="#bfbfbf" points="378,-224.5 378,-243.5 410,-243.5 410,-224.5 378,-224.5"/>
<text text-anchor="middle" x="394" y="-231.5" font-family="Helvetica,sans-Serif" font-size="10.00" fill="#000000">list</text>
</g>
<!-- Node0&#45;&gt;Node5 -->
<g id="edge5" class="edge">
<title>Node0&#45;&gt;Node5</title>
<path fill="none" stroke="#191970" d="M543.599,-280.4792C512.7704,-271.3532 465.1204,-257.0728 424,-244 422.5939,-243.553 421.1524,-243.0896 419.6984,-242.6182"/>
<polygon fill="#191970" stroke="#191970" points="420.7582,-239.2824 410.1652,-239.4802 418.5695,-245.9315 420.7582,-239.2824"/>
</g>
<!-- Node6 -->
<g id="node7" class="node">
<title>Node6</title>
<g id="a_node7"><a xlink:href="AudioEvents_8hxx.html" target="_top" xlink:title="../events/AudioEvents.hxx">
<polygon fill="none" stroke="#000000" points="504.5,-224.5 504.5,-243.5 647.5,-243.5 647.5,-224.5 504.5,-224.5"/>
<text text-anchor="middle" x="576" y="-231.5" font-family="Helvetica,sans-Serif" font-size="10.00" fill="#000000">../events/AudioEvents.hxx</text>
</a>
</g>
</g>
<!-- Node0&#45;&gt;Node6 -->
<g id="edge6" class="edge">
<title>Node0&#45;&gt;Node6</title>
<path fill="none" stroke="#191970" d="M576,-280.2455C576,-272.9382 576,-262.6944 576,-253.7046"/>
<polygon fill="#191970" stroke="#191970" points="579.5001,-253.6426 576,-243.6427 572.5001,-253.6427 579.5001,-253.6426"/>
</g>
<!-- Node7 -->
<g id="node8" class="node">
<title>Node7</title>
<g id="a_node8"><a xlink:href="Soundtrack_8hxx.html" target="_top" xlink:title="../engine/audio/Soundtrack.hxx">
<polygon fill="none" stroke="#000000" points="503.5,-112.5 503.5,-131.5 670.5,-131.5 670.5,-112.5 503.5,-112.5"/>
<text text-anchor="middle" x="587" y="-119.5" font-family="Helvetica,sans-Serif" font-size="10.00" fill="#000000">../engine/audio/Soundtrack.hxx</text>
</a>
</g>
</g>
<!-- Node0&#45;&gt;Node7 -->
<g id="edge24" class="edge">
<title>Node0&#45;&gt;Node7</title>
<path fill="none" stroke="#191970" d="M607.89,-280.4777C625.4177,-273.43 645.6505,-261.8893 656,-244 677.865,-206.2057 635.1788,-161.455 607.6905,-138.0681"/>
<polygon fill="#191970" stroke="#191970" points="609.683,-135.1751 599.7359,-131.5273 605.2371,-140.582 609.683,-135.1751"/>
</g>
<!-- Node9 -->
<g id="node10" class="node">
<title>Node9</title>
<g id="a_node10"><a xlink:href="Meta_8hxx.html" target="_top" xlink:title="../../util/Meta.hxx">
<polygon fill="none" stroke="#000000" points="844,-56.5 844,-75.5 942,-75.5 942,-56.5 844,-56.5"/>
<text text-anchor="middle" x="893" y="-63.5" font-family="Helvetica,sans-Serif" font-size="10.00" fill="#000000">../../util/Meta.hxx</text>
</a>
</g>
</g>
<!-- Node0&#45;&gt;Node9 -->
<g id="edge33" class="edge">
<title>Node0&#45;&gt;Node9</title>
<path fill="none" stroke="#191970" d="M652.3484,-284.3229C745.7722,-276.7401 898.1679,-262.1329 952,-244 998.811,-228.2321 1023.3981,-230.8328 1048,-188 1064.8234,-158.7099 1068.2031,-139.0698 1048,-112 1036.2485,-96.2544 990.9996,-83.9739 952.4025,-76.0773"/>
<polygon fill="#191970" stroke="#191970" points="952.7326,-72.5748 942.2432,-74.066 951.3731,-79.4415 952.7326,-72.5748"/>
</g>
<!-- Node14 -->
<g id="node15" class="node">
<title>Node14</title>
<polygon fill="none" stroke="#bfbfbf" points="489,-56.5 489,-75.5 539,-75.5 539,-56.5 489,-56.5"/>
<text text-anchor="middle" x="514" y="-63.5" font-family="Helvetica,sans-Serif" font-size="10.00" fill="#000000">AL/al.h</text>
</g>
<!-- Node0&#45;&gt;Node14 -->
<g id="edge34" class="edge">
<title>Node0&#45;&gt;Node14</title>
<path fill="none" stroke="#191970" d="M543.3701,-280.3824C525.7435,-273.3432 505.4935,-261.8432 495,-244 465.2592,-193.4287 482.0534,-169.4391 494,-112 495.9414,-102.6655 499.8804,-92.9017 503.7531,-84.783"/>
<polygon fill="#191970" stroke="#191970" points="506.8903,-86.3353 508.3055,-75.8354 500.6514,-83.161 506.8903,-86.3353"/>
</g>
<!-- Node15 -->
<g id="node16" class="node">
<title>Node15</title>
<polygon fill="none" stroke="#bfbfbf" points="596.5,-56.5 596.5,-75.5 651.5,-75.5 651.5,-56.5 596.5,-56.5"/>
<text text-anchor="middle" x="624" y="-63.5" font-family="Helvetica,sans-Serif" font-size="10.00" fill="#000000">AL/alc.h</text>
</g>
<!-- Node0&#45;&gt;Node15 -->
<g id="edge35" class="edge">
<title>Node0&#45;&gt;Node15</title>
<path fill="none" stroke="#191970" d="M604.9439,-280.4226C656.2604,-261.5974 761.2451,-214.2828 798,-132 801.6253,-123.884 803.423,-119.043 798,-112 781.4738,-90.537 707.5157,-77.0461 661.503,-70.574"/>
<polygon fill="#191970" stroke="#191970" points="661.9598,-67.104 651.5796,-69.2256 661.0172,-74.0403 661.9598,-67.104"/>
</g>
<!-- Node16 -->
<g id="node17" class="node">
<title>Node16</title>
<g id="a_node17"><a xlink:href="AudioConfig_8hxx.html" target="_top" xlink:title="../engine/audio/AudioConfig.hxx">
<polygon fill="none" stroke="#000000" points="276.5,-168.5 276.5,-187.5 447.5,-187.5 447.5,-168.5 276.5,-168.5"/>
<text text-anchor="middle" x="362" y="-175.5" font-family="Helvetica,sans-Serif" font-size="10.00" fill="#000000">../engine/audio/AudioConfig.hxx</text>
</a>
</g>
</g>
<!-- Node0&#45;&gt;Node16 -->
<g id="edge25" class="edge">
<title>Node0&#45;&gt;Node16</title>
<path fill="none" stroke="#191970" d="M547.6576,-280.3564C524.1549,-271.9396 490.1555,-258.7817 462,-244 433.4111,-228.9907 402.7257,-207.9174 382.9973,-193.6524"/>
<polygon fill="#191970" stroke="#191970" points="384.8892,-190.6999 374.7509,-187.6235 380.7579,-196.3508 384.8892,-190.6999"/>
</g>
<!-- Node20 -->
<g id="node21" class="node">
<title>Node20</title>
<g id="a_node21"><a xlink:href="GameService_8hxx.html" target="_top" xlink:title="../GameService.hxx">
<polygon fill="none" stroke="#000000" points="831,-224.5 831,-243.5 943,-243.5 943,-224.5 831,-224.5"/>
<text text-anchor="middle" x="887" y="-231.5" font-family="Helvetica,sans-Serif" font-size="10.00" fill="#000000">../GameService.hxx</text>
</a>
</g>
</g>
<!-- Node0&#45;&gt;Node20 -->
<g id="edge26" class="edge">
<title>Node0&#45;&gt;Node20</title>
<path fill="none" stroke="#191970" d="M629.1094,-280.4369C683.1174,-270.712 766.7896,-255.6456 824.0864,-245.3285"/>
<polygon fill="#191970" stroke="#191970" points="824.8882,-248.7405 834.1096,-243.5237 823.6476,-241.8513 824.8882,-248.7405"/>
</g>
<!-- Node24 -->
<g id="node25" class="node">
<title>Node24</title>
<polygon fill="none" stroke="#bfbfbf" points="1047.5,-224.5 1047.5,-243.5 1112.5,-243.5 1112.5,-224.5 1047.5,-224.5"/>
<text text-anchor="middle" x="1080" y="-231.5" font-family="Helvetica,sans-Serif" font-size="10.00" fill="#000000">AL/alext.h</text>
</g>
<!-- Node0&#45;&gt;Node24 -->
<g id="edge36" class="edge">
<title>Node0&#45;&gt;Node24</title>
<path fill="none" stroke="#191970" d="M652.3345,-284.8803C743.3379,-278.1859 899.8526,-264.8019 1033,-244 1034.4682,-243.7706 1035.9596,-243.5248 1037.4639,-243.2658"/>
<polygon fill="#191970" stroke="#191970" points="1038.279,-246.6743 1047.4694,-241.4029 1036.9976,-239.7925 1038.279,-246.6743"/>
</g>
<!-- Node25 -->
<g id="node26" class="node">
<title>Node25</title>
<polygon fill="none" stroke="#bfbfbf" points="1131,-224.5 1131,-243.5 1187,-243.5 1187,-224.5 1131,-224.5"/>
<text text-anchor="middle" x="1159" y="-231.5" font-family="Helvetica,sans-Serif" font-size="10.00" fill="#000000">AL/efx.h</text>
</g>
<!-- Node0&#45;&gt;Node25 -->
<g id="edge37" class="edge">
<title>Node0&#45;&gt;Node25</title>
<path fill="none" stroke="#191970" d="M652.0699,-287.9065C756.0619,-284.0863 948.4307,-273.6017 1120.8197,-243.9227"/>
<polygon fill="#191970" stroke="#191970" points="1121.5877,-247.3416 1130.8359,-242.1725 1120.3827,-240.4461 1121.5877,-247.3416"/>
</g>
<!-- Node26 -->
<g id="node27" class="node">
<title>Node26</title>
<polygon fill="none" stroke="#bfbfbf" points="1205,-224.5 1205,-243.5 1301,-243.5 1301,-224.5 1205,-224.5"/>
<text text-anchor="middle" x="1253" y="-231.5" font-family="Helvetica,sans-Serif" font-size="10.00" fill="#000000">AL/efx&#45;presets.h</text>
</g>
<!-- Node0&#45;&gt;Node26 -->
<g id="edge38" class="edge">
<title>Node0&#45;&gt;Node26</title>
<path fill="none" stroke="#191970" d="M652.1184,-286.7976C767.3542,-281.4076 993.1411,-268.7333 1194.6639,-244.0551"/>
<polygon fill="#191970" stroke="#191970" points="1195.3542,-247.4965 1204.8487,-242.795 1194.4946,-240.5495 1195.3542,-247.4965"/>
</g>
<!-- Node6&#45;&gt;Node7 -->
<g id="edge7" class="edge">
<title>Node6&#45;&gt;Node7</title>
<path fill="none" stroke="#191970" d="M576.9379,-224.4509C578.7319,-206.184 582.683,-165.9553 585.0654,-141.6976"/>
<polygon fill="#191970" stroke="#191970" points="588.5702,-141.8191 586.0645,-131.5249 581.6038,-141.1349 588.5702,-141.8191"/>
</g>
<!-- Node6&#45;&gt;Node16 -->
<g id="edge18" class="edge">
<title>Node6&#45;&gt;Node16</title>
<path fill="none" stroke="#191970" d="M539.2121,-224.3733C502.9339,-214.8799 447.3764,-200.3415 408.1554,-190.0781"/>
<polygon fill="#191970" stroke="#191970" points="408.8682,-186.6468 398.3079,-187.5011 407.096,-193.4188 408.8682,-186.6468"/>
</g>
<!-- Node7&#45;&gt;Node3 -->
<g id="edge17" class="edge">
<title>Node7&#45;&gt;Node3</title>
<path fill="none" stroke="#191970" d="M542.4291,-112.4369C490.587,-101.3137 406.176,-83.2025 359.5697,-73.2027"/>
<polygon fill="#191970" stroke="#191970" points="360.186,-69.7553 349.6743,-71.0795 358.7175,-76.5996 360.186,-69.7553"/>
</g>
<!-- Node7&#45;&gt;Node4 -->
<g id="edge8" class="edge">
<title>Node7&#45;&gt;Node4</title>
<path fill="none" stroke="#191970" d="M523.4736,-112.4369C446.2209,-100.8074 318.2269,-81.5395 254.1212,-71.8892"/>
<polygon fill="#191970" stroke="#191970" points="254.4382,-68.3976 244.0286,-70.3699 253.3962,-75.3196 254.4382,-68.3976"/>
</g>
<!-- Node8 -->
<g id="node9" class="node">
<title>Node8</title>
<polygon fill="none" stroke="#bfbfbf" points="708,-56.5 708,-75.5 752,-75.5 752,-56.5 708,-56.5"/>
<text text-anchor="middle" x="730" y="-63.5" font-family="Helvetica,sans-Serif" font-size="10.00" fill="#000000">string</text>
</g>
<!-- Node7&#45;&gt;Node8 -->
<g id="edge9" class="edge">
<title>Node7&#45;&gt;Node8</title>
<path fill="none" stroke="#191970" d="M611.5826,-112.3733C635.516,-103.0007 672.0066,-88.7107 698.152,-78.472"/>
<polygon fill="#191970" stroke="#191970" points="699.583,-81.6704 707.6182,-74.7649 697.0304,-75.1524 699.583,-81.6704"/>
</g>
<!-- Node7&#45;&gt;Node9 -->
<g id="edge10" class="edge">
<title>Node7&#45;&gt;Node9</title>
<path fill="none" stroke="#191970" d="M639.2556,-112.4369C693.3614,-102.5352 777.7256,-87.096 834.1469,-76.7705"/>
<polygon fill="#191970" stroke="#191970" points="834.7884,-80.2113 843.9949,-74.9682 833.5282,-73.3257 834.7884,-80.2113"/>
</g>
<!-- Node7&#45;&gt;Node14 -->
<g id="edge15" class="edge">
<title>Node7&#45;&gt;Node14</title>
<path fill="none" stroke="#191970" d="M574.2844,-112.2455C563.398,-103.8943 547.5117,-91.7076 534.78,-81.9408"/>
<polygon fill="#191970" stroke="#191970" points="536.6346,-78.9523 526.5699,-75.6427 532.3739,-84.5063 536.6346,-78.9523"/>
</g>
<!-- Node7&#45;&gt;Node15 -->
<g id="edge16" class="edge">
<title>Node7&#45;&gt;Node15</title>
<path fill="none" stroke="#191970" d="M593.4449,-112.2455C598.5382,-104.5367 605.7908,-93.5598 611.952,-84.2348"/>
<polygon fill="#191970" stroke="#191970" points="615.0365,-85.9155 617.6289,-75.6427 609.1962,-82.0566 615.0365,-85.9155"/>
</g>
<!-- Node10 -->
<g id="node11" class="node">
<title>Node10</title>
<polygon fill="none" stroke="#bfbfbf" points="741,-.5 741,-19.5 801,-19.5 801,-.5 741,-.5"/>
<text text-anchor="middle" x="771" y="-7.5" font-family="Helvetica,sans-Serif" font-size="10.00" fill="#000000">iostream</text>
</g>
<!-- Node9&#45;&gt;Node10 -->
<g id="edge11" class="edge">
<title>Node9&#45;&gt;Node10</title>
<path fill="none" stroke="#191970" d="M872.0275,-56.3733C852.4433,-47.3838 823.0039,-33.8706 800.949,-23.7471"/>
<polygon fill="#191970" stroke="#191970" points="802.2473,-20.4919 791.6989,-19.5011 799.3271,-26.8538 802.2473,-20.4919"/>
</g>
<!-- Node11 -->
<g id="node12" class="node">
<title>Node11</title>
<polygon fill="none" stroke="#bfbfbf" points="819.5,-.5 819.5,-19.5 888.5,-19.5 888.5,-.5 819.5,-.5"/>
<text text-anchor="middle" x="854" y="-7.5" font-family="Helvetica,sans-Serif" font-size="10.00" fill="#000000">type_traits</text>
</g>
<!-- Node9&#45;&gt;Node11 -->
<g id="edge12" class="edge">
<title>Node9&#45;&gt;Node11</title>
<path fill="none" stroke="#191970" d="M886.2067,-56.2455C880.7822,-48.4564 873.0339,-37.3308 866.4967,-27.9439"/>
<polygon fill="#191970" stroke="#191970" points="869.3025,-25.8485 860.7154,-19.6427 863.5583,-29.849 869.3025,-25.8485"/>
</g>
<!-- Node12 -->
<g id="node13" class="node">
<title>Node12</title>
<polygon fill="none" stroke="#bfbfbf" points="906.5,-.5 906.5,-19.5 957.5,-19.5 957.5,-.5 906.5,-.5"/>
<text text-anchor="middle" x="932" y="-7.5" font-family="Helvetica,sans-Serif" font-size="10.00" fill="#000000">variant</text>
</g>
<!-- Node9&#45;&gt;Node12 -->
<g id="edge13" class="edge">
<title>Node9&#45;&gt;Node12</title>
<path fill="none" stroke="#191970" d="M899.7933,-56.2455C905.2178,-48.4564 912.9661,-37.3308 919.5033,-27.9439"/>
<polygon fill="#191970" stroke="#191970" points="922.4417,-29.849 925.2846,-19.6427 916.6975,-25.8485 922.4417,-29.849"/>
</g>
<!-- Node13 -->
<g id="node14" class="node">
<title>Node13</title>
<polygon fill="none" stroke="#bfbfbf" points="975.5,-.5 975.5,-19.5 1016.5,-19.5 1016.5,-.5 975.5,-.5"/>
<text text-anchor="middle" x="996" y="-7.5" font-family="Helvetica,sans-Serif" font-size="10.00" fill="#000000">tuple</text>
</g>
<!-- Node9&#45;&gt;Node13 -->
<g id="edge14" class="edge">
<title>Node9&#45;&gt;Node13</title>
<path fill="none" stroke="#191970" d="M910.9412,-56.2455C927.04,-47.4928 950.8879,-34.527 969.2391,-24.5496"/>
<polygon fill="#191970" stroke="#191970" points="971.1507,-27.4942 978.2644,-19.6427 967.8071,-21.3444 971.1507,-27.4942"/>
</g>
<!-- Node16&#45;&gt;Node3 -->
<g id="edge21" class="edge">
<title>Node16&#45;&gt;Node3</title>
<path fill="none" stroke="#191970" d="M358.1407,-168.2032C354.5487,-158.9405 349.1421,-144.6195 345,-132 339.9452,-116.5996 334.9012,-98.9448 331.2819,-85.7721"/>
<polygon fill="#191970" stroke="#191970" points="334.6028,-84.6449 328.6078,-75.9092 327.8467,-86.4767 334.6028,-84.6449"/>
</g>
<!-- Node16&#45;&gt;Node7 -->
<g id="edge19" class="edge">
<title>Node16&#45;&gt;Node7</title>
<path fill="none" stroke="#191970" d="M400.4232,-168.4369C438.6875,-158.9133 497.5337,-144.2672 538.8849,-133.9753"/>
<polygon fill="#191970" stroke="#191970" points="539.8766,-137.3353 548.7353,-131.5237 538.1859,-130.5426 539.8766,-137.3353"/>
</g>
<!-- Node17 -->
<g id="node18" class="node">
<title>Node17</title>
<polygon fill="none" stroke="#bfbfbf" points="354.5,-112.5 354.5,-131.5 447.5,-131.5 447.5,-112.5 354.5,-112.5"/>
<text text-anchor="middle" x="401" y="-119.5" font-family="Helvetica,sans-Serif" font-size="10.00" fill="#000000">unordered_map</text>
</g>
<!-- Node16&#45;&gt;Node17 -->
<g id="edge20" class="edge">
<title>Node16&#45;&gt;Node17</title>
<path fill="none" stroke="#191970" d="M368.7933,-168.2455C374.2178,-160.4564 381.9661,-149.3308 388.5033,-139.9439"/>
<polygon fill="#191970" stroke="#191970" points="391.4417,-141.849 394.2846,-131.6427 385.6975,-137.8485 391.4417,-141.849"/>
</g>
<!-- Node18 -->
<g id="node19" class="node">
<title>Node18</title>
<polygon fill="none" stroke="#bfbfbf" points="689,-112.5 689,-131.5 789,-131.5 789,-112.5 689,-112.5"/>
<text text-anchor="middle" x="739" y="-119.5" font-family="Helvetica,sans-Serif" font-size="10.00" fill="#000000">betterEnums.hxx</text>
</g>
<!-- Node16&#45;&gt;Node18 -->
<g id="edge22" class="edge">
<title>Node16&#45;&gt;Node18</title>
<path fill="none" stroke="#191970" d="M430.3921,-168.4993C494.6356,-159.4744 593.419,-145.3396 679,-132 679.1011,-131.9842 679.2023,-131.9685 679.3035,-131.9527"/>
<polygon fill="#191970" stroke="#191970" points="679.5941,-135.4504 688.9225,-130.4272 678.4976,-128.5368 679.5941,-135.4504"/>
</g>
<!-- Node19 -->
<g id="node20" class="node">
<title>Node19</title>
<polygon fill="none" stroke="#bfbfbf" points="240,-112.5 240,-131.5 298,-131.5 298,-112.5 240,-112.5"/>
<text text-anchor="middle" x="269" y="-119.5" font-family="Helvetica,sans-Serif" font-size="10.00" fill="#000000">json.hxx</text>
</g>
<!-- Node16&#45;&gt;Node19 -->
<g id="edge23" class="edge">
<title>Node16&#45;&gt;Node19</title>
<path fill="none" stroke="#191970" d="M345.8006,-168.2455C331.3982,-159.5731 310.1268,-146.7645 293.6201,-136.825"/>
<polygon fill="#191970" stroke="#191970" points="295.386,-133.8028 285.0137,-131.6427 291.775,-139.7996 295.386,-133.8028"/>
</g>
<!-- Node21 -->
<g id="node22" class="node">
<title>Node21</title>
<g id="a_node22"><a xlink:href="Events_8hxx.html" target="_top" xlink:title="Events.hxx">
<polygon fill="none" stroke="#000000" points="831.5,-168.5 831.5,-187.5 902.5,-187.5 902.5,-168.5 831.5,-168.5"/>
<text text-anchor="middle" x="867" y="-175.5" font-family="Helvetica,sans-Serif" font-size="10.00" fill="#000000">Events.hxx</text>
</a>
</g>
</g>
<!-- Node20&#45;&gt;Node21 -->
<g id="edge27" class="edge">
<title>Node20&#45;&gt;Node21</title>
<path fill="none" stroke="#191970" d="M883.5163,-224.2455C880.8492,-216.7776 877.0867,-206.2427 873.8263,-197.1137"/>
<polygon fill="#191970" stroke="#191970" points="877.1033,-195.8829 870.4438,-187.6427 870.5111,-198.2373 877.1033,-195.8829"/>
</g>
<!-- Node23 -->
<g id="node24" class="node">
<title>Node23</title>
<g id="a_node24"><a xlink:href="GameService_8inl_8hxx.html" target="_top" xlink:title="GameService.inl.hxx">
<polygon fill="none" stroke="#000000" points="921,-168.5 921,-187.5 1039,-187.5 1039,-168.5 921,-168.5"/>
<text text-anchor="middle" x="980" y="-175.5" font-family="Helvetica,sans-Serif" font-size="10.00" fill="#000000">GameService.inl.hxx</text>
</a>
</g>
</g>
<!-- Node20&#45;&gt;Node23 -->
<g id="edge32" class="edge">
<title>Node20&#45;&gt;Node23</title>
<path fill="none" stroke="#191970" d="M903.1994,-224.2455C917.6018,-215.5731 938.8732,-202.7645 955.3799,-192.825"/>
<polygon fill="#191970" stroke="#191970" points="957.225,-195.7996 963.9863,-187.6427 953.614,-189.8028 957.225,-195.7996"/>
</g>
<!-- Node21&#45;&gt;Node8 -->
<g id="edge28" class="edge">
<title>Node21&#45;&gt;Node8</title>
<path fill="none" stroke="#191970" d="M863.9129,-168.2346C859.01,-154.1318 848.1995,-128.0041 831,-112 811.3947,-93.7574 783.3065,-81.7642 761.7254,-74.6119"/>
<polygon fill="#191970" stroke="#191970" points="762.6101,-71.2214 752.0211,-71.5723 760.5178,-77.9014 762.6101,-71.2214"/>
</g>
<!-- Node21&#45;&gt;Node9 -->
<g id="edge30" class="edge">
<title>Node21&#45;&gt;Node9</title>
<path fill="none" stroke="#191970" d="M869.2167,-168.4509C873.4765,-150.1013 882.8807,-109.5908 888.5035,-85.3693"/>
<polygon fill="#191970" stroke="#191970" points="891.9368,-86.0573 890.7889,-75.5249 885.1182,-84.4744 891.9368,-86.0573"/>
</g>
<!-- Node21&#45;&gt;Node18 -->
<g id="edge29" class="edge">
<title>Node21&#45;&gt;Node18</title>
<path fill="none" stroke="#191970" d="M844.996,-168.3733C824.3565,-159.3435 793.2842,-145.7494 770.1111,-135.6111"/>
<polygon fill="#191970" stroke="#191970" points="771.2813,-132.3028 760.7169,-131.5011 768.4755,-138.7159 771.2813,-132.3028"/>
</g>
<!-- Node22 -->
<g id="node23" class="node">
<title>Node22</title>
<g id="a_node23"><a xlink:href="UIEvents_8hxx.html" target="_top" xlink:title="events/UIEvents.hxx">
<polygon fill="none" stroke="#000000" points="921.5,-112.5 921.5,-131.5 1038.5,-131.5 1038.5,-112.5 921.5,-112.5"/>
<text text-anchor="middle" x="980" y="-119.5" font-family="Helvetica,sans-Serif" font-size="10.00" fill="#000000">events/UIEvents.hxx</text>
</a>
</g>
</g>
<!-- Node21&#45;&gt;Node22 -->
<g id="edge31" class="edge">
<title>Node21&#45;&gt;Node22</title>
<path fill="none" stroke="#191970" d="M886.4254,-168.3733C904.4021,-159.4644 931.3441,-146.1127 951.709,-136.0203"/>
<polygon fill="#191970" stroke="#191970" points="953.4222,-139.0776 960.8281,-131.5011 950.3139,-132.8055 953.4222,-139.0776"/>
</g>
</g>
</svg>
