<?xml version="1.0" encoding="UTF-8" standalone="no"?>
<!DOCTYPE svg PUBLIC "-//W3C//DTD SVG 1.1//EN"
 "http://www.w3.org/Graphics/SVG/1.1/DTD/svg11.dtd">
<!-- Generated by graphviz version 2.40.1 (20161225.0304)
 -->
<!-- Title: MapNode::getOrigCornerPoint Pages: 1 -->
<svg width="1870pt" height="200pt"
 viewBox="0.00 0.00 1870.00 200.06" xmlns="http://www.w3.org/2000/svg" xmlns:xlink="http://www.w3.org/1999/xlink">
<g id="graph0" class="graph" transform="scale(1 1) rotate(0) translate(4 196.0584)">
<title>MapNode::getOrigCornerPoint</title>
<!-- Node148 -->
<g id="node1" class="node">
<title>Node148</title>
<polygon fill="#bfbfbf" stroke="#000000" points="0,-115.5584 0,-134.5584 161,-134.5584 161,-115.5584 0,-115.5584"/>
<text text-anchor="middle" x="80.5" y="-122.5584" font-family="Helvetica,sans-Serif" font-size="10.00" fill="#000000">MapNode::getOrigCornerPoint</text>
</g>
<!-- Node149 -->
<g id="node2" class="node">
<title>Node149</title>
<g id="a_node2"><a xlink:href="classMap.html#aa8cc2ed983007621bce12dd9d1b8ec5b" target="_top" xlink:title="Demolish a node This function gathers all tiles that should be demolished and invokes the nodes demol...">
<polygon fill="none" stroke="#000000" points="197,-115.5584 197,-134.5584 310,-134.5584 310,-115.5584 197,-115.5584"/>
<text text-anchor="middle" x="253.5" y="-122.5584" font-family="Helvetica,sans-Serif" font-size="10.00" fill="#000000">Map::demolishNode</text>
</a>
</g>
</g>
<!-- Node148&#45;&gt;Node149 -->
<g id="edge1" class="edge">
<title>Node148&#45;&gt;Node149</title>
<path fill="none" stroke="#191970" d="M171.2985,-125.0584C179.9171,-125.0584 188.4788,-125.0584 196.6399,-125.0584"/>
<polygon fill="#191970" stroke="#191970" points="171.1753,-121.5585 161.1753,-125.0584 171.1753,-128.5585 171.1753,-121.5585"/>
</g>
<!-- Node150 -->
<g id="node3" class="node">
<title>Node150</title>
<g id="a_node3"><a xlink:href="classEventManager.html#a65ec91fd5016d4f9c4167fb8babed2df" target="_top" xlink:title="EventManager::checkEvents">
<polygon fill="none" stroke="#000000" points="1351,-106.5584 1351,-125.5584 1505,-125.5584 1505,-106.5584 1351,-106.5584"/>
<text text-anchor="middle" x="1428" y="-113.5584" font-family="Helvetica,sans-Serif" font-size="10.00" fill="#000000">EventManager::checkEvents</text>
</a>
</g>
</g>
<!-- Node149&#45;&gt;Node150 -->
<g id="edge2" class="edge">
<title>Node149&#45;&gt;Node150</title>
<path fill="none" stroke="#191970" d="M292.1129,-137.7498C354.7475,-157.1759 482.7116,-192.0584 594,-192.0584 594,-192.0584 594,-192.0584 1070.5,-192.0584 1196.7714,-192.0584 1342.7544,-146.1344 1401.5024,-125.6838"/>
<polygon fill="#191970" stroke="#191970" points="292.8632,-134.3169 282.2739,-134.6579 290.7646,-140.9949 292.8632,-134.3169"/>
</g>
<!-- Node154 -->
<g id="node7" class="node">
<title>Node154</title>
<g id="a_node7"><a xlink:href="classMap.html#ade1eeabf4e539f9dbfe2a96c97fda4e3" target="_top" xlink:title="Map::changeHeight">
<polygon fill="none" stroke="#000000" points="539,-115.5584 539,-134.5584 649,-134.5584 649,-115.5584 539,-115.5584"/>
<text text-anchor="middle" x="594" y="-122.5584" font-family="Helvetica,sans-Serif" font-size="10.00" fill="#000000">Map::changeHeight</text>
</a>
</g>
</g>
<!-- Node149&#45;&gt;Node154 -->
<g id="edge6" class="edge">
<title>Node149&#45;&gt;Node154</title>
<path fill="none" stroke="#191970" d="M320.4738,-125.0584C384.3394,-125.0584 479.371,-125.0584 538.9499,-125.0584"/>
<polygon fill="#191970" stroke="#191970" points="320.1089,-121.5585 310.1089,-125.0584 320.1088,-128.5585 320.1089,-121.5585"/>
</g>
<!-- Node159 -->
<g id="node12" class="node">
<title>Node159</title>
<g id="a_node12"><a xlink:href="classMap.html#af1e496c421981fe707890b0ba60cc20f" target="_top" xlink:title="Map::updateNodeNeighbors">
<polygon fill="none" stroke="#000000" points="346,-96.5584 346,-115.5584 498,-115.5584 498,-96.5584 346,-96.5584"/>
<text text-anchor="middle" x="422" y="-103.5584" font-family="Helvetica,sans-Serif" font-size="10.00" fill="#000000">Map::updateNodeNeighbors</text>
</a>
</g>
</g>
<!-- Node149&#45;&gt;Node159 -->
<g id="edge13" class="edge">
<title>Node149&#45;&gt;Node159</title>
<path fill="none" stroke="#191970" d="M298.6062,-113.9166C313.1361,-111.7233 329.6634,-109.6374 345.7937,-107.9288"/>
<polygon fill="#191970" stroke="#191970" points="297.7437,-110.5095 288.4133,-115.5288 298.8373,-117.4235 297.7437,-110.5095"/>
</g>
<!-- Node151 -->
<g id="node4" class="node">
<title>Node151</title>
<g id="a_node4"><a xlink:href="classGame.html#a1c2ab25d5216b2f4b2fe41efd2c09114" target="_top" xlink:title="begins the game starts running the game ">
<polygon fill="none" stroke="#000000" points="1570.5,-106.5584 1570.5,-125.5584 1638.5,-125.5584 1638.5,-106.5584 1570.5,-106.5584"/>
<text text-anchor="middle" x="1604.5" y="-113.5584" font-family="Helvetica,sans-Serif" font-size="10.00" fill="#000000">Game::run</text>
</a>
</g>
</g>
<!-- Node150&#45;&gt;Node151 -->
<g id="edge3" class="edge">
<title>Node150&#45;&gt;Node151</title>
<path fill="none" stroke="#191970" d="M1515.3664,-116.0584C1534.9355,-116.0584 1554.5625,-116.0584 1570.398,-116.0584"/>
<polygon fill="#191970" stroke="#191970" points="1515.1587,-112.5585 1505.1587,-116.0584 1515.1587,-119.5585 1515.1587,-112.5585"/>
</g>
<!-- Node152 -->
<g id="node5" class="node">
<title>Node152</title>
<g id="a_node5"><a xlink:href="main_8cxx.html#af582d708d899e67ead623eac34a22387" target="_top" xlink:title="protected_main">
<polygon fill="none" stroke="#000000" points="1692,-87.5584 1692,-106.5584 1785,-106.5584 1785,-87.5584 1692,-87.5584"/>
<text text-anchor="middle" x="1738.5" y="-94.5584" font-family="Helvetica,sans-Serif" font-size="10.00" fill="#000000">protected_main</text>
</a>
</g>
</g>
<!-- Node151&#45;&gt;Node152 -->
<g id="edge4" class="edge">
<title>Node151&#45;&gt;Node152</title>
<path fill="none" stroke="#191970" d="M1648.8611,-109.7684C1662.6278,-107.8164 1677.8396,-105.6595 1691.7626,-103.6853"/>
<polygon fill="#191970" stroke="#191970" points="1648.0702,-106.3454 1638.6606,-111.2147 1649.0529,-113.2761 1648.0702,-106.3454"/>
</g>
<!-- Node153 -->
<g id="node6" class="node">
<title>Node153</title>
<g id="a_node6"><a xlink:href="main_8cxx.html#a3c04138a5bfe5d72780bb7e82a18e627" target="_top" xlink:title="main">
<polygon fill="none" stroke="#000000" points="1821,-87.5584 1821,-106.5584 1862,-106.5584 1862,-87.5584 1821,-87.5584"/>
<text text-anchor="middle" x="1841.5" y="-94.5584" font-family="Helvetica,sans-Serif" font-size="10.00" fill="#000000">main</text>
</a>
</g>
</g>
<!-- Node152&#45;&gt;Node153 -->
<g id="edge5" class="edge">
<title>Node152&#45;&gt;Node153</title>
<path fill="none" stroke="#191970" d="M1795.2133,-97.0584C1804.4322,-97.0584 1813.4259,-97.0584 1820.9965,-97.0584"/>
<polygon fill="#191970" stroke="#191970" points="1795.1782,-93.5585 1785.1782,-97.0584 1795.1781,-100.5585 1795.1782,-93.5585"/>
</g>
<!-- Node155 -->
<g id="node8" class="node">
<title>Node155</title>
<g id="a_node8"><a xlink:href="classMap.html#aba5154a4d917900679a3c0f7ec701561" target="_top" xlink:title="Increase Height Increases the height of the node and checks the surrounding tiles. Either draw a slope sprite or elevate the tile if necessary. ">
<polygon fill="none" stroke="#000000" points="691.5,-144.5584 691.5,-163.5584 807.5,-163.5584 807.5,-144.5584 691.5,-144.5584"/>
<text text-anchor="middle" x="749.5" y="-151.5584" font-family="Helvetica,sans-Serif" font-size="10.00" fill="#000000">Map::increaseHeight</text>
</a>
</g>
</g>
<!-- Node154&#45;&gt;Node155 -->
<g id="edge7" class="edge">
<title>Node154&#45;&gt;Node155</title>
<path fill="none" stroke="#191970" d="M655.5432,-136.5359C669.7689,-139.1889 684.7522,-141.9832 698.4716,-144.5418"/>
<polygon fill="#191970" stroke="#191970" points="655.8197,-133.0272 645.3475,-134.6344 654.5363,-139.9085 655.8197,-133.0272"/>
</g>
<!-- Node157 -->
<g id="node10" class="node">
<title>Node157</title>
<g id="a_node10"><a xlink:href="classMap.html#afb8cc864df90d273a5074872d635dc40" target="_top" xlink:title="Decrease Height Decreases the height of the node and checks the surrounding tiles. Either draw a slope sprite or lower the tile if necessary. ">
<polygon fill="none" stroke="#000000" points="690,-106.5584 690,-125.5584 809,-125.5584 809,-106.5584 690,-106.5584"/>
<text text-anchor="middle" x="749.5" y="-113.5584" font-family="Helvetica,sans-Serif" font-size="10.00" fill="#000000">Map::decreaseHeight</text>
</a>
</g>
</g>
<!-- Node154&#45;&gt;Node157 -->
<g id="edge10" class="edge">
<title>Node154&#45;&gt;Node157</title>
<path fill="none" stroke="#191970" d="M659.2978,-121.2791C669.458,-120.691 679.9095,-120.0861 689.9337,-119.506"/>
<polygon fill="#191970" stroke="#191970" points="659.0423,-117.7879 649.2613,-121.86 659.4469,-124.7762 659.0423,-117.7879"/>
</g>
<!-- Node156 -->
<g id="node9" class="node">
<title>Node156</title>
<g id="a_node9"><a xlink:href="classEngine.html#a4851ae1ff696c893741167fc0194fd77" target="_top" xlink:title="Increase Height Increases the height of the given map node Calls the according function of the Map ob...">
<polygon fill="none" stroke="#000000" points="1006,-144.5584 1006,-163.5584 1135,-163.5584 1135,-144.5584 1006,-144.5584"/>
<text text-anchor="middle" x="1070.5" y="-151.5584" font-family="Helvetica,sans-Serif" font-size="10.00" fill="#000000">Engine::increaseHeight</text>
</a>
</g>
</g>
<!-- Node155&#45;&gt;Node156 -->
<g id="edge8" class="edge">
<title>Node155&#45;&gt;Node156</title>
<path fill="none" stroke="#191970" d="M817.742,-154.0584C873.3447,-154.0584 951.3155,-154.0584 1005.9082,-154.0584"/>
<polygon fill="#191970" stroke="#191970" points="817.6307,-150.5585 807.6307,-154.0584 817.6306,-157.5585 817.6307,-150.5585"/>
</g>
<!-- Node156&#45;&gt;Node150 -->
<g id="edge9" class="edge">
<title>Node156&#45;&gt;Node150</title>
<path fill="none" stroke="#191970" d="M1145.3694,-149.2633C1191.0024,-146.0121 1250.4563,-141.1912 1303,-135.0584 1325.2387,-132.4627 1349.6,-128.9192 1370.862,-125.5952"/>
<polygon fill="#191970" stroke="#191970" points="1144.9917,-145.7811 1135.2618,-149.9739 1145.4827,-152.7639 1144.9917,-145.7811"/>
</g>
<!-- Node158 -->
<g id="node11" class="node">
<title>Node158</title>
<g id="a_node11"><a xlink:href="classEngine.html#a13572fdd7f6470dca48a14497f58980e" target="_top" xlink:title="Decrease Height Decreases the height of the given map node Calls the according function of the Map ob...">
<polygon fill="none" stroke="#000000" points="1171,-106.5584 1171,-125.5584 1303,-125.5584 1303,-106.5584 1171,-106.5584"/>
<text text-anchor="middle" x="1237" y="-113.5584" font-family="Helvetica,sans-Serif" font-size="10.00" fill="#000000">Engine::decreaseHeight</text>
</a>
</g>
</g>
<!-- Node157&#45;&gt;Node158 -->
<g id="edge11" class="edge">
<title>Node157&#45;&gt;Node158</title>
<path fill="none" stroke="#191970" d="M819.5299,-116.0584C913.451,-116.0584 1079.0114,-116.0584 1170.8891,-116.0584"/>
<polygon fill="#191970" stroke="#191970" points="819.2771,-112.5585 809.2771,-116.0584 819.277,-119.5585 819.2771,-112.5585"/>
</g>
<!-- Node158&#45;&gt;Node150 -->
<g id="edge12" class="edge">
<title>Node158&#45;&gt;Node150</title>
<path fill="none" stroke="#191970" d="M1313.4473,-116.0584C1325.7119,-116.0584 1338.4135,-116.0584 1350.698,-116.0584"/>
<polygon fill="#191970" stroke="#191970" points="1313.2665,-112.5585 1303.2665,-116.0584 1313.2665,-119.5585 1313.2665,-112.5585"/>
</g>
<!-- Node159&#45;&gt;Node149 -->
<g id="edge28" class="edge">
<title>Node159&#45;&gt;Node149</title>
<path fill="none" stroke="#191970" d="M376.8941,-117.2001C356.3582,-120.3 331.8327,-123.1854 310.0768,-125.0942"/>
<polygon fill="#191970" stroke="#191970" points="377.5974,-120.6325 386.9284,-115.6142 376.5046,-113.7183 377.5974,-120.6325"/>
</g>
<!-- Node159&#45;&gt;Node154 -->
<g id="edge14" class="edge">
<title>Node159&#45;&gt;Node154</title>
<path fill="none" stroke="#191970" d="M508.1553,-115.5755C518.5662,-116.7256 528.9739,-117.8753 538.7684,-118.9572"/>
<polygon fill="#191970" stroke="#191970" points="508.5167,-112.0943 498.1928,-114.475 507.7481,-119.0519 508.5167,-112.0943"/>
</g>
<!-- Node160 -->
<g id="node13" class="node">
<title>Node160</title>
<g id="a_node13"><a xlink:href="classMap.html#a481b37ba71ef0e51e836fc42805762dd" target="_top" xlink:title="Update all mapNodes Updates all mapNode and its adjacent tiles regarding height information, draws slopes for adjacent tiles and sets tiling for mapNode sprite if applicable. ">
<polygon fill="none" stroke="#000000" points="534,-68.5584 534,-87.5584 654,-87.5584 654,-68.5584 534,-68.5584"/>
<text text-anchor="middle" x="594" y="-75.5584" font-family="Helvetica,sans-Serif" font-size="10.00" fill="#000000">Map::updateAllNodes</text>
</a>
</g>
</g>
<!-- Node159&#45;&gt;Node160 -->
<g id="edge15" class="edge">
<title>Node159&#45;&gt;Node160</title>
<path fill="none" stroke="#191970" d="M490.8334,-94.8529C505.6504,-92.4409 521.1761,-89.9134 535.553,-87.573"/>
<polygon fill="#191970" stroke="#191970" points="490.0193,-91.4393 480.7116,-96.5007 491.144,-98.3484 490.0193,-91.4393"/>
</g>
<!-- Node161 -->
<g id="node14" class="node">
<title>Node161</title>
<g id="a_node14"><a xlink:href="classMap.html#a26eceeccd7b6ed693909b1927a25c67a" target="_top" xlink:title="Map::Map">
<polygon fill="none" stroke="#000000" points="718,-68.5584 718,-87.5584 781,-87.5584 781,-68.5584 718,-68.5584"/>
<text text-anchor="middle" x="749.5" y="-75.5584" font-family="Helvetica,sans-Serif" font-size="10.00" fill="#000000">Map::Map</text>
</a>
</g>
</g>
<!-- Node160&#45;&gt;Node161 -->
<g id="edge16" class="edge">
<title>Node160&#45;&gt;Node161</title>
<path fill="none" stroke="#191970" d="M664.1506,-78.0584C682.9085,-78.0584 702.262,-78.0584 717.7876,-78.0584"/>
<polygon fill="#191970" stroke="#191970" points="664.1204,-74.5585 654.1204,-78.0584 664.1203,-81.5585 664.1204,-74.5585"/>
</g>
<!-- Node162 -->
<g id="node15" class="node">
<title>Node162</title>
<g id="a_node15"><a xlink:href="classMap.html#afefe996cc1f62b61ec60d0ae415953bf" target="_top" xlink:title="Map::loadMapFromFile">
<polygon fill="none" stroke="#000000" points="845,-30.5584 845,-49.5584 970,-49.5584 970,-30.5584 845,-30.5584"/>
<text text-anchor="middle" x="907.5" y="-37.5584" font-family="Helvetica,sans-Serif" font-size="10.00" fill="#000000">Map::loadMapFromFile</text>
</a>
</g>
</g>
<!-- Node160&#45;&gt;Node162 -->
<g id="edge27" class="edge">
<title>Node160&#45;&gt;Node162</title>
<path fill="none" stroke="#191970" d="M646.7971,-66.5431C660.7907,-63.7838 675.9232,-61.0603 690,-59.0584 741.9744,-51.6671 801.3727,-46.7121 844.9492,-43.7208"/>
<polygon fill="#191970" stroke="#191970" points="645.9522,-63.143 636.8403,-68.5489 647.3346,-70.0051 645.9522,-63.143"/>
</g>
<!-- Node161&#45;&gt;Node162 -->
<g id="edge17" class="edge">
<title>Node161&#45;&gt;Node162</title>
<path fill="none" stroke="#191970" d="M790.8821,-68.1057C814.6505,-62.3893 844.3456,-55.2474 867.8219,-49.6012"/>
<polygon fill="#191970" stroke="#191970" points="789.9982,-64.7184 781.0939,-70.4599 791.6351,-71.5244 789.9982,-64.7184"/>
</g>
<!-- Node163 -->
<g id="node16" class="node">
<title>Node163</title>
<g id="a_node16"><a xlink:href="classEngine.html#a83b7dbeee899b36a13d5b07c7ad87ebc" target="_top" xlink:title="Loads a saved game Loads a saved Game. ">
<polygon fill="none" stroke="#000000" points="1017.5,-30.5584 1017.5,-49.5584 1123.5,-49.5584 1123.5,-30.5584 1017.5,-30.5584"/>
<text text-anchor="middle" x="1070.5" y="-37.5584" font-family="Helvetica,sans-Serif" font-size="10.00" fill="#000000">Engine::loadGame</text>
</a>
</g>
</g>
<!-- Node162&#45;&gt;Node163 -->
<g id="edge18" class="edge">
<title>Node162&#45;&gt;Node163</title>
<path fill="none" stroke="#191970" d="M980.4208,-40.0584C992.8687,-40.0584 1005.5866,-40.0584 1017.3955,-40.0584"/>
<polygon fill="#191970" stroke="#191970" points="980.0539,-36.5585 970.0539,-40.0584 980.0539,-43.5585 980.0539,-36.5585"/>
</g>
<!-- Node164 -->
<g id="node17" class="node">
<title>Node164</title>
<g id="a_node17"><a xlink:href="classEngine.html#a0ba57971ffb5173ecc425461f65a4cd8" target="_top" xlink:title="Quits the game Sets m_running to false and quitting the game. ">
<polygon fill="none" stroke="#000000" points="1185,-68.5584 1185,-87.5584 1289,-87.5584 1289,-68.5584 1185,-68.5584"/>
<text text-anchor="middle" x="1237" y="-75.5584" font-family="Helvetica,sans-Serif" font-size="10.00" fill="#000000">Engine::quitGame</text>
</a>
</g>
</g>
<!-- Node163&#45;&gt;Node164 -->
<g id="edge19" class="edge">
<title>Node163&#45;&gt;Node164</title>
<path fill="none" stroke="#191970" d="M1122.309,-51.8827C1145.7825,-57.24 1173.1654,-63.4895 1195.2871,-68.5383"/>
<polygon fill="#191970" stroke="#191970" points="1123.0431,-48.4603 1112.515,-49.6474 1121.4855,-55.2848 1123.0431,-48.4603"/>
</g>
<!-- Node165 -->
<g id="node18" class="node">
<title>Node165</title>
<g id="a_node18"><a xlink:href="classUIManager.html#aa78e356fc3b356d790c848319d1c387e" target="_top" xlink:title="UIManager::setCallbackFunctions">
<polygon fill="none" stroke="#000000" points="1339,-30.5584 1339,-49.5584 1517,-49.5584 1517,-30.5584 1339,-30.5584"/>
<text text-anchor="middle" x="1428" y="-37.5584" font-family="Helvetica,sans-Serif" font-size="10.00" fill="#000000">UIManager::setCallbackFunctions</text>
</a>
</g>
</g>
<!-- Node163&#45;&gt;Node165 -->
<g id="edge25" class="edge">
<title>Node163&#45;&gt;Node165</title>
<path fill="none" stroke="#191970" d="M1133.9417,-40.0584C1190.8953,-40.0584 1275.0959,-40.0584 1338.8182,-40.0584"/>
<polygon fill="#191970" stroke="#191970" points="1133.6354,-36.5585 1123.6353,-40.0584 1133.6353,-43.5585 1133.6354,-36.5585"/>
</g>
<!-- Node167 -->
<g id="node20" class="node">
<title>Node167</title>
<g id="a_node20"><a xlink:href="classGame.html#a560299f0291c281f7b44e7ef0dd7b264" target="_top" xlink:title="initializes and displays the main menu initializes and displays the main menu ">
<polygon fill="none" stroke="#000000" points="1553,-68.5584 1553,-87.5584 1656,-87.5584 1656,-68.5584 1553,-68.5584"/>
<text text-anchor="middle" x="1604.5" y="-75.5584" font-family="Helvetica,sans-Serif" font-size="10.00" fill="#000000">Game::mainMenu</text>
</a>
</g>
</g>
<!-- Node163&#45;&gt;Node167 -->
<g id="edge26" class="edge">
<title>Node163&#45;&gt;Node167</title>
<path fill="none" stroke="#191970" d="M1117.5242,-28.2186C1200.2887,-9.5212 1376.5229,20.6614 1517,-21.0584 1548.2834,-30.3491 1578.8332,-54.7547 1594.215,-68.4267"/>
<polygon fill="#191970" stroke="#191970" points="1116.623,-24.8345 1107.6653,-30.4922 1118.1961,-31.6555 1116.623,-24.8345"/>
</g>
<!-- Node164&#45;&gt;Node150 -->
<g id="edge20" class="edge">
<title>Node164&#45;&gt;Node150</title>
<path fill="none" stroke="#191970" d="M1295.3531,-89.6679C1322.5176,-95.0724 1354.4324,-101.4219 1380.1492,-106.5383"/>
<polygon fill="#191970" stroke="#191970" points="1295.6881,-86.166 1285.1974,-87.6474 1294.3222,-93.0315 1295.6881,-86.166"/>
</g>
<!-- Node164&#45;&gt;Node165 -->
<g id="edge21" class="edge">
<title>Node164&#45;&gt;Node165</title>
<path fill="none" stroke="#191970" d="M1295.3531,-66.4489C1322.5176,-61.0444 1354.4324,-54.6949 1380.1492,-49.5784"/>
<polygon fill="#191970" stroke="#191970" points="1294.3222,-63.0853 1285.1974,-68.4694 1295.6881,-69.9507 1294.3222,-63.0853"/>
</g>
<!-- Node166 -->
<g id="node19" class="node">
<title>Node166</title>
<g id="a_node19"><a xlink:href="classGame.html#a8272be134d16c277bb014ad6a22fc357" target="_top" xlink:title="Game::quit">
<polygon fill="none" stroke="#000000" points="1392.5,-68.5584 1392.5,-87.5584 1463.5,-87.5584 1463.5,-68.5584 1392.5,-68.5584"/>
<text text-anchor="middle" x="1428" y="-75.5584" font-family="Helvetica,sans-Serif" font-size="10.00" fill="#000000">Game::quit</text>
</a>
</g>
</g>
<!-- Node164&#45;&gt;Node166 -->
<g id="edge22" class="edge">
<title>Node164&#45;&gt;Node166</title>
<path fill="none" stroke="#191970" d="M1299.4322,-78.0584C1330.2881,-78.0584 1366.3982,-78.0584 1392.4801,-78.0584"/>
<polygon fill="#191970" stroke="#191970" points="1299.1916,-74.5585 1289.1916,-78.0584 1299.1916,-81.5585 1299.1916,-74.5585"/>
</g>
<!-- Node166&#45;&gt;Node167 -->
<g id="edge23" class="edge">
<title>Node166&#45;&gt;Node167</title>
<path fill="none" stroke="#191970" d="M1474.0403,-78.0584C1498.1836,-78.0584 1527.8403,-78.0584 1552.7739,-78.0584"/>
<polygon fill="#191970" stroke="#191970" points="1473.7174,-74.5585 1463.7174,-78.0584 1473.7174,-81.5585 1473.7174,-74.5585"/>
</g>
<!-- Node167&#45;&gt;Node152 -->
<g id="edge24" class="edge">
<title>Node167&#45;&gt;Node152</title>
<path fill="none" stroke="#191970" d="M1666.2457,-86.8134C1674.7846,-88.0241 1683.438,-89.2511 1691.6465,-90.415"/>
<polygon fill="#191970" stroke="#191970" points="1666.7003,-83.3429 1656.3079,-85.4043 1665.7175,-90.2736 1666.7003,-83.3429"/>
</g>
</g>
</svg>
