<?xml version="1.0" encoding="UTF-8" standalone="no"?>
<!DOCTYPE svg PUBLIC "-//W3C//DTD SVG 1.1//EN"
 "http://www.w3.org/Graphics/SVG/1.1/DTD/svg11.dtd">
<!-- Generated by graphviz version 2.40.1 (20161225.0304)
 -->
<!-- Title: Map::isPlacementOnNodeAllowed Pages: 1 -->
<svg width="359pt" height="78pt"
 viewBox="0.00 0.00 359.00 77.50" xmlns="http://www.w3.org/2000/svg" xmlns:xlink="http://www.w3.org/1999/xlink">
<g id="graph0" class="graph" transform="scale(1 1) rotate(0) translate(4 73.5)">
<title>Map::isPlacementOnNodeAllowed</title>
<!-- Node365 -->
<g id="node1" class="node">
<title>Node365</title>
<polygon fill="#bfbfbf" stroke="#000000" points="0,-22.5 0,-41.5 181,-41.5 181,-22.5 0,-22.5"/>
<text text-anchor="middle" x="90.5" y="-29.5" font-family="Helvetica,sans-Serif" font-size="10.00" fill="#000000">Map::isPlacementOnNodeAllowed</text>
</g>
<!-- Node366 -->
<g id="node2" class="node">
<title>Node366</title>
<g id="a_node2"><a xlink:href="classSingleton.html#af5cb1e5749949e2b68416cfb8d378044" target="_top" xlink:title="Get an instance of the singleton. ">
<polygon fill="none" stroke="#000000" points="217,-39 217,-69 351,-69 351,-39 217,-39"/>
<text text-anchor="start" x="225" y="-57" font-family="Helvetica,sans-Serif" font-size="10.00" fill="#000000">Singleton&lt; TileManager</text>
<text text-anchor="middle" x="284" y="-46" font-family="Helvetica,sans-Serif" font-size="10.00" fill="#000000"> &gt;::instance</text>
</a>
</g>
</g>
<!-- Node365&#45;&gt;Node366 -->
<g id="edge1" class="edge">
<title>Node365&#45;&gt;Node366</title>
<path fill="none" stroke="#191970" d="M174.2465,-41.5216C185.0055,-42.7448 195.983,-43.9929 206.6337,-45.2038"/>
<polygon fill="#191970" stroke="#191970" points="206.3959,-48.6993 216.7273,-46.3514 207.1867,-41.7441 206.3959,-48.6993"/>
</g>
<!-- Node367 -->
<g id="node3" class="node">
<title>Node367</title>
<g id="a_node3"><a xlink:href="classMap.html#a1676db3d125b2c1764adfcb64d6332a2" target="_top" xlink:title="Map::nodeIdx">
<polygon fill="none" stroke="#000000" points="243,-.5 243,-19.5 325,-19.5 325,-.5 243,-.5"/>
<text text-anchor="middle" x="284" y="-7.5" font-family="Helvetica,sans-Serif" font-size="10.00" fill="#000000">Map::nodeIdx</text>
</a>
</g>
</g>
<!-- Node365&#45;&gt;Node367 -->
<g id="edge2" class="edge">
<title>Node365&#45;&gt;Node367</title>
<path fill="none" stroke="#191970" d="M174.2465,-22.4784C194.2336,-20.206 214.9748,-17.8478 232.974,-15.8014"/>
<polygon fill="#191970" stroke="#191970" points="233.4073,-19.2748 242.9479,-14.6674 232.6165,-12.3196 233.4073,-19.2748"/>
</g>
</g>
</svg>
