<?xml version="1.0" encoding="UTF-8" standalone="no"?>
<!DOCTYPE svg PUBLIC "-//W3C//DTD SVG 1.1//EN"
 "http://www.w3.org/Graphics/SVG/1.1/DTD/svg11.dtd">
<!-- Generated by graphviz version 2.40.1 (20161225.0304)
 -->
<!-- Title: MapNode::getCoordinates Pages: 1 -->
<!--zoomable 332 -->
<svg id="main" version="1.1" xmlns="http://www.w3.org/2000/svg" xmlns:xlink="http://www.w3.org/1999/xlink" xml:space="preserve" onload="init(evt)">
<style type="text/css"><![CDATA[
.edge:hover path { stroke: red; }
.edge:hover polygon { stroke: red; fill: red; }
]]></style>
<script type="text/javascript"><![CDATA[
var edges = document.getElementsByTagName('g');
if (edges && edges.length) {
  for (var i=0;i<edges.length;i++) {
    if (edges[i].id.substr(0,4)=='edge') {
      edges[i].setAttribute('class','edge');
    }
  }
}
]]></script>
        <defs>
                <circle id="rim" cx="0" cy="0" r="7"/>
                <circle id="rim2" cx="0" cy="0" r="3.5"/>
                <g id="zoomPlus">
                        <use xlink:href="#rim" fill="#404040">
                                <set attributeName="fill" to="#808080" begin="zoomplus.mouseover" end="zoomplus.mouseout"/>
                        </use>
                        <path d="M-4,0h8M0,-4v8" fill="none" stroke="white" stroke-width="1.5" pointer-events="none"/>
                </g>
                <g id="zoomMin">
                        <use xlink:href="#rim" fill="#404040">
                                <set attributeName="fill" to="#808080" begin="zoomminus.mouseover" end="zoomminus.mouseout"/>
                        </use>
                        <path d="M-4,0h8" fill="none" stroke="white" stroke-width="1.5" pointer-events="none"/>
                </g>
                <g id="dirArrow">
                        <path fill="none" stroke="white" stroke-width="1.5" d="M0,-3.0v7 M-2.5,-0.5L0,-3.0L2.5,-0.5"/>
                </g>
               <g id="resetDef">
                       <use xlink:href="#rim2" fill="#404040">
                               <set attributeName="fill" to="#808080" begin="reset.mouseover" end="reset.mouseout"/>
                       </use>
               </g>
        </defs>

<script type="text/javascript">
var viewWidth = 1917;
var viewHeight = 332;
var sectionId = 'dynsection-8';
</script>
<script xlink:href="svgpan.js"/>
<svg id="graph" class="graph">
<g id="viewport">
<title>MapNode::getCoordinates</title>
<!-- Node87 -->
<g id="node1" class="node">
<title>Node87</title>
<polygon fill="#bfbfbf" stroke="#000000" points="0,-209.5 0,-228.5 143,-228.5 143,-209.5 0,-209.5"/>
<text text-anchor="middle" x="71.5" y="-216.5" font-family="Helvetica,sans-Serif" font-size="10.00" fill="#000000">MapNode::getCoordinates</text>
</g>
<!-- Node88 -->
<g id="node2" class="node">
<title>Node88</title>
<g id="a_node2"><a xlink:href="JsonSerialization_8hxx.html#a3fdb954f0db3c6c8ed9c863b19669f42" target="_top" xlink:title="to_json">
<polygon fill="none" stroke="#000000" points="226,-304.5 226,-323.5 278,-323.5 278,-304.5 226,-304.5"/>
<text text-anchor="middle" x="252" y="-311.5" font-family="Helvetica,sans-Serif" font-size="10.00" fill="#000000">to_json</text>
</a>
</g>
</g>
<!-- Node87&#45;&gt;Node88 -->
<g id="edge1" class="edge">
<title>Node87&#45;&gt;Node88</title>
<path fill="none" stroke="#191970" d="M90.1419,-235.3891C110.6074,-252.5781 145.0845,-279.2396 179,-295 193.8452,-301.8985 211.5977,-306.5902 225.879,-309.5854"/>
<polygon fill="#191970" stroke="#191970" points="92.147,-232.4986 82.2713,-228.6617 87.5988,-237.8197 92.147,-232.4986"/>
</g>
<!-- Node89 -->
<g id="node3" class="node">
<title>Node89</title>
<g id="a_node3"><a xlink:href="classMapNode.html#a06be1917d4b251010ae78d8a2b7bc88a" target="_top" xlink:title="demolish specific layer of a Node. ">
<polygon fill="none" stroke="#000000" points="182,-266.5 182,-285.5 322,-285.5 322,-266.5 182,-266.5"/>
<text text-anchor="middle" x="252" y="-273.5" font-family="Helvetica,sans-Serif" font-size="10.00" fill="#000000">MapNode::demolishLayer</text>
</a>
</g>
</g>
<!-- Node87&#45;&gt;Node89 -->
<g id="edge2" class="edge">
<title>Node87&#45;&gt;Node89</title>
<path fill="none" stroke="#191970" d="M111.5766,-231.6558C144.8494,-242.163 191.4585,-256.8816 221.6898,-266.4284"/>
<polygon fill="#191970" stroke="#191970" points="112.3015,-228.2144 101.7116,-228.5405 110.1935,-234.8894 112.3015,-228.2144"/>
</g>
<!-- Node99 -->
<g id="node13" class="node">
<title>Node99</title>
<g id="a_node13"><a xlink:href="classMap.html#a0241b997090783e5d13667114731a592" target="_top" xlink:title="Debug MapNodeData to Console Used as Tile&#45;Inspector until we implement a GUI variant. ">
<polygon fill="none" stroke="#000000" points="708,-228.5 708,-247.5 849,-247.5 849,-228.5 708,-228.5"/>
<text text-anchor="middle" x="778.5" y="-235.5" font-family="Helvetica,sans-Serif" font-size="10.00" fill="#000000">Map::getNodeInformation</text>
</a>
</g>
</g>
<!-- Node87&#45;&gt;Node99 -->
<g id="edge12" class="edge">
<title>Node87&#45;&gt;Node99</title>
<path fill="none" stroke="#191970" d="M153.4162,-221.2014C293.3759,-224.9627 576.1677,-232.5625 707.9415,-236.1038"/>
<polygon fill="#191970" stroke="#191970" points="153.2721,-217.6964 143.1817,-220.9264 153.084,-224.6939 153.2721,-217.6964"/>
</g>
<!-- Node100 -->
<g id="node14" class="node">
<title>Node100</title>
<g id="a_node14"><a xlink:href="classMap.html#ade1eeabf4e539f9dbfe2a96c97fda4e3" target="_top" xlink:title="Map::changeHeight">
<polygon fill="none" stroke="#000000" points="723.5,-152.5 723.5,-171.5 833.5,-171.5 833.5,-152.5 723.5,-152.5"/>
<text text-anchor="middle" x="778.5" y="-159.5" font-family="Helvetica,sans-Serif" font-size="10.00" fill="#000000">Map::changeHeight</text>
</a>
</g>
</g>
<!-- Node87&#45;&gt;Node100 -->
<g id="edge14" class="edge">
<title>Node87&#45;&gt;Node100</title>
<path fill="none" stroke="#191970" d="M153.3931,-212.3976C298.9937,-200.6589 599.2241,-176.4536 723.1415,-166.4631"/>
<polygon fill="#191970" stroke="#191970" points="152.868,-208.9285 143.1817,-213.2209 153.4306,-215.9058 152.868,-208.9285"/>
</g>
<!-- Node105 -->
<g id="node19" class="node">
<title>Node105</title>
<g id="a_node19"><a xlink:href="classMap.html#af1e496c421981fe707890b0ba60cc20f" target="_top" xlink:title="Map::updateNodeNeighbors">
<polygon fill="none" stroke="#000000" points="361,-114.5 361,-133.5 513,-133.5 513,-114.5 361,-114.5"/>
<text text-anchor="middle" x="437" y="-121.5" font-family="Helvetica,sans-Serif" font-size="10.00" fill="#000000">Map::updateNodeNeighbors</text>
</a>
</g>
</g>
<!-- Node87&#45;&gt;Node105 -->
<g id="edge21" class="edge">
<title>Node87&#45;&gt;Node105</title>
<path fill="none" stroke="#191970" d="M110.5581,-206.3718C130.8797,-199.9638 156.1811,-192.2378 179,-186 254.0976,-165.4712 342.4809,-145.0269 393.8807,-133.502"/>
<polygon fill="#191970" stroke="#191970" points="109.4882,-203.0392 101.0148,-209.3993 111.605,-209.7115 109.4882,-203.0392"/>
</g>
<!-- Node115 -->
<g id="node29" class="node">
<title>Node115</title>
<g id="a_node29"><a xlink:href="classMap.html#a769a53961d4a0dd34ee080d2da8c171e" target="_top" xlink:title="Map::getElevatedNeighbor\lBitmask">
<polygon fill="none" stroke="#000000" points="179,-103 179,-133 325,-133 325,-103 179,-103"/>
<text text-anchor="start" x="187" y="-121" font-family="Helvetica,sans-Serif" font-size="10.00" fill="#000000">Map::getElevatedNeighbor</text>
<text text-anchor="middle" x="252" y="-110" font-family="Helvetica,sans-Serif" font-size="10.00" fill="#000000">Bitmask</text>
</a>
</g>
</g>
<!-- Node87&#45;&gt;Node115 -->
<g id="edge40" class="edge">
<title>Node87&#45;&gt;Node115</title>
<path fill="none" stroke="#191970" d="M92.468,-203.382C113.6056,-188.0695 147.5193,-164.6625 179,-148 189.1727,-142.6157 200.5292,-137.5348 211.1973,-133.138"/>
<polygon fill="#191970" stroke="#191970" points="90.2392,-200.6759 84.2356,-209.4056 94.3727,-206.3251 90.2392,-200.6759"/>
</g>
<!-- Node90 -->
<g id="node4" class="node">
<title>Node90</title>
<g id="a_node4"><a xlink:href="classMapNode.html#a26e55c94192a56990f8a59e7af139a73" target="_top" xlink:title="MapNode::setTileID">
<polygon fill="none" stroke="#000000" points="381,-266.5 381,-285.5 493,-285.5 493,-266.5 381,-266.5"/>
<text text-anchor="middle" x="437" y="-273.5" font-family="Helvetica,sans-Serif" font-size="10.00" fill="#000000">MapNode::setTileID</text>
</a>
</g>
</g>
<!-- Node89&#45;&gt;Node90 -->
<g id="edge3" class="edge">
<title>Node89&#45;&gt;Node90</title>
<path fill="none" stroke="#191970" d="M332.3232,-276C348.7126,-276 365.621,-276 380.9418,-276"/>
<polygon fill="#191970" stroke="#191970" points="332.2044,-272.5001 322.2044,-276 332.2043,-279.5001 332.2044,-272.5001"/>
</g>
<!-- Node98 -->
<g id="node12" class="node">
<title>Node98</title>
<g id="a_node12"><a xlink:href="classMapNode.html#a002b868485074599fbf087fc4c96b2c9" target="_top" xlink:title="Demolish a node Removes all tiles on a node. This effects all layers where something to demolish is p...">
<polygon fill="none" stroke="#000000" points="367.5,-304.5 367.5,-323.5 506.5,-323.5 506.5,-304.5 367.5,-304.5"/>
<text text-anchor="middle" x="437" y="-311.5" font-family="Helvetica,sans-Serif" font-size="10.00" fill="#000000">MapNode::demolishNode</text>
</a>
</g>
</g>
<!-- Node89&#45;&gt;Node98 -->
<g id="edge11" class="edge">
<title>Node89&#45;&gt;Node98</title>
<path fill="none" stroke="#191970" d="M308.52,-287.6095C334.8312,-293.014 365.7435,-299.3635 390.6524,-304.4799"/>
<polygon fill="#191970" stroke="#191970" points="309.183,-284.1727 298.6833,-285.589 307.7746,-291.0296 309.183,-284.1727"/>
</g>
<!-- Node91 -->
<g id="node5" class="node">
<title>Node91</title>
<g id="a_node5"><a xlink:href="classMapNode.html#ae515fc96b543bf97237bfb1ca53fe571" target="_top" xlink:title="MapNode::MapNode">
<polygon fill="none" stroke="#000000" points="553.5,-266.5 553.5,-285.5 667.5,-285.5 667.5,-266.5 553.5,-266.5"/>
<text text-anchor="middle" x="610.5" y="-273.5" font-family="Helvetica,sans-Serif" font-size="10.00" fill="#000000">MapNode::MapNode</text>
</a>
</g>
</g>
<!-- Node90&#45;&gt;Node91 -->
<g id="edge4" class="edge">
<title>Node90&#45;&gt;Node91</title>
<path fill="none" stroke="#191970" d="M503.4072,-276C519.8417,-276 537.3085,-276 553.2633,-276"/>
<polygon fill="#191970" stroke="#191970" points="503.3305,-272.5001 493.3305,-276 503.3304,-279.5001 503.3305,-272.5001"/>
</g>
<!-- Node92 -->
<g id="node6" class="node">
<title>Node92</title>
<g id="a_node6"><a xlink:href="classMap.html#a404c38b33d61f8c63ce2c2efb864d6dd" target="_top" xlink:title="Set the Tile ID Of Node object Also invokes all necessary texture updates (auto&#45;tiling, slopes, ...) ">
<polygon fill="none" stroke="#000000" points="549,-304.5 549,-323.5 672,-323.5 672,-304.5 549,-304.5"/>
<text text-anchor="middle" x="610.5" y="-311.5" font-family="Helvetica,sans-Serif" font-size="10.00" fill="#000000">Map::setTileIDOfNode</text>
</a>
</g>
</g>
<!-- Node90&#45;&gt;Node92 -->
<g id="edge5" class="edge">
<title>Node90&#45;&gt;Node92</title>
<path fill="none" stroke="#191970" d="M490.6598,-287.7526C515.1927,-293.1258 543.8787,-299.4086 567.0335,-304.4799"/>
<polygon fill="#191970" stroke="#191970" points="491.2987,-284.3096 480.7814,-285.589 489.801,-291.1475 491.2987,-284.3096"/>
</g>
<!-- Node93 -->
<g id="node7" class="node">
<title>Node93</title>
<g id="a_node7"><a xlink:href="classEngine.html#a7a1521fd7fc731f961ebaf3f723127d9" target="_top" xlink:title="Engine::setTileIDOfNode">
<polygon fill="none" stroke="#000000" points="1214,-276.5 1214,-295.5 1350,-295.5 1350,-276.5 1214,-276.5"/>
<text text-anchor="middle" x="1282" y="-283.5" font-family="Helvetica,sans-Serif" font-size="10.00" fill="#000000">Engine::setTileIDOfNode</text>
</a>
</g>
</g>
<!-- Node92&#45;&gt;Node93 -->
<g id="edge6" class="edge">
<title>Node92&#45;&gt;Node93</title>
<path fill="none" stroke="#191970" d="M682.4411,-311.0002C812.8128,-305.564 1086.4019,-294.156 1213.9004,-288.8396"/>
<polygon fill="#191970" stroke="#191970" points="682.0155,-307.5148 672.1701,-311.4285 682.3072,-314.5088 682.0155,-307.5148"/>
</g>
<!-- Node94 -->
<g id="node8" class="node">
<title>Node94</title>
<g id="a_node8"><a xlink:href="classEventManager.html#a65ec91fd5016d4f9c4167fb8babed2df" target="_top" xlink:title="EventManager::checkEvents">
<polygon fill="none" stroke="#000000" points="1398,-152.5 1398,-171.5 1552,-171.5 1552,-152.5 1398,-152.5"/>
<text text-anchor="middle" x="1475" y="-159.5" font-family="Helvetica,sans-Serif" font-size="10.00" fill="#000000">EventManager::checkEvents</text>
</a>
</g>
</g>
<!-- Node93&#45;&gt;Node94 -->
<g id="edge7" class="edge">
<title>Node93&#45;&gt;Node94</title>
<path fill="none" stroke="#191970" d="M1312.438,-272.0729C1324.38,-266.2772 1338.0575,-259.2211 1350,-252 1393.4782,-225.7107 1441.2737,-188.8688 1463.0284,-171.6195"/>
<polygon fill="#191970" stroke="#191970" points="1310.8196,-268.9669 1303.2991,-276.4297 1313.832,-275.2856 1310.8196,-268.9669"/>
</g>
<!-- Node95 -->
<g id="node9" class="node">
<title>Node95</title>
<g id="a_node9"><a xlink:href="classGame.html#a1c2ab25d5216b2f4b2fe41efd2c09114" target="_top" xlink:title="begins the game starts running the game ">
<polygon fill="none" stroke="#000000" points="1617.5,-133.5 1617.5,-152.5 1685.5,-152.5 1685.5,-133.5 1617.5,-133.5"/>
<text text-anchor="middle" x="1651.5" y="-140.5" font-family="Helvetica,sans-Serif" font-size="10.00" fill="#000000">Game::run</text>
</a>
</g>
</g>
<!-- Node94&#45;&gt;Node95 -->
<g id="edge8" class="edge">
<title>Node94&#45;&gt;Node95</title>
<path fill="none" stroke="#191970" d="M1562.3664,-152.5951C1581.9355,-150.4885 1601.5625,-148.3757 1617.398,-146.671"/>
<polygon fill="#191970" stroke="#191970" points="1561.7266,-149.1437 1552.1587,-153.694 1562.4759,-156.1035 1561.7266,-149.1437"/>
</g>
<!-- Node96 -->
<g id="node10" class="node">
<title>Node96</title>
<g id="a_node10"><a xlink:href="main_8cxx.html#af582d708d899e67ead623eac34a22387" target="_top" xlink:title="protected_main">
<polygon fill="none" stroke="#000000" points="1739,-95.5 1739,-114.5 1832,-114.5 1832,-95.5 1739,-95.5"/>
<text text-anchor="middle" x="1785.5" y="-102.5" font-family="Helvetica,sans-Serif" font-size="10.00" fill="#000000">protected_main</text>
</a>
</g>
</g>
<!-- Node95&#45;&gt;Node96 -->
<g id="edge9" class="edge">
<title>Node95&#45;&gt;Node96</title>
<path fill="none" stroke="#191970" d="M1694.9383,-130.6817C1713.3491,-125.4607 1734.4798,-119.4684 1751.697,-114.5859"/>
<polygon fill="#191970" stroke="#191970" points="1693.9796,-127.3155 1685.3139,-133.411 1695.8894,-134.0499 1693.9796,-127.3155"/>
</g>
<!-- Node97 -->
<g id="node11" class="node">
<title>Node97</title>
<g id="a_node11"><a xlink:href="main_8cxx.html#a3c04138a5bfe5d72780bb7e82a18e627" target="_top" xlink:title="main">
<polygon fill="none" stroke="#000000" points="1868,-95.5 1868,-114.5 1909,-114.5 1909,-95.5 1868,-95.5"/>
<text text-anchor="middle" x="1888.5" y="-102.5" font-family="Helvetica,sans-Serif" font-size="10.00" fill="#000000">main</text>
</a>
</g>
</g>
<!-- Node96&#45;&gt;Node97 -->
<g id="edge10" class="edge">
<title>Node96&#45;&gt;Node97</title>
<path fill="none" stroke="#191970" d="M1842.2133,-105C1851.4322,-105 1860.4259,-105 1867.9965,-105"/>
<polygon fill="#191970" stroke="#191970" points="1842.1782,-101.5001 1832.1782,-105 1842.1781,-108.5001 1842.1782,-101.5001"/>
</g>
<!-- Node99&#45;&gt;Node94 -->
<g id="edge13" class="edge">
<title>Node99&#45;&gt;Node94</title>
<path fill="none" stroke="#191970" d="M859.3576,-245.1623C971.2775,-252.8647 1178.9584,-259.1444 1350,-219 1391.5641,-209.2447 1436.1168,-185.2639 1459.1577,-171.7205"/>
<polygon fill="#191970" stroke="#191970" points="859.3826,-241.6554 849.1597,-244.4382 858.8867,-248.6378 859.3826,-241.6554"/>
</g>
<!-- Node101 -->
<g id="node15" class="node">
<title>Node101</title>
<g id="a_node15"><a xlink:href="classMap.html#aba5154a4d917900679a3c0f7ec701561" target="_top" xlink:title="Increase Height Increases the height of the node and checks the surrounding tiles. Either draw a slope sprite or elevate the tile if necessary. ">
<polygon fill="none" stroke="#000000" points="889.5,-190.5 889.5,-209.5 1005.5,-209.5 1005.5,-190.5 889.5,-190.5"/>
<text text-anchor="middle" x="947.5" y="-197.5" font-family="Helvetica,sans-Serif" font-size="10.00" fill="#000000">Map::increaseHeight</text>
</a>
</g>
</g>
<!-- Node100&#45;&gt;Node101 -->
<g id="edge15" class="edge">
<title>Node100&#45;&gt;Node101</title>
<path fill="none" stroke="#191970" d="M831.0869,-173.8243C854.9129,-179.1816 882.7069,-185.4311 905.1608,-190.4799"/>
<polygon fill="#191970" stroke="#191970" points="831.6701,-170.3681 821.1458,-171.589 830.1344,-177.1976 831.6701,-170.3681"/>
</g>
<!-- Node103 -->
<g id="node17" class="node">
<title>Node103</title>
<g id="a_node17"><a xlink:href="classMap.html#afb8cc864df90d273a5074872d635dc40" target="_top" xlink:title="Decrease Height Decreases the height of the node and checks the surrounding tiles. Either draw a slope sprite or lower the tile if necessary. ">
<polygon fill="none" stroke="#000000" points="888,-152.5 888,-171.5 1007,-171.5 1007,-152.5 888,-152.5"/>
<text text-anchor="middle" x="947.5" y="-159.5" font-family="Helvetica,sans-Serif" font-size="10.00" fill="#000000">Map::decreaseHeight</text>
</a>
</g>
</g>
<!-- Node100&#45;&gt;Node103 -->
<g id="edge18" class="edge">
<title>Node100&#45;&gt;Node103</title>
<path fill="none" stroke="#191970" d="M844.1775,-162C858.601,-162 873.7954,-162 887.9615,-162"/>
<polygon fill="#191970" stroke="#191970" points="843.837,-158.5001 833.8369,-162 843.8369,-165.5001 843.837,-158.5001"/>
</g>
<!-- Node102 -->
<g id="node16" class="node">
<title>Node102</title>
<g id="a_node16"><a xlink:href="classEngine.html#a4851ae1ff696c893741167fc0194fd77" target="_top" xlink:title="Increase Height Increases the height of the given map node Calls the according function of the Map ob...">
<polygon fill="none" stroke="#000000" points="1217.5,-190.5 1217.5,-209.5 1346.5,-209.5 1346.5,-190.5 1217.5,-190.5"/>
<text text-anchor="middle" x="1282" y="-197.5" font-family="Helvetica,sans-Serif" font-size="10.00" fill="#000000">Engine::increaseHeight</text>
</a>
</g>
</g>
<!-- Node101&#45;&gt;Node102 -->
<g id="edge16" class="edge">
<title>Node101&#45;&gt;Node102</title>
<path fill="none" stroke="#191970" d="M1016.098,-200C1075.0523,-200 1159.4566,-200 1217.2634,-200"/>
<polygon fill="#191970" stroke="#191970" points="1015.7655,-196.5001 1005.7655,-200 1015.7654,-203.5001 1015.7655,-196.5001"/>
</g>
<!-- Node102&#45;&gt;Node94 -->
<g id="edge17" class="edge">
<title>Node102&#45;&gt;Node94</title>
<path fill="none" stroke="#191970" d="M1340.6016,-188.4619C1368.1289,-183.042 1400.5476,-176.659 1426.6482,-171.5201"/>
<polygon fill="#191970" stroke="#191970" points="1339.8375,-185.045 1330.702,-190.411 1341.1898,-191.9132 1339.8375,-185.045"/>
</g>
<!-- Node104 -->
<g id="node18" class="node">
<title>Node104</title>
<g id="a_node18"><a xlink:href="classEngine.html#a13572fdd7f6470dca48a14497f58980e" target="_top" xlink:title="Decrease Height Decreases the height of the given map node Calls the according function of the Map ob...">
<polygon fill="none" stroke="#000000" points="1046,-152.5 1046,-171.5 1178,-171.5 1178,-152.5 1046,-152.5"/>
<text text-anchor="middle" x="1112" y="-159.5" font-family="Helvetica,sans-Serif" font-size="10.00" fill="#000000">Engine::decreaseHeight</text>
</a>
</g>
</g>
<!-- Node103&#45;&gt;Node104 -->
<g id="edge19" class="edge">
<title>Node103&#45;&gt;Node104</title>
<path fill="none" stroke="#191970" d="M1017.4434,-162C1026.8433,-162 1036.4627,-162 1045.7952,-162"/>
<polygon fill="#191970" stroke="#191970" points="1017.3537,-158.5001 1007.3536,-162 1017.3536,-165.5001 1017.3537,-158.5001"/>
</g>
<!-- Node104&#45;&gt;Node94 -->
<g id="edge20" class="edge">
<title>Node104&#45;&gt;Node94</title>
<path fill="none" stroke="#191970" d="M1188.2073,-162C1249.8087,-162 1336.1467,-162 1397.9676,-162"/>
<polygon fill="#191970" stroke="#191970" points="1188.1577,-158.5001 1178.1577,-162 1188.1577,-165.5001 1188.1577,-158.5001"/>
</g>
<!-- Node105&#45;&gt;Node100 -->
<g id="edge22" class="edge">
<title>Node105&#45;&gt;Node100</title>
<path fill="none" stroke="#191970" d="M497.7207,-135.2729C514.3074,-138.0865 532.3095,-140.8973 549,-143 608.3014,-150.4709 676.6088,-155.6957 723.1794,-158.75"/>
<polygon fill="#191970" stroke="#191970" points="498.0499,-131.778 487.6004,-133.5269 496.8598,-138.6761 498.0499,-131.778"/>
</g>
<!-- Node106 -->
<g id="node20" class="node">
<title>Node106</title>
<g id="a_node20"><a xlink:href="classMap.html#a481b37ba71ef0e51e836fc42805762dd" target="_top" xlink:title="Update all mapNodes Updates all mapNode and its adjacent tiles regarding height information, draws slopes for adjacent tiles and sets tiling for mapNode sprite if applicable. ">
<polygon fill="none" stroke="#000000" points="550.5,-76.5 550.5,-95.5 670.5,-95.5 670.5,-76.5 550.5,-76.5"/>
<text text-anchor="middle" x="610.5" y="-83.5" font-family="Helvetica,sans-Serif" font-size="10.00" fill="#000000">Map::updateAllNodes</text>
</a>
</g>
</g>
<!-- Node105&#45;&gt;Node106 -->
<g id="edge23" class="edge">
<title>Node105&#45;&gt;Node106</title>
<path fill="none" stroke="#191970" d="M490.6598,-112.2474C515.1927,-106.8742 543.8787,-100.5914 567.0335,-95.5201"/>
<polygon fill="#191970" stroke="#191970" points="489.801,-108.8525 480.7814,-114.411 491.2987,-115.6904 489.801,-108.8525"/>
</g>
<!-- Node114 -->
<g id="node28" class="node">
<title>Node114</title>
<g id="a_node28"><a xlink:href="classMap.html#aa8cc2ed983007621bce12dd9d1b8ec5b" target="_top" xlink:title="Demolish a node This function gathers all tiles that should be demolished and invokes the nodes demol...">
<polygon fill="none" stroke="#000000" points="554,-114.5 554,-133.5 667,-133.5 667,-114.5 554,-114.5"/>
<text text-anchor="middle" x="610.5" y="-121.5" font-family="Helvetica,sans-Serif" font-size="10.00" fill="#000000">Map::demolishNode</text>
</a>
</g>
</g>
<!-- Node105&#45;&gt;Node114 -->
<g id="edge36" class="edge">
<title>Node105&#45;&gt;Node114</title>
<path fill="none" stroke="#191970" d="M523.3881,-117.2501C533.7005,-117.2471 544.0197,-117.3713 553.7628,-117.6227"/>
<polygon fill="#191970" stroke="#191970" points="523.0841,-113.7513 513.0996,-117.2954 523.115,-120.7512 523.0841,-113.7513"/>
</g>
<!-- Node107 -->
<g id="node21" class="node">
<title>Node107</title>
<g id="a_node21"><a xlink:href="classMap.html#a26eceeccd7b6ed693909b1927a25c67a" target="_top" xlink:title="Map::Map">
<polygon fill="none" stroke="#000000" points="747,-38.5 747,-57.5 810,-57.5 810,-38.5 747,-38.5"/>
<text text-anchor="middle" x="778.5" y="-45.5" font-family="Helvetica,sans-Serif" font-size="10.00" fill="#000000">Map::Map</text>
</a>
</g>
</g>
<!-- Node106&#45;&gt;Node107 -->
<g id="edge24" class="edge">
<title>Node106&#45;&gt;Node107</title>
<path fill="none" stroke="#191970" d="M662.7902,-74.1725C690.3833,-67.9312 723.3268,-60.4797 746.9929,-55.1266"/>
<polygon fill="#191970" stroke="#191970" points="661.8749,-70.791 652.8935,-76.411 663.4193,-77.6185 661.8749,-70.791"/>
</g>
<!-- Node108 -->
<g id="node22" class="node">
<title>Node108</title>
<g id="a_node22"><a xlink:href="classMap.html#afefe996cc1f62b61ec60d0ae415953bf" target="_top" xlink:title="Map::loadMapFromFile">
<polygon fill="none" stroke="#000000" points="885,-38.5 885,-57.5 1010,-57.5 1010,-38.5 885,-38.5"/>
<text text-anchor="middle" x="947.5" y="-45.5" font-family="Helvetica,sans-Serif" font-size="10.00" fill="#000000">Map::loadMapFromFile</text>
</a>
</g>
</g>
<!-- Node106&#45;&gt;Node108 -->
<g id="edge35" class="edge">
<title>Node106&#45;&gt;Node108</title>
<path fill="none" stroke="#191970" d="M681.178,-82.4333C728.7552,-79.5264 792.8235,-74.6317 849,-67 866.9477,-64.5618 886.5692,-60.9689 903.5426,-57.5619"/>
<polygon fill="#191970" stroke="#191970" points="680.7549,-78.9522 670.981,-83.0414 681.1716,-85.9398 680.7549,-78.9522"/>
</g>
<!-- Node107&#45;&gt;Node108 -->
<g id="edge25" class="edge">
<title>Node107&#45;&gt;Node108</title>
<path fill="none" stroke="#191970" d="M820.3231,-48C839.7336,-48 863.218,-48 884.6964,-48"/>
<polygon fill="#191970" stroke="#191970" points="820.2876,-44.5001 810.2876,-48 820.2876,-51.5001 820.2876,-44.5001"/>
</g>
<!-- Node109 -->
<g id="node23" class="node">
<title>Node109</title>
<g id="a_node23"><a xlink:href="classEngine.html#a83b7dbeee899b36a13d5b07c7ad87ebc" target="_top" xlink:title="Loads a saved game Loads a saved Game. ">
<polygon fill="none" stroke="#000000" points="1059,-38.5 1059,-57.5 1165,-57.5 1165,-38.5 1059,-38.5"/>
<text text-anchor="middle" x="1112" y="-45.5" font-family="Helvetica,sans-Serif" font-size="10.00" fill="#000000">Engine::loadGame</text>
</a>
</g>
</g>
<!-- Node108&#45;&gt;Node109 -->
<g id="edge26" class="edge">
<title>Node108&#45;&gt;Node109</title>
<path fill="none" stroke="#191970" d="M1020.4461,-48C1033.3866,-48 1046.6382,-48 1058.8977,-48"/>
<polygon fill="#191970" stroke="#191970" points="1020.1597,-44.5001 1010.1597,-48 1020.1596,-51.5001 1020.1597,-44.5001"/>
</g>
<!-- Node110 -->
<g id="node24" class="node">
<title>Node110</title>
<g id="a_node24"><a xlink:href="classEngine.html#a0ba57971ffb5173ecc425461f65a4cd8" target="_top" xlink:title="Quits the game Sets m_running to false and quitting the game. ">
<polygon fill="none" stroke="#000000" points="1230,-38.5 1230,-57.5 1334,-57.5 1334,-38.5 1230,-38.5"/>
<text text-anchor="middle" x="1282" y="-45.5" font-family="Helvetica,sans-Serif" font-size="10.00" fill="#000000">Engine::quitGame</text>
</a>
</g>
</g>
<!-- Node109&#45;&gt;Node110 -->
<g id="edge27" class="edge">
<title>Node109&#45;&gt;Node110</title>
<path fill="none" stroke="#191970" d="M1175.3919,-48C1193.2961,-48 1212.5702,-48 1229.7404,-48"/>
<polygon fill="#191970" stroke="#191970" points="1175.3227,-44.5001 1165.3226,-48 1175.3226,-51.5001 1175.3227,-44.5001"/>
</g>
<!-- Node111 -->
<g id="node25" class="node">
<title>Node111</title>
<g id="a_node25"><a xlink:href="classUIManager.html#aa78e356fc3b356d790c848319d1c387e" target="_top" xlink:title="UIManager::setCallbackFunctions">
<polygon fill="none" stroke="#000000" points="1386,-.5 1386,-19.5 1564,-19.5 1564,-.5 1386,-.5"/>
<text text-anchor="middle" x="1475" y="-7.5" font-family="Helvetica,sans-Serif" font-size="10.00" fill="#000000">UIManager::setCallbackFunctions</text>
</a>
</g>
</g>
<!-- Node109&#45;&gt;Node111 -->
<g id="edge33" class="edge">
<title>Node109&#45;&gt;Node111</title>
<path fill="none" stroke="#191970" d="M1167.2407,-36.5485C1182.3487,-33.7344 1198.7592,-30.968 1214,-29 1270.9988,-21.6399 1335.3964,-16.9144 1385.963,-14.0168"/>
<polygon fill="#191970" stroke="#191970" points="1166.1883,-33.1859 1157.0197,-38.4951 1167.498,-40.0623 1166.1883,-33.1859"/>
</g>
<!-- Node113 -->
<g id="node27" class="node">
<title>Node113</title>
<g id="a_node27"><a xlink:href="classGame.html#a560299f0291c281f7b44e7ef0dd7b264" target="_top" xlink:title="initializes and displays the main menu initializes and displays the main menu ">
<polygon fill="none" stroke="#000000" points="1600,-76.5 1600,-95.5 1703,-95.5 1703,-76.5 1600,-76.5"/>
<text text-anchor="middle" x="1651.5" y="-83.5" font-family="Helvetica,sans-Serif" font-size="10.00" fill="#000000">Game::mainMenu</text>
</a>
</g>
</g>
<!-- Node109&#45;&gt;Node113 -->
<g id="edge34" class="edge">
<title>Node109&#45;&gt;Node113</title>
<path fill="none" stroke="#191970" d="M1165.6836,-59.4647C1181.206,-62.381 1198.2183,-65.1965 1214,-67 1352.7953,-82.861 1517.7429,-85.7416 1599.7927,-86.1042"/>
<polygon fill="#191970" stroke="#191970" points="1166.2083,-56.0015 1155.7263,-57.5434 1164.882,-62.8747 1166.2083,-56.0015"/>
</g>
<!-- Node110&#45;&gt;Node94 -->
<g id="edge28" class="edge">
<title>Node110&#45;&gt;Node94</title>
<path fill="none" stroke="#191970" d="M1306.7686,-62.6301C1346.8907,-86.3292 1425.0043,-132.4689 1458.787,-152.4234"/>
<polygon fill="#191970" stroke="#191970" points="1308.5133,-59.5958 1298.1231,-57.5235 1304.9532,-65.6229 1308.5133,-59.5958"/>
</g>
<!-- Node110&#45;&gt;Node111 -->
<g id="edge29" class="edge">
<title>Node110&#45;&gt;Node111</title>
<path fill="none" stroke="#191970" d="M1340.6016,-36.4619C1368.1289,-31.042 1400.5476,-24.659 1426.6482,-19.5201"/>
<polygon fill="#191970" stroke="#191970" points="1339.8375,-33.045 1330.702,-38.411 1341.1898,-39.9132 1339.8375,-33.045"/>
</g>
<!-- Node112 -->
<g id="node26" class="node">
<title>Node112</title>
<g id="a_node26"><a xlink:href="classGame.html#a8272be134d16c277bb014ad6a22fc357" target="_top" xlink:title="Game::quit">
<polygon fill="none" stroke="#000000" points="1439.5,-38.5 1439.5,-57.5 1510.5,-57.5 1510.5,-38.5 1439.5,-38.5"/>
<text text-anchor="middle" x="1475" y="-45.5" font-family="Helvetica,sans-Serif" font-size="10.00" fill="#000000">Game::quit</text>
</a>
</g>
</g>
<!-- Node110&#45;&gt;Node112 -->
<g id="edge30" class="edge">
<title>Node110&#45;&gt;Node112</title>
<path fill="none" stroke="#191970" d="M1344.6194,-48C1375.9427,-48 1412.721,-48 1439.2157,-48"/>
<polygon fill="#191970" stroke="#191970" points="1344.2286,-44.5001 1334.2286,-48 1344.2285,-51.5001 1344.2286,-44.5001"/>
</g>
<!-- Node112&#45;&gt;Node113 -->
<g id="edge31" class="edge">
<title>Node112&#45;&gt;Node113</title>
<path fill="none" stroke="#191970" d="M1520.5577,-57.8085C1547.1808,-63.5403 1580.633,-70.7425 1607.0613,-76.4325"/>
<polygon fill="#191970" stroke="#191970" points="1521.2301,-54.3731 1510.7174,-55.6899 1519.7567,-61.2163 1521.2301,-54.3731"/>
</g>
<!-- Node113&#45;&gt;Node96 -->
<g id="edge32" class="edge">
<title>Node113&#45;&gt;Node96</title>
<path fill="none" stroke="#191970" d="M1713.2457,-94.755C1721.7846,-95.9657 1730.438,-97.1927 1738.6465,-98.3566"/>
<polygon fill="#191970" stroke="#191970" points="1713.7003,-91.2845 1703.3079,-93.3459 1712.7175,-98.2152 1713.7003,-91.2845"/>
</g>
<!-- Node114&#45;&gt;Node94 -->
<g id="edge37" class="edge">
<title>Node114&#45;&gt;Node94</title>
<path fill="none" stroke="#191970" d="M677.2896,-124C745.2824,-124 853.7295,-124 947.5,-124 947.5,-124 947.5,-124 1112,-124 1221.1466,-124 1347.755,-141.2037 1418.9129,-152.46"/>
<polygon fill="#191970" stroke="#191970" points="677.1458,-120.5001 667.1457,-124 677.1457,-127.5001 677.1458,-120.5001"/>
</g>
<!-- Node114&#45;&gt;Node100 -->
<g id="edge38" class="edge">
<title>Node114&#45;&gt;Node100</title>
<path fill="none" stroke="#191970" d="M662.7757,-135.8243C686.4607,-141.1816 714.0903,-147.4311 736.4114,-152.4799"/>
<polygon fill="#191970" stroke="#191970" points="663.4193,-132.3815 652.8935,-133.589 661.8749,-139.209 663.4193,-132.3815"/>
</g>
<!-- Node114&#45;&gt;Node105 -->
<g id="edge39" class="edge">
<title>Node114&#45;&gt;Node105</title>
<path fill="none" stroke="#191970" d="M543.5347,-130.5915C533.5693,-130.7537 523.236,-130.7914 513.0996,-130.7046"/>
<polygon fill="#191970" stroke="#191970" points="543.8383,-134.086 553.7628,-130.3773 543.6917,-127.0875 543.8383,-134.086"/>
</g>
<!-- Node115&#45;&gt;Node105 -->
<g id="edge41" class="edge">
<title>Node115&#45;&gt;Node105</title>
<path fill="none" stroke="#191970" d="M335.3662,-120.7038C343.8264,-120.9782 352.3896,-121.2559 360.7689,-121.5276"/>
<polygon fill="#191970" stroke="#191970" points="335.2251,-117.1974 325.1169,-120.3714 334.9982,-124.1938 335.2251,-117.1974"/>
</g>
</g>
</svg>
        <g id="navigator" transform="translate(0 0)" fill="#404254">
                <rect fill="#f2f5e9" fill-opacity="0.5" stroke="#606060" stroke-width=".5" x="0" y="0" width="60" height="60"/>
                <use id="zoomplus" xlink:href="#zoomPlus" x="17" y="9" onmousedown="handleZoom(evt,'in')"/>
                <use id="zoomminus" xlink:href="#zoomMin" x="42" y="9" onmousedown="handleZoom(evt,'out')"/>
                <use id="reset" xlink:href="#resetDef" x="30" y="36" onmousedown="handleReset()"/>
                <g id="arrowUp" xlink:href="#dirArrow" transform="translate(30 24)" onmousedown="handlePan(0,-1)">
                  <use xlink:href="#rim" fill="#404040">
                        <set attributeName="fill" to="#808080" begin="arrowUp.mouseover" end="arrowUp.mouseout"/>
                  </use>
                  <path fill="none" stroke="white" stroke-width="1.5" d="M0,-3.0v7 M-2.5,-0.5L0,-3.0L2.5,-0.5"/>
                </g>
                <g id="arrowRight" xlink:href="#dirArrow" transform="rotate(90) translate(36 -43)" onmousedown="handlePan(1,0)">
                  <use xlink:href="#rim" fill="#404040">
                        <set attributeName="fill" to="#808080" begin="arrowRight.mouseover" end="arrowRight.mouseout"/>
                  </use>
                  <path fill="none" stroke="white" stroke-width="1.5" d="M0,-3.0v7 M-2.5,-0.5L0,-3.0L2.5,-0.5"/>
                </g>
                <g id="arrowDown" xlink:href="#dirArrow" transform="rotate(180) translate(-30 -48)" onmousedown="handlePan(0,1)">
                  <use xlink:href="#rim" fill="#404040">
                        <set attributeName="fill" to="#808080" begin="arrowDown.mouseover" end="arrowDown.mouseout"/>
                  </use>
                  <path fill="none" stroke="white" stroke-width="1.5" d="M0,-3.0v7 M-2.5,-0.5L0,-3.0L2.5,-0.5"/>
                </g>
                <g id="arrowLeft" xlink:href="#dirArrow" transform="rotate(270) translate(-36 17)" onmousedown="handlePan(-1,0)">
                  <use xlink:href="#rim" fill="#404040">
                        <set attributeName="fill" to="#808080" begin="arrowLeft.mouseover" end="arrowLeft.mouseout"/>
                  </use>
                  <path fill="none" stroke="white" stroke-width="1.5" d="M0,-3.0v7 M-2.5,-0.5L0,-3.0L2.5,-0.5"/>
                </g>
        </g>
        <svg viewBox="0 0 15 15" width="100%" height="30px" preserveAspectRatio="xMaxYMin meet">
         <g id="arrow_out" transform="scale(0.3 0.3)">
          <a xlink:href="classMapNode_a67296a58e167356efbabeaac3226b5d3_icgraph_org.svg" target="_base">
           <rect id="button" ry="5" rx="5" y="6" x="6" height="38" width="38"
                fill="#f2f5e9" fill-opacity="0.5" stroke="#606060" stroke-width="1.0"/>
           <path id="arrow"
             d="M 11.500037,31.436501 C 11.940474,20.09759 22.043105,11.32322 32.158766,21.979434 L 37.068811,17.246167 C 37.068811,17.246167 37.088388,32 37.088388,32 L 22.160133,31.978069 C 22.160133,31.978069 26.997745,27.140456 26.997745,27.140456 C 18.528582,18.264221 13.291696,25.230495 11.500037,31.436501 z"
             style="fill:#404040;"/>
          </a>
         </g>
        </svg>
</svg>
