<?xml version="1.0" encoding="UTF-8" standalone="no"?>
<!DOCTYPE svg PUBLIC "-//W3C//DTD SVG 1.1//EN"
 "http://www.w3.org/Graphics/SVG/1.1/DTD/svg11.dtd">
<!-- Generated by graphviz version 2.40.1 (20161225.0304)
 -->
<!-- Title: MapNode::isDataAutoTile Pages: 1 -->
<svg width="2083pt" height="286pt"
 viewBox="0.00 0.00 2083.00 285.51" xmlns="http://www.w3.org/2000/svg" xmlns:xlink="http://www.w3.org/1999/xlink">
<g id="graph0" class="graph" transform="scale(1 1) rotate(0) translate(4 281.5083)">
<title>MapNode::isDataAutoTile</title>
<!-- Node205 -->
<g id="node1" class="node">
<title>Node205</title>
<polygon fill="#bfbfbf" stroke="#000000" points="0,-18.6472 0,-37.6472 140,-37.6472 140,-18.6472 0,-18.6472"/>
<text text-anchor="middle" x="70" y="-25.6472" font-family="Helvetica,sans-Serif" font-size="10.00" fill="#000000">MapNode::isDataAutoTile</text>
</g>
<!-- Node206 -->
<g id="node2" class="node">
<title>Node206</title>
<g id="a_node2"><a xlink:href="classMapNode.html#afb1cbc0f9e987b7befced46220dd9277" target="_top" xlink:title="check if specific layer can be autotiled. ">
<polygon fill="none" stroke="#000000" points="176,-75.6472 176,-94.6472 320,-94.6472 320,-75.6472 176,-75.6472"/>
<text text-anchor="middle" x="248" y="-82.6472" font-family="Helvetica,sans-Serif" font-size="10.00" fill="#000000">MapNode::isLayerAutoTile</text>
</a>
</g>
</g>
<!-- Node205&#45;&gt;Node206 -->
<g id="edge1" class="edge">
<title>Node205&#45;&gt;Node206</title>
<path fill="none" stroke="#191970" d="M109.5216,-40.803C142.3335,-51.3102 188.2971,-66.0289 218.1096,-75.5756"/>
<polygon fill="#191970" stroke="#191970" points="110.3842,-37.4042 99.7932,-37.6877 108.2494,-44.0708 110.3842,-37.4042"/>
</g>
<!-- Node211 -->
<g id="node7" class="node">
<title>Node211</title>
<g id="a_node7"><a xlink:href="classMap.html#a404c38b33d61f8c63ce2c2efb864d6dd" target="_top" xlink:title="Set the Tile ID Of Node object Also invokes all necessary texture updates (auto&#45;tiling, slopes, ...) ">
<polygon fill="none" stroke="#000000" points="746,-18.6472 746,-37.6472 869,-37.6472 869,-18.6472 746,-18.6472"/>
<text text-anchor="middle" x="807.5" y="-25.6472" font-family="Helvetica,sans-Serif" font-size="10.00" fill="#000000">Map::setTileIDOfNode</text>
</a>
</g>
</g>
<!-- Node205&#45;&gt;Node211 -->
<g id="edge40" class="edge">
<title>Node205&#45;&gt;Node211</title>
<path fill="none" stroke="#191970" d="M150.2349,-19.3117C271.6746,-7.3957 509.2881,10.2271 710,-9.1472 729.2256,-11.003 750.2909,-14.8717 767.9063,-18.6368"/>
<polygon fill="#191970" stroke="#191970" points="149.8766,-15.8299 140.2719,-20.3021 150.5691,-22.7956 149.8766,-15.8299"/>
</g>
<!-- Node207 -->
<g id="node3" class="node">
<title>Node207</title>
<g id="a_node3"><a xlink:href="classMapNode.html#aabbb10c19ddd79e9c519eb4af5e995e0" target="_top" xlink:title="Update texture. ">
<polygon fill="none" stroke="#000000" points="370,-75.6472 370,-94.6472 508,-94.6472 508,-75.6472 370,-75.6472"/>
<text text-anchor="middle" x="439" y="-82.6472" font-family="Helvetica,sans-Serif" font-size="10.00" fill="#000000">MapNode::updateTexture</text>
</a>
</g>
</g>
<!-- Node206&#45;&gt;Node207 -->
<g id="edge2" class="edge">
<title>Node206&#45;&gt;Node207</title>
<path fill="none" stroke="#191970" d="M330.2243,-85.1472C343.4319,-85.1472 356.9849,-85.1472 369.8463,-85.1472"/>
<polygon fill="#191970" stroke="#191970" points="330.2089,-81.6473 320.2089,-85.1472 330.2089,-88.6473 330.2089,-81.6473"/>
</g>
<!-- Node218 -->
<g id="node14" class="node">
<title>Node218</title>
<g id="a_node14"><a xlink:href="classMap.html#af192be95053d30ea6c6d9327106bf6d8" target="_top" xlink:title="Get a bitmask that represents same&#45;tile neighbors Checks all neighboring tiles and returns the elevat...">
<polygon fill="none" stroke="#000000" points="356,-141.6472 356,-160.6472 522,-160.6472 522,-141.6472 356,-141.6472"/>
<text text-anchor="middle" x="439" y="-148.6472" font-family="Helvetica,sans-Serif" font-size="10.00" fill="#000000">Map::calculateAutotileBitmask</text>
</a>
</g>
</g>
<!-- Node206&#45;&gt;Node218 -->
<g id="edge14" class="edge">
<title>Node206&#45;&gt;Node218</title>
<path fill="none" stroke="#191970" d="M285.6979,-98.1737C322.7576,-110.9797 378.4338,-130.2186 411.5033,-141.6457"/>
<polygon fill="#191970" stroke="#191970" points="286.3678,-94.7022 275.773,-94.7442 284.0815,-101.3183 286.3678,-94.7022"/>
</g>
<!-- Node208 -->
<g id="node4" class="node">
<title>Node208</title>
<g id="a_node4"><a xlink:href="classMapNode.html#ae515fc96b543bf97237bfb1ca53fe571" target="_top" xlink:title="MapNode::MapNode">
<polygon fill="none" stroke="#000000" points="750.5,-75.6472 750.5,-94.6472 864.5,-94.6472 864.5,-75.6472 750.5,-75.6472"/>
<text text-anchor="middle" x="807.5" y="-82.6472" font-family="Helvetica,sans-Serif" font-size="10.00" fill="#000000">MapNode::MapNode</text>
</a>
</g>
</g>
<!-- Node207&#45;&gt;Node208 -->
<g id="edge3" class="edge">
<title>Node207&#45;&gt;Node208</title>
<path fill="none" stroke="#191970" d="M518.3829,-85.1472C588.1757,-85.1472 688.064,-85.1472 750.2868,-85.1472"/>
<polygon fill="#191970" stroke="#191970" points="518.3121,-81.6473 508.312,-85.1472 518.312,-88.6473 518.3121,-81.6473"/>
</g>
<!-- Node209 -->
<g id="node5" class="node">
<title>Node209</title>
<g id="a_node5"><a xlink:href="classMapNode.html#a92b521fa20e0a75d81523a52ba1d8250" target="_top" xlink:title="MapNode::setBitmask">
<polygon fill="none" stroke="#000000" points="572,-56.6472 572,-75.6472 696,-75.6472 696,-56.6472 572,-56.6472"/>
<text text-anchor="middle" x="634" y="-63.6472" font-family="Helvetica,sans-Serif" font-size="10.00" fill="#000000">MapNode::setBitmask</text>
</a>
</g>
</g>
<!-- Node207&#45;&gt;Node209 -->
<g id="edge4" class="edge">
<title>Node207&#45;&gt;Node209</title>
<path fill="none" stroke="#191970" d="M518.1544,-77.4347C536.0557,-75.6905 554.813,-73.8629 571.8935,-72.1986"/>
<polygon fill="#191970" stroke="#191970" points="517.6375,-73.9684 508.0241,-78.4218 518.3164,-80.9354 517.6375,-73.9684"/>
</g>
<!-- Node210 -->
<g id="node6" class="node">
<title>Node210</title>
<g id="a_node6"><a xlink:href="classMapNode.html#a26e55c94192a56990f8a59e7af139a73" target="_top" xlink:title="MapNode::setTileID">
<polygon fill="none" stroke="#000000" points="578,-18.6472 578,-37.6472 690,-37.6472 690,-18.6472 578,-18.6472"/>
<text text-anchor="middle" x="634" y="-25.6472" font-family="Helvetica,sans-Serif" font-size="10.00" fill="#000000">MapNode::setTileID</text>
</a>
</g>
</g>
<!-- Node207&#45;&gt;Node210 -->
<g id="edge5" class="edge">
<title>Node207&#45;&gt;Node210</title>
<path fill="none" stroke="#191970" d="M476.7293,-72.4169C500.0358,-64.7234 530.6205,-54.9325 558,-47.1472 569.5121,-43.8738 582.0901,-40.6057 593.6409,-37.7261"/>
<polygon fill="#191970" stroke="#191970" points="475.6055,-69.1021 467.217,-75.5738 477.8104,-75.7458 475.6055,-69.1021"/>
</g>
<!-- Node217 -->
<g id="node13" class="node">
<title>Node217</title>
<g id="a_node13"><a xlink:href="classMapNode.html#a002b868485074599fbf087fc4c96b2c9" target="_top" xlink:title="Demolish a node Removes all tiles on a node. This effects all layers where something to demolish is p...">
<polygon fill="none" stroke="#000000" points="564.5,-132.6472 564.5,-151.6472 703.5,-151.6472 703.5,-132.6472 564.5,-132.6472"/>
<text text-anchor="middle" x="634" y="-139.6472" font-family="Helvetica,sans-Serif" font-size="10.00" fill="#000000">MapNode::demolishNode</text>
</a>
</g>
</g>
<!-- Node207&#45;&gt;Node217 -->
<g id="edge13" class="edge">
<title>Node207&#45;&gt;Node217</title>
<path fill="none" stroke="#191970" d="M481.3697,-97.5322C517.3723,-108.056 568.3136,-122.9466 601.2549,-132.5756"/>
<polygon fill="#191970" stroke="#191970" points="482.219,-94.1341 471.6386,-94.6877 480.255,-100.8529 482.219,-94.1341"/>
</g>
<!-- Node210&#45;&gt;Node208 -->
<g id="edge6" class="edge">
<title>Node210&#45;&gt;Node208</title>
<path fill="none" stroke="#191970" d="M685.8736,-40.1812C693.9967,-42.3339 702.2609,-44.6826 710,-47.1472 736.3122,-55.5266 765.7512,-67.352 785.3279,-75.5771"/>
<polygon fill="#191970" stroke="#191970" points="686.637,-36.7637 676.08,-37.658 684.8905,-43.5423 686.637,-36.7637"/>
</g>
<!-- Node210&#45;&gt;Node211 -->
<g id="edge7" class="edge">
<title>Node210&#45;&gt;Node211</title>
<path fill="none" stroke="#191970" d="M700.4743,-28.1472C715.3546,-28.1472 731.078,-28.1472 745.7569,-28.1472"/>
<polygon fill="#191970" stroke="#191970" points="700.3305,-24.6473 690.3305,-28.1472 700.3304,-31.6473 700.3305,-24.6473"/>
</g>
<!-- Node212 -->
<g id="node8" class="node">
<title>Node212</title>
<g id="a_node8"><a xlink:href="classEngine.html#a7a1521fd7fc731f961ebaf3f723127d9" target="_top" xlink:title="Engine::setTileIDOfNode">
<polygon fill="none" stroke="#000000" points="1380,-37.6472 1380,-56.6472 1516,-56.6472 1516,-37.6472 1380,-37.6472"/>
<text text-anchor="middle" x="1448" y="-44.6472" font-family="Helvetica,sans-Serif" font-size="10.00" fill="#000000">Engine::setTileIDOfNode</text>
</a>
</g>
</g>
<!-- Node211&#45;&gt;Node212 -->
<g id="edge8" class="edge">
<title>Node211&#45;&gt;Node212</title>
<path fill="none" stroke="#191970" d="M879.3864,-30.2797C1003.8221,-33.971 1257.7117,-41.5024 1379.6477,-45.1196"/>
<polygon fill="#191970" stroke="#191970" points="879.304,-26.7758 869.2045,-29.9776 879.0963,-33.7727 879.304,-26.7758"/>
</g>
<!-- Node213 -->
<g id="node9" class="node">
<title>Node213</title>
<g id="a_node9"><a xlink:href="classEventManager.html#a65ec91fd5016d4f9c4167fb8babed2df" target="_top" xlink:title="EventManager::checkEvents">
<polygon fill="none" stroke="#000000" points="1564,-122.6472 1564,-141.6472 1718,-141.6472 1718,-122.6472 1564,-122.6472"/>
<text text-anchor="middle" x="1641" y="-129.6472" font-family="Helvetica,sans-Serif" font-size="10.00" fill="#000000">EventManager::checkEvents</text>
</a>
</g>
</g>
<!-- Node212&#45;&gt;Node213 -->
<g id="edge9" class="edge">
<title>Node212&#45;&gt;Node213</title>
<path fill="none" stroke="#191970" d="M1487.0737,-60.0745C1496.6179,-63.4684 1506.7441,-67.2704 1516,-71.1472 1554.9774,-87.4727 1599.0779,-109.9835 1623.0832,-122.5943"/>
<polygon fill="#191970" stroke="#191970" points="1487.9942,-56.6888 1477.3993,-56.6993 1485.6883,-63.2981 1487.9942,-56.6888"/>
</g>
<!-- Node214 -->
<g id="node10" class="node">
<title>Node214</title>
<g id="a_node10"><a xlink:href="classGame.html#a1c2ab25d5216b2f4b2fe41efd2c09114" target="_top" xlink:title="begins the game starts running the game ">
<polygon fill="none" stroke="#000000" points="1783.5,-132.6472 1783.5,-151.6472 1851.5,-151.6472 1851.5,-132.6472 1783.5,-132.6472"/>
<text text-anchor="middle" x="1817.5" y="-139.6472" font-family="Helvetica,sans-Serif" font-size="10.00" fill="#000000">Game::run</text>
</a>
</g>
</g>
<!-- Node213&#45;&gt;Node214 -->
<g id="edge10" class="edge">
<title>Node213&#45;&gt;Node214</title>
<path fill="none" stroke="#191970" d="M1728.3664,-137.0972C1747.9355,-138.2059 1767.5625,-139.3179 1783.398,-140.2151"/>
<polygon fill="#191970" stroke="#191970" points="1728.3407,-133.5902 1718.1587,-136.5188 1727.9447,-140.579 1728.3407,-133.5902"/>
</g>
<!-- Node215 -->
<g id="node11" class="node">
<title>Node215</title>
<g id="a_node11"><a xlink:href="main_8cxx.html#af582d708d899e67ead623eac34a22387" target="_top" xlink:title="protected_main">
<polygon fill="none" stroke="#000000" points="1905,-151.6472 1905,-170.6472 1998,-170.6472 1998,-151.6472 1905,-151.6472"/>
<text text-anchor="middle" x="1951.5" y="-158.6472" font-family="Helvetica,sans-Serif" font-size="10.00" fill="#000000">protected_main</text>
</a>
</g>
</g>
<!-- Node214&#45;&gt;Node215 -->
<g id="edge11" class="edge">
<title>Node214&#45;&gt;Node215</title>
<path fill="none" stroke="#191970" d="M1861.8611,-148.4372C1875.6278,-150.3892 1890.8396,-152.5461 1904.7626,-154.5203"/>
<polygon fill="#191970" stroke="#191970" points="1862.0529,-144.9295 1851.6606,-146.9909 1861.0702,-151.8602 1862.0529,-144.9295"/>
</g>
<!-- Node216 -->
<g id="node12" class="node">
<title>Node216</title>
<g id="a_node12"><a xlink:href="main_8cxx.html#a3c04138a5bfe5d72780bb7e82a18e627" target="_top" xlink:title="main">
<polygon fill="none" stroke="#000000" points="2034,-151.6472 2034,-170.6472 2075,-170.6472 2075,-151.6472 2034,-151.6472"/>
<text text-anchor="middle" x="2054.5" y="-158.6472" font-family="Helvetica,sans-Serif" font-size="10.00" fill="#000000">main</text>
</a>
</g>
</g>
<!-- Node215&#45;&gt;Node216 -->
<g id="edge12" class="edge">
<title>Node215&#45;&gt;Node216</title>
<path fill="none" stroke="#191970" d="M2008.2133,-161.1472C2017.4322,-161.1472 2026.4259,-161.1472 2033.9965,-161.1472"/>
<polygon fill="#191970" stroke="#191970" points="2008.1782,-157.6473 1998.1782,-161.1472 2008.1781,-164.6473 2008.1782,-157.6473"/>
</g>
<!-- Node219 -->
<g id="node15" class="node">
<title>Node219</title>
<g id="a_node15"><a xlink:href="classMap.html#af1e496c421981fe707890b0ba60cc20f" target="_top" xlink:title="Map::updateNodeNeighbors">
<polygon fill="none" stroke="#000000" points="558,-170.6472 558,-189.6472 710,-189.6472 710,-170.6472 558,-170.6472"/>
<text text-anchor="middle" x="634" y="-177.6472" font-family="Helvetica,sans-Serif" font-size="10.00" fill="#000000">Map::updateNodeNeighbors</text>
</a>
</g>
</g>
<!-- Node218&#45;&gt;Node219 -->
<g id="edge15" class="edge">
<title>Node218&#45;&gt;Node219</title>
<path fill="none" stroke="#191970" d="M513.0649,-162.162C531.7606,-164.9424 551.6783,-167.9045 569.8411,-170.6056"/>
<polygon fill="#191970" stroke="#191970" points="513.5265,-158.6922 503.1204,-160.6831 512.4967,-165.6161 513.5265,-158.6922"/>
</g>
<!-- Node220 -->
<g id="node16" class="node">
<title>Node220</title>
<g id="a_node16"><a xlink:href="classMap.html#ade1eeabf4e539f9dbfe2a96c97fda4e3" target="_top" xlink:title="Map::changeHeight">
<polygon fill="none" stroke="#000000" points="905,-132.6472 905,-151.6472 1015,-151.6472 1015,-132.6472 905,-132.6472"/>
<text text-anchor="middle" x="960" y="-139.6472" font-family="Helvetica,sans-Serif" font-size="10.00" fill="#000000">Map::changeHeight</text>
</a>
</g>
</g>
<!-- Node219&#45;&gt;Node220 -->
<g id="edge16" class="edge">
<title>Node219&#45;&gt;Node220</title>
<path fill="none" stroke="#191970" d="M720.4126,-175.7559C764.9475,-172.8369 820.0458,-168.2085 869,-161.1472 885.7727,-158.7279 904.0953,-155.0968 919.8747,-151.655"/>
<polygon fill="#191970" stroke="#191970" points="719.9624,-172.2774 710.2057,-176.4073 720.4083,-179.2632 719.9624,-172.2774"/>
</g>
<!-- Node225 -->
<g id="node21" class="node">
<title>Node225</title>
<g id="a_node21"><a xlink:href="classMap.html#a481b37ba71ef0e51e836fc42805762dd" target="_top" xlink:title="Update all mapNodes Updates all mapNode and its adjacent tiles regarding height information, draws slopes for adjacent tiles and sets tiling for mapNode sprite if applicable. ">
<polygon fill="none" stroke="#000000" points="747.5,-208.6472 747.5,-227.6472 867.5,-227.6472 867.5,-208.6472 747.5,-208.6472"/>
<text text-anchor="middle" x="807.5" y="-215.6472" font-family="Helvetica,sans-Serif" font-size="10.00" fill="#000000">Map::updateAllNodes</text>
</a>
</g>
</g>
<!-- Node219&#45;&gt;Node225 -->
<g id="edge23" class="edge">
<title>Node219&#45;&gt;Node225</title>
<path fill="none" stroke="#191970" d="M687.6598,-191.8998C712.1927,-197.273 740.8787,-203.5558 764.0335,-208.6272"/>
<polygon fill="#191970" stroke="#191970" points="688.2987,-188.4568 677.7814,-189.7362 686.801,-195.2947 688.2987,-188.4568"/>
</g>
<!-- Node233 -->
<g id="node29" class="node">
<title>Node233</title>
<g id="a_node29"><a xlink:href="classMap.html#aa8cc2ed983007621bce12dd9d1b8ec5b" target="_top" xlink:title="Demolish a node This function gathers all tiles that should be demolished and invokes the nodes demol...">
<polygon fill="none" stroke="#000000" points="751,-132.6472 751,-151.6472 864,-151.6472 864,-132.6472 751,-132.6472"/>
<text text-anchor="middle" x="807.5" y="-139.6472" font-family="Helvetica,sans-Serif" font-size="10.00" fill="#000000">Map::demolishNode</text>
</a>
</g>
</g>
<!-- Node219&#45;&gt;Node233 -->
<g id="edge36" class="edge">
<title>Node219&#45;&gt;Node233</title>
<path fill="none" stroke="#191970" d="M666.2224,-167.7023C689.9716,-161.1139 722.891,-153.5758 750.9784,-148.1548"/>
<polygon fill="#191970" stroke="#191970" points="664.9661,-164.4218 656.3269,-170.5549 666.9051,-171.1479 664.9661,-164.4218"/>
</g>
<!-- Node221 -->
<g id="node17" class="node">
<title>Node221</title>
<g id="a_node17"><a xlink:href="classMap.html#aba5154a4d917900679a3c0f7ec701561" target="_top" xlink:title="Increase Height Increases the height of the node and checks the surrounding tiles. Either draw a slope sprite or elevate the tile if necessary. ">
<polygon fill="none" stroke="#000000" points="1055.5,-113.6472 1055.5,-132.6472 1171.5,-132.6472 1171.5,-113.6472 1055.5,-113.6472"/>
<text text-anchor="middle" x="1113.5" y="-120.6472" font-family="Helvetica,sans-Serif" font-size="10.00" fill="#000000">Map::increaseHeight</text>
</a>
</g>
</g>
<!-- Node220&#45;&gt;Node221 -->
<g id="edge17" class="edge">
<title>Node220&#45;&gt;Node221</title>
<path fill="none" stroke="#191970" d="M1025.5941,-134.0281C1035.4746,-132.8051 1045.6071,-131.5509 1055.3178,-130.3489"/>
<polygon fill="#191970" stroke="#191970" points="1024.9113,-130.5858 1015.417,-135.2878 1025.7713,-137.5328 1024.9113,-130.5858"/>
</g>
<!-- Node223 -->
<g id="node19" class="node">
<title>Node223</title>
<g id="a_node19"><a xlink:href="classMap.html#afb8cc864df90d273a5074872d635dc40" target="_top" xlink:title="Decrease Height Decreases the height of the node and checks the surrounding tiles. Either draw a slope sprite or lower the tile if necessary. ">
<polygon fill="none" stroke="#000000" points="1054,-151.6472 1054,-170.6472 1173,-170.6472 1173,-151.6472 1054,-151.6472"/>
<text text-anchor="middle" x="1113.5" y="-158.6472" font-family="Helvetica,sans-Serif" font-size="10.00" fill="#000000">Map::decreaseHeight</text>
</a>
</g>
</g>
<!-- Node220&#45;&gt;Node223 -->
<g id="edge20" class="edge">
<title>Node220&#45;&gt;Node223</title>
<path fill="none" stroke="#191970" d="M1025.4846,-150.2528C1034.8708,-151.4146 1044.4869,-152.6049 1053.7546,-153.752"/>
<polygon fill="#191970" stroke="#191970" points="1025.7713,-146.7617 1015.417,-149.0067 1024.9113,-153.7086 1025.7713,-146.7617"/>
</g>
<!-- Node222 -->
<g id="node18" class="node">
<title>Node222</title>
<g id="a_node18"><a xlink:href="classEngine.html#a4851ae1ff696c893741167fc0194fd77" target="_top" xlink:title="Increase Height Increases the height of the given map node Calls the according function of the Map ob...">
<polygon fill="none" stroke="#000000" points="1383.5,-113.6472 1383.5,-132.6472 1512.5,-132.6472 1512.5,-113.6472 1383.5,-113.6472"/>
<text text-anchor="middle" x="1448" y="-120.6472" font-family="Helvetica,sans-Serif" font-size="10.00" fill="#000000">Engine::increaseHeight</text>
</a>
</g>
</g>
<!-- Node221&#45;&gt;Node222 -->
<g id="edge18" class="edge">
<title>Node221&#45;&gt;Node222</title>
<path fill="none" stroke="#191970" d="M1182.098,-123.1472C1241.0523,-123.1472 1325.4566,-123.1472 1383.2634,-123.1472"/>
<polygon fill="#191970" stroke="#191970" points="1181.7655,-119.6473 1171.7655,-123.1472 1181.7654,-126.6473 1181.7655,-119.6473"/>
</g>
<!-- Node222&#45;&gt;Node213 -->
<g id="edge19" class="edge">
<title>Node222&#45;&gt;Node213</title>
<path fill="none" stroke="#191970" d="M1522.7051,-126.6309C1536.182,-127.2593 1550.2573,-127.9157 1563.8036,-128.5474"/>
<polygon fill="#191970" stroke="#191970" points="1522.6867,-123.1263 1512.5345,-126.1566 1522.3606,-130.1187 1522.6867,-123.1263"/>
</g>
<!-- Node224 -->
<g id="node20" class="node">
<title>Node224</title>
<g id="a_node20"><a xlink:href="classEngine.html#a13572fdd7f6470dca48a14497f58980e" target="_top" xlink:title="Decrease Height Decreases the height of the given map node Calls the according function of the Map ob...">
<polygon fill="none" stroke="#000000" points="1212,-151.6472 1212,-170.6472 1344,-170.6472 1344,-151.6472 1212,-151.6472"/>
<text text-anchor="middle" x="1278" y="-158.6472" font-family="Helvetica,sans-Serif" font-size="10.00" fill="#000000">Engine::decreaseHeight</text>
</a>
</g>
</g>
<!-- Node223&#45;&gt;Node224 -->
<g id="edge21" class="edge">
<title>Node223&#45;&gt;Node224</title>
<path fill="none" stroke="#191970" d="M1183.4434,-161.1472C1192.8433,-161.1472 1202.4627,-161.1472 1211.7952,-161.1472"/>
<polygon fill="#191970" stroke="#191970" points="1183.3537,-157.6473 1173.3536,-161.1472 1183.3536,-164.6473 1183.3537,-157.6473"/>
</g>
<!-- Node224&#45;&gt;Node213 -->
<g id="edge22" class="edge">
<title>Node224&#45;&gt;Node213</title>
<path fill="none" stroke="#191970" d="M1354.2135,-155.0662C1400.9162,-151.339 1461.9151,-146.4695 1516,-142.1472 1531.5166,-140.9072 1548.1166,-139.5798 1563.9843,-138.3105"/>
<polygon fill="#191970" stroke="#191970" points="1353.8622,-151.583 1344.1724,-155.8675 1354.4192,-158.5608 1353.8622,-151.583"/>
</g>
<!-- Node226 -->
<g id="node22" class="node">
<title>Node226</title>
<g id="a_node22"><a xlink:href="classMap.html#a26eceeccd7b6ed693909b1927a25c67a" target="_top" xlink:title="Map::Map">
<polygon fill="none" stroke="#000000" points="928.5,-227.6472 928.5,-246.6472 991.5,-246.6472 991.5,-227.6472 928.5,-227.6472"/>
<text text-anchor="middle" x="960" y="-234.6472" font-family="Helvetica,sans-Serif" font-size="10.00" fill="#000000">Map::Map</text>
</a>
</g>
</g>
<!-- Node225&#45;&gt;Node226 -->
<g id="edge24" class="edge">
<title>Node225&#45;&gt;Node226</title>
<path fill="none" stroke="#191970" d="M878.0381,-226.9356C895.602,-229.1239 913.5724,-231.3628 928.1934,-233.1844"/>
<polygon fill="#191970" stroke="#191970" points="878.1281,-223.4198 867.772,-225.6565 877.2626,-230.3661 878.1281,-223.4198"/>
</g>
<!-- Node227 -->
<g id="node23" class="node">
<title>Node227</title>
<g id="a_node23"><a xlink:href="classMap.html#afefe996cc1f62b61ec60d0ae415953bf" target="_top" xlink:title="Map::loadMapFromFile">
<polygon fill="none" stroke="#000000" points="1051,-227.6472 1051,-246.6472 1176,-246.6472 1176,-227.6472 1051,-227.6472"/>
<text text-anchor="middle" x="1113.5" y="-234.6472" font-family="Helvetica,sans-Serif" font-size="10.00" fill="#000000">Map::loadMapFromFile</text>
</a>
</g>
</g>
<!-- Node225&#45;&gt;Node227 -->
<g id="edge35" class="edge">
<title>Node225&#45;&gt;Node227</title>
<path fill="none" stroke="#191970" d="M877.8208,-214.8304C918.0743,-213.7608 969.4748,-213.7966 1015,-218.1472 1034.4174,-220.0029 1055.6981,-223.8715 1073.4951,-227.6366"/>
<polygon fill="#191970" stroke="#191970" points="877.4657,-211.3393 867.5733,-215.1328 877.6722,-218.3362 877.4657,-211.3393"/>
</g>
<!-- Node226&#45;&gt;Node227 -->
<g id="edge25" class="edge">
<title>Node226&#45;&gt;Node227</title>
<path fill="none" stroke="#191970" d="M1001.8303,-237.1472C1016.8933,-237.1472 1034.2371,-237.1472 1050.6955,-237.1472"/>
<polygon fill="#191970" stroke="#191970" points="1001.8053,-233.6473 991.8053,-237.1472 1001.8053,-240.6473 1001.8053,-233.6473"/>
</g>
<!-- Node228 -->
<g id="node24" class="node">
<title>Node228</title>
<g id="a_node24"><a xlink:href="classEngine.html#a83b7dbeee899b36a13d5b07c7ad87ebc" target="_top" xlink:title="Loads a saved game Loads a saved Game. ">
<polygon fill="none" stroke="#000000" points="1225,-227.6472 1225,-246.6472 1331,-246.6472 1331,-227.6472 1225,-227.6472"/>
<text text-anchor="middle" x="1278" y="-234.6472" font-family="Helvetica,sans-Serif" font-size="10.00" fill="#000000">Engine::loadGame</text>
</a>
</g>
</g>
<!-- Node227&#45;&gt;Node228 -->
<g id="edge26" class="edge">
<title>Node227&#45;&gt;Node228</title>
<path fill="none" stroke="#191970" d="M1186.4461,-237.1472C1199.3866,-237.1472 1212.6382,-237.1472 1224.8977,-237.1472"/>
<polygon fill="#191970" stroke="#191970" points="1186.1597,-233.6473 1176.1597,-237.1472 1186.1596,-240.6473 1186.1597,-233.6473"/>
</g>
<!-- Node229 -->
<g id="node25" class="node">
<title>Node229</title>
<g id="a_node25"><a xlink:href="classEngine.html#a0ba57971ffb5173ecc425461f65a4cd8" target="_top" xlink:title="Quits the game Sets m_running to false and quitting the game. ">
<polygon fill="none" stroke="#000000" points="1396,-189.6472 1396,-208.6472 1500,-208.6472 1500,-189.6472 1396,-189.6472"/>
<text text-anchor="middle" x="1448" y="-196.6472" font-family="Helvetica,sans-Serif" font-size="10.00" fill="#000000">Engine::quitGame</text>
</a>
</g>
</g>
<!-- Node228&#45;&gt;Node229 -->
<g id="edge27" class="edge">
<title>Node228&#45;&gt;Node229</title>
<path fill="none" stroke="#191970" d="M1330.8981,-225.3229C1354.865,-219.9656 1382.8235,-213.7161 1405.4103,-208.6673"/>
<polygon fill="#191970" stroke="#191970" points="1329.8938,-221.961 1320.8982,-227.5582 1331.4209,-228.7924 1329.8938,-221.961"/>
</g>
<!-- Node230 -->
<g id="node26" class="node">
<title>Node230</title>
<g id="a_node26"><a xlink:href="classUIManager.html#aa78e356fc3b356d790c848319d1c387e" target="_top" xlink:title="UIManager::setCallbackFunctions">
<polygon fill="none" stroke="#000000" points="1552,-227.6472 1552,-246.6472 1730,-246.6472 1730,-227.6472 1552,-227.6472"/>
<text text-anchor="middle" x="1641" y="-234.6472" font-family="Helvetica,sans-Serif" font-size="10.00" fill="#000000">UIManager::setCallbackFunctions</text>
</a>
</g>
</g>
<!-- Node228&#45;&gt;Node230 -->
<g id="edge33" class="edge">
<title>Node228&#45;&gt;Node230</title>
<path fill="none" stroke="#191970" d="M1341.3423,-237.1472C1399.5896,-237.1472 1486.5517,-237.1472 1551.8134,-237.1472"/>
<polygon fill="#191970" stroke="#191970" points="1341.1721,-233.6473 1331.1721,-237.1472 1341.172,-240.6473 1341.1721,-233.6473"/>
</g>
<!-- Node232 -->
<g id="node28" class="node">
<title>Node232</title>
<g id="a_node28"><a xlink:href="classGame.html#a560299f0291c281f7b44e7ef0dd7b264" target="_top" xlink:title="initializes and displays the main menu initializes and displays the main menu ">
<polygon fill="none" stroke="#000000" points="1766,-189.6472 1766,-208.6472 1869,-208.6472 1869,-189.6472 1766,-189.6472"/>
<text text-anchor="middle" x="1817.5" y="-196.6472" font-family="Helvetica,sans-Serif" font-size="10.00" fill="#000000">Game::mainMenu</text>
</a>
</g>
</g>
<!-- Node228&#45;&gt;Node232 -->
<g id="edge34" class="edge">
<title>Node228&#45;&gt;Node232</title>
<path fill="none" stroke="#191970" d="M1324.9671,-248.9493C1408.482,-267.7983 1587.4342,-298.4873 1730,-256.1472 1761.2834,-246.8565 1791.8332,-222.4509 1807.215,-208.7789"/>
<polygon fill="#191970" stroke="#191970" points="1325.5553,-245.4931 1315.0248,-246.6587 1323.9837,-252.3145 1325.5553,-245.4931"/>
</g>
<!-- Node229&#45;&gt;Node213 -->
<g id="edge28" class="edge">
<title>Node229&#45;&gt;Node213</title>
<path fill="none" stroke="#191970" d="M1485.2099,-186.2298C1522.7195,-173.2083 1579.7432,-153.4125 1613.3991,-141.7289"/>
<polygon fill="#191970" stroke="#191970" points="1483.9513,-182.9617 1475.6522,-189.5477 1486.247,-189.5746 1483.9513,-182.9617"/>
</g>
<!-- Node229&#45;&gt;Node230 -->
<g id="edge29" class="edge">
<title>Node229&#45;&gt;Node230</title>
<path fill="none" stroke="#191970" d="M1506.6016,-210.6854C1534.1289,-216.1052 1566.5476,-222.4882 1592.6482,-227.6272"/>
<polygon fill="#191970" stroke="#191970" points="1507.1898,-207.2341 1496.702,-208.7362 1505.8375,-214.1022 1507.1898,-207.2341"/>
</g>
<!-- Node231 -->
<g id="node27" class="node">
<title>Node231</title>
<g id="a_node27"><a xlink:href="classGame.html#a8272be134d16c277bb014ad6a22fc357" target="_top" xlink:title="Game::quit">
<polygon fill="none" stroke="#000000" points="1605.5,-189.6472 1605.5,-208.6472 1676.5,-208.6472 1676.5,-189.6472 1605.5,-189.6472"/>
<text text-anchor="middle" x="1641" y="-196.6472" font-family="Helvetica,sans-Serif" font-size="10.00" fill="#000000">Game::quit</text>
</a>
</g>
</g>
<!-- Node229&#45;&gt;Node231 -->
<g id="edge30" class="edge">
<title>Node229&#45;&gt;Node231</title>
<path fill="none" stroke="#191970" d="M1510.6194,-199.1472C1541.9427,-199.1472 1578.721,-199.1472 1605.2157,-199.1472"/>
<polygon fill="#191970" stroke="#191970" points="1510.2286,-195.6473 1500.2286,-199.1472 1510.2285,-202.6473 1510.2286,-195.6473"/>
</g>
<!-- Node231&#45;&gt;Node232 -->
<g id="edge31" class="edge">
<title>Node231&#45;&gt;Node232</title>
<path fill="none" stroke="#191970" d="M1687.0403,-199.1472C1711.1836,-199.1472 1740.8403,-199.1472 1765.7739,-199.1472"/>
<polygon fill="#191970" stroke="#191970" points="1686.7174,-195.6473 1676.7174,-199.1472 1686.7174,-202.6473 1686.7174,-195.6473"/>
</g>
<!-- Node232&#45;&gt;Node215 -->
<g id="edge32" class="edge">
<title>Node232&#45;&gt;Node215</title>
<path fill="none" stroke="#191970" d="M1860.9383,-186.8289C1879.3491,-181.6079 1900.4798,-175.6156 1917.697,-170.7332"/>
<polygon fill="#191970" stroke="#191970" points="1859.9796,-183.4627 1851.3139,-189.5582 1861.8894,-190.1971 1859.9796,-183.4627"/>
</g>
<!-- Node233&#45;&gt;Node213 -->
<g id="edge37" class="edge">
<title>Node233&#45;&gt;Node213</title>
<path fill="none" stroke="#191970" d="M847.8717,-129.7134C905.9953,-112.9423 1016.8967,-85.1472 1113.5,-85.1472 1113.5,-85.1472 1113.5,-85.1472 1278,-85.1472 1384.1143,-85.1472 1411.0774,-88.2884 1516,-104.1472 1546.2354,-108.7172 1580.0522,-116.4557 1604.8807,-122.6406"/>
<polygon fill="#191970" stroke="#191970" points="846.6015,-126.4383 837.9875,-132.6067 848.5681,-133.1564 846.6015,-126.4383"/>
</g>
<!-- Node233&#45;&gt;Node219 -->
<g id="edge39" class="edge">
<title>Node233&#45;&gt;Node219</title>
<path fill="none" stroke="#191970" d="M775.8494,-154.4332C756.8433,-159.7265 731.8167,-165.6518 708.0829,-170.6072"/>
<polygon fill="#191970" stroke="#191970" points="776.8376,-157.7909 785.4711,-151.6497 774.8923,-151.0666 776.8376,-157.7909"/>
</g>
<!-- Node233&#45;&gt;Node220 -->
<g id="edge38" class="edge">
<title>Node233&#45;&gt;Node220</title>
<path fill="none" stroke="#191970" d="M874.3879,-142.1472C884.5937,-142.1472 895.0267,-142.1472 904.9406,-142.1472"/>
<polygon fill="#191970" stroke="#191970" points="874.2854,-138.6473 864.2854,-142.1472 874.2853,-145.6473 874.2854,-138.6473"/>
</g>
</g>
</svg>
