<?xml version="1.0" encoding="UTF-8" standalone="no"?>
<!DOCTYPE svg PUBLIC "-//W3C//DTD SVG 1.1//EN"
 "http://www.w3.org/Graphics/SVG/1.1/DTD/svg11.dtd">
<!-- Generated by graphviz version 2.40.1 (20161225.0304)
 -->
<!-- Title: Engine::setTileIDOfNode Pages: 1 -->
<!--zoomable 449 -->
<svg id="main" version="1.1" xmlns="http://www.w3.org/2000/svg" xmlns:xlink="http://www.w3.org/1999/xlink" xml:space="preserve" onload="init(evt)">
<style type="text/css"><![CDATA[
.edge:hover path { stroke: red; }
.edge:hover polygon { stroke: red; fill: red; }
]]></style>
<script type="text/javascript"><![CDATA[
var edges = document.getElementsByTagName('g');
if (edges && edges.length) {
  for (var i=0;i<edges.length;i++) {
    if (edges[i].id.substr(0,4)=='edge') {
      edges[i].setAttribute('class','edge');
    }
  }
}
]]></script>
        <defs>
                <circle id="rim" cx="0" cy="0" r="7"/>
                <circle id="rim2" cx="0" cy="0" r="3.5"/>
                <g id="zoomPlus">
                        <use xlink:href="#rim" fill="#404040">
                                <set attributeName="fill" to="#808080" begin="zoomplus.mouseover" end="zoomplus.mouseout"/>
                        </use>
                        <path d="M-4,0h8M0,-4v8" fill="none" stroke="white" stroke-width="1.5" pointer-events="none"/>
                </g>
                <g id="zoomMin">
                        <use xlink:href="#rim" fill="#404040">
                                <set attributeName="fill" to="#808080" begin="zoomminus.mouseover" end="zoomminus.mouseout"/>
                        </use>
                        <path d="M-4,0h8" fill="none" stroke="white" stroke-width="1.5" pointer-events="none"/>
                </g>
                <g id="dirArrow">
                        <path fill="none" stroke="white" stroke-width="1.5" d="M0,-3.0v7 M-2.5,-0.5L0,-3.0L2.5,-0.5"/>
                </g>
               <g id="resetDef">
                       <use xlink:href="#rim2" fill="#404040">
                               <set attributeName="fill" to="#808080" begin="reset.mouseover" end="reset.mouseout"/>
                       </use>
               </g>
        </defs>

<script type="text/javascript">
var viewWidth = 1058;
var viewHeight = 449;
var sectionId = 'dynsection-15';
</script>
<script xlink:href="svgpan.js"/>
<svg id="graph" class="graph">
<g id="viewport">
<title>Engine::setTileIDOfNode</title>
<!-- Node150 -->
<g id="node1" class="node">
<title>Node150</title>
<polygon fill="#bfbfbf" stroke="#000000" points="0,-107 0,-126 136,-126 136,-107 0,-107"/>
<text text-anchor="middle" x="68" y="-114" font-family="Helvetica,sans-Serif" font-size="10.00" fill="#000000">Engine::setTileIDOfNode</text>
</g>
<!-- Node151 -->
<g id="node2" class="node">
<title>Node151</title>
<g id="a_node2"><a xlink:href="classMap.html#a404c38b33d61f8c63ce2c2efb864d6dd" target="_top" xlink:title="Set the Tile ID Of Node object Also invokes all necessary texture updates (auto&#45;tiling, slopes, ...) ">
<polygon fill="none" stroke="#000000" points="172,-107 172,-126 295,-126 295,-107 172,-107"/>
<text text-anchor="middle" x="233.5" y="-114" font-family="Helvetica,sans-Serif" font-size="10.00" fill="#000000">Map::setTileIDOfNode</text>
</a>
</g>
</g>
<!-- Node150&#45;&gt;Node151 -->
<g id="edge1" class="edge">
<title>Node150&#45;&gt;Node151</title>
<path fill="none" stroke="#191970" d="M136.2707,-116.5C144.6266,-116.5 153.1858,-116.5 161.5931,-116.5"/>
<polygon fill="#191970" stroke="#191970" points="161.7489,-120.0001 171.7489,-116.5 161.7489,-113.0001 161.7489,-120.0001"/>
</g>
<!-- Node152 -->
<g id="node3" class="node">
<title>Node152</title>
<g id="a_node3"><a xlink:href="classSingleton.html#af5cb1e5749949e2b68416cfb8d378044" target="_top" xlink:title="Get an instance of the singleton. ">
<polygon fill="none" stroke="#000000" points="730,-196.5 730,-226.5 864,-226.5 864,-196.5 730,-196.5"/>
<text text-anchor="start" x="738" y="-214.5" font-family="Helvetica,sans-Serif" font-size="10.00" fill="#000000">Singleton&lt; TileManager</text>
<text text-anchor="middle" x="797" y="-203.5" font-family="Helvetica,sans-Serif" font-size="10.00" fill="#000000"> &gt;::instance</text>
</a>
</g>
</g>
<!-- Node151&#45;&gt;Node152 -->
<g id="edge2" class="edge">
<title>Node151&#45;&gt;Node152</title>
<path fill="none" stroke="#191970" d="M238.6035,-126.0655C251.0757,-148.4225 285.4441,-204.1916 331,-230.5 467.646,-309.4127 536.5053,-324.5774 684,-268.5 704.0098,-260.8923 701.4254,-247.1422 720,-236.5 723.7043,-234.3776 727.6136,-232.407 731.627,-230.5819"/>
<polygon fill="#191970" stroke="#191970" points="733.2719,-233.6871 741.1335,-226.5846 730.5586,-227.2344 733.2719,-233.6871"/>
</g>
<!-- Node153 -->
<g id="node4" class="node">
<title>Node153</title>
<g id="a_node4"><a xlink:href="classTileManager.html#a105151a0c336807e918aff002ffd6101" target="_top" xlink:title="TileManager::getTileLayer">
<polygon fill="none" stroke="#000000" points="538,-126 538,-145 681,-145 681,-126 538,-126"/>
<text text-anchor="middle" x="609.5" y="-133" font-family="Helvetica,sans-Serif" font-size="10.00" fill="#000000">TileManager::getTileLayer</text>
</a>
</g>
</g>
<!-- Node151&#45;&gt;Node153 -->
<g id="edge3" class="edge">
<title>Node151&#45;&gt;Node153</title>
<path fill="none" stroke="#191970" d="M295.1677,-119.6162C358.6122,-122.8222 457.783,-127.8334 527.7383,-131.3684"/>
<polygon fill="#191970" stroke="#191970" points="527.6759,-134.8696 537.8398,-131.8789 528.0292,-127.8786 527.6759,-134.8696"/>
</g>
<!-- Node155 -->
<g id="node6" class="node">
<title>Node155</title>
<g id="a_node6"><a xlink:href="classMapNode.html#ab109ac602f30fad3358b9fb0b72adea0" target="_top" xlink:title="MapNode::setRenderFlag">
<polygon fill="none" stroke="#000000" points="346.5,-50 346.5,-69 483.5,-69 483.5,-50 346.5,-50"/>
<text text-anchor="middle" x="415" y="-57" font-family="Helvetica,sans-Serif" font-size="10.00" fill="#000000">MapNode::setRenderFlag</text>
</a>
</g>
</g>
<!-- Node151&#45;&gt;Node155 -->
<g id="edge6" class="edge">
<title>Node151&#45;&gt;Node155</title>
<path fill="none" stroke="#191970" d="M260.703,-106.9019C280.1958,-100.1202 307.1162,-90.9491 331,-83.5 343.6816,-79.5447 357.5182,-75.4866 370.235,-71.859"/>
<polygon fill="#191970" stroke="#191970" points="371.4816,-75.1437 380.1502,-69.0522 369.5749,-68.4084 371.4816,-75.1437"/>
</g>
<!-- Node156 -->
<g id="node7" class="node">
<title>Node156</title>
<g id="a_node7"><a xlink:href="classMapNode.html#a26e55c94192a56990f8a59e7af139a73" target="_top" xlink:title="MapNode::setTileID">
<polygon fill="none" stroke="#000000" points="359,-202 359,-221 471,-221 471,-202 359,-202"/>
<text text-anchor="middle" x="415" y="-209" font-family="Helvetica,sans-Serif" font-size="10.00" fill="#000000">MapNode::setTileID</text>
</a>
</g>
</g>
<!-- Node151&#45;&gt;Node156 -->
<g id="edge7" class="edge">
<title>Node151&#45;&gt;Node156</title>
<path fill="none" stroke="#191970" d="M251.902,-126.1319C283.9183,-142.8897 350.0263,-177.4917 387.5029,-197.1076"/>
<polygon fill="#191970" stroke="#191970" points="386.3363,-200.4474 396.8191,-201.9838 389.5825,-194.2455 386.3363,-200.4474"/>
</g>
<!-- Node164 -->
<g id="node15" class="node">
<title>Node164</title>
<g id="a_node15"><a xlink:href="classMapNode.html#a64cb9a4523c9e78f256fde42f1dee43d" target="_top" xlink:title="check if specific Tile Data is autotile category. ">
<polygon fill="none" stroke="#000000" points="910,-210 910,-229 1050,-229 1050,-210 910,-210"/>
<text text-anchor="middle" x="980" y="-217" font-family="Helvetica,sans-Serif" font-size="10.00" fill="#000000">MapNode::isDataAutoTile</text>
</a>
</g>
</g>
<!-- Node151&#45;&gt;Node164 -->
<g id="edge23" class="edge">
<title>Node151&#45;&gt;Node164</title>
<path fill="none" stroke="#191970" d="M279.5862,-106.9787C388.0718,-86.7861 666.0695,-48.0869 874,-132.5 911.6124,-147.7694 946.1451,-181.2933 965.015,-201.9812"/>
<polygon fill="#191970" stroke="#191970" points="962.6316,-204.5683 971.8896,-209.7199 967.8649,-199.9193 962.6316,-204.5683"/>
</g>
<!-- Node166 -->
<g id="node17" class="node">
<title>Node166</title>
<g id="a_node17"><a xlink:href="classMapNode.html#a6b57e4355d0780fb37c34d63bbcdfdf9" target="_top" xlink:title="MapNode::getMapNodeDataFor\lLayer">
<polygon fill="none" stroke="#000000" points="331,-.5 331,-30.5 499,-30.5 499,-.5 331,-.5"/>
<text text-anchor="start" x="339" y="-18.5" font-family="Helvetica,sans-Serif" font-size="10.00" fill="#000000">MapNode::getMapNodeDataFor</text>
<text text-anchor="middle" x="415" y="-7.5" font-family="Helvetica,sans-Serif" font-size="10.00" fill="#000000">Layer</text>
</a>
</g>
</g>
<!-- Node151&#45;&gt;Node166 -->
<g id="edge22" class="edge">
<title>Node151&#45;&gt;Node166</title>
<path fill="none" stroke="#191970" d="M243.1553,-106.9184C259.7427,-90.9601 295.3218,-58.8794 331,-40.5 335.3369,-38.2659 339.905,-36.1993 344.5785,-34.2932"/>
<polygon fill="#191970" stroke="#191970" points="346.1763,-37.4302 354.279,-30.604 343.688,-30.8873 346.1763,-37.4302"/>
</g>
<!-- Node153&#45;&gt;Node152 -->
<g id="edge4" class="edge">
<title>Node153&#45;&gt;Node152</title>
<path fill="none" stroke="#191970" d="M633.247,-145.1255C662.5556,-157.0052 713.0714,-177.4809 750.2656,-192.557"/>
<polygon fill="#191970" stroke="#191970" points="749.3106,-195.9464 759.893,-196.4593 751.9402,-189.4591 749.3106,-195.9464"/>
</g>
<!-- Node154 -->
<g id="node5" class="node">
<title>Node154</title>
<g id="a_node5"><a xlink:href="classTileManager.html#a8ee071ff8b24926288437d310f9bc714" target="_top" xlink:title="TileManager::getTileData">
<polygon fill="none" stroke="#000000" points="727,-142 727,-161 867,-161 867,-142 727,-142"/>
<text text-anchor="middle" x="797" y="-149" font-family="Helvetica,sans-Serif" font-size="10.00" fill="#000000">TileManager::getTileData</text>
</a>
</g>
</g>
<!-- Node153&#45;&gt;Node154 -->
<g id="edge5" class="edge">
<title>Node153&#45;&gt;Node154</title>
<path fill="none" stroke="#191970" d="M681.1883,-141.6174C692.7825,-142.6068 704.854,-143.6369 716.6374,-144.6424"/>
<polygon fill="#191970" stroke="#191970" points="716.6377,-148.1551 726.8991,-145.5181 717.233,-141.1804 716.6377,-148.1551"/>
</g>
<!-- Node156&#45;&gt;Node152 -->
<g id="edge8" class="edge">
<title>Node156&#45;&gt;Node152</title>
<path fill="none" stroke="#191970" d="M471.3654,-211.5C537.0738,-211.5 646.0362,-211.5 719.632,-211.5"/>
<polygon fill="#191970" stroke="#191970" points="719.7738,-215.0001 729.7738,-211.5 719.7738,-208.0001 719.7738,-215.0001"/>
</g>
<!-- Node156&#45;&gt;Node153 -->
<g id="edge10" class="edge">
<title>Node156&#45;&gt;Node153</title>
<path fill="none" stroke="#191970" d="M435.5606,-201.862C459.2617,-190.9232 499.5166,-172.8674 535,-159.5 545.5147,-155.5389 557.0094,-151.6328 567.754,-148.1594"/>
<polygon fill="#191970" stroke="#191970" points="568.8933,-151.4698 577.361,-145.102 566.7704,-144.7995 568.8933,-151.4698"/>
</g>
<!-- Node156&#45;&gt;Node154 -->
<g id="edge9" class="edge">
<title>Node156&#45;&gt;Node154</title>
<path fill="none" stroke="#191970" d="M471.3654,-202.6468C539.056,-192.0148 652.6495,-174.1729 726.1936,-162.6214"/>
<polygon fill="#191970" stroke="#191970" points="726.9604,-166.044 736.2962,-161.0346 725.8742,-159.1288 726.9604,-166.044"/>
</g>
<!-- Node157 -->
<g id="node8" class="node">
<title>Node157</title>
<g id="a_node8"><a xlink:href="classMapNode.html#a06be1917d4b251010ae78d8a2b7bc88a" target="_top" xlink:title="demolish specific layer of a Node. ">
<polygon fill="none" stroke="#000000" points="539.5,-387 539.5,-406 679.5,-406 679.5,-387 539.5,-387"/>
<text text-anchor="middle" x="609.5" y="-394" font-family="Helvetica,sans-Serif" font-size="10.00" fill="#000000">MapNode::demolishLayer</text>
</a>
</g>
</g>
<!-- Node156&#45;&gt;Node157 -->
<g id="edge11" class="edge">
<title>Node156&#45;&gt;Node157</title>
<path fill="none" stroke="#191970" d="M422.4781,-221.2082C440.4142,-244.1553 487.8973,-302.9325 535,-344.5 550.5721,-358.2422 569.8343,-371.6045 584.8711,-381.3423"/>
<polygon fill="#191970" stroke="#191970" points="583.3011,-384.4918 593.6167,-386.908 587.0594,-378.5862 583.3011,-384.4918"/>
</g>
<!-- Node159 -->
<g id="node10" class="node">
<title>Node159</title>
<g id="a_node10"><a xlink:href="classMapNode.html#ae38d4ab8e73fc9c44e404f3c9a196953" target="_top" xlink:title="MapNode::isLayerOccupied">
<polygon fill="none" stroke="#000000" points="535,-240 535,-259 684,-259 684,-240 535,-240"/>
<text text-anchor="middle" x="609.5" y="-247" font-family="Helvetica,sans-Serif" font-size="10.00" fill="#000000">MapNode::isLayerOccupied</text>
</a>
</g>
</g>
<!-- Node156&#45;&gt;Node159 -->
<g id="edge13" class="edge">
<title>Node156&#45;&gt;Node159</title>
<path fill="none" stroke="#191970" d="M463.8295,-221.04C490.1876,-226.1896 522.9169,-232.584 550.6712,-238.0065"/>
<polygon fill="#191970" stroke="#191970" points="550.1648,-241.4736 560.6504,-239.9561 551.5071,-234.6035 550.1648,-241.4736"/>
</g>
<!-- Node160 -->
<g id="node11" class="node">
<title>Node160</title>
<g id="a_node11"><a xlink:href="classMapNode.html#aabbb10c19ddd79e9c519eb4af5e995e0" target="_top" xlink:title="Update texture. ">
<polygon fill="none" stroke="#000000" points="540.5,-316 540.5,-335 678.5,-335 678.5,-316 540.5,-316"/>
<text text-anchor="middle" x="609.5" y="-323" font-family="Helvetica,sans-Serif" font-size="10.00" fill="#000000">MapNode::updateTexture</text>
</a>
</g>
</g>
<!-- Node156&#45;&gt;Node160 -->
<g id="edge14" class="edge">
<title>Node156&#45;&gt;Node160</title>
<path fill="none" stroke="#191970" d="M431.2484,-221.0235C465.2143,-240.9315 543.9293,-287.0678 584.4312,-310.8067"/>
<polygon fill="#191970" stroke="#191970" points="582.7639,-313.8863 593.161,-315.9234 586.3035,-307.8472 582.7639,-313.8863"/>
</g>
<!-- Node158 -->
<g id="node9" class="node">
<title>Node158</title>
<g id="a_node9"><a xlink:href="classMapNode.html#a67296a58e167356efbabeaac3226b5d3" target="_top" xlink:title="get iso coordinates of this node gets the iso coordinates of this node ">
<polygon fill="none" stroke="#000000" points="725.5,-421 725.5,-440 868.5,-440 868.5,-421 725.5,-421"/>
<text text-anchor="middle" x="797" y="-428" font-family="Helvetica,sans-Serif" font-size="10.00" fill="#000000">MapNode::getCoordinates</text>
</a>
</g>
</g>
<!-- Node157&#45;&gt;Node158 -->
<g id="edge12" class="edge">
<title>Node157&#45;&gt;Node158</title>
<path fill="none" stroke="#191970" d="M662.2282,-406.0614C684.6902,-410.1345 711.0658,-414.9173 734.4999,-419.1667"/>
<polygon fill="#191970" stroke="#191970" points="733.879,-422.6111 744.343,-420.9515 735.128,-415.7234 733.879,-422.6111"/>
</g>
<!-- Node160&#45;&gt;Node152 -->
<g id="edge15" class="edge">
<title>Node160&#45;&gt;Node152</title>
<path fill="none" stroke="#191970" d="M629.47,-315.942C645.6908,-311.3819 668.363,-305.3618 684,-292.5 709.5046,-271.5218 694.5195,-248.5074 720,-227.5 720.4745,-227.1088 720.9552,-226.7237 721.4418,-226.3447"/>
<polygon fill="#191970" stroke="#191970" points="723.4493,-229.2125 729.7877,-220.7227 719.5384,-223.4068 723.4493,-229.2125"/>
</g>
<!-- Node160&#45;&gt;Node152 -->
<g id="edge21" class="edge">
<title>Node160&#45;&gt;Node152</title>
<path fill="none" stroke="#191970" d="M676.3054,-315.9738C679.0048,-314.3077 681.5862,-312.4854 684,-310.5 709.5046,-289.5218 694.5195,-266.5074 720,-245.5 728.2182,-238.7246 738.3182,-233.7697 748.4658,-229.9179"/>
<polygon fill="#191970" stroke="#191970" points="749.8607,-233.1383 758.1497,-226.5395 747.5549,-226.5289 749.8607,-233.1383"/>
</g>
<!-- Node161 -->
<g id="node12" class="node">
<title>Node161</title>
<g id="a_node12"><a xlink:href="classTileManager.html#a519b2d5c91877025a2faa0dff3ba099c" target="_top" xlink:title="TileManager::calculateSlope\lOrientation">
<polygon fill="none" stroke="#000000" points="720,-245.5 720,-275.5 874,-275.5 874,-245.5 720,-245.5"/>
<text text-anchor="start" x="728" y="-263.5" font-family="Helvetica,sans-Serif" font-size="10.00" fill="#000000">TileManager::calculateSlope</text>
<text text-anchor="middle" x="797" y="-252.5" font-family="Helvetica,sans-Serif" font-size="10.00" fill="#000000">Orientation</text>
</a>
</g>
</g>
<!-- Node160&#45;&gt;Node161 -->
<g id="edge16" class="edge">
<title>Node160&#45;&gt;Node161</title>
<path fill="none" stroke="#191970" d="M641.6634,-315.9621C654.8893,-311.8275 670.2908,-306.7376 684,-301.5 700.356,-295.2512 703.6511,-291.7675 720,-285.5 725.8564,-283.2549 732.0109,-281.0328 738.1814,-278.894"/>
<polygon fill="#191970" stroke="#191970" points="739.5075,-282.14 747.8509,-275.6102 737.2565,-275.5118 739.5075,-282.14"/>
</g>
<!-- Node162 -->
<g id="node13" class="node">
<title>Node162</title>
<g id="a_node13"><a xlink:href="classTileManager.html#a05d41a7f0858cff242f027a08e06ea43" target="_top" xlink:title="TileManager::calculateTile\lOrientation">
<polygon fill="none" stroke="#000000" points="724.5,-371.5 724.5,-401.5 869.5,-401.5 869.5,-371.5 724.5,-371.5"/>
<text text-anchor="start" x="732.5" y="-389.5" font-family="Helvetica,sans-Serif" font-size="10.00" fill="#000000">TileManager::calculateTile</text>
<text text-anchor="middle" x="797" y="-378.5" font-family="Helvetica,sans-Serif" font-size="10.00" fill="#000000">Orientation</text>
</a>
</g>
</g>
<!-- Node160&#45;&gt;Node162 -->
<g id="edge17" class="edge">
<title>Node160&#45;&gt;Node162</title>
<path fill="none" stroke="#191970" d="M639.0447,-335.1344C661.2987,-342.3891 692.5623,-352.5764 720,-361.5 726.7999,-363.7115 733.9381,-366.0314 741.0116,-368.3293"/>
<polygon fill="#191970" stroke="#191970" points="739.9873,-371.6765 750.5794,-371.4367 742.1496,-365.0188 739.9873,-371.6765"/>
</g>
<!-- Node163 -->
<g id="node14" class="node">
<title>Node163</title>
<g id="a_node14"><a xlink:href="classMapNode.html#afb1cbc0f9e987b7befced46220dd9277" target="_top" xlink:title="check if specific layer can be autotiled. ">
<polygon fill="none" stroke="#000000" points="725,-333 725,-352 869,-352 869,-333 725,-333"/>
<text text-anchor="middle" x="797" y="-340" font-family="Helvetica,sans-Serif" font-size="10.00" fill="#000000">MapNode::isLayerAutoTile</text>
</a>
</g>
</g>
<!-- Node160&#45;&gt;Node163 -->
<g id="edge18" class="edge">
<title>Node160&#45;&gt;Node163</title>
<path fill="none" stroke="#191970" d="M678.5193,-331.7577C690.348,-332.8302 702.7423,-333.954 714.873,-335.0538"/>
<polygon fill="#191970" stroke="#191970" points="714.7074,-338.5531 724.9826,-335.9704 715.3395,-331.5817 714.7074,-338.5531"/>
</g>
<!-- Node165 -->
<g id="node16" class="node">
<title>Node165</title>
<g id="a_node16"><a xlink:href="classMapNode.html#ab34930f43b60310cd475f514e969a401" target="_top" xlink:title="get TileID of specific layer inside NodeData. ">
<polygon fill="none" stroke="#000000" points="740.5,-295 740.5,-314 853.5,-314 853.5,-295 740.5,-295"/>
<text text-anchor="middle" x="797" y="-302" font-family="Helvetica,sans-Serif" font-size="10.00" fill="#000000">MapNode::getTileID</text>
</a>
</g>
</g>
<!-- Node160&#45;&gt;Node165 -->
<g id="edge20" class="edge">
<title>Node160&#45;&gt;Node165</title>
<path fill="none" stroke="#191970" d="M678.5193,-317.7698C695.3813,-315.8813 713.3928,-313.864 730.1514,-311.987"/>
<polygon fill="#191970" stroke="#191970" points="730.8543,-315.4303 740.4026,-310.8389 730.0751,-308.4738 730.8543,-315.4303"/>
</g>
<!-- Node163&#45;&gt;Node164 -->
<g id="edge19" class="edge">
<title>Node163&#45;&gt;Node164</title>
<path fill="none" stroke="#191970" d="M851.4178,-332.9666C859.2596,-330.494 867.0259,-327.3909 874,-323.5 913.5282,-301.4467 948.6951,-260.7261 966.8906,-237.3159"/>
<polygon fill="#191970" stroke="#191970" points="969.7438,-239.3461 973.007,-229.2663 964.1702,-235.1111 969.7438,-239.3461"/>
</g>
</g>
</svg>
        <g id="navigator" transform="translate(0 0)" fill="#404254">
                <rect fill="#f2f5e9" fill-opacity="0.5" stroke="#606060" stroke-width=".5" x="0" y="0" width="60" height="60"/>
                <use id="zoomplus" xlink:href="#zoomPlus" x="17" y="9" onmousedown="handleZoom(evt,'in')"/>
                <use id="zoomminus" xlink:href="#zoomMin" x="42" y="9" onmousedown="handleZoom(evt,'out')"/>
                <use id="reset" xlink:href="#resetDef" x="30" y="36" onmousedown="handleReset()"/>
                <g id="arrowUp" xlink:href="#dirArrow" transform="translate(30 24)" onmousedown="handlePan(0,-1)">
                  <use xlink:href="#rim" fill="#404040">
                        <set attributeName="fill" to="#808080" begin="arrowUp.mouseover" end="arrowUp.mouseout"/>
                  </use>
                  <path fill="none" stroke="white" stroke-width="1.5" d="M0,-3.0v7 M-2.5,-0.5L0,-3.0L2.5,-0.5"/>
                </g>
                <g id="arrowRight" xlink:href="#dirArrow" transform="rotate(90) translate(36 -43)" onmousedown="handlePan(1,0)">
                  <use xlink:href="#rim" fill="#404040">
                        <set attributeName="fill" to="#808080" begin="arrowRight.mouseover" end="arrowRight.mouseout"/>
                  </use>
                  <path fill="none" stroke="white" stroke-width="1.5" d="M0,-3.0v7 M-2.5,-0.5L0,-3.0L2.5,-0.5"/>
                </g>
                <g id="arrowDown" xlink:href="#dirArrow" transform="rotate(180) translate(-30 -48)" onmousedown="handlePan(0,1)">
                  <use xlink:href="#rim" fill="#404040">
                        <set attributeName="fill" to="#808080" begin="arrowDown.mouseover" end="arrowDown.mouseout"/>
                  </use>
                  <path fill="none" stroke="white" stroke-width="1.5" d="M0,-3.0v7 M-2.5,-0.5L0,-3.0L2.5,-0.5"/>
                </g>
                <g id="arrowLeft" xlink:href="#dirArrow" transform="rotate(270) translate(-36 17)" onmousedown="handlePan(-1,0)">
                  <use xlink:href="#rim" fill="#404040">
                        <set attributeName="fill" to="#808080" begin="arrowLeft.mouseover" end="arrowLeft.mouseout"/>
                  </use>
                  <path fill="none" stroke="white" stroke-width="1.5" d="M0,-3.0v7 M-2.5,-0.5L0,-3.0L2.5,-0.5"/>
                </g>
        </g>
        <svg viewBox="0 0 15 15" width="100%" height="30px" preserveAspectRatio="xMaxYMin meet">
         <g id="arrow_out" transform="scale(0.3 0.3)">
          <a xlink:href="classEngine_a7a1521fd7fc731f961ebaf3f723127d9_cgraph_org.svg" target="_base">
           <rect id="button" ry="5" rx="5" y="6" x="6" height="38" width="38"
                fill="#f2f5e9" fill-opacity="0.5" stroke="#606060" stroke-width="1.0"/>
           <path id="arrow"
             d="M 11.500037,31.436501 C 11.940474,20.09759 22.043105,11.32322 32.158766,21.979434 L 37.068811,17.246167 C 37.068811,17.246167 37.088388,32 37.088388,32 L 22.160133,31.978069 C 22.160133,31.978069 26.997745,27.140456 26.997745,27.140456 C 18.528582,18.264221 13.291696,25.230495 11.500037,31.436501 z"
             style="fill:#404040;"/>
          </a>
         </g>
        </svg>
</svg>
