<?xml version="1.0" encoding="UTF-8" standalone="no"?>
<!DOCTYPE svg PUBLIC "-//W3C//DTD SVG 1.1//EN"
 "http://www.w3.org/Graphics/SVG/1.1/DTD/svg11.dtd">
<!-- Generated by graphviz version 2.40.1 (20161225.0304)
 -->
<!-- Title: UIManager::changeFullScreenMode Pages: 1 -->
<svg width="1076pt" height="365pt"
 viewBox="0.00 0.00 1076.00 364.61" xmlns="http://www.w3.org/2000/svg" xmlns:xlink="http://www.w3.org/1999/xlink">
<g id="graph0" class="graph" transform="scale(1 1) rotate(0) translate(4 360.615)">
<title>UIManager::changeFullScreenMode</title>
<!-- Node8 -->
<g id="node1" class="node">
<title>Node8</title>
<polygon fill="#bfbfbf" stroke="#000000" points="0,-288.5 0,-307.5 186,-307.5 186,-288.5 0,-288.5"/>
<text text-anchor="middle" x="93" y="-295.5" font-family="Helvetica,sans-Serif" font-size="10.00" fill="#000000">UIManager::changeFullScreenMode</text>
</g>
<!-- Node9 -->
<g id="node2" class="node">
<title>Node9</title>
<g id="a_node2"><a xlink:href="classSingleton.html#af5cb1e5749949e2b68416cfb8d378044" target="_top" xlink:title="Get an instance of the singleton. ">
<polygon fill="none" stroke="#000000" points="660,-274 660,-304 815,-304 815,-274 660,-274"/>
<text text-anchor="start" x="668" y="-292" font-family="Helvetica,sans-Serif" font-size="10.00" fill="#000000">Singleton&lt; WindowManager</text>
<text text-anchor="middle" x="737.5" y="-281" font-family="Helvetica,sans-Serif" font-size="10.00" fill="#000000"> &gt;::instance</text>
</a>
</g>
</g>
<!-- Node8&#45;&gt;Node9 -->
<g id="edge1" class="edge">
<title>Node8&#45;&gt;Node9</title>
<path fill="none" stroke="#191970" d="M152.4872,-307.5084C174.1546,-312.6516 198.9812,-318.1876 222,-321 395.8208,-342.2373 443.1317,-346.9505 616,-319 632.5715,-316.3206 649.9776,-311.8106 666.2724,-307.0217"/>
<polygon fill="#191970" stroke="#191970" points="667.6896,-310.2504 676.2573,-304.0178 665.6729,-303.5472 667.6896,-310.2504"/>
</g>
<!-- Node8&#45;&gt;Node9 -->
<g id="edge21" class="edge">
<title>Node8&#45;&gt;Node9</title>
<path fill="none" stroke="#191970" d="M105.6241,-307.5445C128.5023,-318.6315 178.4819,-333.683 222,-339 395.8208,-360.2373 443.1317,-364.9505 616,-337 648.4356,-331.7556 684.0688,-319.4978 708.3078,-308.3632"/>
<polygon fill="#191970" stroke="#191970" points="709.8423,-311.509 717.3241,-304.0074 706.7972,-305.206 709.8423,-311.509"/>
</g>
<!-- Node10 -->
<g id="node3" class="node">
<title>Node10</title>
<g id="a_node3"><a xlink:href="classWindowManager.html#a92e1efc564e88b5d92ef674c2577997f" target="_top" xlink:title="sets the game&#39;s window mode Changes the game&#39;s window mode to fullscreen, borderless, or windowed ">
<polygon fill="none" stroke="#000000" points="222,-301.5 222,-320.5 416,-320.5 416,-301.5 222,-301.5"/>
<text text-anchor="middle" x="319" y="-308.5" font-family="Helvetica,sans-Serif" font-size="10.00" fill="#000000">WindowManager::setFullScreenMode</text>
</a>
</g>
</g>
<!-- Node8&#45;&gt;Node10 -->
<g id="edge2" class="edge">
<title>Node8&#45;&gt;Node10</title>
<path fill="none" stroke="#191970" d="M186.2276,-303.3627C194.7048,-303.8503 203.3351,-304.3467 211.9198,-304.8405"/>
<polygon fill="#191970" stroke="#191970" points="211.78,-308.3382 221.9646,-305.4183 212.1821,-301.3497 211.78,-308.3382"/>
</g>
<!-- Node11 -->
<g id="node4" class="node">
<title>Node11</title>
<g id="a_node4"><a xlink:href="classComboBox.html#afddbdfd25efa15206eb724b641665cfc" target="_top" xlink:title="Get ID of selected element returns the ID of the selected element in the comboBox. ">
<polygon fill="none" stroke="#000000" points="252.5,-38.5 252.5,-57.5 385.5,-57.5 385.5,-38.5 252.5,-38.5"/>
<text text-anchor="middle" x="319" y="-45.5" font-family="Helvetica,sans-Serif" font-size="10.00" fill="#000000">ComboBox::getActiveID</text>
</a>
</g>
</g>
<!-- Node8&#45;&gt;Node11 -->
<g id="edge4" class="edge">
<title>Node8&#45;&gt;Node11</title>
<path fill="none" stroke="#191970" d="M96.2455,-288.4746C107.8971,-255.6332 150.749,-145.8639 222,-86 235.3024,-74.8236 252.2798,-66.6842 268.3012,-60.8764"/>
<polygon fill="#191970" stroke="#191970" points="269.7622,-64.077 278.1119,-57.5552 267.5176,-57.4466 269.7622,-64.077"/>
</g>
<!-- Node13 -->
<g id="node6" class="node">
<title>Node13</title>
<g id="a_node6"><a xlink:href="classLayout.html#afa734c5af10f59f3dadb066054fe81ab" target="_top" xlink:title="Arrange the layout elements. ">
<polygon fill="none" stroke="#000000" points="249.5,-238.5 249.5,-257.5 388.5,-257.5 388.5,-238.5 249.5,-238.5"/>
<text text-anchor="middle" x="319" y="-245.5" font-family="Helvetica,sans-Serif" font-size="10.00" fill="#000000">Layout::arrangeElements</text>
</a>
</g>
</g>
<!-- Node8&#45;&gt;Node13 -->
<g id="edge6" class="edge">
<title>Node8&#45;&gt;Node13</title>
<path fill="none" stroke="#191970" d="M136.0408,-288.4777C172.9167,-280.3193 226.18,-268.5354 265.7365,-259.784"/>
<polygon fill="#191970" stroke="#191970" points="266.7273,-263.1495 275.7351,-257.5719 265.2151,-256.3147 266.7273,-263.1495"/>
</g>
<!-- Node22 -->
<g id="node15" class="node">
<title>Node22</title>
<g id="a_node15"><a xlink:href="classMap.html#ab69938ac0e56eb0da1d1701221f3d185" target="_top" xlink:title="Refresh all the map tile textures. ">
<polygon fill="none" stroke="#000000" points="280.5,-95.5 280.5,-114.5 357.5,-114.5 357.5,-95.5 280.5,-95.5"/>
<text text-anchor="middle" x="319" y="-102.5" font-family="Helvetica,sans-Serif" font-size="10.00" fill="#000000">Map::refresh</text>
</a>
</g>
</g>
<!-- Node8&#45;&gt;Node22 -->
<g id="edge22" class="edge">
<title>Node8&#45;&gt;Node22</title>
<path fill="none" stroke="#191970" d="M104.2074,-288.4291C140.4297,-257.4959 254.6277,-159.9728 300.0736,-121.1628"/>
<polygon fill="#191970" stroke="#191970" points="302.3935,-123.7843 307.725,-114.6287 297.8476,-118.4612 302.3935,-123.7843"/>
</g>
<!-- Node10&#45;&gt;Node9 -->
<g id="edge3" class="edge">
<title>Node10&#45;&gt;Node9</title>
<path fill="none" stroke="#191970" d="M416.1901,-316.0601C474.2968,-317.9082 549.5181,-318.2371 616,-312 630.4144,-310.6477 645.6659,-308.4118 660.3132,-305.8516"/>
<polygon fill="#191970" stroke="#191970" points="661.124,-309.2618 670.3394,-304.0343 659.8755,-302.374 661.124,-309.2618"/>
</g>
<!-- Node12 -->
<g id="node5" class="node">
<title>Node12</title>
<g id="a_node5"><a xlink:href="classComboBox.html#ad0dba514b01ed2bb3c41c738c80a7d6a" target="_top" xlink:title="Set ID of selected element sets the ID of the selected element in the comboBox. ">
<polygon fill="none" stroke="#000000" points="468,-19.5 468,-38.5 600,-38.5 600,-19.5 468,-19.5"/>
<text text-anchor="middle" x="534" y="-26.5" font-family="Helvetica,sans-Serif" font-size="10.00" fill="#000000">ComboBox::setActiveID</text>
</a>
</g>
</g>
<!-- Node11&#45;&gt;Node12 -->
<g id="edge5" class="edge">
<title>Node11&#45;&gt;Node12</title>
<path fill="none" stroke="#191970" d="M385.555,-42.1184C408.3299,-40.1057 433.9876,-37.8383 457.4856,-35.7617"/>
<polygon fill="#191970" stroke="#191970" points="458.1062,-39.2206 467.7592,-34.8538 457.4899,-32.2478 458.1062,-39.2206"/>
</g>
<!-- Node13&#45;&gt;Node9 -->
<g id="edge7" class="edge">
<title>Node13&#45;&gt;Node9</title>
<path fill="none" stroke="#191970" d="M388.5765,-249.6373C460.2019,-254.7174 572.0092,-265.5253 649.6816,-274.7802"/>
<polygon fill="#191970" stroke="#191970" points="649.5831,-278.2936 659.9304,-276.0167 650.4217,-271.344 649.5831,-278.2936"/>
</g>
<!-- Node13&#45;&gt;Node9 -->
<g id="edge10" class="edge">
<title>Node13&#45;&gt;Node9</title>
<path fill="none" stroke="#191970" d="M369.4809,-257.53C438.8379,-266.8126 564.6495,-279.4826 649.6323,-286.009"/>
<polygon fill="#191970" stroke="#191970" points="649.5524,-289.5129 659.7871,-286.7739 650.0782,-282.5326 649.5524,-289.5129"/>
</g>
<!-- Node14 -->
<g id="node7" class="node">
<title>Node14</title>
<g id="a_node7"><a xlink:href="classLayout.html#a79480df6d9dd2d32b23468c05c6ac944" target="_top" xlink:title="Calculates height and width of layout groups. ">
<polygon fill="none" stroke="#000000" points="453,-221 453,-251 615,-251 615,-221 453,-221"/>
<text text-anchor="start" x="461" y="-239" font-family="Helvetica,sans-Serif" font-size="10.00" fill="#000000">Layout::calculateLayoutGroup</text>
<text text-anchor="middle" x="534" y="-228" font-family="Helvetica,sans-Serif" font-size="10.00" fill="#000000">Dimensions</text>
</a>
</g>
</g>
<!-- Node13&#45;&gt;Node14 -->
<g id="edge8" class="edge">
<title>Node13&#45;&gt;Node14</title>
<path fill="none" stroke="#191970" d="M388.5074,-244.1205C405.7947,-243.1556 424.5863,-242.1068 442.7448,-241.0933"/>
<polygon fill="#191970" stroke="#191970" points="442.9648,-244.5866 452.7542,-240.5346 442.5747,-237.5975 442.9648,-244.5866"/>
</g>
<!-- Node15 -->
<g id="node8" class="node">
<title>Node15</title>
<g id="a_node8"><a xlink:href="classUIManager.html#a0d32c5b63c4110ff8e43ab06c1c7d761" target="_top" xlink:title="Get the Layoutgroup container Returns the container, that holds LayoutGroups. ">
<polygon fill="none" stroke="#000000" points="652,-228.5 652,-247.5 823,-247.5 823,-228.5 652,-228.5"/>
<text text-anchor="middle" x="737.5" y="-235.5" font-family="Helvetica,sans-Serif" font-size="10.00" fill="#000000">UIManager::getAllLayoutGroups</text>
</a>
</g>
</g>
<!-- Node13&#45;&gt;Node15 -->
<g id="edge11" class="edge">
<title>Node13&#45;&gt;Node15</title>
<path fill="none" stroke="#191970" d="M345.826,-238.4862C372.3877,-229.6061 414.4156,-216.9967 452,-212 524.2532,-202.3942 543.5157,-204.3313 616,-212 623.131,-212.7544 655.6332,-219.7396 685.2266,-226.2793"/>
<polygon fill="#191970" stroke="#191970" points="684.5898,-229.7231 695.1103,-228.4704 686.1049,-222.889 684.5898,-229.7231"/>
</g>
<!-- Node16 -->
<g id="node9" class="node">
<title>Node16</title>
<g id="a_node9"><a xlink:href="classLayout.html#a99004e4afcea6a945e3890b19cce6236" target="_top" xlink:title="Arrange Elements that are aligned to a parent This is a seperate function, so it can recurse if a par...">
<polygon fill="none" stroke="#000000" points="452,-144.5 452,-163.5 616,-163.5 616,-144.5 452,-144.5"/>
<text text-anchor="middle" x="534" y="-151.5" font-family="Helvetica,sans-Serif" font-size="10.00" fill="#000000">Layout::arrangeChildElements</text>
</a>
</g>
</g>
<!-- Node13&#45;&gt;Node16 -->
<g id="edge12" class="edge">
<title>Node13&#45;&gt;Node16</title>
<path fill="none" stroke="#191970" d="M334.8799,-238.3008C359.3283,-223.6811 407.9798,-195.8177 452,-178 462.7409,-173.6525 474.562,-169.7235 485.804,-166.3624"/>
<polygon fill="#191970" stroke="#191970" points="486.8597,-169.7006 495.4926,-163.5587 484.9138,-162.9765 486.8597,-169.7006"/>
</g>
<!-- Node14&#45;&gt;Node9 -->
<g id="edge9" class="edge">
<title>Node14&#45;&gt;Node9</title>
<path fill="none" stroke="#191970" d="M591.7706,-251.0459C616.0449,-257.368 644.4546,-264.767 669.7109,-271.3448"/>
<polygon fill="#191970" stroke="#191970" points="669.0256,-274.7831 679.5849,-273.9165 670.7899,-268.009 669.0256,-274.7831"/>
</g>
<!-- Node16&#45;&gt;Node9 -->
<g id="edge13" class="edge">
<title>Node16&#45;&gt;Node9</title>
<path fill="none" stroke="#191970" d="M562.8185,-163.6432C579.258,-173.1909 599.758,-187.6909 616,-203 634.6381,-220.5676 631.2606,-232.9708 652,-248 665.3702,-257.689 682.018,-264.7916 697.0615,-270.4148"/>
<polygon fill="#191970" stroke="#191970" points="696.0709,-273.7788 706.665,-273.9088 698.4642,-267.2007 696.0709,-273.7788"/>
</g>
<!-- Node16&#45;&gt;Node9 -->
<g id="edge14" class="edge">
<title>Node16&#45;&gt;Node9</title>
<path fill="none" stroke="#191970" d="M541.7677,-163.5585C556.9853,-176.4529 591.3831,-197.7971 616,-221 634.6381,-238.5676 631.2606,-250.9708 652,-266 653.2433,-266.901 654.5149,-267.7796 655.8109,-268.6357"/>
<polygon fill="#191970" stroke="#191970" points="654.3024,-271.8124 664.6774,-273.9594 657.9058,-265.8111 654.3024,-271.8124"/>
</g>
<!-- Node16&#45;&gt;Node15 -->
<g id="edge17" class="edge">
<title>Node16&#45;&gt;Node15</title>
<path fill="none" stroke="#191970" d="M583.2215,-163.5208C594.5268,-167.0045 606.1185,-171.7012 616,-178 636.4487,-191.0346 631.132,-206.6479 652,-219 655.6802,-221.1784 659.5838,-223.1075 663.6172,-224.8157"/>
<polygon fill="#191970" stroke="#191970" points="662.6279,-228.1826 673.2202,-228.4143 665.0843,-221.6277 662.6279,-228.1826"/>
</g>
<!-- Node17 -->
<g id="node10" class="node">
<title>Node17</title>
<g id="a_node10"><a xlink:href="classUIManager.html#aa5b6dbe1a9d5c50b588c55e9c9673f58" target="_top" xlink:title="Get the Ui Element By ID Finds and returns an UiElement by its elementID parameter. ">
<polygon fill="none" stroke="#000000" points="655,-114.5 655,-133.5 820,-133.5 820,-114.5 655,-114.5"/>
<text text-anchor="middle" x="737.5" y="-121.5" font-family="Helvetica,sans-Serif" font-size="10.00" fill="#000000">UIManager::getUiElementByID</text>
</a>
</g>
</g>
<!-- Node16&#45;&gt;Node17 -->
<g id="edge15" class="edge">
<title>Node16&#45;&gt;Node17</title>
<path fill="none" stroke="#191970" d="M598.6683,-144.4666C619.0716,-141.4587 641.7794,-138.1111 662.8214,-135.0091"/>
<polygon fill="#191970" stroke="#191970" points="663.6174,-138.4297 673,-133.5086 662.5964,-131.5046 663.6174,-138.4297"/>
</g>
<!-- Node18 -->
<g id="node11" class="node">
<title>Node18</title>
<g id="a_node11"><a xlink:href="classUIElement.html#a6451228b4c9bc058d69e4d4f2b03c719" target="_top" xlink:title="UIElement::getUiElementData">
<polygon fill="none" stroke="#000000" points="655.5,-190.5 655.5,-209.5 819.5,-209.5 819.5,-190.5 655.5,-190.5"/>
<text text-anchor="middle" x="737.5" y="-197.5" font-family="Helvetica,sans-Serif" font-size="10.00" fill="#000000">UIElement::getUiElementData</text>
</a>
</g>
</g>
<!-- Node16&#45;&gt;Node18 -->
<g id="edge16" class="edge">
<title>Node16&#45;&gt;Node18</title>
<path fill="none" stroke="#191970" d="M575.4888,-163.5601C598.0997,-168.7533 626.5791,-175.2672 652,-181 662.454,-183.3575 673.6321,-185.857 684.3432,-188.2416"/>
<polygon fill="#191970" stroke="#191970" points="683.9095,-191.7306 694.4307,-190.4843 685.4287,-184.8974 683.9095,-191.7306"/>
</g>
<!-- Node19 -->
<g id="node12" class="node">
<title>Node19</title>
<g id="a_node12"><a xlink:href="classUIElement.html#ad1c0d7431b71bdd9a3704a6d5c8a4643" target="_top" xlink:title="Get the position and the size of this ui element Gets the position and the size of this ui element...">
<polygon fill="none" stroke="#000000" points="657,-152.5 657,-171.5 818,-171.5 818,-152.5 657,-152.5"/>
<text text-anchor="middle" x="737.5" y="-159.5" font-family="Helvetica,sans-Serif" font-size="10.00" fill="#000000">UIElement::getUiElementRect</text>
</a>
</g>
</g>
<!-- Node16&#45;&gt;Node19 -->
<g id="edge18" class="edge">
<title>Node16&#45;&gt;Node19</title>
<path fill="none" stroke="#191970" d="M616.1847,-157.2308C626.278,-157.6276 636.6383,-158.0349 646.8478,-158.4363"/>
<polygon fill="#191970" stroke="#191970" points="646.8617,-161.9394 656.9915,-158.835 647.1367,-154.9448 646.8617,-161.9394"/>
</g>
<!-- Node20 -->
<g id="node13" class="node">
<title>Node20</title>
<g id="a_node13"><a xlink:href="classUIElement.html#aa7f624963eaeb31043d74219ee24386c" target="_top" xlink:title="Checks if the mouse cursor is over the current UI Element Check if the coordinates match the ones sto...">
<polygon fill="none" stroke="#000000" points="895,-171.5 895,-190.5 1032,-190.5 1032,-171.5 895,-171.5"/>
<text text-anchor="middle" x="963.5" y="-178.5" font-family="Helvetica,sans-Serif" font-size="10.00" fill="#000000">UIElement::isMouseOver</text>
</a>
</g>
</g>
<!-- Node19&#45;&gt;Node20 -->
<g id="edge19" class="edge">
<title>Node19&#45;&gt;Node20</title>
<path fill="none" stroke="#191970" d="M818.134,-168.779C839.802,-170.6006 863.204,-172.568 884.7673,-174.3809"/>
<polygon fill="#191970" stroke="#191970" points="884.6016,-177.8792 894.8597,-175.2294 885.1881,-170.9038 884.6016,-177.8792"/>
</g>
<!-- Node21 -->
<g id="node14" class="node">
<title>Node21</title>
<g id="a_node14"><a xlink:href="classUIElement.html#a570841bf8b7970ca935b1a00e571036a" target="_top" xlink:title="Handling for the hovering event Check, if the mouse cursor is hovering over the element. virtual function to provide custom handling if necessary (e.g. Combobox) Per default, it&#39;s the same implementation as isMouseOver. ">
<polygon fill="none" stroke="#000000" points="859,-133.5 859,-152.5 1068,-152.5 1068,-133.5 859,-133.5"/>
<text text-anchor="middle" x="963.5" y="-140.5" font-family="Helvetica,sans-Serif" font-size="10.00" fill="#000000">UIElement::isMouseOverHoverableArea</text>
</a>
</g>
</g>
<!-- Node19&#45;&gt;Node21 -->
<g id="edge20" class="edge">
<title>Node19&#45;&gt;Node21</title>
<path fill="none" stroke="#191970" d="M818.134,-155.221C828.0217,-154.3898 838.2705,-153.5281 848.5409,-152.6647"/>
<polygon fill="#191970" stroke="#191970" points="849.1343,-156.1273 858.8059,-151.8017 848.5478,-149.1519 849.1343,-156.1273"/>
</g>
<!-- Node23 -->
<g id="node16" class="node">
<title>Node23</title>
<g id="a_node16"><a xlink:href="classMap.html#af654ddecf0d25b836d7c9c27ee5c2150" target="_top" xlink:title="Map::calculateVisibleMap">
<polygon fill="none" stroke="#000000" points="464,-95.5 464,-114.5 604,-114.5 604,-95.5 464,-95.5"/>
<text text-anchor="middle" x="534" y="-102.5" font-family="Helvetica,sans-Serif" font-size="10.00" fill="#000000">Map::calculateVisibleMap</text>
</a>
</g>
</g>
<!-- Node22&#45;&gt;Node23 -->
<g id="edge23" class="edge">
<title>Node22&#45;&gt;Node23</title>
<path fill="none" stroke="#191970" d="M357.9349,-105C384.5835,-105 420.8801,-105 453.5951,-105"/>
<polygon fill="#191970" stroke="#191970" points="453.6184,-108.5001 463.6184,-105 453.6184,-101.5001 453.6184,-108.5001"/>
</g>
<!-- Node26 -->
<g id="node19" class="node">
<title>Node26</title>
<g id="a_node19"><a xlink:href="classSprite.html#ababb7913a4d642b0d20a2c48c2a7e77a" target="_top" xlink:title="Sprite::refresh">
<polygon fill="none" stroke="#000000" points="491,-57.5 491,-76.5 577,-76.5 577,-57.5 491,-57.5"/>
<text text-anchor="middle" x="534" y="-64.5" font-family="Helvetica,sans-Serif" font-size="10.00" fill="#000000">Sprite::refresh</text>
</a>
</g>
</g>
<!-- Node22&#45;&gt;Node26 -->
<g id="edge27" class="edge">
<title>Node22&#45;&gt;Node26</title>
<path fill="none" stroke="#191970" d="M357.9349,-98.1185C392.3707,-92.0322 442.9168,-83.0984 481.0271,-76.3626"/>
<polygon fill="#191970" stroke="#191970" points="481.6875,-79.8003 490.9257,-74.6131 480.4691,-72.9071 481.6875,-79.8003"/>
</g>
<!-- Node23&#45;&gt;Node9 -->
<g id="edge25" class="edge">
<title>Node23&#45;&gt;Node9</title>
<path fill="none" stroke="#191970" d="M582.6553,-114.5399C594.8995,-118.9871 607.0803,-125.4924 616,-135 654.6802,-176.2297 613.4727,-215.6274 652,-257 656.3239,-261.6432 661.3861,-265.6167 666.8501,-269.0165"/>
<polygon fill="#191970" stroke="#191970" points="665.2708,-272.1423 675.7187,-273.9005 668.6476,-266.0106 665.2708,-272.1423"/>
</g>
<!-- Node24 -->
<g id="node17" class="node">
<title>Node24</title>
<g id="a_node17"><a xlink:href="isoMath_8cxx.html#a0a076d973bc64ffa7859b894793c8000" target="_top" xlink:title="Calculates screen space coordinates to isometric space coordinates. A formula is used to calculate th...">
<polygon fill="none" stroke="#000000" points="670.5,-38.5 670.5,-57.5 804.5,-57.5 804.5,-38.5 670.5,-38.5"/>
<text text-anchor="middle" x="737.5" y="-45.5" font-family="Helvetica,sans-Serif" font-size="10.00" fill="#000000">calculateIsoCoordinates</text>
</a>
</g>
</g>
<!-- Node23&#45;&gt;Node24 -->
<g id="edge24" class="edge">
<title>Node23&#45;&gt;Node24</title>
<path fill="none" stroke="#191970" d="M584.475,-95.4635C595.0406,-92.8699 606.0036,-89.7245 616,-86 632.9532,-79.6834 635.0185,-73.24 652,-67 659.046,-64.4108 666.5541,-62.1137 674.0839,-60.0923"/>
<polygon fill="#191970" stroke="#191970" points="675.1232,-63.4397 683.9582,-57.5923 673.4051,-56.6538 675.1232,-63.4397"/>
</g>
<!-- Node25 -->
<g id="node18" class="node">
<title>Node25</title>
<g id="a_node18"><a xlink:href="classMap.html#a1676db3d125b2c1764adfcb64d6332a2" target="_top" xlink:title="Map::nodeIdx">
<polygon fill="none" stroke="#000000" points="696.5,-76.5 696.5,-95.5 778.5,-95.5 778.5,-76.5 696.5,-76.5"/>
<text text-anchor="middle" x="737.5" y="-83.5" font-family="Helvetica,sans-Serif" font-size="10.00" fill="#000000">Map::nodeIdx</text>
</a>
</g>
</g>
<!-- Node23&#45;&gt;Node25 -->
<g id="edge26" class="edge">
<title>Node23&#45;&gt;Node25</title>
<path fill="none" stroke="#191970" d="M604.0332,-98.4613C631.1143,-95.9328 661.526,-93.0934 686.4721,-90.7643"/>
<polygon fill="#191970" stroke="#191970" points="686.8175,-94.2473 696.4488,-89.8328 686.1668,-87.2777 686.8175,-94.2473"/>
</g>
<!-- Node27 -->
<g id="node20" class="node">
<title>Node27</title>
<g id="a_node20"><a xlink:href="isoMath_8cxx.html#a229d5dd54cd4e1f43ed5911e4fd266d3" target="_top" xlink:title="converts coordinates from isometric to screen space The given isometric coordinates (which contain he...">
<polygon fill="none" stroke="#000000" points="652.5,-.5 652.5,-19.5 822.5,-19.5 822.5,-.5 652.5,-.5"/>
<text text-anchor="middle" x="737.5" y="-7.5" font-family="Helvetica,sans-Serif" font-size="10.00" fill="#000000">convertIsoToScreenCoordinates</text>
</a>
</g>
</g>
<!-- Node26&#45;&gt;Node27 -->
<g id="edge28" class="edge">
<title>Node26&#45;&gt;Node27</title>
<path fill="none" stroke="#191970" d="M577.1754,-59.1861C589.8821,-56.3034 603.6757,-52.5919 616,-48 632.9532,-41.6834 635.0185,-35.24 652,-29 659.046,-26.4108 666.5541,-24.1137 674.0839,-22.0923"/>
<polygon fill="#191970" stroke="#191970" points="675.1232,-25.4397 683.9582,-19.5923 673.4051,-18.6538 675.1232,-25.4397"/>
</g>
</g>
</svg>
