<?xml version="1.0" encoding="UTF-8" standalone="no"?>
<!DOCTYPE svg PUBLIC "-//W3C//DTD SVG 1.1//EN"
 "http://www.w3.org/Graphics/SVG/1.1/DTD/svg11.dtd">
<!-- Generated by graphviz version 2.40.1 (20161225.0304)
 -->
<!-- Title: Map::saveMapToFile Pages: 1 -->
<svg width="269pt" height="66pt"
 viewBox="0.00 0.00 269.00 66.00" xmlns="http://www.w3.org/2000/svg" xmlns:xlink="http://www.w3.org/1999/xlink">
<g id="graph0" class="graph" transform="scale(1 1) rotate(0) translate(4 62)">
<title>Map::saveMapToFile</title>
<!-- Node489 -->
<g id="node1" class="node">
<title>Node489</title>
<polygon fill="#bfbfbf" stroke="#000000" points="0,-19.5 0,-38.5 113,-38.5 113,-19.5 0,-19.5"/>
<text text-anchor="middle" x="56.5" y="-26.5" font-family="Helvetica,sans-Serif" font-size="10.00" fill="#000000">Map::saveMapToFile</text>
</g>
<!-- Node490 -->
<g id="node2" class="node">
<title>Node490</title>
<g id="a_node2"><a xlink:href="namespacefs.html#a9ce6574c55b8154911dfa170003ef14e" target="_top" xlink:title="fs::writeStringToFile">
<polygon fill="none" stroke="#000000" points="149,-38.5 149,-57.5 261,-57.5 261,-38.5 149,-38.5"/>
<text text-anchor="middle" x="205" y="-45.5" font-family="Helvetica,sans-Serif" font-size="10.00" fill="#000000">fs::writeStringToFile</text>
</a>
</g>
</g>
<!-- Node489&#45;&gt;Node490 -->
<g id="edge1" class="edge">
<title>Node489&#45;&gt;Node490</title>
<path fill="none" stroke="#191970" d="M113.0651,-36.2373C121.4307,-37.3076 130.1142,-38.4187 138.6566,-39.5116"/>
<polygon fill="#191970" stroke="#191970" points="138.2288,-42.9853 148.5922,-40.7828 139.1172,-36.0419 138.2288,-42.9853"/>
</g>
<!-- Node491 -->
<g id="node3" class="node">
<title>Node491</title>
<g id="a_node3"><a xlink:href="compression_8hxx.html#a2b136078ca5d23222e9c24092a9918fa" target="_top" xlink:title="Compress a given string with zlib Compress the given string. Returns an empty string if something wen...">
<polygon fill="none" stroke="#000000" points="159,-.5 159,-19.5 251,-19.5 251,-.5 159,-.5"/>
<text text-anchor="middle" x="205" y="-7.5" font-family="Helvetica,sans-Serif" font-size="10.00" fill="#000000">compressString</text>
</a>
</g>
</g>
<!-- Node489&#45;&gt;Node491 -->
<g id="edge2" class="edge">
<title>Node489&#45;&gt;Node491</title>
<path fill="none" stroke="#191970" d="M113.0651,-21.7627C124.7297,-20.2703 137.0127,-18.6987 148.669,-17.2073"/>
<polygon fill="#191970" stroke="#191970" points="149.2449,-20.6623 158.7198,-15.9214 148.3564,-13.7189 149.2449,-20.6623"/>
</g>
</g>
</svg>
