<?xml version="1.0" encoding="UTF-8" standalone="no"?>
<!DOCTYPE svg PUBLIC "-//W3C//DTD SVG 1.1//EN"
 "http://www.w3.org/Graphics/SVG/1.1/DTD/svg11.dtd">
<!-- Generated by graphviz version 2.40.1 (20161225.0304)
 -->
<!-- Title: Sprite::refresh Pages: 1 -->
<svg width="1362pt" height="278pt"
 viewBox="0.00 0.00 1362.00 277.90" xmlns="http://www.w3.org/2000/svg" xmlns:xlink="http://www.w3.org/1999/xlink">
<g id="graph0" class="graph" transform="scale(1 1) rotate(0) translate(4 273.9044)">
<title>Sprite::refresh</title>
<!-- Node40 -->
<g id="node1" class="node">
<title>Node40</title>
<polygon fill="#bfbfbf" stroke="#000000" points="0,-126 0,-145 86,-145 86,-126 0,-126"/>
<text text-anchor="middle" x="43" y="-133" font-family="Helvetica,sans-Serif" font-size="10.00" fill="#000000">Sprite::refresh</text>
</g>
<!-- Node41 -->
<g id="node2" class="node">
<title>Node41</title>
<g id="a_node2"><a xlink:href="classMap.html#ab69938ac0e56eb0da1d1701221f3d185" target="_top" xlink:title="Refresh all the map tile textures. ">
<polygon fill="none" stroke="#000000" points="134.5,-145 134.5,-164 211.5,-164 211.5,-145 134.5,-145"/>
<text text-anchor="middle" x="173" y="-152" font-family="Helvetica,sans-Serif" font-size="10.00" fill="#000000">Map::refresh</text>
</a>
</g>
</g>
<!-- Node40&#45;&gt;Node41 -->
<g id="edge1" class="edge">
<title>Node40&#45;&gt;Node41</title>
<path fill="none" stroke="#191970" d="M96.3135,-143.292C109.0277,-145.1502 122.3587,-147.0986 134.2735,-148.84"/>
<polygon fill="#191970" stroke="#191970" points="96.6892,-139.8098 86.2881,-141.8267 95.6768,-146.7362 96.6892,-139.8098"/>
</g>
<!-- Node55 -->
<g id="node16" class="node">
<title>Node55</title>
<g id="a_node16"><a xlink:href="classSprite.html#afe62071332bb38f2e262b63c3ee37736" target="_top" xlink:title="Sprite::setTexture">
<polygon fill="none" stroke="#000000" points="122,-107 122,-126 224,-126 224,-107 122,-107"/>
<text text-anchor="middle" x="173" y="-114" font-family="Helvetica,sans-Serif" font-size="10.00" fill="#000000">Sprite::setTexture</text>
</a>
</g>
</g>
<!-- Node40&#45;&gt;Node55 -->
<g id="edge24" class="edge">
<title>Node40&#45;&gt;Node55</title>
<path fill="none" stroke="#191970" d="M96.3639,-127.7007C104.7655,-126.4727 113.4353,-125.2056 121.7868,-123.985"/>
<polygon fill="#191970" stroke="#191970" points="95.6768,-124.2638 86.2881,-129.1733 96.6892,-131.1902 95.6768,-124.2638"/>
</g>
<!-- Node42 -->
<g id="node3" class="node">
<title>Node42</title>
<g id="a_node3"><a xlink:href="classCamera.html#a0a8ee04ccb4f4cc9af52a964cf225f66" target="_top" xlink:title="Increases the zoom level of the camera Increases the zoom level of the camera. ">
<polygon fill="none" stroke="#000000" points="492.5,-202 492.5,-221 649.5,-221 649.5,-202 492.5,-202"/>
<text text-anchor="middle" x="571" y="-209" font-family="Helvetica,sans-Serif" font-size="10.00" fill="#000000">Camera::increaseZoomLevel</text>
</a>
</g>
</g>
<!-- Node41&#45;&gt;Node42 -->
<g id="edge2" class="edge">
<title>Node41&#45;&gt;Node42</title>
<path fill="none" stroke="#191970" d="M199.2259,-168.848C216.0679,-177.3226 238.7023,-187.369 260,-192.5 337.4374,-211.156 428.6858,-214.6365 492.237,-214.2269"/>
<polygon fill="#191970" stroke="#191970" points="200.5225,-165.578 190.0328,-164.0889 197.3043,-171.7945 200.5225,-165.578"/>
</g>
<!-- Node44 -->
<g id="node5" class="node">
<title>Node44</title>
<g id="a_node5"><a xlink:href="classEventManager.html#a65ec91fd5016d4f9c4167fb8babed2df" target="_top" xlink:title="EventManager::checkEvents">
<polygon fill="none" stroke="#000000" points="890,-164 890,-183 1044,-183 1044,-164 890,-164"/>
<text text-anchor="middle" x="967" y="-171" font-family="Helvetica,sans-Serif" font-size="10.00" fill="#000000">EventManager::checkEvents</text>
</a>
</g>
</g>
<!-- Node41&#45;&gt;Node44 -->
<g id="edge18" class="edge">
<title>Node41&#45;&gt;Node44</title>
<path fill="none" stroke="#191970" d="M190.2944,-171.351C206.7344,-186.1877 232.9106,-206.8848 260,-216.5 508.7985,-304.809 595.9282,-268.1608 854,-212.5 886.2565,-205.5429 922.035,-192.1833 944.5173,-183.058"/>
<polygon fill="#191970" stroke="#191970" points="192.3354,-168.4691 182.6315,-164.2162 187.5653,-173.5922 192.3354,-168.4691"/>
</g>
<!-- Node48 -->
<g id="node9" class="node">
<title>Node48</title>
<g id="a_node9"><a xlink:href="classCamera.html#aeea39f352d5873495dea6f376cf3207e" target="_top" xlink:title="Decreases the zoom level of the camera Decreases the zoom level of the camera. ">
<polygon fill="none" stroke="#000000" points="491,-126 491,-145 651,-145 651,-126 491,-126"/>
<text text-anchor="middle" x="571" y="-133" font-family="Helvetica,sans-Serif" font-size="10.00" fill="#000000">Camera::decreaseZoomLevel</text>
</a>
</g>
</g>
<!-- Node41&#45;&gt;Node48 -->
<g id="edge9" class="edge">
<title>Node41&#45;&gt;Node48</title>
<path fill="none" stroke="#191970" d="M221.7969,-152.1705C288.8053,-148.9716 410.1416,-143.1792 490.6562,-139.3355"/>
<polygon fill="#191970" stroke="#191970" points="221.3452,-148.688 211.5235,-152.6609 221.6791,-155.68 221.3452,-148.688"/>
</g>
<!-- Node49 -->
<g id="node10" class="node">
<title>Node49</title>
<g id="a_node10"><a xlink:href="classCamera.html#adfb240823ff20b97b69459490dbd8dc3" target="_top" xlink:title="Centers camera on given isometric coordinates Centers the camera on the given isometric coordinates...">
<polygon fill="none" stroke="#000000" points="271.5,-164 271.5,-183 434.5,-183 434.5,-164 271.5,-164"/>
<text text-anchor="middle" x="353" y="-171" font-family="Helvetica,sans-Serif" font-size="10.00" fill="#000000">Camera::centerScreenOnPoint</text>
</a>
</g>
</g>
<!-- Node41&#45;&gt;Node49 -->
<g id="edge12" class="edge">
<title>Node41&#45;&gt;Node49</title>
<path fill="none" stroke="#191970" d="M221.8143,-159.6526C237.0532,-161.2612 254.3007,-163.0817 271.1628,-164.8616"/>
<polygon fill="#191970" stroke="#191970" points="221.9267,-156.1451 211.6145,-158.576 221.1918,-163.1065 221.9267,-156.1451"/>
</g>
<!-- Node51 -->
<g id="node12" class="node">
<title>Node51</title>
<g id="a_node12"><a xlink:href="classUIManager.html#ac927e1cd3dea979202ea9dbf1195b583" target="_top" xlink:title="UIManager::changeResolution">
<polygon fill="none" stroke="#000000" points="272.5,-50 272.5,-69 433.5,-69 433.5,-50 272.5,-50"/>
<text text-anchor="middle" x="353" y="-57" font-family="Helvetica,sans-Serif" font-size="10.00" fill="#000000">UIManager::changeResolution</text>
</a>
</g>
</g>
<!-- Node41&#45;&gt;Node51 -->
<g id="edge19" class="edge">
<title>Node41&#45;&gt;Node51</title>
<path fill="none" stroke="#191970" d="M211.0306,-141.1784C215.4512,-139.3814 219.8574,-137.4731 224,-135.5 267.415,-114.8213 315.4497,-84.3402 338.7545,-69.0232"/>
<polygon fill="#191970" stroke="#191970" points="209.476,-138.0276 201.4266,-144.9165 212.0151,-144.5509 209.476,-138.0276"/>
</g>
<!-- Node54 -->
<g id="node15" class="node">
<title>Node54</title>
<g id="a_node15"><a xlink:href="classUIManager.html#af2ffb4ee45e57152164643ef6cddda37" target="_top" xlink:title="UIManager::changeFullScreenMode">
<polygon fill="none" stroke="#000000" points="260,-9 260,-28 446,-28 446,-9 260,-9"/>
<text text-anchor="middle" x="353" y="-16" font-family="Helvetica,sans-Serif" font-size="10.00" fill="#000000">UIManager::changeFullScreenMode</text>
</a>
</g>
</g>
<!-- Node41&#45;&gt;Node54 -->
<g id="edge22" class="edge">
<title>Node41&#45;&gt;Node54</title>
<path fill="none" stroke="#191970" d="M219.2977,-139.5281C220.965,-138.2891 222.5428,-136.9491 224,-135.5 256.0168,-103.6622 226.0671,-70.2872 260,-40.5 265.985,-35.2462 272.9952,-31.1891 280.4357,-28.0647"/>
<polygon fill="#191970" stroke="#191970" points="217.1148,-136.7573 210.3589,-144.9187 220.7297,-142.7517 217.1148,-136.7573"/>
</g>
<!-- Node43 -->
<g id="node4" class="node">
<title>Node43</title>
<g id="a_node4"><a xlink:href="classCamera.html#a1f8ecd427814c5a4970223c2d13b9310" target="_top" xlink:title="Camera::setPinchDistance">
<polygon fill="none" stroke="#000000" points="702.5,-164 702.5,-183 847.5,-183 847.5,-164 702.5,-164"/>
<text text-anchor="middle" x="775" y="-171" font-family="Helvetica,sans-Serif" font-size="10.00" fill="#000000">Camera::setPinchDistance</text>
</a>
</g>
</g>
<!-- Node42&#45;&gt;Node43 -->
<g id="edge3" class="edge">
<title>Node42&#45;&gt;Node43</title>
<path fill="none" stroke="#191970" d="M632.2973,-200.0819C661.486,-194.6448 695.9943,-188.2168 723.7644,-183.0439"/>
<polygon fill="#191970" stroke="#191970" points="631.4044,-196.6879 622.2145,-201.96 632.6864,-203.5695 631.4044,-196.6879"/>
</g>
<!-- Node42&#45;&gt;Node44 -->
<g id="edge8" class="edge">
<title>Node42&#45;&gt;Node44</title>
<path fill="none" stroke="#191970" d="M659.7933,-207.8101C715.6611,-204.9269 789.1968,-200.1043 854,-192.5 874.647,-190.0772 897.2668,-186.4664 916.8084,-183.0412"/>
<polygon fill="#191970" stroke="#191970" points="659.3841,-204.3262 649.5733,-208.3261 659.7371,-211.3173 659.3841,-204.3262"/>
</g>
<!-- Node43&#45;&gt;Node44 -->
<g id="edge4" class="edge">
<title>Node43&#45;&gt;Node44</title>
<path fill="none" stroke="#191970" d="M857.7207,-173.5C868.3799,-173.5 879.2617,-173.5 889.8269,-173.5"/>
<polygon fill="#191970" stroke="#191970" points="857.587,-170.0001 847.587,-173.5 857.5869,-177.0001 857.587,-170.0001"/>
</g>
<!-- Node45 -->
<g id="node6" class="node">
<title>Node45</title>
<g id="a_node6"><a xlink:href="classGame.html#a1c2ab25d5216b2f4b2fe41efd2c09114" target="_top" xlink:title="begins the game starts running the game ">
<polygon fill="none" stroke="#000000" points="1080,-123 1080,-142 1148,-142 1148,-123 1080,-123"/>
<text text-anchor="middle" x="1114" y="-130" font-family="Helvetica,sans-Serif" font-size="10.00" fill="#000000">Game::run</text>
</a>
</g>
</g>
<!-- Node44&#45;&gt;Node45 -->
<g id="edge5" class="edge">
<title>Node44&#45;&gt;Node45</title>
<path fill="none" stroke="#191970" d="M1010.8958,-161.2569C1032.9621,-155.1024 1059.3026,-147.7557 1079.8363,-142.0286"/>
<polygon fill="#191970" stroke="#191970" points="1009.7863,-157.9327 1001.0942,-163.9907 1011.6669,-164.6754 1009.7863,-157.9327"/>
</g>
<!-- Node46 -->
<g id="node7" class="node">
<title>Node46</title>
<g id="a_node7"><a xlink:href="main_8cxx.html#af582d708d899e67ead623eac34a22387" target="_top" xlink:title="protected_main">
<polygon fill="none" stroke="#000000" points="1184,-123 1184,-142 1277,-142 1277,-123 1184,-123"/>
<text text-anchor="middle" x="1230.5" y="-130" font-family="Helvetica,sans-Serif" font-size="10.00" fill="#000000">protected_main</text>
</a>
</g>
</g>
<!-- Node45&#45;&gt;Node46 -->
<g id="edge6" class="edge">
<title>Node45&#45;&gt;Node46</title>
<path fill="none" stroke="#191970" d="M1158.2653,-132.5C1166.5757,-132.5 1175.2897,-132.5 1183.6749,-132.5"/>
<polygon fill="#191970" stroke="#191970" points="1158.0098,-129.0001 1148.0098,-132.5 1158.0098,-136.0001 1158.0098,-129.0001"/>
</g>
<!-- Node47 -->
<g id="node8" class="node">
<title>Node47</title>
<g id="a_node8"><a xlink:href="main_8cxx.html#a3c04138a5bfe5d72780bb7e82a18e627" target="_top" xlink:title="main">
<polygon fill="none" stroke="#000000" points="1313,-123 1313,-142 1354,-142 1354,-123 1313,-123"/>
<text text-anchor="middle" x="1333.5" y="-130" font-family="Helvetica,sans-Serif" font-size="10.00" fill="#000000">main</text>
</a>
</g>
</g>
<!-- Node46&#45;&gt;Node47 -->
<g id="edge7" class="edge">
<title>Node46&#45;&gt;Node47</title>
<path fill="none" stroke="#191970" d="M1287.2133,-132.5C1296.4322,-132.5 1305.4259,-132.5 1312.9965,-132.5"/>
<polygon fill="#191970" stroke="#191970" points="1287.1782,-129.0001 1277.1782,-132.5 1287.1781,-136.0001 1287.1782,-129.0001"/>
</g>
<!-- Node48&#45;&gt;Node43 -->
<g id="edge10" class="edge">
<title>Node48&#45;&gt;Node43</title>
<path fill="none" stroke="#191970" d="M632.2973,-146.9181C661.486,-152.3552 695.9943,-158.7832 723.7644,-163.9561"/>
<polygon fill="#191970" stroke="#191970" points="632.6864,-143.4305 622.2145,-145.04 631.4044,-150.3121 632.6864,-143.4305"/>
</g>
<!-- Node48&#45;&gt;Node44 -->
<g id="edge11" class="edge">
<title>Node48&#45;&gt;Node44</title>
<path fill="none" stroke="#191970" d="M661.286,-139.2672C716.9666,-142.159 789.7723,-146.9632 854,-154.5 874.647,-156.9228 897.2668,-160.5336 916.8084,-163.9588"/>
<polygon fill="#191970" stroke="#191970" points="661.2592,-135.7614 651.0944,-138.7492 660.9039,-142.7524 661.2592,-135.7614"/>
</g>
<!-- Node49&#45;&gt;Node42 -->
<g id="edge13" class="edge">
<title>Node49&#45;&gt;Node42</title>
<path fill="none" stroke="#191970" d="M417.688,-184.7759C449.0512,-190.2429 486.3131,-196.7381 516.2483,-201.9561"/>
<polygon fill="#191970" stroke="#191970" points="418.1817,-181.3093 407.7292,-183.04 416.9796,-188.2053 418.1817,-181.3093"/>
</g>
<!-- Node49&#45;&gt;Node43 -->
<g id="edge15" class="edge">
<title>Node49&#45;&gt;Node43</title>
<path fill="none" stroke="#191970" d="M444.8274,-173.5C522.1115,-173.5 631.1335,-173.5 702.4237,-173.5"/>
<polygon fill="#191970" stroke="#191970" points="444.6159,-170.0001 434.6159,-173.5 444.6159,-177.0001 444.6159,-170.0001"/>
</g>
<!-- Node49&#45;&gt;Node48 -->
<g id="edge14" class="edge">
<title>Node49&#45;&gt;Node48</title>
<path fill="none" stroke="#191970" d="M417.688,-162.2241C449.0512,-156.7571 486.3131,-150.2619 516.2483,-145.0439"/>
<polygon fill="#191970" stroke="#191970" points="416.9796,-158.7947 407.7292,-163.96 418.1817,-165.6907 416.9796,-158.7947"/>
</g>
<!-- Node50 -->
<g id="node11" class="node">
<title>Node50</title>
<g id="a_node11"><a xlink:href="classCamera.html#af29da768f8948f3afbf0a9b43530eb1d" target="_top" xlink:title="Centers camera on the middle of the map Centers the camera on the middle of the map. ">
<polygon fill="none" stroke="#000000" points="696,-76.5 696,-106.5 854,-106.5 854,-76.5 696,-76.5"/>
<text text-anchor="start" x="704" y="-94.5" font-family="Helvetica,sans-Serif" font-size="10.00" fill="#000000">Camera::centerScreenOnMap</text>
<text text-anchor="middle" x="775" y="-83.5" font-family="Helvetica,sans-Serif" font-size="10.00" fill="#000000">Center</text>
</a>
</g>
</g>
<!-- Node49&#45;&gt;Node50 -->
<g id="edge16" class="edge">
<title>Node49&#45;&gt;Node50</title>
<path fill="none" stroke="#191970" d="M378.8421,-159.0115C404.2513,-145.5168 444.5614,-126.0832 482,-116.5 552.849,-98.3646 636.1519,-92.6973 695.7868,-91.2231"/>
<polygon fill="#191970" stroke="#191970" points="377.0041,-156.0264 369.8704,-163.8598 380.332,-162.1847 377.0041,-156.0264"/>
</g>
<!-- Node50&#45;&gt;Node45 -->
<g id="edge17" class="edge">
<title>Node50&#45;&gt;Node45</title>
<path fill="none" stroke="#191970" d="M864.2863,-102.2986C934.8907,-110.8378 1029.6287,-122.2958 1079.6803,-128.3492"/>
<polygon fill="#191970" stroke="#191970" points="864.4005,-98.787 854.0526,-101.0609 863.56,-105.7364 864.4005,-98.787"/>
</g>
<!-- Node52 -->
<g id="node13" class="node">
<title>Node52</title>
<g id="a_node13"><a xlink:href="classUIManager.html#aa78e356fc3b356d790c848319d1c387e" target="_top" xlink:title="UIManager::setCallbackFunctions">
<polygon fill="none" stroke="#000000" points="482,-50 482,-69 660,-69 660,-50 482,-50"/>
<text text-anchor="middle" x="571" y="-57" font-family="Helvetica,sans-Serif" font-size="10.00" fill="#000000">UIManager::setCallbackFunctions</text>
</a>
</g>
</g>
<!-- Node51&#45;&gt;Node52 -->
<g id="edge20" class="edge">
<title>Node51&#45;&gt;Node52</title>
<path fill="none" stroke="#191970" d="M443.6341,-59.5C456.309,-59.5 469.3251,-59.5 481.9699,-59.5"/>
<polygon fill="#191970" stroke="#191970" points="443.5558,-56.0001 433.5558,-59.5 443.5557,-63.0001 443.5558,-56.0001"/>
</g>
<!-- Node53 -->
<g id="node14" class="node">
<title>Node53</title>
<g id="a_node14"><a xlink:href="classUIManager.html#a5c4cb8e02504ffa0d3faf45181feab9d" target="_top" xlink:title="Fill UI Widgets whose ID start with a $ with data Used for filling widgets with data, like BuildMenu Position combobox, Screen Resolution ComboBox and so on. ">
<polygon fill="none" stroke="#000000" points="498,-.5 498,-30.5 644,-30.5 644,-.5 498,-.5"/>
<text text-anchor="start" x="506" y="-18.5" font-family="Helvetica,sans-Serif" font-size="10.00" fill="#000000">UIManager::initializeDollar</text>
<text text-anchor="middle" x="571" y="-7.5" font-family="Helvetica,sans-Serif" font-size="10.00" fill="#000000">Variables</text>
</a>
</g>
</g>
<!-- Node51&#45;&gt;Node53 -->
<g id="edge21" class="edge">
<title>Node51&#45;&gt;Node53</title>
<path fill="none" stroke="#191970" d="M410.2657,-47.9418C437.001,-42.5457 469.1426,-36.0584 497.6343,-30.3078"/>
<polygon fill="#191970" stroke="#191970" points="409.4126,-44.5433 400.3028,-49.9527 410.7976,-51.4049 409.4126,-44.5433"/>
</g>
<!-- Node54&#45;&gt;Node53 -->
<g id="edge23" class="edge">
<title>Node54&#45;&gt;Node53</title>
<path fill="none" stroke="#191970" d="M456.3047,-17.0784C470.3906,-16.8845 484.6036,-16.6889 497.9995,-16.5046"/>
<polygon fill="#191970" stroke="#191970" points="456.0348,-13.5817 446.084,-17.219 456.1312,-20.581 456.0348,-13.5817"/>
</g>
</g>
</svg>
