<?xml version="1.0" encoding="UTF-8" standalone="no"?>
<!DOCTYPE svg PUBLIC "-//W3C//DTD SVG 1.1//EN"
 "http://www.w3.org/Graphics/SVG/1.1/DTD/svg11.dtd">
<!-- Generated by graphviz version 2.40.1 (20161225.0304)
 -->
<!-- Title: MapNode::isLayerAutoTile Pages: 1 -->
<!--zoomable 305 -->
<svg id="main" version="1.1" xmlns="http://www.w3.org/2000/svg" xmlns:xlink="http://www.w3.org/1999/xlink" xml:space="preserve" onload="init(evt)">
<style type="text/css"><![CDATA[
.edge:hover path { stroke: red; }
.edge:hover polygon { stroke: red; fill: red; }
]]></style>
<script type="text/javascript"><![CDATA[
var edges = document.getElementsByTagName('g');
if (edges && edges.length) {
  for (var i=0;i<edges.length;i++) {
    if (edges[i].id.substr(0,4)=='edge') {
      edges[i].setAttribute('class','edge');
    }
  }
}
]]></script>
        <defs>
                <circle id="rim" cx="0" cy="0" r="7"/>
                <circle id="rim2" cx="0" cy="0" r="3.5"/>
                <g id="zoomPlus">
                        <use xlink:href="#rim" fill="#404040">
                                <set attributeName="fill" to="#808080" begin="zoomplus.mouseover" end="zoomplus.mouseout"/>
                        </use>
                        <path d="M-4,0h8M0,-4v8" fill="none" stroke="white" stroke-width="1.5" pointer-events="none"/>
                </g>
                <g id="zoomMin">
                        <use xlink:href="#rim" fill="#404040">
                                <set attributeName="fill" to="#808080" begin="zoomminus.mouseover" end="zoomminus.mouseout"/>
                        </use>
                        <path d="M-4,0h8" fill="none" stroke="white" stroke-width="1.5" pointer-events="none"/>
                </g>
                <g id="dirArrow">
                        <path fill="none" stroke="white" stroke-width="1.5" d="M0,-3.0v7 M-2.5,-0.5L0,-3.0L2.5,-0.5"/>
                </g>
               <g id="resetDef">
                       <use xlink:href="#rim2" fill="#404040">
                               <set attributeName="fill" to="#808080" begin="reset.mouseover" end="reset.mouseout"/>
                       </use>
               </g>
        </defs>

<script type="text/javascript">
var viewWidth = 1907;
var viewHeight = 305;
var sectionId = 'dynsection-18';
</script>
<script xlink:href="svgpan.js"/>
<svg id="graph" class="graph">
<g id="viewport">
<title>MapNode::isLayerAutoTile</title>
<!-- Node236 -->
<g id="node1" class="node">
<title>Node236</title>
<polygon fill="#bfbfbf" stroke="#000000" points="0,-163.8611 0,-182.8611 144,-182.8611 144,-163.8611 0,-163.8611"/>
<text text-anchor="middle" x="72" y="-170.8611" font-family="Helvetica,sans-Serif" font-size="10.00" fill="#000000">MapNode::isLayerAutoTile</text>
</g>
<!-- Node237 -->
<g id="node2" class="node">
<title>Node237</title>
<g id="a_node2"><a xlink:href="classMapNode.html#aabbb10c19ddd79e9c519eb4af5e995e0" target="_top" xlink:title="Update texture. ">
<polygon fill="none" stroke="#000000" points="194,-201.8611 194,-220.8611 332,-220.8611 332,-201.8611 194,-201.8611"/>
<text text-anchor="middle" x="263" y="-208.8611" font-family="Helvetica,sans-Serif" font-size="10.00" fill="#000000">MapNode::updateTexture</text>
</a>
</g>
</g>
<!-- Node236&#45;&gt;Node237 -->
<g id="edge1" class="edge">
<title>Node236&#45;&gt;Node237</title>
<path fill="none" stroke="#191970" d="M130.3531,-184.9706C157.5176,-190.3751 189.4324,-196.7246 215.1492,-201.841"/>
<polygon fill="#191970" stroke="#191970" points="130.6881,-181.4687 120.1974,-182.9501 129.3222,-188.3342 130.6881,-181.4687"/>
</g>
<!-- Node248 -->
<g id="node13" class="node">
<title>Node248</title>
<g id="a_node13"><a xlink:href="classMap.html#af192be95053d30ea6c6d9327106bf6d8" target="_top" xlink:title="Get a bitmask that represents same&#45;tile neighbors Checks all neighboring tiles and returns the elevat...">
<polygon fill="none" stroke="#000000" points="180,-144.8611 180,-163.8611 346,-163.8611 346,-144.8611 180,-144.8611"/>
<text text-anchor="middle" x="263" y="-151.8611" font-family="Helvetica,sans-Serif" font-size="10.00" fill="#000000">Map::calculateAutotileBitmask</text>
</a>
</g>
</g>
<!-- Node236&#45;&gt;Node248 -->
<g id="edge13" class="edge">
<title>Node236&#45;&gt;Node248</title>
<path fill="none" stroke="#191970" d="M154.3908,-165.1651C162.8092,-164.3277 171.3662,-163.4765 179.7933,-162.6382"/>
<polygon fill="#191970" stroke="#191970" points="153.8133,-161.7052 144.2089,-166.178 154.5063,-168.6708 153.8133,-161.7052"/>
</g>
<!-- Node238 -->
<g id="node3" class="node">
<title>Node238</title>
<g id="a_node3"><a xlink:href="classMapNode.html#ae515fc96b543bf97237bfb1ca53fe571" target="_top" xlink:title="MapNode::MapNode">
<polygon fill="none" stroke="#000000" points="574.5,-239.8611 574.5,-258.8611 688.5,-258.8611 688.5,-239.8611 574.5,-239.8611"/>
<text text-anchor="middle" x="631.5" y="-246.8611" font-family="Helvetica,sans-Serif" font-size="10.00" fill="#000000">MapNode::MapNode</text>
</a>
</g>
</g>
<!-- Node237&#45;&gt;Node238 -->
<g id="edge2" class="edge">
<title>Node237&#45;&gt;Node238</title>
<path fill="none" stroke="#191970" d="M327.0317,-222.5765C344.7925,-225.4167 364.1099,-228.2553 382,-230.3611 447.7939,-238.1054 523.7387,-243.3655 574.3927,-246.3529"/>
<polygon fill="#191970" stroke="#191970" points="327.2088,-219.0594 316.7768,-220.9095 326.0857,-225.9687 327.2088,-219.0594"/>
</g>
<!-- Node239 -->
<g id="node4" class="node">
<title>Node239</title>
<g id="a_node4"><a xlink:href="classMapNode.html#a92b521fa20e0a75d81523a52ba1d8250" target="_top" xlink:title="MapNode::setBitmask">
<polygon fill="none" stroke="#000000" points="396,-163.8611 396,-182.8611 520,-182.8611 520,-163.8611 396,-163.8611"/>
<text text-anchor="middle" x="458" y="-170.8611" font-family="Helvetica,sans-Serif" font-size="10.00" fill="#000000">MapNode::setBitmask</text>
</a>
</g>
</g>
<!-- Node237&#45;&gt;Node239 -->
<g id="edge3" class="edge">
<title>Node237&#45;&gt;Node239</title>
<path fill="none" stroke="#191970" d="M321.9588,-199.8717C349.782,-194.4497 382.5957,-188.0552 409.0248,-182.905"/>
<polygon fill="#191970" stroke="#191970" points="321.1009,-196.4729 311.955,-201.8211 322.4399,-203.3437 321.1009,-196.4729"/>
</g>
<!-- Node240 -->
<g id="node5" class="node">
<title>Node240</title>
<g id="a_node5"><a xlink:href="classMapNode.html#a26e55c94192a56990f8a59e7af139a73" target="_top" xlink:title="MapNode::setTileID">
<polygon fill="none" stroke="#000000" points="402,-201.8611 402,-220.8611 514,-220.8611 514,-201.8611 402,-201.8611"/>
<text text-anchor="middle" x="458" y="-208.8611" font-family="Helvetica,sans-Serif" font-size="10.00" fill="#000000">MapNode::setTileID</text>
</a>
</g>
</g>
<!-- Node237&#45;&gt;Node240 -->
<g id="edge4" class="edge">
<title>Node237&#45;&gt;Node240</title>
<path fill="none" stroke="#191970" d="M342.0795,-211.3611C362.1346,-211.3611 383.2688,-211.3611 401.9193,-211.3611"/>
<polygon fill="#191970" stroke="#191970" points="342.0242,-207.8612 332.0241,-211.3611 342.0241,-214.8612 342.0242,-207.8612"/>
</g>
<!-- Node247 -->
<g id="node12" class="node">
<title>Node247</title>
<g id="a_node12"><a xlink:href="classMapNode.html#a002b868485074599fbf087fc4c96b2c9" target="_top" xlink:title="Demolish a node Removes all tiles on a node. This effects all layers where something to demolish is p...">
<polygon fill="none" stroke="#000000" points="388.5,-277.8611 388.5,-296.8611 527.5,-296.8611 527.5,-277.8611 388.5,-277.8611"/>
<text text-anchor="middle" x="458" y="-284.8611" font-family="Helvetica,sans-Serif" font-size="10.00" fill="#000000">MapNode::demolishNode</text>
</a>
</g>
</g>
<!-- Node237&#45;&gt;Node247 -->
<g id="edge12" class="edge">
<title>Node237&#45;&gt;Node247</title>
<path fill="none" stroke="#191970" d="M292.5811,-225.3329C316.4428,-236.3481 351.0163,-251.7368 382,-263.3611 395.9914,-268.6103 411.7039,-273.702 425.1952,-277.8348"/>
<polygon fill="#191970" stroke="#191970" points="293.9094,-222.0908 283.3657,-221.0503 290.9593,-228.4388 293.9094,-222.0908"/>
</g>
<!-- Node240&#45;&gt;Node238 -->
<g id="edge5" class="edge">
<title>Node240&#45;&gt;Node238</title>
<path fill="none" stroke="#191970" d="M511.6598,-223.1137C536.1927,-228.4868 564.8787,-234.7697 588.0335,-239.841"/>
<polygon fill="#191970" stroke="#191970" points="512.2987,-219.6707 501.7814,-220.9501 510.801,-226.5086 512.2987,-219.6707"/>
</g>
<!-- Node241 -->
<g id="node6" class="node">
<title>Node241</title>
<g id="a_node6"><a xlink:href="classMap.html#a404c38b33d61f8c63ce2c2efb864d6dd" target="_top" xlink:title="Set the Tile ID Of Node object Also invokes all necessary texture updates (auto&#45;tiling, slopes, ...) ">
<polygon fill="none" stroke="#000000" points="570,-201.8611 570,-220.8611 693,-220.8611 693,-201.8611 570,-201.8611"/>
<text text-anchor="middle" x="631.5" y="-208.8611" font-family="Helvetica,sans-Serif" font-size="10.00" fill="#000000">Map::setTileIDOfNode</text>
</a>
</g>
</g>
<!-- Node240&#45;&gt;Node241 -->
<g id="edge6" class="edge">
<title>Node240&#45;&gt;Node241</title>
<path fill="none" stroke="#191970" d="M524.4743,-211.3611C539.3546,-211.3611 555.078,-211.3611 569.7569,-211.3611"/>
<polygon fill="#191970" stroke="#191970" points="524.3305,-207.8612 514.3305,-211.3611 524.3304,-214.8612 524.3305,-207.8612"/>
</g>
<!-- Node242 -->
<g id="node7" class="node">
<title>Node242</title>
<g id="a_node7"><a xlink:href="classEngine.html#a7a1521fd7fc731f961ebaf3f723127d9" target="_top" xlink:title="Engine::setTileIDOfNode">
<polygon fill="none" stroke="#000000" points="1204,-220.8611 1204,-239.8611 1340,-239.8611 1340,-220.8611 1204,-220.8611"/>
<text text-anchor="middle" x="1272" y="-227.8611" font-family="Helvetica,sans-Serif" font-size="10.00" fill="#000000">Engine::setTileIDOfNode</text>
</a>
</g>
</g>
<!-- Node241&#45;&gt;Node242 -->
<g id="edge7" class="edge">
<title>Node241&#45;&gt;Node242</title>
<path fill="none" stroke="#191970" d="M703.3864,-213.4935C827.8221,-217.1848 1081.7117,-224.7163 1203.6477,-228.3335"/>
<polygon fill="#191970" stroke="#191970" points="703.304,-209.9896 693.2045,-213.1915 703.0963,-216.9866 703.304,-209.9896"/>
</g>
<!-- Node243 -->
<g id="node8" class="node">
<title>Node243</title>
<g id="a_node8"><a xlink:href="classEventManager.html#a65ec91fd5016d4f9c4167fb8babed2df" target="_top" xlink:title="EventManager::checkEvents">
<polygon fill="none" stroke="#000000" points="1388,-134.8611 1388,-153.8611 1542,-153.8611 1542,-134.8611 1388,-134.8611"/>
<text text-anchor="middle" x="1465" y="-141.8611" font-family="Helvetica,sans-Serif" font-size="10.00" fill="#000000">EventManager::checkEvents</text>
</a>
</g>
</g>
<!-- Node242&#45;&gt;Node243 -->
<g id="edge8" class="edge">
<title>Node242&#45;&gt;Node243</title>
<path fill="none" stroke="#191970" d="M1321.5134,-217.9058C1327.8069,-215.921 1334.1038,-213.7315 1340,-211.3611 1381.3498,-194.7376 1426.715,-168.1279 1449.7472,-153.9631"/>
<polygon fill="#191970" stroke="#191970" points="1320.2581,-214.6281 1311.6845,-220.8526 1322.2684,-221.3333 1320.2581,-214.6281"/>
</g>
<!-- Node244 -->
<g id="node9" class="node">
<title>Node244</title>
<g id="a_node9"><a xlink:href="classGame.html#a1c2ab25d5216b2f4b2fe41efd2c09114" target="_top" xlink:title="begins the game starts running the game ">
<polygon fill="none" stroke="#000000" points="1607.5,-115.8611 1607.5,-134.8611 1675.5,-134.8611 1675.5,-115.8611 1607.5,-115.8611"/>
<text text-anchor="middle" x="1641.5" y="-122.8611" font-family="Helvetica,sans-Serif" font-size="10.00" fill="#000000">Game::run</text>
</a>
</g>
</g>
<!-- Node243&#45;&gt;Node244 -->
<g id="edge9" class="edge">
<title>Node243&#45;&gt;Node244</title>
<path fill="none" stroke="#191970" d="M1552.3664,-134.9562C1571.9355,-132.8496 1591.5625,-130.7368 1607.398,-129.0321"/>
<polygon fill="#191970" stroke="#191970" points="1551.7266,-131.5048 1542.1587,-136.055 1552.4759,-138.4645 1551.7266,-131.5048"/>
</g>
<!-- Node245 -->
<g id="node10" class="node">
<title>Node245</title>
<g id="a_node10"><a xlink:href="main_8cxx.html#af582d708d899e67ead623eac34a22387" target="_top" xlink:title="protected_main">
<polygon fill="none" stroke="#000000" points="1729,-87.8611 1729,-106.8611 1822,-106.8611 1822,-87.8611 1729,-87.8611"/>
<text text-anchor="middle" x="1775.5" y="-94.8611" font-family="Helvetica,sans-Serif" font-size="10.00" fill="#000000">protected_main</text>
</a>
</g>
</g>
<!-- Node244&#45;&gt;Node245 -->
<g id="edge10" class="edge">
<title>Node244&#45;&gt;Node245</title>
<path fill="none" stroke="#191970" d="M1685.6996,-116.1253C1699.9237,-113.1531 1715.7045,-109.8557 1730.0191,-106.8646"/>
<polygon fill="#191970" stroke="#191970" points="1684.7333,-112.7516 1675.6606,-118.223 1686.1651,-119.6036 1684.7333,-112.7516"/>
</g>
<!-- Node246 -->
<g id="node11" class="node">
<title>Node246</title>
<g id="a_node11"><a xlink:href="main_8cxx.html#a3c04138a5bfe5d72780bb7e82a18e627" target="_top" xlink:title="main">
<polygon fill="none" stroke="#000000" points="1858,-87.8611 1858,-106.8611 1899,-106.8611 1899,-87.8611 1858,-87.8611"/>
<text text-anchor="middle" x="1878.5" y="-94.8611" font-family="Helvetica,sans-Serif" font-size="10.00" fill="#000000">main</text>
</a>
</g>
</g>
<!-- Node245&#45;&gt;Node246 -->
<g id="edge11" class="edge">
<title>Node245&#45;&gt;Node246</title>
<path fill="none" stroke="#191970" d="M1832.2133,-97.3611C1841.4322,-97.3611 1850.4259,-97.3611 1857.9965,-97.3611"/>
<polygon fill="#191970" stroke="#191970" points="1832.1782,-93.8612 1822.1782,-97.3611 1832.1781,-100.8612 1832.1782,-93.8612"/>
</g>
<!-- Node249 -->
<g id="node14" class="node">
<title>Node249</title>
<g id="a_node14"><a xlink:href="classMap.html#af1e496c421981fe707890b0ba60cc20f" target="_top" xlink:title="Map::updateNodeNeighbors">
<polygon fill="none" stroke="#000000" points="382,-106.8611 382,-125.8611 534,-125.8611 534,-106.8611 382,-106.8611"/>
<text text-anchor="middle" x="458" y="-113.8611" font-family="Helvetica,sans-Serif" font-size="10.00" fill="#000000">Map::updateNodeNeighbors</text>
</a>
</g>
</g>
<!-- Node248&#45;&gt;Node249 -->
<g id="edge14" class="edge">
<title>Node248&#45;&gt;Node249</title>
<path fill="none" stroke="#191970" d="M321.9588,-142.8717C349.782,-137.4497 382.5957,-131.0552 409.0248,-125.905"/>
<polygon fill="#191970" stroke="#191970" points="321.1009,-139.4729 311.955,-144.8211 322.4399,-146.3437 321.1009,-139.4729"/>
</g>
<!-- Node250 -->
<g id="node15" class="node">
<title>Node250</title>
<g id="a_node15"><a xlink:href="classMap.html#ade1eeabf4e539f9dbfe2a96c97fda4e3" target="_top" xlink:title="Map::changeHeight">
<polygon fill="none" stroke="#000000" points="729,-144.8611 729,-163.8611 839,-163.8611 839,-144.8611 729,-144.8611"/>
<text text-anchor="middle" x="784" y="-151.8611" font-family="Helvetica,sans-Serif" font-size="10.00" fill="#000000">Map::changeHeight</text>
</a>
</g>
</g>
<!-- Node249&#45;&gt;Node250 -->
<g id="edge15" class="edge">
<title>Node249&#45;&gt;Node250</title>
<path fill="none" stroke="#191970" d="M518.9708,-127.6087C535.4906,-130.4088 553.3968,-133.2192 570,-135.3611 623.8239,-142.3047 685.5941,-147.493 728.891,-150.6783"/>
<polygon fill="#191970" stroke="#191970" points="519.337,-124.1203 508.8881,-125.8726 518.1491,-131.0188 519.337,-124.1203"/>
</g>
<!-- Node255 -->
<g id="node20" class="node">
<title>Node255</title>
<g id="a_node20"><a xlink:href="classMap.html#a481b37ba71ef0e51e836fc42805762dd" target="_top" xlink:title="Update all mapNodes Updates all mapNode and its adjacent tiles regarding height information, draws slopes for adjacent tiles and sets tiling for mapNode sprite if applicable. ">
<polygon fill="none" stroke="#000000" points="571.5,-68.8611 571.5,-87.8611 691.5,-87.8611 691.5,-68.8611 571.5,-68.8611"/>
<text text-anchor="middle" x="631.5" y="-75.8611" font-family="Helvetica,sans-Serif" font-size="10.00" fill="#000000">Map::updateAllNodes</text>
</a>
</g>
</g>
<!-- Node249&#45;&gt;Node255 -->
<g id="edge22" class="edge">
<title>Node249&#45;&gt;Node255</title>
<path fill="none" stroke="#191970" d="M511.6598,-104.6085C536.1927,-99.2353 564.8787,-92.9525 588.0335,-87.8811"/>
<polygon fill="#191970" stroke="#191970" points="510.801,-101.2136 501.7814,-106.7721 512.2987,-108.0515 510.801,-101.2136"/>
</g>
<!-- Node263 -->
<g id="node28" class="node">
<title>Node263</title>
<g id="a_node28"><a xlink:href="classMap.html#aa8cc2ed983007621bce12dd9d1b8ec5b" target="_top" xlink:title="Demolish a node This function gathers all tiles that should be demolished and invokes the nodes demol...">
<polygon fill="none" stroke="#000000" points="575,-106.8611 575,-125.8611 688,-125.8611 688,-106.8611 575,-106.8611"/>
<text text-anchor="middle" x="631.5" y="-113.8611" font-family="Helvetica,sans-Serif" font-size="10.00" fill="#000000">Map::demolishNode</text>
</a>
</g>
</g>
<!-- Node249&#45;&gt;Node263 -->
<g id="edge35" class="edge">
<title>Node249&#45;&gt;Node263</title>
<path fill="none" stroke="#191970" d="M544.3881,-109.6111C554.7005,-109.6082 565.0197,-109.7324 574.7628,-109.9838"/>
<polygon fill="#191970" stroke="#191970" points="544.0841,-106.1123 534.0996,-109.6565 544.115,-113.1123 544.0841,-106.1123"/>
</g>
<!-- Node251 -->
<g id="node16" class="node">
<title>Node251</title>
<g id="a_node16"><a xlink:href="classMap.html#aba5154a4d917900679a3c0f7ec701561" target="_top" xlink:title="Increase Height Increases the height of the node and checks the surrounding tiles. Either draw a slope sprite or elevate the tile if necessary. ">
<polygon fill="none" stroke="#000000" points="879.5,-182.8611 879.5,-201.8611 995.5,-201.8611 995.5,-182.8611 879.5,-182.8611"/>
<text text-anchor="middle" x="937.5" y="-189.8611" font-family="Helvetica,sans-Serif" font-size="10.00" fill="#000000">Map::increaseHeight</text>
</a>
</g>
</g>
<!-- Node250&#45;&gt;Node251 -->
<g id="edge16" class="edge">
<title>Node250&#45;&gt;Node251</title>
<path fill="none" stroke="#191970" d="M832.6352,-166.4011C854.0799,-171.7099 878.9226,-177.8598 899.044,-182.841"/>
<polygon fill="#191970" stroke="#191970" points="833.2826,-162.9557 822.7345,-163.9501 831.6004,-169.7506 833.2826,-162.9557"/>
</g>
<!-- Node253 -->
<g id="node18" class="node">
<title>Node253</title>
<g id="a_node18"><a xlink:href="classMap.html#afb8cc864df90d273a5074872d635dc40" target="_top" xlink:title="Decrease Height Decreases the height of the node and checks the surrounding tiles. Either draw a slope sprite or lower the tile if necessary. ">
<polygon fill="none" stroke="#000000" points="878,-144.8611 878,-163.8611 997,-163.8611 997,-144.8611 878,-144.8611"/>
<text text-anchor="middle" x="937.5" y="-151.8611" font-family="Helvetica,sans-Serif" font-size="10.00" fill="#000000">Map::decreaseHeight</text>
</a>
</g>
</g>
<!-- Node250&#45;&gt;Node253 -->
<g id="edge19" class="edge">
<title>Node250&#45;&gt;Node253</title>
<path fill="none" stroke="#191970" d="M849.4846,-154.3611C858.8708,-154.3611 868.4869,-154.3611 877.7546,-154.3611"/>
<polygon fill="#191970" stroke="#191970" points="849.4171,-150.8612 839.417,-154.3611 849.417,-157.8612 849.4171,-150.8612"/>
</g>
<!-- Node252 -->
<g id="node17" class="node">
<title>Node252</title>
<g id="a_node17"><a xlink:href="classEngine.html#a4851ae1ff696c893741167fc0194fd77" target="_top" xlink:title="Increase Height Increases the height of the given map node Calls the according function of the Map ob...">
<polygon fill="none" stroke="#000000" points="1207.5,-182.8611 1207.5,-201.8611 1336.5,-201.8611 1336.5,-182.8611 1207.5,-182.8611"/>
<text text-anchor="middle" x="1272" y="-189.8611" font-family="Helvetica,sans-Serif" font-size="10.00" fill="#000000">Engine::increaseHeight</text>
</a>
</g>
</g>
<!-- Node251&#45;&gt;Node252 -->
<g id="edge17" class="edge">
<title>Node251&#45;&gt;Node252</title>
<path fill="none" stroke="#191970" d="M1006.098,-192.3611C1065.0523,-192.3611 1149.4566,-192.3611 1207.2634,-192.3611"/>
<polygon fill="#191970" stroke="#191970" points="1005.7655,-188.8612 995.7655,-192.3611 1005.7654,-195.8612 1005.7655,-188.8612"/>
</g>
<!-- Node252&#45;&gt;Node243 -->
<g id="edge18" class="edge">
<title>Node252&#45;&gt;Node243</title>
<path fill="none" stroke="#191970" d="M1320.4286,-180.3167C1353.2312,-172.1585 1395.9866,-161.525 1426.4743,-153.9426"/>
<polygon fill="#191970" stroke="#191970" points="1319.4522,-176.9528 1310.5926,-182.7629 1321.1417,-183.7459 1319.4522,-176.9528"/>
</g>
<!-- Node254 -->
<g id="node19" class="node">
<title>Node254</title>
<g id="a_node19"><a xlink:href="classEngine.html#a13572fdd7f6470dca48a14497f58980e" target="_top" xlink:title="Decrease Height Decreases the height of the given map node Calls the according function of the Map ob...">
<polygon fill="none" stroke="#000000" points="1036,-144.8611 1036,-163.8611 1168,-163.8611 1168,-144.8611 1036,-144.8611"/>
<text text-anchor="middle" x="1102" y="-151.8611" font-family="Helvetica,sans-Serif" font-size="10.00" fill="#000000">Engine::decreaseHeight</text>
</a>
</g>
</g>
<!-- Node253&#45;&gt;Node254 -->
<g id="edge20" class="edge">
<title>Node253&#45;&gt;Node254</title>
<path fill="none" stroke="#191970" d="M1007.4434,-154.3611C1016.8433,-154.3611 1026.4627,-154.3611 1035.7952,-154.3611"/>
<polygon fill="#191970" stroke="#191970" points="1007.3537,-150.8612 997.3536,-154.3611 1007.3536,-157.8612 1007.3537,-150.8612"/>
</g>
<!-- Node254&#45;&gt;Node243 -->
<g id="edge21" class="edge">
<title>Node254&#45;&gt;Node243</title>
<path fill="none" stroke="#191970" d="M1178.2073,-152.2617C1239.8087,-150.5647 1326.1467,-148.1862 1387.9676,-146.4832"/>
<polygon fill="#191970" stroke="#191970" points="1178.0575,-148.7644 1168.1577,-152.5386 1178.2503,-155.7617 1178.0575,-148.7644"/>
</g>
<!-- Node256 -->
<g id="node21" class="node">
<title>Node256</title>
<g id="a_node21"><a xlink:href="classMap.html#a26eceeccd7b6ed693909b1927a25c67a" target="_top" xlink:title="Map::Map">
<polygon fill="none" stroke="#000000" points="752.5,-68.8611 752.5,-87.8611 815.5,-87.8611 815.5,-68.8611 752.5,-68.8611"/>
<text text-anchor="middle" x="784" y="-75.8611" font-family="Helvetica,sans-Serif" font-size="10.00" fill="#000000">Map::Map</text>
</a>
</g>
</g>
<!-- Node255&#45;&gt;Node256 -->
<g id="edge23" class="edge">
<title>Node255&#45;&gt;Node256</title>
<path fill="none" stroke="#191970" d="M702.0381,-78.3611C719.602,-78.3611 737.5724,-78.3611 752.1934,-78.3611"/>
<polygon fill="#191970" stroke="#191970" points="701.7721,-74.8612 691.772,-78.3611 701.772,-81.8612 701.7721,-74.8612"/>
</g>
<!-- Node257 -->
<g id="node22" class="node">
<title>Node257</title>
<g id="a_node22"><a xlink:href="classMap.html#afefe996cc1f62b61ec60d0ae415953bf" target="_top" xlink:title="Map::loadMapFromFile">
<polygon fill="none" stroke="#000000" points="875,-30.8611 875,-49.8611 1000,-49.8611 1000,-30.8611 875,-30.8611"/>
<text text-anchor="middle" x="937.5" y="-37.8611" font-family="Helvetica,sans-Serif" font-size="10.00" fill="#000000">Map::loadMapFromFile</text>
</a>
</g>
</g>
<!-- Node255&#45;&gt;Node257 -->
<g id="edge34" class="edge">
<title>Node255&#45;&gt;Node257</title>
<path fill="none" stroke="#191970" d="M685.5447,-66.815C699.6419,-64.0822 714.8496,-61.3792 729,-59.3611 777.758,-52.407 833.3134,-47.4916 874.8108,-44.4048"/>
<polygon fill="#191970" stroke="#191970" points="684.6376,-63.4265 675.507,-68.8008 685.9962,-70.2934 684.6376,-63.4265"/>
</g>
<!-- Node256&#45;&gt;Node257 -->
<g id="edge24" class="edge">
<title>Node256&#45;&gt;Node257</title>
<path fill="none" stroke="#191970" d="M825.5651,-68.0713C848.4163,-62.4144 876.5781,-55.4427 898.9373,-49.9075"/>
<polygon fill="#191970" stroke="#191970" points="824.6712,-64.6869 815.8053,-70.4875 826.3534,-71.4818 824.6712,-64.6869"/>
</g>
<!-- Node258 -->
<g id="node23" class="node">
<title>Node258</title>
<g id="a_node23"><a xlink:href="classEngine.html#a83b7dbeee899b36a13d5b07c7ad87ebc" target="_top" xlink:title="Loads a saved game Loads a saved Game. ">
<polygon fill="none" stroke="#000000" points="1049,-30.8611 1049,-49.8611 1155,-49.8611 1155,-30.8611 1049,-30.8611"/>
<text text-anchor="middle" x="1102" y="-37.8611" font-family="Helvetica,sans-Serif" font-size="10.00" fill="#000000">Engine::loadGame</text>
</a>
</g>
</g>
<!-- Node257&#45;&gt;Node258 -->
<g id="edge25" class="edge">
<title>Node257&#45;&gt;Node258</title>
<path fill="none" stroke="#191970" d="M1010.4461,-40.3611C1023.3866,-40.3611 1036.6382,-40.3611 1048.8977,-40.3611"/>
<polygon fill="#191970" stroke="#191970" points="1010.1597,-36.8612 1000.1597,-40.3611 1010.1596,-43.8612 1010.1597,-36.8612"/>
</g>
<!-- Node259 -->
<g id="node24" class="node">
<title>Node259</title>
<g id="a_node24"><a xlink:href="classEngine.html#a0ba57971ffb5173ecc425461f65a4cd8" target="_top" xlink:title="Quits the game Sets m_running to false and quitting the game. ">
<polygon fill="none" stroke="#000000" points="1220,-68.8611 1220,-87.8611 1324,-87.8611 1324,-68.8611 1220,-68.8611"/>
<text text-anchor="middle" x="1272" y="-75.8611" font-family="Helvetica,sans-Serif" font-size="10.00" fill="#000000">Engine::quitGame</text>
</a>
</g>
</g>
<!-- Node258&#45;&gt;Node259 -->
<g id="edge26" class="edge">
<title>Node258&#45;&gt;Node259</title>
<path fill="none" stroke="#191970" d="M1154.8981,-52.1853C1178.865,-57.5427 1206.8235,-63.7922 1229.4103,-68.841"/>
<polygon fill="#191970" stroke="#191970" points="1155.4209,-48.7159 1144.8982,-49.9501 1153.8938,-55.5473 1155.4209,-48.7159"/>
</g>
<!-- Node260 -->
<g id="node25" class="node">
<title>Node260</title>
<g id="a_node25"><a xlink:href="classUIManager.html#aa78e356fc3b356d790c848319d1c387e" target="_top" xlink:title="UIManager::setCallbackFunctions">
<polygon fill="none" stroke="#000000" points="1376,-30.8611 1376,-49.8611 1554,-49.8611 1554,-30.8611 1376,-30.8611"/>
<text text-anchor="middle" x="1465" y="-37.8611" font-family="Helvetica,sans-Serif" font-size="10.00" fill="#000000">UIManager::setCallbackFunctions</text>
</a>
</g>
</g>
<!-- Node258&#45;&gt;Node260 -->
<g id="edge32" class="edge">
<title>Node258&#45;&gt;Node260</title>
<path fill="none" stroke="#191970" d="M1165.3423,-40.3611C1223.5896,-40.3611 1310.5517,-40.3611 1375.8134,-40.3611"/>
<polygon fill="#191970" stroke="#191970" points="1165.1721,-36.8612 1155.1721,-40.3611 1165.172,-43.8612 1165.1721,-36.8612"/>
</g>
<!-- Node262 -->
<g id="node27" class="node">
<title>Node262</title>
<g id="a_node27"><a xlink:href="classGame.html#a560299f0291c281f7b44e7ef0dd7b264" target="_top" xlink:title="initializes and displays the main menu initializes and displays the main menu ">
<polygon fill="none" stroke="#000000" points="1590,-68.8611 1590,-87.8611 1693,-87.8611 1693,-68.8611 1590,-68.8611"/>
<text text-anchor="middle" x="1641.5" y="-75.8611" font-family="Helvetica,sans-Serif" font-size="10.00" fill="#000000">Game::mainMenu</text>
</a>
</g>
</g>
<!-- Node258&#45;&gt;Node262 -->
<g id="edge33" class="edge">
<title>Node258&#45;&gt;Node262</title>
<path fill="none" stroke="#191970" d="M1148.9671,-28.559C1232.482,-9.71 1411.4342,20.979 1554,-21.3611 1585.2834,-30.6518 1615.8332,-55.0574 1631.215,-68.7294"/>
<polygon fill="#191970" stroke="#191970" points="1147.9837,-25.1938 1139.0248,-30.8496 1149.5553,-32.0151 1147.9837,-25.1938"/>
</g>
<!-- Node259&#45;&gt;Node243 -->
<g id="edge27" class="edge">
<title>Node259&#45;&gt;Node243</title>
<path fill="none" stroke="#191970" d="M1309.6135,-91.2237C1347.0592,-104.029 1403.6568,-123.3836 1437.2154,-134.8596"/>
<polygon fill="#191970" stroke="#191970" points="1310.6584,-87.8821 1300.0639,-87.958 1308.3934,-94.5055 1310.6584,-87.8821"/>
</g>
<!-- Node259&#45;&gt;Node260 -->
<g id="edge28" class="edge">
<title>Node259&#45;&gt;Node260</title>
<path fill="none" stroke="#191970" d="M1330.6016,-66.8229C1358.1289,-61.4031 1390.5476,-55.0201 1416.6482,-49.8811"/>
<polygon fill="#191970" stroke="#191970" points="1329.8375,-63.4061 1320.702,-68.7721 1331.1898,-70.2742 1329.8375,-63.4061"/>
</g>
<!-- Node261 -->
<g id="node26" class="node">
<title>Node261</title>
<g id="a_node26"><a xlink:href="classGame.html#a8272be134d16c277bb014ad6a22fc357" target="_top" xlink:title="Game::quit">
<polygon fill="none" stroke="#000000" points="1429.5,-68.8611 1429.5,-87.8611 1500.5,-87.8611 1500.5,-68.8611 1429.5,-68.8611"/>
<text text-anchor="middle" x="1465" y="-75.8611" font-family="Helvetica,sans-Serif" font-size="10.00" fill="#000000">Game::quit</text>
</a>
</g>
</g>
<!-- Node259&#45;&gt;Node261 -->
<g id="edge29" class="edge">
<title>Node259&#45;&gt;Node261</title>
<path fill="none" stroke="#191970" d="M1334.6194,-78.3611C1365.9427,-78.3611 1402.721,-78.3611 1429.2157,-78.3611"/>
<polygon fill="#191970" stroke="#191970" points="1334.2286,-74.8612 1324.2286,-78.3611 1334.2285,-81.8612 1334.2286,-74.8612"/>
</g>
<!-- Node261&#45;&gt;Node262 -->
<g id="edge30" class="edge">
<title>Node261&#45;&gt;Node262</title>
<path fill="none" stroke="#191970" d="M1511.0403,-78.3611C1535.1836,-78.3611 1564.8403,-78.3611 1589.7739,-78.3611"/>
<polygon fill="#191970" stroke="#191970" points="1510.7174,-74.8612 1500.7174,-78.3611 1510.7174,-81.8612 1510.7174,-74.8612"/>
</g>
<!-- Node262&#45;&gt;Node245 -->
<g id="edge31" class="edge">
<title>Node262&#45;&gt;Node245</title>
<path fill="none" stroke="#191970" d="M1703.2457,-87.1161C1711.7846,-88.3268 1720.438,-89.5538 1728.6465,-90.7177"/>
<polygon fill="#191970" stroke="#191970" points="1703.7003,-83.6456 1693.3079,-85.707 1702.7175,-90.5763 1703.7003,-83.6456"/>
</g>
<!-- Node263&#45;&gt;Node243 -->
<g id="edge36" class="edge">
<title>Node263&#45;&gt;Node243</title>
<path fill="none" stroke="#191970" d="M698.2186,-116.3611C760.208,-116.3611 855.0953,-116.3611 937.5,-116.3611 937.5,-116.3611 937.5,-116.3611 1102,-116.3611 1200.9206,-116.3611 1314.5564,-126.8253 1387.947,-134.9596"/>
<polygon fill="#191970" stroke="#191970" points="698.1795,-112.8612 688.1794,-116.3611 698.1794,-119.8612 698.1795,-112.8612"/>
</g>
<!-- Node263&#45;&gt;Node249 -->
<g id="edge38" class="edge">
<title>Node263&#45;&gt;Node249</title>
<path fill="none" stroke="#191970" d="M564.5347,-122.9526C554.5693,-123.1148 544.236,-123.1525 534.0996,-123.0657"/>
<polygon fill="#191970" stroke="#191970" points="564.8383,-126.4471 574.7628,-122.7384 564.6917,-119.4486 564.8383,-126.4471"/>
</g>
<!-- Node263&#45;&gt;Node250 -->
<g id="edge37" class="edge">
<title>Node263&#45;&gt;Node250</title>
<path fill="none" stroke="#191970" d="M679.8184,-128.4011C701.1234,-133.7099 725.8042,-139.8598 745.7945,-144.841"/>
<polygon fill="#191970" stroke="#191970" points="680.5318,-124.9719 669.9822,-125.9501 678.8392,-131.7642 680.5318,-124.9719"/>
</g>
</g>
</svg>
        <g id="navigator" transform="translate(0 0)" fill="#404254">
                <rect fill="#f2f5e9" fill-opacity="0.5" stroke="#606060" stroke-width=".5" x="0" y="0" width="60" height="60"/>
                <use id="zoomplus" xlink:href="#zoomPlus" x="17" y="9" onmousedown="handleZoom(evt,'in')"/>
                <use id="zoomminus" xlink:href="#zoomMin" x="42" y="9" onmousedown="handleZoom(evt,'out')"/>
                <use id="reset" xlink:href="#resetDef" x="30" y="36" onmousedown="handleReset()"/>
                <g id="arrowUp" xlink:href="#dirArrow" transform="translate(30 24)" onmousedown="handlePan(0,-1)">
                  <use xlink:href="#rim" fill="#404040">
                        <set attributeName="fill" to="#808080" begin="arrowUp.mouseover" end="arrowUp.mouseout"/>
                  </use>
                  <path fill="none" stroke="white" stroke-width="1.5" d="M0,-3.0v7 M-2.5,-0.5L0,-3.0L2.5,-0.5"/>
                </g>
                <g id="arrowRight" xlink:href="#dirArrow" transform="rotate(90) translate(36 -43)" onmousedown="handlePan(1,0)">
                  <use xlink:href="#rim" fill="#404040">
                        <set attributeName="fill" to="#808080" begin="arrowRight.mouseover" end="arrowRight.mouseout"/>
                  </use>
                  <path fill="none" stroke="white" stroke-width="1.5" d="M0,-3.0v7 M-2.5,-0.5L0,-3.0L2.5,-0.5"/>
                </g>
                <g id="arrowDown" xlink:href="#dirArrow" transform="rotate(180) translate(-30 -48)" onmousedown="handlePan(0,1)">
                  <use xlink:href="#rim" fill="#404040">
                        <set attributeName="fill" to="#808080" begin="arrowDown.mouseover" end="arrowDown.mouseout"/>
                  </use>
                  <path fill="none" stroke="white" stroke-width="1.5" d="M0,-3.0v7 M-2.5,-0.5L0,-3.0L2.5,-0.5"/>
                </g>
                <g id="arrowLeft" xlink:href="#dirArrow" transform="rotate(270) translate(-36 17)" onmousedown="handlePan(-1,0)">
                  <use xlink:href="#rim" fill="#404040">
                        <set attributeName="fill" to="#808080" begin="arrowLeft.mouseover" end="arrowLeft.mouseout"/>
                  </use>
                  <path fill="none" stroke="white" stroke-width="1.5" d="M0,-3.0v7 M-2.5,-0.5L0,-3.0L2.5,-0.5"/>
                </g>
        </g>
        <svg viewBox="0 0 15 15" width="100%" height="30px" preserveAspectRatio="xMaxYMin meet">
         <g id="arrow_out" transform="scale(0.3 0.3)">
          <a xlink:href="classMapNode_afb1cbc0f9e987b7befced46220dd9277_icgraph_org.svg" target="_base">
           <rect id="button" ry="5" rx="5" y="6" x="6" height="38" width="38"
                fill="#f2f5e9" fill-opacity="0.5" stroke="#606060" stroke-width="1.0"/>
           <path id="arrow"
             d="M 11.500037,31.436501 C 11.940474,20.09759 22.043105,11.32322 32.158766,21.979434 L 37.068811,17.246167 C 37.068811,17.246167 37.088388,32 37.088388,32 L 22.160133,31.978069 C 22.160133,31.978069 26.997745,27.140456 26.997745,27.140456 C 18.528582,18.264221 13.291696,25.230495 11.500037,31.436501 z"
             style="fill:#404040;"/>
          </a>
         </g>
        </svg>
</svg>
