<?xml version="1.0" encoding="UTF-8" standalone="no"?>
<!DOCTYPE svg PUBLIC "-//W3C//DTD SVG 1.1//EN"
 "http://www.w3.org/Graphics/SVG/1.1/DTD/svg11.dtd">
<!-- Generated by graphviz version 2.40.1 (20161225.0304)
 -->
<!-- Title: Map::decreaseHeight Pages: 1 -->
<svg width="1201pt" height="436pt"
 viewBox="0.00 0.00 1201.00 435.60" xmlns="http://www.w3.org/2000/svg" xmlns:xlink="http://www.w3.org/1999/xlink">
<g id="graph0" class="graph" transform="scale(1 1) rotate(0) translate(4 431.5952)">
<title>Map::decreaseHeight</title>
<!-- Node110 -->
<g id="node1" class="node">
<title>Node110</title>
<polygon fill="#bfbfbf" stroke="#000000" points="0,-158.9874 0,-177.9874 119,-177.9874 119,-158.9874 0,-158.9874"/>
<text text-anchor="middle" x="59.5" y="-165.9874" font-family="Helvetica,sans-Serif" font-size="10.00" fill="#000000">Map::decreaseHeight</text>
</g>
<!-- Node111 -->
<g id="node2" class="node">
<title>Node111</title>
<g id="a_node2"><a xlink:href="classMap.html#ade1eeabf4e539f9dbfe2a96c97fda4e3" target="_top" xlink:title="Map::changeHeight">
<polygon fill="none" stroke="#000000" points="155,-158.9874 155,-177.9874 265,-177.9874 265,-158.9874 155,-158.9874"/>
<text text-anchor="middle" x="210" y="-165.9874" font-family="Helvetica,sans-Serif" font-size="10.00" fill="#000000">Map::changeHeight</text>
</a>
</g>
</g>
<!-- Node110&#45;&gt;Node111 -->
<g id="edge1" class="edge">
<title>Node110&#45;&gt;Node111</title>
<path fill="none" stroke="#191970" d="M119.414,-168.4874C127.6893,-168.4874 136.2231,-168.4874 144.5916,-168.4874"/>
<polygon fill="#191970" stroke="#191970" points="144.6889,-171.9875 154.6889,-168.4874 144.6889,-164.9875 144.6889,-171.9875"/>
</g>
<!-- Node112 -->
<g id="node3" class="node">
<title>Node112</title>
<g id="a_node3"><a xlink:href="classMap.html#a1676db3d125b2c1764adfcb64d6332a2" target="_top" xlink:title="Map::nodeIdx">
<polygon fill="none" stroke="#000000" points="892,-405.9874 892,-424.9874 974,-424.9874 974,-405.9874 892,-405.9874"/>
<text text-anchor="middle" x="933" y="-412.9874" font-family="Helvetica,sans-Serif" font-size="10.00" fill="#000000">Map::nodeIdx</text>
</a>
</g>
</g>
<!-- Node111&#45;&gt;Node112 -->
<g id="edge2" class="edge">
<title>Node111&#45;&gt;Node112</title>
<path fill="none" stroke="#191970" d="M215.8025,-178.2148C228.8775,-199.5297 262.5224,-251.1105 301,-284.4874 358.7589,-334.5896 379.4414,-341.0288 450,-370.4874 600.517,-433.3291 650.0056,-430.5911 813,-424.4874 835.6061,-423.6409 860.5574,-421.9003 881.8257,-420.1734"/>
<polygon fill="#191970" stroke="#191970" points="882.2692,-423.6487 891.9442,-419.3308 881.6882,-416.6729 882.2692,-423.6487"/>
</g>
<!-- Node113 -->
<g id="node4" class="node">
<title>Node113</title>
<g id="a_node4"><a xlink:href="classMap.html#ad360682917f0061dbba995d645c56212" target="_top" xlink:title="Map::getNeighborNodes">
<polygon fill="none" stroke="#000000" points="663,-367.9874 663,-386.9874 797,-386.9874 797,-367.9874 663,-367.9874"/>
<text text-anchor="middle" x="730" y="-374.9874" font-family="Helvetica,sans-Serif" font-size="10.00" fill="#000000">Map::getNeighborNodes</text>
</a>
</g>
</g>
<!-- Node111&#45;&gt;Node113 -->
<g id="edge3" class="edge">
<title>Node111&#45;&gt;Node113</title>
<path fill="none" stroke="#191970" d="M221.629,-178.084C254.924,-205.0426 354.3774,-281.995 450,-320.4874 515.7706,-346.963 595.3733,-361.6426 652.8649,-369.4452"/>
<polygon fill="#191970" stroke="#191970" points="652.602,-372.9408 662.9736,-370.7774 653.5166,-366.0008 652.602,-372.9408"/>
</g>
<!-- Node116 -->
<g id="node7" class="node">
<title>Node116</title>
<g id="a_node7"><a xlink:href="classMap.html#a9751d8dc0c6b2b127400b05994118aba" target="_top" xlink:title="Map::updateHeight">
<polygon fill="none" stroke="#000000" points="675.5,-13.9874 675.5,-32.9874 784.5,-32.9874 784.5,-13.9874 675.5,-13.9874"/>
<text text-anchor="middle" x="730" y="-20.9874" font-family="Helvetica,sans-Serif" font-size="10.00" fill="#000000">Map::updateHeight</text>
</a>
</g>
</g>
<!-- Node111&#45;&gt;Node116 -->
<g id="edge7" class="edge">
<title>Node111&#45;&gt;Node116</title>
<path fill="none" stroke="#191970" d="M213.8853,-158.6674C224.0034,-134.5933 253.712,-72.7668 301,-47.4874 420.6358,16.4679 586.7885,1.6694 672.9956,-12.2671"/>
<polygon fill="#191970" stroke="#191970" points="672.6636,-15.76 683.1039,-13.957 673.8179,-8.8559 672.6636,-15.76"/>
</g>
<!-- Node118 -->
<g id="node9" class="node">
<title>Node118</title>
<g id="a_node9"><a xlink:href="classMap.html#aa8cc2ed983007621bce12dd9d1b8ec5b" target="_top" xlink:title="Demolish a node This function gathers all tiles that should be demolished and invokes the nodes demol...">
<polygon fill="none" stroke="#000000" points="301,-196.9874 301,-215.9874 414,-215.9874 414,-196.9874 301,-196.9874"/>
<text text-anchor="middle" x="357.5" y="-203.9874" font-family="Helvetica,sans-Serif" font-size="10.00" fill="#000000">Map::demolishNode</text>
</a>
</g>
</g>
<!-- Node111&#45;&gt;Node118 -->
<g id="edge9" class="edge">
<title>Node111&#45;&gt;Node118</title>
<path fill="none" stroke="#191970" d="M247.2205,-178.0764C266.5093,-183.0457 290.2584,-189.1641 310.771,-194.4488"/>
<polygon fill="#191970" stroke="#191970" points="309.9902,-197.8618 320.5472,-196.9674 311.7366,-191.0831 309.9902,-197.8618"/>
</g>
<!-- Node123 -->
<g id="node14" class="node">
<title>Node123</title>
<g id="a_node14"><a xlink:href="classMap.html#af1e496c421981fe707890b0ba60cc20f" target="_top" xlink:title="Map::updateNodeNeighbors">
<polygon fill="none" stroke="#000000" points="454.5,-139.9874 454.5,-158.9874 606.5,-158.9874 606.5,-139.9874 454.5,-139.9874"/>
<text text-anchor="middle" x="530.5" y="-146.9874" font-family="Helvetica,sans-Serif" font-size="10.00" fill="#000000">Map::updateNodeNeighbors</text>
</a>
</g>
</g>
<!-- Node111&#45;&gt;Node123 -->
<g id="edge29" class="edge">
<title>Node111&#45;&gt;Node123</title>
<path fill="none" stroke="#191970" d="M265.0959,-165.2212C314.3124,-162.3035 387.2212,-157.9813 444.1754,-154.6049"/>
<polygon fill="#191970" stroke="#191970" points="444.4777,-158.0933 454.2531,-154.0075 444.0634,-151.1055 444.4777,-158.0933"/>
</g>
<!-- Node124 -->
<g id="node15" class="node">
<title>Node124</title>
<g id="a_node15"><a xlink:href="classMapNode.html#a67296a58e167356efbabeaac3226b5d3" target="_top" xlink:title="get iso coordinates of this node gets the iso coordinates of this node ">
<polygon fill="none" stroke="#000000" points="861.5,-95.9874 861.5,-114.9874 1004.5,-114.9874 1004.5,-95.9874 861.5,-95.9874"/>
<text text-anchor="middle" x="933" y="-102.9874" font-family="Helvetica,sans-Serif" font-size="10.00" fill="#000000">MapNode::getCoordinates</text>
</a>
</g>
</g>
<!-- Node111&#45;&gt;Node124 -->
<g id="edge28" class="edge">
<title>Node111&#45;&gt;Node124</title>
<path fill="none" stroke="#191970" d="M239.3804,-158.9723C326.5529,-131.8704 591.4719,-57.6567 813,-80.4874 837.7821,-83.0415 864.9936,-88.4878 887.2299,-93.6469"/>
<polygon fill="#191970" stroke="#191970" points="886.5316,-97.0784 897.0699,-95.9857 888.1503,-90.2681 886.5316,-97.0784"/>
</g>
<!-- Node113&#45;&gt;Node112 -->
<g id="edge6" class="edge">
<title>Node113&#45;&gt;Node112</title>
<path fill="none" stroke="#191970" d="M780.9634,-387.0274C811.7748,-392.795 850.9275,-400.1241 881.7842,-405.9002"/>
<polygon fill="#191970" stroke="#191970" points="881.4333,-409.3952 891.9066,-407.795 882.7213,-402.5148 881.4333,-409.3952"/>
</g>
<!-- Node114 -->
<g id="node5" class="node">
<title>Node114</title>
<g id="a_node5"><a xlink:href="isoMath_8cxx.html#a7fa61c3d8ef446fb1c48dc4838023649" target="_top" xlink:title="Check if given coordinates are within map boundaries Checks if coordinates are within map boundaries...">
<polygon fill="none" stroke="#000000" points="855,-329.9874 855,-348.9874 1011,-348.9874 1011,-329.9874 855,-329.9874"/>
<text text-anchor="middle" x="933" y="-336.9874" font-family="Helvetica,sans-Serif" font-size="10.00" fill="#000000">isPointWithinMapBoundaries</text>
</a>
</g>
</g>
<!-- Node113&#45;&gt;Node114 -->
<g id="edge4" class="edge">
<title>Node113&#45;&gt;Node114</title>
<path fill="none" stroke="#191970" d="M780.9634,-367.9475C808.5941,-362.7752 842.9328,-356.3473 871.9811,-350.9097"/>
<polygon fill="#191970" stroke="#191970" points="872.8303,-354.3116 882.0156,-349.0313 871.5423,-347.4311 872.8303,-354.3116"/>
</g>
<!-- Node115 -->
<g id="node6" class="node">
<title>Node115</title>
<g id="a_node6"><a xlink:href="classSingleton.html#af5cb1e5749949e2b68416cfb8d378044" target="_top" xlink:title="Get an instance of the singleton. ">
<polygon fill="none" stroke="#000000" points="1066.5,-286.4874 1066.5,-316.4874 1179.5,-316.4874 1179.5,-286.4874 1066.5,-286.4874"/>
<text text-anchor="start" x="1074.5" y="-304.4874" font-family="Helvetica,sans-Serif" font-size="10.00" fill="#000000">Singleton&lt; Settings</text>
<text text-anchor="middle" x="1123" y="-293.4874" font-family="Helvetica,sans-Serif" font-size="10.00" fill="#000000"> &gt;::instance</text>
</a>
</g>
</g>
<!-- Node114&#45;&gt;Node115 -->
<g id="edge5" class="edge">
<title>Node114&#45;&gt;Node115</title>
<path fill="none" stroke="#191970" d="M980.945,-329.8984C1003.7476,-325.3379 1031.3891,-319.8096 1056.2063,-314.8461"/>
<polygon fill="#191970" stroke="#191970" points="1057.1639,-318.224 1066.2832,-312.8308 1055.791,-311.36 1057.1639,-318.224"/>
</g>
<!-- Node117 -->
<g id="node8" class="node">
<title>Node117</title>
<g id="a_node8"><a xlink:href="classMapNode.html#a10dded7848621ba007c3d3fc85392e32" target="_top" xlink:title="Change Height Increases or decrease the height of the node and its sprite This function should not be...">
<polygon fill="none" stroke="#000000" points="865,-13.9874 865,-32.9874 1001,-32.9874 1001,-13.9874 865,-13.9874"/>
<text text-anchor="middle" x="933" y="-20.9874" font-family="Helvetica,sans-Serif" font-size="10.00" fill="#000000">MapNode::changeHeight</text>
</a>
</g>
</g>
<!-- Node116&#45;&gt;Node117 -->
<g id="edge8" class="edge">
<title>Node116&#45;&gt;Node117</title>
<path fill="none" stroke="#191970" d="M784.6673,-23.4874C806.1492,-23.4874 831.2159,-23.4874 854.5634,-23.4874"/>
<polygon fill="#191970" stroke="#191970" points="854.7984,-26.9875 864.7984,-23.4874 854.7983,-19.9875 854.7984,-26.9875"/>
</g>
<!-- Node118&#45;&gt;Node112 -->
<g id="edge11" class="edge">
<title>Node118&#45;&gt;Node112</title>
<path fill="none" stroke="#191970" d="M362.9237,-216.1628C375.5049,-237.7926 408.7711,-290.5109 450,-320.4874 582.4155,-416.7634 787.122,-422.1475 881.7773,-418.7591"/>
<polygon fill="#191970" stroke="#191970" points="882.0994,-422.249 891.9488,-418.3454 881.8148,-415.2548 882.0994,-422.249"/>
</g>
<!-- Node118&#45;&gt;Node114 -->
<g id="edge10" class="edge">
<title>Node118&#45;&gt;Node114</title>
<path fill="none" stroke="#191970" d="M366.1263,-216.2089C381.3257,-232.6739 414.6335,-265.8734 450,-282.4874 577.6381,-342.4475 744.3109,-348.4324 844.7601,-345.3483"/>
<polygon fill="#191970" stroke="#191970" points="844.9972,-348.8423 854.8708,-345.0003 844.7563,-341.8465 844.9972,-348.8423"/>
</g>
<!-- Node119 -->
<g id="node10" class="node">
<title>Node119</title>
<g id="a_node10"><a xlink:href="classMapNode.html#a6b57e4355d0780fb37c34d63bbcdfdf9" target="_top" xlink:title="MapNode::getMapNodeDataFor\lLayer">
<polygon fill="none" stroke="#000000" points="849,-204.4874 849,-234.4874 1017,-234.4874 1017,-204.4874 849,-204.4874"/>
<text text-anchor="start" x="857" y="-222.4874" font-family="Helvetica,sans-Serif" font-size="10.00" fill="#000000">MapNode::getMapNodeDataFor</text>
<text text-anchor="middle" x="933" y="-211.4874" font-family="Helvetica,sans-Serif" font-size="10.00" fill="#000000">Layer</text>
</a>
</g>
</g>
<!-- Node118&#45;&gt;Node119 -->
<g id="edge12" class="edge">
<title>Node118&#45;&gt;Node119</title>
<path fill="none" stroke="#191970" d="M414.2562,-207.7695C513.1761,-210.004 718.1003,-214.633 838.6667,-217.3565"/>
<polygon fill="#191970" stroke="#191970" points="838.9124,-220.8629 848.9889,-217.5897 839.0706,-213.8646 838.9124,-220.8629"/>
</g>
<!-- Node120 -->
<g id="node11" class="node">
<title>Node120</title>
<g id="a_node11"><a xlink:href="classMapNode.html#ad74bb8fd5b519f5e909f0e807960a918" target="_top" xlink:title="MapNode::getOrigCornerPoint">
<polygon fill="none" stroke="#000000" points="450,-177.9874 450,-196.9874 611,-196.9874 611,-177.9874 450,-177.9874"/>
<text text-anchor="middle" x="530.5" y="-184.9874" font-family="Helvetica,sans-Serif" font-size="10.00" fill="#000000">MapNode::getOrigCornerPoint</text>
</a>
</g>
</g>
<!-- Node118&#45;&gt;Node120 -->
<g id="edge13" class="edge">
<title>Node118&#45;&gt;Node120</title>
<path fill="none" stroke="#191970" d="M414.1467,-200.2661C422.3627,-199.3638 430.9883,-198.4164 439.6722,-197.4627"/>
<polygon fill="#191970" stroke="#191970" points="440.314,-200.9134 449.8721,-196.3425 439.5498,-193.9552 440.314,-200.9134"/>
</g>
<!-- Node121 -->
<g id="node12" class="node">
<title>Node121</title>
<g id="a_node12"><a xlink:href="classMap.html#a3952b445c55efce61c1ccac6f362fe89" target="_top" xlink:title="Return vector of Points of an Object Tiles selection. ">
<polygon fill="none" stroke="#000000" points="468.5,-253.9874 468.5,-272.9874 592.5,-272.9874 592.5,-253.9874 468.5,-253.9874"/>
<text text-anchor="middle" x="530.5" y="-260.9874" font-family="Helvetica,sans-Serif" font-size="10.00" fill="#000000">Map::getObjectCoords</text>
</a>
</g>
</g>
<!-- Node118&#45;&gt;Node121 -->
<g id="edge14" class="edge">
<title>Node118&#45;&gt;Node121</title>
<path fill="none" stroke="#191970" d="M383.2907,-216.1016C401.7757,-222.8909 427.313,-232.0644 450,-239.4874 462.0197,-243.4202 475.1334,-247.4425 487.2207,-251.0424"/>
<polygon fill="#191970" stroke="#191970" points="486.5042,-254.4802 497.086,-253.9557 488.4868,-247.7668 486.5042,-254.4802"/>
</g>
<!-- Node118&#45;&gt;Node123 -->
<g id="edge17" class="edge">
<title>Node118&#45;&gt;Node123</title>
<path fill="none" stroke="#191970" d="M366.512,-196.9034C381.3851,-186.6345 412.3282,-172.4197 444.5734,-161.3622"/>
<polygon fill="#191970" stroke="#191970" points="445.7568,-164.6573 454.1463,-158.1868 443.5528,-158.0132 445.7568,-164.6573"/>
</g>
<!-- Node121&#45;&gt;Node115 -->
<g id="edge15" class="edge">
<title>Node121&#45;&gt;Node115</title>
<path fill="none" stroke="#191970" d="M592.5093,-267.4644C704.709,-274.6603 940.4847,-289.7818 1056.1416,-297.1994"/>
<polygon fill="#191970" stroke="#191970" points="1056.075,-300.7023 1066.2786,-297.8496 1056.5231,-293.7166 1056.075,-300.7023"/>
</g>
<!-- Node122 -->
<g id="node13" class="node">
<title>Node122</title>
<g id="a_node13"><a xlink:href="classTileManager.html#a8ee071ff8b24926288437d310f9bc714" target="_top" xlink:title="TileManager::getTileData">
<polygon fill="none" stroke="#000000" points="660,-291.9874 660,-310.9874 800,-310.9874 800,-291.9874 660,-291.9874"/>
<text text-anchor="middle" x="730" y="-298.9874" font-family="Helvetica,sans-Serif" font-size="10.00" fill="#000000">TileManager::getTileData</text>
</a>
</g>
</g>
<!-- Node121&#45;&gt;Node122 -->
<g id="edge16" class="edge">
<title>Node121&#45;&gt;Node122</title>
<path fill="none" stroke="#191970" d="M580.5848,-273.0274C607.739,-278.1996 641.4857,-284.6275 670.0332,-290.0652"/>
<polygon fill="#191970" stroke="#191970" points="669.4163,-293.5105 679.8946,-291.9435 670.7262,-286.6341 669.4163,-293.5105"/>
</g>
<!-- Node123&#45;&gt;Node113 -->
<g id="edge18" class="edge">
<title>Node123&#45;&gt;Node113</title>
<path fill="none" stroke="#191970" d="M598.1899,-159.1664C602.8881,-161.6651 607.2416,-164.7319 611,-168.4874 660.1095,-217.5589 607.7548,-263.2199 647,-320.4874 659.8746,-339.2744 681.1432,-353.7027 698.9268,-363.3426"/>
<polygon fill="#191970" stroke="#191970" points="697.3543,-366.4697 707.8459,-367.945 700.5643,-360.249 697.3543,-366.4697"/>
</g>
<!-- Node123&#45;&gt;Node116 -->
<g id="edge19" class="edge">
<title>Node123&#45;&gt;Node116</title>
<path fill="none" stroke="#191970" d="M545.8232,-139.8096C580.432,-117.9514 664.8469,-64.6367 706.2757,-38.4712"/>
<polygon fill="#191970" stroke="#191970" points="708.3118,-41.3249 714.8977,-33.0257 704.5738,-35.4065 708.3118,-41.3249"/>
</g>
<!-- Node123&#45;&gt;Node118 -->
<g id="edge23" class="edge">
<title>Node123&#45;&gt;Node118</title>
<path fill="none" stroke="#191970" d="M515.1704,-159.0309C498.827,-164.584 472.285,-170.3296 450,-177.4874 435.6296,-182.1031 420.3517,-187.9663 406.44,-193.3449"/>
<polygon fill="#191970" stroke="#191970" points="405.1223,-190.1018 397.0551,-196.9698 407.6445,-196.6316 405.1223,-190.1018"/>
</g>
<!-- Node123&#45;&gt;Node124 -->
<g id="edge20" class="edge">
<title>Node123&#45;&gt;Node124</title>
<path fill="none" stroke="#191970" d="M606.605,-146.7151C663.6181,-144.0048 743.4424,-138.8669 813,-129.4874 835.9026,-126.3991 861.0072,-121.6023 882.3077,-117.1065"/>
<polygon fill="#191970" stroke="#191970" points="883.0749,-120.5216 892.1178,-115.0011 881.606,-113.6775 883.0749,-120.5216"/>
</g>
<!-- Node125 -->
<g id="node16" class="node">
<title>Node125</title>
<g id="a_node16"><a xlink:href="classMap.html#a769a53961d4a0dd34ee080d2da8c171e" target="_top" xlink:title="Map::getElevatedNeighbor\lBitmask">
<polygon fill="none" stroke="#000000" points="657,-90.4874 657,-120.4874 803,-120.4874 803,-90.4874 657,-90.4874"/>
<text text-anchor="start" x="665" y="-108.4874" font-family="Helvetica,sans-Serif" font-size="10.00" fill="#000000">Map::getElevatedNeighbor</text>
<text text-anchor="middle" x="730" y="-97.4874" font-family="Helvetica,sans-Serif" font-size="10.00" fill="#000000">Bitmask</text>
</a>
</g>
</g>
<!-- Node123&#45;&gt;Node125 -->
<g id="edge21" class="edge">
<title>Node123&#45;&gt;Node125</title>
<path fill="none" stroke="#191970" d="M573.7885,-139.9401C596.5507,-134.9198 625.1615,-128.6097 651.6576,-122.7659"/>
<polygon fill="#191970" stroke="#191970" points="652.6808,-126.1245 661.6923,-120.5528 651.1731,-119.2887 652.6808,-126.1245"/>
</g>
<!-- Node126 -->
<g id="node17" class="node">
<title>Node126</title>
<g id="a_node17"><a xlink:href="classMap.html#af192be95053d30ea6c6d9327106bf6d8" target="_top" xlink:title="Get a bitmask that represents same&#45;tile neighbors Checks all neighboring tiles and returns the elevat...">
<polygon fill="none" stroke="#000000" points="647,-177.9874 647,-196.9874 813,-196.9874 813,-177.9874 647,-177.9874"/>
<text text-anchor="middle" x="730" y="-184.9874" font-family="Helvetica,sans-Serif" font-size="10.00" fill="#000000">Map::calculateAutotileBitmask</text>
</a>
</g>
</g>
<!-- Node123&#45;&gt;Node126 -->
<g id="edge24" class="edge">
<title>Node123&#45;&gt;Node126</title>
<path fill="none" stroke="#191970" d="M580.5848,-159.0274C607.739,-164.1996 641.4857,-170.6275 670.0332,-176.0652"/>
<polygon fill="#191970" stroke="#191970" points="669.4163,-179.5105 679.8946,-177.9435 670.7262,-172.6341 669.4163,-179.5105"/>
</g>
<!-- Node125&#45;&gt;Node124 -->
<g id="edge22" class="edge">
<title>Node125&#45;&gt;Node124</title>
<path fill="none" stroke="#191970" d="M803.0009,-105.4874C818.5725,-105.4874 835.118,-105.4874 851.0014,-105.4874"/>
<polygon fill="#191970" stroke="#191970" points="851.3266,-108.9875 861.3266,-105.4874 851.3266,-101.9875 851.3266,-108.9875"/>
</g>
<!-- Node126&#45;&gt;Node119 -->
<g id="edge25" class="edge">
<title>Node126&#45;&gt;Node119</title>
<path fill="none" stroke="#191970" d="M790.3571,-197.0018C805.5524,-199.3971 822.2285,-202.0259 838.6536,-204.6151"/>
<polygon fill="#191970" stroke="#191970" points="838.4096,-208.1198 848.8327,-206.2197 839.4997,-201.2051 838.4096,-208.1198"/>
</g>
<!-- Node127 -->
<g id="node18" class="node">
<title>Node127</title>
<g id="a_node18"><a xlink:href="classMapNode.html#afb1cbc0f9e987b7befced46220dd9277" target="_top" xlink:title="check if specific layer can be autotiled. ">
<polygon fill="none" stroke="#000000" points="861,-165.9874 861,-184.9874 1005,-184.9874 1005,-165.9874 861,-165.9874"/>
<text text-anchor="middle" x="933" y="-172.9874" font-family="Helvetica,sans-Serif" font-size="10.00" fill="#000000">MapNode::isLayerAutoTile</text>
</a>
</g>
</g>
<!-- Node126&#45;&gt;Node127 -->
<g id="edge26" class="edge">
<title>Node126&#45;&gt;Node127</title>
<path fill="none" stroke="#191970" d="M813.1536,-182.5719C825.4717,-181.8438 838.1628,-181.0936 850.4681,-180.3661"/>
<polygon fill="#191970" stroke="#191970" points="850.9213,-183.8456 860.6973,-179.7615 850.5081,-176.8578 850.9213,-183.8456"/>
</g>
<!-- Node128 -->
<g id="node19" class="node">
<title>Node128</title>
<g id="a_node19"><a xlink:href="classMapNode.html#a64cb9a4523c9e78f256fde42f1dee43d" target="_top" xlink:title="check if specific Tile Data is autotile category. ">
<polygon fill="none" stroke="#000000" points="1053,-165.9874 1053,-184.9874 1193,-184.9874 1193,-165.9874 1053,-165.9874"/>
<text text-anchor="middle" x="1123" y="-172.9874" font-family="Helvetica,sans-Serif" font-size="10.00" fill="#000000">MapNode::isDataAutoTile</text>
</a>
</g>
</g>
<!-- Node127&#45;&gt;Node128 -->
<g id="edge27" class="edge">
<title>Node127&#45;&gt;Node128</title>
<path fill="none" stroke="#191970" d="M1005.1018,-175.4874C1017.3221,-175.4874 1030.0799,-175.4874 1042.4991,-175.4874"/>
<polygon fill="#191970" stroke="#191970" points="1042.8325,-178.9875 1052.8324,-175.4874 1042.8324,-171.9875 1042.8325,-178.9875"/>
</g>
</g>
</svg>
