<?xml version="1.0" encoding="UTF-8" standalone="no"?>
<!DOCTYPE svg PUBLIC "-//W3C//DTD SVG 1.1//EN"
 "http://www.w3.org/Graphics/SVG/1.1/DTD/svg11.dtd">
<!-- Generated by graphviz version 2.40.1 (20161225.0304)
 -->
<!-- Title: Engine::loadGame Pages: 1 -->
<!--zoomable 476 -->
<svg id="main" version="1.1" xmlns="http://www.w3.org/2000/svg" xmlns:xlink="http://www.w3.org/1999/xlink" xml:space="preserve" onload="init(evt)">
<style type="text/css"><![CDATA[
.edge:hover path { stroke: red; }
.edge:hover polygon { stroke: red; fill: red; }
]]></style>
<script type="text/javascript"><![CDATA[
var edges = document.getElementsByTagName('g');
if (edges && edges.length) {
  for (var i=0;i<edges.length;i++) {
    if (edges[i].id.substr(0,4)=='edge') {
      edges[i].setAttribute('class','edge');
    }
  }
}
]]></script>
        <defs>
                <circle id="rim" cx="0" cy="0" r="7"/>
                <circle id="rim2" cx="0" cy="0" r="3.5"/>
                <g id="zoomPlus">
                        <use xlink:href="#rim" fill="#404040">
                                <set attributeName="fill" to="#808080" begin="zoomplus.mouseover" end="zoomplus.mouseout"/>
                        </use>
                        <path d="M-4,0h8M0,-4v8" fill="none" stroke="white" stroke-width="1.5" pointer-events="none"/>
                </g>
                <g id="zoomMin">
                        <use xlink:href="#rim" fill="#404040">
                                <set attributeName="fill" to="#808080" begin="zoomminus.mouseover" end="zoomminus.mouseout"/>
                        </use>
                        <path d="M-4,0h8" fill="none" stroke="white" stroke-width="1.5" pointer-events="none"/>
                </g>
                <g id="dirArrow">
                        <path fill="none" stroke="white" stroke-width="1.5" d="M0,-3.0v7 M-2.5,-0.5L0,-3.0L2.5,-0.5"/>
                </g>
               <g id="resetDef">
                       <use xlink:href="#rim2" fill="#404040">
                               <set attributeName="fill" to="#808080" begin="reset.mouseover" end="reset.mouseout"/>
                       </use>
               </g>
        </defs>

<script type="text/javascript">
var viewWidth = 1375;
var viewHeight = 476;
var sectionId = 'dynsection-7';
</script>
<script xlink:href="svgpan.js"/>
<svg id="graph" class="graph">
<g id="viewport">
<title>Engine::loadGame</title>
<!-- Node61 -->
<g id="node1" class="node">
<title>Node61</title>
<polygon fill="#bfbfbf" stroke="#000000" points="0,-388 0,-407 106,-407 106,-388 0,-388"/>
<text text-anchor="middle" x="53" y="-395" font-family="Helvetica,sans-Serif" font-size="10.00" fill="#000000">Engine::loadGame</text>
</g>
<!-- Node62 -->
<g id="node2" class="node">
<title>Node62</title>
<g id="a_node2"><a xlink:href="classMap.html#afefe996cc1f62b61ec60d0ae415953bf" target="_top" xlink:title="Map::loadMapFromFile">
<polygon fill="none" stroke="#000000" points="142,-388 142,-407 267,-407 267,-388 142,-388"/>
<text text-anchor="middle" x="204.5" y="-395" font-family="Helvetica,sans-Serif" font-size="10.00" fill="#000000">Map::loadMapFromFile</text>
</a>
</g>
</g>
<!-- Node61&#45;&gt;Node62 -->
<g id="edge1" class="edge">
<title>Node61&#45;&gt;Node62</title>
<path fill="none" stroke="#191970" d="M106.4132,-397.5C114.6794,-397.5 123.3353,-397.5 131.9364,-397.5"/>
<polygon fill="#191970" stroke="#191970" points="131.9814,-401.0001 141.9814,-397.5 131.9814,-394.0001 131.9814,-401.0001"/>
</g>
<!-- Node63 -->
<g id="node3" class="node">
<title>Node63</title>
<g id="a_node3"><a xlink:href="compression_8hxx.html#a25f341059256700f2f3ffd62d8113956" target="_top" xlink:title="decompresses given string Decompresses a given string. ">
<polygon fill="none" stroke="#000000" points="303,-448 303,-467 407,-467 407,-448 303,-448"/>
<text text-anchor="middle" x="355" y="-455" font-family="Helvetica,sans-Serif" font-size="10.00" fill="#000000">decompressString</text>
</a>
</g>
</g>
<!-- Node62&#45;&gt;Node63 -->
<g id="edge2" class="edge">
<title>Node62&#45;&gt;Node63</title>
<path fill="none" stroke="#191970" d="M228.3472,-407.0072C253.4075,-416.998 293.0372,-432.7972 321.2898,-444.0607"/>
<polygon fill="#191970" stroke="#191970" points="320.1809,-447.3865 330.766,-447.8386 322.7732,-440.8841 320.1809,-447.3865"/>
</g>
<!-- Node64 -->
<g id="node4" class="node">
<title>Node64</title>
<g id="a_node4"><a xlink:href="namespacefs.html#a69aff598da647e46953ebeb1e255963b" target="_top" xlink:title="fs::readFileAsString">
<polygon fill="none" stroke="#000000" points="849,-388 849,-407 959,-407 959,-388 849,-388"/>
<text text-anchor="middle" x="904" y="-395" font-family="Helvetica,sans-Serif" font-size="10.00" fill="#000000">fs::readFileAsString</text>
</a>
</g>
</g>
<!-- Node62&#45;&gt;Node64 -->
<g id="edge3" class="edge">
<title>Node62&#45;&gt;Node64</title>
<path fill="none" stroke="#191970" d="M267.2111,-398.554C373.6686,-400.1795 596.5515,-402.875 785,-400.5 802.4471,-400.2801 821.3296,-399.879 838.8031,-399.44"/>
<polygon fill="#191970" stroke="#191970" points="839.0008,-402.9362 848.9068,-399.1783 838.8195,-395.9385 839.0008,-402.9362"/>
</g>
<!-- Node65 -->
<g id="node5" class="node">
<title>Node65</title>
<g id="a_node5"><a xlink:href="classMap.html#a26eceeccd7b6ed693909b1927a25c67a" target="_top" xlink:title="Map::Map">
<polygon fill="none" stroke="#000000" points="323.5,-344 323.5,-363 386.5,-363 386.5,-344 323.5,-344"/>
<text text-anchor="middle" x="355" y="-351" font-family="Helvetica,sans-Serif" font-size="10.00" fill="#000000">Map::Map</text>
</a>
</g>
</g>
<!-- Node62&#45;&gt;Node65 -->
<g id="edge4" class="edge">
<title>Node62&#45;&gt;Node65</title>
<path fill="none" stroke="#191970" d="M237.1563,-387.9527C259.6472,-381.3772 289.7074,-372.5889 313.8379,-365.5341"/>
<polygon fill="#191970" stroke="#191970" points="314.8228,-368.8928 323.4388,-362.7272 312.8584,-362.174 314.8228,-368.8928"/>
</g>
<!-- Node70 -->
<g id="node10" class="node">
<title>Node70</title>
<g id="a_node10"><a xlink:href="classMap.html#a481b37ba71ef0e51e836fc42805762dd" target="_top" xlink:title="Update all mapNodes Updates all mapNode and its adjacent tiles regarding height information, draws slopes for adjacent tiles and sets tiling for mapNode sprite if applicable. ">
<polygon fill="none" stroke="#000000" points="457,-284 457,-303 577,-303 577,-284 457,-284"/>
<text text-anchor="middle" x="517" y="-291" font-family="Helvetica,sans-Serif" font-size="10.00" fill="#000000">Map::updateAllNodes</text>
</a>
</g>
</g>
<!-- Node62&#45;&gt;Node70 -->
<g id="edge34" class="edge">
<title>Node62&#45;&gt;Node70</title>
<path fill="none" stroke="#191970" d="M216.1205,-387.9482C233.7612,-373.9618 268.8678,-348.0996 303,-334.5 349.035,-316.1578 403.9923,-305.8517 446.6864,-300.1602"/>
<polygon fill="#191970" stroke="#191970" points="447.2321,-303.619 456.7073,-298.8785 446.344,-296.6755 447.2321,-303.619"/>
</g>
<!-- Node66 -->
<g id="node6" class="node">
<title>Node66</title>
<g id="a_node6"><a xlink:href="classMapLayers.html#a5db6ba7e194ada6a4d0334d0428ff89b" target="_top" xlink:title="Enable drawing layers. ">
<polygon fill="none" stroke="#000000" points="447,-322 447,-341 587,-341 587,-322 447,-322"/>
<text text-anchor="middle" x="517" y="-329" font-family="Helvetica,sans-Serif" font-size="10.00" fill="#000000">MapLayers::enableLayers</text>
</a>
</g>
</g>
<!-- Node65&#45;&gt;Node66 -->
<g id="edge5" class="edge">
<title>Node65&#45;&gt;Node66</title>
<path fill="none" stroke="#191970" d="M386.6198,-349.206C401.1483,-347.2329 419.1042,-344.7945 436.9953,-342.3648"/>
<polygon fill="#191970" stroke="#191970" points="437.4679,-345.8329 446.906,-341.0189 436.5259,-338.8965 437.4679,-345.8329"/>
</g>
<!-- Node67 -->
<g id="node7" class="node">
<title>Node67</title>
<g id="a_node7"><a xlink:href="classTerrainGenerator.html#afd2668a80a6f5043d2b8d6c7a5044ede" target="_top" xlink:title="TerrainGenerator::generate\lTerrain">
<polygon fill="none" stroke="#000000" points="443,-360.5 443,-390.5 591,-390.5 591,-360.5 443,-360.5"/>
<text text-anchor="start" x="451" y="-378.5" font-family="Helvetica,sans-Serif" font-size="10.00" fill="#000000">TerrainGenerator::generate</text>
<text text-anchor="middle" x="517" y="-367.5" font-family="Helvetica,sans-Serif" font-size="10.00" fill="#000000">Terrain</text>
</a>
</g>
</g>
<!-- Node65&#45;&gt;Node67 -->
<g id="edge6" class="edge">
<title>Node65&#45;&gt;Node67</title>
<path fill="none" stroke="#191970" d="M386.6198,-357.794C399.9642,-359.6063 416.2001,-361.8111 432.6214,-364.0412"/>
<polygon fill="#191970" stroke="#191970" points="432.4658,-367.5521 442.8458,-365.4297 433.4078,-360.6158 432.4658,-367.5521"/>
</g>
<!-- Node65&#45;&gt;Node70 -->
<g id="edge10" class="edge">
<title>Node65&#45;&gt;Node70</title>
<path fill="none" stroke="#191970" d="M375.7684,-343.9651C385.2941,-339.5788 396.7293,-334.2951 407,-329.5 423.033,-322.0147 426.3559,-318.505 443,-312.5 449.7764,-310.0551 457.0083,-307.7925 464.1974,-305.7447"/>
<polygon fill="#191970" stroke="#191970" points="465.2021,-309.0986 473.9274,-303.0886 463.3586,-302.3457 465.2021,-309.0986"/>
</g>
<!-- Node68 -->
<g id="node8" class="node">
<title>Node68</title>
<g id="a_node8"><a xlink:href="classTerrainGenerator.html#ac94cfaeb9dc89453018399361da5174a" target="_top" xlink:title="TerrainGenerator::loadTerrain\lDataFromJSON">
<polygon fill="none" stroke="#000000" points="627,-360.5 627,-390.5 785,-390.5 785,-360.5 627,-360.5"/>
<text text-anchor="start" x="635" y="-378.5" font-family="Helvetica,sans-Serif" font-size="10.00" fill="#000000">TerrainGenerator::loadTerrain</text>
<text text-anchor="middle" x="706" y="-367.5" font-family="Helvetica,sans-Serif" font-size="10.00" fill="#000000">DataFromJSON</text>
</a>
</g>
</g>
<!-- Node67&#45;&gt;Node68 -->
<g id="edge7" class="edge">
<title>Node67&#45;&gt;Node68</title>
<path fill="none" stroke="#191970" d="M591.1554,-375.5C599.5547,-375.5 608.1792,-375.5 616.7461,-375.5"/>
<polygon fill="#191970" stroke="#191970" points="616.7594,-379.0001 626.7593,-375.5 616.7593,-372.0001 616.7594,-379.0001"/>
</g>
<!-- Node69 -->
<g id="node9" class="node">
<title>Node69</title>
<g id="a_node9"><a xlink:href="classSingleton.html#af5cb1e5749949e2b68416cfb8d378044" target="_top" xlink:title="Get an instance of the singleton. ">
<polygon fill="none" stroke="#000000" points="1240.5,-240.5 1240.5,-270.5 1353.5,-270.5 1353.5,-240.5 1240.5,-240.5"/>
<text text-anchor="start" x="1248.5" y="-258.5" font-family="Helvetica,sans-Serif" font-size="10.00" fill="#000000">Singleton&lt; Settings</text>
<text text-anchor="middle" x="1297" y="-247.5" font-family="Helvetica,sans-Serif" font-size="10.00" fill="#000000"> &gt;::instance</text>
</a>
</g>
</g>
<!-- Node67&#45;&gt;Node69 -->
<g id="edge9" class="edge">
<title>Node67&#45;&gt;Node69</title>
<path fill="none" stroke="#191970" d="M578.3817,-360.4519C594.1448,-357.0444 611.133,-353.7672 627,-351.5 875.7388,-315.9582 949.6043,-382.2304 1191,-312.5 1218.2787,-304.6202 1246.465,-289.0449 1266.909,-276.1643"/>
<polygon fill="#191970" stroke="#191970" points="1268.9416,-279.0182 1275.4483,-270.6567 1265.1475,-273.1356 1268.9416,-279.0182"/>
</g>
<!-- Node68&#45;&gt;Node64 -->
<g id="edge8" class="edge">
<title>Node68&#45;&gt;Node64</title>
<path fill="none" stroke="#191970" d="M785.1085,-384.2898C802.7706,-386.2523 821.3137,-388.3126 838.3621,-390.2069"/>
<polygon fill="#191970" stroke="#191970" points="838.4373,-393.7367 848.7627,-391.3625 839.2104,-386.7795 838.4373,-393.7367"/>
</g>
<!-- Node71 -->
<g id="node11" class="node">
<title>Node71</title>
<g id="a_node11"><a xlink:href="classMap.html#af1e496c421981fe707890b0ba60cc20f" target="_top" xlink:title="Map::updateNodeNeighbors">
<polygon fill="none" stroke="#000000" points="630,-148 630,-167 782,-167 782,-148 630,-148"/>
<text text-anchor="middle" x="706" y="-155" font-family="Helvetica,sans-Serif" font-size="10.00" fill="#000000">Map::updateNodeNeighbors</text>
</a>
</g>
</g>
<!-- Node70&#45;&gt;Node71 -->
<g id="edge11" class="edge">
<title>Node70&#45;&gt;Node71</title>
<path fill="none" stroke="#191970" d="M530.2901,-283.9367C562.5521,-260.7217 645.2428,-201.2195 684.5831,-172.9111"/>
<polygon fill="#191970" stroke="#191970" points="686.6519,-175.7345 692.7246,-167.0527 682.5633,-170.0526 686.6519,-175.7345"/>
</g>
<!-- Node72 -->
<g id="node12" class="node">
<title>Node72</title>
<g id="a_node12"><a xlink:href="classMap.html#ad360682917f0061dbba995d645c56212" target="_top" xlink:title="Map::getNeighborNodes">
<polygon fill="none" stroke="#000000" points="837,-246 837,-265 971,-265 971,-246 837,-246"/>
<text text-anchor="middle" x="904" y="-253" font-family="Helvetica,sans-Serif" font-size="10.00" fill="#000000">Map::getNeighborNodes</text>
</a>
</g>
</g>
<!-- Node71&#45;&gt;Node72 -->
<g id="edge12" class="edge">
<title>Node71&#45;&gt;Node72</title>
<path fill="none" stroke="#191970" d="M725.3456,-167.0751C760.3892,-184.4199 834.5224,-221.1121 875.4183,-241.3535"/>
<polygon fill="#191970" stroke="#191970" points="874.061,-244.5869 884.5759,-245.886 877.1662,-238.3133 874.061,-244.5869"/>
</g>
<!-- Node75 -->
<g id="node15" class="node">
<title>Node75</title>
<g id="a_node15"><a xlink:href="classMap.html#a9751d8dc0c6b2b127400b05994118aba" target="_top" xlink:title="Map::updateHeight">
<polygon fill="none" stroke="#000000" points="849.5,-88 849.5,-107 958.5,-107 958.5,-88 849.5,-88"/>
<text text-anchor="middle" x="904" y="-95" font-family="Helvetica,sans-Serif" font-size="10.00" fill="#000000">Map::updateHeight</text>
</a>
</g>
</g>
<!-- Node71&#45;&gt;Node75 -->
<g id="edge16" class="edge">
<title>Node71&#45;&gt;Node75</title>
<path fill="none" stroke="#191970" d="M730.4026,-147.8569C753.4963,-138.9571 789.2562,-125.7573 821,-116.5 829.558,-114.0043 838.6899,-111.63 847.6503,-109.4585"/>
<polygon fill="#191970" stroke="#191970" points="848.7257,-112.8009 857.6543,-107.0973 847.1177,-105.9881 848.7257,-112.8009"/>
</g>
<!-- Node77 -->
<g id="node17" class="node">
<title>Node77</title>
<g id="a_node17"><a xlink:href="classMapNode.html#a67296a58e167356efbabeaac3226b5d3" target="_top" xlink:title="get iso coordinates of this node gets the iso coordinates of this node ">
<polygon fill="none" stroke="#000000" points="1035.5,-6 1035.5,-25 1178.5,-25 1178.5,-6 1035.5,-6"/>
<text text-anchor="middle" x="1107" y="-13" font-family="Helvetica,sans-Serif" font-size="10.00" fill="#000000">MapNode::getCoordinates</text>
</a>
</g>
</g>
<!-- Node71&#45;&gt;Node77 -->
<g id="edge18" class="edge">
<title>Node71&#45;&gt;Node77</title>
<path fill="none" stroke="#191970" d="M716.8781,-147.8431C736.3351,-131.0977 779.0025,-96.7219 821,-78.5 841.7288,-69.5062 971.5791,-42.6244 1049.0057,-27.0345"/>
<polygon fill="#191970" stroke="#191970" points="1049.9885,-30.4071 1059.103,-25.0056 1048.6094,-23.5443 1049.9885,-30.4071"/>
</g>
<!-- Node78 -->
<g id="node18" class="node">
<title>Node78</title>
<g id="a_node18"><a xlink:href="classMap.html#a769a53961d4a0dd34ee080d2da8c171e" target="_top" xlink:title="Map::getElevatedNeighbor\lBitmask">
<polygon fill="none" stroke="#000000" points="831,-.5 831,-30.5 977,-30.5 977,-.5 831,-.5"/>
<text text-anchor="start" x="839" y="-18.5" font-family="Helvetica,sans-Serif" font-size="10.00" fill="#000000">Map::getElevatedNeighbor</text>
<text text-anchor="middle" x="904" y="-7.5" font-family="Helvetica,sans-Serif" font-size="10.00" fill="#000000">Bitmask</text>
</a>
</g>
</g>
<!-- Node71&#45;&gt;Node78 -->
<g id="edge19" class="edge">
<title>Node71&#45;&gt;Node78</title>
<path fill="none" stroke="#191970" d="M713.5742,-147.6931C730.5786,-126.2859 773.9968,-74.9365 821,-45.5 827.574,-41.3829 834.7938,-37.721 842.1469,-34.4952"/>
<polygon fill="#191970" stroke="#191970" points="843.5829,-37.689 851.4935,-30.641 840.9143,-31.2176 843.5829,-37.689"/>
</g>
<!-- Node79 -->
<g id="node19" class="node">
<title>Node79</title>
<g id="a_node19"><a xlink:href="classMap.html#aa8cc2ed983007621bce12dd9d1b8ec5b" target="_top" xlink:title="Demolish a node This function gathers all tiles that should be demolished and invokes the nodes demol...">
<polygon fill="none" stroke="#000000" points="847.5,-170 847.5,-189 960.5,-189 960.5,-170 847.5,-170"/>
<text text-anchor="middle" x="904" y="-177" font-family="Helvetica,sans-Serif" font-size="10.00" fill="#000000">Map::demolishNode</text>
</a>
</g>
</g>
<!-- Node71&#45;&gt;Node79 -->
<g id="edge21" class="edge">
<title>Node71&#45;&gt;Node79</title>
<path fill="none" stroke="#191970" d="M782.2687,-159.385C807.4927,-161.8252 834.7977,-165.1098 857.1432,-168.4563"/>
<polygon fill="#191970" stroke="#191970" points="856.6165,-171.9164 867.0357,-169.9955 857.6927,-164.9996 856.6165,-171.9164"/>
</g>
<!-- Node84 -->
<g id="node24" class="node">
<title>Node84</title>
<g id="a_node24"><a xlink:href="classMap.html#af192be95053d30ea6c6d9327106bf6d8" target="_top" xlink:title="Get a bitmask that represents same&#45;tile neighbors Checks all neighboring tiles and returns the elevat...">
<polygon fill="none" stroke="#000000" points="821,-126 821,-145 987,-145 987,-126 821,-126"/>
<text text-anchor="middle" x="904" y="-133" font-family="Helvetica,sans-Serif" font-size="10.00" fill="#000000">Map::calculateAutotileBitmask</text>
</a>
</g>
</g>
<!-- Node71&#45;&gt;Node84 -->
<g id="edge30" class="edge">
<title>Node71&#45;&gt;Node84</title>
<path fill="none" stroke="#191970" d="M782.2687,-149.0257C791.6478,-147.9836 801.3146,-146.9095 810.9072,-145.8436"/>
<polygon fill="#191970" stroke="#191970" points="811.3094,-149.3206 820.8617,-144.7376 810.5363,-142.3634 811.3094,-149.3206"/>
</g>
<!-- Node73 -->
<g id="node13" class="node">
<title>Node73</title>
<g id="a_node13"><a xlink:href="isoMath_8cxx.html#a7fa61c3d8ef446fb1c48dc4838023649" target="_top" xlink:title="Check if given coordinates are within map boundaries Checks if coordinates are within map boundaries...">
<polygon fill="none" stroke="#000000" points="1029,-246 1029,-265 1185,-265 1185,-246 1029,-246"/>
<text text-anchor="middle" x="1107" y="-253" font-family="Helvetica,sans-Serif" font-size="10.00" fill="#000000">isPointWithinMapBoundaries</text>
</a>
</g>
</g>
<!-- Node72&#45;&gt;Node73 -->
<g id="edge13" class="edge">
<title>Node72&#45;&gt;Node73</title>
<path fill="none" stroke="#191970" d="M971.0324,-255.5C986.1901,-255.5 1002.5115,-255.5 1018.4039,-255.5"/>
<polygon fill="#191970" stroke="#191970" points="1018.769,-259.0001 1028.769,-255.5 1018.769,-252.0001 1018.769,-259.0001"/>
</g>
<!-- Node74 -->
<g id="node14" class="node">
<title>Node74</title>
<g id="a_node14"><a xlink:href="classMap.html#a1676db3d125b2c1764adfcb64d6332a2" target="_top" xlink:title="Map::nodeIdx">
<polygon fill="none" stroke="#000000" points="1066,-284 1066,-303 1148,-303 1148,-284 1066,-284"/>
<text text-anchor="middle" x="1107" y="-291" font-family="Helvetica,sans-Serif" font-size="10.00" fill="#000000">Map::nodeIdx</text>
</a>
</g>
</g>
<!-- Node72&#45;&gt;Node74 -->
<g id="edge15" class="edge">
<title>Node72&#45;&gt;Node74</title>
<path fill="none" stroke="#191970" d="M954.9634,-265.04C985.7748,-270.8076 1024.9275,-278.1367 1055.7842,-283.9128"/>
<polygon fill="#191970" stroke="#191970" points="1055.4333,-287.4078 1065.9066,-285.8076 1056.7213,-280.5273 1055.4333,-287.4078"/>
</g>
<!-- Node73&#45;&gt;Node69 -->
<g id="edge14" class="edge">
<title>Node73&#45;&gt;Node69</title>
<path fill="none" stroke="#191970" d="M1185.1028,-255.5C1200.0103,-255.5 1215.4914,-255.5 1230.0134,-255.5"/>
<polygon fill="#191970" stroke="#191970" points="1230.3963,-259.0001 1240.3962,-255.5 1230.3962,-252.0001 1230.3963,-259.0001"/>
</g>
<!-- Node76 -->
<g id="node16" class="node">
<title>Node76</title>
<g id="a_node16"><a xlink:href="classMapNode.html#a10dded7848621ba007c3d3fc85392e32" target="_top" xlink:title="Change Height Increases or decrease the height of the node and its sprite This function should not be...">
<polygon fill="none" stroke="#000000" points="1039,-44 1039,-63 1175,-63 1175,-44 1039,-44"/>
<text text-anchor="middle" x="1107" y="-51" font-family="Helvetica,sans-Serif" font-size="10.00" fill="#000000">MapNode::changeHeight</text>
</a>
</g>
</g>
<!-- Node75&#45;&gt;Node76 -->
<g id="edge17" class="edge">
<title>Node75&#45;&gt;Node76</title>
<path fill="none" stroke="#191970" d="M948.048,-87.9527C978.9057,-81.2643 1020.3268,-72.2863 1053.1491,-65.1721"/>
<polygon fill="#191970" stroke="#191970" points="1054.0064,-68.5677 1063.038,-63.0287 1052.5235,-61.7265 1054.0064,-68.5677"/>
</g>
<!-- Node78&#45;&gt;Node77 -->
<g id="edge20" class="edge">
<title>Node78&#45;&gt;Node77</title>
<path fill="none" stroke="#191970" d="M977.0009,-15.5C992.5725,-15.5 1009.118,-15.5 1025.0014,-15.5"/>
<polygon fill="#191970" stroke="#191970" points="1025.3266,-19.0001 1035.3266,-15.5 1025.3266,-12.0001 1025.3266,-19.0001"/>
</g>
<!-- Node79&#45;&gt;Node71 -->
<g id="edge29" class="edge">
<title>Node79&#45;&gt;Node71</title>
<path fill="none" stroke="#191970" d="M847.4392,-179.3809C817.6572,-176.9441 781.5549,-172.8288 753.2793,-168.6068"/>
<polygon fill="#191970" stroke="#191970" points="753.6607,-165.1242 743.2423,-167.0495 752.5874,-172.0415 753.6607,-165.1242"/>
</g>
<!-- Node79&#45;&gt;Node73 -->
<g id="edge22" class="edge">
<title>Node79&#45;&gt;Node73</title>
<path fill="none" stroke="#191970" d="M920.829,-189.0547C943.4297,-201.5338 985.1348,-223.3364 1023,-236.5 1030.5303,-239.1178 1038.5677,-241.4694 1046.5744,-243.5521"/>
<polygon fill="#191970" stroke="#191970" points="1045.7412,-246.9514 1056.2895,-245.959 1047.4246,-240.1568 1045.7412,-246.9514"/>
</g>
<!-- Node79&#45;&gt;Node74 -->
<g id="edge23" class="edge">
<title>Node79&#45;&gt;Node74</title>
<path fill="none" stroke="#191970" d="M920.0094,-189.0779C937.2717,-199.7215 965.2051,-217.8764 987,-236.5 1004.6868,-251.6133 1002.7811,-262.9922 1023,-274.5 1033.0504,-280.2203 1044.6953,-284.2184 1056.0538,-287.0128"/>
<polygon fill="#191970" stroke="#191970" points="1055.3973,-290.4519 1065.9145,-289.1717 1056.8945,-283.6139 1055.3973,-290.4519"/>
</g>
<!-- Node80 -->
<g id="node20" class="node">
<title>Node80</title>
<g id="a_node20"><a xlink:href="classMapNode.html#a6b57e4355d0780fb37c34d63bbcdfdf9" target="_top" xlink:title="MapNode::getMapNodeDataFor\lLayer">
<polygon fill="none" stroke="#000000" points="1023,-120.5 1023,-150.5 1191,-150.5 1191,-120.5 1023,-120.5"/>
<text text-anchor="start" x="1031" y="-138.5" font-family="Helvetica,sans-Serif" font-size="10.00" fill="#000000">MapNode::getMapNodeDataFor</text>
<text text-anchor="middle" x="1107" y="-127.5" font-family="Helvetica,sans-Serif" font-size="10.00" fill="#000000">Layer</text>
</a>
</g>
</g>
<!-- Node79&#45;&gt;Node80 -->
<g id="edge24" class="edge">
<title>Node79&#45;&gt;Node80</title>
<path fill="none" stroke="#191970" d="M948.048,-169.9527C971.3115,-164.9103 1000.5789,-158.5666 1027.6393,-152.7013"/>
<polygon fill="#191970" stroke="#191970" points="1028.4623,-156.1043 1037.4939,-150.5654 1026.9794,-149.2632 1028.4623,-156.1043"/>
</g>
<!-- Node81 -->
<g id="node21" class="node">
<title>Node81</title>
<g id="a_node21"><a xlink:href="classMapNode.html#ad74bb8fd5b519f5e909f0e807960a918" target="_top" xlink:title="MapNode::getOrigCornerPoint">
<polygon fill="none" stroke="#000000" points="1026.5,-208 1026.5,-227 1187.5,-227 1187.5,-208 1026.5,-208"/>
<text text-anchor="middle" x="1107" y="-215" font-family="Helvetica,sans-Serif" font-size="10.00" fill="#000000">MapNode::getOrigCornerPoint</text>
</a>
</g>
</g>
<!-- Node79&#45;&gt;Node81 -->
<g id="edge25" class="edge">
<title>Node79&#45;&gt;Node81</title>
<path fill="none" stroke="#191970" d="M954.9634,-189.04C982.5941,-194.2122 1016.9328,-200.6401 1045.9811,-206.0778"/>
<polygon fill="#191970" stroke="#191970" points="1045.5423,-209.5563 1056.0156,-207.9561 1046.8303,-202.6758 1045.5423,-209.5563"/>
</g>
<!-- Node82 -->
<g id="node22" class="node">
<title>Node82</title>
<g id="a_node22"><a xlink:href="classMap.html#a3952b445c55efce61c1ccac6f362fe89" target="_top" xlink:title="Return vector of Points of an Object Tiles selection. ">
<polygon fill="none" stroke="#000000" points="1045,-170 1045,-189 1169,-189 1169,-170 1045,-170"/>
<text text-anchor="middle" x="1107" y="-177" font-family="Helvetica,sans-Serif" font-size="10.00" fill="#000000">Map::getObjectCoords</text>
</a>
</g>
</g>
<!-- Node79&#45;&gt;Node82 -->
<g id="edge26" class="edge">
<title>Node79&#45;&gt;Node82</title>
<path fill="none" stroke="#191970" d="M960.5468,-179.5C983.4382,-179.5 1010.1525,-179.5 1034.451,-179.5"/>
<polygon fill="#191970" stroke="#191970" points="1034.6986,-183.0001 1044.6986,-179.5 1034.6986,-176.0001 1034.6986,-183.0001"/>
</g>
<!-- Node82&#45;&gt;Node69 -->
<g id="edge27" class="edge">
<title>Node82&#45;&gt;Node69</title>
<path fill="none" stroke="#191970" d="M1159.6226,-189.0998C1170.168,-191.6635 1181.057,-194.7811 1191,-198.5 1216.9127,-208.1919 1244.3766,-223.1063 1264.8552,-235.2482"/>
<polygon fill="#191970" stroke="#191970" points="1263.0879,-238.2695 1273.46,-240.4304 1266.6993,-232.273 1263.0879,-238.2695"/>
</g>
<!-- Node83 -->
<g id="node23" class="node">
<title>Node83</title>
<g id="a_node23"><a xlink:href="classTileManager.html#a8ee071ff8b24926288437d310f9bc714" target="_top" xlink:title="TileManager::getTileData">
<polygon fill="none" stroke="#000000" points="1227,-170 1227,-189 1367,-189 1367,-170 1227,-170"/>
<text text-anchor="middle" x="1297" y="-177" font-family="Helvetica,sans-Serif" font-size="10.00" fill="#000000">TileManager::getTileData</text>
</a>
</g>
</g>
<!-- Node82&#45;&gt;Node83 -->
<g id="edge28" class="edge">
<title>Node82&#45;&gt;Node83</title>
<path fill="none" stroke="#191970" d="M1169.2131,-179.5C1184.3056,-179.5 1200.6566,-179.5 1216.4608,-179.5"/>
<polygon fill="#191970" stroke="#191970" points="1216.7487,-183.0001 1226.7487,-179.5 1216.7487,-176.0001 1216.7487,-183.0001"/>
</g>
<!-- Node84&#45;&gt;Node80 -->
<g id="edge31" class="edge">
<title>Node84&#45;&gt;Node80</title>
<path fill="none" stroke="#191970" d="M987.1536,-135.5C995.6531,-135.5 1004.3302,-135.5 1012.9356,-135.5"/>
<polygon fill="#191970" stroke="#191970" points="1012.9897,-139.0001 1022.9897,-135.5 1012.9897,-132.0001 1012.9897,-139.0001"/>
</g>
<!-- Node85 -->
<g id="node25" class="node">
<title>Node85</title>
<g id="a_node25"><a xlink:href="classMapNode.html#afb1cbc0f9e987b7befced46220dd9277" target="_top" xlink:title="check if specific layer can be autotiled. ">
<polygon fill="none" stroke="#000000" points="1035,-82 1035,-101 1179,-101 1179,-82 1035,-82"/>
<text text-anchor="middle" x="1107" y="-89" font-family="Helvetica,sans-Serif" font-size="10.00" fill="#000000">MapNode::isLayerAutoTile</text>
</a>
</g>
</g>
<!-- Node84&#45;&gt;Node85 -->
<g id="edge32" class="edge">
<title>Node84&#45;&gt;Node85</title>
<path fill="none" stroke="#191970" d="M948.048,-125.9527C978.9057,-119.2643 1020.3268,-110.2863 1053.1491,-103.1721"/>
<polygon fill="#191970" stroke="#191970" points="1054.0064,-106.5677 1063.038,-101.0287 1052.5235,-99.7265 1054.0064,-106.5677"/>
</g>
<!-- Node86 -->
<g id="node26" class="node">
<title>Node86</title>
<g id="a_node26"><a xlink:href="classMapNode.html#a64cb9a4523c9e78f256fde42f1dee43d" target="_top" xlink:title="check if specific Tile Data is autotile category. ">
<polygon fill="none" stroke="#000000" points="1227,-82 1227,-101 1367,-101 1367,-82 1227,-82"/>
<text text-anchor="middle" x="1297" y="-89" font-family="Helvetica,sans-Serif" font-size="10.00" fill="#000000">MapNode::isDataAutoTile</text>
</a>
</g>
</g>
<!-- Node85&#45;&gt;Node86 -->
<g id="edge33" class="edge">
<title>Node85&#45;&gt;Node86</title>
<path fill="none" stroke="#191970" d="M1179.1018,-91.5C1191.3221,-91.5 1204.0799,-91.5 1216.4991,-91.5"/>
<polygon fill="#191970" stroke="#191970" points="1216.8325,-95.0001 1226.8324,-91.5 1216.8324,-88.0001 1216.8325,-95.0001"/>
</g>
</g>
</svg>
        <g id="navigator" transform="translate(0 0)" fill="#404254">
                <rect fill="#f2f5e9" fill-opacity="0.5" stroke="#606060" stroke-width=".5" x="0" y="0" width="60" height="60"/>
                <use id="zoomplus" xlink:href="#zoomPlus" x="17" y="9" onmousedown="handleZoom(evt,'in')"/>
                <use id="zoomminus" xlink:href="#zoomMin" x="42" y="9" onmousedown="handleZoom(evt,'out')"/>
                <use id="reset" xlink:href="#resetDef" x="30" y="36" onmousedown="handleReset()"/>
                <g id="arrowUp" xlink:href="#dirArrow" transform="translate(30 24)" onmousedown="handlePan(0,-1)">
                  <use xlink:href="#rim" fill="#404040">
                        <set attributeName="fill" to="#808080" begin="arrowUp.mouseover" end="arrowUp.mouseout"/>
                  </use>
                  <path fill="none" stroke="white" stroke-width="1.5" d="M0,-3.0v7 M-2.5,-0.5L0,-3.0L2.5,-0.5"/>
                </g>
                <g id="arrowRight" xlink:href="#dirArrow" transform="rotate(90) translate(36 -43)" onmousedown="handlePan(1,0)">
                  <use xlink:href="#rim" fill="#404040">
                        <set attributeName="fill" to="#808080" begin="arrowRight.mouseover" end="arrowRight.mouseout"/>
                  </use>
                  <path fill="none" stroke="white" stroke-width="1.5" d="M0,-3.0v7 M-2.5,-0.5L0,-3.0L2.5,-0.5"/>
                </g>
                <g id="arrowDown" xlink:href="#dirArrow" transform="rotate(180) translate(-30 -48)" onmousedown="handlePan(0,1)">
                  <use xlink:href="#rim" fill="#404040">
                        <set attributeName="fill" to="#808080" begin="arrowDown.mouseover" end="arrowDown.mouseout"/>
                  </use>
                  <path fill="none" stroke="white" stroke-width="1.5" d="M0,-3.0v7 M-2.5,-0.5L0,-3.0L2.5,-0.5"/>
                </g>
                <g id="arrowLeft" xlink:href="#dirArrow" transform="rotate(270) translate(-36 17)" onmousedown="handlePan(-1,0)">
                  <use xlink:href="#rim" fill="#404040">
                        <set attributeName="fill" to="#808080" begin="arrowLeft.mouseover" end="arrowLeft.mouseout"/>
                  </use>
                  <path fill="none" stroke="white" stroke-width="1.5" d="M0,-3.0v7 M-2.5,-0.5L0,-3.0L2.5,-0.5"/>
                </g>
        </g>
        <svg viewBox="0 0 15 15" width="100%" height="30px" preserveAspectRatio="xMaxYMin meet">
         <g id="arrow_out" transform="scale(0.3 0.3)">
          <a xlink:href="classEngine_a83b7dbeee899b36a13d5b07c7ad87ebc_cgraph_org.svg" target="_base">
           <rect id="button" ry="5" rx="5" y="6" x="6" height="38" width="38"
                fill="#f2f5e9" fill-opacity="0.5" stroke="#606060" stroke-width="1.0"/>
           <path id="arrow"
             d="M 11.500037,31.436501 C 11.940474,20.09759 22.043105,11.32322 32.158766,21.979434 L 37.068811,17.246167 C 37.068811,17.246167 37.088388,32 37.088388,32 L 22.160133,31.978069 C 22.160133,31.978069 26.997745,27.140456 26.997745,27.140456 C 18.528582,18.264221 13.291696,25.230495 11.500037,31.436501 z"
             style="fill:#404040;"/>
          </a>
         </g>
        </svg>
</svg>
