<?xml version="1.0" encoding="UTF-8" standalone="no"?>
<!DOCTYPE svg PUBLIC "-//W3C//DTD SVG 1.1//EN"
 "http://www.w3.org/Graphics/SVG/1.1/DTD/svg11.dtd">
<!-- Generated by graphviz version 2.40.1 (20161225.0304)
 -->
<!-- Title: Game Pages: 1 -->
<svg width="648pt" height="894pt"
 viewBox="0.00 0.00 647.50 894.00" xmlns="http://www.w3.org/2000/svg" xmlns:xlink="http://www.w3.org/1999/xlink">
<g id="graph0" class="graph" transform="scale(1 1) rotate(0) translate(4 890)">
<title>Game</title>
<!-- Node1 -->
<g id="node1" class="node">
<title>Node1</title>
<polygon fill="#bfbfbf" stroke="#000000" points="253.5,-.5 253.5,-156.5 359.5,-156.5 359.5,-.5 253.5,-.5"/>
<text text-anchor="middle" x="306.5" y="-144.5" font-family="Helvetica,sans-Serif" font-size="10.00" fill="#000000">Game</text>
<polyline fill="none" stroke="#000000" points="253.5,-137.5 359.5,-137.5 "/>
<text text-anchor="start" x="261.5" y="-125.5" font-family="Helvetica,sans-Serif" font-size="10.00" fill="#000000">&#45; m_GameContext</text>
<text text-anchor="start" x="261.5" y="-114.5" font-family="Helvetica,sans-Serif" font-size="10.00" fill="#000000">&#45; m_UILoop</text>
<text text-anchor="start" x="261.5" y="-103.5" font-family="Helvetica,sans-Serif" font-size="10.00" fill="#000000">&#45; m_EventLoop</text>
<polyline fill="none" stroke="#000000" points="253.5,-96.5 359.5,-96.5 "/>
<text text-anchor="start" x="261.5" y="-84.5" font-family="Helvetica,sans-Serif" font-size="10.00" fill="#000000">+ Game()</text>
<text text-anchor="start" x="261.5" y="-73.5" font-family="Helvetica,sans-Serif" font-size="10.00" fill="#000000">+ ~Game()</text>
<text text-anchor="start" x="261.5" y="-62.5" font-family="Helvetica,sans-Serif" font-size="10.00" fill="#000000">+ initialize()</text>
<text text-anchor="start" x="261.5" y="-51.5" font-family="Helvetica,sans-Serif" font-size="10.00" fill="#000000">+ run()</text>
<text text-anchor="start" x="261.5" y="-40.5" font-family="Helvetica,sans-Serif" font-size="10.00" fill="#000000">+ shutdown()</text>
<text text-anchor="start" x="261.5" y="-29.5" font-family="Helvetica,sans-Serif" font-size="10.00" fill="#000000">+ mainMenu()</text>
<text text-anchor="start" x="261.5" y="-18.5" font-family="Helvetica,sans-Serif" font-size="10.00" fill="#000000">&#45; quit()</text>
<text text-anchor="start" x="261.5" y="-7.5" font-family="Helvetica,sans-Serif" font-size="10.00" fill="#000000">&#45; LoopMain()</text>
</g>
<!-- Node2 -->
<g id="node2" class="node">
<title>Node2</title>
<g id="a_node2"><a xlink:href="classUILoopMQ.html" target="_top" xlink:title="UI Actor&#39;s message queue. ">
<polygon fill="none" stroke="#000000" points="52.5,-243 52.5,-300 118.5,-300 118.5,-243 52.5,-243"/>
<text text-anchor="middle" x="85.5" y="-288" font-family="Helvetica,sans-Serif" font-size="10.00" fill="#000000">UILoopMQ</text>
<polyline fill="none" stroke="#000000" points="52.5,-281 118.5,-281 "/>
<text text-anchor="middle" x="85.5" y="-269" font-family="Helvetica,sans-Serif" font-size="10.00" fill="#000000"> </text>
<polyline fill="none" stroke="#000000" points="52.5,-262 118.5,-262 "/>
<text text-anchor="middle" x="85.5" y="-250" font-family="Helvetica,sans-Serif" font-size="10.00" fill="#000000"> </text>
</a>
</g>
</g>
<!-- Node2&#45;&gt;Node1 -->
<g id="edge1" class="edge">
<title>Node2&#45;&gt;Node1</title>
<path fill="none" stroke="#404040" d="M92.8261,-242.9456C99.3574,-222.1062 110.6872,-194.2516 128.5,-175 159.5465,-141.4458 204.9846,-117.0796 242.1808,-101.2255"/>
<polygon fill="none" stroke="#404040" points="242.3434,-101.1584 246.3622,-95.1709 253.4347,-96.5778 249.4159,-102.5652 242.3434,-101.1584"/>
<text text-anchor="middle" x="164.5" y="-178" font-family="Helvetica,sans-Serif" font-size="10.00" fill="#000000"> &#45;m_UILoopMQ</text>
</g>
<!-- Node3 -->
<g id="node3" class="node">
<title>Node3</title>
<g id="a_node3"><a xlink:href="classMessageQueue.html" target="_top" xlink:title="{MessageQueue\&lt; VariantType\l\&lt; UIEvents \&gt;::type \&gt;\n|&#45; m_OnEvent\l&#45; m_Semaphore\l&#45; m_Queue\l|+ push()\l+ peek()\l+ getEnumerable()\l+ MessageQueue()\l+ MessageQueue()\l+ MessageQueue()\l+ operator=()\l+ operator=()\l&#45; wakeCondition()\l}">
<polygon fill="none" stroke="#000000" points="0,-376.5 0,-554.5 159,-554.5 159,-376.5 0,-376.5"/>
<text text-anchor="start" x="8" y="-542.5" font-family="Helvetica,sans-Serif" font-size="10.00" fill="#000000">MessageQueue&lt; VariantType</text>
<text text-anchor="middle" x="79.5" y="-531.5" font-family="Helvetica,sans-Serif" font-size="10.00" fill="#000000">&lt; UIEvents &gt;::type &gt;</text>
<polyline fill="none" stroke="#000000" points="0,-524.5 159,-524.5 "/>
<text text-anchor="start" x="8" y="-512.5" font-family="Helvetica,sans-Serif" font-size="10.00" fill="#000000">&#45; m_OnEvent</text>
<text text-anchor="start" x="8" y="-501.5" font-family="Helvetica,sans-Serif" font-size="10.00" fill="#000000">&#45; m_Semaphore</text>
<text text-anchor="start" x="8" y="-490.5" font-family="Helvetica,sans-Serif" font-size="10.00" fill="#000000">&#45; m_Queue</text>
<polyline fill="none" stroke="#000000" points="0,-483.5 159,-483.5 "/>
<text text-anchor="start" x="8" y="-471.5" font-family="Helvetica,sans-Serif" font-size="10.00" fill="#000000">+ push()</text>
<text text-anchor="start" x="8" y="-460.5" font-family="Helvetica,sans-Serif" font-size="10.00" fill="#000000">+ peek()</text>
<text text-anchor="start" x="8" y="-449.5" font-family="Helvetica,sans-Serif" font-size="10.00" fill="#000000">+ getEnumerable()</text>
<text text-anchor="start" x="8" y="-438.5" font-family="Helvetica,sans-Serif" font-size="10.00" fill="#000000">+ MessageQueue()</text>
<text text-anchor="start" x="8" y="-427.5" font-family="Helvetica,sans-Serif" font-size="10.00" fill="#000000">+ MessageQueue()</text>
<text text-anchor="start" x="8" y="-416.5" font-family="Helvetica,sans-Serif" font-size="10.00" fill="#000000">+ MessageQueue()</text>
<text text-anchor="start" x="8" y="-405.5" font-family="Helvetica,sans-Serif" font-size="10.00" fill="#000000">+ operator=()</text>
<text text-anchor="start" x="8" y="-394.5" font-family="Helvetica,sans-Serif" font-size="10.00" fill="#000000">+ operator=()</text>
<text text-anchor="start" x="8" y="-383.5" font-family="Helvetica,sans-Serif" font-size="10.00" fill="#000000">&#45; wakeCondition()</text>
</a>
</g>
</g>
<!-- Node3&#45;&gt;Node2 -->
<g id="edge2" class="edge">
<title>Node3&#45;&gt;Node2</title>
<path fill="none" stroke="#191970" d="M82.5637,-366.4399C83.3131,-342.2096 84.0572,-318.1507 84.6088,-300.3147"/>
<polygon fill="none" stroke="#191970" points="79.0651,-366.3456 82.2542,-376.4491 86.0617,-366.5621 79.0651,-366.3456"/>
</g>
<!-- Node4 -->
<g id="node4" class="node">
<title>Node4</title>
<g id="a_node4"><a xlink:href="classMessageQueue.html" target="_top" xlink:title="{MessageQueue\&lt; Event \&gt;\n|&#45; m_OnEvent\l&#45; m_Semaphore\l&#45; m_Queue\l|+ push()\l+ peek()\l+ getEnumerable()\l+ MessageQueue()\l+ operator=()\l+ MessageQueue()\l+ MessageQueue()\l+ operator=()\l&#45; wakeCondition()\l}">
<polygon fill="none" stroke="#000000" points="107,-613.5 107,-780.5 248,-780.5 248,-613.5 107,-613.5"/>
<text text-anchor="middle" x="177.5" y="-768.5" font-family="Helvetica,sans-Serif" font-size="10.00" fill="#000000">MessageQueue&lt; Event &gt;</text>
<polyline fill="none" stroke="#000000" points="107,-761.5 248,-761.5 "/>
<text text-anchor="start" x="115" y="-749.5" font-family="Helvetica,sans-Serif" font-size="10.00" fill="#000000">&#45; m_OnEvent</text>
<text text-anchor="start" x="115" y="-738.5" font-family="Helvetica,sans-Serif" font-size="10.00" fill="#000000">&#45; m_Semaphore</text>
<text text-anchor="start" x="115" y="-727.5" font-family="Helvetica,sans-Serif" font-size="10.00" fill="#000000">&#45; m_Queue</text>
<polyline fill="none" stroke="#000000" points="107,-720.5 248,-720.5 "/>
<text text-anchor="start" x="115" y="-708.5" font-family="Helvetica,sans-Serif" font-size="10.00" fill="#000000">+ push()</text>
<text text-anchor="start" x="115" y="-697.5" font-family="Helvetica,sans-Serif" font-size="10.00" fill="#000000">+ peek()</text>
<text text-anchor="start" x="115" y="-686.5" font-family="Helvetica,sans-Serif" font-size="10.00" fill="#000000">+ getEnumerable()</text>
<text text-anchor="start" x="115" y="-675.5" font-family="Helvetica,sans-Serif" font-size="10.00" fill="#000000">+ MessageQueue()</text>
<text text-anchor="start" x="115" y="-664.5" font-family="Helvetica,sans-Serif" font-size="10.00" fill="#000000">+ operator=()</text>
<text text-anchor="start" x="115" y="-653.5" font-family="Helvetica,sans-Serif" font-size="10.00" fill="#000000">+ MessageQueue()</text>
<text text-anchor="start" x="115" y="-642.5" font-family="Helvetica,sans-Serif" font-size="10.00" fill="#000000">+ MessageQueue()</text>
<text text-anchor="start" x="115" y="-631.5" font-family="Helvetica,sans-Serif" font-size="10.00" fill="#000000">+ operator=()</text>
<text text-anchor="start" x="115" y="-620.5" font-family="Helvetica,sans-Serif" font-size="10.00" fill="#000000">&#45; wakeCondition()</text>
</a>
</g>
</g>
<!-- Node4&#45;&gt;Node3 -->
<g id="edge3" class="edge">
<title>Node4&#45;&gt;Node3</title>
<path fill="none" stroke="#ffa500" d="M101.3487,-616.0268C97.1887,-609.2113 93.4947,-602.1735 90.5,-595 85.2411,-582.4027 81.8535,-568.5268 79.7464,-554.6804"/>
<polygon fill="#ffa500" stroke="#ffa500" points="98.4807,-618.0372 106.8497,-624.5342 104.3589,-614.2363 98.4807,-618.0372"/>
<text text-anchor="start" x="90.5" y="-587" font-family="Helvetica,sans-Serif" font-size="10.00" fill="#000000"> &lt; VariantType&lt; UIEvents</text>
<text text-anchor="middle" x="154" y="-576" font-family="Helvetica,sans-Serif" font-size="10.00" fill="#000000"> &gt;::type &gt;</text>
</g>
<!-- Node11 -->
<g id="node11" class="node">
<title>Node11</title>
<g id="a_node11"><a xlink:href="classMessageQueue.html" target="_top" xlink:title="{MessageQueue\&lt; VariantType\l\&lt; GameEvents \&gt;::type \&gt;\n|&#45; m_OnEvent\l&#45; m_Semaphore\l&#45; m_Queue\l|+ push()\l+ peek()\l+ getEnumerable()\l+ MessageQueue()\l+ MessageQueue()\l+ MessageQueue()\l+ operator=()\l+ operator=()\l&#45; wakeCondition()\l}">
<polygon fill="none" stroke="#000000" points="177,-376.5 177,-554.5 336,-554.5 336,-376.5 177,-376.5"/>
<text text-anchor="start" x="185" y="-542.5" font-family="Helvetica,sans-Serif" font-size="10.00" fill="#000000">MessageQueue&lt; VariantType</text>
<text text-anchor="middle" x="256.5" y="-531.5" font-family="Helvetica,sans-Serif" font-size="10.00" fill="#000000">&lt; GameEvents &gt;::type &gt;</text>
<polyline fill="none" stroke="#000000" points="177,-524.5 336,-524.5 "/>
<text text-anchor="start" x="185" y="-512.5" font-family="Helvetica,sans-Serif" font-size="10.00" fill="#000000">&#45; m_OnEvent</text>
<text text-anchor="start" x="185" y="-501.5" font-family="Helvetica,sans-Serif" font-size="10.00" fill="#000000">&#45; m_Semaphore</text>
<text text-anchor="start" x="185" y="-490.5" font-family="Helvetica,sans-Serif" font-size="10.00" fill="#000000">&#45; m_Queue</text>
<polyline fill="none" stroke="#000000" points="177,-483.5 336,-483.5 "/>
<text text-anchor="start" x="185" y="-471.5" font-family="Helvetica,sans-Serif" font-size="10.00" fill="#000000">+ push()</text>
<text text-anchor="start" x="185" y="-460.5" font-family="Helvetica,sans-Serif" font-size="10.00" fill="#000000">+ peek()</text>
<text text-anchor="start" x="185" y="-449.5" font-family="Helvetica,sans-Serif" font-size="10.00" fill="#000000">+ getEnumerable()</text>
<text text-anchor="start" x="185" y="-438.5" font-family="Helvetica,sans-Serif" font-size="10.00" fill="#000000">+ MessageQueue()</text>
<text text-anchor="start" x="185" y="-427.5" font-family="Helvetica,sans-Serif" font-size="10.00" fill="#000000">+ MessageQueue()</text>
<text text-anchor="start" x="185" y="-416.5" font-family="Helvetica,sans-Serif" font-size="10.00" fill="#000000">+ MessageQueue()</text>
<text text-anchor="start" x="185" y="-405.5" font-family="Helvetica,sans-Serif" font-size="10.00" fill="#000000">+ operator=()</text>
<text text-anchor="start" x="185" y="-394.5" font-family="Helvetica,sans-Serif" font-size="10.00" fill="#000000">+ operator=()</text>
<text text-anchor="start" x="185" y="-383.5" font-family="Helvetica,sans-Serif" font-size="10.00" fill="#000000">&#45; wakeCondition()</text>
</a>
</g>
</g>
<!-- Node4&#45;&gt;Node11 -->
<g id="edge12" class="edge">
<title>Node4&#45;&gt;Node11</title>
<path fill="none" stroke="#ffa500" d="M218.3295,-603.819C219.4247,-600.8556 220.4847,-597.9107 221.5,-595 225.9871,-582.1359 230.2511,-568.3886 234.1597,-554.8336"/>
<polygon fill="#ffa500" stroke="#ffa500" points="214.9971,-602.7359 214.7236,-613.3272 221.5422,-605.2181 214.9971,-602.7359"/>
<text text-anchor="start" x="228.5" y="-587" font-family="Helvetica,sans-Serif" font-size="10.00" fill="#000000"> &lt; VariantType&lt; GameEvents</text>
<text text-anchor="middle" x="301" y="-576" font-family="Helvetica,sans-Serif" font-size="10.00" fill="#000000"> &gt;::type &gt;</text>
</g>
<!-- Node5 -->
<g id="node5" class="node">
<title>Node5</title>
<g id="a_node5"><a xlink:href="classRandomizer.html" target="_top" xlink:title="{Randomizer\n|&#45; generator\l|+ Randomizer()\l+ choose()\l}">
<polygon fill="none" stroke="#000000" points="253.5,-237.5 253.5,-305.5 347.5,-305.5 347.5,-237.5 253.5,-237.5"/>
<text text-anchor="middle" x="300.5" y="-293.5" font-family="Helvetica,sans-Serif" font-size="10.00" fill="#000000">Randomizer</text>
<polyline fill="none" stroke="#000000" points="253.5,-286.5 347.5,-286.5 "/>
<text text-anchor="start" x="261.5" y="-274.5" font-family="Helvetica,sans-Serif" font-size="10.00" fill="#000000">&#45; generator</text>
<polyline fill="none" stroke="#000000" points="253.5,-267.5 347.5,-267.5 "/>
<text text-anchor="start" x="261.5" y="-255.5" font-family="Helvetica,sans-Serif" font-size="10.00" fill="#000000">+ Randomizer()</text>
<text text-anchor="start" x="261.5" y="-244.5" font-family="Helvetica,sans-Serif" font-size="10.00" fill="#000000">+ choose()</text>
</a>
</g>
</g>
<!-- Node5&#45;&gt;Node1 -->
<g id="edge4" class="edge">
<title>Node5&#45;&gt;Node1</title>
<path fill="none" stroke="#404040" d="M301.5589,-237.4397C302.1546,-218.2767 302.9293,-193.3566 303.688,-168.9541"/>
<polygon fill="none" stroke="#404040" points="303.6972,-168.6545 299.8856,-162.5331 304.0701,-156.6603 307.8817,-162.7818 303.6972,-168.6545"/>
<text text-anchor="middle" x="344" y="-178" font-family="Helvetica,sans-Serif" font-size="10.00" fill="#000000"> &#45;m_Randomizer</text>
</g>
<!-- Node6 -->
<g id="node6" class="node">
<title>Node6</title>
<g id="a_node6"><a xlink:href="classGameService.html" target="_top" xlink:title="{GameService\n||+ GameService()\l# GetService()\l}">
<polygon fill="none" stroke="#000000" points="376,-431.5 376,-499.5 477,-499.5 477,-431.5 376,-431.5"/>
<text text-anchor="middle" x="426.5" y="-487.5" font-family="Helvetica,sans-Serif" font-size="10.00" fill="#000000">GameService</text>
<polyline fill="none" stroke="#000000" points="376,-480.5 477,-480.5 "/>
<text text-anchor="middle" x="426.5" y="-468.5" font-family="Helvetica,sans-Serif" font-size="10.00" fill="#000000"> </text>
<polyline fill="none" stroke="#000000" points="376,-461.5 477,-461.5 "/>
<text text-anchor="start" x="384" y="-449.5" font-family="Helvetica,sans-Serif" font-size="10.00" fill="#000000">+ GameService()</text>
<text text-anchor="start" x="384" y="-438.5" font-family="Helvetica,sans-Serif" font-size="10.00" fill="#000000"># GetService()</text>
</a>
</g>
</g>
<!-- Node6&#45;&gt;Node5 -->
<g id="edge5" class="edge">
<title>Node6&#45;&gt;Node5</title>
<path fill="none" stroke="#191970" d="M398.6626,-422.6392C375.8145,-387.4605 343.8888,-338.3051 322.7255,-305.7202"/>
<polygon fill="none" stroke="#191970" points="395.8816,-424.7832 404.2638,-431.2633 401.7521,-420.9704 395.8816,-424.7832"/>
</g>
<!-- Node9 -->
<g id="node9" class="node">
<title>Node9</title>
<g id="a_node9"><a xlink:href="classResourceManager.html" target="_top" xlink:title="{ResourceManager\n|&#45; m_Age\l&#45; m_CacheSize\l|+ ResourceManager()\l+ get()\l+ prune()\l}">
<polygon fill="none" stroke="#000000" points="365.5,-226.5 365.5,-316.5 487.5,-316.5 487.5,-226.5 365.5,-226.5"/>
<text text-anchor="middle" x="426.5" y="-304.5" font-family="Helvetica,sans-Serif" font-size="10.00" fill="#000000">ResourceManager</text>
<polyline fill="none" stroke="#000000" points="365.5,-297.5 487.5,-297.5 "/>
<text text-anchor="start" x="373.5" y="-285.5" font-family="Helvetica,sans-Serif" font-size="10.00" fill="#000000">&#45; m_Age</text>
<text text-anchor="start" x="373.5" y="-274.5" font-family="Helvetica,sans-Serif" font-size="10.00" fill="#000000">&#45; m_CacheSize</text>
<polyline fill="none" stroke="#000000" points="365.5,-267.5 487.5,-267.5 "/>
<text text-anchor="start" x="373.5" y="-255.5" font-family="Helvetica,sans-Serif" font-size="10.00" fill="#000000">+ ResourceManager()</text>
<text text-anchor="start" x="373.5" y="-244.5" font-family="Helvetica,sans-Serif" font-size="10.00" fill="#000000">+ get()</text>
<text text-anchor="start" x="373.5" y="-233.5" font-family="Helvetica,sans-Serif" font-size="10.00" fill="#000000">+ prune()</text>
</a>
</g>
</g>
<!-- Node6&#45;&gt;Node9 -->
<g id="edge9" class="edge">
<title>Node6&#45;&gt;Node9</title>
<path fill="none" stroke="#191970" d="M426.5,-421.0921C426.5,-389.8311 426.5,-348.1243 426.5,-316.6908"/>
<polygon fill="none" stroke="#191970" points="423.0001,-421.2632 426.5,-431.2633 430.0001,-421.2633 423.0001,-421.2632"/>
</g>
<!-- Node12 -->
<g id="node12" class="node">
<title>Node12</title>
<g id="a_node12"><a xlink:href="classGameClock.html" target="_top" xlink:title="{GameClock\n|&#45; m_Deffered\l&#45; m_Repeated\l&#45; m_lock\l&#45; m_thread\l|+ GameClock()\l+ ~GameClock()\l+ createDefferedTask()\l+ createRepeatedTask()\l&#45; clockLoop()\l}">
<polygon fill="none" stroke="#000000" points="505.5,-204.5 505.5,-338.5 639.5,-338.5 639.5,-204.5 505.5,-204.5"/>
<text text-anchor="middle" x="572.5" y="-326.5" font-family="Helvetica,sans-Serif" font-size="10.00" fill="#000000">GameClock</text>
<polyline fill="none" stroke="#000000" points="505.5,-319.5 639.5,-319.5 "/>
<text text-anchor="start" x="513.5" y="-307.5" font-family="Helvetica,sans-Serif" font-size="10.00" fill="#000000">&#45; m_Deffered</text>
<text text-anchor="start" x="513.5" y="-296.5" font-family="Helvetica,sans-Serif" font-size="10.00" fill="#000000">&#45; m_Repeated</text>
<text text-anchor="start" x="513.5" y="-285.5" font-family="Helvetica,sans-Serif" font-size="10.00" fill="#000000">&#45; m_lock</text>
<text text-anchor="start" x="513.5" y="-274.5" font-family="Helvetica,sans-Serif" font-size="10.00" fill="#000000">&#45; m_thread</text>
<polyline fill="none" stroke="#000000" points="505.5,-267.5 639.5,-267.5 "/>
<text text-anchor="start" x="513.5" y="-255.5" font-family="Helvetica,sans-Serif" font-size="10.00" fill="#000000">+ GameClock()</text>
<text text-anchor="start" x="513.5" y="-244.5" font-family="Helvetica,sans-Serif" font-size="10.00" fill="#000000">+ ~GameClock()</text>
<text text-anchor="start" x="513.5" y="-233.5" font-family="Helvetica,sans-Serif" font-size="10.00" fill="#000000">+ createDefferedTask()</text>
<text text-anchor="start" x="513.5" y="-222.5" font-family="Helvetica,sans-Serif" font-size="10.00" fill="#000000">+ createRepeatedTask()</text>
<text text-anchor="start" x="513.5" y="-211.5" font-family="Helvetica,sans-Serif" font-size="10.00" fill="#000000">&#45; clockLoop()</text>
</a>
</g>
</g>
<!-- Node6&#45;&gt;Node12 -->
<g id="edge14" class="edge">
<title>Node6&#45;&gt;Node12</title>
<path fill="none" stroke="#191970" d="M458.353,-423.1748C476.9338,-398.4852 500.796,-366.7779 521.8948,-338.7425"/>
<polygon fill="none" stroke="#191970" points="455.4825,-421.1685 452.2658,-431.2633 461.0755,-425.3778 455.4825,-421.1685"/>
</g>
<!-- Node7 -->
<g id="node7" class="node">
<title>Node7</title>
<g id="a_node7"><a xlink:href="structTupleType.html" target="_top" xlink:title="{TupleType\&lt; TypeList \&gt;\n||}">
<polygon fill="none" stroke="#000000" points="363,-668.5 363,-725.5 490,-725.5 490,-668.5 363,-668.5"/>
<text text-anchor="middle" x="426.5" y="-713.5" font-family="Helvetica,sans-Serif" font-size="10.00" fill="#000000">TupleType&lt; TypeList &gt;</text>
<polyline fill="none" stroke="#000000" points="363,-706.5 490,-706.5 "/>
<text text-anchor="middle" x="426.5" y="-694.5" font-family="Helvetica,sans-Serif" font-size="10.00" fill="#000000"> </text>
<polyline fill="none" stroke="#000000" points="363,-687.5 490,-687.5 "/>
<text text-anchor="middle" x="426.5" y="-675.5" font-family="Helvetica,sans-Serif" font-size="10.00" fill="#000000"> </text>
</a>
</g>
</g>
<!-- Node7&#45;&gt;Node6 -->
<g id="edge6" class="edge">
<title>Node7&#45;&gt;Node6</title>
<path fill="none" stroke="#404040" d="M426.5,-668.1484C426.5,-628.9559 426.5,-558.4401 426.5,-511.7975"/>
<polygon fill="none" stroke="#404040" points="426.5001,-511.6129 422.5,-505.613 426.5,-499.6129 430.5,-505.6129 426.5001,-511.6129"/>
<text text-anchor="middle" x="458.5" y="-581.5" font-family="Helvetica,sans-Serif" font-size="10.00" fill="#000000"> &#45;m_Services</text>
</g>
<!-- Node8 -->
<g id="node8" class="node">
<title>Node8</title>
<g id="a_node8"><a xlink:href="structTupleType.html" target="_top" xlink:title="TupleType::type returns std::tuple&lt;All fields inside the TypeList&gt; ">
<polygon fill="none" stroke="#000000" points="374.5,-828.5 374.5,-885.5 478.5,-885.5 478.5,-828.5 374.5,-828.5"/>
<text text-anchor="middle" x="426.5" y="-873.5" font-family="Helvetica,sans-Serif" font-size="10.00" fill="#000000">TupleType&lt; List &gt;</text>
<polyline fill="none" stroke="#000000" points="374.5,-866.5 478.5,-866.5 "/>
<text text-anchor="middle" x="426.5" y="-854.5" font-family="Helvetica,sans-Serif" font-size="10.00" fill="#000000"> </text>
<polyline fill="none" stroke="#000000" points="374.5,-847.5 478.5,-847.5 "/>
<text text-anchor="middle" x="426.5" y="-835.5" font-family="Helvetica,sans-Serif" font-size="10.00" fill="#000000"> </text>
</a>
</g>
</g>
<!-- Node8&#45;&gt;Node7 -->
<g id="edge7" class="edge">
<title>Node8&#45;&gt;Node7</title>
<path fill="none" stroke="#ffa500" d="M426.5,-818.3476C426.5,-789.7723 426.5,-751.491 426.5,-725.6264"/>
<polygon fill="#ffa500" stroke="#ffa500" points="423.0001,-818.3952 426.5,-828.3952 430.0001,-818.3952 423.0001,-818.3952"/>
<text text-anchor="middle" x="459.5" y="-802" font-family="Helvetica,sans-Serif" font-size="10.00" fill="#000000"> &lt; TypeList &gt;</text>
</g>
<!-- Node9&#45;&gt;Node1 -->
<g id="edge8" class="edge">
<title>Node9&#45;&gt;Node1</title>
<path fill="none" stroke="#404040" d="M412.2175,-226.3421C406.0439,-209.6381 398.0309,-190.9094 388.5,-175 382.3141,-164.6743 375.0235,-154.3514 367.3837,-144.5024"/>
<polygon fill="none" stroke="#404040" points="367.1456,-144.2043 360.2754,-142.0133 359.6554,-134.8289 366.5257,-137.0199 367.1456,-144.2043"/>
<text text-anchor="middle" x="449" y="-178" font-family="Helvetica,sans-Serif" font-size="10.00" fill="#000000"> &#45;m_ResourceManager</text>
</g>
<!-- Node10 -->
<g id="node10" class="node">
<title>Node10</title>
<g id="a_node10"><a xlink:href="classGameLoopMQ.html" target="_top" xlink:title="Game loop Actor&#39;s message queue. ">
<polygon fill="none" stroke="#000000" points="150,-243 150,-300 235,-300 235,-243 150,-243"/>
<text text-anchor="middle" x="192.5" y="-288" font-family="Helvetica,sans-Serif" font-size="10.00" fill="#000000">GameLoopMQ</text>
<polyline fill="none" stroke="#000000" points="150,-281 235,-281 "/>
<text text-anchor="middle" x="192.5" y="-269" font-family="Helvetica,sans-Serif" font-size="10.00" fill="#000000"> </text>
<polyline fill="none" stroke="#000000" points="150,-262 235,-262 "/>
<text text-anchor="middle" x="192.5" y="-250" font-family="Helvetica,sans-Serif" font-size="10.00" fill="#000000"> </text>
</a>
</g>
</g>
<!-- Node10&#45;&gt;Node1 -->
<g id="edge10" class="edge">
<title>Node10&#45;&gt;Node1</title>
<path fill="none" stroke="#404040" d="M192.6577,-242.5835C193.844,-222.6009 197.6266,-195.9518 208.5,-175 217.5174,-157.6244 230.8101,-141.4808 244.715,-127.5622"/>
<polygon fill="none" stroke="#404040" points="244.7693,-127.5099 246.3216,-120.4678 253.419,-119.1923 251.8667,-126.2343 244.7693,-127.5099"/>
<text text-anchor="middle" x="254" y="-178" font-family="Helvetica,sans-Serif" font-size="10.00" fill="#000000"> &#45;m_GameLoopMQ</text>
</g>
<!-- Node11&#45;&gt;Node10 -->
<g id="edge11" class="edge">
<title>Node11&#45;&gt;Node10</title>
<path fill="none" stroke="#191970" d="M223.927,-366.763C215.8975,-342.4235 207.9161,-318.2299 202.0059,-300.3147"/>
<polygon fill="none" stroke="#191970" points="220.6656,-368.0491 227.1224,-376.4491 227.3132,-365.856 220.6656,-368.0491"/>
</g>
<!-- Node12&#45;&gt;Node1 -->
<g id="edge13" class="edge">
<title>Node12&#45;&gt;Node1</title>
<path fill="none" stroke="#404040" d="M534.1603,-204.3447C526.2327,-193.7127 517.2802,-183.4543 507.5,-175 467.5308,-140.4493 413.0467,-115.31 370.8862,-99.3677"/>
<polygon fill="none" stroke="#404040" points="370.8804,-99.3656 363.8671,-101.0431 359.6213,-95.2145 366.6346,-93.537 370.8804,-99.3656"/>
<text text-anchor="middle" x="558" y="-178" font-family="Helvetica,sans-Serif" font-size="10.00" fill="#000000"> &#45;m_GameClock</text>
</g>
</g>
</svg>
