<?xml version="1.0" encoding="UTF-8" standalone="no"?>
<!DOCTYPE svg PUBLIC "-//W3C//DTD SVG 1.1//EN"
 "http://www.w3.org/Graphics/SVG/1.1/DTD/svg11.dtd">
<!-- Generated by graphviz version 2.40.1 (20161225.0304)
 -->
<!-- Title: Map::calculateAutotileBitmask Pages: 1 -->
<svg width="554pt" height="78pt"
 viewBox="0.00 0.00 554.00 77.50" xmlns="http://www.w3.org/2000/svg" xmlns:xlink="http://www.w3.org/1999/xlink">
<g id="graph0" class="graph" transform="scale(1 1) rotate(0) translate(4 73.5)">
<title>Map::calculateAutotileBitmask</title>
<!-- Node40 -->
<g id="node1" class="node">
<title>Node40</title>
<polygon fill="#bfbfbf" stroke="#000000" points="0,-22.5 0,-41.5 166,-41.5 166,-22.5 0,-22.5"/>
<text text-anchor="middle" x="83" y="-29.5" font-family="Helvetica,sans-Serif" font-size="10.00" fill="#000000">Map::calculateAutotileBitmask</text>
</g>
<!-- Node41 -->
<g id="node2" class="node">
<title>Node41</title>
<g id="a_node2"><a xlink:href="classMapNode.html#a6b57e4355d0780fb37c34d63bbcdfdf9" target="_top" xlink:title="MapNode::getMapNodeDataFor\lLayer">
<polygon fill="none" stroke="#000000" points="202,-39 202,-69 370,-69 370,-39 202,-39"/>
<text text-anchor="start" x="210" y="-57" font-family="Helvetica,sans-Serif" font-size="10.00" fill="#000000">MapNode::getMapNodeDataFor</text>
<text text-anchor="middle" x="286" y="-46" font-family="Helvetica,sans-Serif" font-size="10.00" fill="#000000">Layer</text>
</a>
</g>
</g>
<!-- Node40&#45;&gt;Node41 -->
<g id="edge1" class="edge">
<title>Node40&#45;&gt;Node41</title>
<path fill="none" stroke="#191970" d="M166.1536,-41.0117C174.6531,-41.9328 183.3302,-42.8732 191.9356,-43.8058"/>
<polygon fill="#191970" stroke="#191970" points="191.6708,-47.2975 201.9897,-44.8954 192.425,-40.3383 191.6708,-47.2975"/>
</g>
<!-- Node42 -->
<g id="node3" class="node">
<title>Node42</title>
<g id="a_node3"><a xlink:href="classMapNode.html#afb1cbc0f9e987b7befced46220dd9277" target="_top" xlink:title="check if specific layer can be autotiled. ">
<polygon fill="none" stroke="#000000" points="214,-.5 214,-19.5 358,-19.5 358,-.5 214,-.5"/>
<text text-anchor="middle" x="286" y="-7.5" font-family="Helvetica,sans-Serif" font-size="10.00" fill="#000000">MapNode::isLayerAutoTile</text>
</a>
</g>
</g>
<!-- Node40&#45;&gt;Node42 -->
<g id="edge2" class="edge">
<title>Node40&#45;&gt;Node42</title>
<path fill="none" stroke="#191970" d="M166.1536,-22.9883C178.4717,-21.6533 191.1628,-20.2779 203.4681,-18.9443"/>
<polygon fill="#191970" stroke="#191970" points="204.1326,-22.3929 213.6973,-17.8358 203.3784,-15.4337 204.1326,-22.3929"/>
</g>
<!-- Node43 -->
<g id="node4" class="node">
<title>Node43</title>
<g id="a_node4"><a xlink:href="classMapNode.html#a64cb9a4523c9e78f256fde42f1dee43d" target="_top" xlink:title="check if specific Tile Data is autotile category. ">
<polygon fill="none" stroke="#000000" points="406,-.5 406,-19.5 546,-19.5 546,-.5 406,-.5"/>
<text text-anchor="middle" x="476" y="-7.5" font-family="Helvetica,sans-Serif" font-size="10.00" fill="#000000">MapNode::isDataAutoTile</text>
</a>
</g>
</g>
<!-- Node42&#45;&gt;Node43 -->
<g id="edge3" class="edge">
<title>Node42&#45;&gt;Node43</title>
<path fill="none" stroke="#191970" d="M358.1018,-10C370.3221,-10 383.0799,-10 395.4991,-10"/>
<polygon fill="#191970" stroke="#191970" points="395.8325,-13.5001 405.8324,-10 395.8324,-6.5001 395.8325,-13.5001"/>
</g>
</g>
</svg>
