<?xml version="1.0" encoding="UTF-8" standalone="no"?>
<!DOCTYPE svg PUBLIC "-//W3C//DTD SVG 1.1//EN"
 "http://www.w3.org/Graphics/SVG/1.1/DTD/svg11.dtd">
<!-- Generated by graphviz version 2.40.1 (20161225.0304)
 -->
<!-- Title: MapNode::isLayerOccupied Pages: 1 -->
<!--zoomable 123 -->
<svg id="main" version="1.1" xmlns="http://www.w3.org/2000/svg" xmlns:xlink="http://www.w3.org/1999/xlink" xml:space="preserve" onload="init(evt)">
<style type="text/css"><![CDATA[
.edge:hover path { stroke: red; }
.edge:hover polygon { stroke: red; fill: red; }
]]></style>
<script type="text/javascript"><![CDATA[
var edges = document.getElementsByTagName('g');
if (edges && edges.length) {
  for (var i=0;i<edges.length;i++) {
    if (edges[i].id.substr(0,4)=='edge') {
      edges[i].setAttribute('class','edge');
    }
  }
}
]]></script>
        <defs>
                <circle id="rim" cx="0" cy="0" r="7"/>
                <circle id="rim2" cx="0" cy="0" r="3.5"/>
                <g id="zoomPlus">
                        <use xlink:href="#rim" fill="#404040">
                                <set attributeName="fill" to="#808080" begin="zoomplus.mouseover" end="zoomplus.mouseout"/>
                        </use>
                        <path d="M-4,0h8M0,-4v8" fill="none" stroke="white" stroke-width="1.5" pointer-events="none"/>
                </g>
                <g id="zoomMin">
                        <use xlink:href="#rim" fill="#404040">
                                <set attributeName="fill" to="#808080" begin="zoomminus.mouseover" end="zoomminus.mouseout"/>
                        </use>
                        <path d="M-4,0h8" fill="none" stroke="white" stroke-width="1.5" pointer-events="none"/>
                </g>
                <g id="dirArrow">
                        <path fill="none" stroke="white" stroke-width="1.5" d="M0,-3.0v7 M-2.5,-0.5L0,-3.0L2.5,-0.5"/>
                </g>
               <g id="resetDef">
                       <use xlink:href="#rim2" fill="#404040">
                               <set attributeName="fill" to="#808080" begin="reset.mouseover" end="reset.mouseout"/>
                       </use>
               </g>
        </defs>

<script type="text/javascript">
var viewWidth = 1191;
var viewHeight = 123;
var sectionId = 'dynsection-19';
</script>
<script xlink:href="svgpan.js"/>
<svg id="graph" class="graph">
<g id="viewport">
<title>MapNode::isLayerOccupied</title>
<!-- Node265 -->
<g id="node1" class="node">
<title>Node265</title>
<polygon fill="#bfbfbf" stroke="#000000" points="0,-38.5 0,-57.5 149,-57.5 149,-38.5 0,-38.5"/>
<text text-anchor="middle" x="74.5" y="-45.5" font-family="Helvetica,sans-Serif" font-size="10.00" fill="#000000">MapNode::isLayerOccupied</text>
</g>
<!-- Node266 -->
<g id="node2" class="node">
<title>Node266</title>
<g id="a_node2"><a xlink:href="classMapNode.html#a26e55c94192a56990f8a59e7af139a73" target="_top" xlink:title="MapNode::setTileID">
<polygon fill="none" stroke="#000000" points="212.5,-76.5 212.5,-95.5 324.5,-95.5 324.5,-76.5 212.5,-76.5"/>
<text text-anchor="middle" x="268.5" y="-83.5" font-family="Helvetica,sans-Serif" font-size="10.00" fill="#000000">MapNode::setTileID</text>
</a>
</g>
</g>
<!-- Node265&#45;&gt;Node266 -->
<g id="edge1" class="edge">
<title>Node265&#45;&gt;Node266</title>
<path fill="none" stroke="#191970" d="M133.4052,-59.5381C161.0751,-64.958 193.6619,-71.341 219.8976,-76.4799"/>
<polygon fill="#191970" stroke="#191970" points="133.9407,-56.0766 123.4544,-57.589 132.5951,-62.946 133.9407,-56.0766"/>
</g>
<!-- Node274 -->
<g id="node10" class="node">
<title>Node274</title>
<g id="a_node10"><a xlink:href="classMapNode.html#a3d88c4eff75c599fb6fd37afd1c882b6" target="_top" xlink:title="MapNode::isPlacementAllowed">
<polygon fill="none" stroke="#000000" points="185,-38.5 185,-57.5 352,-57.5 352,-38.5 185,-38.5"/>
<text text-anchor="middle" x="268.5" y="-45.5" font-family="Helvetica,sans-Serif" font-size="10.00" fill="#000000">MapNode::isPlacementAllowed</text>
</a>
</g>
</g>
<!-- Node265&#45;&gt;Node274 -->
<g id="edge9" class="edge">
<title>Node265&#45;&gt;Node274</title>
<path fill="none" stroke="#191970" d="M159.4132,-48C167.8277,-48 176.3654,-48 184.7677,-48"/>
<polygon fill="#191970" stroke="#191970" points="159.228,-44.5001 149.228,-48 159.2279,-51.5001 159.228,-44.5001"/>
</g>
<!-- Node275 -->
<g id="node11" class="node">
<title>Node275</title>
<g id="a_node11"><a xlink:href="classMap.html#a178bdc025a3a5c2068d9de5b642c52bd" target="_top" xlink:title="Map::isAllowSetTileId">
<polygon fill="none" stroke="#000000" points="208,-.5 208,-19.5 329,-19.5 329,-.5 208,-.5"/>
<text text-anchor="middle" x="268.5" y="-7.5" font-family="Helvetica,sans-Serif" font-size="10.00" fill="#000000">Map::isAllowSetTileId</text>
</a>
</g>
</g>
<!-- Node265&#45;&gt;Node275 -->
<g id="edge10" class="edge">
<title>Node265&#45;&gt;Node275</title>
<path fill="none" stroke="#191970" d="M133.4052,-36.4619C161.0751,-31.042 193.6619,-24.659 219.8976,-19.5201"/>
<polygon fill="#191970" stroke="#191970" points="132.5951,-33.054 123.4544,-38.411 133.9407,-39.9234 132.5951,-33.054"/>
</g>
<!-- Node267 -->
<g id="node3" class="node">
<title>Node267</title>
<g id="a_node3"><a xlink:href="classMapNode.html#ae515fc96b543bf97237bfb1ca53fe571" target="_top" xlink:title="MapNode::MapNode">
<polygon fill="none" stroke="#000000" points="392.5,-95.5 392.5,-114.5 506.5,-114.5 506.5,-95.5 392.5,-95.5"/>
<text text-anchor="middle" x="449.5" y="-102.5" font-family="Helvetica,sans-Serif" font-size="10.00" fill="#000000">MapNode::MapNode</text>
</a>
</g>
</g>
<!-- Node266&#45;&gt;Node267 -->
<g id="edge2" class="edge">
<title>Node266&#45;&gt;Node267</title>
<path fill="none" stroke="#191970" d="M334.7841,-92.958C353.6551,-94.9389 374.0424,-97.079 392.3217,-98.9979"/>
<polygon fill="#191970" stroke="#191970" points="335.0881,-89.4708 324.7774,-91.9076 334.3573,-96.4325 335.0881,-89.4708"/>
</g>
<!-- Node268 -->
<g id="node4" class="node">
<title>Node268</title>
<g id="a_node4"><a xlink:href="classMap.html#a404c38b33d61f8c63ce2c2efb864d6dd" target="_top" xlink:title="Set the Tile ID Of Node object Also invokes all necessary texture updates (auto&#45;tiling, slopes, ...) ">
<polygon fill="none" stroke="#000000" points="388,-57.5 388,-76.5 511,-76.5 511,-57.5 388,-57.5"/>
<text text-anchor="middle" x="449.5" y="-64.5" font-family="Helvetica,sans-Serif" font-size="10.00" fill="#000000">Map::setTileIDOfNode</text>
</a>
</g>
</g>
<!-- Node266&#45;&gt;Node268 -->
<g id="edge3" class="edge">
<title>Node266&#45;&gt;Node268</title>
<path fill="none" stroke="#191970" d="M334.8257,-79.0376C352.1792,-77.216 370.8124,-75.26 387.9079,-73.4655"/>
<polygon fill="#191970" stroke="#191970" points="334.3573,-75.5675 324.7774,-80.0924 335.0881,-82.5292 334.3573,-75.5675"/>
</g>
<!-- Node269 -->
<g id="node5" class="node">
<title>Node269</title>
<g id="a_node5"><a xlink:href="classEngine.html#a7a1521fd7fc731f961ebaf3f723127d9" target="_top" xlink:title="Engine::setTileIDOfNode">
<polygon fill="none" stroke="#000000" points="547,-57.5 547,-76.5 683,-76.5 683,-57.5 547,-57.5"/>
<text text-anchor="middle" x="615" y="-64.5" font-family="Helvetica,sans-Serif" font-size="10.00" fill="#000000">Engine::setTileIDOfNode</text>
</a>
</g>
</g>
<!-- Node268&#45;&gt;Node269 -->
<g id="edge4" class="edge">
<title>Node268&#45;&gt;Node269</title>
<path fill="none" stroke="#191970" d="M521.3736,-67C529.858,-67 538.4976,-67 546.9273,-67"/>
<polygon fill="#191970" stroke="#191970" points="521.1261,-63.5001 511.1261,-67 521.1261,-70.5001 521.1261,-63.5001"/>
</g>
<!-- Node270 -->
<g id="node6" class="node">
<title>Node270</title>
<g id="a_node6"><a xlink:href="classEventManager.html#a65ec91fd5016d4f9c4167fb8babed2df" target="_top" xlink:title="EventManager::checkEvents">
<polygon fill="none" stroke="#000000" points="719,-57.5 719,-76.5 873,-76.5 873,-57.5 719,-57.5"/>
<text text-anchor="middle" x="796" y="-64.5" font-family="Helvetica,sans-Serif" font-size="10.00" fill="#000000">EventManager::checkEvents</text>
</a>
</g>
</g>
<!-- Node269&#45;&gt;Node270 -->
<g id="edge5" class="edge">
<title>Node269&#45;&gt;Node270</title>
<path fill="none" stroke="#191970" d="M693.3623,-67C701.7925,-67 710.3658,-67 718.7824,-67"/>
<polygon fill="#191970" stroke="#191970" points="693.1705,-63.5001 683.1704,-67 693.1704,-70.5001 693.1705,-63.5001"/>
</g>
<!-- Node271 -->
<g id="node7" class="node">
<title>Node271</title>
<g id="a_node7"><a xlink:href="classGame.html#a1c2ab25d5216b2f4b2fe41efd2c09114" target="_top" xlink:title="begins the game starts running the game ">
<polygon fill="none" stroke="#000000" points="909,-57.5 909,-76.5 977,-76.5 977,-57.5 909,-57.5"/>
<text text-anchor="middle" x="943" y="-64.5" font-family="Helvetica,sans-Serif" font-size="10.00" fill="#000000">Game::run</text>
</a>
</g>
</g>
<!-- Node270&#45;&gt;Node271 -->
<g id="edge6" class="edge">
<title>Node270&#45;&gt;Node271</title>
<path fill="none" stroke="#191970" d="M883.5248,-67C892.4338,-67 901.0572,-67 908.845,-67"/>
<polygon fill="#191970" stroke="#191970" points="883.3744,-63.5001 873.3744,-67 883.3743,-70.5001 883.3744,-63.5001"/>
</g>
<!-- Node272 -->
<g id="node8" class="node">
<title>Node272</title>
<g id="a_node8"><a xlink:href="main_8cxx.html#af582d708d899e67ead623eac34a22387" target="_top" xlink:title="protected_main">
<polygon fill="none" stroke="#000000" points="1013,-57.5 1013,-76.5 1106,-76.5 1106,-57.5 1013,-57.5"/>
<text text-anchor="middle" x="1059.5" y="-64.5" font-family="Helvetica,sans-Serif" font-size="10.00" fill="#000000">protected_main</text>
</a>
</g>
</g>
<!-- Node271&#45;&gt;Node272 -->
<g id="edge7" class="edge">
<title>Node271&#45;&gt;Node272</title>
<path fill="none" stroke="#191970" d="M987.2653,-67C995.5757,-67 1004.2897,-67 1012.6749,-67"/>
<polygon fill="#191970" stroke="#191970" points="987.0098,-63.5001 977.0098,-67 987.0098,-70.5001 987.0098,-63.5001"/>
</g>
<!-- Node273 -->
<g id="node9" class="node">
<title>Node273</title>
<g id="a_node9"><a xlink:href="main_8cxx.html#a3c04138a5bfe5d72780bb7e82a18e627" target="_top" xlink:title="main">
<polygon fill="none" stroke="#000000" points="1142,-57.5 1142,-76.5 1183,-76.5 1183,-57.5 1142,-57.5"/>
<text text-anchor="middle" x="1162.5" y="-64.5" font-family="Helvetica,sans-Serif" font-size="10.00" fill="#000000">main</text>
</a>
</g>
</g>
<!-- Node272&#45;&gt;Node273 -->
<g id="edge8" class="edge">
<title>Node272&#45;&gt;Node273</title>
<path fill="none" stroke="#191970" d="M1116.2133,-67C1125.4322,-67 1134.4259,-67 1141.9965,-67"/>
<polygon fill="#191970" stroke="#191970" points="1116.1782,-63.5001 1106.1782,-67 1116.1781,-70.5001 1116.1782,-63.5001"/>
</g>
</g>
</svg>
        <g id="navigator" transform="translate(0 0)" fill="#404254">
                <rect fill="#f2f5e9" fill-opacity="0.5" stroke="#606060" stroke-width=".5" x="0" y="0" width="60" height="60"/>
                <use id="zoomplus" xlink:href="#zoomPlus" x="17" y="9" onmousedown="handleZoom(evt,'in')"/>
                <use id="zoomminus" xlink:href="#zoomMin" x="42" y="9" onmousedown="handleZoom(evt,'out')"/>
                <use id="reset" xlink:href="#resetDef" x="30" y="36" onmousedown="handleReset()"/>
                <g id="arrowUp" xlink:href="#dirArrow" transform="translate(30 24)" onmousedown="handlePan(0,-1)">
                  <use xlink:href="#rim" fill="#404040">
                        <set attributeName="fill" to="#808080" begin="arrowUp.mouseover" end="arrowUp.mouseout"/>
                  </use>
                  <path fill="none" stroke="white" stroke-width="1.5" d="M0,-3.0v7 M-2.5,-0.5L0,-3.0L2.5,-0.5"/>
                </g>
                <g id="arrowRight" xlink:href="#dirArrow" transform="rotate(90) translate(36 -43)" onmousedown="handlePan(1,0)">
                  <use xlink:href="#rim" fill="#404040">
                        <set attributeName="fill" to="#808080" begin="arrowRight.mouseover" end="arrowRight.mouseout"/>
                  </use>
                  <path fill="none" stroke="white" stroke-width="1.5" d="M0,-3.0v7 M-2.5,-0.5L0,-3.0L2.5,-0.5"/>
                </g>
                <g id="arrowDown" xlink:href="#dirArrow" transform="rotate(180) translate(-30 -48)" onmousedown="handlePan(0,1)">
                  <use xlink:href="#rim" fill="#404040">
                        <set attributeName="fill" to="#808080" begin="arrowDown.mouseover" end="arrowDown.mouseout"/>
                  </use>
                  <path fill="none" stroke="white" stroke-width="1.5" d="M0,-3.0v7 M-2.5,-0.5L0,-3.0L2.5,-0.5"/>
                </g>
                <g id="arrowLeft" xlink:href="#dirArrow" transform="rotate(270) translate(-36 17)" onmousedown="handlePan(-1,0)">
                  <use xlink:href="#rim" fill="#404040">
                        <set attributeName="fill" to="#808080" begin="arrowLeft.mouseover" end="arrowLeft.mouseout"/>
                  </use>
                  <path fill="none" stroke="white" stroke-width="1.5" d="M0,-3.0v7 M-2.5,-0.5L0,-3.0L2.5,-0.5"/>
                </g>
        </g>
        <svg viewBox="0 0 15 15" width="100%" height="30px" preserveAspectRatio="xMaxYMin meet">
         <g id="arrow_out" transform="scale(0.3 0.3)">
          <a xlink:href="classMapNode_ae38d4ab8e73fc9c44e404f3c9a196953_icgraph_org.svg" target="_base">
           <rect id="button" ry="5" rx="5" y="6" x="6" height="38" width="38"
                fill="#f2f5e9" fill-opacity="0.5" stroke="#606060" stroke-width="1.0"/>
           <path id="arrow"
             d="M 11.500037,31.436501 C 11.940474,20.09759 22.043105,11.32322 32.158766,21.979434 L 37.068811,17.246167 C 37.068811,17.246167 37.088388,32 37.088388,32 L 22.160133,31.978069 C 22.160133,31.978069 26.997745,27.140456 26.997745,27.140456 C 18.528582,18.264221 13.291696,25.230495 11.500037,31.436501 z"
             style="fill:#404040;"/>
          </a>
         </g>
        </svg>
</svg>
