<?xml version="1.0" encoding="UTF-8" standalone="no"?>
<!DOCTYPE svg PUBLIC "-//W3C//DTD SVG 1.1//EN"
 "http://www.w3.org/Graphics/SVG/1.1/DTD/svg11.dtd">
<!-- Generated by graphviz version 2.40.1 (20161225.0304)
 -->
<!-- Title: Map::demolishNode Pages: 1 -->
<!--zoomable 200 -->
<svg id="main" version="1.1" xmlns="http://www.w3.org/2000/svg" xmlns:xlink="http://www.w3.org/1999/xlink" xml:space="preserve" onload="init(evt)">
<style type="text/css"><![CDATA[
.edge:hover path { stroke: red; }
.edge:hover polygon { stroke: red; fill: red; }
]]></style>
<script type="text/javascript"><![CDATA[
var edges = document.getElementsByTagName('g');
if (edges && edges.length) {
  for (var i=0;i<edges.length;i++) {
    if (edges[i].id.substr(0,4)=='edge') {
      edges[i].setAttribute('class','edge');
    }
  }
}
]]></script>
        <defs>
                <circle id="rim" cx="0" cy="0" r="7"/>
                <circle id="rim2" cx="0" cy="0" r="3.5"/>
                <g id="zoomPlus">
                        <use xlink:href="#rim" fill="#404040">
                                <set attributeName="fill" to="#808080" begin="zoomplus.mouseover" end="zoomplus.mouseout"/>
                        </use>
                        <path d="M-4,0h8M0,-4v8" fill="none" stroke="white" stroke-width="1.5" pointer-events="none"/>
                </g>
                <g id="zoomMin">
                        <use xlink:href="#rim" fill="#404040">
                                <set attributeName="fill" to="#808080" begin="zoomminus.mouseover" end="zoomminus.mouseout"/>
                        </use>
                        <path d="M-4,0h8" fill="none" stroke="white" stroke-width="1.5" pointer-events="none"/>
                </g>
                <g id="dirArrow">
                        <path fill="none" stroke="white" stroke-width="1.5" d="M0,-3.0v7 M-2.5,-0.5L0,-3.0L2.5,-0.5"/>
                </g>
               <g id="resetDef">
                       <use xlink:href="#rim2" fill="#404040">
                               <set attributeName="fill" to="#808080" begin="reset.mouseover" end="reset.mouseout"/>
                       </use>
               </g>
        </defs>

<script type="text/javascript">
var viewWidth = 1673;
var viewHeight = 200;
var sectionId = 'dynsection-12';
</script>
<script xlink:href="svgpan.js"/>
<svg id="graph" class="graph">
<g id="viewport">
<title>Map::demolishNode</title>
<!-- Node152 -->
<g id="node1" class="node">
<title>Node152</title>
<polygon fill="#bfbfbf" stroke="#000000" points="0,-115.5584 0,-134.5584 113,-134.5584 113,-115.5584 0,-115.5584"/>
<text text-anchor="middle" x="56.5" y="-122.5584" font-family="Helvetica,sans-Serif" font-size="10.00" fill="#000000">Map::demolishNode</text>
</g>
<!-- Node153 -->
<g id="node2" class="node">
<title>Node153</title>
<g id="a_node2"><a xlink:href="classEventManager.html#a65ec91fd5016d4f9c4167fb8babed2df" target="_top" xlink:title="EventManager::checkEvents">
<polygon fill="none" stroke="#000000" points="1154,-106.5584 1154,-125.5584 1308,-125.5584 1308,-106.5584 1154,-106.5584"/>
<text text-anchor="middle" x="1231" y="-113.5584" font-family="Helvetica,sans-Serif" font-size="10.00" fill="#000000">EventManager::checkEvents</text>
</a>
</g>
</g>
<!-- Node152&#45;&gt;Node153 -->
<g id="edge1" class="edge">
<title>Node152&#45;&gt;Node153</title>
<path fill="none" stroke="#191970" d="M95.1129,-137.7498C157.7475,-157.1759 285.7116,-192.0584 397,-192.0584 397,-192.0584 397,-192.0584 873.5,-192.0584 999.7714,-192.0584 1145.7544,-146.1344 1204.5024,-125.6838"/>
<polygon fill="#191970" stroke="#191970" points="95.8632,-134.3169 85.2739,-134.6579 93.7646,-140.9949 95.8632,-134.3169"/>
</g>
<!-- Node157 -->
<g id="node6" class="node">
<title>Node157</title>
<g id="a_node6"><a xlink:href="classMap.html#ade1eeabf4e539f9dbfe2a96c97fda4e3" target="_top" xlink:title="Map::changeHeight">
<polygon fill="none" stroke="#000000" points="342,-115.5584 342,-134.5584 452,-134.5584 452,-115.5584 342,-115.5584"/>
<text text-anchor="middle" x="397" y="-122.5584" font-family="Helvetica,sans-Serif" font-size="10.00" fill="#000000">Map::changeHeight</text>
</a>
</g>
</g>
<!-- Node152&#45;&gt;Node157 -->
<g id="edge5" class="edge">
<title>Node152&#45;&gt;Node157</title>
<path fill="none" stroke="#191970" d="M123.4738,-125.0584C187.3394,-125.0584 282.371,-125.0584 341.9499,-125.0584"/>
<polygon fill="#191970" stroke="#191970" points="123.1089,-121.5585 113.1089,-125.0584 123.1088,-128.5585 123.1089,-121.5585"/>
</g>
<!-- Node162 -->
<g id="node11" class="node">
<title>Node162</title>
<g id="a_node11"><a xlink:href="classMap.html#af1e496c421981fe707890b0ba60cc20f" target="_top" xlink:title="Map::updateNodeNeighbors">
<polygon fill="none" stroke="#000000" points="149,-96.5584 149,-115.5584 301,-115.5584 301,-96.5584 149,-96.5584"/>
<text text-anchor="middle" x="225" y="-103.5584" font-family="Helvetica,sans-Serif" font-size="10.00" fill="#000000">Map::updateNodeNeighbors</text>
</a>
</g>
</g>
<!-- Node152&#45;&gt;Node162 -->
<g id="edge12" class="edge">
<title>Node152&#45;&gt;Node162</title>
<path fill="none" stroke="#191970" d="M101.6062,-113.9166C116.1361,-111.7233 132.6634,-109.6374 148.7937,-107.9288"/>
<polygon fill="#191970" stroke="#191970" points="100.7437,-110.5095 91.4133,-115.5288 101.8373,-117.4235 100.7437,-110.5095"/>
</g>
<!-- Node154 -->
<g id="node3" class="node">
<title>Node154</title>
<g id="a_node3"><a xlink:href="classGame.html#a1c2ab25d5216b2f4b2fe41efd2c09114" target="_top" xlink:title="begins the game starts running the game ">
<polygon fill="none" stroke="#000000" points="1373.5,-106.5584 1373.5,-125.5584 1441.5,-125.5584 1441.5,-106.5584 1373.5,-106.5584"/>
<text text-anchor="middle" x="1407.5" y="-113.5584" font-family="Helvetica,sans-Serif" font-size="10.00" fill="#000000">Game::run</text>
</a>
</g>
</g>
<!-- Node153&#45;&gt;Node154 -->
<g id="edge2" class="edge">
<title>Node153&#45;&gt;Node154</title>
<path fill="none" stroke="#191970" d="M1318.3664,-116.0584C1337.9355,-116.0584 1357.5625,-116.0584 1373.398,-116.0584"/>
<polygon fill="#191970" stroke="#191970" points="1318.1587,-112.5585 1308.1587,-116.0584 1318.1587,-119.5585 1318.1587,-112.5585"/>
</g>
<!-- Node155 -->
<g id="node4" class="node">
<title>Node155</title>
<g id="a_node4"><a xlink:href="main_8cxx.html#af582d708d899e67ead623eac34a22387" target="_top" xlink:title="protected_main">
<polygon fill="none" stroke="#000000" points="1495,-87.5584 1495,-106.5584 1588,-106.5584 1588,-87.5584 1495,-87.5584"/>
<text text-anchor="middle" x="1541.5" y="-94.5584" font-family="Helvetica,sans-Serif" font-size="10.00" fill="#000000">protected_main</text>
</a>
</g>
</g>
<!-- Node154&#45;&gt;Node155 -->
<g id="edge3" class="edge">
<title>Node154&#45;&gt;Node155</title>
<path fill="none" stroke="#191970" d="M1451.8611,-109.7684C1465.6278,-107.8164 1480.8396,-105.6595 1494.7626,-103.6853"/>
<polygon fill="#191970" stroke="#191970" points="1451.0702,-106.3454 1441.6606,-111.2147 1452.0529,-113.2761 1451.0702,-106.3454"/>
</g>
<!-- Node156 -->
<g id="node5" class="node">
<title>Node156</title>
<g id="a_node5"><a xlink:href="main_8cxx.html#a3c04138a5bfe5d72780bb7e82a18e627" target="_top" xlink:title="main">
<polygon fill="none" stroke="#000000" points="1624,-87.5584 1624,-106.5584 1665,-106.5584 1665,-87.5584 1624,-87.5584"/>
<text text-anchor="middle" x="1644.5" y="-94.5584" font-family="Helvetica,sans-Serif" font-size="10.00" fill="#000000">main</text>
</a>
</g>
</g>
<!-- Node155&#45;&gt;Node156 -->
<g id="edge4" class="edge">
<title>Node155&#45;&gt;Node156</title>
<path fill="none" stroke="#191970" d="M1598.2133,-97.0584C1607.4322,-97.0584 1616.4259,-97.0584 1623.9965,-97.0584"/>
<polygon fill="#191970" stroke="#191970" points="1598.1782,-93.5585 1588.1782,-97.0584 1598.1781,-100.5585 1598.1782,-93.5585"/>
</g>
<!-- Node158 -->
<g id="node7" class="node">
<title>Node158</title>
<g id="a_node7"><a xlink:href="classMap.html#aba5154a4d917900679a3c0f7ec701561" target="_top" xlink:title="Increase Height Increases the height of the node and checks the surrounding tiles. Either draw a slope sprite or elevate the tile if necessary. ">
<polygon fill="none" stroke="#000000" points="494.5,-144.5584 494.5,-163.5584 610.5,-163.5584 610.5,-144.5584 494.5,-144.5584"/>
<text text-anchor="middle" x="552.5" y="-151.5584" font-family="Helvetica,sans-Serif" font-size="10.00" fill="#000000">Map::increaseHeight</text>
</a>
</g>
</g>
<!-- Node157&#45;&gt;Node158 -->
<g id="edge6" class="edge">
<title>Node157&#45;&gt;Node158</title>
<path fill="none" stroke="#191970" d="M458.5432,-136.5359C472.7689,-139.1889 487.7522,-141.9832 501.4716,-144.5418"/>
<polygon fill="#191970" stroke="#191970" points="458.8197,-133.0272 448.3475,-134.6344 457.5363,-139.9085 458.8197,-133.0272"/>
</g>
<!-- Node160 -->
<g id="node9" class="node">
<title>Node160</title>
<g id="a_node9"><a xlink:href="classMap.html#afb8cc864df90d273a5074872d635dc40" target="_top" xlink:title="Decrease Height Decreases the height of the node and checks the surrounding tiles. Either draw a slope sprite or lower the tile if necessary. ">
<polygon fill="none" stroke="#000000" points="493,-106.5584 493,-125.5584 612,-125.5584 612,-106.5584 493,-106.5584"/>
<text text-anchor="middle" x="552.5" y="-113.5584" font-family="Helvetica,sans-Serif" font-size="10.00" fill="#000000">Map::decreaseHeight</text>
</a>
</g>
</g>
<!-- Node157&#45;&gt;Node160 -->
<g id="edge9" class="edge">
<title>Node157&#45;&gt;Node160</title>
<path fill="none" stroke="#191970" d="M462.2978,-121.2791C472.458,-120.691 482.9095,-120.0861 492.9337,-119.506"/>
<polygon fill="#191970" stroke="#191970" points="462.0423,-117.7879 452.2613,-121.86 462.4469,-124.7762 462.0423,-117.7879"/>
</g>
<!-- Node159 -->
<g id="node8" class="node">
<title>Node159</title>
<g id="a_node8"><a xlink:href="classEngine.html#a4851ae1ff696c893741167fc0194fd77" target="_top" xlink:title="Increase Height Increases the height of the given map node Calls the according function of the Map ob...">
<polygon fill="none" stroke="#000000" points="809,-144.5584 809,-163.5584 938,-163.5584 938,-144.5584 809,-144.5584"/>
<text text-anchor="middle" x="873.5" y="-151.5584" font-family="Helvetica,sans-Serif" font-size="10.00" fill="#000000">Engine::increaseHeight</text>
</a>
</g>
</g>
<!-- Node158&#45;&gt;Node159 -->
<g id="edge7" class="edge">
<title>Node158&#45;&gt;Node159</title>
<path fill="none" stroke="#191970" d="M620.742,-154.0584C676.3447,-154.0584 754.3155,-154.0584 808.9082,-154.0584"/>
<polygon fill="#191970" stroke="#191970" points="620.6307,-150.5585 610.6307,-154.0584 620.6306,-157.5585 620.6307,-150.5585"/>
</g>
<!-- Node159&#45;&gt;Node153 -->
<g id="edge8" class="edge">
<title>Node159&#45;&gt;Node153</title>
<path fill="none" stroke="#191970" d="M948.3694,-149.2633C994.0024,-146.0121 1053.4563,-141.1912 1106,-135.0584 1128.2387,-132.4627 1152.6,-128.9192 1173.862,-125.5952"/>
<polygon fill="#191970" stroke="#191970" points="947.9917,-145.7811 938.2618,-149.9739 948.4827,-152.7639 947.9917,-145.7811"/>
</g>
<!-- Node161 -->
<g id="node10" class="node">
<title>Node161</title>
<g id="a_node10"><a xlink:href="classEngine.html#a13572fdd7f6470dca48a14497f58980e" target="_top" xlink:title="Decrease Height Decreases the height of the given map node Calls the according function of the Map ob...">
<polygon fill="none" stroke="#000000" points="974,-106.5584 974,-125.5584 1106,-125.5584 1106,-106.5584 974,-106.5584"/>
<text text-anchor="middle" x="1040" y="-113.5584" font-family="Helvetica,sans-Serif" font-size="10.00" fill="#000000">Engine::decreaseHeight</text>
</a>
</g>
</g>
<!-- Node160&#45;&gt;Node161 -->
<g id="edge10" class="edge">
<title>Node160&#45;&gt;Node161</title>
<path fill="none" stroke="#191970" d="M622.5299,-116.0584C716.451,-116.0584 882.0114,-116.0584 973.8891,-116.0584"/>
<polygon fill="#191970" stroke="#191970" points="622.2771,-112.5585 612.2771,-116.0584 622.277,-119.5585 622.2771,-112.5585"/>
</g>
<!-- Node161&#45;&gt;Node153 -->
<g id="edge11" class="edge">
<title>Node161&#45;&gt;Node153</title>
<path fill="none" stroke="#191970" d="M1116.4473,-116.0584C1128.7119,-116.0584 1141.4135,-116.0584 1153.698,-116.0584"/>
<polygon fill="#191970" stroke="#191970" points="1116.2665,-112.5585 1106.2665,-116.0584 1116.2665,-119.5585 1116.2665,-112.5585"/>
</g>
<!-- Node162&#45;&gt;Node152 -->
<g id="edge27" class="edge">
<title>Node162&#45;&gt;Node152</title>
<path fill="none" stroke="#191970" d="M179.8941,-117.2001C159.3582,-120.3 134.8327,-123.1854 113.0768,-125.0942"/>
<polygon fill="#191970" stroke="#191970" points="180.5974,-120.6325 189.9284,-115.6142 179.5046,-113.7183 180.5974,-120.6325"/>
</g>
<!-- Node162&#45;&gt;Node157 -->
<g id="edge13" class="edge">
<title>Node162&#45;&gt;Node157</title>
<path fill="none" stroke="#191970" d="M311.1553,-115.5755C321.5662,-116.7256 331.9739,-117.8753 341.7684,-118.9572"/>
<polygon fill="#191970" stroke="#191970" points="311.5167,-112.0943 301.1928,-114.475 310.7481,-119.0519 311.5167,-112.0943"/>
</g>
<!-- Node163 -->
<g id="node12" class="node">
<title>Node163</title>
<g id="a_node12"><a xlink:href="classMap.html#a481b37ba71ef0e51e836fc42805762dd" target="_top" xlink:title="Update all mapNodes Updates all mapNode and its adjacent tiles regarding height information, draws slopes for adjacent tiles and sets tiling for mapNode sprite if applicable. ">
<polygon fill="none" stroke="#000000" points="337,-68.5584 337,-87.5584 457,-87.5584 457,-68.5584 337,-68.5584"/>
<text text-anchor="middle" x="397" y="-75.5584" font-family="Helvetica,sans-Serif" font-size="10.00" fill="#000000">Map::updateAllNodes</text>
</a>
</g>
</g>
<!-- Node162&#45;&gt;Node163 -->
<g id="edge14" class="edge">
<title>Node162&#45;&gt;Node163</title>
<path fill="none" stroke="#191970" d="M293.8334,-94.8529C308.6504,-92.4409 324.1761,-89.9134 338.553,-87.573"/>
<polygon fill="#191970" stroke="#191970" points="293.0193,-91.4393 283.7116,-96.5007 294.144,-98.3484 293.0193,-91.4393"/>
</g>
<!-- Node164 -->
<g id="node13" class="node">
<title>Node164</title>
<g id="a_node13"><a xlink:href="classMap.html#a26eceeccd7b6ed693909b1927a25c67a" target="_top" xlink:title="Map::Map">
<polygon fill="none" stroke="#000000" points="521,-68.5584 521,-87.5584 584,-87.5584 584,-68.5584 521,-68.5584"/>
<text text-anchor="middle" x="552.5" y="-75.5584" font-family="Helvetica,sans-Serif" font-size="10.00" fill="#000000">Map::Map</text>
</a>
</g>
</g>
<!-- Node163&#45;&gt;Node164 -->
<g id="edge15" class="edge">
<title>Node163&#45;&gt;Node164</title>
<path fill="none" stroke="#191970" d="M467.1506,-78.0584C485.9085,-78.0584 505.262,-78.0584 520.7876,-78.0584"/>
<polygon fill="#191970" stroke="#191970" points="467.1204,-74.5585 457.1204,-78.0584 467.1203,-81.5585 467.1204,-74.5585"/>
</g>
<!-- Node165 -->
<g id="node14" class="node">
<title>Node165</title>
<g id="a_node14"><a xlink:href="classMap.html#afefe996cc1f62b61ec60d0ae415953bf" target="_top" xlink:title="Map::loadMapFromFile">
<polygon fill="none" stroke="#000000" points="648,-30.5584 648,-49.5584 773,-49.5584 773,-30.5584 648,-30.5584"/>
<text text-anchor="middle" x="710.5" y="-37.5584" font-family="Helvetica,sans-Serif" font-size="10.00" fill="#000000">Map::loadMapFromFile</text>
</a>
</g>
</g>
<!-- Node163&#45;&gt;Node165 -->
<g id="edge26" class="edge">
<title>Node163&#45;&gt;Node165</title>
<path fill="none" stroke="#191970" d="M449.7971,-66.5431C463.7907,-63.7838 478.9232,-61.0603 493,-59.0584 544.9744,-51.6671 604.3727,-46.7121 647.9492,-43.7208"/>
<polygon fill="#191970" stroke="#191970" points="448.9522,-63.143 439.8403,-68.5489 450.3346,-70.0051 448.9522,-63.143"/>
</g>
<!-- Node164&#45;&gt;Node165 -->
<g id="edge16" class="edge">
<title>Node164&#45;&gt;Node165</title>
<path fill="none" stroke="#191970" d="M593.8821,-68.1057C617.6505,-62.3893 647.3456,-55.2474 670.8219,-49.6012"/>
<polygon fill="#191970" stroke="#191970" points="592.9982,-64.7184 584.0939,-70.4599 594.6351,-71.5244 592.9982,-64.7184"/>
</g>
<!-- Node166 -->
<g id="node15" class="node">
<title>Node166</title>
<g id="a_node15"><a xlink:href="classEngine.html#a83b7dbeee899b36a13d5b07c7ad87ebc" target="_top" xlink:title="Loads a saved game Loads a saved Game. ">
<polygon fill="none" stroke="#000000" points="820.5,-30.5584 820.5,-49.5584 926.5,-49.5584 926.5,-30.5584 820.5,-30.5584"/>
<text text-anchor="middle" x="873.5" y="-37.5584" font-family="Helvetica,sans-Serif" font-size="10.00" fill="#000000">Engine::loadGame</text>
</a>
</g>
</g>
<!-- Node165&#45;&gt;Node166 -->
<g id="edge17" class="edge">
<title>Node165&#45;&gt;Node166</title>
<path fill="none" stroke="#191970" d="M783.4208,-40.0584C795.8687,-40.0584 808.5866,-40.0584 820.3955,-40.0584"/>
<polygon fill="#191970" stroke="#191970" points="783.0539,-36.5585 773.0539,-40.0584 783.0539,-43.5585 783.0539,-36.5585"/>
</g>
<!-- Node167 -->
<g id="node16" class="node">
<title>Node167</title>
<g id="a_node16"><a xlink:href="classEngine.html#a0ba57971ffb5173ecc425461f65a4cd8" target="_top" xlink:title="Quits the game Sets m_running to false and quitting the game. ">
<polygon fill="none" stroke="#000000" points="988,-68.5584 988,-87.5584 1092,-87.5584 1092,-68.5584 988,-68.5584"/>
<text text-anchor="middle" x="1040" y="-75.5584" font-family="Helvetica,sans-Serif" font-size="10.00" fill="#000000">Engine::quitGame</text>
</a>
</g>
</g>
<!-- Node166&#45;&gt;Node167 -->
<g id="edge18" class="edge">
<title>Node166&#45;&gt;Node167</title>
<path fill="none" stroke="#191970" d="M925.309,-51.8827C948.7825,-57.24 976.1654,-63.4895 998.2871,-68.5383"/>
<polygon fill="#191970" stroke="#191970" points="926.0431,-48.4603 915.515,-49.6474 924.4855,-55.2848 926.0431,-48.4603"/>
</g>
<!-- Node168 -->
<g id="node17" class="node">
<title>Node168</title>
<g id="a_node17"><a xlink:href="classUIManager.html#aa78e356fc3b356d790c848319d1c387e" target="_top" xlink:title="UIManager::setCallbackFunctions">
<polygon fill="none" stroke="#000000" points="1142,-30.5584 1142,-49.5584 1320,-49.5584 1320,-30.5584 1142,-30.5584"/>
<text text-anchor="middle" x="1231" y="-37.5584" font-family="Helvetica,sans-Serif" font-size="10.00" fill="#000000">UIManager::setCallbackFunctions</text>
</a>
</g>
</g>
<!-- Node166&#45;&gt;Node168 -->
<g id="edge24" class="edge">
<title>Node166&#45;&gt;Node168</title>
<path fill="none" stroke="#191970" d="M936.9417,-40.0584C993.8953,-40.0584 1078.0959,-40.0584 1141.8182,-40.0584"/>
<polygon fill="#191970" stroke="#191970" points="936.6354,-36.5585 926.6353,-40.0584 936.6353,-43.5585 936.6354,-36.5585"/>
</g>
<!-- Node170 -->
<g id="node19" class="node">
<title>Node170</title>
<g id="a_node19"><a xlink:href="classGame.html#a560299f0291c281f7b44e7ef0dd7b264" target="_top" xlink:title="initializes and displays the main menu initializes and displays the main menu ">
<polygon fill="none" stroke="#000000" points="1356,-68.5584 1356,-87.5584 1459,-87.5584 1459,-68.5584 1356,-68.5584"/>
<text text-anchor="middle" x="1407.5" y="-75.5584" font-family="Helvetica,sans-Serif" font-size="10.00" fill="#000000">Game::mainMenu</text>
</a>
</g>
</g>
<!-- Node166&#45;&gt;Node170 -->
<g id="edge25" class="edge">
<title>Node166&#45;&gt;Node170</title>
<path fill="none" stroke="#191970" d="M920.5242,-28.2186C1003.2887,-9.5212 1179.5229,20.6614 1320,-21.0584 1351.2834,-30.3491 1381.8332,-54.7547 1397.215,-68.4267"/>
<polygon fill="#191970" stroke="#191970" points="919.623,-24.8345 910.6653,-30.4922 921.1961,-31.6555 919.623,-24.8345"/>
</g>
<!-- Node167&#45;&gt;Node153 -->
<g id="edge19" class="edge">
<title>Node167&#45;&gt;Node153</title>
<path fill="none" stroke="#191970" d="M1098.3531,-89.6679C1125.5176,-95.0724 1157.4324,-101.4219 1183.1492,-106.5383"/>
<polygon fill="#191970" stroke="#191970" points="1098.6881,-86.166 1088.1974,-87.6474 1097.3222,-93.0315 1098.6881,-86.166"/>
</g>
<!-- Node167&#45;&gt;Node168 -->
<g id="edge20" class="edge">
<title>Node167&#45;&gt;Node168</title>
<path fill="none" stroke="#191970" d="M1098.3531,-66.4489C1125.5176,-61.0444 1157.4324,-54.6949 1183.1492,-49.5784"/>
<polygon fill="#191970" stroke="#191970" points="1097.3222,-63.0853 1088.1974,-68.4694 1098.6881,-69.9507 1097.3222,-63.0853"/>
</g>
<!-- Node169 -->
<g id="node18" class="node">
<title>Node169</title>
<g id="a_node18"><a xlink:href="classGame.html#a8272be134d16c277bb014ad6a22fc357" target="_top" xlink:title="Game::quit">
<polygon fill="none" stroke="#000000" points="1195.5,-68.5584 1195.5,-87.5584 1266.5,-87.5584 1266.5,-68.5584 1195.5,-68.5584"/>
<text text-anchor="middle" x="1231" y="-75.5584" font-family="Helvetica,sans-Serif" font-size="10.00" fill="#000000">Game::quit</text>
</a>
</g>
</g>
<!-- Node167&#45;&gt;Node169 -->
<g id="edge21" class="edge">
<title>Node167&#45;&gt;Node169</title>
<path fill="none" stroke="#191970" d="M1102.4322,-78.0584C1133.2881,-78.0584 1169.3982,-78.0584 1195.4801,-78.0584"/>
<polygon fill="#191970" stroke="#191970" points="1102.1916,-74.5585 1092.1916,-78.0584 1102.1916,-81.5585 1102.1916,-74.5585"/>
</g>
<!-- Node169&#45;&gt;Node170 -->
<g id="edge22" class="edge">
<title>Node169&#45;&gt;Node170</title>
<path fill="none" stroke="#191970" d="M1277.0403,-78.0584C1301.1836,-78.0584 1330.8403,-78.0584 1355.7739,-78.0584"/>
<polygon fill="#191970" stroke="#191970" points="1276.7174,-74.5585 1266.7174,-78.0584 1276.7174,-81.5585 1276.7174,-74.5585"/>
</g>
<!-- Node170&#45;&gt;Node155 -->
<g id="edge23" class="edge">
<title>Node170&#45;&gt;Node155</title>
<path fill="none" stroke="#191970" d="M1469.2457,-86.8134C1477.7846,-88.0241 1486.438,-89.2511 1494.6465,-90.415"/>
<polygon fill="#191970" stroke="#191970" points="1469.7003,-83.3429 1459.3079,-85.4043 1468.7175,-90.2736 1469.7003,-83.3429"/>
</g>
</g>
</svg>
        <g id="navigator" transform="translate(0 0)" fill="#404254">
                <rect fill="#f2f5e9" fill-opacity="0.5" stroke="#606060" stroke-width=".5" x="0" y="0" width="60" height="60"/>
                <use id="zoomplus" xlink:href="#zoomPlus" x="17" y="9" onmousedown="handleZoom(evt,'in')"/>
                <use id="zoomminus" xlink:href="#zoomMin" x="42" y="9" onmousedown="handleZoom(evt,'out')"/>
                <use id="reset" xlink:href="#resetDef" x="30" y="36" onmousedown="handleReset()"/>
                <g id="arrowUp" xlink:href="#dirArrow" transform="translate(30 24)" onmousedown="handlePan(0,-1)">
                  <use xlink:href="#rim" fill="#404040">
                        <set attributeName="fill" to="#808080" begin="arrowUp.mouseover" end="arrowUp.mouseout"/>
                  </use>
                  <path fill="none" stroke="white" stroke-width="1.5" d="M0,-3.0v7 M-2.5,-0.5L0,-3.0L2.5,-0.5"/>
                </g>
                <g id="arrowRight" xlink:href="#dirArrow" transform="rotate(90) translate(36 -43)" onmousedown="handlePan(1,0)">
                  <use xlink:href="#rim" fill="#404040">
                        <set attributeName="fill" to="#808080" begin="arrowRight.mouseover" end="arrowRight.mouseout"/>
                  </use>
                  <path fill="none" stroke="white" stroke-width="1.5" d="M0,-3.0v7 M-2.5,-0.5L0,-3.0L2.5,-0.5"/>
                </g>
                <g id="arrowDown" xlink:href="#dirArrow" transform="rotate(180) translate(-30 -48)" onmousedown="handlePan(0,1)">
                  <use xlink:href="#rim" fill="#404040">
                        <set attributeName="fill" to="#808080" begin="arrowDown.mouseover" end="arrowDown.mouseout"/>
                  </use>
                  <path fill="none" stroke="white" stroke-width="1.5" d="M0,-3.0v7 M-2.5,-0.5L0,-3.0L2.5,-0.5"/>
                </g>
                <g id="arrowLeft" xlink:href="#dirArrow" transform="rotate(270) translate(-36 17)" onmousedown="handlePan(-1,0)">
                  <use xlink:href="#rim" fill="#404040">
                        <set attributeName="fill" to="#808080" begin="arrowLeft.mouseover" end="arrowLeft.mouseout"/>
                  </use>
                  <path fill="none" stroke="white" stroke-width="1.5" d="M0,-3.0v7 M-2.5,-0.5L0,-3.0L2.5,-0.5"/>
                </g>
        </g>
        <svg viewBox="0 0 15 15" width="100%" height="30px" preserveAspectRatio="xMaxYMin meet">
         <g id="arrow_out" transform="scale(0.3 0.3)">
          <a xlink:href="classMap_aa8cc2ed983007621bce12dd9d1b8ec5b_icgraph_org.svg" target="_base">
           <rect id="button" ry="5" rx="5" y="6" x="6" height="38" width="38"
                fill="#f2f5e9" fill-opacity="0.5" stroke="#606060" stroke-width="1.0"/>
           <path id="arrow"
             d="M 11.500037,31.436501 C 11.940474,20.09759 22.043105,11.32322 32.158766,21.979434 L 37.068811,17.246167 C 37.068811,17.246167 37.088388,32 37.088388,32 L 22.160133,31.978069 C 22.160133,31.978069 26.997745,27.140456 26.997745,27.140456 C 18.528582,18.264221 13.291696,25.230495 11.500037,31.436501 z"
             style="fill:#404040;"/>
          </a>
         </g>
        </svg>
</svg>
