<?xml version="1.0" encoding="UTF-8" standalone="no"?>
<!DOCTYPE svg PUBLIC "-//W3C//DTD SVG 1.1//EN"
 "http://www.w3.org/Graphics/SVG/1.1/DTD/svg11.dtd">
<!-- Generated by graphviz version 2.40.1 (20161225.0304)
 -->
<!-- Title: Camera::centerScreenOnMapCenter Pages: 1 -->
<svg width="939pt" height="181pt"
 viewBox="0.00 0.00 939.00 181.28" xmlns="http://www.w3.org/2000/svg" xmlns:xlink="http://www.w3.org/1999/xlink">
<g id="graph0" class="graph" transform="scale(1 1) rotate(0) translate(4 177.2819)">
<title>Camera::centerScreenOnMapCenter</title>
<!-- Node4 -->
<g id="node1" class="node">
<title>Node4</title>
<polygon fill="#bfbfbf" stroke="#000000" points="0,-137.7268 0,-167.7268 158,-167.7268 158,-137.7268 0,-137.7268"/>
<text text-anchor="start" x="8" y="-155.7268" font-family="Helvetica,sans-Serif" font-size="10.00" fill="#000000">Camera::centerScreenOnMap</text>
<text text-anchor="middle" x="79" y="-144.7268" font-family="Helvetica,sans-Serif" font-size="10.00" fill="#000000">Center</text>
</g>
<!-- Node5 -->
<g id="node2" class="node">
<title>Node5</title>
<g id="a_node2"><a xlink:href="classSingleton.html#af5cb1e5749949e2b68416cfb8d378044" target="_top" xlink:title="Get an instance of the singleton. ">
<polygon fill="none" stroke="#000000" points="789.5,-137.7268 789.5,-167.7268 902.5,-167.7268 902.5,-137.7268 789.5,-137.7268"/>
<text text-anchor="start" x="797.5" y="-155.7268" font-family="Helvetica,sans-Serif" font-size="10.00" fill="#000000">Singleton&lt; Settings</text>
<text text-anchor="middle" x="846" y="-144.7268" font-family="Helvetica,sans-Serif" font-size="10.00" fill="#000000"> &gt;::instance</text>
</a>
</g>
</g>
<!-- Node4&#45;&gt;Node5 -->
<g id="edge1" class="edge">
<title>Node4&#45;&gt;Node5</title>
<path fill="none" stroke="#191970" d="M158.1425,-158.8815C280.0168,-167.3845 520.9351,-180.3272 725,-167.7268 742.573,-166.6417 761.5,-164.6783 779.0462,-162.5218"/>
<polygon fill="#191970" stroke="#191970" points="779.7165,-165.9649 789.1969,-161.2349 778.8361,-159.0205 779.7165,-165.9649"/>
</g>
<!-- Node6 -->
<g id="node3" class="node">
<title>Node6</title>
<g id="a_node3"><a xlink:href="classCamera.html#adfb240823ff20b97b69459490dbd8dc3" target="_top" xlink:title="Centers camera on given isometric coordinates Centers the camera on the given isometric coordinates...">
<polygon fill="none" stroke="#000000" points="194,-120.2268 194,-139.2268 357,-139.2268 357,-120.2268 194,-120.2268"/>
<text text-anchor="middle" x="275.5" y="-127.2268" font-family="Helvetica,sans-Serif" font-size="10.00" fill="#000000">Camera::centerScreenOnPoint</text>
</a>
</g>
</g>
<!-- Node4&#45;&gt;Node6 -->
<g id="edge2" class="edge">
<title>Node4&#45;&gt;Node6</title>
<path fill="none" stroke="#191970" d="M158.0747,-143.4712C166.5829,-142.4753 175.2908,-141.4561 183.9295,-140.4449"/>
<polygon fill="#191970" stroke="#191970" points="184.4974,-143.9025 194.0227,-139.2636 183.6836,-136.9499 184.4974,-143.9025"/>
</g>
<!-- Node6&#45;&gt;Node5 -->
<g id="edge6" class="edge">
<title>Node6&#45;&gt;Node5</title>
<path fill="none" stroke="#191970" d="M357.2387,-128.1215C470.8427,-130.1173 674.3068,-138.4441 779.2854,-145.5086"/>
<polygon fill="#191970" stroke="#191970" points="779.2207,-149.0124 789.4381,-146.2099 779.7031,-142.029 779.2207,-149.0124"/>
</g>
<!-- Node6&#45;&gt;Node5 -->
<g id="edge7" class="edge">
<title>Node6&#45;&gt;Node5</title>
<path fill="none" stroke="#191970" d="M357.2387,-137.9227C470.8427,-145.0869 674.3068,-153.1657 779.2854,-154.5656"/>
<polygon fill="#191970" stroke="#191970" points="779.3983,-158.0671 789.4381,-154.683 779.4793,-151.0676 779.3983,-158.0671"/>
</g>
<!-- Node7 -->
<g id="node4" class="node">
<title>Node7</title>
<g id="a_node4"><a xlink:href="isoMath_8cxx.html#a7fa61c3d8ef446fb1c48dc4838023649" target="_top" xlink:title="Check if given coordinates are within map boundaries Checks if coordinates are within map boundaries...">
<polygon fill="none" stroke="#000000" points="393,-96.2268 393,-115.2268 549,-115.2268 549,-96.2268 393,-96.2268"/>
<text text-anchor="middle" x="471" y="-103.2268" font-family="Helvetica,sans-Serif" font-size="10.00" fill="#000000">isPointWithinMapBoundaries</text>
</a>
</g>
</g>
<!-- Node6&#45;&gt;Node7 -->
<g id="edge3" class="edge">
<title>Node6&#45;&gt;Node7</title>
<path fill="none" stroke="#191970" d="M353.0476,-120.2069C363.0419,-118.9799 373.3309,-117.7168 383.4715,-116.472"/>
<polygon fill="#191970" stroke="#191970" points="384.0472,-119.9276 393.5462,-115.2352 383.1942,-112.9798 384.0472,-119.9276"/>
</g>
<!-- Node8 -->
<g id="node5" class="node">
<title>Node8</title>
<g id="a_node5"><a xlink:href="isoMath_8cxx.html#a229d5dd54cd4e1f43ed5911e4fd266d3" target="_top" xlink:title="converts coordinates from isometric to screen space The given isometric coordinates (which contain he...">
<polygon fill="none" stroke="#000000" points="761,-1.2268 761,-20.2268 931,-20.2268 931,-1.2268 761,-1.2268"/>
<text text-anchor="middle" x="846" y="-8.2268" font-family="Helvetica,sans-Serif" font-size="10.00" fill="#000000">convertIsoToScreenCoordinates</text>
</a>
</g>
</g>
<!-- Node6&#45;&gt;Node8 -->
<g id="edge5" class="edge">
<title>Node6&#45;&gt;Node8</title>
<path fill="none" stroke="#191970" d="M286.2548,-120.0022C305.9137,-102.7857 349.6307,-67.036 393,-48.7268 508.9264,.2138 656.1691,2.9327 750.7522,-1.9789"/>
<polygon fill="#191970" stroke="#191970" points="750.6978,-5.4813 760.8774,-2.5444 751.0881,1.5079 750.6978,-5.4813"/>
</g>
<!-- Node9 -->
<g id="node6" class="node">
<title>Node9</title>
<g id="a_node6"><a xlink:href="classMap.html#ab69938ac0e56eb0da1d1701221f3d185" target="_top" xlink:title="Refresh all the map tile textures. ">
<polygon fill="none" stroke="#000000" points="432.5,-58.2268 432.5,-77.2268 509.5,-77.2268 509.5,-58.2268 432.5,-58.2268"/>
<text text-anchor="middle" x="471" y="-65.2268" font-family="Helvetica,sans-Serif" font-size="10.00" fill="#000000">Map::refresh</text>
</a>
</g>
</g>
<!-- Node6&#45;&gt;Node9 -->
<g id="edge8" class="edge">
<title>Node6&#45;&gt;Node9</title>
<path fill="none" stroke="#191970" d="M299.0905,-120.2079C322.6294,-110.921 359.9522,-96.7645 393,-86.7268 402.403,-83.8708 412.5432,-81.1467 422.3013,-78.6985"/>
<polygon fill="#191970" stroke="#191970" points="423.4048,-82.0318 432.2851,-76.2532 421.7395,-75.2328 423.4048,-82.0318"/>
</g>
<!-- Node7&#45;&gt;Node5 -->
<g id="edge4" class="edge">
<title>Node7&#45;&gt;Node5</title>
<path fill="none" stroke="#191970" d="M549.0387,-111.1995C599.3977,-115.1995 666.2358,-121.3842 725,-129.7268 742.609,-132.2267 761.5486,-135.5301 779.0954,-138.8509"/>
<polygon fill="#191970" stroke="#191970" points="778.7642,-142.3513 789.2452,-140.8023 780.0858,-135.4772 778.7642,-142.3513"/>
</g>
<!-- Node10 -->
<g id="node7" class="node">
<title>Node10</title>
<g id="a_node7"><a xlink:href="classMap.html#af654ddecf0d25b836d7c9c27ee5c2150" target="_top" xlink:title="Map::calculateVisibleMap">
<polygon fill="none" stroke="#000000" points="585,-58.2268 585,-77.2268 725,-77.2268 725,-58.2268 585,-58.2268"/>
<text text-anchor="middle" x="655" y="-65.2268" font-family="Helvetica,sans-Serif" font-size="10.00" fill="#000000">Map::calculateVisibleMap</text>
</a>
</g>
</g>
<!-- Node9&#45;&gt;Node10 -->
<g id="edge9" class="edge">
<title>Node9&#45;&gt;Node10</title>
<path fill="none" stroke="#191970" d="M509.5724,-67.7268C528.489,-67.7268 552.0174,-67.7268 574.5985,-67.7268"/>
<polygon fill="#191970" stroke="#191970" points="574.887,-71.2269 584.8869,-67.7268 574.8869,-64.2269 574.887,-71.2269"/>
</g>
<!-- Node13 -->
<g id="node10" class="node">
<title>Node13</title>
<g id="a_node10"><a xlink:href="classSprite.html#ababb7913a4d642b0d20a2c48c2a7e77a" target="_top" xlink:title="Sprite::refresh">
<polygon fill="none" stroke="#000000" points="612,-20.2268 612,-39.2268 698,-39.2268 698,-20.2268 612,-20.2268"/>
<text text-anchor="middle" x="655" y="-27.2268" font-family="Helvetica,sans-Serif" font-size="10.00" fill="#000000">Sprite::refresh</text>
</a>
</g>
</g>
<!-- Node9&#45;&gt;Node13 -->
<g id="edge13" class="edge">
<title>Node9&#45;&gt;Node13</title>
<path fill="none" stroke="#191970" d="M509.5724,-59.7607C536.344,-54.2318 572.3525,-46.7953 601.8403,-40.7054"/>
<polygon fill="#191970" stroke="#191970" points="602.8873,-44.0631 611.9727,-38.6128 601.4715,-37.2078 602.8873,-44.0631"/>
</g>
<!-- Node10&#45;&gt;Node5 -->
<g id="edge11" class="edge">
<title>Node10&#45;&gt;Node5</title>
<path fill="none" stroke="#191970" d="M685.661,-77.2308C698.0239,-81.3229 712.3312,-86.3911 725,-91.7268 754.0931,-103.9799 785.932,-120.1476 809.6447,-132.7595"/>
<polygon fill="#191970" stroke="#191970" points="808.1655,-135.9376 818.6328,-137.5764 811.4721,-129.7678 808.1655,-135.9376"/>
</g>
<!-- Node11 -->
<g id="node8" class="node">
<title>Node11</title>
<g id="a_node8"><a xlink:href="isoMath_8cxx.html#a0a076d973bc64ffa7859b894793c8000" target="_top" xlink:title="Calculates screen space coordinates to isometric space coordinates. A formula is used to calculate th...">
<polygon fill="none" stroke="#000000" points="779,-77.2268 779,-96.2268 913,-96.2268 913,-77.2268 779,-77.2268"/>
<text text-anchor="middle" x="846" y="-84.2268" font-family="Helvetica,sans-Serif" font-size="10.00" fill="#000000">calculateIsoCoordinates</text>
</a>
</g>
</g>
<!-- Node10&#45;&gt;Node11 -->
<g id="edge10" class="edge">
<title>Node10&#45;&gt;Node11</title>
<path fill="none" stroke="#191970" d="M725.0368,-74.6938C739.1728,-76.1 754.1119,-77.5861 768.4868,-79.016"/>
<polygon fill="#191970" stroke="#191970" points="768.5373,-82.5383 778.8347,-80.0454 769.2303,-75.5726 768.5373,-82.5383"/>
</g>
<!-- Node12 -->
<g id="node9" class="node">
<title>Node12</title>
<g id="a_node9"><a xlink:href="classMap.html#a1676db3d125b2c1764adfcb64d6332a2" target="_top" xlink:title="Map::nodeIdx">
<polygon fill="none" stroke="#000000" points="805,-39.2268 805,-58.2268 887,-58.2268 887,-39.2268 805,-39.2268"/>
<text text-anchor="middle" x="846" y="-46.2268" font-family="Helvetica,sans-Serif" font-size="10.00" fill="#000000">Map::nodeIdx</text>
</a>
</g>
</g>
<!-- Node10&#45;&gt;Node12 -->
<g id="edge12" class="edge">
<title>Node10&#45;&gt;Node12</title>
<path fill="none" stroke="#191970" d="M725.0368,-60.7598C748.0936,-58.4661 773.2867,-55.96 794.6839,-53.8315"/>
<polygon fill="#191970" stroke="#191970" points="795.2527,-57.2923 804.8571,-52.8195 794.5597,-50.3267 795.2527,-57.2923"/>
</g>
<!-- Node13&#45;&gt;Node8 -->
<g id="edge14" class="edge">
<title>Node13&#45;&gt;Node8</title>
<path fill="none" stroke="#191970" d="M698.3409,-25.4154C713.9425,-23.8634 732.2233,-22.0449 750.5038,-20.2264"/>
<polygon fill="#191970" stroke="#191970" points="751.0383,-23.6906 760.6427,-19.2178 750.3453,-16.725 751.0383,-23.6906"/>
</g>
</g>
</svg>
