<?xml version="1.0" encoding="UTF-8" standalone="no"?>
<!DOCTYPE svg PUBLIC "-//W3C//DTD SVG 1.1//EN"
 "http://www.w3.org/Graphics/SVG/1.1/DTD/svg11.dtd">
<!-- Generated by graphviz version 2.40.1 (20161225.0304)
 -->
<!-- Title: TileManager::getTileData Pages: 1 -->
<svg width="2108pt" height="493pt"
 viewBox="0.00 0.00 2108.00 493.00" xmlns="http://www.w3.org/2000/svg" xmlns:xlink="http://www.w3.org/1999/xlink">
<g id="graph0" class="graph" transform="scale(1 1) rotate(0) translate(4 489)">
<title>TileManager::getTileData</title>
<!-- Node74 -->
<g id="node1" class="node">
<title>Node74</title>
<polygon fill="#bfbfbf" stroke="#000000" points="0,-294.5 0,-313.5 140,-313.5 140,-294.5 0,-294.5"/>
<text text-anchor="middle" x="70" y="-301.5" font-family="Helvetica,sans-Serif" font-size="10.00" fill="#000000">TileManager::getTileData</text>
</g>
<!-- Node75 -->
<g id="node2" class="node">
<title>Node75</title>
<g id="a_node2"><a xlink:href="classEventManager.html#a65ec91fd5016d4f9c4167fb8babed2df" target="_top" xlink:title="EventManager::checkEvents">
<polygon fill="none" stroke="#000000" points="1589,-218.5 1589,-237.5 1743,-237.5 1743,-218.5 1589,-218.5"/>
<text text-anchor="middle" x="1666" y="-225.5" font-family="Helvetica,sans-Serif" font-size="10.00" fill="#000000">EventManager::checkEvents</text>
</a>
</g>
</g>
<!-- Node74&#45;&gt;Node75 -->
<g id="edge1" class="edge">
<title>Node74&#45;&gt;Node75</title>
<path fill="none" stroke="#191970" d="M88.3795,-287.6804C108.5574,-270.5502 142.5518,-243.9382 176,-228 291.4393,-172.9926 325.6249,-152 453.5,-152 453.5,-152 453.5,-152 1308.5,-152 1434.7714,-152 1580.7544,-197.924 1639.5024,-218.3745"/>
<polygon fill="#191970" stroke="#191970" points="85.8998,-285.1973 80.6195,-294.3825 90.4754,-290.4949 85.8998,-285.1973"/>
</g>
<!-- Node79 -->
<g id="node6" class="node">
<title>Node79</title>
<g id="a_node6"><a xlink:href="classMapNode.html#a26e55c94192a56990f8a59e7af139a73" target="_top" xlink:title="MapNode::setTileID">
<polygon fill="none" stroke="#000000" points="397.5,-313.5 397.5,-332.5 509.5,-332.5 509.5,-313.5 397.5,-313.5"/>
<text text-anchor="middle" x="453.5" y="-320.5" font-family="Helvetica,sans-Serif" font-size="10.00" fill="#000000">MapNode::setTileID</text>
</a>
</g>
</g>
<!-- Node74&#45;&gt;Node79 -->
<g id="edge5" class="edge">
<title>Node74&#45;&gt;Node79</title>
<path fill="none" stroke="#191970" d="M150.546,-307.9905C224.5199,-311.6555 332.2365,-316.9922 397.3122,-320.2163"/>
<polygon fill="#191970" stroke="#191970" points="150.5008,-304.4841 140.3398,-307.4849 150.1543,-311.4755 150.5008,-304.4841"/>
</g>
<!-- Node83 -->
<g id="node10" class="node">
<title>Node83</title>
<g id="a_node10"><a xlink:href="classMapNode.html#aefd2e99e5bdde9925a5611ac2175492c" target="_top" xlink:title="tileID placeable on slope tile. check if tileID is placeable on slope. ">
<polygon fill="none" stroke="#000000" points="176,-460.5 176,-479.5 334,-479.5 334,-460.5 176,-460.5"/>
<text text-anchor="middle" x="255" y="-467.5" font-family="Helvetica,sans-Serif" font-size="10.00" fill="#000000">MapNode::isPlacableOnSlope</text>
</a>
</g>
</g>
<!-- Node74&#45;&gt;Node83 -->
<g id="edge10" class="edge">
<title>Node74&#45;&gt;Node83</title>
<path fill="none" stroke="#191970" d="M80.0091,-322.9536C96.3657,-352.2177 131.5062,-408.419 176,-441 187.7877,-449.6317 202.4208,-455.9449 215.8775,-460.4339"/>
<polygon fill="#191970" stroke="#191970" points="82.8828,-320.9127 75.0224,-313.8088 76.7371,-324.264 82.8828,-320.9127"/>
</g>
<!-- Node84 -->
<g id="node11" class="node">
<title>Node84</title>
<g id="a_node11"><a xlink:href="classMapNode.html#a3d88c4eff75c599fb6fd37afd1c882b6" target="_top" xlink:title="MapNode::isPlacementAllowed">
<polygon fill="none" stroke="#000000" points="370,-465.5 370,-484.5 537,-484.5 537,-465.5 370,-465.5"/>
<text text-anchor="middle" x="453.5" y="-472.5" font-family="Helvetica,sans-Serif" font-size="10.00" fill="#000000">MapNode::isPlacementAllowed</text>
</a>
</g>
</g>
<!-- Node74&#45;&gt;Node84 -->
<g id="edge12" class="edge">
<title>Node74&#45;&gt;Node84</title>
<path fill="none" stroke="#191970" d="M84.6445,-321.347C103.5974,-342.7045 138.6466,-378.6411 176,-399 216.2413,-420.9329 341.3718,-450.4715 409.019,-465.4433"/>
<polygon fill="#191970" stroke="#191970" points="87.1831,-318.9324 77.9801,-313.683 81.9009,-323.5257 87.1831,-318.9324"/>
</g>
<!-- Node85 -->
<g id="node12" class="node">
<title>Node85</title>
<g id="a_node12"><a xlink:href="classMapNode.html#a46d22458f78fa9416a700dbe4612012b" target="_top" xlink:title="Overwrite m_mapData with the one loaded from a savegame. This function to be used only by loadGame...">
<polygon fill="none" stroke="#000000" points="179,-275.5 179,-294.5 331,-294.5 331,-275.5 179,-275.5"/>
<text text-anchor="middle" x="255" y="-282.5" font-family="Helvetica,sans-Serif" font-size="10.00" fill="#000000">MapNode::setMapNodeData</text>
</a>
</g>
</g>
<!-- Node74&#45;&gt;Node85 -->
<g id="edge13" class="edge">
<title>Node74&#45;&gt;Node85</title>
<path fill="none" stroke="#191970" d="M150.4111,-295.7416C159.8975,-294.7673 169.5565,-293.7753 178.9797,-292.8075"/>
<polygon fill="#191970" stroke="#191970" points="149.7944,-292.2864 140.2044,-296.7898 150.5096,-299.2498 149.7944,-292.2864"/>
</g>
<!-- Node86 -->
<g id="node13" class="node">
<title>Node86</title>
<g id="a_node13"><a xlink:href="classMap.html#a3952b445c55efce61c1ccac6f362fe89" target="_top" xlink:title="Return vector of Points of an Object Tiles selection. ">
<polygon fill="none" stroke="#000000" points="193,-237.5 193,-256.5 317,-256.5 317,-237.5 193,-237.5"/>
<text text-anchor="middle" x="255" y="-244.5" font-family="Helvetica,sans-Serif" font-size="10.00" fill="#000000">Map::getObjectCoords</text>
</a>
</g>
</g>
<!-- Node74&#45;&gt;Node86 -->
<g id="edge14" class="edge">
<title>Node74&#45;&gt;Node86</title>
<path fill="none" stroke="#191970" d="M103.7628,-290.8409C124.4343,-283.049 151.5306,-273.3052 176,-266 187.4893,-262.5699 200.0584,-259.323 211.7235,-256.5157"/>
<polygon fill="#191970" stroke="#191970" points="102.2727,-287.663 94.1707,-294.4899 104.7617,-294.2055 102.2727,-287.663"/>
</g>
<!-- Node99 -->
<g id="node26" class="node">
<title>Node99</title>
<g id="a_node26"><a xlink:href="classUIManager.html#aa78e356fc3b356d790c848319d1c387e" target="_top" xlink:title="UIManager::setCallbackFunctions">
<polygon fill="none" stroke="#000000" points="1577,-28.5 1577,-47.5 1755,-47.5 1755,-28.5 1577,-28.5"/>
<text text-anchor="middle" x="1666" y="-35.5" font-family="Helvetica,sans-Serif" font-size="10.00" fill="#000000">UIManager::setCallbackFunctions</text>
</a>
</g>
</g>
<!-- Node74&#45;&gt;Node99 -->
<g id="edge47" class="edge">
<title>Node74&#45;&gt;Node99</title>
<path fill="none" stroke="#191970" d="M80.9614,-285.2977C121.3079,-219.121 268.8434,0 453.5,0 453.5,0 453.5,0 1308.5,0 1416.0109,0 1540.6947,-17.2037 1610.7685,-28.46"/>
<polygon fill="#191970" stroke="#191970" points="77.7463,-283.8535 75.6047,-294.2297 83.7495,-287.4538 77.7463,-283.8535"/>
</g>
<!-- Node102 -->
<g id="node29" class="node">
<title>Node102</title>
<g id="a_node29"><a xlink:href="classTileManager.html#a105151a0c336807e918aff002ffd6101" target="_top" xlink:title="TileManager::getTileLayer">
<polygon fill="none" stroke="#000000" points="183.5,-370.5 183.5,-389.5 326.5,-389.5 326.5,-370.5 183.5,-370.5"/>
<text text-anchor="middle" x="255" y="-377.5" font-family="Helvetica,sans-Serif" font-size="10.00" fill="#000000">TileManager::getTileLayer</text>
</a>
</g>
</g>
<!-- Node74&#45;&gt;Node102 -->
<g id="edge41" class="edge">
<title>Node74&#45;&gt;Node102</title>
<path fill="none" stroke="#191970" d="M102.7924,-317.4715C139.8387,-332.6905 199.1974,-357.0757 231.7599,-370.4527"/>
<polygon fill="#191970" stroke="#191970" points="104.0103,-314.188 93.4304,-313.6255 101.3503,-320.6629 104.0103,-314.188"/>
</g>
<!-- Node76 -->
<g id="node3" class="node">
<title>Node76</title>
<g id="a_node3"><a xlink:href="classGame.html#a1c2ab25d5216b2f4b2fe41efd2c09114" target="_top" xlink:title="begins the game starts running the game ">
<polygon fill="none" stroke="#000000" points="1808.5,-180.5 1808.5,-199.5 1876.5,-199.5 1876.5,-180.5 1808.5,-180.5"/>
<text text-anchor="middle" x="1842.5" y="-187.5" font-family="Helvetica,sans-Serif" font-size="10.00" fill="#000000">Game::run</text>
</a>
</g>
</g>
<!-- Node75&#45;&gt;Node76 -->
<g id="edge2" class="edge">
<title>Node75&#45;&gt;Node76</title>
<path fill="none" stroke="#191970" d="M1720.4181,-216.2839C1749.0806,-210.113 1783.3538,-202.734 1808.2794,-197.3676"/>
<polygon fill="#191970" stroke="#191970" points="1719.5777,-212.8846 1710.5384,-218.411 1721.0511,-219.7278 1719.5777,-212.8846"/>
</g>
<!-- Node77 -->
<g id="node4" class="node">
<title>Node77</title>
<g id="a_node4"><a xlink:href="main_8cxx.html#af582d708d899e67ead623eac34a22387" target="_top" xlink:title="protected_main">
<polygon fill="none" stroke="#000000" points="1930,-123.5 1930,-142.5 2023,-142.5 2023,-123.5 1930,-123.5"/>
<text text-anchor="middle" x="1976.5" y="-130.5" font-family="Helvetica,sans-Serif" font-size="10.00" fill="#000000">protected_main</text>
</a>
</g>
</g>
<!-- Node76&#45;&gt;Node77 -->
<g id="edge3" class="edge">
<title>Node76&#45;&gt;Node77</title>
<path fill="none" stroke="#191970" d="M1874.1881,-176.5207C1898.7349,-166.0792 1932.1355,-151.8715 1953.9982,-142.5716"/>
<polygon fill="#191970" stroke="#191970" points="1872.7606,-173.3244 1864.9286,-180.4595 1875.5007,-179.7658 1872.7606,-173.3244"/>
</g>
<!-- Node78 -->
<g id="node5" class="node">
<title>Node78</title>
<g id="a_node5"><a xlink:href="main_8cxx.html#a3c04138a5bfe5d72780bb7e82a18e627" target="_top" xlink:title="main">
<polygon fill="none" stroke="#000000" points="2059,-123.5 2059,-142.5 2100,-142.5 2100,-123.5 2059,-123.5"/>
<text text-anchor="middle" x="2079.5" y="-130.5" font-family="Helvetica,sans-Serif" font-size="10.00" fill="#000000">main</text>
</a>
</g>
</g>
<!-- Node77&#45;&gt;Node78 -->
<g id="edge4" class="edge">
<title>Node77&#45;&gt;Node78</title>
<path fill="none" stroke="#191970" d="M2033.2133,-133C2042.4322,-133 2051.4259,-133 2058.9965,-133"/>
<polygon fill="#191970" stroke="#191970" points="2033.1782,-129.5001 2023.1782,-133 2033.1781,-136.5001 2033.1782,-129.5001"/>
</g>
<!-- Node80 -->
<g id="node7" class="node">
<title>Node80</title>
<g id="a_node7"><a xlink:href="classMapNode.html#ae515fc96b543bf97237bfb1ca53fe571" target="_top" xlink:title="MapNode::MapNode">
<polygon fill="none" stroke="#000000" points="592,-332.5 592,-351.5 706,-351.5 706,-332.5 592,-332.5"/>
<text text-anchor="middle" x="649" y="-339.5" font-family="Helvetica,sans-Serif" font-size="10.00" fill="#000000">MapNode::MapNode</text>
</a>
</g>
</g>
<!-- Node79&#45;&gt;Node80 -->
<g id="edge6" class="edge">
<title>Node79&#45;&gt;Node80</title>
<path fill="none" stroke="#191970" d="M519.7331,-329.437C543.1795,-331.7157 569.3349,-334.2576 591.9514,-336.4556"/>
<polygon fill="#191970" stroke="#191970" points="519.8141,-325.9284 509.5225,-328.4446 519.137,-332.8956 519.8141,-325.9284"/>
</g>
<!-- Node81 -->
<g id="node8" class="node">
<title>Node81</title>
<g id="a_node8"><a xlink:href="classMap.html#a404c38b33d61f8c63ce2c2efb864d6dd" target="_top" xlink:title="Set the Tile ID Of Node object Also invokes all necessary texture updates (auto&#45;tiling, slopes, ...) ">
<polygon fill="none" stroke="#000000" points="587.5,-370.5 587.5,-389.5 710.5,-389.5 710.5,-370.5 587.5,-370.5"/>
<text text-anchor="middle" x="649" y="-377.5" font-family="Helvetica,sans-Serif" font-size="10.00" fill="#000000">Map::setTileIDOfNode</text>
</a>
</g>
</g>
<!-- Node79&#45;&gt;Node81 -->
<g id="edge7" class="edge">
<title>Node79&#45;&gt;Node81</title>
<path fill="none" stroke="#191970" d="M491.392,-335.721C514.798,-343.4111 545.5114,-353.2017 573,-361 584.5141,-364.2665 597.0927,-367.5323 608.6434,-370.4121"/>
<polygon fill="#191970" stroke="#191970" points="492.4322,-332.3787 481.839,-332.5658 490.2368,-339.0255 492.4322,-332.3787"/>
</g>
<!-- Node82 -->
<g id="node9" class="node">
<title>Node82</title>
<g id="a_node9"><a xlink:href="classEngine.html#a7a1521fd7fc731f961ebaf3f723127d9" target="_top" xlink:title="Engine::setTileIDOfNode">
<polygon fill="none" stroke="#000000" points="1072,-342.5 1072,-361.5 1208,-361.5 1208,-342.5 1072,-342.5"/>
<text text-anchor="middle" x="1140" y="-349.5" font-family="Helvetica,sans-Serif" font-size="10.00" fill="#000000">Engine::setTileIDOfNode</text>
</a>
</g>
</g>
<!-- Node81&#45;&gt;Node82 -->
<g id="edge8" class="edge">
<title>Node81&#45;&gt;Node82</title>
<path fill="none" stroke="#191970" d="M720.7066,-375.9108C814.9754,-370.535 979.4192,-361.1574 1071.8717,-355.8851"/>
<polygon fill="#191970" stroke="#191970" points="720.4728,-372.4184 710.6883,-376.4821 720.8714,-379.407 720.4728,-372.4184"/>
</g>
<!-- Node82&#45;&gt;Node75 -->
<g id="edge9" class="edge">
<title>Node82&#45;&gt;Node75</title>
<path fill="none" stroke="#191970" d="M1218.0957,-357.4446C1300.9017,-360.4894 1434.2196,-357.4996 1541,-318 1590.1573,-299.816 1637.3152,-256.7199 1656.7202,-237.5175"/>
<polygon fill="#191970" stroke="#191970" points="1218.1376,-353.9435 1208.0036,-357.0344 1217.8532,-360.9378 1218.1376,-353.9435"/>
</g>
<!-- Node83&#45;&gt;Node84 -->
<g id="edge11" class="edge">
<title>Node83&#45;&gt;Node84</title>
<path fill="none" stroke="#191970" d="M344.0447,-472.2429C352.6356,-472.4593 361.3295,-472.6783 369.8654,-472.8933"/>
<polygon fill="#191970" stroke="#191970" points="344.1078,-468.7435 334.0228,-471.9905 343.9315,-475.7413 344.1078,-468.7435"/>
</g>
<!-- Node86&#45;&gt;Node75 -->
<g id="edge15" class="edge">
<title>Node86&#45;&gt;Node75</title>
<path fill="none" stroke="#191970" d="M321.734,-258.1043C427.362,-274.6886 639.6966,-304 821,-304 821,-304 821,-304 1308.5,-304 1412.1778,-304 1440.6666,-311.1207 1541,-285 1582.0856,-274.3038 1626.469,-250.9248 1649.7009,-237.6712"/>
<polygon fill="#191970" stroke="#191970" points="322.2738,-254.6463 311.8497,-256.5405 321.1799,-261.5603 322.2738,-254.6463"/>
</g>
<!-- Node87 -->
<g id="node14" class="node">
<title>Node87</title>
<g id="a_node14"><a xlink:href="classMap.html#aa8cc2ed983007621bce12dd9d1b8ec5b" target="_top" xlink:title="Demolish a node This function gathers all tiles that should be demolished and invokes the nodes demol...">
<polygon fill="none" stroke="#000000" points="397,-218.5 397,-237.5 510,-237.5 510,-218.5 397,-218.5"/>
<text text-anchor="middle" x="453.5" y="-225.5" font-family="Helvetica,sans-Serif" font-size="10.00" fill="#000000">Map::demolishNode</text>
</a>
</g>
</g>
<!-- Node86&#45;&gt;Node87 -->
<g id="edge16" class="edge">
<title>Node86&#45;&gt;Node87</title>
<path fill="none" stroke="#191970" d="M327.2826,-240.0813C350.201,-237.8876 375.1953,-235.4952 396.8503,-233.4224"/>
<polygon fill="#191970" stroke="#191970" points="326.883,-236.6034 317.262,-241.0404 327.55,-243.5716 326.883,-236.6034"/>
</g>
<!-- Node87&#45;&gt;Node75 -->
<g id="edge17" class="edge">
<title>Node87&#45;&gt;Node75</title>
<path fill="none" stroke="#191970" d="M517.553,-216.8335C535.457,-213.9801 554.9524,-211.1225 573,-209 682.7886,-196.088 710.4548,-190 821,-190 821,-190 821,-190 1308.5,-190 1416.0109,-190 1540.6947,-207.2037 1610.7685,-218.46"/>
<polygon fill="#191970" stroke="#191970" points="516.8169,-213.407 507.5049,-218.4604 517.9358,-220.317 516.8169,-213.407"/>
</g>
<!-- Node88 -->
<g id="node15" class="node">
<title>Node88</title>
<g id="a_node15"><a xlink:href="classMap.html#ade1eeabf4e539f9dbfe2a96c97fda4e3" target="_top" xlink:title="Map::changeHeight">
<polygon fill="none" stroke="#000000" points="766,-237.5 766,-256.5 876,-256.5 876,-237.5 766,-237.5"/>
<text text-anchor="middle" x="821" y="-244.5" font-family="Helvetica,sans-Serif" font-size="10.00" fill="#000000">Map::changeHeight</text>
</a>
</g>
</g>
<!-- Node87&#45;&gt;Node88 -->
<g id="edge18" class="edge">
<title>Node87&#45;&gt;Node88</title>
<path fill="none" stroke="#191970" d="M512.0097,-239.1898C531.3492,-242.3827 553.0267,-245.4221 573,-247 639.0996,-252.222 715.4187,-251.1613 765.7421,-249.487"/>
<polygon fill="#191970" stroke="#191970" points="512.5757,-235.7359 502.1309,-237.5131 511.4042,-242.6372 512.5757,-235.7359"/>
</g>
<!-- Node93 -->
<g id="node20" class="node">
<title>Node93</title>
<g id="a_node20"><a xlink:href="classMap.html#af1e496c421981fe707890b0ba60cc20f" target="_top" xlink:title="Map::updateNodeNeighbors">
<polygon fill="none" stroke="#000000" points="573,-218.5 573,-237.5 725,-237.5 725,-218.5 573,-218.5"/>
<text text-anchor="middle" x="649" y="-225.5" font-family="Helvetica,sans-Serif" font-size="10.00" fill="#000000">Map::updateNodeNeighbors</text>
</a>
</g>
</g>
<!-- Node87&#45;&gt;Node93 -->
<g id="edge25" class="edge">
<title>Node87&#45;&gt;Node93</title>
<path fill="none" stroke="#191970" d="M520.3838,-221.5585C537.3046,-221.2095 555.6006,-221.1566 572.9379,-221.3999"/>
<polygon fill="#191970" stroke="#191970" points="519.9571,-218.0678 510.0467,-221.814 520.1302,-225.0657 519.9571,-218.0678"/>
</g>
<!-- Node89 -->
<g id="node16" class="node">
<title>Node89</title>
<g id="a_node16"><a xlink:href="classMap.html#aba5154a4d917900679a3c0f7ec701561" target="_top" xlink:title="Increase Height Increases the height of the node and checks the surrounding tiles. Either draw a slope sprite or elevate the tile if necessary. ">
<polygon fill="none" stroke="#000000" points="918.5,-218.5 918.5,-237.5 1034.5,-237.5 1034.5,-218.5 918.5,-218.5"/>
<text text-anchor="middle" x="976.5" y="-225.5" font-family="Helvetica,sans-Serif" font-size="10.00" fill="#000000">Map::increaseHeight</text>
</a>
</g>
</g>
<!-- Node88&#45;&gt;Node89 -->
<g id="edge19" class="edge">
<title>Node88&#45;&gt;Node89</title>
<path fill="none" stroke="#191970" d="M886.3062,-239.0205C896.9124,-237.7245 907.8357,-236.3899 918.2589,-235.1163"/>
<polygon fill="#191970" stroke="#191970" points="885.763,-235.5607 876.2613,-240.2478 886.612,-242.509 885.763,-235.5607"/>
</g>
<!-- Node91 -->
<g id="node18" class="node">
<title>Node91</title>
<g id="a_node18"><a xlink:href="classMap.html#afb8cc864df90d273a5074872d635dc40" target="_top" xlink:title="Decrease Height Decreases the height of the node and checks the surrounding tiles. Either draw a slope sprite or lower the tile if necessary. ">
<polygon fill="none" stroke="#000000" points="917,-256.5 917,-275.5 1036,-275.5 1036,-256.5 917,-256.5"/>
<text text-anchor="middle" x="976.5" y="-263.5" font-family="Helvetica,sans-Serif" font-size="10.00" fill="#000000">Map::decreaseHeight</text>
</a>
</g>
</g>
<!-- Node88&#45;&gt;Node91 -->
<g id="edge22" class="edge">
<title>Node88&#45;&gt;Node91</title>
<path fill="none" stroke="#191970" d="M886.2978,-254.9785C896.458,-256.22 906.9095,-257.497 916.9337,-258.7218"/>
<polygon fill="#191970" stroke="#191970" points="886.612,-251.491 876.2613,-253.7522 885.763,-258.4393 886.612,-251.491"/>
</g>
<!-- Node90 -->
<g id="node17" class="node">
<title>Node90</title>
<g id="a_node17"><a xlink:href="classEngine.html#a4851ae1ff696c893741167fc0194fd77" target="_top" xlink:title="Increase Height Increases the height of the given map node Calls the according function of the Map ob...">
<polygon fill="none" stroke="#000000" points="1244,-218.5 1244,-237.5 1373,-237.5 1373,-218.5 1244,-218.5"/>
<text text-anchor="middle" x="1308.5" y="-225.5" font-family="Helvetica,sans-Serif" font-size="10.00" fill="#000000">Engine::increaseHeight</text>
</a>
</g>
</g>
<!-- Node89&#45;&gt;Node90 -->
<g id="edge20" class="edge">
<title>Node89&#45;&gt;Node90</title>
<path fill="none" stroke="#191970" d="M1044.9398,-228C1103.2918,-228 1186.5736,-228 1243.8204,-228"/>
<polygon fill="#191970" stroke="#191970" points="1044.7099,-224.5001 1034.7099,-228 1044.7099,-231.5001 1044.7099,-224.5001"/>
</g>
<!-- Node90&#45;&gt;Node75 -->
<g id="edge21" class="edge">
<title>Node90&#45;&gt;Node75</title>
<path fill="none" stroke="#191970" d="M1383.4541,-228C1443.752,-228 1528.1622,-228 1588.9976,-228"/>
<polygon fill="#191970" stroke="#191970" points="1383.2406,-224.5001 1373.2406,-228 1383.2405,-231.5001 1383.2406,-224.5001"/>
</g>
<!-- Node92 -->
<g id="node19" class="node">
<title>Node92</title>
<g id="a_node19"><a xlink:href="classEngine.html#a13572fdd7f6470dca48a14497f58980e" target="_top" xlink:title="Decrease Height Decreases the height of the given map node Calls the according function of the Map ob...">
<polygon fill="none" stroke="#000000" points="1409,-256.5 1409,-275.5 1541,-275.5 1541,-256.5 1409,-256.5"/>
<text text-anchor="middle" x="1475" y="-263.5" font-family="Helvetica,sans-Serif" font-size="10.00" fill="#000000">Engine::decreaseHeight</text>
</a>
</g>
</g>
<!-- Node91&#45;&gt;Node92 -->
<g id="edge23" class="edge">
<title>Node91&#45;&gt;Node92</title>
<path fill="none" stroke="#191970" d="M1046.347,-266C1142.5973,-266 1314.7681,-266 1408.9649,-266"/>
<polygon fill="#191970" stroke="#191970" points="1046.1356,-262.5001 1036.1356,-266 1046.1356,-269.5001 1046.1356,-262.5001"/>
</g>
<!-- Node92&#45;&gt;Node75 -->
<g id="edge24" class="edge">
<title>Node92&#45;&gt;Node75</title>
<path fill="none" stroke="#191970" d="M1533.3531,-254.3905C1560.5176,-248.986 1592.4324,-242.6365 1618.1492,-237.5201"/>
<polygon fill="#191970" stroke="#191970" points="1532.3222,-251.0269 1523.1974,-256.411 1533.6881,-257.8924 1532.3222,-251.0269"/>
</g>
<!-- Node93&#45;&gt;Node87 -->
<g id="edge40" class="edge">
<title>Node93&#45;&gt;Node87</title>
<path fill="none" stroke="#191970" d="M562.5389,-234.7098C544.7471,-234.837 526.4495,-234.6623 510.0467,-234.186"/>
<polygon fill="#191970" stroke="#191970" points="562.9755,-238.2055 572.9379,-234.6001 562.9015,-231.2059 562.9755,-238.2055"/>
</g>
<!-- Node93&#45;&gt;Node88 -->
<g id="edge26" class="edge">
<title>Node93&#45;&gt;Node88</title>
<path fill="none" stroke="#191970" d="M735.1553,-237.5172C745.5662,-238.6672 755.9739,-239.8169 765.7684,-240.8988"/>
<polygon fill="#191970" stroke="#191970" points="735.5167,-234.0359 725.1928,-236.4167 734.7481,-240.9936 735.5167,-234.0359"/>
</g>
<!-- Node94 -->
<g id="node21" class="node">
<title>Node94</title>
<g id="a_node21"><a xlink:href="classMap.html#a481b37ba71ef0e51e836fc42805762dd" target="_top" xlink:title="Update all mapNodes Updates all mapNode and its adjacent tiles regarding height information, draws slopes for adjacent tiles and sets tiling for mapNode sprite if applicable. ">
<polygon fill="none" stroke="#000000" points="761,-104.5 761,-123.5 881,-123.5 881,-104.5 761,-104.5"/>
<text text-anchor="middle" x="821" y="-111.5" font-family="Helvetica,sans-Serif" font-size="10.00" fill="#000000">Map::updateAllNodes</text>
</a>
</g>
</g>
<!-- Node93&#45;&gt;Node94 -->
<g id="edge27" class="edge">
<title>Node93&#45;&gt;Node94</title>
<path fill="none" stroke="#191970" d="M671.7323,-212.9333C707.5815,-189.1727 776.2554,-143.6563 806.3075,-123.738"/>
<polygon fill="#191970" stroke="#191970" points="669.7706,-210.0345 663.3688,-218.4765 673.6378,-215.8692 669.7706,-210.0345"/>
</g>
<!-- Node95 -->
<g id="node22" class="node">
<title>Node95</title>
<g id="a_node22"><a xlink:href="classMap.html#a26eceeccd7b6ed693909b1927a25c67a" target="_top" xlink:title="Map::Map">
<polygon fill="none" stroke="#000000" points="945,-66.5 945,-85.5 1008,-85.5 1008,-66.5 945,-66.5"/>
<text text-anchor="middle" x="976.5" y="-73.5" font-family="Helvetica,sans-Serif" font-size="10.00" fill="#000000">Map::Map</text>
</a>
</g>
</g>
<!-- Node94&#45;&gt;Node95 -->
<g id="edge28" class="edge">
<title>Node94&#45;&gt;Node95</title>
<path fill="none" stroke="#191970" d="M870.0627,-102.0104C894.5101,-96.0361 923.3586,-88.9863 944.8507,-83.7342"/>
<polygon fill="#191970" stroke="#191970" points="869.1225,-98.6371 860.2392,-104.411 870.7843,-105.437 869.1225,-98.6371"/>
</g>
<!-- Node96 -->
<g id="node23" class="node">
<title>Node96</title>
<g id="a_node23"><a xlink:href="classMap.html#afefe996cc1f62b61ec60d0ae415953bf" target="_top" xlink:title="Map::loadMapFromFile">
<polygon fill="none" stroke="#000000" points="1077.5,-66.5 1077.5,-85.5 1202.5,-85.5 1202.5,-66.5 1077.5,-66.5"/>
<text text-anchor="middle" x="1140" y="-73.5" font-family="Helvetica,sans-Serif" font-size="10.00" fill="#000000">Map::loadMapFromFile</text>
</a>
</g>
</g>
<!-- Node94&#45;&gt;Node96 -->
<g id="edge39" class="edge">
<title>Node94&#45;&gt;Node96</title>
<path fill="none" stroke="#191970" d="M891.5445,-109.4189C933.596,-106.277 987.9726,-101.4951 1036,-95 1054.7345,-92.4664 1075.2291,-88.8958 1093.0348,-85.5329"/>
<polygon fill="#191970" stroke="#191970" points="891.1218,-105.9404 881.4046,-110.1626 891.6339,-112.9216 891.1218,-105.9404"/>
</g>
<!-- Node95&#45;&gt;Node96 -->
<g id="edge29" class="edge">
<title>Node95&#45;&gt;Node96</title>
<path fill="none" stroke="#191970" d="M1018.1806,-76C1036.1695,-76 1057.5975,-76 1077.4294,-76"/>
<polygon fill="#191970" stroke="#191970" points="1018.0245,-72.5001 1008.0244,-76 1018.0244,-79.5001 1018.0245,-72.5001"/>
</g>
<!-- Node97 -->
<g id="node24" class="node">
<title>Node97</title>
<g id="a_node24"><a xlink:href="classEngine.html#a83b7dbeee899b36a13d5b07c7ad87ebc" target="_top" xlink:title="Loads a saved game Loads a saved Game. ">
<polygon fill="none" stroke="#000000" points="1255.5,-66.5 1255.5,-85.5 1361.5,-85.5 1361.5,-66.5 1255.5,-66.5"/>
<text text-anchor="middle" x="1308.5" y="-73.5" font-family="Helvetica,sans-Serif" font-size="10.00" fill="#000000">Engine::loadGame</text>
</a>
</g>
</g>
<!-- Node96&#45;&gt;Node97 -->
<g id="edge30" class="edge">
<title>Node96&#45;&gt;Node97</title>
<path fill="none" stroke="#191970" d="M1213.0106,-76C1227.2497,-76 1241.9249,-76 1255.3699,-76"/>
<polygon fill="#191970" stroke="#191970" points="1212.7432,-72.5001 1202.7432,-76 1212.7431,-79.5001 1212.7432,-72.5001"/>
</g>
<!-- Node98 -->
<g id="node25" class="node">
<title>Node98</title>
<g id="a_node25"><a xlink:href="classEngine.html#a0ba57971ffb5173ecc425461f65a4cd8" target="_top" xlink:title="Quits the game Sets m_running to false and quitting the game. ">
<polygon fill="none" stroke="#000000" points="1423,-66.5 1423,-85.5 1527,-85.5 1527,-66.5 1423,-66.5"/>
<text text-anchor="middle" x="1475" y="-73.5" font-family="Helvetica,sans-Serif" font-size="10.00" fill="#000000">Engine::quitGame</text>
</a>
</g>
</g>
<!-- Node97&#45;&gt;Node98 -->
<g id="edge31" class="edge">
<title>Node97&#45;&gt;Node98</title>
<path fill="none" stroke="#191970" d="M1371.9499,-76C1388.7901,-76 1406.7777,-76 1422.9338,-76"/>
<polygon fill="#191970" stroke="#191970" points="1371.6395,-72.5001 1361.6394,-76 1371.6394,-79.5001 1371.6395,-72.5001"/>
</g>
<!-- Node97&#45;&gt;Node99 -->
<g id="edge37" class="edge">
<title>Node97&#45;&gt;Node99</title>
<path fill="none" stroke="#191970" d="M1362.9232,-64.5494C1377.809,-61.7353 1393.9795,-58.9687 1409,-57 1464.5614,-49.7178 1527.2741,-45.0133 1576.8404,-42.1073"/>
<polygon fill="#191970" stroke="#191970" points="1362.0067,-61.1617 1352.8527,-66.496 1363.3352,-68.0345 1362.0067,-61.1617"/>
</g>
<!-- Node101 -->
<g id="node28" class="node">
<title>Node101</title>
<g id="a_node28"><a xlink:href="classGame.html#a560299f0291c281f7b44e7ef0dd7b264" target="_top" xlink:title="initializes and displays the main menu initializes and displays the main menu ">
<polygon fill="none" stroke="#000000" points="1791,-104.5 1791,-123.5 1894,-123.5 1894,-104.5 1791,-104.5"/>
<text text-anchor="middle" x="1842.5" y="-111.5" font-family="Helvetica,sans-Serif" font-size="10.00" fill="#000000">Game::mainMenu</text>
</a>
</g>
</g>
<!-- Node97&#45;&gt;Node101 -->
<g id="edge38" class="edge">
<title>Node97&#45;&gt;Node101</title>
<path fill="none" stroke="#191970" d="M1362.0368,-87.5904C1377.1552,-90.4625 1393.6651,-93.2236 1409,-95 1546.3172,-110.9067 1709.5087,-113.7718 1790.9279,-114.1189"/>
<polygon fill="#191970" stroke="#191970" points="1362.3098,-84.0776 1351.8242,-85.595 1360.9674,-90.9477 1362.3098,-84.0776"/>
</g>
<!-- Node98&#45;&gt;Node75 -->
<g id="edge32" class="edge">
<title>Node98&#45;&gt;Node75</title>
<path fill="none" stroke="#191970" d="M1495.091,-91.9886C1534.7847,-123.5774 1622.1726,-193.1217 1654.0566,-218.4953"/>
<polygon fill="#191970" stroke="#191970" points="1496.952,-88.9966 1486.9479,-85.5083 1492.5931,-94.4739 1496.952,-88.9966"/>
</g>
<!-- Node98&#45;&gt;Node99 -->
<g id="edge33" class="edge">
<title>Node98&#45;&gt;Node99</title>
<path fill="none" stroke="#191970" d="M1533.3531,-64.3905C1560.5176,-58.986 1592.4324,-52.6365 1618.1492,-47.5201"/>
<polygon fill="#191970" stroke="#191970" points="1532.3222,-61.0269 1523.1974,-66.411 1533.6881,-67.8924 1532.3222,-61.0269"/>
</g>
<!-- Node100 -->
<g id="node27" class="node">
<title>Node100</title>
<g id="a_node27"><a xlink:href="classGame.html#a8272be134d16c277bb014ad6a22fc357" target="_top" xlink:title="Game::quit">
<polygon fill="none" stroke="#000000" points="1630.5,-66.5 1630.5,-85.5 1701.5,-85.5 1701.5,-66.5 1630.5,-66.5"/>
<text text-anchor="middle" x="1666" y="-73.5" font-family="Helvetica,sans-Serif" font-size="10.00" fill="#000000">Game::quit</text>
</a>
</g>
</g>
<!-- Node98&#45;&gt;Node100 -->
<g id="edge34" class="edge">
<title>Node98&#45;&gt;Node100</title>
<path fill="none" stroke="#191970" d="M1537.4322,-76C1568.2881,-76 1604.3982,-76 1630.4801,-76"/>
<polygon fill="#191970" stroke="#191970" points="1537.1916,-72.5001 1527.1916,-76 1537.1916,-79.5001 1537.1916,-72.5001"/>
</g>
<!-- Node100&#45;&gt;Node101 -->
<g id="edge35" class="edge">
<title>Node100&#45;&gt;Node101</title>
<path fill="none" stroke="#191970" d="M1711.5577,-85.8085C1738.1808,-91.5403 1771.633,-98.7425 1798.0613,-104.4325"/>
<polygon fill="#191970" stroke="#191970" points="1712.2301,-82.3731 1701.7174,-83.6899 1710.7567,-89.2163 1712.2301,-82.3731"/>
</g>
<!-- Node101&#45;&gt;Node77 -->
<g id="edge36" class="edge">
<title>Node101&#45;&gt;Node77</title>
<path fill="none" stroke="#191970" d="M1904.2457,-122.755C1912.7846,-123.9657 1921.438,-125.1927 1929.6465,-126.3566"/>
<polygon fill="#191970" stroke="#191970" points="1904.7003,-119.2845 1894.3079,-121.3459 1903.7175,-126.2152 1904.7003,-119.2845"/>
</g>
<!-- Node102&#45;&gt;Node75 -->
<g id="edge42" class="edge">
<title>Node102&#45;&gt;Node75</title>
<path fill="none" stroke="#191970" d="M317.6653,-391.3055C411.9072,-407.9245 585.8159,-437 649,-437 649,-437 649,-437 1308.5,-437 1419.3051,-437 1447.4196,-406.3337 1541,-347 1591.8633,-314.7506 1639.9141,-259.7829 1658.2132,-237.6525"/>
<polygon fill="#191970" stroke="#191970" points="318.1469,-387.8365 307.69,-389.5405 316.9272,-394.7294 318.1469,-387.8365"/>
</g>
<!-- Node102&#45;&gt;Node79 -->
<g id="edge44" class="edge">
<title>Node102&#45;&gt;Node79</title>
<path fill="none" stroke="#191970" d="M298.1302,-367.615C334.779,-357.0912 386.6346,-342.2007 420.1672,-332.5716"/>
<polygon fill="#191970" stroke="#191970" points="296.87,-364.3354 288.2244,-370.4595 298.802,-371.0635 296.87,-364.3354"/>
</g>
<!-- Node102&#45;&gt;Node80 -->
<g id="edge43" class="edge">
<title>Node102&#45;&gt;Node80</title>
<path fill="none" stroke="#191970" d="M336.8501,-372.1058C413.0527,-364.7563 524.6764,-353.9906 591.7477,-347.5218"/>
<polygon fill="#191970" stroke="#191970" points="336.4253,-368.6305 326.8075,-373.0744 337.0974,-375.5981 336.4253,-368.6305"/>
</g>
<!-- Node102&#45;&gt;Node81 -->
<g id="edge46" class="edge">
<title>Node102&#45;&gt;Node81</title>
<path fill="none" stroke="#191970" d="M337.0978,-380C411.6678,-380 520.0065,-380 587.3969,-380"/>
<polygon fill="#191970" stroke="#191970" points="336.8076,-376.5001 326.8075,-380 336.8075,-383.5001 336.8076,-376.5001"/>
</g>
<!-- Node102&#45;&gt;Node84 -->
<g id="edge45" class="edge">
<title>Node102&#45;&gt;Node84</title>
<path fill="none" stroke="#191970" d="M295.7167,-393.2508C308.553,-398.3915 322.3992,-404.9942 334,-413 353.1476,-426.2138 350.1198,-438.9164 370,-451 380.3114,-457.2675 392.3325,-461.9615 403.9877,-465.4535"/>
<polygon fill="#191970" stroke="#191970" points="296.7422,-389.8962 286.1514,-389.6057 294.2495,-396.4373 296.7422,-389.8962"/>
</g>
</g>
</svg>
