<?xml version="1.0" encoding="UTF-8" standalone="no"?>
<!DOCTYPE svg PUBLIC "-//W3C//DTD SVG 1.1//EN"
 "http://www.w3.org/Graphics/SVG/1.1/DTD/svg11.dtd">
<!-- Generated by graphviz version 2.40.1 (20161225.0304)
 -->
<!-- Title: TileManager::getTileLayer Pages: 1 -->
<svg width="1185pt" height="160pt"
 viewBox="0.00 0.00 1185.00 159.95" xmlns="http://www.w3.org/2000/svg" xmlns:xlink="http://www.w3.org/1999/xlink">
<g id="graph0" class="graph" transform="scale(1 1) rotate(0) translate(4 155.952)">
<title>TileManager::getTileLayer</title>
<!-- Node106 -->
<g id="node1" class="node">
<title>Node106</title>
<polygon fill="#bfbfbf" stroke="#000000" points="0,-76.5 0,-95.5 143,-95.5 143,-76.5 0,-76.5"/>
<text text-anchor="middle" x="71.5" y="-83.5" font-family="Helvetica,sans-Serif" font-size="10.00" fill="#000000">TileManager::getTileLayer</text>
</g>
<!-- Node107 -->
<g id="node2" class="node">
<title>Node107</title>
<g id="a_node2"><a xlink:href="classEventManager.html#a65ec91fd5016d4f9c4167fb8babed2df" target="_top" xlink:title="EventManager::checkEvents">
<polygon fill="none" stroke="#000000" points="713,-114.5 713,-133.5 867,-133.5 867,-114.5 713,-114.5"/>
<text text-anchor="middle" x="790" y="-121.5" font-family="Helvetica,sans-Serif" font-size="10.00" fill="#000000">EventManager::checkEvents</text>
</a>
</g>
</g>
<!-- Node106&#45;&gt;Node107 -->
<g id="edge1" class="edge">
<title>Node106&#45;&gt;Node107</title>
<path fill="none" stroke="#191970" d="M101.4164,-99.6473C122.6207,-108.6908 151.9892,-119.9631 179,-126 373.6231,-169.4979 611.9099,-148.0296 724.7678,-133.5556"/>
<polygon fill="#191970" stroke="#191970" points="102.5641,-96.3297 91.9981,-95.548 99.7705,-102.7481 102.5641,-96.3297"/>
</g>
<!-- Node111 -->
<g id="node6" class="node">
<title>Node111</title>
<g id="a_node6"><a xlink:href="classMapNode.html#ae515fc96b543bf97237bfb1ca53fe571" target="_top" xlink:title="MapNode::MapNode">
<polygon fill="none" stroke="#000000" points="386.5,-114.5 386.5,-133.5 500.5,-133.5 500.5,-114.5 386.5,-114.5"/>
<text text-anchor="middle" x="443.5" y="-121.5" font-family="Helvetica,sans-Serif" font-size="10.00" fill="#000000">MapNode::MapNode</text>
</a>
</g>
</g>
<!-- Node106&#45;&gt;Node111 -->
<g id="edge5" class="edge">
<title>Node106&#45;&gt;Node111</title>
<path fill="none" stroke="#191970" d="M129.5118,-97.383C145.4978,-100.211 162.8768,-103.0015 179,-105 250.1603,-113.8205 332.6373,-118.9411 386.321,-121.5989"/>
<polygon fill="#191970" stroke="#191970" points="129.698,-93.86 119.2351,-95.5271 128.4539,-100.7486 129.698,-93.86"/>
</g>
<!-- Node112 -->
<g id="node7" class="node">
<title>Node112</title>
<g id="a_node7"><a xlink:href="classMapNode.html#a26e55c94192a56990f8a59e7af139a73" target="_top" xlink:title="MapNode::setTileID">
<polygon fill="none" stroke="#000000" points="206.5,-76.5 206.5,-95.5 318.5,-95.5 318.5,-76.5 206.5,-76.5"/>
<text text-anchor="middle" x="262.5" y="-83.5" font-family="Helvetica,sans-Serif" font-size="10.00" fill="#000000">MapNode::setTileID</text>
</a>
</g>
</g>
<!-- Node106&#45;&gt;Node112 -->
<g id="edge6" class="edge">
<title>Node106&#45;&gt;Node112</title>
<path fill="none" stroke="#191970" d="M153.5401,-86C171.3188,-86 189.7326,-86 206.2499,-86"/>
<polygon fill="#191970" stroke="#191970" points="153.1648,-82.5001 143.1648,-86 153.1647,-89.5001 153.1648,-82.5001"/>
</g>
<!-- Node113 -->
<g id="node8" class="node">
<title>Node113</title>
<g id="a_node8"><a xlink:href="classMap.html#a404c38b33d61f8c63ce2c2efb864d6dd" target="_top" xlink:title="Set the Tile ID Of Node object Also invokes all necessary texture updates (auto&#45;tiling, slopes, ...) ">
<polygon fill="none" stroke="#000000" points="382,-76.5 382,-95.5 505,-95.5 505,-76.5 382,-76.5"/>
<text text-anchor="middle" x="443.5" y="-83.5" font-family="Helvetica,sans-Serif" font-size="10.00" fill="#000000">Map::setTileIDOfNode</text>
</a>
</g>
</g>
<!-- Node106&#45;&gt;Node113 -->
<g id="edge12" class="edge">
<title>Node106&#45;&gt;Node113</title>
<path fill="none" stroke="#191970" d="M125.0476,-74.6359C142.1981,-71.5077 161.3236,-68.5501 179,-67 252.9385,-60.5161 272.1212,-59.8686 346,-67 365.2256,-68.8558 386.2909,-72.7245 403.9063,-76.4896"/>
<polygon fill="#191970" stroke="#191970" points="124.3841,-71.1993 115.2038,-76.4882 125.6786,-78.0786 124.3841,-71.1993"/>
</g>
<!-- Node115 -->
<g id="node10" class="node">
<title>Node115</title>
<g id="a_node10"><a xlink:href="classMapNode.html#a3d88c4eff75c599fb6fd37afd1c882b6" target="_top" xlink:title="MapNode::isPlacementAllowed">
<polygon fill="none" stroke="#000000" points="179,-.5 179,-19.5 346,-19.5 346,-.5 179,-.5"/>
<text text-anchor="middle" x="262.5" y="-7.5" font-family="Helvetica,sans-Serif" font-size="10.00" fill="#000000">MapNode::isPlacementAllowed</text>
</a>
</g>
</g>
<!-- Node106&#45;&gt;Node115 -->
<g id="edge11" class="edge">
<title>Node106&#45;&gt;Node115</title>
<path fill="none" stroke="#191970" d="M98.0833,-71.5638C119.5028,-60.3205 150.6201,-44.8514 179,-34 193.5113,-28.4514 209.8626,-23.4826 224.2241,-19.5252"/>
<polygon fill="#191970" stroke="#191970" points="96.1616,-68.6213 88.969,-76.4006 99.4429,-74.8046 96.1616,-68.6213"/>
</g>
<!-- Node108 -->
<g id="node3" class="node">
<title>Node108</title>
<g id="a_node3"><a xlink:href="classGame.html#a1c2ab25d5216b2f4b2fe41efd2c09114" target="_top" xlink:title="begins the game starts running the game ">
<polygon fill="none" stroke="#000000" points="903,-114.5 903,-133.5 971,-133.5 971,-114.5 903,-114.5"/>
<text text-anchor="middle" x="937" y="-121.5" font-family="Helvetica,sans-Serif" font-size="10.00" fill="#000000">Game::run</text>
</a>
</g>
</g>
<!-- Node107&#45;&gt;Node108 -->
<g id="edge2" class="edge">
<title>Node107&#45;&gt;Node108</title>
<path fill="none" stroke="#191970" d="M877.5248,-124C886.4338,-124 895.0572,-124 902.845,-124"/>
<polygon fill="#191970" stroke="#191970" points="877.3744,-120.5001 867.3744,-124 877.3743,-127.5001 877.3744,-120.5001"/>
</g>
<!-- Node109 -->
<g id="node4" class="node">
<title>Node109</title>
<g id="a_node4"><a xlink:href="main_8cxx.html#af582d708d899e67ead623eac34a22387" target="_top" xlink:title="protected_main">
<polygon fill="none" stroke="#000000" points="1007,-114.5 1007,-133.5 1100,-133.5 1100,-114.5 1007,-114.5"/>
<text text-anchor="middle" x="1053.5" y="-121.5" font-family="Helvetica,sans-Serif" font-size="10.00" fill="#000000">protected_main</text>
</a>
</g>
</g>
<!-- Node108&#45;&gt;Node109 -->
<g id="edge3" class="edge">
<title>Node108&#45;&gt;Node109</title>
<path fill="none" stroke="#191970" d="M981.2653,-124C989.5757,-124 998.2897,-124 1006.6749,-124"/>
<polygon fill="#191970" stroke="#191970" points="981.0098,-120.5001 971.0098,-124 981.0098,-127.5001 981.0098,-120.5001"/>
</g>
<!-- Node110 -->
<g id="node5" class="node">
<title>Node110</title>
<g id="a_node5"><a xlink:href="main_8cxx.html#a3c04138a5bfe5d72780bb7e82a18e627" target="_top" xlink:title="main">
<polygon fill="none" stroke="#000000" points="1136,-114.5 1136,-133.5 1177,-133.5 1177,-114.5 1136,-114.5"/>
<text text-anchor="middle" x="1156.5" y="-121.5" font-family="Helvetica,sans-Serif" font-size="10.00" fill="#000000">main</text>
</a>
</g>
</g>
<!-- Node109&#45;&gt;Node110 -->
<g id="edge4" class="edge">
<title>Node109&#45;&gt;Node110</title>
<path fill="none" stroke="#191970" d="M1110.2133,-124C1119.4322,-124 1128.4259,-124 1135.9965,-124"/>
<polygon fill="#191970" stroke="#191970" points="1110.1782,-120.5001 1100.1782,-124 1110.1781,-127.5001 1110.1782,-120.5001"/>
</g>
<!-- Node112&#45;&gt;Node111 -->
<g id="edge7" class="edge">
<title>Node112&#45;&gt;Node111</title>
<path fill="none" stroke="#191970" d="M318.1384,-97.681C343.8066,-103.0699 373.8915,-109.3861 398.1545,-114.4799"/>
<polygon fill="#191970" stroke="#191970" points="318.6797,-94.2184 308.1739,-95.589 317.2414,-101.0691 318.6797,-94.2184"/>
</g>
<!-- Node112&#45;&gt;Node113 -->
<g id="edge8" class="edge">
<title>Node112&#45;&gt;Node113</title>
<path fill="none" stroke="#191970" d="M328.8257,-86C346.1792,-86 364.8124,-86 381.9079,-86"/>
<polygon fill="#191970" stroke="#191970" points="328.7774,-82.5001 318.7774,-86 328.7773,-89.5001 328.7774,-82.5001"/>
</g>
<!-- Node114 -->
<g id="node9" class="node">
<title>Node114</title>
<g id="a_node9"><a xlink:href="classEngine.html#a7a1521fd7fc731f961ebaf3f723127d9" target="_top" xlink:title="Engine::setTileIDOfNode">
<polygon fill="none" stroke="#000000" points="541,-95.5 541,-114.5 677,-114.5 677,-95.5 541,-95.5"/>
<text text-anchor="middle" x="609" y="-102.5" font-family="Helvetica,sans-Serif" font-size="10.00" fill="#000000">Engine::setTileIDOfNode</text>
</a>
</g>
</g>
<!-- Node113&#45;&gt;Node114 -->
<g id="edge9" class="edge">
<title>Node113&#45;&gt;Node114</title>
<path fill="none" stroke="#191970" d="M515.094,-94.2192C523.6681,-95.2036 532.405,-96.2066 540.9273,-97.185"/>
<polygon fill="#191970" stroke="#191970" points="515.4601,-90.7384 505.1261,-93.0749 514.6616,-97.6927 515.4601,-90.7384"/>
</g>
<!-- Node114&#45;&gt;Node107 -->
<g id="edge10" class="edge">
<title>Node114&#45;&gt;Node107</title>
<path fill="none" stroke="#191970" d="M687.3623,-113.2259C695.7925,-114.1108 704.3658,-115.0108 712.7824,-115.8943"/>
<polygon fill="#191970" stroke="#191970" points="687.4812,-109.7192 677.1704,-112.156 686.7504,-116.681 687.4812,-109.7192"/>
</g>
</g>
</svg>
