<?xml version="1.0" encoding="UTF-8" standalone="no"?>
<!DOCTYPE svg PUBLIC "-//W3C//DTD SVG 1.1//EN"
 "http://www.w3.org/Graphics/SVG/1.1/DTD/svg11.dtd">
<!-- Generated by graphviz version 2.40.1 (20161225.0304)
 -->
<!-- Title: Map::calculateAutotileBitmask Pages: 1 -->
<svg width="1717pt" height="210pt"
 viewBox="0.00 0.00 1717.00 209.98" xmlns="http://www.w3.org/2000/svg" xmlns:xlink="http://www.w3.org/1999/xlink">
<g id="graph0" class="graph" transform="scale(1 1) rotate(0) translate(4 205.9782)">
<title>Map::calculateAutotileBitmask</title>
<!-- Node44 -->
<g id="node1" class="node">
<title>Node44</title>
<polygon fill="#bfbfbf" stroke="#000000" points="0,-106.4782 0,-125.4782 166,-125.4782 166,-106.4782 0,-106.4782"/>
<text text-anchor="middle" x="83" y="-113.4782" font-family="Helvetica,sans-Serif" font-size="10.00" fill="#000000">Map::calculateAutotileBitmask</text>
</g>
<!-- Node45 -->
<g id="node2" class="node">
<title>Node45</title>
<g id="a_node2"><a xlink:href="classMap.html#af1e496c421981fe707890b0ba60cc20f" target="_top" xlink:title="Map::updateNodeNeighbors">
<polygon fill="none" stroke="#000000" points="202,-106.4782 202,-125.4782 354,-125.4782 354,-106.4782 202,-106.4782"/>
<text text-anchor="middle" x="278" y="-113.4782" font-family="Helvetica,sans-Serif" font-size="10.00" fill="#000000">Map::updateNodeNeighbors</text>
</a>
</g>
</g>
<!-- Node44&#45;&gt;Node45 -->
<g id="edge1" class="edge">
<title>Node44&#45;&gt;Node45</title>
<path fill="none" stroke="#191970" d="M176.2718,-115.9782C184.8282,-115.9782 193.4281,-115.9782 201.8072,-115.9782"/>
<polygon fill="#191970" stroke="#191970" points="176.2632,-112.4783 166.2632,-115.9782 176.2631,-119.4783 176.2632,-112.4783"/>
</g>
<!-- Node46 -->
<g id="node3" class="node">
<title>Node46</title>
<g id="a_node3"><a xlink:href="classMap.html#ade1eeabf4e539f9dbfe2a96c97fda4e3" target="_top" xlink:title="Map::changeHeight">
<polygon fill="none" stroke="#000000" points="546,-144.4782 546,-163.4782 656,-163.4782 656,-144.4782 546,-144.4782"/>
<text text-anchor="middle" x="601" y="-151.4782" font-family="Helvetica,sans-Serif" font-size="10.00" fill="#000000">Map::changeHeight</text>
</a>
</g>
</g>
<!-- Node45&#45;&gt;Node46 -->
<g id="edge2" class="edge">
<title>Node45&#45;&gt;Node46</title>
<path fill="none" stroke="#191970" d="M339.2144,-127.2528C355.667,-130.0394 373.4791,-132.8364 390,-134.9782 442.7063,-141.8112 503.1382,-146.9839 545.7817,-150.1936"/>
<polygon fill="#191970" stroke="#191970" points="339.6184,-123.771 329.1697,-125.5251 338.4317,-130.6697 339.6184,-123.771"/>
</g>
<!-- Node55 -->
<g id="node12" class="node">
<title>Node55</title>
<g id="a_node12"><a xlink:href="classMap.html#a481b37ba71ef0e51e836fc42805762dd" target="_top" xlink:title="Update all mapNodes Updates all mapNode and its adjacent tiles regarding height information, draws slopes for adjacent tiles and sets tiling for mapNode sprite if applicable. ">
<polygon fill="none" stroke="#000000" points="390,-68.4782 390,-87.4782 510,-87.4782 510,-68.4782 390,-68.4782"/>
<text text-anchor="middle" x="450" y="-75.4782" font-family="Helvetica,sans-Serif" font-size="10.00" fill="#000000">Map::updateAllNodes</text>
</a>
</g>
</g>
<!-- Node45&#45;&gt;Node55 -->
<g id="edge12" class="edge">
<title>Node45&#45;&gt;Node55</title>
<path fill="none" stroke="#191970" d="M331.1959,-104.2256C355.5166,-98.8524 383.9547,-92.5696 406.9092,-87.4982"/>
<polygon fill="#191970" stroke="#191970" points="330.4123,-100.8142 321.4029,-106.3892 331.9225,-107.6494 330.4123,-100.8142"/>
</g>
<!-- Node63 -->
<g id="node20" class="node">
<title>Node63</title>
<g id="a_node20"><a xlink:href="classMap.html#aa8cc2ed983007621bce12dd9d1b8ec5b" target="_top" xlink:title="Demolish a node This function gathers all tiles that should be demolished and invokes the nodes demol...">
<polygon fill="none" stroke="#000000" points="393.5,-106.4782 393.5,-125.4782 506.5,-125.4782 506.5,-106.4782 393.5,-106.4782"/>
<text text-anchor="middle" x="450" y="-113.4782" font-family="Helvetica,sans-Serif" font-size="10.00" fill="#000000">Map::demolishNode</text>
</a>
</g>
</g>
<!-- Node45&#45;&gt;Node63 -->
<g id="edge25" class="edge">
<title>Node45&#45;&gt;Node63</title>
<path fill="none" stroke="#191970" d="M364.4498,-109.2283C374.3104,-109.2319 384.1632,-109.3538 393.4896,-109.594"/>
<polygon fill="#191970" stroke="#191970" points="364.1794,-105.7292 354.1928,-109.2674 364.2061,-112.7291 364.1794,-105.7292"/>
</g>
<!-- Node47 -->
<g id="node4" class="node">
<title>Node47</title>
<g id="a_node4"><a xlink:href="classMap.html#aba5154a4d917900679a3c0f7ec701561" target="_top" xlink:title="Increase Height Increases the height of the node and checks the surrounding tiles. Either draw a slope sprite or elevate the tile if necessary. ">
<polygon fill="none" stroke="#000000" points="696.5,-182.4782 696.5,-201.4782 812.5,-201.4782 812.5,-182.4782 696.5,-182.4782"/>
<text text-anchor="middle" x="754.5" y="-189.4782" font-family="Helvetica,sans-Serif" font-size="10.00" fill="#000000">Map::increaseHeight</text>
</a>
</g>
</g>
<!-- Node46&#45;&gt;Node47 -->
<g id="edge3" class="edge">
<title>Node46&#45;&gt;Node47</title>
<path fill="none" stroke="#191970" d="M649.6352,-166.0182C671.0799,-171.327 695.9226,-177.4769 716.044,-182.4581"/>
<polygon fill="#191970" stroke="#191970" points="650.2826,-162.5729 639.7345,-163.5672 648.6004,-169.3677 650.2826,-162.5729"/>
</g>
<!-- Node53 -->
<g id="node10" class="node">
<title>Node53</title>
<g id="a_node10"><a xlink:href="classMap.html#afb8cc864df90d273a5074872d635dc40" target="_top" xlink:title="Decrease Height Decreases the height of the node and checks the surrounding tiles. Either draw a slope sprite or lower the tile if necessary. ">
<polygon fill="none" stroke="#000000" points="695,-144.4782 695,-163.4782 814,-163.4782 814,-144.4782 695,-144.4782"/>
<text text-anchor="middle" x="754.5" y="-151.4782" font-family="Helvetica,sans-Serif" font-size="10.00" fill="#000000">Map::decreaseHeight</text>
</a>
</g>
</g>
<!-- Node46&#45;&gt;Node53 -->
<g id="edge9" class="edge">
<title>Node46&#45;&gt;Node53</title>
<path fill="none" stroke="#191970" d="M666.4846,-153.9782C675.8708,-153.9782 685.4869,-153.9782 694.7546,-153.9782"/>
<polygon fill="#191970" stroke="#191970" points="666.4171,-150.4783 656.417,-153.9782 666.417,-157.4783 666.4171,-150.4783"/>
</g>
<!-- Node48 -->
<g id="node5" class="node">
<title>Node48</title>
<g id="a_node5"><a xlink:href="classEngine.html#a4851ae1ff696c893741167fc0194fd77" target="_top" xlink:title="Increase Height Increases the height of the given map node Calls the according function of the Map ob...">
<polygon fill="none" stroke="#000000" points="1021,-182.4782 1021,-201.4782 1150,-201.4782 1150,-182.4782 1021,-182.4782"/>
<text text-anchor="middle" x="1085.5" y="-189.4782" font-family="Helvetica,sans-Serif" font-size="10.00" fill="#000000">Engine::increaseHeight</text>
</a>
</g>
</g>
<!-- Node47&#45;&gt;Node48 -->
<g id="edge4" class="edge">
<title>Node47&#45;&gt;Node48</title>
<path fill="none" stroke="#191970" d="M822.717,-191.9782C880.796,-191.9782 963.6556,-191.9782 1020.7264,-191.9782"/>
<polygon fill="#191970" stroke="#191970" points="822.5346,-188.4783 812.5346,-191.9782 822.5345,-195.4783 822.5346,-188.4783"/>
</g>
<!-- Node49 -->
<g id="node6" class="node">
<title>Node49</title>
<g id="a_node6"><a xlink:href="classEventManager.html#a65ec91fd5016d4f9c4167fb8babed2df" target="_top" xlink:title="EventManager::checkEvents">
<polygon fill="none" stroke="#000000" points="1198,-106.4782 1198,-125.4782 1352,-125.4782 1352,-106.4782 1198,-106.4782"/>
<text text-anchor="middle" x="1275" y="-113.4782" font-family="Helvetica,sans-Serif" font-size="10.00" fill="#000000">EventManager::checkEvents</text>
</a>
</g>
</g>
<!-- Node48&#45;&gt;Node49 -->
<g id="edge5" class="edge">
<title>Node48&#45;&gt;Node49</title>
<path fill="none" stroke="#191970" d="M1121.3728,-178.9056C1130.719,-175.4245 1140.7592,-171.618 1150,-167.9782 1186.0839,-153.7654 1227.5809,-136.2719 1252.5233,-125.631"/>
<polygon fill="#191970" stroke="#191970" points="1120.1099,-175.641 1111.9469,-182.395 1122.5401,-182.2056 1120.1099,-175.641"/>
</g>
<!-- Node50 -->
<g id="node7" class="node">
<title>Node50</title>
<g id="a_node7"><a xlink:href="classGame.html#a1c2ab25d5216b2f4b2fe41efd2c09114" target="_top" xlink:title="begins the game starts running the game ">
<polygon fill="none" stroke="#000000" points="1417.5,-106.4782 1417.5,-125.4782 1485.5,-125.4782 1485.5,-106.4782 1417.5,-106.4782"/>
<text text-anchor="middle" x="1451.5" y="-113.4782" font-family="Helvetica,sans-Serif" font-size="10.00" fill="#000000">Game::run</text>
</a>
</g>
</g>
<!-- Node49&#45;&gt;Node50 -->
<g id="edge6" class="edge">
<title>Node49&#45;&gt;Node50</title>
<path fill="none" stroke="#191970" d="M1362.3664,-115.9782C1381.9355,-115.9782 1401.5625,-115.9782 1417.398,-115.9782"/>
<polygon fill="#191970" stroke="#191970" points="1362.1587,-112.4783 1352.1587,-115.9782 1362.1587,-119.4783 1362.1587,-112.4783"/>
</g>
<!-- Node51 -->
<g id="node8" class="node">
<title>Node51</title>
<g id="a_node8"><a xlink:href="main_8cxx.html#af582d708d899e67ead623eac34a22387" target="_top" xlink:title="protected_main">
<polygon fill="none" stroke="#000000" points="1539,-87.4782 1539,-106.4782 1632,-106.4782 1632,-87.4782 1539,-87.4782"/>
<text text-anchor="middle" x="1585.5" y="-94.4782" font-family="Helvetica,sans-Serif" font-size="10.00" fill="#000000">protected_main</text>
</a>
</g>
</g>
<!-- Node50&#45;&gt;Node51 -->
<g id="edge7" class="edge">
<title>Node50&#45;&gt;Node51</title>
<path fill="none" stroke="#191970" d="M1495.8611,-109.6882C1509.6278,-107.7362 1524.8396,-105.5793 1538.7626,-103.6051"/>
<polygon fill="#191970" stroke="#191970" points="1495.0702,-106.2652 1485.6606,-111.1345 1496.0529,-113.1959 1495.0702,-106.2652"/>
</g>
<!-- Node52 -->
<g id="node9" class="node">
<title>Node52</title>
<g id="a_node9"><a xlink:href="main_8cxx.html#a3c04138a5bfe5d72780bb7e82a18e627" target="_top" xlink:title="main">
<polygon fill="none" stroke="#000000" points="1668,-87.4782 1668,-106.4782 1709,-106.4782 1709,-87.4782 1668,-87.4782"/>
<text text-anchor="middle" x="1688.5" y="-94.4782" font-family="Helvetica,sans-Serif" font-size="10.00" fill="#000000">main</text>
</a>
</g>
</g>
<!-- Node51&#45;&gt;Node52 -->
<g id="edge8" class="edge">
<title>Node51&#45;&gt;Node52</title>
<path fill="none" stroke="#191970" d="M1642.2133,-96.9782C1651.4322,-96.9782 1660.4259,-96.9782 1667.9965,-96.9782"/>
<polygon fill="#191970" stroke="#191970" points="1642.1782,-93.4783 1632.1782,-96.9782 1642.1781,-100.4783 1642.1782,-93.4783"/>
</g>
<!-- Node54 -->
<g id="node11" class="node">
<title>Node54</title>
<g id="a_node11"><a xlink:href="classEngine.html#a13572fdd7f6470dca48a14497f58980e" target="_top" xlink:title="Decrease Height Decreases the height of the given map node Calls the according function of the Map ob...">
<polygon fill="none" stroke="#000000" points="853,-144.4782 853,-163.4782 985,-163.4782 985,-144.4782 853,-144.4782"/>
<text text-anchor="middle" x="919" y="-151.4782" font-family="Helvetica,sans-Serif" font-size="10.00" fill="#000000">Engine::decreaseHeight</text>
</a>
</g>
</g>
<!-- Node53&#45;&gt;Node54 -->
<g id="edge10" class="edge">
<title>Node53&#45;&gt;Node54</title>
<path fill="none" stroke="#191970" d="M824.4434,-153.9782C833.8433,-153.9782 843.4627,-153.9782 852.7952,-153.9782"/>
<polygon fill="#191970" stroke="#191970" points="824.3537,-150.4783 814.3536,-153.9782 824.3536,-157.4783 824.3537,-150.4783"/>
</g>
<!-- Node54&#45;&gt;Node49 -->
<g id="edge11" class="edge">
<title>Node54&#45;&gt;Node49</title>
<path fill="none" stroke="#191970" d="M995.2157,-146.2146C1040.2509,-141.5885 1098.3831,-135.55 1150,-129.9782 1165.5233,-128.3025 1182.1263,-126.4708 1197.9948,-124.7008"/>
<polygon fill="#191970" stroke="#191970" points="994.8213,-142.7366 985.2309,-147.2392 995.5359,-149.7 994.8213,-142.7366"/>
</g>
<!-- Node56 -->
<g id="node13" class="node">
<title>Node56</title>
<g id="a_node13"><a xlink:href="classMap.html#a26eceeccd7b6ed693909b1927a25c67a" target="_top" xlink:title="Map::Map">
<polygon fill="none" stroke="#000000" points="569.5,-68.4782 569.5,-87.4782 632.5,-87.4782 632.5,-68.4782 569.5,-68.4782"/>
<text text-anchor="middle" x="601" y="-75.4782" font-family="Helvetica,sans-Serif" font-size="10.00" fill="#000000">Map::Map</text>
</a>
</g>
</g>
<!-- Node55&#45;&gt;Node56 -->
<g id="edge13" class="edge">
<title>Node55&#45;&gt;Node56</title>
<path fill="none" stroke="#191970" d="M520.1682,-77.9782C537.3649,-77.9782 554.9322,-77.9782 569.2779,-77.9782"/>
<polygon fill="#191970" stroke="#191970" points="520.1131,-74.4783 510.1131,-77.9782 520.113,-81.4783 520.1131,-74.4783"/>
</g>
<!-- Node57 -->
<g id="node14" class="node">
<title>Node57</title>
<g id="a_node14"><a xlink:href="classMap.html#afefe996cc1f62b61ec60d0ae415953bf" target="_top" xlink:title="Map::loadMapFromFile">
<polygon fill="none" stroke="#000000" points="692,-30.4782 692,-49.4782 817,-49.4782 817,-30.4782 692,-30.4782"/>
<text text-anchor="middle" x="754.5" y="-37.4782" font-family="Helvetica,sans-Serif" font-size="10.00" fill="#000000">Map::loadMapFromFile</text>
</a>
</g>
</g>
<!-- Node55&#45;&gt;Node57 -->
<g id="edge24" class="edge">
<title>Node55&#45;&gt;Node57</title>
<path fill="none" stroke="#191970" d="M503.2062,-66.4191C517.0867,-63.6865 532.0622,-60.9869 546,-58.9782 594.7478,-51.9527 650.3038,-47.0414 691.804,-43.9744"/>
<polygon fill="#191970" stroke="#191970" points="502.4375,-63.0035 493.3232,-68.4053 503.8168,-69.8663 502.4375,-63.0035"/>
</g>
<!-- Node56&#45;&gt;Node57 -->
<g id="edge14" class="edge">
<title>Node56&#45;&gt;Node57</title>
<path fill="none" stroke="#191970" d="M642.5651,-67.6885C665.4163,-62.0315 693.5781,-55.0598 715.9373,-49.5247"/>
<polygon fill="#191970" stroke="#191970" points="641.6712,-64.304 632.8053,-70.1046 643.3534,-71.0989 641.6712,-64.304"/>
</g>
<!-- Node58 -->
<g id="node15" class="node">
<title>Node58</title>
<g id="a_node15"><a xlink:href="classEngine.html#a83b7dbeee899b36a13d5b07c7ad87ebc" target="_top" xlink:title="Loads a saved game Loads a saved Game. ">
<polygon fill="none" stroke="#000000" points="866,-30.4782 866,-49.4782 972,-49.4782 972,-30.4782 866,-30.4782"/>
<text text-anchor="middle" x="919" y="-37.4782" font-family="Helvetica,sans-Serif" font-size="10.00" fill="#000000">Engine::loadGame</text>
</a>
</g>
</g>
<!-- Node57&#45;&gt;Node58 -->
<g id="edge15" class="edge">
<title>Node57&#45;&gt;Node58</title>
<path fill="none" stroke="#191970" d="M827.4461,-39.9782C840.3866,-39.9782 853.6382,-39.9782 865.8977,-39.9782"/>
<polygon fill="#191970" stroke="#191970" points="827.1597,-36.4783 817.1597,-39.9782 827.1596,-43.4783 827.1597,-36.4783"/>
</g>
<!-- Node59 -->
<g id="node16" class="node">
<title>Node59</title>
<g id="a_node16"><a xlink:href="classEngine.html#a0ba57971ffb5173ecc425461f65a4cd8" target="_top" xlink:title="Quits the game Sets m_running to false and quitting the game. ">
<polygon fill="none" stroke="#000000" points="1033.5,-68.4782 1033.5,-87.4782 1137.5,-87.4782 1137.5,-68.4782 1033.5,-68.4782"/>
<text text-anchor="middle" x="1085.5" y="-75.4782" font-family="Helvetica,sans-Serif" font-size="10.00" fill="#000000">Engine::quitGame</text>
</a>
</g>
</g>
<!-- Node58&#45;&gt;Node59 -->
<g id="edge16" class="edge">
<title>Node58&#45;&gt;Node59</title>
<path fill="none" stroke="#191970" d="M970.809,-51.8025C994.2825,-57.1598 1021.6654,-63.4093 1043.7871,-68.4581"/>
<polygon fill="#191970" stroke="#191970" points="971.5431,-48.3801 961.015,-49.5672 969.9855,-55.2046 971.5431,-48.3801"/>
</g>
<!-- Node60 -->
<g id="node17" class="node">
<title>Node60</title>
<g id="a_node17"><a xlink:href="classUIManager.html#aa78e356fc3b356d790c848319d1c387e" target="_top" xlink:title="UIManager::setCallbackFunctions">
<polygon fill="none" stroke="#000000" points="1186,-30.4782 1186,-49.4782 1364,-49.4782 1364,-30.4782 1186,-30.4782"/>
<text text-anchor="middle" x="1275" y="-37.4782" font-family="Helvetica,sans-Serif" font-size="10.00" fill="#000000">UIManager::setCallbackFunctions</text>
</a>
</g>
</g>
<!-- Node58&#45;&gt;Node60 -->
<g id="edge22" class="edge">
<title>Node58&#45;&gt;Node60</title>
<path fill="none" stroke="#191970" d="M982.5355,-39.9782C1039.0967,-39.9782 1122.4356,-39.9782 1185.6965,-39.9782"/>
<polygon fill="#191970" stroke="#191970" points="982.2968,-36.4783 972.2968,-39.9782 982.2968,-43.4783 982.2968,-36.4783"/>
</g>
<!-- Node62 -->
<g id="node19" class="node">
<title>Node62</title>
<g id="a_node19"><a xlink:href="classGame.html#a560299f0291c281f7b44e7ef0dd7b264" target="_top" xlink:title="initializes and displays the main menu initializes and displays the main menu ">
<polygon fill="none" stroke="#000000" points="1400,-68.4782 1400,-87.4782 1503,-87.4782 1503,-68.4782 1400,-68.4782"/>
<text text-anchor="middle" x="1451.5" y="-75.4782" font-family="Helvetica,sans-Serif" font-size="10.00" fill="#000000">Game::mainMenu</text>
</a>
</g>
</g>
<!-- Node58&#45;&gt;Node62 -->
<g id="edge23" class="edge">
<title>Node58&#45;&gt;Node62</title>
<path fill="none" stroke="#191970" d="M965.866,-28.1673C1048.3522,-9.5144 1223.9939,20.6017 1364,-20.9782 1395.2834,-30.2689 1425.8332,-54.6745 1441.215,-68.3465"/>
<polygon fill="#191970" stroke="#191970" points="964.9968,-24.7758 956.0403,-30.4354 966.5713,-31.5964 964.9968,-24.7758"/>
</g>
<!-- Node59&#45;&gt;Node49 -->
<g id="edge17" class="edge">
<title>Node59&#45;&gt;Node49</title>
<path fill="none" stroke="#191970" d="M1143.3948,-89.5877C1170.346,-94.9922 1202.0102,-101.3417 1227.525,-106.4581"/>
<polygon fill="#191970" stroke="#191970" points="1143.8118,-86.1017 1133.3189,-87.5672 1142.4355,-92.9651 1143.8118,-86.1017"/>
</g>
<!-- Node59&#45;&gt;Node60 -->
<g id="edge18" class="edge">
<title>Node59&#45;&gt;Node60</title>
<path fill="none" stroke="#191970" d="M1143.3948,-66.3687C1170.346,-60.9642 1202.0102,-54.6147 1227.525,-49.4982"/>
<polygon fill="#191970" stroke="#191970" points="1142.4355,-62.9913 1133.3189,-68.3892 1143.8118,-69.8547 1142.4355,-62.9913"/>
</g>
<!-- Node61 -->
<g id="node18" class="node">
<title>Node61</title>
<g id="a_node18"><a xlink:href="classGame.html#a8272be134d16c277bb014ad6a22fc357" target="_top" xlink:title="Game::quit">
<polygon fill="none" stroke="#000000" points="1239.5,-68.4782 1239.5,-87.4782 1310.5,-87.4782 1310.5,-68.4782 1239.5,-68.4782"/>
<text text-anchor="middle" x="1275" y="-75.4782" font-family="Helvetica,sans-Serif" font-size="10.00" fill="#000000">Game::quit</text>
</a>
</g>
</g>
<!-- Node59&#45;&gt;Node61 -->
<g id="edge19" class="edge">
<title>Node59&#45;&gt;Node61</title>
<path fill="none" stroke="#191970" d="M1147.619,-77.9782C1178.001,-77.9782 1213.482,-77.9782 1239.27,-77.9782"/>
<polygon fill="#191970" stroke="#191970" points="1147.5324,-74.4783 1137.5324,-77.9782 1147.5323,-81.4783 1147.5324,-74.4783"/>
</g>
<!-- Node61&#45;&gt;Node62 -->
<g id="edge20" class="edge">
<title>Node61&#45;&gt;Node62</title>
<path fill="none" stroke="#191970" d="M1321.0403,-77.9782C1345.1836,-77.9782 1374.8403,-77.9782 1399.7739,-77.9782"/>
<polygon fill="#191970" stroke="#191970" points="1320.7174,-74.4783 1310.7174,-77.9782 1320.7174,-81.4783 1320.7174,-74.4783"/>
</g>
<!-- Node62&#45;&gt;Node51 -->
<g id="edge21" class="edge">
<title>Node62&#45;&gt;Node51</title>
<path fill="none" stroke="#191970" d="M1513.2457,-86.7332C1521.7846,-87.9439 1530.438,-89.1709 1538.6465,-90.3348"/>
<polygon fill="#191970" stroke="#191970" points="1513.7003,-83.2627 1503.3079,-85.3241 1512.7175,-90.1934 1513.7003,-83.2627"/>
</g>
<!-- Node63&#45;&gt;Node45 -->
<g id="edge28" class="edge">
<title>Node63&#45;&gt;Node45</title>
<path fill="none" stroke="#191970" d="M383.2975,-122.5748C373.7622,-122.7287 363.8932,-122.7668 354.1928,-122.689"/>
<polygon fill="#191970" stroke="#191970" points="383.5647,-126.0701 393.4896,-122.3623 383.4187,-119.0716 383.5647,-126.0701"/>
</g>
<!-- Node63&#45;&gt;Node46 -->
<g id="edge27" class="edge">
<title>Node63&#45;&gt;Node46</title>
<path fill="none" stroke="#191970" d="M497.8431,-128.0182C518.9386,-133.327 543.3766,-139.4769 563.1703,-144.4581"/>
<polygon fill="#191970" stroke="#191970" points="498.6555,-124.6136 488.1037,-125.5672 496.9471,-131.4019 498.6555,-124.6136"/>
</g>
<!-- Node63&#45;&gt;Node49 -->
<g id="edge26" class="edge">
<title>Node63&#45;&gt;Node49</title>
<path fill="none" stroke="#191970" d="M517.0563,-115.9782C578.754,-115.9782 672.7932,-115.9782 754.5,-115.9782 754.5,-115.9782 754.5,-115.9782 919,-115.9782 1015.1076,-115.9782 1125.8097,-115.9782 1197.9163,-115.9782"/>
<polygon fill="#191970" stroke="#191970" points="516.6818,-112.4783 506.6818,-115.9782 516.6818,-119.4783 516.6818,-112.4783"/>
</g>
</g>
</svg>
