<?xml version="1.0" encoding="UTF-8" standalone="no"?>
<!DOCTYPE svg PUBLIC "-//W3C//DTD SVG 1.1//EN"
 "http://www.w3.org/Graphics/SVG/1.1/DTD/svg11.dtd">
<!-- Generated by graphviz version 2.40.1 (20161225.0304)
 -->
<!-- Title: TerrainGenerator::generateTerrain Pages: 1 -->
<!--zoomable 132 -->
<svg id="main" version="1.1" xmlns="http://www.w3.org/2000/svg" xmlns:xlink="http://www.w3.org/1999/xlink" xml:space="preserve" onload="init(evt)">
<style type="text/css"><![CDATA[
.edge:hover path { stroke: red; }
.edge:hover polygon { stroke: red; fill: red; }
]]></style>
<script type="text/javascript"><![CDATA[
var edges = document.getElementsByTagName('g');
if (edges && edges.length) {
  for (var i=0;i<edges.length;i++) {
    if (edges[i].id.substr(0,4)=='edge') {
      edges[i].setAttribute('class','edge');
    }
  }
}
]]></script>
        <defs>
                <circle id="rim" cx="0" cy="0" r="7"/>
                <circle id="rim2" cx="0" cy="0" r="3.5"/>
                <g id="zoomPlus">
                        <use xlink:href="#rim" fill="#404040">
                                <set attributeName="fill" to="#808080" begin="zoomplus.mouseover" end="zoomplus.mouseout"/>
                        </use>
                        <path d="M-4,0h8M0,-4v8" fill="none" stroke="white" stroke-width="1.5" pointer-events="none"/>
                </g>
                <g id="zoomMin">
                        <use xlink:href="#rim" fill="#404040">
                                <set attributeName="fill" to="#808080" begin="zoomminus.mouseover" end="zoomminus.mouseout"/>
                        </use>
                        <path d="M-4,0h8" fill="none" stroke="white" stroke-width="1.5" pointer-events="none"/>
                </g>
                <g id="dirArrow">
                        <path fill="none" stroke="white" stroke-width="1.5" d="M0,-3.0v7 M-2.5,-0.5L0,-3.0L2.5,-0.5"/>
                </g>
               <g id="resetDef">
                       <use xlink:href="#rim2" fill="#404040">
                               <set attributeName="fill" to="#808080" begin="reset.mouseover" end="reset.mouseout"/>
                       </use>
               </g>
        </defs>

<script type="text/javascript">
var viewWidth = 1257;
var viewHeight = 132;
var sectionId = 'dynsection-2';
</script>
<script xlink:href="svgpan.js"/>
<svg id="graph" class="graph">
<g id="viewport">
<title>TerrainGenerator::generateTerrain</title>
<!-- Node8 -->
<g id="node1" class="node">
<title>Node8</title>
<polygon fill="#bfbfbf" stroke="#000000" points="0,-22.9066 0,-52.9066 148,-52.9066 148,-22.9066 0,-22.9066"/>
<text text-anchor="start" x="8" y="-40.9066" font-family="Helvetica,sans-Serif" font-size="10.00" fill="#000000">TerrainGenerator::generate</text>
<text text-anchor="middle" x="74" y="-29.9066" font-family="Helvetica,sans-Serif" font-size="10.00" fill="#000000">Terrain</text>
</g>
<!-- Node9 -->
<g id="node2" class="node">
<title>Node9</title>
<g id="a_node2"><a xlink:href="classMap.html#a26eceeccd7b6ed693909b1927a25c67a" target="_top" xlink:title="Map::Map">
<polygon fill="none" stroke="#000000" points="184,-28.4066 184,-47.4066 247,-47.4066 247,-28.4066 184,-28.4066"/>
<text text-anchor="middle" x="215.5" y="-35.4066" font-family="Helvetica,sans-Serif" font-size="10.00" fill="#000000">Map::Map</text>
</a>
</g>
</g>
<!-- Node8&#45;&gt;Node9 -->
<g id="edge1" class="edge">
<title>Node8&#45;&gt;Node9</title>
<path fill="none" stroke="#191970" d="M158.3136,-37.9066C167.3052,-37.9066 175.9931,-37.9066 183.7667,-37.9066"/>
<polygon fill="#191970" stroke="#191970" points="158.0654,-34.4067 148.0653,-37.9066 158.0653,-41.4067 158.0654,-34.4067"/>
</g>
<!-- Node10 -->
<g id="node3" class="node">
<title>Node10</title>
<g id="a_node3"><a xlink:href="classMap.html#afefe996cc1f62b61ec60d0ae415953bf" target="_top" xlink:title="Map::loadMapFromFile">
<polygon fill="none" stroke="#000000" points="283,-28.4066 283,-47.4066 408,-47.4066 408,-28.4066 283,-28.4066"/>
<text text-anchor="middle" x="345.5" y="-35.4066" font-family="Helvetica,sans-Serif" font-size="10.00" fill="#000000">Map::loadMapFromFile</text>
</a>
</g>
</g>
<!-- Node9&#45;&gt;Node10 -->
<g id="edge2" class="edge">
<title>Node9&#45;&gt;Node10</title>
<path fill="none" stroke="#191970" d="M257.5382,-37.9066C265.5999,-37.9066 274.2024,-37.9066 282.7528,-37.9066"/>
<polygon fill="#191970" stroke="#191970" points="257.3016,-34.4067 247.3016,-37.9066 257.3015,-41.4067 257.3016,-34.4067"/>
</g>
<!-- Node11 -->
<g id="node4" class="node">
<title>Node11</title>
<g id="a_node4"><a xlink:href="classEngine.html#a83b7dbeee899b36a13d5b07c7ad87ebc" target="_top" xlink:title="Loads a saved game Loads a saved Game. ">
<polygon fill="none" stroke="#000000" points="444,-28.4066 444,-47.4066 550,-47.4066 550,-28.4066 444,-28.4066"/>
<text text-anchor="middle" x="497" y="-35.4066" font-family="Helvetica,sans-Serif" font-size="10.00" fill="#000000">Engine::loadGame</text>
</a>
</g>
</g>
<!-- Node10&#45;&gt;Node11 -->
<g id="edge3" class="edge">
<title>Node10&#45;&gt;Node11</title>
<path fill="none" stroke="#191970" d="M418.6629,-37.9066C427.0896,-37.9066 435.559,-37.9066 443.6534,-37.9066"/>
<polygon fill="#191970" stroke="#191970" points="418.4335,-34.4067 408.4335,-37.9066 418.4334,-41.4067 418.4335,-34.4067"/>
</g>
<!-- Node12 -->
<g id="node5" class="node">
<title>Node12</title>
<g id="a_node5"><a xlink:href="classEngine.html#a0ba57971ffb5173ecc425461f65a4cd8" target="_top" xlink:title="Quits the game Sets m_running to false and quitting the game. ">
<polygon fill="none" stroke="#000000" points="586,-66.4066 586,-85.4066 690,-85.4066 690,-66.4066 586,-66.4066"/>
<text text-anchor="middle" x="638" y="-73.4066" font-family="Helvetica,sans-Serif" font-size="10.00" fill="#000000">Engine::quitGame</text>
</a>
</g>
</g>
<!-- Node11&#45;&gt;Node12 -->
<g id="edge4" class="edge">
<title>Node11&#45;&gt;Node12</title>
<path fill="none" stroke="#191970" d="M542.4398,-50.1528C561.875,-55.3906 584.2311,-61.4157 602.4311,-66.3207"/>
<polygon fill="#191970" stroke="#191970" points="543.1465,-46.7184 532.5803,-47.4956 541.325,-53.4773 543.1465,-46.7184"/>
</g>
<!-- Node17 -->
<g id="node10" class="node">
<title>Node17</title>
<g id="a_node10"><a xlink:href="classUIManager.html#aa78e356fc3b356d790c848319d1c387e" target="_top" xlink:title="UIManager::setCallbackFunctions">
<polygon fill="none" stroke="#000000" points="726,-28.4066 726,-47.4066 904,-47.4066 904,-28.4066 726,-28.4066"/>
<text text-anchor="middle" x="815" y="-35.4066" font-family="Helvetica,sans-Serif" font-size="10.00" fill="#000000">UIManager::setCallbackFunctions</text>
</a>
</g>
</g>
<!-- Node11&#45;&gt;Node17 -->
<g id="edge13" class="edge">
<title>Node11&#45;&gt;Node17</title>
<path fill="none" stroke="#191970" d="M560.3498,-37.9066C607.7184,-37.9066 673.1124,-37.9066 725.7707,-37.9066"/>
<polygon fill="#191970" stroke="#191970" points="560.2261,-34.4067 550.2261,-37.9066 560.226,-41.4067 560.2261,-34.4067"/>
</g>
<!-- Node19 -->
<g id="node12" class="node">
<title>Node19</title>
<g id="a_node12"><a xlink:href="classGame.html#a560299f0291c281f7b44e7ef0dd7b264" target="_top" xlink:title="initializes and displays the main menu initializes and displays the main menu ">
<polygon fill="none" stroke="#000000" points="940,-66.4066 940,-85.4066 1043,-85.4066 1043,-66.4066 940,-66.4066"/>
<text text-anchor="middle" x="991.5" y="-73.4066" font-family="Helvetica,sans-Serif" font-size="10.00" fill="#000000">Game::mainMenu</text>
</a>
</g>
</g>
<!-- Node11&#45;&gt;Node19 -->
<g id="edge14" class="edge">
<title>Node11&#45;&gt;Node19</title>
<path fill="none" stroke="#191970" d="M543.1831,-26.0602C619.9308,-8.4934 777.7778,18.5797 904,-18.9066 935.2834,-28.1973 965.8332,-52.6029 981.215,-66.2749"/>
<polygon fill="#191970" stroke="#191970" points="542.2857,-22.6756 533.3463,-28.3621 543.8808,-29.4914 542.2857,-22.6756"/>
</g>
<!-- Node13 -->
<g id="node6" class="node">
<title>Node13</title>
<g id="a_node6"><a xlink:href="classEventManager.html#a65ec91fd5016d4f9c4167fb8babed2df" target="_top" xlink:title="EventManager::checkEvents">
<polygon fill="none" stroke="#000000" points="738,-104.4066 738,-123.4066 892,-123.4066 892,-104.4066 738,-104.4066"/>
<text text-anchor="middle" x="815" y="-111.4066" font-family="Helvetica,sans-Serif" font-size="10.00" fill="#000000">EventManager::checkEvents</text>
</a>
</g>
</g>
<!-- Node12&#45;&gt;Node13 -->
<g id="edge5" class="edge">
<title>Node12&#45;&gt;Node13</title>
<path fill="none" stroke="#191970" d="M692.3541,-87.6628C703.4832,-90.0641 715.119,-92.5705 726,-94.9066 740.3662,-97.991 756.0401,-101.3418 770.1756,-104.3585"/>
<polygon fill="#191970" stroke="#191970" points="692.8256,-84.184 682.3121,-85.495 691.3484,-91.0264 692.8256,-84.184"/>
</g>
<!-- Node12&#45;&gt;Node17 -->
<g id="edge9" class="edge">
<title>Node12&#45;&gt;Node17</title>
<path fill="none" stroke="#191970" d="M692.3541,-64.1504C703.4832,-61.7491 715.119,-59.2427 726,-56.9066 740.3662,-53.8222 756.0401,-50.4713 770.1756,-47.4547"/>
<polygon fill="#191970" stroke="#191970" points="691.3484,-60.7868 682.3121,-66.3182 692.8256,-67.6292 691.3484,-60.7868"/>
</g>
<!-- Node18 -->
<g id="node11" class="node">
<title>Node18</title>
<g id="a_node11"><a xlink:href="classGame.html#a8272be134d16c277bb014ad6a22fc357" target="_top" xlink:title="Game::quit">
<polygon fill="none" stroke="#000000" points="779.5,-66.4066 779.5,-85.4066 850.5,-85.4066 850.5,-66.4066 779.5,-66.4066"/>
<text text-anchor="middle" x="815" y="-73.4066" font-family="Helvetica,sans-Serif" font-size="10.00" fill="#000000">Game::quit</text>
</a>
</g>
</g>
<!-- Node12&#45;&gt;Node18 -->
<g id="edge10" class="edge">
<title>Node12&#45;&gt;Node18</title>
<path fill="none" stroke="#191970" d="M700.4886,-75.9066C726.9691,-75.9066 756.8596,-75.9066 779.4608,-75.9066"/>
<polygon fill="#191970" stroke="#191970" points="700.1485,-72.4067 690.1485,-75.9066 700.1485,-79.4067 700.1485,-72.4067"/>
</g>
<!-- Node14 -->
<g id="node7" class="node">
<title>Node14</title>
<g id="a_node7"><a xlink:href="classGame.html#a1c2ab25d5216b2f4b2fe41efd2c09114" target="_top" xlink:title="begins the game starts running the game ">
<polygon fill="none" stroke="#000000" points="957.5,-104.4066 957.5,-123.4066 1025.5,-123.4066 1025.5,-104.4066 957.5,-104.4066"/>
<text text-anchor="middle" x="991.5" y="-111.4066" font-family="Helvetica,sans-Serif" font-size="10.00" fill="#000000">Game::run</text>
</a>
</g>
</g>
<!-- Node13&#45;&gt;Node14 -->
<g id="edge6" class="edge">
<title>Node13&#45;&gt;Node14</title>
<path fill="none" stroke="#191970" d="M902.3664,-113.9066C921.9355,-113.9066 941.5625,-113.9066 957.398,-113.9066"/>
<polygon fill="#191970" stroke="#191970" points="902.1587,-110.4067 892.1587,-113.9066 902.1587,-117.4067 902.1587,-110.4067"/>
</g>
<!-- Node15 -->
<g id="node8" class="node">
<title>Node15</title>
<g id="a_node8"><a xlink:href="main_8cxx.html#af582d708d899e67ead623eac34a22387" target="_top" xlink:title="protected_main">
<polygon fill="none" stroke="#000000" points="1079,-85.4066 1079,-104.4066 1172,-104.4066 1172,-85.4066 1079,-85.4066"/>
<text text-anchor="middle" x="1125.5" y="-92.4066" font-family="Helvetica,sans-Serif" font-size="10.00" fill="#000000">protected_main</text>
</a>
</g>
</g>
<!-- Node14&#45;&gt;Node15 -->
<g id="edge7" class="edge">
<title>Node14&#45;&gt;Node15</title>
<path fill="none" stroke="#191970" d="M1035.8611,-107.6166C1049.6278,-105.6646 1064.8396,-103.5077 1078.7626,-101.5335"/>
<polygon fill="#191970" stroke="#191970" points="1035.0702,-104.1936 1025.6606,-109.0629 1036.0529,-111.1243 1035.0702,-104.1936"/>
</g>
<!-- Node16 -->
<g id="node9" class="node">
<title>Node16</title>
<g id="a_node9"><a xlink:href="main_8cxx.html#a3c04138a5bfe5d72780bb7e82a18e627" target="_top" xlink:title="main">
<polygon fill="none" stroke="#000000" points="1208,-85.4066 1208,-104.4066 1249,-104.4066 1249,-85.4066 1208,-85.4066"/>
<text text-anchor="middle" x="1228.5" y="-92.4066" font-family="Helvetica,sans-Serif" font-size="10.00" fill="#000000">main</text>
</a>
</g>
</g>
<!-- Node15&#45;&gt;Node16 -->
<g id="edge8" class="edge">
<title>Node15&#45;&gt;Node16</title>
<path fill="none" stroke="#191970" d="M1182.2133,-94.9066C1191.4322,-94.9066 1200.4259,-94.9066 1207.9965,-94.9066"/>
<polygon fill="#191970" stroke="#191970" points="1182.1782,-91.4067 1172.1782,-94.9066 1182.1781,-98.4067 1182.1782,-91.4067"/>
</g>
<!-- Node18&#45;&gt;Node19 -->
<g id="edge11" class="edge">
<title>Node18&#45;&gt;Node19</title>
<path fill="none" stroke="#191970" d="M861.0403,-75.9066C885.1836,-75.9066 914.8403,-75.9066 939.7739,-75.9066"/>
<polygon fill="#191970" stroke="#191970" points="860.7174,-72.4067 850.7174,-75.9066 860.7174,-79.4067 860.7174,-72.4067"/>
</g>
<!-- Node19&#45;&gt;Node15 -->
<g id="edge12" class="edge">
<title>Node19&#45;&gt;Node15</title>
<path fill="none" stroke="#191970" d="M1053.2457,-84.6616C1061.7846,-85.8723 1070.438,-87.0993 1078.6465,-88.2632"/>
<polygon fill="#191970" stroke="#191970" points="1053.7003,-81.1911 1043.3079,-83.2525 1052.7175,-88.1218 1053.7003,-81.1911"/>
</g>
</g>
</svg>
        <g id="navigator" transform="translate(0 0)" fill="#404254">
                <rect fill="#f2f5e9" fill-opacity="0.5" stroke="#606060" stroke-width=".5" x="0" y="0" width="60" height="60"/>
                <use id="zoomplus" xlink:href="#zoomPlus" x="17" y="9" onmousedown="handleZoom(evt,'in')"/>
                <use id="zoomminus" xlink:href="#zoomMin" x="42" y="9" onmousedown="handleZoom(evt,'out')"/>
                <use id="reset" xlink:href="#resetDef" x="30" y="36" onmousedown="handleReset()"/>
                <g id="arrowUp" xlink:href="#dirArrow" transform="translate(30 24)" onmousedown="handlePan(0,-1)">
                  <use xlink:href="#rim" fill="#404040">
                        <set attributeName="fill" to="#808080" begin="arrowUp.mouseover" end="arrowUp.mouseout"/>
                  </use>
                  <path fill="none" stroke="white" stroke-width="1.5" d="M0,-3.0v7 M-2.5,-0.5L0,-3.0L2.5,-0.5"/>
                </g>
                <g id="arrowRight" xlink:href="#dirArrow" transform="rotate(90) translate(36 -43)" onmousedown="handlePan(1,0)">
                  <use xlink:href="#rim" fill="#404040">
                        <set attributeName="fill" to="#808080" begin="arrowRight.mouseover" end="arrowRight.mouseout"/>
                  </use>
                  <path fill="none" stroke="white" stroke-width="1.5" d="M0,-3.0v7 M-2.5,-0.5L0,-3.0L2.5,-0.5"/>
                </g>
                <g id="arrowDown" xlink:href="#dirArrow" transform="rotate(180) translate(-30 -48)" onmousedown="handlePan(0,1)">
                  <use xlink:href="#rim" fill="#404040">
                        <set attributeName="fill" to="#808080" begin="arrowDown.mouseover" end="arrowDown.mouseout"/>
                  </use>
                  <path fill="none" stroke="white" stroke-width="1.5" d="M0,-3.0v7 M-2.5,-0.5L0,-3.0L2.5,-0.5"/>
                </g>
                <g id="arrowLeft" xlink:href="#dirArrow" transform="rotate(270) translate(-36 17)" onmousedown="handlePan(-1,0)">
                  <use xlink:href="#rim" fill="#404040">
                        <set attributeName="fill" to="#808080" begin="arrowLeft.mouseover" end="arrowLeft.mouseout"/>
                  </use>
                  <path fill="none" stroke="white" stroke-width="1.5" d="M0,-3.0v7 M-2.5,-0.5L0,-3.0L2.5,-0.5"/>
                </g>
        </g>
        <svg viewBox="0 0 15 15" width="100%" height="30px" preserveAspectRatio="xMaxYMin meet">
         <g id="arrow_out" transform="scale(0.3 0.3)">
          <a xlink:href="classTerrainGenerator_afd2668a80a6f5043d2b8d6c7a5044ede_icgraph_org.svg" target="_base">
           <rect id="button" ry="5" rx="5" y="6" x="6" height="38" width="38"
                fill="#f2f5e9" fill-opacity="0.5" stroke="#606060" stroke-width="1.0"/>
           <path id="arrow"
             d="M 11.500037,31.436501 C 11.940474,20.09759 22.043105,11.32322 32.158766,21.979434 L 37.068811,17.246167 C 37.068811,17.246167 37.088388,32 37.088388,32 L 22.160133,31.978069 C 22.160133,31.978069 26.997745,27.140456 26.997745,27.140456 C 18.528582,18.264221 13.291696,25.230495 11.500037,31.436501 z"
             style="fill:#404040;"/>
          </a>
         </g>
        </svg>
</svg>
