<?xml version="1.0" encoding="UTF-8" standalone="no"?>
<!DOCTYPE svg PUBLIC "-//W3C//DTD SVG 1.1//EN"
 "http://www.w3.org/Graphics/SVG/1.1/DTD/svg11.dtd">
<!-- Generated by graphviz version 2.40.1 (20161225.0304)
 -->
<!-- Title: Map::increaseHeight Pages: 1 -->
<svg width="1198pt" height="436pt"
 viewBox="0.00 0.00 1198.00 435.60" xmlns="http://www.w3.org/2000/svg" xmlns:xlink="http://www.w3.org/1999/xlink">
<g id="graph0" class="graph" transform="scale(1 1) rotate(0) translate(4 431.5952)">
<title>Map::increaseHeight</title>
<!-- Node316 -->
<g id="node1" class="node">
<title>Node316</title>
<polygon fill="#bfbfbf" stroke="#000000" points="0,-158.9874 0,-177.9874 116,-177.9874 116,-158.9874 0,-158.9874"/>
<text text-anchor="middle" x="58" y="-165.9874" font-family="Helvetica,sans-Serif" font-size="10.00" fill="#000000">Map::increaseHeight</text>
</g>
<!-- Node317 -->
<g id="node2" class="node">
<title>Node317</title>
<g id="a_node2"><a xlink:href="classMap.html#ade1eeabf4e539f9dbfe2a96c97fda4e3" target="_top" xlink:title="Map::changeHeight">
<polygon fill="none" stroke="#000000" points="152,-158.9874 152,-177.9874 262,-177.9874 262,-158.9874 152,-158.9874"/>
<text text-anchor="middle" x="207" y="-165.9874" font-family="Helvetica,sans-Serif" font-size="10.00" fill="#000000">Map::changeHeight</text>
</a>
</g>
</g>
<!-- Node316&#45;&gt;Node317 -->
<g id="edge1" class="edge">
<title>Node316&#45;&gt;Node317</title>
<path fill="none" stroke="#191970" d="M116.0339,-168.4874C124.3992,-168.4874 133.0561,-168.4874 141.5535,-168.4874"/>
<polygon fill="#191970" stroke="#191970" points="141.809,-171.9875 151.809,-168.4874 141.809,-164.9875 141.809,-171.9875"/>
</g>
<!-- Node318 -->
<g id="node3" class="node">
<title>Node318</title>
<g id="a_node3"><a xlink:href="classMap.html#a1676db3d125b2c1764adfcb64d6332a2" target="_top" xlink:title="Map::nodeIdx">
<polygon fill="none" stroke="#000000" points="889,-405.9874 889,-424.9874 971,-424.9874 971,-405.9874 889,-405.9874"/>
<text text-anchor="middle" x="930" y="-412.9874" font-family="Helvetica,sans-Serif" font-size="10.00" fill="#000000">Map::nodeIdx</text>
</a>
</g>
</g>
<!-- Node317&#45;&gt;Node318 -->
<g id="edge2" class="edge">
<title>Node317&#45;&gt;Node318</title>
<path fill="none" stroke="#191970" d="M212.8025,-178.2148C225.8775,-199.5297 259.5224,-251.1105 298,-284.4874 355.7589,-334.5896 376.4414,-341.0288 447,-370.4874 597.517,-433.3291 647.0056,-430.5911 810,-424.4874 832.6061,-423.6409 857.5574,-421.9003 878.8257,-420.1734"/>
<polygon fill="#191970" stroke="#191970" points="879.2692,-423.6487 888.9442,-419.3308 878.6882,-416.6729 879.2692,-423.6487"/>
</g>
<!-- Node319 -->
<g id="node4" class="node">
<title>Node319</title>
<g id="a_node4"><a xlink:href="classMap.html#ad360682917f0061dbba995d645c56212" target="_top" xlink:title="Map::getNeighborNodes">
<polygon fill="none" stroke="#000000" points="660,-367.9874 660,-386.9874 794,-386.9874 794,-367.9874 660,-367.9874"/>
<text text-anchor="middle" x="727" y="-374.9874" font-family="Helvetica,sans-Serif" font-size="10.00" fill="#000000">Map::getNeighborNodes</text>
</a>
</g>
</g>
<!-- Node317&#45;&gt;Node319 -->
<g id="edge3" class="edge">
<title>Node317&#45;&gt;Node319</title>
<path fill="none" stroke="#191970" d="M218.629,-178.084C251.924,-205.0426 351.3774,-281.995 447,-320.4874 512.7706,-346.963 592.3733,-361.6426 649.8649,-369.4452"/>
<polygon fill="#191970" stroke="#191970" points="649.602,-372.9408 659.9736,-370.7774 650.5166,-366.0008 649.602,-372.9408"/>
</g>
<!-- Node322 -->
<g id="node7" class="node">
<title>Node322</title>
<g id="a_node7"><a xlink:href="classMap.html#a9751d8dc0c6b2b127400b05994118aba" target="_top" xlink:title="Map::updateHeight">
<polygon fill="none" stroke="#000000" points="672.5,-13.9874 672.5,-32.9874 781.5,-32.9874 781.5,-13.9874 672.5,-13.9874"/>
<text text-anchor="middle" x="727" y="-20.9874" font-family="Helvetica,sans-Serif" font-size="10.00" fill="#000000">Map::updateHeight</text>
</a>
</g>
</g>
<!-- Node317&#45;&gt;Node322 -->
<g id="edge7" class="edge">
<title>Node317&#45;&gt;Node322</title>
<path fill="none" stroke="#191970" d="M210.8853,-158.6674C221.0034,-134.5933 250.712,-72.7668 298,-47.4874 417.6358,16.4679 583.7885,1.6694 669.9956,-12.2671"/>
<polygon fill="#191970" stroke="#191970" points="669.6636,-15.76 680.1039,-13.957 670.8179,-8.8559 669.6636,-15.76"/>
</g>
<!-- Node324 -->
<g id="node9" class="node">
<title>Node324</title>
<g id="a_node9"><a xlink:href="classMap.html#aa8cc2ed983007621bce12dd9d1b8ec5b" target="_top" xlink:title="Demolish a node This function gathers all tiles that should be demolished and invokes the nodes demol...">
<polygon fill="none" stroke="#000000" points="298,-196.9874 298,-215.9874 411,-215.9874 411,-196.9874 298,-196.9874"/>
<text text-anchor="middle" x="354.5" y="-203.9874" font-family="Helvetica,sans-Serif" font-size="10.00" fill="#000000">Map::demolishNode</text>
</a>
</g>
</g>
<!-- Node317&#45;&gt;Node324 -->
<g id="edge9" class="edge">
<title>Node317&#45;&gt;Node324</title>
<path fill="none" stroke="#191970" d="M244.2205,-178.0764C263.5093,-183.0457 287.2584,-189.1641 307.771,-194.4488"/>
<polygon fill="#191970" stroke="#191970" points="306.9902,-197.8618 317.5472,-196.9674 308.7366,-191.0831 306.9902,-197.8618"/>
</g>
<!-- Node329 -->
<g id="node14" class="node">
<title>Node329</title>
<g id="a_node14"><a xlink:href="classMap.html#af1e496c421981fe707890b0ba60cc20f" target="_top" xlink:title="Map::updateNodeNeighbors">
<polygon fill="none" stroke="#000000" points="451.5,-139.9874 451.5,-158.9874 603.5,-158.9874 603.5,-139.9874 451.5,-139.9874"/>
<text text-anchor="middle" x="527.5" y="-146.9874" font-family="Helvetica,sans-Serif" font-size="10.00" fill="#000000">Map::updateNodeNeighbors</text>
</a>
</g>
</g>
<!-- Node317&#45;&gt;Node329 -->
<g id="edge29" class="edge">
<title>Node317&#45;&gt;Node329</title>
<path fill="none" stroke="#191970" d="M262.0959,-165.2212C311.3124,-162.3035 384.2212,-157.9813 441.1754,-154.6049"/>
<polygon fill="#191970" stroke="#191970" points="441.4777,-158.0933 451.2531,-154.0075 441.0634,-151.1055 441.4777,-158.0933"/>
</g>
<!-- Node330 -->
<g id="node15" class="node">
<title>Node330</title>
<g id="a_node15"><a xlink:href="classMapNode.html#a67296a58e167356efbabeaac3226b5d3" target="_top" xlink:title="get iso coordinates of this node gets the iso coordinates of this node ">
<polygon fill="none" stroke="#000000" points="858.5,-95.9874 858.5,-114.9874 1001.5,-114.9874 1001.5,-95.9874 858.5,-95.9874"/>
<text text-anchor="middle" x="930" y="-102.9874" font-family="Helvetica,sans-Serif" font-size="10.00" fill="#000000">MapNode::getCoordinates</text>
</a>
</g>
</g>
<!-- Node317&#45;&gt;Node330 -->
<g id="edge28" class="edge">
<title>Node317&#45;&gt;Node330</title>
<path fill="none" stroke="#191970" d="M236.3804,-158.9723C323.5529,-131.8704 588.4719,-57.6567 810,-80.4874 834.7821,-83.0415 861.9936,-88.4878 884.2299,-93.6469"/>
<polygon fill="#191970" stroke="#191970" points="883.5316,-97.0784 894.0699,-95.9857 885.1503,-90.2681 883.5316,-97.0784"/>
</g>
<!-- Node319&#45;&gt;Node318 -->
<g id="edge6" class="edge">
<title>Node319&#45;&gt;Node318</title>
<path fill="none" stroke="#191970" d="M777.9634,-387.0274C808.7748,-392.795 847.9275,-400.1241 878.7842,-405.9002"/>
<polygon fill="#191970" stroke="#191970" points="878.4333,-409.3952 888.9066,-407.795 879.7213,-402.5148 878.4333,-409.3952"/>
</g>
<!-- Node320 -->
<g id="node5" class="node">
<title>Node320</title>
<g id="a_node5"><a xlink:href="isoMath_8cxx.html#a7fa61c3d8ef446fb1c48dc4838023649" target="_top" xlink:title="Check if given coordinates are within map boundaries Checks if coordinates are within map boundaries...">
<polygon fill="none" stroke="#000000" points="852,-329.9874 852,-348.9874 1008,-348.9874 1008,-329.9874 852,-329.9874"/>
<text text-anchor="middle" x="930" y="-336.9874" font-family="Helvetica,sans-Serif" font-size="10.00" fill="#000000">isPointWithinMapBoundaries</text>
</a>
</g>
</g>
<!-- Node319&#45;&gt;Node320 -->
<g id="edge4" class="edge">
<title>Node319&#45;&gt;Node320</title>
<path fill="none" stroke="#191970" d="M777.9634,-367.9475C805.5941,-362.7752 839.9328,-356.3473 868.9811,-350.9097"/>
<polygon fill="#191970" stroke="#191970" points="869.8303,-354.3116 879.0156,-349.0313 868.5423,-347.4311 869.8303,-354.3116"/>
</g>
<!-- Node321 -->
<g id="node6" class="node">
<title>Node321</title>
<g id="a_node6"><a xlink:href="classSingleton.html#af5cb1e5749949e2b68416cfb8d378044" target="_top" xlink:title="Get an instance of the singleton. ">
<polygon fill="none" stroke="#000000" points="1063.5,-286.4874 1063.5,-316.4874 1176.5,-316.4874 1176.5,-286.4874 1063.5,-286.4874"/>
<text text-anchor="start" x="1071.5" y="-304.4874" font-family="Helvetica,sans-Serif" font-size="10.00" fill="#000000">Singleton&lt; Settings</text>
<text text-anchor="middle" x="1120" y="-293.4874" font-family="Helvetica,sans-Serif" font-size="10.00" fill="#000000"> &gt;::instance</text>
</a>
</g>
</g>
<!-- Node320&#45;&gt;Node321 -->
<g id="edge5" class="edge">
<title>Node320&#45;&gt;Node321</title>
<path fill="none" stroke="#191970" d="M977.945,-329.8984C1000.7476,-325.3379 1028.3891,-319.8096 1053.2063,-314.8461"/>
<polygon fill="#191970" stroke="#191970" points="1054.1639,-318.224 1063.2832,-312.8308 1052.791,-311.36 1054.1639,-318.224"/>
</g>
<!-- Node323 -->
<g id="node8" class="node">
<title>Node323</title>
<g id="a_node8"><a xlink:href="classMapNode.html#a10dded7848621ba007c3d3fc85392e32" target="_top" xlink:title="Change Height Increases or decrease the height of the node and its sprite This function should not be...">
<polygon fill="none" stroke="#000000" points="862,-13.9874 862,-32.9874 998,-32.9874 998,-13.9874 862,-13.9874"/>
<text text-anchor="middle" x="930" y="-20.9874" font-family="Helvetica,sans-Serif" font-size="10.00" fill="#000000">MapNode::changeHeight</text>
</a>
</g>
</g>
<!-- Node322&#45;&gt;Node323 -->
<g id="edge8" class="edge">
<title>Node322&#45;&gt;Node323</title>
<path fill="none" stroke="#191970" d="M781.6673,-23.4874C803.1492,-23.4874 828.2159,-23.4874 851.5634,-23.4874"/>
<polygon fill="#191970" stroke="#191970" points="851.7984,-26.9875 861.7984,-23.4874 851.7983,-19.9875 851.7984,-26.9875"/>
</g>
<!-- Node324&#45;&gt;Node318 -->
<g id="edge11" class="edge">
<title>Node324&#45;&gt;Node318</title>
<path fill="none" stroke="#191970" d="M359.9237,-216.1628C372.5049,-237.7926 405.7711,-290.5109 447,-320.4874 579.4155,-416.7634 784.122,-422.1475 878.7773,-418.7591"/>
<polygon fill="#191970" stroke="#191970" points="879.0994,-422.249 888.9488,-418.3454 878.8148,-415.2548 879.0994,-422.249"/>
</g>
<!-- Node324&#45;&gt;Node320 -->
<g id="edge10" class="edge">
<title>Node324&#45;&gt;Node320</title>
<path fill="none" stroke="#191970" d="M363.1263,-216.2089C378.3257,-232.6739 411.6335,-265.8734 447,-282.4874 574.6381,-342.4475 741.3109,-348.4324 841.7601,-345.3483"/>
<polygon fill="#191970" stroke="#191970" points="841.9972,-348.8423 851.8708,-345.0003 841.7563,-341.8465 841.9972,-348.8423"/>
</g>
<!-- Node325 -->
<g id="node10" class="node">
<title>Node325</title>
<g id="a_node10"><a xlink:href="classMapNode.html#a6b57e4355d0780fb37c34d63bbcdfdf9" target="_top" xlink:title="MapNode::getMapNodeDataFor\lLayer">
<polygon fill="none" stroke="#000000" points="846,-204.4874 846,-234.4874 1014,-234.4874 1014,-204.4874 846,-204.4874"/>
<text text-anchor="start" x="854" y="-222.4874" font-family="Helvetica,sans-Serif" font-size="10.00" fill="#000000">MapNode::getMapNodeDataFor</text>
<text text-anchor="middle" x="930" y="-211.4874" font-family="Helvetica,sans-Serif" font-size="10.00" fill="#000000">Layer</text>
</a>
</g>
</g>
<!-- Node324&#45;&gt;Node325 -->
<g id="edge12" class="edge">
<title>Node324&#45;&gt;Node325</title>
<path fill="none" stroke="#191970" d="M411.2562,-207.7695C510.1761,-210.004 715.1003,-214.633 835.6667,-217.3565"/>
<polygon fill="#191970" stroke="#191970" points="835.9124,-220.8629 845.9889,-217.5897 836.0706,-213.8646 835.9124,-220.8629"/>
</g>
<!-- Node326 -->
<g id="node11" class="node">
<title>Node326</title>
<g id="a_node11"><a xlink:href="classMapNode.html#ad74bb8fd5b519f5e909f0e807960a918" target="_top" xlink:title="MapNode::getOrigCornerPoint">
<polygon fill="none" stroke="#000000" points="447,-177.9874 447,-196.9874 608,-196.9874 608,-177.9874 447,-177.9874"/>
<text text-anchor="middle" x="527.5" y="-184.9874" font-family="Helvetica,sans-Serif" font-size="10.00" fill="#000000">MapNode::getOrigCornerPoint</text>
</a>
</g>
</g>
<!-- Node324&#45;&gt;Node326 -->
<g id="edge13" class="edge">
<title>Node324&#45;&gt;Node326</title>
<path fill="none" stroke="#191970" d="M411.1467,-200.2661C419.3627,-199.3638 427.9883,-198.4164 436.6722,-197.4627"/>
<polygon fill="#191970" stroke="#191970" points="437.314,-200.9134 446.8721,-196.3425 436.5498,-193.9552 437.314,-200.9134"/>
</g>
<!-- Node327 -->
<g id="node12" class="node">
<title>Node327</title>
<g id="a_node12"><a xlink:href="classMap.html#a3952b445c55efce61c1ccac6f362fe89" target="_top" xlink:title="Return vector of Points of an Object Tiles selection. ">
<polygon fill="none" stroke="#000000" points="465.5,-253.9874 465.5,-272.9874 589.5,-272.9874 589.5,-253.9874 465.5,-253.9874"/>
<text text-anchor="middle" x="527.5" y="-260.9874" font-family="Helvetica,sans-Serif" font-size="10.00" fill="#000000">Map::getObjectCoords</text>
</a>
</g>
</g>
<!-- Node324&#45;&gt;Node327 -->
<g id="edge14" class="edge">
<title>Node324&#45;&gt;Node327</title>
<path fill="none" stroke="#191970" d="M380.2907,-216.1016C398.7757,-222.8909 424.313,-232.0644 447,-239.4874 459.0197,-243.4202 472.1334,-247.4425 484.2207,-251.0424"/>
<polygon fill="#191970" stroke="#191970" points="483.5042,-254.4802 494.086,-253.9557 485.4868,-247.7668 483.5042,-254.4802"/>
</g>
<!-- Node324&#45;&gt;Node329 -->
<g id="edge17" class="edge">
<title>Node324&#45;&gt;Node329</title>
<path fill="none" stroke="#191970" d="M363.512,-196.9034C378.3851,-186.6345 409.3282,-172.4197 441.5734,-161.3622"/>
<polygon fill="#191970" stroke="#191970" points="442.7568,-164.6573 451.1463,-158.1868 440.5528,-158.0132 442.7568,-164.6573"/>
</g>
<!-- Node327&#45;&gt;Node321 -->
<g id="edge15" class="edge">
<title>Node327&#45;&gt;Node321</title>
<path fill="none" stroke="#191970" d="M589.5093,-267.4644C701.709,-274.6603 937.4847,-289.7818 1053.1416,-297.1994"/>
<polygon fill="#191970" stroke="#191970" points="1053.075,-300.7023 1063.2786,-297.8496 1053.5231,-293.7166 1053.075,-300.7023"/>
</g>
<!-- Node328 -->
<g id="node13" class="node">
<title>Node328</title>
<g id="a_node13"><a xlink:href="classTileManager.html#a8ee071ff8b24926288437d310f9bc714" target="_top" xlink:title="TileManager::getTileData">
<polygon fill="none" stroke="#000000" points="657,-291.9874 657,-310.9874 797,-310.9874 797,-291.9874 657,-291.9874"/>
<text text-anchor="middle" x="727" y="-298.9874" font-family="Helvetica,sans-Serif" font-size="10.00" fill="#000000">TileManager::getTileData</text>
</a>
</g>
</g>
<!-- Node327&#45;&gt;Node328 -->
<g id="edge16" class="edge">
<title>Node327&#45;&gt;Node328</title>
<path fill="none" stroke="#191970" d="M577.5848,-273.0274C604.739,-278.1996 638.4857,-284.6275 667.0332,-290.0652"/>
<polygon fill="#191970" stroke="#191970" points="666.4163,-293.5105 676.8946,-291.9435 667.7262,-286.6341 666.4163,-293.5105"/>
</g>
<!-- Node329&#45;&gt;Node319 -->
<g id="edge18" class="edge">
<title>Node329&#45;&gt;Node319</title>
<path fill="none" stroke="#191970" d="M595.1899,-159.1664C599.8881,-161.6651 604.2416,-164.7319 608,-168.4874 657.1095,-217.5589 604.7548,-263.2199 644,-320.4874 656.8746,-339.2744 678.1432,-353.7027 695.9268,-363.3426"/>
<polygon fill="#191970" stroke="#191970" points="694.3543,-366.4697 704.8459,-367.945 697.5643,-360.249 694.3543,-366.4697"/>
</g>
<!-- Node329&#45;&gt;Node322 -->
<g id="edge19" class="edge">
<title>Node329&#45;&gt;Node322</title>
<path fill="none" stroke="#191970" d="M542.8232,-139.8096C577.432,-117.9514 661.8469,-64.6367 703.2757,-38.4712"/>
<polygon fill="#191970" stroke="#191970" points="705.3118,-41.3249 711.8977,-33.0257 701.5738,-35.4065 705.3118,-41.3249"/>
</g>
<!-- Node329&#45;&gt;Node324 -->
<g id="edge23" class="edge">
<title>Node329&#45;&gt;Node324</title>
<path fill="none" stroke="#191970" d="M512.1704,-159.0309C495.827,-164.584 469.285,-170.3296 447,-177.4874 432.6296,-182.1031 417.3517,-187.9663 403.44,-193.3449"/>
<polygon fill="#191970" stroke="#191970" points="402.1223,-190.1018 394.0551,-196.9698 404.6445,-196.6316 402.1223,-190.1018"/>
</g>
<!-- Node329&#45;&gt;Node330 -->
<g id="edge20" class="edge">
<title>Node329&#45;&gt;Node330</title>
<path fill="none" stroke="#191970" d="M603.605,-146.7151C660.6181,-144.0048 740.4424,-138.8669 810,-129.4874 832.9026,-126.3991 858.0072,-121.6023 879.3077,-117.1065"/>
<polygon fill="#191970" stroke="#191970" points="880.0749,-120.5216 889.1178,-115.0011 878.606,-113.6775 880.0749,-120.5216"/>
</g>
<!-- Node331 -->
<g id="node16" class="node">
<title>Node331</title>
<g id="a_node16"><a xlink:href="classMap.html#a769a53961d4a0dd34ee080d2da8c171e" target="_top" xlink:title="Map::getElevatedNeighbor\lBitmask">
<polygon fill="none" stroke="#000000" points="654,-90.4874 654,-120.4874 800,-120.4874 800,-90.4874 654,-90.4874"/>
<text text-anchor="start" x="662" y="-108.4874" font-family="Helvetica,sans-Serif" font-size="10.00" fill="#000000">Map::getElevatedNeighbor</text>
<text text-anchor="middle" x="727" y="-97.4874" font-family="Helvetica,sans-Serif" font-size="10.00" fill="#000000">Bitmask</text>
</a>
</g>
</g>
<!-- Node329&#45;&gt;Node331 -->
<g id="edge21" class="edge">
<title>Node329&#45;&gt;Node331</title>
<path fill="none" stroke="#191970" d="M570.7885,-139.9401C593.5507,-134.9198 622.1615,-128.6097 648.6576,-122.7659"/>
<polygon fill="#191970" stroke="#191970" points="649.6808,-126.1245 658.6923,-120.5528 648.1731,-119.2887 649.6808,-126.1245"/>
</g>
<!-- Node332 -->
<g id="node17" class="node">
<title>Node332</title>
<g id="a_node17"><a xlink:href="classMap.html#af192be95053d30ea6c6d9327106bf6d8" target="_top" xlink:title="Get a bitmask that represents same&#45;tile neighbors Checks all neighboring tiles and returns the elevat...">
<polygon fill="none" stroke="#000000" points="644,-177.9874 644,-196.9874 810,-196.9874 810,-177.9874 644,-177.9874"/>
<text text-anchor="middle" x="727" y="-184.9874" font-family="Helvetica,sans-Serif" font-size="10.00" fill="#000000">Map::calculateAutotileBitmask</text>
</a>
</g>
</g>
<!-- Node329&#45;&gt;Node332 -->
<g id="edge24" class="edge">
<title>Node329&#45;&gt;Node332</title>
<path fill="none" stroke="#191970" d="M577.5848,-159.0274C604.739,-164.1996 638.4857,-170.6275 667.0332,-176.0652"/>
<polygon fill="#191970" stroke="#191970" points="666.4163,-179.5105 676.8946,-177.9435 667.7262,-172.6341 666.4163,-179.5105"/>
</g>
<!-- Node331&#45;&gt;Node330 -->
<g id="edge22" class="edge">
<title>Node331&#45;&gt;Node330</title>
<path fill="none" stroke="#191970" d="M800.0009,-105.4874C815.5725,-105.4874 832.118,-105.4874 848.0014,-105.4874"/>
<polygon fill="#191970" stroke="#191970" points="848.3266,-108.9875 858.3266,-105.4874 848.3266,-101.9875 848.3266,-108.9875"/>
</g>
<!-- Node332&#45;&gt;Node325 -->
<g id="edge25" class="edge">
<title>Node332&#45;&gt;Node325</title>
<path fill="none" stroke="#191970" d="M787.3571,-197.0018C802.5524,-199.3971 819.2285,-202.0259 835.6536,-204.6151"/>
<polygon fill="#191970" stroke="#191970" points="835.4096,-208.1198 845.8327,-206.2197 836.4997,-201.2051 835.4096,-208.1198"/>
</g>
<!-- Node333 -->
<g id="node18" class="node">
<title>Node333</title>
<g id="a_node18"><a xlink:href="classMapNode.html#afb1cbc0f9e987b7befced46220dd9277" target="_top" xlink:title="check if specific layer can be autotiled. ">
<polygon fill="none" stroke="#000000" points="858,-165.9874 858,-184.9874 1002,-184.9874 1002,-165.9874 858,-165.9874"/>
<text text-anchor="middle" x="930" y="-172.9874" font-family="Helvetica,sans-Serif" font-size="10.00" fill="#000000">MapNode::isLayerAutoTile</text>
</a>
</g>
</g>
<!-- Node332&#45;&gt;Node333 -->
<g id="edge26" class="edge">
<title>Node332&#45;&gt;Node333</title>
<path fill="none" stroke="#191970" d="M810.1536,-182.5719C822.4717,-181.8438 835.1628,-181.0936 847.4681,-180.3661"/>
<polygon fill="#191970" stroke="#191970" points="847.9213,-183.8456 857.6973,-179.7615 847.5081,-176.8578 847.9213,-183.8456"/>
</g>
<!-- Node334 -->
<g id="node19" class="node">
<title>Node334</title>
<g id="a_node19"><a xlink:href="classMapNode.html#a64cb9a4523c9e78f256fde42f1dee43d" target="_top" xlink:title="check if specific Tile Data is autotile category. ">
<polygon fill="none" stroke="#000000" points="1050,-165.9874 1050,-184.9874 1190,-184.9874 1190,-165.9874 1050,-165.9874"/>
<text text-anchor="middle" x="1120" y="-172.9874" font-family="Helvetica,sans-Serif" font-size="10.00" fill="#000000">MapNode::isDataAutoTile</text>
</a>
</g>
</g>
<!-- Node333&#45;&gt;Node334 -->
<g id="edge27" class="edge">
<title>Node333&#45;&gt;Node334</title>
<path fill="none" stroke="#191970" d="M1002.1018,-175.4874C1014.3221,-175.4874 1027.0799,-175.4874 1039.4991,-175.4874"/>
<polygon fill="#191970" stroke="#191970" points="1039.8325,-178.9875 1049.8324,-175.4874 1039.8324,-171.9875 1039.8325,-178.9875"/>
</g>
</g>
</svg>
