<?xml version="1.0" encoding="UTF-8" standalone="no"?>
<!DOCTYPE svg PUBLIC "-//W3C//DTD SVG 1.1//EN"
 "http://www.w3.org/Graphics/SVG/1.1/DTD/svg11.dtd">
<!-- Generated by graphviz version 2.40.1 (20161225.0304)
 -->
<!-- Title: Map::findNodeInMap Pages: 1 -->
<svg width="1042pt" height="259pt"
 viewBox="0.00 0.00 1042.00 259.00" xmlns="http://www.w3.org/2000/svg" xmlns:xlink="http://www.w3.org/1999/xlink">
<g id="graph0" class="graph" transform="scale(1 1) rotate(0) translate(4 255)">
<title>Map::findNodeInMap</title>
<!-- Node171 -->
<g id="node1" class="node">
<title>Node171</title>
<polygon fill="#bfbfbf" stroke="#000000" points="0,-174.5 0,-193.5 116,-193.5 116,-174.5 0,-174.5"/>
<text text-anchor="middle" x="58" y="-181.5" font-family="Helvetica,sans-Serif" font-size="10.00" fill="#000000">Map::findNodeInMap</text>
</g>
<!-- Node172 -->
<g id="node2" class="node">
<title>Node172</title>
<g id="a_node2"><a xlink:href="isoMath_8cxx.html#a0a076d973bc64ffa7859b894793c8000" target="_top" xlink:title="Calculates screen space coordinates to isometric space coordinates. A formula is used to calculate th...">
<polygon fill="none" stroke="#000000" points="152,-231.5 152,-250.5 286,-250.5 286,-231.5 152,-231.5"/>
<text text-anchor="middle" x="219" y="-238.5" font-family="Helvetica,sans-Serif" font-size="10.00" fill="#000000">calculateIsoCoordinates</text>
</a>
</g>
</g>
<!-- Node171&#45;&gt;Node172 -->
<g id="edge1" class="edge">
<title>Node171&#45;&gt;Node172</title>
<path fill="none" stroke="#191970" d="M84.9478,-193.5405C111.6491,-202.9938 152.7364,-217.5402 182.3853,-228.037"/>
<polygon fill="#191970" stroke="#191970" points="181.3695,-231.3902 191.9643,-231.4284 183.7058,-224.7916 181.3695,-231.3902"/>
</g>
<!-- Node173 -->
<g id="node3" class="node">
<title>Node173</title>
<g id="a_node3"><a xlink:href="classSingleton.html#af5cb1e5749949e2b68416cfb8d378044" target="_top" xlink:title="Get an instance of the singleton. ">
<polygon fill="none" stroke="#000000" points="547.5,-115 547.5,-145 660.5,-145 660.5,-115 547.5,-115"/>
<text text-anchor="start" x="555.5" y="-133" font-family="Helvetica,sans-Serif" font-size="10.00" fill="#000000">Singleton&lt; Settings</text>
<text text-anchor="middle" x="604" y="-122" font-family="Helvetica,sans-Serif" font-size="10.00" fill="#000000"> &gt;::instance</text>
</a>
</g>
</g>
<!-- Node171&#45;&gt;Node173 -->
<g id="edge2" class="edge">
<title>Node171&#45;&gt;Node173</title>
<path fill="none" stroke="#191970" d="M116.1942,-192.2429C199.5884,-202.2108 357.3331,-214.1746 487,-184 516.4923,-177.1369 547.5048,-162.4358 570.1857,-150.1034"/>
<polygon fill="#191970" stroke="#191970" points="572.0221,-153.087 579.0602,-145.1676 568.6197,-146.9695 572.0221,-153.087"/>
</g>
<!-- Node174 -->
<g id="node4" class="node">
<title>Node174</title>
<g id="a_node4"><a xlink:href="classMap.html#a1676db3d125b2c1764adfcb64d6332a2" target="_top" xlink:title="Map::nodeIdx">
<polygon fill="none" stroke="#000000" points="363.5,-155.5 363.5,-174.5 445.5,-174.5 445.5,-155.5 363.5,-155.5"/>
<text text-anchor="middle" x="404.5" y="-162.5" font-family="Helvetica,sans-Serif" font-size="10.00" fill="#000000">Map::nodeIdx</text>
</a>
</g>
</g>
<!-- Node171&#45;&gt;Node174 -->
<g id="edge3" class="edge">
<title>Node171&#45;&gt;Node174</title>
<path fill="none" stroke="#191970" d="M116.3872,-180.7984C182.7072,-177.1618 289.8976,-171.2841 353.1484,-167.8158"/>
<polygon fill="#191970" stroke="#191970" points="353.4955,-171.3021 363.2888,-167.2598 353.1122,-164.3126 353.4955,-171.3021"/>
</g>
<!-- Node175 -->
<g id="node5" class="node">
<title>Node175</title>
<g id="a_node5"><a xlink:href="classMap.html#a352929ea8cc2efc4f415c7ec795e1538" target="_top" xlink:title="Map::isClickWithinTile">
<polygon fill="none" stroke="#000000" points="156.5,-98.5 156.5,-117.5 281.5,-117.5 281.5,-98.5 156.5,-98.5"/>
<text text-anchor="middle" x="219" y="-105.5" font-family="Helvetica,sans-Serif" font-size="10.00" fill="#000000">Map::isClickWithinTile</text>
</a>
</g>
</g>
<!-- Node171&#45;&gt;Node175 -->
<g id="edge4" class="edge">
<title>Node171&#45;&gt;Node175</title>
<path fill="none" stroke="#191970" d="M78.3908,-174.3745C106.4565,-161.1261 157.1696,-137.187 189.4083,-121.9687"/>
<polygon fill="#191970" stroke="#191970" points="191.2258,-124.9812 198.7748,-117.5473 188.2376,-118.6511 191.2258,-124.9812"/>
</g>
<!-- Node175&#45;&gt;Node173 -->
<g id="edge16" class="edge">
<title>Node175&#45;&gt;Node173</title>
<path fill="none" stroke="#191970" d="M281.7138,-111.5836C351.8803,-115.5932 465.1091,-122.0634 536.9812,-126.1704"/>
<polygon fill="#191970" stroke="#191970" points="537.0918,-129.6823 547.2752,-126.7586 537.4912,-122.6937 537.0918,-129.6823"/>
</g>
<!-- Node175&#45;&gt;Node174 -->
<g id="edge7" class="edge">
<title>Node175&#45;&gt;Node174</title>
<path fill="none" stroke="#191970" d="M248.2363,-117.5985C268.8181,-124.2988 297.039,-133.3722 322,-141 334.6071,-144.8526 348.3417,-148.9054 360.9229,-152.561"/>
<polygon fill="#191970" stroke="#191970" points="360.1431,-155.9789 370.7219,-155.3963 362.0887,-149.2547 360.1431,-155.9789"/>
</g>
<!-- Node176 -->
<g id="node6" class="node">
<title>Node176</title>
<g id="a_node6"><a xlink:href="isoMath_8cxx.html#a7fa61c3d8ef446fb1c48dc4838023649" target="_top" xlink:title="Check if given coordinates are within map boundaries Checks if coordinates are within map boundaries...">
<polygon fill="none" stroke="#000000" points="326.5,-79.5 326.5,-98.5 482.5,-98.5 482.5,-79.5 326.5,-79.5"/>
<text text-anchor="middle" x="404.5" y="-86.5" font-family="Helvetica,sans-Serif" font-size="10.00" fill="#000000">isPointWithinMapBoundaries</text>
</a>
</g>
</g>
<!-- Node175&#45;&gt;Node176 -->
<g id="edge5" class="edge">
<title>Node175&#45;&gt;Node176</title>
<path fill="none" stroke="#191970" d="M281.5432,-101.594C292.6883,-100.4524 304.4866,-99.244 316.1904,-98.0452"/>
<polygon fill="#191970" stroke="#191970" points="316.8411,-101.4969 326.4324,-96.9961 316.1278,-94.5334 316.8411,-101.4969"/>
</g>
<!-- Node177 -->
<g id="node7" class="node">
<title>Node177</title>
<g id="a_node7"><a xlink:href="classMapLayers.html#a1d810628821913c499b8348107b66891" target="_top" xlink:title="Check if given Layer is being drawn. ">
<polygon fill="none" stroke="#000000" points="334,-41.5 334,-60.5 475,-60.5 475,-41.5 334,-41.5"/>
<text text-anchor="middle" x="404.5" y="-48.5" font-family="Helvetica,sans-Serif" font-size="10.00" fill="#000000">MapLayers::isLayerActive</text>
</a>
</g>
</g>
<!-- Node175&#45;&gt;Node177 -->
<g id="edge8" class="edge">
<title>Node175&#45;&gt;Node177</title>
<path fill="none" stroke="#191970" d="M242.4397,-98.3815C263.1315,-90.1253 294.2375,-78.2816 322,-70 330.4936,-67.4663 339.5637,-65.072 348.4672,-62.892"/>
<polygon fill="#191970" stroke="#191970" points="349.4914,-66.2461 358.4093,-60.5258 347.8706,-59.4363 349.4914,-66.2461"/>
</g>
<!-- Node184 -->
<g id="node14" class="node">
<title>Node184</title>
<g id="a_node14"><a xlink:href="classMap.html#a60c25a64389c3007bb118d3041ac86c9" target="_top" xlink:title="Map::getColorOfPixelInSurface">
<polygon fill="none" stroke="#000000" points="322,-3.5 322,-22.5 487,-22.5 487,-3.5 322,-3.5"/>
<text text-anchor="middle" x="404.5" y="-10.5" font-family="Helvetica,sans-Serif" font-size="10.00" fill="#000000">Map::getColorOfPixelInSurface</text>
</a>
</g>
</g>
<!-- Node175&#45;&gt;Node184 -->
<g id="edge15" class="edge">
<title>Node175&#45;&gt;Node184</title>
<path fill="none" stroke="#191970" d="M228.9067,-98.4566C246.2863,-82.2604 284.0421,-49.4553 322,-32 327.3894,-29.5216 333.13,-27.3525 338.9771,-25.4566"/>
<polygon fill="#191970" stroke="#191970" points="340.2847,-28.7195 348.8748,-22.5177 338.2921,-22.009 340.2847,-28.7195"/>
</g>
<!-- Node176&#45;&gt;Node173 -->
<g id="edge6" class="edge">
<title>Node176&#45;&gt;Node173</title>
<path fill="none" stroke="#191970" d="M450.7708,-98.5093C476.5123,-103.7995 508.9998,-110.4762 537.4294,-116.3188"/>
<polygon fill="#191970" stroke="#191970" points="536.7984,-119.7622 547.2983,-118.347 538.2076,-112.9055 536.7984,-119.7622"/>
</g>
<!-- Node178 -->
<g id="node8" class="node">
<title>Node178</title>
<g id="a_node8"><a xlink:href="classMapLayers.html#ab663dfc9e4c144f904ad85543b66ac8f" target="_top" xlink:title="Toggle Drawing Layer Toggle Drawing Layer (use bitwise XOR to toggle layer) ">
<polygon fill="none" stroke="#000000" points="523,-76.5 523,-95.5 685,-95.5 685,-76.5 523,-76.5"/>
<text text-anchor="middle" x="604" y="-83.5" font-family="Helvetica,sans-Serif" font-size="10.00" fill="#000000">MapLayers::setLayerEditMode</text>
</a>
</g>
</g>
<!-- Node177&#45;&gt;Node178 -->
<g id="edge9" class="edge">
<title>Node177&#45;&gt;Node178</title>
<path fill="none" stroke="#191970" d="M458.7507,-60.5177C483.7067,-64.8959 513.4984,-70.1225 539.5867,-74.6994"/>
<polygon fill="#191970" stroke="#191970" points="539.3057,-78.2035 549.7601,-76.4842 540.5153,-71.3088 539.3057,-78.2035"/>
</g>
<!-- Node182 -->
<g id="node12" class="node">
<title>Node182</title>
<g id="a_node12"><a xlink:href="classMapLayers.html#a53d7fcd90e70eaf36239d7a75c0c5dda" target="_top" xlink:title="MapLayers::MapLayers">
<polygon fill="none" stroke="#000000" points="540,-38.5 540,-57.5 668,-57.5 668,-38.5 540,-38.5"/>
<text text-anchor="middle" x="604" y="-45.5" font-family="Helvetica,sans-Serif" font-size="10.00" fill="#000000">MapLayers::MapLayers</text>
</a>
</g>
</g>
<!-- Node177&#45;&gt;Node182 -->
<g id="edge13" class="edge">
<title>Node177&#45;&gt;Node182</title>
<path fill="none" stroke="#191970" d="M475.117,-49.9381C492.7326,-49.6732 511.6769,-49.3883 529.4746,-49.1207"/>
<polygon fill="#191970" stroke="#191970" points="529.8562,-52.6154 539.8024,-48.9654 529.7509,-45.6162 529.8562,-52.6154"/>
</g>
<!-- Node183 -->
<g id="node13" class="node">
<title>Node183</title>
<g id="a_node13"><a xlink:href="classMapLayers.html#aa7fa21110e27ec69f131692b0a510d66" target="_top" xlink:title="MapLayers::~MapLayers">
<polygon fill="none" stroke="#000000" points="536,-.5 536,-19.5 672,-19.5 672,-.5 536,-.5"/>
<text text-anchor="middle" x="604" y="-7.5" font-family="Helvetica,sans-Serif" font-size="10.00" fill="#000000">MapLayers::~MapLayers</text>
</a>
</g>
</g>
<!-- Node177&#45;&gt;Node183 -->
<g id="edge14" class="edge">
<title>Node177&#45;&gt;Node183</title>
<path fill="none" stroke="#191970" d="M450.7708,-41.4907C479.6237,-35.561 516.9522,-27.8895 547.5416,-21.603"/>
<polygon fill="#191970" stroke="#191970" points="548.5444,-24.9701 557.635,-19.5286 547.1352,-18.1134 548.5444,-24.9701"/>
</g>
<!-- Node179 -->
<g id="node9" class="node">
<title>Node179</title>
<g id="a_node9"><a xlink:href="classMapLayers.html#a0a64d01a42e8864b78e1bc54007cb7d9" target="_top" xlink:title="Toggle Drawing Layer Toggle Drawing Layer (use bitwise XOR to toggle layer) ">
<polygon fill="none" stroke="#000000" points="721,-93 721,-123 861,-123 861,-93 721,-93"/>
<text text-anchor="start" x="729" y="-111" font-family="Helvetica,sans-Serif" font-size="10.00" fill="#000000">MapLayers::deactivateAll</text>
<text text-anchor="middle" x="791" y="-100" font-family="Helvetica,sans-Serif" font-size="10.00" fill="#000000">Layers</text>
</a>
</g>
</g>
<!-- Node178&#45;&gt;Node179 -->
<g id="edge10" class="edge">
<title>Node178&#45;&gt;Node179</title>
<path fill="none" stroke="#191970" d="M684.9333,-95.5216C693.5179,-96.5315 702.2464,-97.5584 710.8223,-98.5673"/>
<polygon fill="#191970" stroke="#191970" points="710.4613,-102.0489 720.8018,-99.7414 711.2792,-95.0969 710.4613,-102.0489"/>
</g>
<!-- Node181 -->
<g id="node11" class="node">
<title>Node181</title>
<g id="a_node11"><a xlink:href="classMapLayers.html#a5db6ba7e194ada6a4d0334d0428ff89b" target="_top" xlink:title="Enable drawing layers. ">
<polygon fill="none" stroke="#000000" points="721,-54.5 721,-73.5 861,-73.5 861,-54.5 721,-54.5"/>
<text text-anchor="middle" x="791" y="-61.5" font-family="Helvetica,sans-Serif" font-size="10.00" fill="#000000">MapLayers::enableLayers</text>
</a>
</g>
</g>
<!-- Node178&#45;&gt;Node181 -->
<g id="edge12" class="edge">
<title>Node178&#45;&gt;Node181</title>
<path fill="none" stroke="#191970" d="M684.9333,-76.4784C693.5179,-75.4685 702.2464,-74.4416 710.8223,-73.4327"/>
<polygon fill="#191970" stroke="#191970" points="711.2792,-76.9031 720.8018,-72.2586 710.4613,-69.9511 711.2792,-76.9031"/>
</g>
<!-- Node180 -->
<g id="node10" class="node">
<title>Node180</title>
<g id="a_node10"><a xlink:href="classMapLayers.html#a3b1b1f10dd431fa83e098a20e4c836b9" target="_top" xlink:title="Disable Drawing Layer Disable Drawing Layer ( Turned off by using bitwise AND with inversed pattern) ...">
<polygon fill="none" stroke="#000000" points="897,-98.5 897,-117.5 1034,-117.5 1034,-98.5 897,-98.5"/>
<text text-anchor="middle" x="965.5" y="-105.5" font-family="Helvetica,sans-Serif" font-size="10.00" fill="#000000">MapLayers::disableLayer</text>
</a>
</g>
</g>
<!-- Node179&#45;&gt;Node180 -->
<g id="edge11" class="edge">
<title>Node179&#45;&gt;Node180</title>
<path fill="none" stroke="#191970" d="M861.2215,-108C869.5704,-108 878.1356,-108 886.5953,-108"/>
<polygon fill="#191970" stroke="#191970" points="886.8402,-111.5001 896.8402,-108 886.8402,-104.5001 886.8402,-111.5001"/>
</g>
</g>
</svg>
