<?xml version="1.0" encoding="UTF-8" standalone="no"?>
<!DOCTYPE svg PUBLIC "-//W3C//DTD SVG 1.1//EN"
 "http://www.w3.org/Graphics/SVG/1.1/DTD/svg11.dtd">
<!-- Generated by graphviz version 2.40.1 (20161225.0304)
 -->
<!-- Title: UIManager::initializeDollarVariables Pages: 1 -->
<svg width="1268pt" height="694pt"
 viewBox="0.00 0.00 1268.00 693.50" xmlns="http://www.w3.org/2000/svg" xmlns:xlink="http://www.w3.org/1999/xlink">
<g id="graph0" class="graph" transform="scale(1 1) rotate(0) translate(4 689.5)">
<title>UIManager::initializeDollarVariables</title>
<!-- Node138 -->
<g id="node1" class="node">
<title>Node138</title>
<polygon fill="#bfbfbf" stroke="#000000" points="0,-259 0,-289 146,-289 146,-259 0,-259"/>
<text text-anchor="start" x="8" y="-277" font-family="Helvetica,sans-Serif" font-size="10.00" fill="#000000">UIManager::initializeDollar</text>
<text text-anchor="middle" x="73" y="-266" font-family="Helvetica,sans-Serif" font-size="10.00" fill="#000000">Variables</text>
</g>
<!-- Node139 -->
<g id="node2" class="node">
<title>Node139</title>
<g id="a_node2"><a xlink:href="classUIManager.html#a1f663947ee80bfcb9567f82aa5d05607" target="_top" xlink:title="Get all Ui Element objects Returns a container that holds ALL UiElements, even those in buttongroups...">
<polygon fill="none" stroke="#000000" points="195,-492.5 195,-511.5 355,-511.5 355,-492.5 195,-492.5"/>
<text text-anchor="middle" x="275" y="-499.5" font-family="Helvetica,sans-Serif" font-size="10.00" fill="#000000">UIManager::getAllUiElements</text>
</a>
</g>
</g>
<!-- Node138&#45;&gt;Node139 -->
<g id="edge1" class="edge">
<title>Node138&#45;&gt;Node139</title>
<path fill="none" stroke="#191970" d="M76.2109,-289.2816C85.2652,-328.3559 114.8389,-432.3875 182,-483 184.3443,-484.7666 186.8125,-486.3794 189.3762,-487.8512"/>
<polygon fill="#191970" stroke="#191970" points="187.9043,-491.0279 198.4188,-492.3306 191.0116,-484.7553 187.9043,-491.0279"/>
</g>
<!-- Node140 -->
<g id="node3" class="node">
<title>Node140</title>
<g id="a_node3"><a xlink:href="namespaceutils_1_1strings.html#afa781708d9b82cab99d894cf7728ddf1" target="_top" xlink:title="checks if a string starts with a certain substring ">
<polygon fill="none" stroke="#000000" points="208.5,-454.5 208.5,-473.5 341.5,-473.5 341.5,-454.5 208.5,-454.5"/>
<text text-anchor="middle" x="275" y="-461.5" font-family="Helvetica,sans-Serif" font-size="10.00" fill="#000000">utils::strings::startsWith</text>
</a>
</g>
</g>
<!-- Node138&#45;&gt;Node140 -->
<g id="edge2" class="edge">
<title>Node138&#45;&gt;Node140</title>
<path fill="none" stroke="#191970" d="M78.0369,-289.2404C90.0893,-323.1746 123.9831,-405.1021 182,-445 187.1683,-448.5542 192.8556,-451.4715 198.7933,-453.8628"/>
<polygon fill="#191970" stroke="#191970" points="197.6968,-457.1873 208.2916,-457.2034 200.0193,-450.5838 197.6968,-457.1873"/>
</g>
<!-- Node141 -->
<g id="node4" class="node">
<title>Node141</title>
<g id="a_node4"><a xlink:href="classComboBox.html#a5cf164ba9b28158f7d3f326200b22b9b" target="_top" xlink:title="Clears the element&#39;s text field clears the text field of the comboBox. ">
<polygon fill="none" stroke="#000000" points="225,-416.5 225,-435.5 325,-435.5 325,-416.5 225,-416.5"/>
<text text-anchor="middle" x="275" y="-423.5" font-family="Helvetica,sans-Serif" font-size="10.00" fill="#000000">ComboBox::clear</text>
</a>
</g>
</g>
<!-- Node138&#45;&gt;Node141 -->
<g id="edge3" class="edge">
<title>Node138&#45;&gt;Node141</title>
<path fill="none" stroke="#191970" d="M80.8291,-289.229C96.1483,-317.3815 132.9217,-377.388 182,-407 191.931,-412.992 203.4309,-417.1253 214.8865,-419.9692"/>
<polygon fill="#191970" stroke="#191970" points="214.3857,-423.4421 224.9015,-422.1506 215.8755,-416.6025 214.3857,-423.4421"/>
</g>
<!-- Node142 -->
<g id="node5" class="node">
<title>Node142</title>
<g id="a_node5"><a xlink:href="classComboBox.html#a0c422945ffd5c8d65bc4d61bd092bece" target="_top" xlink:title="ComboBox::addElement">
<polygon fill="none" stroke="#000000" points="208,-378.5 208,-397.5 342,-397.5 342,-378.5 208,-378.5"/>
<text text-anchor="middle" x="275" y="-385.5" font-family="Helvetica,sans-Serif" font-size="10.00" fill="#000000">ComboBox::addElement</text>
</a>
</g>
</g>
<!-- Node138&#45;&gt;Node142 -->
<g id="edge4" class="edge">
<title>Node138&#45;&gt;Node142</title>
<path fill="none" stroke="#191970" d="M85.7195,-289.2083C104.4793,-310.5732 141.7217,-349.0841 182,-369 186.9856,-371.4652 192.2731,-373.6106 197.6961,-375.4777"/>
<polygon fill="#191970" stroke="#191970" points="196.9799,-378.9202 207.5682,-378.5469 199.0581,-372.2358 196.9799,-378.9202"/>
</g>
<!-- Node144 -->
<g id="node7" class="node">
<title>Node144</title>
<g id="a_node7"><a xlink:href="classSingleton.html#af5cb1e5749949e2b68416cfb8d378044" target="_top" xlink:title="Get an instance of the singleton. ">
<polygon fill="none" stroke="#000000" points="873,-344 873,-374 986,-374 986,-344 873,-344"/>
<text text-anchor="start" x="881" y="-362" font-family="Helvetica,sans-Serif" font-size="10.00" fill="#000000">Singleton&lt; Settings</text>
<text text-anchor="middle" x="929.5" y="-351" font-family="Helvetica,sans-Serif" font-size="10.00" fill="#000000"> &gt;::instance</text>
</a>
</g>
</g>
<!-- Node138&#45;&gt;Node144 -->
<g id="edge6" class="edge">
<title>Node138&#45;&gt;Node144</title>
<path fill="none" stroke="#191970" d="M84.8668,-258.7136C104.0028,-240.4374 143.4442,-212.052 182,-199 314.1367,-154.2687 686.2638,-83.873 808,-152 877.5471,-190.9205 912.1209,-287.7307 924.2748,-334.0092"/>
<polygon fill="#191970" stroke="#191970" points="920.9112,-334.9874 926.7128,-343.8526 927.7059,-333.3045 920.9112,-334.9874"/>
</g>
<!-- Node138&#45;&gt;Node144 -->
<g id="edge34" class="edge">
<title>Node138&#45;&gt;Node144</title>
<path fill="none" stroke="#191970" d="M102.2404,-258.9813C123.2418,-245.4704 152.8736,-226.8599 182,-217 314.1367,-172.2687 686.2638,-101.873 808,-170 872.3772,-206.0273 906.7874,-291.6575 921.1875,-334.3291"/>
<polygon fill="#191970" stroke="#191970" points="917.9032,-335.5462 924.347,-343.9562 924.5542,-333.3634 917.9032,-335.5462"/>
</g>
<!-- Node145 -->
<g id="node8" class="node">
<title>Node145</title>
<g id="a_node8"><a xlink:href="classComboBox.html#ad0dba514b01ed2bb3c41c738c80a7d6a" target="_top" xlink:title="Set ID of selected element sets the ID of the selected element in the comboBox. ">
<polygon fill="none" stroke="#000000" points="645,-264.5 645,-283.5 777,-283.5 777,-264.5 645,-264.5"/>
<text text-anchor="middle" x="711" y="-271.5" font-family="Helvetica,sans-Serif" font-size="10.00" fill="#000000">ComboBox::setActiveID</text>
</a>
</g>
</g>
<!-- Node138&#45;&gt;Node145 -->
<g id="edge7" class="edge">
<title>Node138&#45;&gt;Node145</title>
<path fill="none" stroke="#191970" d="M146.1867,-274C267.9589,-274 510.9881,-274 634.7565,-274"/>
<polygon fill="#191970" stroke="#191970" points="634.9067,-277.5001 644.9067,-274 634.9066,-270.5001 634.9067,-277.5001"/>
</g>
<!-- Node146 -->
<g id="node9" class="node">
<title>Node146</title>
<g id="a_node9"><a xlink:href="classComboBox.html#a6c15ed04bb4eee2130939e9e2045a5eb" target="_top" xlink:title="ComboBox::count">
<polygon fill="none" stroke="#000000" points="223.5,-38.5 223.5,-57.5 326.5,-57.5 326.5,-38.5 223.5,-38.5"/>
<text text-anchor="middle" x="275" y="-45.5" font-family="Helvetica,sans-Serif" font-size="10.00" fill="#000000">ComboBox::count</text>
</a>
</g>
</g>
<!-- Node138&#45;&gt;Node146 -->
<g id="edge8" class="edge">
<title>Node138&#45;&gt;Node146</title>
<path fill="none" stroke="#191970" d="M76.6687,-258.8637C86.6281,-221.1145 117.8356,-122.238 182,-72 191.1392,-64.8444 202.1843,-59.8057 213.4232,-56.2618"/>
<polygon fill="#191970" stroke="#191970" points="214.6081,-59.5652 223.3066,-53.5166 212.7347,-52.8206 214.6081,-59.5652"/>
</g>
<!-- Node147 -->
<g id="node10" class="node">
<title>Node147</title>
<g id="a_node10"><a xlink:href="classComboBox.html#abcaec38988ca3a571907d33ddb84c5a6" target="_top" xlink:title="ComboBox::registerCallback\lFunction">
<polygon fill="none" stroke="#000000" points="413.5,-27 413.5,-57 568.5,-57 568.5,-27 413.5,-27"/>
<text text-anchor="start" x="421.5" y="-45" font-family="Helvetica,sans-Serif" font-size="10.00" fill="#000000">ComboBox::registerCallback</text>
<text text-anchor="middle" x="491" y="-34" font-family="Helvetica,sans-Serif" font-size="10.00" fill="#000000">Function</text>
</a>
</g>
</g>
<!-- Node138&#45;&gt;Node147 -->
<g id="edge10" class="edge">
<title>Node138&#45;&gt;Node147</title>
<path fill="none" stroke="#191970" d="M78.4562,-258.9459C91.1381,-226.2157 125.8658,-148.437 182,-110 186.7849,-106.7236 319.7883,-78.165 409.721,-59.1148"/>
<polygon fill="#191970" stroke="#191970" points="410.5859,-62.5094 419.6444,-57.0143 409.1363,-55.6611 410.5859,-62.5094"/>
</g>
<!-- Node148 -->
<g id="node11" class="node">
<title>Node148</title>
<g id="a_node11"><a xlink:href="namespaceSignal.html#a6e0df6c5db8c544e147a57b4d89171ca" target="_top" xlink:title="This function creates a std::function by binding object to the member function pointer method...">
<polygon fill="none" stroke="#000000" points="239.5,-.5 239.5,-19.5 310.5,-19.5 310.5,-.5 239.5,-.5"/>
<text text-anchor="middle" x="275" y="-7.5" font-family="Helvetica,sans-Serif" font-size="10.00" fill="#000000">Signal::slot</text>
</a>
</g>
</g>
<!-- Node138&#45;&gt;Node148 -->
<g id="edge11" class="edge">
<title>Node138&#45;&gt;Node148</title>
<path fill="none" stroke="#191970" d="M74.9569,-258.733C81.3812,-215.2718 105.9701,-90.0886 182,-29 195.298,-18.3153 213.0477,-13.1649 229.4746,-10.8201"/>
<polygon fill="#191970" stroke="#191970" points="229.9324,-14.2908 239.4801,-9.6983 229.1524,-7.3344 229.9324,-14.2908"/>
</g>
<!-- Node149 -->
<g id="node12" class="node">
<title>Node149</title>
<g id="a_node12"><a xlink:href="classUIManager.html#a3ccb2fc669262f18ebdcdf3d5c43a3e8" target="_top" xlink:title="CallbackFunction that sets the Build Menu Position Used as callback function for the ComboBox that ho...">
<polygon fill="none" stroke="#000000" points="185,-340.5 185,-359.5 365,-359.5 365,-340.5 185,-340.5"/>
<text text-anchor="middle" x="275" y="-347.5" font-family="Helvetica,sans-Serif" font-size="10.00" fill="#000000">UIManager::setBuildMenuPosition</text>
</a>
</g>
</g>
<!-- Node138&#45;&gt;Node149 -->
<g id="edge12" class="edge">
<title>Node138&#45;&gt;Node149</title>
<path fill="none" stroke="#191970" d="M97.2093,-289.1934C118.7245,-302.0684 151.4169,-320.1239 182,-331 189.6166,-333.7087 197.729,-336.0769 205.8675,-338.1357"/>
<polygon fill="#191970" stroke="#191970" points="205.2373,-341.5834 215.7761,-340.4957 206.8592,-334.7739 205.2373,-341.5834"/>
</g>
<!-- Node163 -->
<g id="node26" class="node">
<title>Node163</title>
<g id="a_node26"><a xlink:href="classUIManager.html#ac927e1cd3dea979202ea9dbf1195b583" target="_top" xlink:title="UIManager::changeResolution">
<polygon fill="none" stroke="#000000" points="194.5,-302.5 194.5,-321.5 355.5,-321.5 355.5,-302.5 194.5,-302.5"/>
<text text-anchor="middle" x="275" y="-309.5" font-family="Helvetica,sans-Serif" font-size="10.00" fill="#000000">UIManager::changeResolution</text>
</a>
</g>
</g>
<!-- Node138&#45;&gt;Node163 -->
<g id="edge35" class="edge">
<title>Node138&#45;&gt;Node163</title>
<path fill="none" stroke="#191970" d="M146.2122,-287.7726C168.6307,-291.9899 193.0297,-296.5798 214.5017,-300.6191"/>
<polygon fill="#191970" stroke="#191970" points="213.9889,-304.084 224.4636,-302.4931 215.2831,-297.2046 213.9889,-304.084"/>
</g>
<!-- Node171 -->
<g id="node34" class="node">
<title>Node171</title>
<g id="a_node34"><a xlink:href="classUIManager.html#af2ffb4ee45e57152164643ef6cddda37" target="_top" xlink:title="UIManager::changeFullScreenMode">
<polygon fill="none" stroke="#000000" points="182,-217.5 182,-236.5 368,-236.5 368,-217.5 182,-217.5"/>
<text text-anchor="middle" x="275" y="-224.5" font-family="Helvetica,sans-Serif" font-size="10.00" fill="#000000">UIManager::changeFullScreenMode</text>
</a>
</g>
</g>
<!-- Node138&#45;&gt;Node171 -->
<g id="edge49" class="edge">
<title>Node138&#45;&gt;Node171</title>
<path fill="none" stroke="#191970" d="M137.4694,-258.9997C165.5223,-252.4725 197.9205,-244.9343 224.223,-238.8144"/>
<polygon fill="#191970" stroke="#191970" points="225.0368,-242.2187 233.9835,-236.5434 223.4505,-235.4008 225.0368,-242.2187"/>
</g>
<!-- Node143 -->
<g id="node6" class="node">
<title>Node143</title>
<g id="a_node6"><a xlink:href="classComboBox.html#aa344838cace46be94ba0cad37700b9ec" target="_top" xlink:title="ComboBox::centerTextLabel">
<polygon fill="none" stroke="#000000" points="414.5,-616.5 414.5,-635.5 567.5,-635.5 567.5,-616.5 414.5,-616.5"/>
<text text-anchor="middle" x="491" y="-623.5" font-family="Helvetica,sans-Serif" font-size="10.00" fill="#000000">ComboBox::centerTextLabel</text>
</a>
</g>
</g>
<!-- Node142&#45;&gt;Node143 -->
<g id="edge5" class="edge">
<title>Node142&#45;&gt;Node143</title>
<path fill="none" stroke="#191970" d="M342.4485,-391.7609C352.0185,-394.9663 360.9757,-399.8091 368,-407 431.1114,-471.608 341.3258,-541.9679 404,-607 405.2539,-608.301 406.5746,-609.5229 407.9534,-610.6701"/>
<polygon fill="#191970" stroke="#191970" points="406.1934,-613.7063 416.4254,-616.4552 410.1408,-607.9255 406.1934,-613.7063"/>
</g>
<!-- Node146&#45;&gt;Node147 -->
<g id="edge9" class="edge">
<title>Node146&#45;&gt;Node147</title>
<path fill="none" stroke="#191970" d="M326.7374,-46.5629C349.6552,-45.9262 377.2627,-45.1594 403.2481,-44.4376"/>
<polygon fill="#191970" stroke="#191970" points="403.5968,-47.9293 413.4958,-44.1529 403.4024,-40.932 403.5968,-47.9293"/>
</g>
<!-- Node149&#45;&gt;Node144 -->
<g id="edge13" class="edge">
<title>Node149&#45;&gt;Node144</title>
<path fill="none" stroke="#191970" d="M353.5864,-359.5048C358.791,-362.06 363.6731,-365.1862 368,-369 405.3244,-401.899 364.7585,-444.4131 404,-475 474.8714,-530.2409 725.7802,-528.2523 808,-492 811.3729,-490.5128 875.7113,-419.0412 909.3626,-381.5021"/>
<polygon fill="#191970" stroke="#191970" points="911.9784,-383.8276 916.0447,-374.0442 906.7648,-379.1565 911.9784,-383.8276"/>
</g>
<!-- Node150 -->
<g id="node13" class="node">
<title>Node150</title>
<g id="a_node13"><a xlink:href="classComboBox.html#afddbdfd25efa15206eb724b641665cfc" target="_top" xlink:title="Get ID of selected element returns the ID of the selected element in the comboBox. ">
<polygon fill="none" stroke="#000000" points="424.5,-302.5 424.5,-321.5 557.5,-321.5 557.5,-302.5 424.5,-302.5"/>
<text text-anchor="middle" x="491" y="-309.5" font-family="Helvetica,sans-Serif" font-size="10.00" fill="#000000">ComboBox::getActiveID</text>
</a>
</g>
</g>
<!-- Node149&#45;&gt;Node150 -->
<g id="edge14" class="edge">
<title>Node149&#45;&gt;Node150</title>
<path fill="none" stroke="#191970" d="M329.2271,-340.46C358.884,-335.2426 395.8037,-328.7475 426.8821,-323.28"/>
<polygon fill="#191970" stroke="#191970" points="427.5083,-326.7237 436.7506,-321.5439 426.2954,-319.8295 427.5083,-326.7237"/>
</g>
<!-- Node151 -->
<g id="node14" class="node">
<title>Node151</title>
<g id="a_node14"><a xlink:href="classUIManager.html#af885d42286536573cd418ed008abfc07" target="_top" xlink:title="UIManager::setBuildMenuLayout">
<polygon fill="none" stroke="#000000" points="404,-578.5 404,-597.5 578,-597.5 578,-578.5 404,-578.5"/>
<text text-anchor="middle" x="491" y="-585.5" font-family="Helvetica,sans-Serif" font-size="10.00" fill="#000000">UIManager::setBuildMenuLayout</text>
</a>
</g>
</g>
<!-- Node149&#45;&gt;Node151 -->
<g id="edge16" class="edge">
<title>Node149&#45;&gt;Node151</title>
<path fill="none" stroke="#191970" d="M355.3376,-359.7217C359.944,-362.256 364.2269,-365.3159 368,-369 419.2215,-419.013 364.259,-466.4551 404,-526 417.9801,-546.9468 441.6051,-563.1152 460.7108,-573.6814"/>
<polygon fill="#191970" stroke="#191970" points="459.1884,-576.8355 469.6649,-578.4148 462.4598,-570.647 459.1884,-576.8355"/>
</g>
<!-- Node154 -->
<g id="node17" class="node">
<title>Node154</title>
<g id="a_node17"><a xlink:href="classLayout.html#afa734c5af10f59f3dadb066054fe81ab" target="_top" xlink:title="Arrange the layout elements. ">
<polygon fill="none" stroke="#000000" points="421.5,-446.5 421.5,-465.5 560.5,-465.5 560.5,-446.5 421.5,-446.5"/>
<text text-anchor="middle" x="491" y="-453.5" font-family="Helvetica,sans-Serif" font-size="10.00" fill="#000000">Layout::arrangeElements</text>
</a>
</g>
</g>
<!-- Node149&#45;&gt;Node154 -->
<g id="edge19" class="edge">
<title>Node149&#45;&gt;Node154</title>
<path fill="none" stroke="#191970" d="M350.9605,-359.6879C357.0157,-362.17 362.794,-365.2313 368,-369 394.1228,-387.9104 378.5316,-412.2172 404,-432 409.4871,-436.2621 415.6836,-439.7678 422.1792,-442.6512"/>
<polygon fill="#191970" stroke="#191970" points="421.2745,-446.0558 431.8621,-446.4462 423.8288,-439.5385 421.2745,-446.0558"/>
</g>
<!-- Node150&#45;&gt;Node145 -->
<g id="edge15" class="edge">
<title>Node150&#45;&gt;Node145</title>
<path fill="none" stroke="#191970" d="M546.2313,-302.46C576.4374,-297.2426 614.0408,-290.7475 645.6947,-285.28"/>
<polygon fill="#191970" stroke="#191970" points="646.4876,-288.695 655.746,-283.5439 645.2961,-281.7971 646.4876,-288.695"/>
</g>
<!-- Node152 -->
<g id="node15" class="node">
<title>Node152</title>
<g id="a_node15"><a xlink:href="namespaceutils_1_1strings.html#a1460a4e19b93604e32bb76f8407c4221" target="_top" xlink:title="checks if a string ends with a certain substring ">
<polygon fill="none" stroke="#000000" points="647,-616.5 647,-635.5 775,-635.5 775,-616.5 647,-616.5"/>
<text text-anchor="middle" x="711" y="-623.5" font-family="Helvetica,sans-Serif" font-size="10.00" fill="#000000">utils::strings::endsWith</text>
</a>
</g>
</g>
<!-- Node151&#45;&gt;Node152 -->
<g id="edge17" class="edge">
<title>Node151&#45;&gt;Node152</title>
<path fill="none" stroke="#191970" d="M546.2313,-597.54C576.4374,-602.7574 614.0408,-609.2525 645.6947,-614.72"/>
<polygon fill="#191970" stroke="#191970" points="645.2961,-618.2029 655.746,-616.4561 646.4876,-611.305 645.2961,-618.2029"/>
</g>
<!-- Node153 -->
<g id="node16" class="node">
<title>Node153</title>
<g id="a_node16"><a xlink:href="namespaceutils_1_1strings.html#ab8a6e07e519cb0ee76d762fe635901c1" target="_top" xlink:title="Erase First Occurrence of given substring from main string. ">
<polygon fill="none" stroke="#000000" points="642,-655 642,-685 780,-685 780,-655 642,-655"/>
<text text-anchor="start" x="650" y="-673" font-family="Helvetica,sans-Serif" font-size="10.00" fill="#000000">utils::strings::removeSub</text>
<text text-anchor="middle" x="711" y="-662" font-family="Helvetica,sans-Serif" font-size="10.00" fill="#000000">String</text>
</a>
</g>
</g>
<!-- Node151&#45;&gt;Node153 -->
<g id="edge18" class="edge">
<title>Node151&#45;&gt;Node153</title>
<path fill="none" stroke="#191970" d="M555.8068,-597.5843C563.5493,-600.0404 571.133,-603.1253 578,-607 598.2616,-618.4326 593.9547,-633.1923 614,-645 619.7385,-648.3803 625.9308,-651.3087 632.3128,-653.8447"/>
<polygon fill="#191970" stroke="#191970" points="631.1741,-657.1548 641.7681,-657.2866 633.5686,-650.5771 631.1741,-657.1548"/>
</g>
<!-- Node154&#45;&gt;Node144 -->
<g id="edge20" class="edge">
<title>Node154&#45;&gt;Node144</title>
<path fill="none" stroke="#191970" d="M518.4301,-446.4456C586.5193,-427.6213 764.8176,-387.6711 862.7344,-368.7551"/>
<polygon fill="#191970" stroke="#191970" points="863.6543,-372.1427 872.8196,-366.8277 862.3403,-365.2671 863.6543,-372.1427"/>
</g>
<!-- Node154&#45;&gt;Node144 -->
<g id="edge23" class="edge">
<title>Node154&#45;&gt;Node144</title>
<path fill="none" stroke="#191970" d="M556.6479,-446.4606C641.9951,-430.0098 789.7473,-397.2515 871.2791,-376.6387"/>
<polygon fill="#191970" stroke="#191970" points="872.5438,-379.9281 881.3669,-374.0628 870.8118,-373.1458 872.5438,-379.9281"/>
</g>
<!-- Node155 -->
<g id="node18" class="node">
<title>Node155</title>
<g id="a_node18"><a xlink:href="classLayout.html#a79480df6d9dd2d32b23468c05c6ac944" target="_top" xlink:title="Calculates height and width of layout groups. ">
<polygon fill="none" stroke="#000000" points="630,-453 630,-483 792,-483 792,-453 630,-453"/>
<text text-anchor="start" x="638" y="-471" font-family="Helvetica,sans-Serif" font-size="10.00" fill="#000000">Layout::calculateLayoutGroup</text>
<text text-anchor="middle" x="711" y="-460" font-family="Helvetica,sans-Serif" font-size="10.00" fill="#000000">Dimensions</text>
</a>
</g>
</g>
<!-- Node154&#45;&gt;Node155 -->
<g id="edge21" class="edge">
<title>Node154&#45;&gt;Node155</title>
<path fill="none" stroke="#191970" d="M560.6094,-459.7969C579.3692,-460.8201 599.9491,-461.9427 619.7003,-463.02"/>
<polygon fill="#191970" stroke="#191970" points="619.7635,-466.5286 629.9393,-463.5785 620.1448,-459.539 619.7635,-466.5286"/>
</g>
<!-- Node156 -->
<g id="node19" class="node">
<title>Node156</title>
<g id="a_node19"><a xlink:href="classUIManager.html#a0d32c5b63c4110ff8e43ab06c1c7d761" target="_top" xlink:title="Get the Layoutgroup container Returns the container, that holds LayoutGroups. ">
<polygon fill="none" stroke="#000000" points="844,-578.5 844,-597.5 1015,-597.5 1015,-578.5 844,-578.5"/>
<text text-anchor="middle" x="929.5" y="-585.5" font-family="Helvetica,sans-Serif" font-size="10.00" fill="#000000">UIManager::getAllLayoutGroups</text>
</a>
</g>
</g>
<!-- Node154&#45;&gt;Node156 -->
<g id="edge24" class="edge">
<title>Node154&#45;&gt;Node156</title>
<path fill="none" stroke="#191970" d="M497.6661,-465.566C514.223,-488.4181 559.8181,-545.99 614,-569 685.6745,-599.4387 774.8335,-601.9697 840.0685,-598.1798"/>
<polygon fill="#191970" stroke="#191970" points="840.5716,-601.6547 850.3266,-597.5205 840.1227,-594.6691 840.5716,-601.6547"/>
</g>
<!-- Node157 -->
<g id="node20" class="node">
<title>Node157</title>
<g id="a_node20"><a xlink:href="classLayout.html#a99004e4afcea6a945e3890b19cce6236" target="_top" xlink:title="Arrange Elements that are aligned to a parent This is a seperate function, so it can recurse if a par...">
<polygon fill="none" stroke="#000000" points="629,-540.5 629,-559.5 793,-559.5 793,-540.5 629,-540.5"/>
<text text-anchor="middle" x="711" y="-547.5" font-family="Helvetica,sans-Serif" font-size="10.00" fill="#000000">Layout::arrangeChildElements</text>
</a>
</g>
</g>
<!-- Node154&#45;&gt;Node157 -->
<g id="edge25" class="edge">
<title>Node154&#45;&gt;Node157</title>
<path fill="none" stroke="#191970" d="M513.3055,-465.5305C552.5893,-482.3154 634.2169,-517.1927 679.3266,-536.4668"/>
<polygon fill="#191970" stroke="#191970" points="678.0645,-539.7336 688.6355,-540.4443 680.8149,-533.2966 678.0645,-539.7336"/>
</g>
<!-- Node155&#45;&gt;Node144 -->
<g id="edge22" class="edge">
<title>Node155&#45;&gt;Node144</title>
<path fill="none" stroke="#191970" d="M768.9259,-452.9573C782.0371,-448.7685 795.7096,-443.7596 808,-438 842.089,-422.0251 877.8353,-397.7369 901.6564,-380.3104"/>
<polygon fill="#191970" stroke="#191970" points="903.915,-382.993 909.8679,-374.2286 899.7488,-377.3678 903.915,-382.993"/>
</g>
<!-- Node157&#45;&gt;Node144 -->
<g id="edge26" class="edge">
<title>Node157&#45;&gt;Node144</title>
<path fill="none" stroke="#191970" d="M746.4672,-540.4936C766.373,-536.8248 790.623,-530.8248 808,-517 835.6868,-494.9729 824.0685,-475.2316 844,-446 860.1369,-422.3335 881.5835,-398.268 898.96,-381.2861"/>
<polygon fill="#191970" stroke="#191970" points="901.7821,-383.4329 906.6236,-374.0089 896.962,-378.3567 901.7821,-383.4329"/>
</g>
<!-- Node157&#45;&gt;Node144 -->
<g id="edge27" class="edge">
<title>Node157&#45;&gt;Node144</title>
<path fill="none" stroke="#191970" d="M793.3817,-544.1879C798.5832,-541.6083 803.52,-538.5642 808,-535 835.6868,-512.9729 824.0685,-493.2316 844,-464 864.7566,-433.5583 894.2981,-402.4564 912.6627,-381.7915"/>
<polygon fill="#191970" stroke="#191970" points="915.4016,-383.976 919.3385,-374.1398 910.1269,-379.3741 915.4016,-383.976"/>
</g>
<!-- Node157&#45;&gt;Node156 -->
<g id="edge30" class="edge">
<title>Node157&#45;&gt;Node156</title>
<path fill="none" stroke="#191970" d="M765.8547,-559.54C795.8548,-564.7574 833.2019,-571.2525 864.64,-576.72"/>
<polygon fill="#191970" stroke="#191970" points="864.1708,-580.1909 874.6227,-578.4561 865.3703,-573.2944 864.1708,-580.1909"/>
</g>
<!-- Node158 -->
<g id="node21" class="node">
<title>Node158</title>
<g id="a_node21"><a xlink:href="classUIManager.html#aa5b6dbe1a9d5c50b588c55e9c9673f58" target="_top" xlink:title="Get the Ui Element By ID Finds and returns an UiElement by its elementID parameter. ">
<polygon fill="none" stroke="#000000" points="847,-502.5 847,-521.5 1012,-521.5 1012,-502.5 847,-502.5"/>
<text text-anchor="middle" x="929.5" y="-509.5" font-family="Helvetica,sans-Serif" font-size="10.00" fill="#000000">UIManager::getUiElementByID</text>
</a>
</g>
</g>
<!-- Node157&#45;&gt;Node158 -->
<g id="edge28" class="edge">
<title>Node157&#45;&gt;Node158</title>
<path fill="none" stroke="#191970" d="M765.8547,-540.46C795.8548,-535.2426 833.2019,-528.7475 864.64,-523.28"/>
<polygon fill="#191970" stroke="#191970" points="865.3703,-526.7056 874.6227,-521.5439 864.1708,-519.8091 865.3703,-526.7056"/>
</g>
<!-- Node159 -->
<g id="node22" class="node">
<title>Node159</title>
<g id="a_node22"><a xlink:href="classUIElement.html#a6451228b4c9bc058d69e4d4f2b03c719" target="_top" xlink:title="UIElement::getUiElementData">
<polygon fill="none" stroke="#000000" points="847.5,-464.5 847.5,-483.5 1011.5,-483.5 1011.5,-464.5 847.5,-464.5"/>
<text text-anchor="middle" x="929.5" y="-471.5" font-family="Helvetica,sans-Serif" font-size="10.00" fill="#000000">UIElement::getUiElementData</text>
</a>
</g>
</g>
<!-- Node157&#45;&gt;Node159 -->
<g id="edge29" class="edge">
<title>Node157&#45;&gt;Node159</title>
<path fill="none" stroke="#191970" d="M769.6861,-540.4672C782.762,-536.9998 796.2279,-532.3131 808,-526 827.1281,-515.742 824.7508,-503.0289 844,-493 848.5197,-490.6452 853.3214,-488.5814 858.2539,-486.7726"/>
<polygon fill="#191970" stroke="#191970" points="859.4631,-490.0593 867.8607,-483.5993 857.2675,-483.4125 859.4631,-490.0593"/>
</g>
<!-- Node160 -->
<g id="node23" class="node">
<title>Node160</title>
<g id="a_node23"><a xlink:href="classUIElement.html#ad1c0d7431b71bdd9a3704a6d5c8a4643" target="_top" xlink:title="Get the position and the size of this ui element Gets the position and the size of this ui element...">
<polygon fill="none" stroke="#000000" points="849,-540.5 849,-559.5 1010,-559.5 1010,-540.5 849,-540.5"/>
<text text-anchor="middle" x="929.5" y="-547.5" font-family="Helvetica,sans-Serif" font-size="10.00" fill="#000000">UIElement::getUiElementRect</text>
</a>
</g>
</g>
<!-- Node157&#45;&gt;Node160 -->
<g id="edge31" class="edge">
<title>Node157&#45;&gt;Node160</title>
<path fill="none" stroke="#191970" d="M793.2941,-550C808.0377,-550 823.4799,-550 838.4527,-550"/>
<polygon fill="#191970" stroke="#191970" points="838.7292,-553.5001 848.7292,-550 838.7291,-546.5001 838.7292,-553.5001"/>
</g>
<!-- Node161 -->
<g id="node24" class="node">
<title>Node161</title>
<g id="a_node24"><a xlink:href="classUIElement.html#aa7f624963eaeb31043d74219ee24386c" target="_top" xlink:title="Checks if the mouse cursor is over the current UI Element Check if the coordinates match the ones sto...">
<polygon fill="none" stroke="#000000" points="1087,-559.5 1087,-578.5 1224,-578.5 1224,-559.5 1087,-559.5"/>
<text text-anchor="middle" x="1155.5" y="-566.5" font-family="Helvetica,sans-Serif" font-size="10.00" fill="#000000">UIElement::isMouseOver</text>
</a>
</g>
</g>
<!-- Node160&#45;&gt;Node161 -->
<g id="edge32" class="edge">
<title>Node160&#45;&gt;Node161</title>
<path fill="none" stroke="#191970" d="M1010.134,-556.779C1031.802,-558.6006 1055.204,-560.568 1076.7673,-562.3809"/>
<polygon fill="#191970" stroke="#191970" points="1076.6016,-565.8792 1086.8597,-563.2294 1077.1881,-558.9038 1076.6016,-565.8792"/>
</g>
<!-- Node162 -->
<g id="node25" class="node">
<title>Node162</title>
<g id="a_node25"><a xlink:href="classUIElement.html#a570841bf8b7970ca935b1a00e571036a" target="_top" xlink:title="Handling for the hovering event Check, if the mouse cursor is hovering over the element. virtual function to provide custom handling if necessary (e.g. Combobox) Per default, it&#39;s the same implementation as isMouseOver. ">
<polygon fill="none" stroke="#000000" points="1051,-521.5 1051,-540.5 1260,-540.5 1260,-521.5 1051,-521.5"/>
<text text-anchor="middle" x="1155.5" y="-528.5" font-family="Helvetica,sans-Serif" font-size="10.00" fill="#000000">UIElement::isMouseOverHoverableArea</text>
</a>
</g>
</g>
<!-- Node160&#45;&gt;Node162 -->
<g id="edge33" class="edge">
<title>Node160&#45;&gt;Node162</title>
<path fill="none" stroke="#191970" d="M1010.134,-543.221C1020.0217,-542.3898 1030.2705,-541.5281 1040.5409,-540.6647"/>
<polygon fill="#191970" stroke="#191970" points="1041.1343,-544.1273 1050.8059,-539.8017 1040.5478,-537.1519 1041.1343,-544.1273"/>
</g>
<!-- Node163&#45;&gt;Node144 -->
<g id="edge36" class="edge">
<title>Node163&#45;&gt;Node144</title>
<path fill="none" stroke="#191970" d="M355.6576,-315.4604C359.9649,-317.342 364.1137,-319.5126 368,-322 390.7607,-336.5679 379.8893,-358.7956 404,-371 443.8961,-391.1947 730.4467,-368.1858 862.7999,-360.3013"/>
<polygon fill="#191970" stroke="#191970" points="863.0438,-363.7932 872.8231,-359.717 862.6363,-356.805 863.0438,-363.7932"/>
</g>
<!-- Node163&#45;&gt;Node144 -->
<g id="edge41" class="edge">
<title>Node163&#45;&gt;Node144</title>
<path fill="none" stroke="#191970" d="M312.2052,-321.5134C330.2263,-324.5796 351.483,-329.4284 368,-340 390.7607,-354.5679 379.8893,-376.7956 404,-389 443.8961,-409.1947 730.4467,-386.1858 862.7999,-370.2358"/>
<polygon fill="#191970" stroke="#191970" points="863.3245,-373.6978 872.8231,-369.0045 862.4709,-366.75 863.3245,-373.6978"/>
</g>
<!-- Node163&#45;&gt;Node150 -->
<g id="edge39" class="edge">
<title>Node163&#45;&gt;Node150</title>
<path fill="none" stroke="#191970" d="M355.7376,-312C374.9348,-312 395.3617,-312 414.369,-312"/>
<polygon fill="#191970" stroke="#191970" points="414.4644,-315.5001 424.4643,-312 414.4643,-308.5001 414.4644,-315.5001"/>
</g>
<!-- Node163&#45;&gt;Node154 -->
<g id="edge40" class="edge">
<title>Node163&#45;&gt;Node154</title>
<path fill="none" stroke="#191970" d="M353.5227,-321.5776C358.7419,-324.1162 363.6447,-327.2187 368,-331 403.9852,-362.2422 369.0918,-399.5588 404,-432 408.3381,-436.0315 413.2917,-439.3957 418.5844,-442.2018"/>
<polygon fill="#191970" stroke="#191970" points="417.215,-445.4243 427.7632,-446.4166 420.1361,-439.0629 417.215,-445.4243"/>
</g>
<!-- Node164 -->
<g id="node27" class="node">
<title>Node164</title>
<g id="a_node27"><a xlink:href="classWindowManager.html#a02ff8708c66cbb980399eb967a37a937" target="_top" xlink:title="WindowManager::setScreen\lResolution">
<polygon fill="none" stroke="#000000" points="415,-341 415,-371 567,-371 567,-341 415,-341"/>
<text text-anchor="start" x="423" y="-359" font-family="Helvetica,sans-Serif" font-size="10.00" fill="#000000">WindowManager::setScreen</text>
<text text-anchor="middle" x="491" y="-348" font-family="Helvetica,sans-Serif" font-size="10.00" fill="#000000">Resolution</text>
</a>
</g>
</g>
<!-- Node163&#45;&gt;Node164 -->
<g id="edge37" class="edge">
<title>Node163&#45;&gt;Node164</title>
<path fill="none" stroke="#191970" d="M321.8688,-321.5473C346.7307,-326.6118 378.037,-332.989 406.9358,-338.8758"/>
<polygon fill="#191970" stroke="#191970" points="406.5453,-342.3681 417.0428,-340.9346 407.9426,-335.5089 406.5453,-342.3681"/>
</g>
<!-- Node165 -->
<g id="node28" class="node">
<title>Node165</title>
<g id="a_node28"><a xlink:href="classMap.html#ab69938ac0e56eb0da1d1701221f3d185" target="_top" xlink:title="Refresh all the map tile textures. ">
<polygon fill="none" stroke="#000000" points="452.5,-76.5 452.5,-95.5 529.5,-95.5 529.5,-76.5 452.5,-76.5"/>
<text text-anchor="middle" x="491" y="-83.5" font-family="Helvetica,sans-Serif" font-size="10.00" fill="#000000">Map::refresh</text>
</a>
</g>
</g>
<!-- Node163&#45;&gt;Node165 -->
<g id="edge42" class="edge">
<title>Node163&#45;&gt;Node165</title>
<path fill="none" stroke="#191970" d="M291.5697,-302.3527C311.0848,-290.5342 343.893,-269.2032 368,-246 415.3556,-200.4197 459.3563,-135.7243 479.49,-104.404"/>
<polygon fill="#191970" stroke="#191970" points="482.5397,-106.1307 484.9495,-95.8135 476.6318,-102.3761 482.5397,-106.1307"/>
</g>
<!-- Node164&#45;&gt;Node144 -->
<g id="edge38" class="edge">
<title>Node164&#45;&gt;Node144</title>
<path fill="none" stroke="#191970" d="M567.2057,-341.6492C582.6394,-339.2964 598.7971,-337.2279 614,-336 699.9423,-329.0584 722.1547,-327.9462 808,-336 825.8678,-337.6763 845.0217,-340.7103 862.7167,-344.0365"/>
<polygon fill="#191970" stroke="#191970" points="862.4623,-347.5523 872.9459,-346.0207 863.7953,-340.6804 862.4623,-347.5523"/>
</g>
<!-- Node166 -->
<g id="node29" class="node">
<title>Node166</title>
<g id="a_node29"><a xlink:href="classMap.html#af654ddecf0d25b836d7c9c27ee5c2150" target="_top" xlink:title="Map::calculateVisibleMap">
<polygon fill="none" stroke="#000000" points="641,-76.5 641,-95.5 781,-95.5 781,-76.5 641,-76.5"/>
<text text-anchor="middle" x="711" y="-83.5" font-family="Helvetica,sans-Serif" font-size="10.00" fill="#000000">Map::calculateVisibleMap</text>
</a>
</g>
</g>
<!-- Node165&#45;&gt;Node166 -->
<g id="edge43" class="edge">
<title>Node165&#45;&gt;Node166</title>
<path fill="none" stroke="#191970" d="M529.5728,-86C557.5009,-86 596.2513,-86 630.7715,-86"/>
<polygon fill="#191970" stroke="#191970" points="630.8561,-89.5001 640.8561,-86 630.8561,-82.5001 630.8561,-89.5001"/>
</g>
<!-- Node169 -->
<g id="node32" class="node">
<title>Node169</title>
<g id="a_node32"><a xlink:href="classSprite.html#ababb7913a4d642b0d20a2c48c2a7e77a" target="_top" xlink:title="Sprite::refresh">
<polygon fill="none" stroke="#000000" points="668,-38.5 668,-57.5 754,-57.5 754,-38.5 668,-38.5"/>
<text text-anchor="middle" x="711" y="-45.5" font-family="Helvetica,sans-Serif" font-size="10.00" fill="#000000">Sprite::refresh</text>
</a>
</g>
</g>
<!-- Node165&#45;&gt;Node169 -->
<g id="edge47" class="edge">
<title>Node165&#45;&gt;Node169</title>
<path fill="none" stroke="#191970" d="M529.5728,-79.3374C565.1692,-73.189 618.3469,-64.0037 657.9383,-57.1652"/>
<polygon fill="#191970" stroke="#191970" points="658.6897,-60.5873 667.9481,-55.4362 657.4982,-53.6895 658.6897,-60.5873"/>
</g>
<!-- Node166&#45;&gt;Node144 -->
<g id="edge45" class="edge">
<title>Node166&#45;&gt;Node144</title>
<path fill="none" stroke="#191970" d="M781.2746,-95.5125C790.9154,-98.9849 800.1742,-103.6756 808,-110 881.1932,-169.1513 913.4756,-283.3217 924.6291,-333.8683"/>
<polygon fill="#191970" stroke="#191970" points="921.261,-334.8588 926.7509,-343.9204 928.1101,-333.4131 921.261,-334.8588"/>
</g>
<!-- Node167 -->
<g id="node30" class="node">
<title>Node167</title>
<g id="a_node30"><a xlink:href="isoMath_8cxx.html#a0a076d973bc64ffa7859b894793c8000" target="_top" xlink:title="Calculates screen space coordinates to isometric space coordinates. A formula is used to calculate th...">
<polygon fill="none" stroke="#000000" points="862.5,-114.5 862.5,-133.5 996.5,-133.5 996.5,-114.5 862.5,-114.5"/>
<text text-anchor="middle" x="929.5" y="-121.5" font-family="Helvetica,sans-Serif" font-size="10.00" fill="#000000">calculateIsoCoordinates</text>
</a>
</g>
</g>
<!-- Node166&#45;&gt;Node167 -->
<g id="edge44" class="edge">
<title>Node166&#45;&gt;Node167</title>
<path fill="none" stroke="#191970" d="M765.8547,-95.54C795.8548,-100.7574 833.2019,-107.2525 864.64,-112.72"/>
<polygon fill="#191970" stroke="#191970" points="864.1708,-116.1909 874.6227,-114.4561 865.3703,-109.2944 864.1708,-116.1909"/>
</g>
<!-- Node168 -->
<g id="node31" class="node">
<title>Node168</title>
<g id="a_node31"><a xlink:href="classMap.html#a1676db3d125b2c1764adfcb64d6332a2" target="_top" xlink:title="Map::nodeIdx">
<polygon fill="none" stroke="#000000" points="888.5,-76.5 888.5,-95.5 970.5,-95.5 970.5,-76.5 888.5,-76.5"/>
<text text-anchor="middle" x="929.5" y="-83.5" font-family="Helvetica,sans-Serif" font-size="10.00" fill="#000000">Map::nodeIdx</text>
</a>
</g>
</g>
<!-- Node166&#45;&gt;Node168 -->
<g id="edge46" class="edge">
<title>Node166&#45;&gt;Node168</title>
<path fill="none" stroke="#191970" d="M781.0364,-86C812.6093,-86 849.2202,-86 878.1858,-86"/>
<polygon fill="#191970" stroke="#191970" points="878.488,-89.5001 888.488,-86 878.488,-82.5001 878.488,-89.5001"/>
</g>
<!-- Node170 -->
<g id="node33" class="node">
<title>Node170</title>
<g id="a_node33"><a xlink:href="isoMath_8cxx.html#a229d5dd54cd4e1f43ed5911e4fd266d3" target="_top" xlink:title="converts coordinates from isometric to screen space The given isometric coordinates (which contain he...">
<polygon fill="none" stroke="#000000" points="844.5,-38.5 844.5,-57.5 1014.5,-57.5 1014.5,-38.5 844.5,-38.5"/>
<text text-anchor="middle" x="929.5" y="-45.5" font-family="Helvetica,sans-Serif" font-size="10.00" fill="#000000">convertIsoToScreenCoordinates</text>
</a>
</g>
</g>
<!-- Node169&#45;&gt;Node170 -->
<g id="edge48" class="edge">
<title>Node169&#45;&gt;Node170</title>
<path fill="none" stroke="#191970" d="M754.1686,-48C777.0974,-48 806.2466,-48 834.1637,-48"/>
<polygon fill="#191970" stroke="#191970" points="834.3795,-51.5001 844.3794,-48 834.3794,-44.5001 834.3795,-51.5001"/>
</g>
<!-- Node171&#45;&gt;Node144 -->
<g id="edge50" class="edge">
<title>Node171&#45;&gt;Node144</title>
<path fill="none" stroke="#191970" d="M307.1472,-217.4944C392.4802,-200.3191 630.3175,-174.9868 808,-246 854.065,-264.4105 895.0113,-307.779 915.5466,-335.361"/>
<polygon fill="#191970" stroke="#191970" points="912.8327,-337.5843 921.4773,-343.7098 918.5394,-333.5304 912.8327,-337.5843"/>
</g>
<!-- Node171&#45;&gt;Node144 -->
<g id="edge55" class="edge">
<title>Node171&#45;&gt;Node144</title>
<path fill="none" stroke="#191970" d="M368.4237,-220.7024C477.9765,-212.2584 663.0145,-206.0546 808,-264 847.3796,-279.7386 883.0184,-313.7165 905.3627,-336.6564"/>
<polygon fill="#191970" stroke="#191970" points="902.9556,-339.2024 912.4169,-343.9705 907.9941,-334.343 902.9556,-339.2024"/>
</g>
<!-- Node171&#45;&gt;Node150 -->
<g id="edge53" class="edge">
<title>Node171&#45;&gt;Node150</title>
<path fill="none" stroke="#191970" d="M299.3581,-236.5854C338.0282,-251.8028 413.5611,-281.5264 457.3661,-298.7644"/>
<polygon fill="#191970" stroke="#191970" points="456.1438,-302.0447 466.7309,-302.4497 458.7072,-295.5309 456.1438,-302.0447"/>
</g>
<!-- Node171&#45;&gt;Node154 -->
<g id="edge54" class="edge">
<title>Node171&#45;&gt;Node154</title>
<path fill="none" stroke="#191970" d="M294.5586,-236.6077C315.2862,-247.6643 347.7613,-267.6097 368,-293 394.0833,-325.7226 379.5987,-346.0046 404,-380 421.6463,-404.5846 448.7154,-426.5913 467.9689,-440.5181"/>
<polygon fill="#191970" stroke="#191970" points="466.0146,-443.4227 476.2031,-446.3286 470.0505,-437.7033 466.0146,-443.4227"/>
</g>
<!-- Node171&#45;&gt;Node165 -->
<g id="edge56" class="edge">
<title>Node171&#45;&gt;Node165</title>
<path fill="none" stroke="#191970" d="M289.8466,-217.3085C326.8522,-193.152 423.4032,-130.1257 467.9133,-101.0705"/>
<polygon fill="#191970" stroke="#191970" points="469.8746,-103.97 476.3352,-95.5729 466.0482,-98.1083 469.8746,-103.97"/>
</g>
<!-- Node172 -->
<g id="node35" class="node">
<title>Node172</title>
<g id="a_node35"><a xlink:href="classWindowManager.html#a92e1efc564e88b5d92ef674c2577997f" target="_top" xlink:title="sets the game&#39;s window mode Changes the game&#39;s window mode to fullscreen, borderless, or windowed ">
<polygon fill="none" stroke="#000000" points="614,-170.5 614,-189.5 808,-189.5 808,-170.5 614,-170.5"/>
<text text-anchor="middle" x="711" y="-177.5" font-family="Helvetica,sans-Serif" font-size="10.00" fill="#000000">WindowManager::setFullScreenMode</text>
</a>
</g>
</g>
<!-- Node171&#45;&gt;Node172 -->
<g id="edge51" class="edge">
<title>Node171&#45;&gt;Node172</title>
<path fill="none" stroke="#191970" d="M322.0069,-217.4715C346.3839,-212.822 376.6962,-207.4927 404,-204 470.1704,-195.5355 544.7729,-189.6206 603.8664,-185.7809"/>
<polygon fill="#191970" stroke="#191970" points="604.2057,-189.2664 613.9619,-185.1352 603.7589,-182.2807 604.2057,-189.2664"/>
</g>
<!-- Node172&#45;&gt;Node144 -->
<g id="edge52" class="edge">
<title>Node172&#45;&gt;Node144</title>
<path fill="none" stroke="#191970" d="M775.3336,-189.5278C786.7777,-192.9639 798.1684,-197.639 808,-204 859.6932,-237.4453 898.7792,-300.5293 917.4174,-335.0085"/>
<polygon fill="#191970" stroke="#191970" points="914.3617,-336.7173 922.1256,-343.9265 920.5519,-333.4492 914.3617,-336.7173"/>
</g>
</g>
</svg>
