<?xml version="1.0" encoding="UTF-8" standalone="no"?>
<!DOCTYPE svg PUBLIC "-//W3C//DTD SVG 1.1//EN"
 "http://www.w3.org/Graphics/SVG/1.1/DTD/svg11.dtd">
<!-- Generated by graphviz version 2.40.1 (20161225.0304)
 -->
<!-- Title: MapLayers::deactivateAllLayers Pages: 1 -->
<!--zoomable 268 -->
<svg id="main" version="1.1" xmlns="http://www.w3.org/2000/svg" xmlns:xlink="http://www.w3.org/1999/xlink" xml:space="preserve" onload="init(evt)">
<style type="text/css"><![CDATA[
.edge:hover path { stroke: red; }
.edge:hover polygon { stroke: red; fill: red; }
]]></style>
<script type="text/javascript"><![CDATA[
var edges = document.getElementsByTagName('g');
if (edges && edges.length) {
  for (var i=0;i<edges.length;i++) {
    if (edges[i].id.substr(0,4)=='edge') {
      edges[i].setAttribute('class','edge');
    }
  }
}
]]></script>
        <defs>
                <circle id="rim" cx="0" cy="0" r="7"/>
                <circle id="rim2" cx="0" cy="0" r="3.5"/>
                <g id="zoomPlus">
                        <use xlink:href="#rim" fill="#404040">
                                <set attributeName="fill" to="#808080" begin="zoomplus.mouseover" end="zoomplus.mouseout"/>
                        </use>
                        <path d="M-4,0h8M0,-4v8" fill="none" stroke="white" stroke-width="1.5" pointer-events="none"/>
                </g>
                <g id="zoomMin">
                        <use xlink:href="#rim" fill="#404040">
                                <set attributeName="fill" to="#808080" begin="zoomminus.mouseover" end="zoomminus.mouseout"/>
                        </use>
                        <path d="M-4,0h8" fill="none" stroke="white" stroke-width="1.5" pointer-events="none"/>
                </g>
                <g id="dirArrow">
                        <path fill="none" stroke="white" stroke-width="1.5" d="M0,-3.0v7 M-2.5,-0.5L0,-3.0L2.5,-0.5"/>
                </g>
               <g id="resetDef">
                       <use xlink:href="#rim2" fill="#404040">
                               <set attributeName="fill" to="#808080" begin="reset.mouseover" end="reset.mouseout"/>
                       </use>
               </g>
        </defs>

<script type="text/javascript">
var viewWidth = 1677;
var viewHeight = 268;
var sectionId = 'dynsection-4';
</script>
<script xlink:href="svgpan.js"/>
<svg id="graph" class="graph">
<g id="viewport">
<title>MapLayers::deactivateAllLayers</title>
<!-- Node40 -->
<g id="node1" class="node">
<title>Node40</title>
<polygon fill="#bfbfbf" stroke="#000000" points="0,-90 0,-120 140,-120 140,-90 0,-90"/>
<text text-anchor="start" x="8" y="-108" font-family="Helvetica,sans-Serif" font-size="10.00" fill="#000000">MapLayers::deactivateAll</text>
<text text-anchor="middle" x="70" y="-97" font-family="Helvetica,sans-Serif" font-size="10.00" fill="#000000">Layers</text>
</g>
<!-- Node41 -->
<g id="node2" class="node">
<title>Node41</title>
<g id="a_node2"><a xlink:href="classMapLayers.html#ab663dfc9e4c144f904ad85543b66ac8f" target="_top" xlink:title="Toggle Drawing Layer Toggle Drawing Layer (use bitwise XOR to toggle layer) ">
<polygon fill="none" stroke="#000000" points="176,-95.5 176,-114.5 338,-114.5 338,-95.5 176,-95.5"/>
<text text-anchor="middle" x="257" y="-102.5" font-family="Helvetica,sans-Serif" font-size="10.00" fill="#000000">MapLayers::setLayerEditMode</text>
</a>
</g>
</g>
<!-- Node40&#45;&gt;Node41 -->
<g id="edge1" class="edge">
<title>Node40&#45;&gt;Node41</title>
<path fill="none" stroke="#191970" d="M150.3393,-105C158.7557,-105 167.3173,-105 175.744,-105"/>
<polygon fill="#191970" stroke="#191970" points="150.164,-101.5001 140.1639,-105 150.1639,-108.5001 150.164,-101.5001"/>
</g>
<!-- Node42 -->
<g id="node3" class="node">
<title>Node42</title>
<g id="a_node3"><a xlink:href="classMapLayers.html#a1d810628821913c499b8348107b66891" target="_top" xlink:title="Check if given Layer is being drawn. ">
<polygon fill="none" stroke="#000000" points="392.5,-114.5 392.5,-133.5 533.5,-133.5 533.5,-114.5 392.5,-114.5"/>
<text text-anchor="middle" x="463" y="-121.5" font-family="Helvetica,sans-Serif" font-size="10.00" fill="#000000">MapLayers::isLayerActive</text>
</a>
</g>
</g>
<!-- Node41&#45;&gt;Node42 -->
<g id="edge2" class="edge">
<title>Node41&#45;&gt;Node42</title>
<path fill="none" stroke="#191970" d="M348.2731,-113.4184C363.0344,-114.7799 378.1213,-116.1714 392.2996,-117.4791"/>
<polygon fill="#191970" stroke="#191970" points="348.4002,-109.9153 338.1209,-112.482 347.7572,-116.8858 348.4002,-109.9153"/>
</g>
<!-- Node59 -->
<g id="node20" class="node">
<title>Node59</title>
<g id="a_node20"><a xlink:href="classUIManager.html#aa78e356fc3b356d790c848319d1c387e" target="_top" xlink:title="UIManager::setCallbackFunctions">
<polygon fill="none" stroke="#000000" points="374,-76.5 374,-95.5 552,-95.5 552,-76.5 374,-76.5"/>
<text text-anchor="middle" x="463" y="-83.5" font-family="Helvetica,sans-Serif" font-size="10.00" fill="#000000">UIManager::setCallbackFunctions</text>
</a>
</g>
</g>
<!-- Node41&#45;&gt;Node59 -->
<g id="edge22" class="edge">
<title>Node41&#45;&gt;Node59</title>
<path fill="none" stroke="#191970" d="M348.0803,-96.5994C356.6198,-95.8118 365.2701,-95.0139 373.7921,-94.2279"/>
<polygon fill="#191970" stroke="#191970" points="347.7572,-93.1142 338.1209,-97.518 348.4002,-100.0847 347.7572,-93.1142"/>
</g>
<!-- Node43 -->
<g id="node4" class="node">
<title>Node43</title>
<g id="a_node4"><a xlink:href="classMapNode.html#ac307762dc7ad609974c6b13774c3c00d" target="_top" xlink:title="return topmost active layer. check layers in order of significance for the topmost active layer that ...">
<polygon fill="none" stroke="#000000" points="588,-229 588,-259 743,-259 743,-229 588,-229"/>
<text text-anchor="start" x="596" y="-247" font-family="Helvetica,sans-Serif" font-size="10.00" fill="#000000">MapNode::getTopMostActive</text>
<text text-anchor="middle" x="665.5" y="-236" font-family="Helvetica,sans-Serif" font-size="10.00" fill="#000000">Layer</text>
</a>
</g>
</g>
<!-- Node42&#45;&gt;Node43 -->
<g id="edge3" class="edge">
<title>Node42&#45;&gt;Node43</title>
<path fill="none" stroke="#191970" d="M480.803,-140.6828C503.9137,-161.5597 546.247,-197.2122 588,-219 595.1442,-222.728 602.9492,-226.0353 610.7664,-228.9244"/>
<polygon fill="#191970" stroke="#191970" points="482.9327,-137.8872 473.1949,-133.7129 478.2042,-143.0487 482.9327,-137.8872"/>
</g>
<!-- Node50 -->
<g id="node11" class="node">
<title>Node50</title>
<g id="a_node11"><a xlink:href="classMapNode.html#a002b868485074599fbf087fc4c96b2c9" target="_top" xlink:title="Demolish a node Removes all tiles on a node. This effects all layers where something to demolish is p...">
<polygon fill="none" stroke="#000000" points="596,-190.5 596,-209.5 735,-209.5 735,-190.5 596,-190.5"/>
<text text-anchor="middle" x="665.5" y="-197.5" font-family="Helvetica,sans-Serif" font-size="10.00" fill="#000000">MapNode::demolishNode</text>
</a>
</g>
</g>
<!-- Node42&#45;&gt;Node50 -->
<g id="edge10" class="edge">
<title>Node42&#45;&gt;Node50</title>
<path fill="none" stroke="#191970" d="M490.3829,-138.2948C515.3079,-150.8663 553.3885,-168.9849 588,-181 598.3389,-184.5891 609.6771,-187.7724 620.4132,-190.4586"/>
<polygon fill="#191970" stroke="#191970" points="491.6902,-135.0327 481.1914,-133.609 488.5108,-141.269 491.6902,-135.0327"/>
</g>
<!-- Node51 -->
<g id="node12" class="node">
<title>Node51</title>
<g id="a_node12"><a xlink:href="classMap.html#a352929ea8cc2efc4f415c7ec795e1538" target="_top" xlink:title="Map::isClickWithinTile">
<polygon fill="none" stroke="#000000" points="603,-152.5 603,-171.5 728,-171.5 728,-152.5 603,-152.5"/>
<text text-anchor="middle" x="665.5" y="-159.5" font-family="Helvetica,sans-Serif" font-size="10.00" fill="#000000">Map::isClickWithinTile</text>
</a>
</g>
</g>
<!-- Node42&#45;&gt;Node51 -->
<g id="edge11" class="edge">
<title>Node42&#45;&gt;Node51</title>
<path fill="none" stroke="#191970" d="M523.8466,-135.4181C552.8207,-140.8552 587.0752,-147.2832 614.6412,-152.4561"/>
<polygon fill="#191970" stroke="#191970" points="524.3119,-131.9444 513.8379,-133.54 523.0208,-138.8243 524.3119,-131.9444"/>
</g>
<!-- Node54 -->
<g id="node15" class="node">
<title>Node54</title>
<g id="a_node15"><a xlink:href="classSprite.html#abdf111e2030274680af0f00f296d8605" target="_top" xlink:title="Sprite::render">
<polygon fill="none" stroke="#000000" points="829.5,-114.5 829.5,-133.5 912.5,-133.5 912.5,-114.5 829.5,-114.5"/>
<text text-anchor="middle" x="871" y="-121.5" font-family="Helvetica,sans-Serif" font-size="10.00" fill="#000000">Sprite::render</text>
</a>
</g>
</g>
<!-- Node42&#45;&gt;Node54 -->
<g id="edge16" class="edge">
<title>Node42&#45;&gt;Node54</title>
<path fill="none" stroke="#191970" d="M543.8446,-124C629.7875,-124 762.3357,-124 829.2706,-124"/>
<polygon fill="#191970" stroke="#191970" points="543.6024,-120.5001 533.6024,-124 543.6024,-127.5001 543.6024,-120.5001"/>
</g>
<!-- Node56 -->
<g id="node17" class="node">
<title>Node56</title>
<g id="a_node17"><a xlink:href="classSprite.html#a87428873289f8ec84f4b75d9162c9d7c" target="_top" xlink:title="Sprite::getActiveClipRect">
<polygon fill="none" stroke="#000000" points="597,-76.5 597,-95.5 734,-95.5 734,-76.5 597,-76.5"/>
<text text-anchor="middle" x="665.5" y="-83.5" font-family="Helvetica,sans-Serif" font-size="10.00" fill="#000000">Sprite::getActiveClipRect</text>
</a>
</g>
</g>
<!-- Node42&#45;&gt;Node56 -->
<g id="edge19" class="edge">
<title>Node42&#45;&gt;Node56</title>
<path fill="none" stroke="#191970" d="M523.8466,-112.5819C552.8207,-107.1448 587.0752,-100.7168 614.6412,-95.5439"/>
<polygon fill="#191970" stroke="#191970" points="523.0208,-109.1757 513.8379,-114.46 524.3119,-116.0556 523.0208,-109.1757"/>
</g>
<!-- Node57 -->
<g id="node18" class="node">
<title>Node57</title>
<g id="a_node18"><a xlink:href="classSprite.html#a7376c698bf914312fbcc7c2b8180cbed" target="_top" xlink:title="Sprite::isLayerUsed">
<polygon fill="none" stroke="#000000" points="610,-38.5 610,-57.5 721,-57.5 721,-38.5 610,-38.5"/>
<text text-anchor="middle" x="665.5" y="-45.5" font-family="Helvetica,sans-Serif" font-size="10.00" fill="#000000">Sprite::isLayerUsed</text>
</a>
</g>
</g>
<!-- Node42&#45;&gt;Node57 -->
<g id="edge20" class="edge">
<title>Node42&#45;&gt;Node57</title>
<path fill="none" stroke="#191970" d="M539.4496,-110.9483C543.7991,-109.2075 548.0172,-107.235 552,-105 572.2883,-93.615 567.8853,-78.689 588,-67 594.7075,-63.1021 602.189,-60.0004 609.7849,-57.533"/>
<polygon fill="#191970" stroke="#191970" points="538.0036,-107.7479 529.7582,-114.4011 540.3529,-114.3419 538.0036,-107.7479"/>
</g>
<!-- Node58 -->
<g id="node19" class="node">
<title>Node58</title>
<g id="a_node19"><a xlink:href="classSprite.html#aedfac1c3b8a22c5ae4d97bd9586a6a26" target="_top" xlink:title="Sprite::getActiveDestRect">
<polygon fill="none" stroke="#000000" points="595,-.5 595,-19.5 736,-19.5 736,-.5 595,-.5"/>
<text text-anchor="middle" x="665.5" y="-7.5" font-family="Helvetica,sans-Serif" font-size="10.00" fill="#000000">Sprite::getActiveDestRect</text>
</a>
</g>
</g>
<!-- Node42&#45;&gt;Node58 -->
<g id="edge21" class="edge">
<title>Node42&#45;&gt;Node58</title>
<path fill="none" stroke="#191970" d="M543.0223,-110.9635C546.1772,-109.2034 549.189,-107.2242 552,-105 581.3104,-81.8086 559.0419,-52.6298 588,-29 592.7227,-25.1463 598.1114,-22.056 603.7976,-19.5806"/>
<polygon fill="#191970" stroke="#191970" points="541.3171,-107.8991 533.8002,-115.3655 544.3325,-114.2163 541.3171,-107.8991"/>
</g>
<!-- Node44 -->
<g id="node5" class="node">
<title>Node44</title>
<g id="a_node5"><a xlink:href="classMapNode.html#a0b089ef93b46bbfed8ccf71dc516c4ef" target="_top" xlink:title="MapNode::getActiveMapNodeData">
<polygon fill="none" stroke="#000000" points="779,-232.5 779,-251.5 963,-251.5 963,-232.5 779,-232.5"/>
<text text-anchor="middle" x="871" y="-239.5" font-family="Helvetica,sans-Serif" font-size="10.00" fill="#000000">MapNode::getActiveMapNodeData</text>
</a>
</g>
</g>
<!-- Node43&#45;&gt;Node44 -->
<g id="edge4" class="edge">
<title>Node43&#45;&gt;Node44</title>
<path fill="none" stroke="#191970" d="M753.3425,-243.1451C761.7329,-243.0634 770.2587,-242.9805 778.6899,-242.8984"/>
<polygon fill="#191970" stroke="#191970" points="753.1562,-239.6466 743.1907,-243.2439 753.2244,-246.6463 753.1562,-239.6466"/>
</g>
<!-- Node45 -->
<g id="node6" class="node">
<title>Node45</title>
<g id="a_node6"><a xlink:href="classMap.html#a0241b997090783e5d13667114731a592" target="_top" xlink:title="Debug MapNodeData to Console Used as Tile&#45;Inspector until we implement a GUI variant. ">
<polygon fill="none" stroke="#000000" points="1013.5,-231.5 1013.5,-250.5 1154.5,-250.5 1154.5,-231.5 1013.5,-231.5"/>
<text text-anchor="middle" x="1084" y="-238.5" font-family="Helvetica,sans-Serif" font-size="10.00" fill="#000000">Map::getNodeInformation</text>
</a>
</g>
</g>
<!-- Node44&#45;&gt;Node45 -->
<g id="edge5" class="edge">
<title>Node44&#45;&gt;Node45</title>
<path fill="none" stroke="#191970" d="M973.44,-241.5191C986.8896,-241.4559 1000.4257,-241.3924 1013.1885,-241.3324"/>
<polygon fill="#191970" stroke="#191970" points="973.1695,-238.0202 963.1861,-241.5672 973.2024,-245.0201 973.1695,-238.0202"/>
</g>
<!-- Node46 -->
<g id="node7" class="node">
<title>Node46</title>
<g id="a_node7"><a xlink:href="classEventManager.html#a65ec91fd5016d4f9c4167fb8babed2df" target="_top" xlink:title="EventManager::checkEvents">
<polygon fill="none" stroke="#000000" points="1205,-171.5 1205,-190.5 1359,-190.5 1359,-171.5 1205,-171.5"/>
<text text-anchor="middle" x="1282" y="-178.5" font-family="Helvetica,sans-Serif" font-size="10.00" fill="#000000">EventManager::checkEvents</text>
</a>
</g>
</g>
<!-- Node45&#45;&gt;Node46 -->
<g id="edge6" class="edge">
<title>Node45&#45;&gt;Node46</title>
<path fill="none" stroke="#191970" d="M1125.4073,-228.4523C1162.6573,-217.1644 1216.5852,-200.8227 1250.4459,-190.5618"/>
<polygon fill="#191970" stroke="#191970" points="1123.9289,-225.2431 1115.3737,-231.4928 1125.959,-231.9423 1123.9289,-225.2431"/>
</g>
<!-- Node47 -->
<g id="node8" class="node">
<title>Node47</title>
<g id="a_node8"><a xlink:href="classGame.html#a1c2ab25d5216b2f4b2fe41efd2c09114" target="_top" xlink:title="begins the game starts running the game ">
<polygon fill="none" stroke="#000000" points="1395,-152.5 1395,-171.5 1463,-171.5 1463,-152.5 1395,-152.5"/>
<text text-anchor="middle" x="1429" y="-159.5" font-family="Helvetica,sans-Serif" font-size="10.00" fill="#000000">Game::run</text>
</a>
</g>
</g>
<!-- Node46&#45;&gt;Node47 -->
<g id="edge7" class="edge">
<title>Node46&#45;&gt;Node47</title>
<path fill="none" stroke="#191970" d="M1366.0861,-170.1317C1376.1799,-168.8271 1386.0017,-167.5576 1394.7683,-166.4245"/>
<polygon fill="#191970" stroke="#191970" points="1365.3995,-166.6913 1355.9307,-171.4443 1366.2968,-173.6335 1365.3995,-166.6913"/>
</g>
<!-- Node48 -->
<g id="node9" class="node">
<title>Node48</title>
<g id="a_node9"><a xlink:href="main_8cxx.html#af582d708d899e67ead623eac34a22387" target="_top" xlink:title="protected_main">
<polygon fill="none" stroke="#000000" points="1499,-152.5 1499,-171.5 1592,-171.5 1592,-152.5 1499,-152.5"/>
<text text-anchor="middle" x="1545.5" y="-159.5" font-family="Helvetica,sans-Serif" font-size="10.00" fill="#000000">protected_main</text>
</a>
</g>
</g>
<!-- Node47&#45;&gt;Node48 -->
<g id="edge8" class="edge">
<title>Node47&#45;&gt;Node48</title>
<path fill="none" stroke="#191970" d="M1473.2653,-162C1481.5757,-162 1490.2897,-162 1498.6749,-162"/>
<polygon fill="#191970" stroke="#191970" points="1473.0098,-158.5001 1463.0098,-162 1473.0098,-165.5001 1473.0098,-158.5001"/>
</g>
<!-- Node49 -->
<g id="node10" class="node">
<title>Node49</title>
<g id="a_node10"><a xlink:href="main_8cxx.html#a3c04138a5bfe5d72780bb7e82a18e627" target="_top" xlink:title="main">
<polygon fill="none" stroke="#000000" points="1628,-152.5 1628,-171.5 1669,-171.5 1669,-152.5 1628,-152.5"/>
<text text-anchor="middle" x="1648.5" y="-159.5" font-family="Helvetica,sans-Serif" font-size="10.00" fill="#000000">main</text>
</a>
</g>
</g>
<!-- Node48&#45;&gt;Node49 -->
<g id="edge9" class="edge">
<title>Node48&#45;&gt;Node49</title>
<path fill="none" stroke="#191970" d="M1602.2133,-162C1611.4322,-162 1620.4259,-162 1627.9965,-162"/>
<polygon fill="#191970" stroke="#191970" points="1602.1782,-158.5001 1592.1782,-162 1602.1781,-165.5001 1602.1782,-158.5001"/>
</g>
<!-- Node52 -->
<g id="node13" class="node">
<title>Node52</title>
<g id="a_node13"><a xlink:href="classMap.html#a64e71e521c539cf28828be9978c34889" target="_top" xlink:title="Returns the node at given screencoordinates. ">
<polygon fill="none" stroke="#000000" points="813,-152.5 813,-171.5 929,-171.5 929,-152.5 813,-152.5"/>
<text text-anchor="middle" x="871" y="-159.5" font-family="Helvetica,sans-Serif" font-size="10.00" fill="#000000">Map::findNodeInMap</text>
</a>
</g>
</g>
<!-- Node51&#45;&gt;Node52 -->
<g id="edge12" class="edge">
<title>Node51&#45;&gt;Node52</title>
<path fill="none" stroke="#191970" d="M738.5506,-162C762.921,-162 789.73,-162 812.816,-162"/>
<polygon fill="#191970" stroke="#191970" points="738.2734,-158.5001 728.2734,-162 738.2734,-165.5001 738.2734,-158.5001"/>
</g>
<!-- Node52&#45;&gt;Node46 -->
<g id="edge15" class="edge">
<title>Node52&#45;&gt;Node46</title>
<path fill="none" stroke="#191970" d="M933.1321,-173.1026C953.9925,-176.3276 977.4354,-179.4082 999,-181 1068.4556,-186.1268 1147.7611,-185.5761 1204.7138,-184.0634"/>
<polygon fill="#191970" stroke="#191970" points="933.5434,-169.6242 923.1184,-171.5138 932.4464,-176.5377 933.5434,-169.6242"/>
</g>
<!-- Node53 -->
<g id="node14" class="node">
<title>Node53</title>
<g id="a_node14"><a xlink:href="isoMath_8hxx.html#ad3c5f070c4a876bc6e8978635d02ce52" target="_top" xlink:title="converts screen space coordinates to isometric space coordinates. To convert screen coordinates in to...">
<polygon fill="none" stroke="#000000" points="999,-152.5 999,-171.5 1169,-171.5 1169,-152.5 999,-152.5"/>
<text text-anchor="middle" x="1084" y="-159.5" font-family="Helvetica,sans-Serif" font-size="10.00" fill="#000000">convertScreenToIsoCoordinates</text>
</a>
</g>
</g>
<!-- Node52&#45;&gt;Node53 -->
<g id="edge13" class="edge">
<title>Node52&#45;&gt;Node53</title>
<path fill="none" stroke="#191970" d="M939.2123,-162C958.1416,-162 978.9326,-162 998.707,-162"/>
<polygon fill="#191970" stroke="#191970" points="939.2032,-158.5001 929.2032,-162 939.2032,-165.5001 939.2032,-158.5001"/>
</g>
<!-- Node53&#45;&gt;Node46 -->
<g id="edge14" class="edge">
<title>Node53&#45;&gt;Node46</title>
<path fill="none" stroke="#191970" d="M1179.161,-171.1316C1187.7436,-171.9552 1196.3647,-172.7825 1204.7658,-173.5886"/>
<polygon fill="#191970" stroke="#191970" points="1179.4075,-167.6393 1169.1189,-170.168 1178.7388,-174.6073 1179.4075,-167.6393"/>
</g>
<!-- Node55 -->
<g id="node16" class="node">
<title>Node55</title>
<g id="a_node16"><a xlink:href="classMap.html#a8ffaf087a7bf669a890301a1efad6976" target="_top" xlink:title="Map::renderMap">
<polygon fill="none" stroke="#000000" points="1234.5,-133.5 1234.5,-152.5 1329.5,-152.5 1329.5,-133.5 1234.5,-133.5"/>
<text text-anchor="middle" x="1282" y="-140.5" font-family="Helvetica,sans-Serif" font-size="10.00" fill="#000000">Map::renderMap</text>
</a>
</g>
</g>
<!-- Node54&#45;&gt;Node55 -->
<g id="edge17" class="edge">
<title>Node54&#45;&gt;Node55</title>
<path fill="none" stroke="#191970" d="M923.0421,-126.4058C1003.4088,-130.1211 1156.5396,-137.2001 1234.2338,-140.7918"/>
<polygon fill="#191970" stroke="#191970" points="922.8217,-122.892 912.6707,-125.9264 922.4983,-129.8845 922.8217,-122.892"/>
</g>
<!-- Node55&#45;&gt;Node47 -->
<g id="edge18" class="edge">
<title>Node55&#45;&gt;Node47</title>
<path fill="none" stroke="#191970" d="M1339.8361,-150.4754C1358.3476,-152.8681 1378.2493,-155.4404 1394.5437,-157.5465"/>
<polygon fill="#191970" stroke="#191970" points="1340.0929,-146.9796 1329.7267,-149.1688 1339.1955,-153.9218 1340.0929,-146.9796"/>
</g>
</g>
</svg>
        <g id="navigator" transform="translate(0 0)" fill="#404254">
                <rect fill="#f2f5e9" fill-opacity="0.5" stroke="#606060" stroke-width=".5" x="0" y="0" width="60" height="60"/>
                <use id="zoomplus" xlink:href="#zoomPlus" x="17" y="9" onmousedown="handleZoom(evt,'in')"/>
                <use id="zoomminus" xlink:href="#zoomMin" x="42" y="9" onmousedown="handleZoom(evt,'out')"/>
                <use id="reset" xlink:href="#resetDef" x="30" y="36" onmousedown="handleReset()"/>
                <g id="arrowUp" xlink:href="#dirArrow" transform="translate(30 24)" onmousedown="handlePan(0,-1)">
                  <use xlink:href="#rim" fill="#404040">
                        <set attributeName="fill" to="#808080" begin="arrowUp.mouseover" end="arrowUp.mouseout"/>
                  </use>
                  <path fill="none" stroke="white" stroke-width="1.5" d="M0,-3.0v7 M-2.5,-0.5L0,-3.0L2.5,-0.5"/>
                </g>
                <g id="arrowRight" xlink:href="#dirArrow" transform="rotate(90) translate(36 -43)" onmousedown="handlePan(1,0)">
                  <use xlink:href="#rim" fill="#404040">
                        <set attributeName="fill" to="#808080" begin="arrowRight.mouseover" end="arrowRight.mouseout"/>
                  </use>
                  <path fill="none" stroke="white" stroke-width="1.5" d="M0,-3.0v7 M-2.5,-0.5L0,-3.0L2.5,-0.5"/>
                </g>
                <g id="arrowDown" xlink:href="#dirArrow" transform="rotate(180) translate(-30 -48)" onmousedown="handlePan(0,1)">
                  <use xlink:href="#rim" fill="#404040">
                        <set attributeName="fill" to="#808080" begin="arrowDown.mouseover" end="arrowDown.mouseout"/>
                  </use>
                  <path fill="none" stroke="white" stroke-width="1.5" d="M0,-3.0v7 M-2.5,-0.5L0,-3.0L2.5,-0.5"/>
                </g>
                <g id="arrowLeft" xlink:href="#dirArrow" transform="rotate(270) translate(-36 17)" onmousedown="handlePan(-1,0)">
                  <use xlink:href="#rim" fill="#404040">
                        <set attributeName="fill" to="#808080" begin="arrowLeft.mouseover" end="arrowLeft.mouseout"/>
                  </use>
                  <path fill="none" stroke="white" stroke-width="1.5" d="M0,-3.0v7 M-2.5,-0.5L0,-3.0L2.5,-0.5"/>
                </g>
        </g>
        <svg viewBox="0 0 15 15" width="100%" height="30px" preserveAspectRatio="xMaxYMin meet">
         <g id="arrow_out" transform="scale(0.3 0.3)">
          <a xlink:href="classMapLayers_a0a64d01a42e8864b78e1bc54007cb7d9_icgraph_org.svg" target="_base">
           <rect id="button" ry="5" rx="5" y="6" x="6" height="38" width="38"
                fill="#f2f5e9" fill-opacity="0.5" stroke="#606060" stroke-width="1.0"/>
           <path id="arrow"
             d="M 11.500037,31.436501 C 11.940474,20.09759 22.043105,11.32322 32.158766,21.979434 L 37.068811,17.246167 C 37.068811,17.246167 37.088388,32 37.088388,32 L 22.160133,31.978069 C 22.160133,31.978069 26.997745,27.140456 26.997745,27.140456 C 18.528582,18.264221 13.291696,25.230495 11.500037,31.436501 z"
             style="fill:#404040;"/>
          </a>
         </g>
        </svg>
</svg>
