<?xml version="1.0" encoding="UTF-8" standalone="no"?>
<!DOCTYPE svg PUBLIC "-//W3C//DTD SVG 1.1//EN"
 "http://www.w3.org/Graphics/SVG/1.1/DTD/svg11.dtd">
<!-- Generated by graphviz version 2.40.1 (20161225.0304)
 -->
<!-- Title: MapNode::demolishLayer Pages: 1 -->
<svg width="1154pt" height="85pt"
 viewBox="0.00 0.00 1154.00 85.00" xmlns="http://www.w3.org/2000/svg" xmlns:xlink="http://www.w3.org/1999/xlink">
<g id="graph0" class="graph" transform="scale(1 1) rotate(0) translate(4 81)">
<title>MapNode::demolishLayer</title>
<!-- Node43 -->
<g id="node1" class="node">
<title>Node43</title>
<polygon fill="#bfbfbf" stroke="#000000" points="0,-19.5 0,-38.5 140,-38.5 140,-19.5 0,-19.5"/>
<text text-anchor="middle" x="70" y="-26.5" font-family="Helvetica,sans-Serif" font-size="10.00" fill="#000000">MapNode::demolishLayer</text>
</g>
<!-- Node44 -->
<g id="node2" class="node">
<title>Node44</title>
<g id="a_node2"><a xlink:href="classMapNode.html#a26e55c94192a56990f8a59e7af139a73" target="_top" xlink:title="MapNode::setTileID">
<polygon fill="none" stroke="#000000" points="189.5,-38.5 189.5,-57.5 301.5,-57.5 301.5,-38.5 189.5,-38.5"/>
<text text-anchor="middle" x="245.5" y="-45.5" font-family="Helvetica,sans-Serif" font-size="10.00" fill="#000000">MapNode::setTileID</text>
</a>
</g>
</g>
<!-- Node43&#45;&gt;Node44 -->
<g id="edge1" class="edge">
<title>Node43&#45;&gt;Node44</title>
<path fill="none" stroke="#191970" d="M150.1528,-37.6775C163.3593,-39.1073 176.7971,-40.5621 189.2574,-41.9111"/>
<polygon fill="#191970" stroke="#191970" points="150.4375,-34.188 140.1189,-36.5912 149.684,-41.1473 150.4375,-34.188"/>
</g>
<!-- Node52 -->
<g id="node10" class="node">
<title>Node52</title>
<g id="a_node10"><a xlink:href="classMapNode.html#a002b868485074599fbf087fc4c96b2c9" target="_top" xlink:title="Demolish a node Removes all tiles on a node. This effects all layers where something to demolish is p...">
<polygon fill="none" stroke="#000000" points="176,-.5 176,-19.5 315,-19.5 315,-.5 176,-.5"/>
<text text-anchor="middle" x="245.5" y="-7.5" font-family="Helvetica,sans-Serif" font-size="10.00" fill="#000000">MapNode::demolishNode</text>
</a>
</g>
</g>
<!-- Node43&#45;&gt;Node52 -->
<g id="edge9" class="edge">
<title>Node43&#45;&gt;Node52</title>
<path fill="none" stroke="#191970" d="M150.112,-20.3269C158.6797,-19.3993 167.3454,-18.4612 175.7788,-17.5482"/>
<polygon fill="#191970" stroke="#191970" points="149.684,-16.8527 140.1189,-21.4088 150.4375,-23.812 149.684,-16.8527"/>
</g>
<!-- Node45 -->
<g id="node3" class="node">
<title>Node45</title>
<g id="a_node3"><a xlink:href="classMapNode.html#ae515fc96b543bf97237bfb1ca53fe571" target="_top" xlink:title="MapNode::MapNode">
<polygon fill="none" stroke="#000000" points="355.5,-57.5 355.5,-76.5 469.5,-76.5 469.5,-57.5 355.5,-57.5"/>
<text text-anchor="middle" x="412.5" y="-64.5" font-family="Helvetica,sans-Serif" font-size="10.00" fill="#000000">MapNode::MapNode</text>
</a>
</g>
</g>
<!-- Node44&#45;&gt;Node45 -->
<g id="edge2" class="edge">
<title>Node44&#45;&gt;Node45</title>
<path fill="none" stroke="#191970" d="M311.9108,-55.5557C326.3154,-57.1946 341.429,-58.9141 355.4359,-60.5077"/>
<polygon fill="#191970" stroke="#191970" points="311.9047,-52.0325 301.5732,-54.3796 311.1134,-58.9877 311.9047,-52.0325"/>
</g>
<!-- Node46 -->
<g id="node4" class="node">
<title>Node46</title>
<g id="a_node4"><a xlink:href="classMap.html#a404c38b33d61f8c63ce2c2efb864d6dd" target="_top" xlink:title="Set the Tile ID Of Node object Also invokes all necessary texture updates (auto&#45;tiling, slopes, ...) ">
<polygon fill="none" stroke="#000000" points="351,-19.5 351,-38.5 474,-38.5 474,-19.5 351,-19.5"/>
<text text-anchor="middle" x="412.5" y="-26.5" font-family="Helvetica,sans-Serif" font-size="10.00" fill="#000000">Map::setTileIDOfNode</text>
</a>
</g>
</g>
<!-- Node44&#45;&gt;Node46 -->
<g id="edge3" class="edge">
<title>Node44&#45;&gt;Node46</title>
<path fill="none" stroke="#191970" d="M311.7595,-40.4615C324.645,-38.9955 338.1033,-37.4643 350.8334,-36.016"/>
<polygon fill="#191970" stroke="#191970" points="311.1134,-37.0123 301.5732,-41.6204 311.9047,-43.9675 311.1134,-37.0123"/>
</g>
<!-- Node47 -->
<g id="node5" class="node">
<title>Node47</title>
<g id="a_node5"><a xlink:href="classEngine.html#a7a1521fd7fc731f961ebaf3f723127d9" target="_top" xlink:title="Engine::setTileIDOfNode">
<polygon fill="none" stroke="#000000" points="510,-19.5 510,-38.5 646,-38.5 646,-19.5 510,-19.5"/>
<text text-anchor="middle" x="578" y="-26.5" font-family="Helvetica,sans-Serif" font-size="10.00" fill="#000000">Engine::setTileIDOfNode</text>
</a>
</g>
</g>
<!-- Node46&#45;&gt;Node47 -->
<g id="edge4" class="edge">
<title>Node46&#45;&gt;Node47</title>
<path fill="none" stroke="#191970" d="M484.3736,-29C492.858,-29 501.4976,-29 509.9273,-29"/>
<polygon fill="#191970" stroke="#191970" points="484.1261,-25.5001 474.1261,-29 484.1261,-32.5001 484.1261,-25.5001"/>
</g>
<!-- Node48 -->
<g id="node6" class="node">
<title>Node48</title>
<g id="a_node6"><a xlink:href="classEventManager.html#a65ec91fd5016d4f9c4167fb8babed2df" target="_top" xlink:title="EventManager::checkEvents">
<polygon fill="none" stroke="#000000" points="682,-19.5 682,-38.5 836,-38.5 836,-19.5 682,-19.5"/>
<text text-anchor="middle" x="759" y="-26.5" font-family="Helvetica,sans-Serif" font-size="10.00" fill="#000000">EventManager::checkEvents</text>
</a>
</g>
</g>
<!-- Node47&#45;&gt;Node48 -->
<g id="edge5" class="edge">
<title>Node47&#45;&gt;Node48</title>
<path fill="none" stroke="#191970" d="M656.3623,-29C664.7925,-29 673.3658,-29 681.7824,-29"/>
<polygon fill="#191970" stroke="#191970" points="656.1705,-25.5001 646.1704,-29 656.1704,-32.5001 656.1705,-25.5001"/>
</g>
<!-- Node49 -->
<g id="node7" class="node">
<title>Node49</title>
<g id="a_node7"><a xlink:href="classGame.html#a1c2ab25d5216b2f4b2fe41efd2c09114" target="_top" xlink:title="begins the game starts running the game ">
<polygon fill="none" stroke="#000000" points="872,-19.5 872,-38.5 940,-38.5 940,-19.5 872,-19.5"/>
<text text-anchor="middle" x="906" y="-26.5" font-family="Helvetica,sans-Serif" font-size="10.00" fill="#000000">Game::run</text>
</a>
</g>
</g>
<!-- Node48&#45;&gt;Node49 -->
<g id="edge6" class="edge">
<title>Node48&#45;&gt;Node49</title>
<path fill="none" stroke="#191970" d="M846.5248,-29C855.4338,-29 864.0572,-29 871.845,-29"/>
<polygon fill="#191970" stroke="#191970" points="846.3744,-25.5001 836.3744,-29 846.3743,-32.5001 846.3744,-25.5001"/>
</g>
<!-- Node50 -->
<g id="node8" class="node">
<title>Node50</title>
<g id="a_node8"><a xlink:href="main_8cxx.html#af582d708d899e67ead623eac34a22387" target="_top" xlink:title="protected_main">
<polygon fill="none" stroke="#000000" points="976,-19.5 976,-38.5 1069,-38.5 1069,-19.5 976,-19.5"/>
<text text-anchor="middle" x="1022.5" y="-26.5" font-family="Helvetica,sans-Serif" font-size="10.00" fill="#000000">protected_main</text>
</a>
</g>
</g>
<!-- Node49&#45;&gt;Node50 -->
<g id="edge7" class="edge">
<title>Node49&#45;&gt;Node50</title>
<path fill="none" stroke="#191970" d="M950.2653,-29C958.5757,-29 967.2897,-29 975.6749,-29"/>
<polygon fill="#191970" stroke="#191970" points="950.0098,-25.5001 940.0098,-29 950.0098,-32.5001 950.0098,-25.5001"/>
</g>
<!-- Node51 -->
<g id="node9" class="node">
<title>Node51</title>
<g id="a_node9"><a xlink:href="main_8cxx.html#a3c04138a5bfe5d72780bb7e82a18e627" target="_top" xlink:title="main">
<polygon fill="none" stroke="#000000" points="1105,-19.5 1105,-38.5 1146,-38.5 1146,-19.5 1105,-19.5"/>
<text text-anchor="middle" x="1125.5" y="-26.5" font-family="Helvetica,sans-Serif" font-size="10.00" fill="#000000">main</text>
</a>
</g>
</g>
<!-- Node50&#45;&gt;Node51 -->
<g id="edge8" class="edge">
<title>Node50&#45;&gt;Node51</title>
<path fill="none" stroke="#191970" d="M1079.2133,-29C1088.4322,-29 1097.4259,-29 1104.9965,-29"/>
<polygon fill="#191970" stroke="#191970" points="1079.1782,-25.5001 1069.1782,-29 1079.1781,-32.5001 1079.1782,-25.5001"/>
</g>
</g>
</svg>
