<?xml version="1.0" encoding="UTF-8" standalone="no"?>
<!DOCTYPE svg PUBLIC "-//W3C//DTD SVG 1.1//EN"
 "http://www.w3.org/Graphics/SVG/1.1/DTD/svg11.dtd">
<!-- Generated by graphviz version 2.40.1 (20161225.0304)
 -->
<!-- Title: MapNode::setNodeTransparency Pages: 1 -->
<svg width="681pt" height="28pt"
 viewBox="0.00 0.00 681.00 28.00" xmlns="http://www.w3.org/2000/svg" xmlns:xlink="http://www.w3.org/1999/xlink">
<g id="graph0" class="graph" transform="scale(1 1) rotate(0) translate(4 24)">
<title>MapNode::setNodeTransparency</title>
<!-- Node313 -->
<g id="node1" class="node">
<title>Node313</title>
<polygon fill="#bfbfbf" stroke="#000000" points="0,-.5 0,-19.5 173,-19.5 173,-.5 0,-.5"/>
<text text-anchor="middle" x="86.5" y="-7.5" font-family="Helvetica,sans-Serif" font-size="10.00" fill="#000000">MapNode::setNodeTransparency</text>
</g>
<!-- Node314 -->
<g id="node2" class="node">
<title>Node314</title>
<g id="a_node2"><a xlink:href="classEventManager.html#a65ec91fd5016d4f9c4167fb8babed2df" target="_top" xlink:title="EventManager::checkEvents">
<polygon fill="none" stroke="#000000" points="209,-.5 209,-19.5 363,-19.5 363,-.5 209,-.5"/>
<text text-anchor="middle" x="286" y="-7.5" font-family="Helvetica,sans-Serif" font-size="10.00" fill="#000000">EventManager::checkEvents</text>
</a>
</g>
</g>
<!-- Node313&#45;&gt;Node314 -->
<g id="edge1" class="edge">
<title>Node313&#45;&gt;Node314</title>
<path fill="none" stroke="#191970" d="M183.2037,-10C191.8072,-10 200.4409,-10 208.8486,-10"/>
<polygon fill="#191970" stroke="#191970" points="183.1333,-6.5001 173.1332,-10 183.1332,-13.5001 183.1333,-6.5001"/>
</g>
<!-- Node315 -->
<g id="node3" class="node">
<title>Node315</title>
<g id="a_node3"><a xlink:href="classGame.html#a1c2ab25d5216b2f4b2fe41efd2c09114" target="_top" xlink:title="begins the game starts running the game ">
<polygon fill="none" stroke="#000000" points="399,-.5 399,-19.5 467,-19.5 467,-.5 399,-.5"/>
<text text-anchor="middle" x="433" y="-7.5" font-family="Helvetica,sans-Serif" font-size="10.00" fill="#000000">Game::run</text>
</a>
</g>
</g>
<!-- Node314&#45;&gt;Node315 -->
<g id="edge2" class="edge">
<title>Node314&#45;&gt;Node315</title>
<path fill="none" stroke="#191970" d="M373.5248,-10C382.4338,-10 391.0572,-10 398.845,-10"/>
<polygon fill="#191970" stroke="#191970" points="373.3744,-6.5001 363.3744,-10 373.3743,-13.5001 373.3744,-6.5001"/>
</g>
<!-- Node316 -->
<g id="node4" class="node">
<title>Node316</title>
<g id="a_node4"><a xlink:href="main_8cxx.html#af582d708d899e67ead623eac34a22387" target="_top" xlink:title="protected_main">
<polygon fill="none" stroke="#000000" points="503,-.5 503,-19.5 596,-19.5 596,-.5 503,-.5"/>
<text text-anchor="middle" x="549.5" y="-7.5" font-family="Helvetica,sans-Serif" font-size="10.00" fill="#000000">protected_main</text>
</a>
</g>
</g>
<!-- Node315&#45;&gt;Node316 -->
<g id="edge3" class="edge">
<title>Node315&#45;&gt;Node316</title>
<path fill="none" stroke="#191970" d="M477.2653,-10C485.5757,-10 494.2897,-10 502.6749,-10"/>
<polygon fill="#191970" stroke="#191970" points="477.0098,-6.5001 467.0098,-10 477.0098,-13.5001 477.0098,-6.5001"/>
</g>
<!-- Node317 -->
<g id="node5" class="node">
<title>Node317</title>
<g id="a_node5"><a xlink:href="main_8cxx.html#a3c04138a5bfe5d72780bb7e82a18e627" target="_top" xlink:title="main">
<polygon fill="none" stroke="#000000" points="632,-.5 632,-19.5 673,-19.5 673,-.5 632,-.5"/>
<text text-anchor="middle" x="652.5" y="-7.5" font-family="Helvetica,sans-Serif" font-size="10.00" fill="#000000">main</text>
</a>
</g>
</g>
<!-- Node316&#45;&gt;Node317 -->
<g id="edge4" class="edge">
<title>Node316&#45;&gt;Node317</title>
<path fill="none" stroke="#191970" d="M606.2133,-10C615.4322,-10 624.4259,-10 631.9965,-10"/>
<polygon fill="#191970" stroke="#191970" points="606.1782,-6.5001 596.1782,-10 606.1781,-13.5001 606.1782,-6.5001"/>
</g>
</g>
</svg>
