<?xml version="1.0" encoding="UTF-8" standalone="no"?>
<!DOCTYPE svg PUBLIC "-//W3C//DTD SVG 1.1//EN"
 "http://www.w3.org/Graphics/SVG/1.1/DTD/svg11.dtd">
<!-- Generated by graphviz version 2.40.1 (20161225.0304)
 -->
<!-- Title: MapNode::getMapNodeDataForLayer Pages: 1 -->
<!--zoomable 297 -->
<svg id="main" version="1.1" xmlns="http://www.w3.org/2000/svg" xmlns:xlink="http://www.w3.org/1999/xlink" xml:space="preserve" onload="init(evt)">
<style type="text/css"><![CDATA[
.edge:hover path { stroke: red; }
.edge:hover polygon { stroke: red; fill: red; }
]]></style>
<script type="text/javascript"><![CDATA[
var edges = document.getElementsByTagName('g');
if (edges && edges.length) {
  for (var i=0;i<edges.length;i++) {
    if (edges[i].id.substr(0,4)=='edge') {
      edges[i].setAttribute('class','edge');
    }
  }
}
]]></script>
        <defs>
                <circle id="rim" cx="0" cy="0" r="7"/>
                <circle id="rim2" cx="0" cy="0" r="3.5"/>
                <g id="zoomPlus">
                        <use xlink:href="#rim" fill="#404040">
                                <set attributeName="fill" to="#808080" begin="zoomplus.mouseover" end="zoomplus.mouseout"/>
                        </use>
                        <path d="M-4,0h8M0,-4v8" fill="none" stroke="white" stroke-width="1.5" pointer-events="none"/>
                </g>
                <g id="zoomMin">
                        <use xlink:href="#rim" fill="#404040">
                                <set attributeName="fill" to="#808080" begin="zoomminus.mouseover" end="zoomminus.mouseout"/>
                        </use>
                        <path d="M-4,0h8" fill="none" stroke="white" stroke-width="1.5" pointer-events="none"/>
                </g>
                <g id="dirArrow">
                        <path fill="none" stroke="white" stroke-width="1.5" d="M0,-3.0v7 M-2.5,-0.5L0,-3.0L2.5,-0.5"/>
                </g>
               <g id="resetDef">
                       <use xlink:href="#rim2" fill="#404040">
                               <set attributeName="fill" to="#808080" begin="reset.mouseover" end="reset.mouseout"/>
                       </use>
               </g>
        </defs>

<script type="text/javascript">
var viewWidth = 1933;
var viewHeight = 297;
var sectionId = 'dynsection-10';
</script>
<script xlink:href="svgpan.js"/>
<svg id="graph" class="graph">
<g id="viewport">
<title>MapNode::getMapNodeDataForLayer</title>
<!-- Node122 -->
<g id="node1" class="node">
<title>Node122</title>
<polygon fill="#bfbfbf" stroke="#000000" points="0,-71 0,-101 168,-101 168,-71 0,-71"/>
<text text-anchor="start" x="8" y="-89" font-family="Helvetica,sans-Serif" font-size="10.00" fill="#000000">MapNode::getMapNodeDataFor</text>
<text text-anchor="middle" x="84" y="-78" font-family="Helvetica,sans-Serif" font-size="10.00" fill="#000000">Layer</text>
</g>
<!-- Node123 -->
<g id="node2" class="node">
<title>Node123</title>
<g id="a_node2"><a xlink:href="classMap.html#a0241b997090783e5d13667114731a592" target="_top" xlink:title="Debug MapNodeData to Console Used as Tile&#45;Inspector until we implement a GUI variant. ">
<polygon fill="none" stroke="#000000" points="1225,-162.5 1225,-181.5 1366,-181.5 1366,-162.5 1225,-162.5"/>
<text text-anchor="middle" x="1295.5" y="-169.5" font-family="Helvetica,sans-Serif" font-size="10.00" fill="#000000">Map::getNodeInformation</text>
</a>
</g>
</g>
<!-- Node122&#45;&gt;Node123 -->
<g id="edge1" class="edge">
<title>Node122&#45;&gt;Node123</title>
<path fill="none" stroke="#191970" d="M118.0458,-106.0086C141.4274,-118.7732 173.6146,-134.4696 204,-143 323.6022,-176.5771 357.774,-172 482,-172 482,-172 482,-172 958.5,-172 1050.5022,-172 1156.6326,-172 1224.8209,-172"/>
<polygon fill="#191970" stroke="#191970" points="119.6655,-102.9046 109.2248,-101.104 116.2638,-109.0225 119.6655,-102.9046"/>
</g>
<!-- Node128 -->
<g id="node7" class="node">
<title>Node128</title>
<g id="a_node7"><a xlink:href="classMap.html#af192be95053d30ea6c6d9327106bf6d8" target="_top" xlink:title="Get a bitmask that represents same&#45;tile neighbors Checks all neighboring tiles and returns the elevat...">
<polygon fill="none" stroke="#000000" points="204,-114.5 204,-133.5 370,-133.5 370,-114.5 204,-114.5"/>
<text text-anchor="middle" x="287" y="-121.5" font-family="Helvetica,sans-Serif" font-size="10.00" fill="#000000">Map::calculateAutotileBitmask</text>
</a>
</g>
</g>
<!-- Node122&#45;&gt;Node128 -->
<g id="edge6" class="edge">
<title>Node122&#45;&gt;Node128</title>
<path fill="none" stroke="#191970" d="M174.2659,-102.8971C195.524,-106.8764 217.4477,-110.9804 236.2451,-114.4991"/>
<polygon fill="#191970" stroke="#191970" points="174.7043,-99.4184 164.231,-101.0186 173.4162,-106.2989 174.7043,-99.4184"/>
</g>
<!-- Node143 -->
<g id="node22" class="node">
<title>Node143</title>
<g id="a_node22"><a xlink:href="classMap.html#aa8cc2ed983007621bce12dd9d1b8ec5b" target="_top" xlink:title="Demolish a node This function gathers all tiles that should be demolished and invokes the nodes demol...">
<polygon fill="none" stroke="#000000" points="597.5,-76.5 597.5,-95.5 710.5,-95.5 710.5,-76.5 597.5,-76.5"/>
<text text-anchor="middle" x="654" y="-83.5" font-family="Helvetica,sans-Serif" font-size="10.00" fill="#000000">Map::demolishNode</text>
</a>
</g>
</g>
<!-- Node122&#45;&gt;Node143 -->
<g id="edge32" class="edge">
<title>Node122&#45;&gt;Node143</title>
<path fill="none" stroke="#191970" d="M178.3226,-86C297.6264,-86 499.2888,-86 597.2295,-86"/>
<polygon fill="#191970" stroke="#191970" points="178.1055,-82.5001 168.1055,-86 178.1054,-89.5001 178.1055,-82.5001"/>
</g>
<!-- Node144 -->
<g id="node23" class="node">
<title>Node144</title>
<g id="a_node23"><a xlink:href="classMap.html#a178bdc025a3a5c2068d9de5b642c52bd" target="_top" xlink:title="Map::isAllowSetTileId">
<polygon fill="none" stroke="#000000" points="226.5,-.5 226.5,-19.5 347.5,-19.5 347.5,-.5 226.5,-.5"/>
<text text-anchor="middle" x="287" y="-7.5" font-family="Helvetica,sans-Serif" font-size="10.00" fill="#000000">Map::isAllowSetTileId</text>
</a>
</g>
</g>
<!-- Node122&#45;&gt;Node144 -->
<g id="edge33" class="edge">
<title>Node122&#45;&gt;Node144</title>
<path fill="none" stroke="#191970" d="M120.2573,-66.2213C143.6215,-54.1238 174.9559,-39.0862 204,-29 214.6129,-25.3144 226.2396,-22.1426 237.3428,-19.5043"/>
<polygon fill="#191970" stroke="#191970" points="118.6303,-63.1224 111.3983,-70.865 121.8802,-69.3223 118.6303,-63.1224"/>
</g>
<!-- Node145 -->
<g id="node24" class="node">
<title>Node145</title>
<g id="a_node24"><a xlink:href="classMap.html#a404c38b33d61f8c63ce2c2efb864d6dd" target="_top" xlink:title="Set the Tile ID Of Node object Also invokes all necessary texture updates (auto&#45;tiling, slopes, ...) ">
<polygon fill="none" stroke="#000000" points="225.5,-38.5 225.5,-57.5 348.5,-57.5 348.5,-38.5 225.5,-38.5"/>
<text text-anchor="middle" x="287" y="-45.5" font-family="Helvetica,sans-Serif" font-size="10.00" fill="#000000">Map::setTileIDOfNode</text>
</a>
</g>
</g>
<!-- Node122&#45;&gt;Node145 -->
<g id="edge34" class="edge">
<title>Node122&#45;&gt;Node145</title>
<path fill="none" stroke="#191970" d="M174.2659,-69.1029C195.524,-65.1236 217.4477,-61.0196 236.2451,-57.5009"/>
<polygon fill="#191970" stroke="#191970" points="173.4162,-65.7011 164.231,-70.9814 174.7043,-72.5816 173.4162,-65.7011"/>
</g>
<!-- Node124 -->
<g id="node3" class="node">
<title>Node124</title>
<g id="a_node3"><a xlink:href="classEventManager.html#a65ec91fd5016d4f9c4167fb8babed2df" target="_top" xlink:title="EventManager::checkEvents">
<polygon fill="none" stroke="#000000" points="1414,-124.5 1414,-143.5 1568,-143.5 1568,-124.5 1414,-124.5"/>
<text text-anchor="middle" x="1491" y="-131.5" font-family="Helvetica,sans-Serif" font-size="10.00" fill="#000000">EventManager::checkEvents</text>
</a>
</g>
</g>
<!-- Node123&#45;&gt;Node124 -->
<g id="edge2" class="edge">
<title>Node123&#45;&gt;Node124</title>
<path fill="none" stroke="#191970" d="M1354.61,-160.5106C1382.5045,-155.0886 1415.4024,-148.6942 1441.8992,-143.5439"/>
<polygon fill="#191970" stroke="#191970" points="1353.729,-157.1162 1344.5806,-162.46 1355.0647,-163.9876 1353.729,-157.1162"/>
</g>
<!-- Node125 -->
<g id="node4" class="node">
<title>Node125</title>
<g id="a_node4"><a xlink:href="classGame.html#a1c2ab25d5216b2f4b2fe41efd2c09114" target="_top" xlink:title="begins the game starts running the game ">
<polygon fill="none" stroke="#000000" points="1633.5,-143.5 1633.5,-162.5 1701.5,-162.5 1701.5,-143.5 1633.5,-143.5"/>
<text text-anchor="middle" x="1667.5" y="-150.5" font-family="Helvetica,sans-Serif" font-size="10.00" fill="#000000">Game::run</text>
</a>
</g>
</g>
<!-- Node124&#45;&gt;Node125 -->
<g id="edge3" class="edge">
<title>Node124&#45;&gt;Node125</title>
<path fill="none" stroke="#191970" d="M1578.3664,-143.4049C1597.9355,-145.5115 1617.5625,-147.6243 1633.398,-149.329"/>
<polygon fill="#191970" stroke="#191970" points="1578.4759,-139.8965 1568.1587,-142.306 1577.7266,-146.8563 1578.4759,-139.8965"/>
</g>
<!-- Node126 -->
<g id="node5" class="node">
<title>Node126</title>
<g id="a_node5"><a xlink:href="main_8cxx.html#af582d708d899e67ead623eac34a22387" target="_top" xlink:title="protected_main">
<polygon fill="none" stroke="#000000" points="1755,-162.5 1755,-181.5 1848,-181.5 1848,-162.5 1755,-162.5"/>
<text text-anchor="middle" x="1801.5" y="-169.5" font-family="Helvetica,sans-Serif" font-size="10.00" fill="#000000">protected_main</text>
</a>
</g>
</g>
<!-- Node125&#45;&gt;Node126 -->
<g id="edge4" class="edge">
<title>Node125&#45;&gt;Node126</title>
<path fill="none" stroke="#191970" d="M1711.8611,-159.29C1725.6278,-161.242 1740.8396,-163.3989 1754.7626,-165.3731"/>
<polygon fill="#191970" stroke="#191970" points="1712.0529,-155.7823 1701.6606,-157.8437 1711.0702,-162.713 1712.0529,-155.7823"/>
</g>
<!-- Node127 -->
<g id="node6" class="node">
<title>Node127</title>
<g id="a_node6"><a xlink:href="main_8cxx.html#a3c04138a5bfe5d72780bb7e82a18e627" target="_top" xlink:title="main">
<polygon fill="none" stroke="#000000" points="1884,-162.5 1884,-181.5 1925,-181.5 1925,-162.5 1884,-162.5"/>
<text text-anchor="middle" x="1904.5" y="-169.5" font-family="Helvetica,sans-Serif" font-size="10.00" fill="#000000">main</text>
</a>
</g>
</g>
<!-- Node126&#45;&gt;Node127 -->
<g id="edge5" class="edge">
<title>Node126&#45;&gt;Node127</title>
<path fill="none" stroke="#191970" d="M1858.2133,-172C1867.4322,-172 1876.4259,-172 1883.9965,-172"/>
<polygon fill="#191970" stroke="#191970" points="1858.1782,-168.5001 1848.1782,-172 1858.1781,-175.5001 1858.1782,-168.5001"/>
</g>
<!-- Node129 -->
<g id="node8" class="node">
<title>Node129</title>
<g id="a_node8"><a xlink:href="classMap.html#af1e496c421981fe707890b0ba60cc20f" target="_top" xlink:title="Map::updateNodeNeighbors">
<polygon fill="none" stroke="#000000" points="406,-114.5 406,-133.5 558,-133.5 558,-114.5 406,-114.5"/>
<text text-anchor="middle" x="482" y="-121.5" font-family="Helvetica,sans-Serif" font-size="10.00" fill="#000000">Map::updateNodeNeighbors</text>
</a>
</g>
</g>
<!-- Node128&#45;&gt;Node129 -->
<g id="edge7" class="edge">
<title>Node128&#45;&gt;Node129</title>
<path fill="none" stroke="#191970" d="M380.2718,-124C388.8282,-124 397.4281,-124 405.8072,-124"/>
<polygon fill="#191970" stroke="#191970" points="380.2632,-120.5001 370.2632,-124 380.2631,-127.5001 380.2632,-120.5001"/>
</g>
<!-- Node130 -->
<g id="node9" class="node">
<title>Node130</title>
<g id="a_node9"><a xlink:href="classMap.html#ade1eeabf4e539f9dbfe2a96c97fda4e3" target="_top" xlink:title="Map::changeHeight">
<polygon fill="none" stroke="#000000" points="750,-95.5 750,-114.5 860,-114.5 860,-95.5 750,-95.5"/>
<text text-anchor="middle" x="805" y="-102.5" font-family="Helvetica,sans-Serif" font-size="10.00" fill="#000000">Map::changeHeight</text>
</a>
</g>
</g>
<!-- Node129&#45;&gt;Node130 -->
<g id="edge8" class="edge">
<title>Node129&#45;&gt;Node130</title>
<path fill="none" stroke="#191970" d="M568.3317,-118.9217C625.9632,-115.5316 700.0321,-111.1746 749.8281,-108.2454"/>
<polygon fill="#191970" stroke="#191970" points="567.9147,-115.4401 558.1375,-119.5213 568.3258,-122.428 567.9147,-115.4401"/>
</g>
<!-- Node135 -->
<g id="node14" class="node">
<title>Node135</title>
<g id="a_node14"><a xlink:href="classMap.html#a481b37ba71ef0e51e836fc42805762dd" target="_top" xlink:title="Update all mapNodes Updates all mapNode and its adjacent tiles regarding height information, draws slopes for adjacent tiles and sets tiling for mapNode sprite if applicable. ">
<polygon fill="none" stroke="#000000" points="594,-200.5 594,-219.5 714,-219.5 714,-200.5 594,-200.5"/>
<text text-anchor="middle" x="654" y="-207.5" font-family="Helvetica,sans-Serif" font-size="10.00" fill="#000000">Map::updateAllNodes</text>
</a>
</g>
</g>
<!-- Node129&#45;&gt;Node135 -->
<g id="edge15" class="edge">
<title>Node129&#45;&gt;Node135</title>
<path fill="none" stroke="#191970" d="M510.3094,-138.1547C545.4907,-155.7454 604.5755,-185.2877 634.8504,-200.4252"/>
<polygon fill="#191970" stroke="#191970" points="511.5737,-134.8738 501.0642,-133.5321 508.4432,-141.1348 511.5737,-134.8738"/>
</g>
<!-- Node129&#45;&gt;Node143 -->
<g id="edge28" class="edge">
<title>Node129&#45;&gt;Node143</title>
<path fill="none" stroke="#191970" d="M513.8635,-111.5776C537.2056,-105.042 569.515,-97.5679 597.2283,-92.1517"/>
<polygon fill="#191970" stroke="#191970" points="512.7584,-108.2539 504.1339,-114.4076 514.7135,-114.9753 512.7584,-108.2539"/>
</g>
<!-- Node131 -->
<g id="node10" class="node">
<title>Node131</title>
<g id="a_node10"><a xlink:href="classMap.html#aba5154a4d917900679a3c0f7ec701561" target="_top" xlink:title="Increase Height Increases the height of the node and checks the surrounding tiles. Either draw a slope sprite or elevate the tile if necessary. ">
<polygon fill="none" stroke="#000000" points="900.5,-124.5 900.5,-143.5 1016.5,-143.5 1016.5,-124.5 900.5,-124.5"/>
<text text-anchor="middle" x="958.5" y="-131.5" font-family="Helvetica,sans-Serif" font-size="10.00" fill="#000000">Map::increaseHeight</text>
</a>
</g>
</g>
<!-- Node130&#45;&gt;Node131 -->
<g id="edge9" class="edge">
<title>Node130&#45;&gt;Node131</title>
<path fill="none" stroke="#191970" d="M865.7517,-116.4775C879.7944,-119.1305 894.5849,-121.9248 908.1279,-124.4835"/>
<polygon fill="#191970" stroke="#191970" points="866.163,-112.9934 855.6871,-114.5761 864.8635,-119.8717 866.163,-112.9934"/>
</g>
<!-- Node133 -->
<g id="node12" class="node">
<title>Node133</title>
<g id="a_node12"><a xlink:href="classMap.html#afb8cc864df90d273a5074872d635dc40" target="_top" xlink:title="Decrease Height Decreases the height of the node and checks the surrounding tiles. Either draw a slope sprite or lower the tile if necessary. ">
<polygon fill="none" stroke="#000000" points="899,-86.5 899,-105.5 1018,-105.5 1018,-86.5 899,-86.5"/>
<text text-anchor="middle" x="958.5" y="-93.5" font-family="Helvetica,sans-Serif" font-size="10.00" fill="#000000">Map::decreaseHeight</text>
</a>
</g>
</g>
<!-- Node130&#45;&gt;Node133 -->
<g id="edge12" class="edge">
<title>Node130&#45;&gt;Node133</title>
<path fill="none" stroke="#191970" d="M870.4846,-101.1605C879.8708,-100.6102 889.4869,-100.0464 898.7546,-99.503"/>
<polygon fill="#191970" stroke="#191970" points="870.195,-97.6714 860.417,-101.7508 870.6048,-104.6594 870.195,-97.6714"/>
</g>
<!-- Node132 -->
<g id="node11" class="node">
<title>Node132</title>
<g id="a_node11"><a xlink:href="classEngine.html#a4851ae1ff696c893741167fc0194fd77" target="_top" xlink:title="Increase Height Increases the height of the given map node Calls the according function of the Map ob...">
<polygon fill="none" stroke="#000000" points="1231,-124.5 1231,-143.5 1360,-143.5 1360,-124.5 1231,-124.5"/>
<text text-anchor="middle" x="1295.5" y="-131.5" font-family="Helvetica,sans-Serif" font-size="10.00" fill="#000000">Engine::increaseHeight</text>
</a>
</g>
</g>
<!-- Node131&#45;&gt;Node132 -->
<g id="edge10" class="edge">
<title>Node131&#45;&gt;Node132</title>
<path fill="none" stroke="#191970" d="M1026.882,-134C1086.4556,-134 1172.2257,-134 1230.7135,-134"/>
<polygon fill="#191970" stroke="#191970" points="1026.8162,-130.5001 1016.8162,-134 1026.8162,-137.5001 1026.8162,-130.5001"/>
</g>
<!-- Node132&#45;&gt;Node124 -->
<g id="edge11" class="edge">
<title>Node132&#45;&gt;Node124</title>
<path fill="none" stroke="#191970" d="M1370.3169,-134C1384.6028,-134 1399.5813,-134 1413.936,-134"/>
<polygon fill="#191970" stroke="#191970" points="1370.0559,-130.5001 1360.0558,-134 1370.0558,-137.5001 1370.0559,-130.5001"/>
</g>
<!-- Node134 -->
<g id="node13" class="node">
<title>Node134</title>
<g id="a_node13"><a xlink:href="classEngine.html#a13572fdd7f6470dca48a14497f58980e" target="_top" xlink:title="Decrease Height Decreases the height of the given map node Calls the according function of the Map ob...">
<polygon fill="none" stroke="#000000" points="1057,-86.5 1057,-105.5 1189,-105.5 1189,-86.5 1057,-86.5"/>
<text text-anchor="middle" x="1123" y="-93.5" font-family="Helvetica,sans-Serif" font-size="10.00" fill="#000000">Engine::decreaseHeight</text>
</a>
</g>
</g>
<!-- Node133&#45;&gt;Node134 -->
<g id="edge13" class="edge">
<title>Node133&#45;&gt;Node134</title>
<path fill="none" stroke="#191970" d="M1028.4434,-96C1037.8433,-96 1047.4627,-96 1056.7952,-96"/>
<polygon fill="#191970" stroke="#191970" points="1028.3537,-92.5001 1018.3536,-96 1028.3536,-99.5001 1028.3537,-92.5001"/>
</g>
<!-- Node134&#45;&gt;Node124 -->
<g id="edge14" class="edge">
<title>Node134&#45;&gt;Node124</title>
<path fill="none" stroke="#191970" d="M1199.1281,-100.524C1247.0924,-103.7276 1310.2681,-108.5942 1366,-115 1388.3523,-117.5692 1412.8443,-121.1269 1434.1793,-124.4698"/>
<polygon fill="#191970" stroke="#191970" points="1199.3406,-97.0305 1189.1321,-99.8657 1198.8805,-104.0154 1199.3406,-97.0305"/>
</g>
<!-- Node136 -->
<g id="node15" class="node">
<title>Node136</title>
<g id="a_node15"><a xlink:href="classMap.html#a26eceeccd7b6ed693909b1927a25c67a" target="_top" xlink:title="Map::Map">
<polygon fill="none" stroke="#000000" points="773.5,-200.5 773.5,-219.5 836.5,-219.5 836.5,-200.5 773.5,-200.5"/>
<text text-anchor="middle" x="805" y="-207.5" font-family="Helvetica,sans-Serif" font-size="10.00" fill="#000000">Map::Map</text>
</a>
</g>
</g>
<!-- Node135&#45;&gt;Node136 -->
<g id="edge16" class="edge">
<title>Node135&#45;&gt;Node136</title>
<path fill="none" stroke="#191970" d="M724.1682,-210C741.3649,-210 758.9322,-210 773.2779,-210"/>
<polygon fill="#191970" stroke="#191970" points="724.1131,-206.5001 714.1131,-210 724.113,-213.5001 724.1131,-206.5001"/>
</g>
<!-- Node137 -->
<g id="node16" class="node">
<title>Node137</title>
<g id="a_node16"><a xlink:href="classMap.html#afefe996cc1f62b61ec60d0ae415953bf" target="_top" xlink:title="Map::loadMapFromFile">
<polygon fill="none" stroke="#000000" points="896,-238.5 896,-257.5 1021,-257.5 1021,-238.5 896,-238.5"/>
<text text-anchor="middle" x="958.5" y="-245.5" font-family="Helvetica,sans-Serif" font-size="10.00" fill="#000000">Map::loadMapFromFile</text>
</a>
</g>
</g>
<!-- Node135&#45;&gt;Node137 -->
<g id="edge27" class="edge">
<title>Node135&#45;&gt;Node137</title>
<path fill="none" stroke="#191970" d="M707.2062,-221.5591C721.0867,-224.2917 736.0622,-226.9913 750,-229 798.7478,-236.0255 854.3038,-240.9368 895.804,-244.0037"/>
<polygon fill="#191970" stroke="#191970" points="707.8168,-218.1119 697.3232,-219.5729 706.4375,-224.9746 707.8168,-218.1119"/>
</g>
<!-- Node136&#45;&gt;Node137 -->
<g id="edge17" class="edge">
<title>Node136&#45;&gt;Node137</title>
<path fill="none" stroke="#191970" d="M846.5651,-220.2897C869.4163,-225.9467 897.5781,-232.9183 919.9373,-238.4535"/>
<polygon fill="#191970" stroke="#191970" points="847.3534,-216.8793 836.8053,-217.8736 845.6712,-223.6742 847.3534,-216.8793"/>
</g>
<!-- Node138 -->
<g id="node17" class="node">
<title>Node138</title>
<g id="a_node17"><a xlink:href="classEngine.html#a83b7dbeee899b36a13d5b07c7ad87ebc" target="_top" xlink:title="Loads a saved game Loads a saved Game. ">
<polygon fill="none" stroke="#000000" points="1070,-238.5 1070,-257.5 1176,-257.5 1176,-238.5 1070,-238.5"/>
<text text-anchor="middle" x="1123" y="-245.5" font-family="Helvetica,sans-Serif" font-size="10.00" fill="#000000">Engine::loadGame</text>
</a>
</g>
</g>
<!-- Node137&#45;&gt;Node138 -->
<g id="edge18" class="edge">
<title>Node137&#45;&gt;Node138</title>
<path fill="none" stroke="#191970" d="M1031.4461,-248C1044.3866,-248 1057.6382,-248 1069.8977,-248"/>
<polygon fill="#191970" stroke="#191970" points="1031.1597,-244.5001 1021.1597,-248 1031.1596,-251.5001 1031.1597,-244.5001"/>
</g>
<!-- Node139 -->
<g id="node18" class="node">
<title>Node139</title>
<g id="a_node18"><a xlink:href="classEngine.html#a0ba57971ffb5173ecc425461f65a4cd8" target="_top" xlink:title="Quits the game Sets m_running to false and quitting the game. ">
<polygon fill="none" stroke="#000000" points="1243.5,-200.5 1243.5,-219.5 1347.5,-219.5 1347.5,-200.5 1243.5,-200.5"/>
<text text-anchor="middle" x="1295.5" y="-207.5" font-family="Helvetica,sans-Serif" font-size="10.00" fill="#000000">Engine::quitGame</text>
</a>
</g>
</g>
<!-- Node138&#45;&gt;Node139 -->
<g id="edge19" class="edge">
<title>Node138&#45;&gt;Node139</title>
<path fill="none" stroke="#191970" d="M1176.3505,-236.2474C1200.742,-230.8742 1229.2627,-224.5914 1252.284,-219.5201"/>
<polygon fill="#191970" stroke="#191970" points="1175.5419,-232.8416 1166.529,-238.411 1177.0479,-239.6776 1175.5419,-232.8416"/>
</g>
<!-- Node140 -->
<g id="node19" class="node">
<title>Node140</title>
<g id="a_node19"><a xlink:href="classUIManager.html#aa78e356fc3b356d790c848319d1c387e" target="_top" xlink:title="UIManager::setCallbackFunctions">
<polygon fill="none" stroke="#000000" points="1402,-238.5 1402,-257.5 1580,-257.5 1580,-238.5 1402,-238.5"/>
<text text-anchor="middle" x="1491" y="-245.5" font-family="Helvetica,sans-Serif" font-size="10.00" fill="#000000">UIManager::setCallbackFunctions</text>
</a>
</g>
</g>
<!-- Node138&#45;&gt;Node140 -->
<g id="edge25" class="edge">
<title>Node138&#45;&gt;Node140</title>
<path fill="none" stroke="#191970" d="M1186.1236,-248C1245.5857,-248 1335.2556,-248 1401.9738,-248"/>
<polygon fill="#191970" stroke="#191970" points="1186.1174,-244.5001 1176.1173,-248 1186.1173,-251.5001 1186.1174,-244.5001"/>
</g>
<!-- Node142 -->
<g id="node21" class="node">
<title>Node142</title>
<g id="a_node21"><a xlink:href="classGame.html#a560299f0291c281f7b44e7ef0dd7b264" target="_top" xlink:title="initializes and displays the main menu initializes and displays the main menu ">
<polygon fill="none" stroke="#000000" points="1616,-200.5 1616,-219.5 1719,-219.5 1719,-200.5 1616,-200.5"/>
<text text-anchor="middle" x="1667.5" y="-207.5" font-family="Helvetica,sans-Serif" font-size="10.00" fill="#000000">Game::mainMenu</text>
</a>
</g>
</g>
<!-- Node138&#45;&gt;Node142 -->
<g id="edge26" class="edge">
<title>Node138&#45;&gt;Node142</title>
<path fill="none" stroke="#191970" d="M1169.9097,-259.767C1254.0994,-278.7528 1435.5304,-309.9055 1580,-267 1611.2834,-257.7093 1641.8332,-233.3037 1657.215,-219.6317"/>
<polygon fill="#191970" stroke="#191970" points="1170.6639,-256.3492 1160.1337,-257.5178 1169.0943,-263.1709 1170.6639,-256.3492"/>
</g>
<!-- Node139&#45;&gt;Node124 -->
<g id="edge20" class="edge">
<title>Node139&#45;&gt;Node124</title>
<path fill="none" stroke="#191970" d="M1345.4685,-197.6318C1352.421,-195.5928 1359.429,-193.3655 1366,-191 1404.8236,-177.0242 1448.2597,-155.9068 1472.3443,-143.6826"/>
<polygon fill="#191970" stroke="#191970" points="1344.053,-194.3945 1335.3793,-200.4788 1345.9541,-201.1314 1344.053,-194.3945"/>
</g>
<!-- Node139&#45;&gt;Node140 -->
<g id="edge21" class="edge">
<title>Node139&#45;&gt;Node140</title>
<path fill="none" stroke="#191970" d="M1354.61,-221.4894C1382.5045,-226.9114 1415.4024,-233.3058 1441.8992,-238.4561"/>
<polygon fill="#191970" stroke="#191970" points="1355.0647,-218.0124 1344.5806,-219.54 1353.729,-224.8838 1355.0647,-218.0124"/>
</g>
<!-- Node141 -->
<g id="node20" class="node">
<title>Node141</title>
<g id="a_node20"><a xlink:href="classGame.html#a8272be134d16c277bb014ad6a22fc357" target="_top" xlink:title="Game::quit">
<polygon fill="none" stroke="#000000" points="1455.5,-200.5 1455.5,-219.5 1526.5,-219.5 1526.5,-200.5 1455.5,-200.5"/>
<text text-anchor="middle" x="1491" y="-207.5" font-family="Helvetica,sans-Serif" font-size="10.00" fill="#000000">Game::quit</text>
</a>
</g>
</g>
<!-- Node139&#45;&gt;Node141 -->
<g id="edge22" class="edge">
<title>Node139&#45;&gt;Node141</title>
<path fill="none" stroke="#191970" d="M1357.8593,-210C1390.0613,-210 1428.1873,-210 1455.3701,-210"/>
<polygon fill="#191970" stroke="#191970" points="1357.6336,-206.5001 1347.6336,-210 1357.6336,-213.5001 1357.6336,-206.5001"/>
</g>
<!-- Node141&#45;&gt;Node142 -->
<g id="edge23" class="edge">
<title>Node141&#45;&gt;Node142</title>
<path fill="none" stroke="#191970" d="M1537.0403,-210C1561.1836,-210 1590.8403,-210 1615.7739,-210"/>
<polygon fill="#191970" stroke="#191970" points="1536.7174,-206.5001 1526.7174,-210 1536.7174,-213.5001 1536.7174,-206.5001"/>
</g>
<!-- Node142&#45;&gt;Node126 -->
<g id="edge24" class="edge">
<title>Node142&#45;&gt;Node126</title>
<path fill="none" stroke="#191970" d="M1710.9383,-197.6817C1729.3491,-192.4607 1750.4798,-186.4684 1767.697,-181.5859"/>
<polygon fill="#191970" stroke="#191970" points="1709.9796,-194.3155 1701.3139,-200.411 1711.8894,-201.0499 1709.9796,-194.3155"/>
</g>
<!-- Node143&#45;&gt;Node124 -->
<g id="edge29" class="edge">
<title>Node143&#45;&gt;Node124</title>
<path fill="none" stroke="#191970" d="M720.5126,-76.3448C782.0925,-68.2484 876.279,-58 958.5,-58 958.5,-58 958.5,-58 1123,-58 1252.8219,-58 1403.1802,-103.924 1463.7006,-124.3745"/>
<polygon fill="#191970" stroke="#191970" points="719.9886,-72.8837 710.539,-77.6749 720.9139,-79.8222 719.9886,-72.8837"/>
</g>
<!-- Node143&#45;&gt;Node129 -->
<g id="edge31" class="edge">
<title>Node143&#45;&gt;Node129</title>
<path fill="none" stroke="#191970" d="M622.3622,-98.3592C603.5526,-103.6339 578.8626,-109.5274 555.4424,-114.46"/>
<polygon fill="#191970" stroke="#191970" points="623.5407,-101.6614 632.1615,-95.5025 621.5816,-94.9411 623.5407,-101.6614"/>
</g>
<!-- Node143&#45;&gt;Node130 -->
<g id="edge30" class="edge">
<title>Node143&#45;&gt;Node130</title>
<path fill="none" stroke="#191970" d="M720.6197,-94.3826C730.2746,-95.5975 740.1259,-96.837 749.5302,-98.0204"/>
<polygon fill="#191970" stroke="#191970" points="721.0152,-90.9049 710.6564,-93.129 720.1412,-97.8501 721.0152,-90.9049"/>
</g>
<!-- Node146 -->
<g id="node25" class="node">
<title>Node146</title>
<g id="a_node25"><a xlink:href="classEngine.html#a7a1521fd7fc731f961ebaf3f723127d9" target="_top" xlink:title="Engine::setTileIDOfNode">
<polygon fill="none" stroke="#000000" points="414,-24.5 414,-43.5 550,-43.5 550,-24.5 414,-24.5"/>
<text text-anchor="middle" x="482" y="-31.5" font-family="Helvetica,sans-Serif" font-size="10.00" fill="#000000">Engine::setTileIDOfNode</text>
</a>
</g>
</g>
<!-- Node145&#45;&gt;Node146 -->
<g id="edge35" class="edge">
<title>Node145&#45;&gt;Node146</title>
<path fill="none" stroke="#191970" d="M358.8454,-42.8419C376.8532,-41.549 396.1179,-40.1659 413.9354,-38.8867"/>
<polygon fill="#191970" stroke="#191970" points="358.4229,-39.3631 348.6992,-43.5703 358.9242,-46.3451 358.4229,-39.3631"/>
</g>
<!-- Node146&#45;&gt;Node124 -->
<g id="edge36" class="edge">
<title>Node146&#45;&gt;Node124</title>
<path fill="none" stroke="#191970" d="M560.2453,-28.7094C625.6339,-24.7444 721.3524,-20 805,-20 805,-20 805,-20 1123,-20 1232.5265,-20 1263.0337,-23.6638 1366,-61 1410.1803,-77.02 1456.514,-108.5875 1478.2812,-124.4405"/>
<polygon fill="#191970" stroke="#191970" points="559.7841,-25.231 550.0178,-29.3382 560.2137,-32.2178 559.7841,-25.231"/>
</g>
</g>
</svg>
        <g id="navigator" transform="translate(0 0)" fill="#404254">
                <rect fill="#f2f5e9" fill-opacity="0.5" stroke="#606060" stroke-width=".5" x="0" y="0" width="60" height="60"/>
                <use id="zoomplus" xlink:href="#zoomPlus" x="17" y="9" onmousedown="handleZoom(evt,'in')"/>
                <use id="zoomminus" xlink:href="#zoomMin" x="42" y="9" onmousedown="handleZoom(evt,'out')"/>
                <use id="reset" xlink:href="#resetDef" x="30" y="36" onmousedown="handleReset()"/>
                <g id="arrowUp" xlink:href="#dirArrow" transform="translate(30 24)" onmousedown="handlePan(0,-1)">
                  <use xlink:href="#rim" fill="#404040">
                        <set attributeName="fill" to="#808080" begin="arrowUp.mouseover" end="arrowUp.mouseout"/>
                  </use>
                  <path fill="none" stroke="white" stroke-width="1.5" d="M0,-3.0v7 M-2.5,-0.5L0,-3.0L2.5,-0.5"/>
                </g>
                <g id="arrowRight" xlink:href="#dirArrow" transform="rotate(90) translate(36 -43)" onmousedown="handlePan(1,0)">
                  <use xlink:href="#rim" fill="#404040">
                        <set attributeName="fill" to="#808080" begin="arrowRight.mouseover" end="arrowRight.mouseout"/>
                  </use>
                  <path fill="none" stroke="white" stroke-width="1.5" d="M0,-3.0v7 M-2.5,-0.5L0,-3.0L2.5,-0.5"/>
                </g>
                <g id="arrowDown" xlink:href="#dirArrow" transform="rotate(180) translate(-30 -48)" onmousedown="handlePan(0,1)">
                  <use xlink:href="#rim" fill="#404040">
                        <set attributeName="fill" to="#808080" begin="arrowDown.mouseover" end="arrowDown.mouseout"/>
                  </use>
                  <path fill="none" stroke="white" stroke-width="1.5" d="M0,-3.0v7 M-2.5,-0.5L0,-3.0L2.5,-0.5"/>
                </g>
                <g id="arrowLeft" xlink:href="#dirArrow" transform="rotate(270) translate(-36 17)" onmousedown="handlePan(-1,0)">
                  <use xlink:href="#rim" fill="#404040">
                        <set attributeName="fill" to="#808080" begin="arrowLeft.mouseover" end="arrowLeft.mouseout"/>
                  </use>
                  <path fill="none" stroke="white" stroke-width="1.5" d="M0,-3.0v7 M-2.5,-0.5L0,-3.0L2.5,-0.5"/>
                </g>
        </g>
        <svg viewBox="0 0 15 15" width="100%" height="30px" preserveAspectRatio="xMaxYMin meet">
         <g id="arrow_out" transform="scale(0.3 0.3)">
          <a xlink:href="classMapNode_a6b57e4355d0780fb37c34d63bbcdfdf9_icgraph_org.svg" target="_base">
           <rect id="button" ry="5" rx="5" y="6" x="6" height="38" width="38"
                fill="#f2f5e9" fill-opacity="0.5" stroke="#606060" stroke-width="1.0"/>
           <path id="arrow"
             d="M 11.500037,31.436501 C 11.940474,20.09759 22.043105,11.32322 32.158766,21.979434 L 37.068811,17.246167 C 37.068811,17.246167 37.088388,32 37.088388,32 L 22.160133,31.978069 C 22.160133,31.978069 26.997745,27.140456 26.997745,27.140456 C 18.528582,18.264221 13.291696,25.230495 11.500037,31.436501 z"
             style="fill:#404040;"/>
          </a>
         </g>
        </svg>
</svg>
