<?xml version="1.0" encoding="UTF-8" standalone="no"?>
<!DOCTYPE svg PUBLIC "-//W3C//DTD SVG 1.1//EN"
 "http://www.w3.org/Graphics/SVG/1.1/DTD/svg11.dtd">
<!-- Generated by graphviz version 2.40.1 (20161225.0304)
 -->
<!-- Title: Map::getNeighborNodes Pages: 1 -->
<!--zoomable 210 -->
<svg id="main" version="1.1" xmlns="http://www.w3.org/2000/svg" xmlns:xlink="http://www.w3.org/1999/xlink" xml:space="preserve" onload="init(evt)">
<style type="text/css"><![CDATA[
.edge:hover path { stroke: red; }
.edge:hover polygon { stroke: red; fill: red; }
]]></style>
<script type="text/javascript"><![CDATA[
var edges = document.getElementsByTagName('g');
if (edges && edges.length) {
  for (var i=0;i<edges.length;i++) {
    if (edges[i].id.substr(0,4)=='edge') {
      edges[i].setAttribute('class','edge');
    }
  }
}
]]></script>
        <defs>
                <circle id="rim" cx="0" cy="0" r="7"/>
                <circle id="rim2" cx="0" cy="0" r="3.5"/>
                <g id="zoomPlus">
                        <use xlink:href="#rim" fill="#404040">
                                <set attributeName="fill" to="#808080" begin="zoomplus.mouseover" end="zoomplus.mouseout"/>
                        </use>
                        <path d="M-4,0h8M0,-4v8" fill="none" stroke="white" stroke-width="1.5" pointer-events="none"/>
                </g>
                <g id="zoomMin">
                        <use xlink:href="#rim" fill="#404040">
                                <set attributeName="fill" to="#808080" begin="zoomminus.mouseover" end="zoomminus.mouseout"/>
                        </use>
                        <path d="M-4,0h8" fill="none" stroke="white" stroke-width="1.5" pointer-events="none"/>
                </g>
                <g id="dirArrow">
                        <path fill="none" stroke="white" stroke-width="1.5" d="M0,-3.0v7 M-2.5,-0.5L0,-3.0L2.5,-0.5"/>
                </g>
               <g id="resetDef">
                       <use xlink:href="#rim2" fill="#404040">
                               <set attributeName="fill" to="#808080" begin="reset.mouseover" end="reset.mouseout"/>
                       </use>
               </g>
        </defs>

<script type="text/javascript">
var viewWidth = 1685;
var viewHeight = 210;
var sectionId = 'dynsection-20';
</script>
<script xlink:href="svgpan.js"/>
<svg id="graph" class="graph">
<g id="viewport">
<title>Map::getNeighborNodes</title>
<!-- Node232 -->
<g id="node1" class="node">
<title>Node232</title>
<polygon fill="#bfbfbf" stroke="#000000" points="0,-144.4782 0,-163.4782 134,-163.4782 134,-144.4782 0,-144.4782"/>
<text text-anchor="middle" x="67" y="-151.4782" font-family="Helvetica,sans-Serif" font-size="10.00" fill="#000000">Map::getNeighborNodes</text>
</g>
<!-- Node233 -->
<g id="node2" class="node">
<title>Node233</title>
<g id="a_node2"><a xlink:href="classMap.html#ade1eeabf4e539f9dbfe2a96c97fda4e3" target="_top" xlink:title="Map::changeHeight">
<polygon fill="none" stroke="#000000" points="514,-144.4782 514,-163.4782 624,-163.4782 624,-144.4782 514,-144.4782"/>
<text text-anchor="middle" x="569" y="-151.4782" font-family="Helvetica,sans-Serif" font-size="10.00" fill="#000000">Map::changeHeight</text>
</a>
</g>
</g>
<!-- Node232&#45;&gt;Node233 -->
<g id="edge1" class="edge">
<title>Node232&#45;&gt;Node233</title>
<path fill="none" stroke="#191970" d="M144.3367,-154.5317C226.9498,-155.0374 361.7274,-155.617 478,-154.9782 489.5335,-154.9148 501.8889,-154.8063 513.6596,-154.6835"/>
<polygon fill="#191970" stroke="#191970" points="144.2986,-151.0315 134.2769,-154.4689 144.2548,-158.0313 144.2986,-151.0315"/>
</g>
<!-- Node242 -->
<g id="node11" class="node">
<title>Node242</title>
<g id="a_node11"><a xlink:href="classMap.html#af1e496c421981fe707890b0ba60cc20f" target="_top" xlink:title="Map::updateNodeNeighbors">
<polygon fill="none" stroke="#000000" points="170,-106.4782 170,-125.4782 322,-125.4782 322,-106.4782 170,-106.4782"/>
<text text-anchor="middle" x="246" y="-113.4782" font-family="Helvetica,sans-Serif" font-size="10.00" fill="#000000">Map::updateNodeNeighbors</text>
</a>
</g>
</g>
<!-- Node232&#45;&gt;Node242 -->
<g id="edge11" class="edge">
<title>Node232&#45;&gt;Node242</title>
<path fill="none" stroke="#191970" d="M122.0236,-142.2972C147.4082,-136.9083 177.1607,-130.5921 201.1556,-125.4982"/>
<polygon fill="#191970" stroke="#191970" points="121.2244,-138.8888 112.1693,-144.3892 122.6781,-145.7362 121.2244,-138.8888"/>
</g>
<!-- Node234 -->
<g id="node3" class="node">
<title>Node234</title>
<g id="a_node3"><a xlink:href="classMap.html#aba5154a4d917900679a3c0f7ec701561" target="_top" xlink:title="Increase Height Increases the height of the node and checks the surrounding tiles. Either draw a slope sprite or elevate the tile if necessary. ">
<polygon fill="none" stroke="#000000" points="664.5,-182.4782 664.5,-201.4782 780.5,-201.4782 780.5,-182.4782 664.5,-182.4782"/>
<text text-anchor="middle" x="722.5" y="-189.4782" font-family="Helvetica,sans-Serif" font-size="10.00" fill="#000000">Map::increaseHeight</text>
</a>
</g>
</g>
<!-- Node233&#45;&gt;Node234 -->
<g id="edge2" class="edge">
<title>Node233&#45;&gt;Node234</title>
<path fill="none" stroke="#191970" d="M617.6352,-166.0182C639.0799,-171.327 663.9226,-177.4769 684.044,-182.4581"/>
<polygon fill="#191970" stroke="#191970" points="618.2826,-162.5729 607.7345,-163.5672 616.6004,-169.3677 618.2826,-162.5729"/>
</g>
<!-- Node240 -->
<g id="node9" class="node">
<title>Node240</title>
<g id="a_node9"><a xlink:href="classMap.html#afb8cc864df90d273a5074872d635dc40" target="_top" xlink:title="Decrease Height Decreases the height of the node and checks the surrounding tiles. Either draw a slope sprite or lower the tile if necessary. ">
<polygon fill="none" stroke="#000000" points="663,-144.4782 663,-163.4782 782,-163.4782 782,-144.4782 663,-144.4782"/>
<text text-anchor="middle" x="722.5" y="-151.4782" font-family="Helvetica,sans-Serif" font-size="10.00" fill="#000000">Map::decreaseHeight</text>
</a>
</g>
</g>
<!-- Node233&#45;&gt;Node240 -->
<g id="edge8" class="edge">
<title>Node233&#45;&gt;Node240</title>
<path fill="none" stroke="#191970" d="M634.4846,-153.9782C643.8708,-153.9782 653.4869,-153.9782 662.7546,-153.9782"/>
<polygon fill="#191970" stroke="#191970" points="634.4171,-150.4783 624.417,-153.9782 634.417,-157.4783 634.4171,-150.4783"/>
</g>
<!-- Node235 -->
<g id="node4" class="node">
<title>Node235</title>
<g id="a_node4"><a xlink:href="classEngine.html#a4851ae1ff696c893741167fc0194fd77" target="_top" xlink:title="Increase Height Increases the height of the given map node Calls the according function of the Map ob...">
<polygon fill="none" stroke="#000000" points="989,-182.4782 989,-201.4782 1118,-201.4782 1118,-182.4782 989,-182.4782"/>
<text text-anchor="middle" x="1053.5" y="-189.4782" font-family="Helvetica,sans-Serif" font-size="10.00" fill="#000000">Engine::increaseHeight</text>
</a>
</g>
</g>
<!-- Node234&#45;&gt;Node235 -->
<g id="edge3" class="edge">
<title>Node234&#45;&gt;Node235</title>
<path fill="none" stroke="#191970" d="M790.717,-191.9782C848.796,-191.9782 931.6556,-191.9782 988.7264,-191.9782"/>
<polygon fill="#191970" stroke="#191970" points="790.5346,-188.4783 780.5346,-191.9782 790.5345,-195.4783 790.5346,-188.4783"/>
</g>
<!-- Node236 -->
<g id="node5" class="node">
<title>Node236</title>
<g id="a_node5"><a xlink:href="classEventManager.html#a65ec91fd5016d4f9c4167fb8babed2df" target="_top" xlink:title="EventManager::checkEvents">
<polygon fill="none" stroke="#000000" points="1166,-106.4782 1166,-125.4782 1320,-125.4782 1320,-106.4782 1166,-106.4782"/>
<text text-anchor="middle" x="1243" y="-113.4782" font-family="Helvetica,sans-Serif" font-size="10.00" fill="#000000">EventManager::checkEvents</text>
</a>
</g>
</g>
<!-- Node235&#45;&gt;Node236 -->
<g id="edge4" class="edge">
<title>Node235&#45;&gt;Node236</title>
<path fill="none" stroke="#191970" d="M1089.3728,-178.9056C1098.719,-175.4245 1108.7592,-171.618 1118,-167.9782 1154.0839,-153.7654 1195.5809,-136.2719 1220.5233,-125.631"/>
<polygon fill="#191970" stroke="#191970" points="1088.1099,-175.641 1079.9469,-182.395 1090.5401,-182.2056 1088.1099,-175.641"/>
</g>
<!-- Node237 -->
<g id="node6" class="node">
<title>Node237</title>
<g id="a_node6"><a xlink:href="classGame.html#a1c2ab25d5216b2f4b2fe41efd2c09114" target="_top" xlink:title="begins the game starts running the game ">
<polygon fill="none" stroke="#000000" points="1385.5,-106.4782 1385.5,-125.4782 1453.5,-125.4782 1453.5,-106.4782 1385.5,-106.4782"/>
<text text-anchor="middle" x="1419.5" y="-113.4782" font-family="Helvetica,sans-Serif" font-size="10.00" fill="#000000">Game::run</text>
</a>
</g>
</g>
<!-- Node236&#45;&gt;Node237 -->
<g id="edge5" class="edge">
<title>Node236&#45;&gt;Node237</title>
<path fill="none" stroke="#191970" d="M1330.3664,-115.9782C1349.9355,-115.9782 1369.5625,-115.9782 1385.398,-115.9782"/>
<polygon fill="#191970" stroke="#191970" points="1330.1587,-112.4783 1320.1587,-115.9782 1330.1587,-119.4783 1330.1587,-112.4783"/>
</g>
<!-- Node238 -->
<g id="node7" class="node">
<title>Node238</title>
<g id="a_node7"><a xlink:href="main_8cxx.html#af582d708d899e67ead623eac34a22387" target="_top" xlink:title="protected_main">
<polygon fill="none" stroke="#000000" points="1507,-87.4782 1507,-106.4782 1600,-106.4782 1600,-87.4782 1507,-87.4782"/>
<text text-anchor="middle" x="1553.5" y="-94.4782" font-family="Helvetica,sans-Serif" font-size="10.00" fill="#000000">protected_main</text>
</a>
</g>
</g>
<!-- Node237&#45;&gt;Node238 -->
<g id="edge6" class="edge">
<title>Node237&#45;&gt;Node238</title>
<path fill="none" stroke="#191970" d="M1463.8611,-109.6882C1477.6278,-107.7362 1492.8396,-105.5793 1506.7626,-103.6051"/>
<polygon fill="#191970" stroke="#191970" points="1463.0702,-106.2652 1453.6606,-111.1345 1464.0529,-113.1959 1463.0702,-106.2652"/>
</g>
<!-- Node239 -->
<g id="node8" class="node">
<title>Node239</title>
<g id="a_node8"><a xlink:href="main_8cxx.html#a3c04138a5bfe5d72780bb7e82a18e627" target="_top" xlink:title="main">
<polygon fill="none" stroke="#000000" points="1636,-87.4782 1636,-106.4782 1677,-106.4782 1677,-87.4782 1636,-87.4782"/>
<text text-anchor="middle" x="1656.5" y="-94.4782" font-family="Helvetica,sans-Serif" font-size="10.00" fill="#000000">main</text>
</a>
</g>
</g>
<!-- Node238&#45;&gt;Node239 -->
<g id="edge7" class="edge">
<title>Node238&#45;&gt;Node239</title>
<path fill="none" stroke="#191970" d="M1610.2133,-96.9782C1619.4322,-96.9782 1628.4259,-96.9782 1635.9965,-96.9782"/>
<polygon fill="#191970" stroke="#191970" points="1610.1782,-93.4783 1600.1782,-96.9782 1610.1781,-100.4783 1610.1782,-93.4783"/>
</g>
<!-- Node241 -->
<g id="node10" class="node">
<title>Node241</title>
<g id="a_node10"><a xlink:href="classEngine.html#a13572fdd7f6470dca48a14497f58980e" target="_top" xlink:title="Decrease Height Decreases the height of the given map node Calls the according function of the Map ob...">
<polygon fill="none" stroke="#000000" points="821,-144.4782 821,-163.4782 953,-163.4782 953,-144.4782 821,-144.4782"/>
<text text-anchor="middle" x="887" y="-151.4782" font-family="Helvetica,sans-Serif" font-size="10.00" fill="#000000">Engine::decreaseHeight</text>
</a>
</g>
</g>
<!-- Node240&#45;&gt;Node241 -->
<g id="edge9" class="edge">
<title>Node240&#45;&gt;Node241</title>
<path fill="none" stroke="#191970" d="M792.4434,-153.9782C801.8433,-153.9782 811.4627,-153.9782 820.7952,-153.9782"/>
<polygon fill="#191970" stroke="#191970" points="792.3537,-150.4783 782.3536,-153.9782 792.3536,-157.4783 792.3537,-150.4783"/>
</g>
<!-- Node241&#45;&gt;Node236 -->
<g id="edge10" class="edge">
<title>Node241&#45;&gt;Node236</title>
<path fill="none" stroke="#191970" d="M963.2157,-146.2146C1008.2509,-141.5885 1066.3831,-135.55 1118,-129.9782 1133.5233,-128.3025 1150.1263,-126.4708 1165.9948,-124.7008"/>
<polygon fill="#191970" stroke="#191970" points="962.8213,-142.7366 953.2309,-147.2392 963.5359,-149.7 962.8213,-142.7366"/>
</g>
<!-- Node242&#45;&gt;Node233 -->
<g id="edge12" class="edge">
<title>Node242&#45;&gt;Node233</title>
<path fill="none" stroke="#191970" d="M307.2144,-127.2528C323.667,-130.0394 341.4791,-132.8364 358,-134.9782 410.7063,-141.8112 471.1382,-146.9839 513.7817,-150.1936"/>
<polygon fill="#191970" stroke="#191970" points="307.6184,-123.771 297.1697,-125.5251 306.4317,-130.6697 307.6184,-123.771"/>
</g>
<!-- Node243 -->
<g id="node12" class="node">
<title>Node243</title>
<g id="a_node12"><a xlink:href="classMap.html#a481b37ba71ef0e51e836fc42805762dd" target="_top" xlink:title="Update all mapNodes Updates all mapNode and its adjacent tiles regarding height information, draws slopes for adjacent tiles and sets tiling for mapNode sprite if applicable. ">
<polygon fill="none" stroke="#000000" points="358,-68.4782 358,-87.4782 478,-87.4782 478,-68.4782 358,-68.4782"/>
<text text-anchor="middle" x="418" y="-75.4782" font-family="Helvetica,sans-Serif" font-size="10.00" fill="#000000">Map::updateAllNodes</text>
</a>
</g>
</g>
<!-- Node242&#45;&gt;Node243 -->
<g id="edge13" class="edge">
<title>Node242&#45;&gt;Node243</title>
<path fill="none" stroke="#191970" d="M299.1959,-104.2256C323.5166,-98.8524 351.9547,-92.5696 374.9092,-87.4982"/>
<polygon fill="#191970" stroke="#191970" points="298.4123,-100.8142 289.4029,-106.3892 299.9225,-107.6494 298.4123,-100.8142"/>
</g>
<!-- Node251 -->
<g id="node20" class="node">
<title>Node251</title>
<g id="a_node20"><a xlink:href="classMap.html#aa8cc2ed983007621bce12dd9d1b8ec5b" target="_top" xlink:title="Demolish a node This function gathers all tiles that should be demolished and invokes the nodes demol...">
<polygon fill="none" stroke="#000000" points="361.5,-106.4782 361.5,-125.4782 474.5,-125.4782 474.5,-106.4782 361.5,-106.4782"/>
<text text-anchor="middle" x="418" y="-113.4782" font-family="Helvetica,sans-Serif" font-size="10.00" fill="#000000">Map::demolishNode</text>
</a>
</g>
</g>
<!-- Node242&#45;&gt;Node251 -->
<g id="edge26" class="edge">
<title>Node242&#45;&gt;Node251</title>
<path fill="none" stroke="#191970" d="M332.4498,-109.2283C342.3104,-109.2319 352.1632,-109.3538 361.4896,-109.594"/>
<polygon fill="#191970" stroke="#191970" points="332.1794,-105.7292 322.1928,-109.2674 332.2061,-112.7291 332.1794,-105.7292"/>
</g>
<!-- Node244 -->
<g id="node13" class="node">
<title>Node244</title>
<g id="a_node13"><a xlink:href="classMap.html#a26eceeccd7b6ed693909b1927a25c67a" target="_top" xlink:title="Map::Map">
<polygon fill="none" stroke="#000000" points="537.5,-30.4782 537.5,-49.4782 600.5,-49.4782 600.5,-30.4782 537.5,-30.4782"/>
<text text-anchor="middle" x="569" y="-37.4782" font-family="Helvetica,sans-Serif" font-size="10.00" fill="#000000">Map::Map</text>
</a>
</g>
</g>
<!-- Node243&#45;&gt;Node244 -->
<g id="edge14" class="edge">
<title>Node243&#45;&gt;Node244</title>
<path fill="none" stroke="#191970" d="M466.097,-65.8743C489.2741,-60.0417 516.4375,-53.2058 537.0345,-48.0225"/>
<polygon fill="#191970" stroke="#191970" points="464.9471,-62.5545 456.1037,-68.3892 466.6555,-69.3428 464.9471,-62.5545"/>
</g>
<!-- Node245 -->
<g id="node14" class="node">
<title>Node245</title>
<g id="a_node14"><a xlink:href="classMap.html#afefe996cc1f62b61ec60d0ae415953bf" target="_top" xlink:title="Map::loadMapFromFile">
<polygon fill="none" stroke="#000000" points="660,-30.4782 660,-49.4782 785,-49.4782 785,-30.4782 660,-30.4782"/>
<text text-anchor="middle" x="722.5" y="-37.4782" font-family="Helvetica,sans-Serif" font-size="10.00" fill="#000000">Map::loadMapFromFile</text>
</a>
</g>
</g>
<!-- Node243&#45;&gt;Node245 -->
<g id="edge25" class="edge">
<title>Node243&#45;&gt;Node245</title>
<path fill="none" stroke="#191970" d="M488.2897,-73.2211C528.2007,-70.0884 579.023,-65.3744 624,-58.9782 641.7597,-56.4526 661.1736,-52.8836 678.0357,-49.5196"/>
<polygon fill="#191970" stroke="#191970" points="487.8281,-69.7461 478.1262,-74.0033 488.3653,-76.7255 487.8281,-69.7461"/>
</g>
<!-- Node244&#45;&gt;Node245 -->
<g id="edge15" class="edge">
<title>Node244&#45;&gt;Node245</title>
<path fill="none" stroke="#191970" d="M610.8303,-39.9782C625.8933,-39.9782 643.2371,-39.9782 659.6955,-39.9782"/>
<polygon fill="#191970" stroke="#191970" points="610.8053,-36.4783 600.8053,-39.9782 610.8053,-43.4783 610.8053,-36.4783"/>
</g>
<!-- Node246 -->
<g id="node15" class="node">
<title>Node246</title>
<g id="a_node15"><a xlink:href="classEngine.html#a83b7dbeee899b36a13d5b07c7ad87ebc" target="_top" xlink:title="Loads a saved game Loads a saved Game. ">
<polygon fill="none" stroke="#000000" points="834,-30.4782 834,-49.4782 940,-49.4782 940,-30.4782 834,-30.4782"/>
<text text-anchor="middle" x="887" y="-37.4782" font-family="Helvetica,sans-Serif" font-size="10.00" fill="#000000">Engine::loadGame</text>
</a>
</g>
</g>
<!-- Node245&#45;&gt;Node246 -->
<g id="edge16" class="edge">
<title>Node245&#45;&gt;Node246</title>
<path fill="none" stroke="#191970" d="M795.4461,-39.9782C808.3866,-39.9782 821.6382,-39.9782 833.8977,-39.9782"/>
<polygon fill="#191970" stroke="#191970" points="795.1597,-36.4783 785.1597,-39.9782 795.1596,-43.4783 795.1597,-36.4783"/>
</g>
<!-- Node247 -->
<g id="node16" class="node">
<title>Node247</title>
<g id="a_node16"><a xlink:href="classEngine.html#a0ba57971ffb5173ecc425461f65a4cd8" target="_top" xlink:title="Quits the game Sets m_running to false and quitting the game. ">
<polygon fill="none" stroke="#000000" points="1001.5,-68.4782 1001.5,-87.4782 1105.5,-87.4782 1105.5,-68.4782 1001.5,-68.4782"/>
<text text-anchor="middle" x="1053.5" y="-75.4782" font-family="Helvetica,sans-Serif" font-size="10.00" fill="#000000">Engine::quitGame</text>
</a>
</g>
</g>
<!-- Node246&#45;&gt;Node247 -->
<g id="edge17" class="edge">
<title>Node246&#45;&gt;Node247</title>
<path fill="none" stroke="#191970" d="M938.809,-51.8025C962.2825,-57.1598 989.6654,-63.4093 1011.7871,-68.4581"/>
<polygon fill="#191970" stroke="#191970" points="939.5431,-48.3801 929.015,-49.5672 937.9855,-55.2046 939.5431,-48.3801"/>
</g>
<!-- Node248 -->
<g id="node17" class="node">
<title>Node248</title>
<g id="a_node17"><a xlink:href="classUIManager.html#aa78e356fc3b356d790c848319d1c387e" target="_top" xlink:title="UIManager::setCallbackFunctions">
<polygon fill="none" stroke="#000000" points="1154,-30.4782 1154,-49.4782 1332,-49.4782 1332,-30.4782 1154,-30.4782"/>
<text text-anchor="middle" x="1243" y="-37.4782" font-family="Helvetica,sans-Serif" font-size="10.00" fill="#000000">UIManager::setCallbackFunctions</text>
</a>
</g>
</g>
<!-- Node246&#45;&gt;Node248 -->
<g id="edge23" class="edge">
<title>Node246&#45;&gt;Node248</title>
<path fill="none" stroke="#191970" d="M950.5355,-39.9782C1007.0967,-39.9782 1090.4356,-39.9782 1153.6965,-39.9782"/>
<polygon fill="#191970" stroke="#191970" points="950.2968,-36.4783 940.2968,-39.9782 950.2968,-43.4783 950.2968,-36.4783"/>
</g>
<!-- Node250 -->
<g id="node19" class="node">
<title>Node250</title>
<g id="a_node19"><a xlink:href="classGame.html#a560299f0291c281f7b44e7ef0dd7b264" target="_top" xlink:title="initializes and displays the main menu initializes and displays the main menu ">
<polygon fill="none" stroke="#000000" points="1368,-68.4782 1368,-87.4782 1471,-87.4782 1471,-68.4782 1368,-68.4782"/>
<text text-anchor="middle" x="1419.5" y="-75.4782" font-family="Helvetica,sans-Serif" font-size="10.00" fill="#000000">Game::mainMenu</text>
</a>
</g>
</g>
<!-- Node246&#45;&gt;Node250 -->
<g id="edge24" class="edge">
<title>Node246&#45;&gt;Node250</title>
<path fill="none" stroke="#191970" d="M933.866,-28.1673C1016.3522,-9.5144 1191.9939,20.6017 1332,-20.9782 1363.2834,-30.2689 1393.8332,-54.6745 1409.215,-68.3465"/>
<polygon fill="#191970" stroke="#191970" points="932.9968,-24.7758 924.0403,-30.4354 934.5713,-31.5964 932.9968,-24.7758"/>
</g>
<!-- Node247&#45;&gt;Node236 -->
<g id="edge18" class="edge">
<title>Node247&#45;&gt;Node236</title>
<path fill="none" stroke="#191970" d="M1111.3948,-89.5877C1138.346,-94.9922 1170.0102,-101.3417 1195.525,-106.4581"/>
<polygon fill="#191970" stroke="#191970" points="1111.8118,-86.1017 1101.3189,-87.5672 1110.4355,-92.9651 1111.8118,-86.1017"/>
</g>
<!-- Node247&#45;&gt;Node248 -->
<g id="edge19" class="edge">
<title>Node247&#45;&gt;Node248</title>
<path fill="none" stroke="#191970" d="M1111.3948,-66.3687C1138.346,-60.9642 1170.0102,-54.6147 1195.525,-49.4982"/>
<polygon fill="#191970" stroke="#191970" points="1110.4355,-62.9913 1101.3189,-68.3892 1111.8118,-69.8547 1110.4355,-62.9913"/>
</g>
<!-- Node249 -->
<g id="node18" class="node">
<title>Node249</title>
<g id="a_node18"><a xlink:href="classGame.html#a8272be134d16c277bb014ad6a22fc357" target="_top" xlink:title="Game::quit">
<polygon fill="none" stroke="#000000" points="1207.5,-68.4782 1207.5,-87.4782 1278.5,-87.4782 1278.5,-68.4782 1207.5,-68.4782"/>
<text text-anchor="middle" x="1243" y="-75.4782" font-family="Helvetica,sans-Serif" font-size="10.00" fill="#000000">Game::quit</text>
</a>
</g>
</g>
<!-- Node247&#45;&gt;Node249 -->
<g id="edge20" class="edge">
<title>Node247&#45;&gt;Node249</title>
<path fill="none" stroke="#191970" d="M1115.619,-77.9782C1146.001,-77.9782 1181.482,-77.9782 1207.27,-77.9782"/>
<polygon fill="#191970" stroke="#191970" points="1115.5324,-74.4783 1105.5324,-77.9782 1115.5323,-81.4783 1115.5324,-74.4783"/>
</g>
<!-- Node249&#45;&gt;Node250 -->
<g id="edge21" class="edge">
<title>Node249&#45;&gt;Node250</title>
<path fill="none" stroke="#191970" d="M1289.0403,-77.9782C1313.1836,-77.9782 1342.8403,-77.9782 1367.7739,-77.9782"/>
<polygon fill="#191970" stroke="#191970" points="1288.7174,-74.4783 1278.7174,-77.9782 1288.7174,-81.4783 1288.7174,-74.4783"/>
</g>
<!-- Node250&#45;&gt;Node238 -->
<g id="edge22" class="edge">
<title>Node250&#45;&gt;Node238</title>
<path fill="none" stroke="#191970" d="M1481.2457,-86.7332C1489.7846,-87.9439 1498.438,-89.1709 1506.6465,-90.3348"/>
<polygon fill="#191970" stroke="#191970" points="1481.7003,-83.2627 1471.3079,-85.3241 1480.7175,-90.1934 1481.7003,-83.2627"/>
</g>
<!-- Node251&#45;&gt;Node233 -->
<g id="edge28" class="edge">
<title>Node251&#45;&gt;Node233</title>
<path fill="none" stroke="#191970" d="M465.8431,-128.0182C486.9386,-133.327 511.3766,-139.4769 531.1703,-144.4581"/>
<polygon fill="#191970" stroke="#191970" points="466.6555,-124.6136 456.1037,-125.5672 464.9471,-131.4019 466.6555,-124.6136"/>
</g>
<!-- Node251&#45;&gt;Node236 -->
<g id="edge27" class="edge">
<title>Node251&#45;&gt;Node236</title>
<path fill="none" stroke="#191970" d="M485.0563,-115.9782C546.754,-115.9782 640.7932,-115.9782 722.5,-115.9782 722.5,-115.9782 722.5,-115.9782 887,-115.9782 983.1076,-115.9782 1093.8097,-115.9782 1165.9163,-115.9782"/>
<polygon fill="#191970" stroke="#191970" points="484.6818,-112.4783 474.6818,-115.9782 484.6818,-119.4783 484.6818,-112.4783"/>
</g>
<!-- Node251&#45;&gt;Node242 -->
<g id="edge29" class="edge">
<title>Node251&#45;&gt;Node242</title>
<path fill="none" stroke="#191970" d="M351.2975,-122.5748C341.7622,-122.7287 331.8932,-122.7668 322.1928,-122.689"/>
<polygon fill="#191970" stroke="#191970" points="351.5647,-126.0701 361.4896,-122.3623 351.4187,-119.0716 351.5647,-126.0701"/>
</g>
</g>
</svg>
        <g id="navigator" transform="translate(0 0)" fill="#404254">
                <rect fill="#f2f5e9" fill-opacity="0.5" stroke="#606060" stroke-width=".5" x="0" y="0" width="60" height="60"/>
                <use id="zoomplus" xlink:href="#zoomPlus" x="17" y="9" onmousedown="handleZoom(evt,'in')"/>
                <use id="zoomminus" xlink:href="#zoomMin" x="42" y="9" onmousedown="handleZoom(evt,'out')"/>
                <use id="reset" xlink:href="#resetDef" x="30" y="36" onmousedown="handleReset()"/>
                <g id="arrowUp" xlink:href="#dirArrow" transform="translate(30 24)" onmousedown="handlePan(0,-1)">
                  <use xlink:href="#rim" fill="#404040">
                        <set attributeName="fill" to="#808080" begin="arrowUp.mouseover" end="arrowUp.mouseout"/>
                  </use>
                  <path fill="none" stroke="white" stroke-width="1.5" d="M0,-3.0v7 M-2.5,-0.5L0,-3.0L2.5,-0.5"/>
                </g>
                <g id="arrowRight" xlink:href="#dirArrow" transform="rotate(90) translate(36 -43)" onmousedown="handlePan(1,0)">
                  <use xlink:href="#rim" fill="#404040">
                        <set attributeName="fill" to="#808080" begin="arrowRight.mouseover" end="arrowRight.mouseout"/>
                  </use>
                  <path fill="none" stroke="white" stroke-width="1.5" d="M0,-3.0v7 M-2.5,-0.5L0,-3.0L2.5,-0.5"/>
                </g>
                <g id="arrowDown" xlink:href="#dirArrow" transform="rotate(180) translate(-30 -48)" onmousedown="handlePan(0,1)">
                  <use xlink:href="#rim" fill="#404040">
                        <set attributeName="fill" to="#808080" begin="arrowDown.mouseover" end="arrowDown.mouseout"/>
                  </use>
                  <path fill="none" stroke="white" stroke-width="1.5" d="M0,-3.0v7 M-2.5,-0.5L0,-3.0L2.5,-0.5"/>
                </g>
                <g id="arrowLeft" xlink:href="#dirArrow" transform="rotate(270) translate(-36 17)" onmousedown="handlePan(-1,0)">
                  <use xlink:href="#rim" fill="#404040">
                        <set attributeName="fill" to="#808080" begin="arrowLeft.mouseover" end="arrowLeft.mouseout"/>
                  </use>
                  <path fill="none" stroke="white" stroke-width="1.5" d="M0,-3.0v7 M-2.5,-0.5L0,-3.0L2.5,-0.5"/>
                </g>
        </g>
        <svg viewBox="0 0 15 15" width="100%" height="30px" preserveAspectRatio="xMaxYMin meet">
         <g id="arrow_out" transform="scale(0.3 0.3)">
          <a xlink:href="classMap_ad360682917f0061dbba995d645c56212_icgraph_org.svg" target="_base">
           <rect id="button" ry="5" rx="5" y="6" x="6" height="38" width="38"
                fill="#f2f5e9" fill-opacity="0.5" stroke="#606060" stroke-width="1.0"/>
           <path id="arrow"
             d="M 11.500037,31.436501 C 11.940474,20.09759 22.043105,11.32322 32.158766,21.979434 L 37.068811,17.246167 C 37.068811,17.246167 37.088388,32 37.088388,32 L 22.160133,31.978069 C 22.160133,31.978069 26.997745,27.140456 26.997745,27.140456 C 18.528582,18.264221 13.291696,25.230495 11.500037,31.436501 z"
             style="fill:#404040;"/>
          </a>
         </g>
        </svg>
</svg>
