<?xml version="1.0" encoding="UTF-8" standalone="no"?>
<!DOCTYPE svg PUBLIC "-//W3C//DTD SVG 1.1//EN"
 "http://www.w3.org/Graphics/SVG/1.1/DTD/svg11.dtd">
<!-- Generated by graphviz version 2.40.1 (20161225.0304)
 -->
<!-- Title: Map::isClickWithinTile Pages: 1 -->
<svg width="991pt" height="47pt"
 viewBox="0.00 0.00 991.00 47.00" xmlns="http://www.w3.org/2000/svg" xmlns:xlink="http://www.w3.org/1999/xlink">
<g id="graph0" class="graph" transform="scale(1 1) rotate(0) translate(4 43)">
<title>Map::isClickWithinTile</title>
<!-- Node358 -->
<g id="node1" class="node">
<title>Node358</title>
<polygon fill="#bfbfbf" stroke="#000000" points="0,-.5 0,-19.5 125,-19.5 125,-.5 0,-.5"/>
<text text-anchor="middle" x="62.5" y="-7.5" font-family="Helvetica,sans-Serif" font-size="10.00" fill="#000000">Map::isClickWithinTile</text>
</g>
<!-- Node359 -->
<g id="node2" class="node">
<title>Node359</title>
<g id="a_node2"><a xlink:href="classMap.html#a64e71e521c539cf28828be9978c34889" target="_top" xlink:title="Returns the node at given screencoordinates. ">
<polygon fill="none" stroke="#000000" points="161,-.5 161,-19.5 277,-19.5 277,-.5 161,-.5"/>
<text text-anchor="middle" x="219" y="-7.5" font-family="Helvetica,sans-Serif" font-size="10.00" fill="#000000">Map::findNodeInMap</text>
</a>
</g>
</g>
<!-- Node358&#45;&gt;Node359 -->
<g id="edge1" class="edge">
<title>Node358&#45;&gt;Node359</title>
<path fill="none" stroke="#191970" d="M135.524,-10C144,-10 152.5581,-10 160.7982,-10"/>
<polygon fill="#191970" stroke="#191970" points="135.2528,-6.5001 125.2528,-10 135.2528,-13.5001 135.2528,-6.5001"/>
</g>
<!-- Node360 -->
<g id="node3" class="node">
<title>Node360</title>
<g id="a_node3"><a xlink:href="isoMath_8hxx.html#ad3c5f070c4a876bc6e8978635d02ce52" target="_top" xlink:title="converts screen space coordinates to isometric space coordinates. To convert screen coordinates in to...">
<polygon fill="none" stroke="#000000" points="313,-19.5 313,-38.5 483,-38.5 483,-19.5 313,-19.5"/>
<text text-anchor="middle" x="398" y="-26.5" font-family="Helvetica,sans-Serif" font-size="10.00" fill="#000000">convertScreenToIsoCoordinates</text>
</a>
</g>
</g>
<!-- Node359&#45;&gt;Node360 -->
<g id="edge2" class="edge">
<title>Node359&#45;&gt;Node360</title>
<path fill="none" stroke="#191970" d="M287.2057,-17.2397C295.6028,-18.131 304.2655,-19.0505 312.874,-19.9643"/>
<polygon fill="#191970" stroke="#191970" points="287.4298,-13.7439 277.1162,-16.1688 286.6908,-20.7048 287.4298,-13.7439"/>
</g>
<!-- Node361 -->
<g id="node4" class="node">
<title>Node361</title>
<g id="a_node4"><a xlink:href="classEventManager.html#a65ec91fd5016d4f9c4167fb8babed2df" target="_top" xlink:title="EventManager::checkEvents">
<polygon fill="none" stroke="#000000" points="519,-.5 519,-19.5 673,-19.5 673,-.5 519,-.5"/>
<text text-anchor="middle" x="596" y="-7.5" font-family="Helvetica,sans-Serif" font-size="10.00" fill="#000000">EventManager::checkEvents</text>
</a>
</g>
</g>
<!-- Node359&#45;&gt;Node361 -->
<g id="edge7" class="edge">
<title>Node359&#45;&gt;Node361</title>
<path fill="none" stroke="#191970" d="M287.2632,-10C352.5391,-10 450.8334,-10 518.9019,-10"/>
<polygon fill="#191970" stroke="#191970" points="287.0801,-6.5001 277.08,-10 287.08,-13.5001 287.0801,-6.5001"/>
</g>
<!-- Node360&#45;&gt;Node361 -->
<g id="edge3" class="edge">
<title>Node360&#45;&gt;Node361</title>
<path fill="none" stroke="#191970" d="M493.161,-19.8684C501.7436,-19.0448 510.3647,-18.2175 518.7658,-17.4114"/>
<polygon fill="#191970" stroke="#191970" points="492.7388,-16.3927 483.1189,-20.832 493.4075,-23.3607 492.7388,-16.3927"/>
</g>
<!-- Node362 -->
<g id="node5" class="node">
<title>Node362</title>
<g id="a_node5"><a xlink:href="classGame.html#a1c2ab25d5216b2f4b2fe41efd2c09114" target="_top" xlink:title="begins the game starts running the game ">
<polygon fill="none" stroke="#000000" points="709,-.5 709,-19.5 777,-19.5 777,-.5 709,-.5"/>
<text text-anchor="middle" x="743" y="-7.5" font-family="Helvetica,sans-Serif" font-size="10.00" fill="#000000">Game::run</text>
</a>
</g>
</g>
<!-- Node361&#45;&gt;Node362 -->
<g id="edge4" class="edge">
<title>Node361&#45;&gt;Node362</title>
<path fill="none" stroke="#191970" d="M683.5248,-10C692.4338,-10 701.0572,-10 708.845,-10"/>
<polygon fill="#191970" stroke="#191970" points="683.3744,-6.5001 673.3744,-10 683.3743,-13.5001 683.3744,-6.5001"/>
</g>
<!-- Node363 -->
<g id="node6" class="node">
<title>Node363</title>
<g id="a_node6"><a xlink:href="main_8cxx.html#af582d708d899e67ead623eac34a22387" target="_top" xlink:title="protected_main">
<polygon fill="none" stroke="#000000" points="813,-.5 813,-19.5 906,-19.5 906,-.5 813,-.5"/>
<text text-anchor="middle" x="859.5" y="-7.5" font-family="Helvetica,sans-Serif" font-size="10.00" fill="#000000">protected_main</text>
</a>
</g>
</g>
<!-- Node362&#45;&gt;Node363 -->
<g id="edge5" class="edge">
<title>Node362&#45;&gt;Node363</title>
<path fill="none" stroke="#191970" d="M787.2653,-10C795.5757,-10 804.2897,-10 812.6749,-10"/>
<polygon fill="#191970" stroke="#191970" points="787.0098,-6.5001 777.0098,-10 787.0098,-13.5001 787.0098,-6.5001"/>
</g>
<!-- Node364 -->
<g id="node7" class="node">
<title>Node364</title>
<g id="a_node7"><a xlink:href="main_8cxx.html#a3c04138a5bfe5d72780bb7e82a18e627" target="_top" xlink:title="main">
<polygon fill="none" stroke="#000000" points="942,-.5 942,-19.5 983,-19.5 983,-.5 942,-.5"/>
<text text-anchor="middle" x="962.5" y="-7.5" font-family="Helvetica,sans-Serif" font-size="10.00" fill="#000000">main</text>
</a>
</g>
</g>
<!-- Node363&#45;&gt;Node364 -->
<g id="edge6" class="edge">
<title>Node363&#45;&gt;Node364</title>
<path fill="none" stroke="#191970" d="M916.2133,-10C925.4322,-10 934.4259,-10 941.9965,-10"/>
<polygon fill="#191970" stroke="#191970" points="916.1782,-6.5001 906.1782,-10 916.1781,-13.5001 916.1782,-6.5001"/>
</g>
</g>
</svg>
