<?xml version="1.0" encoding="UTF-8" standalone="no"?>
<!DOCTYPE svg PUBLIC "-//W3C//DTD SVG 1.1//EN"
 "http://www.w3.org/Graphics/SVG/1.1/DTD/svg11.dtd">
<!-- Generated by graphviz version 2.40.1 (20161225.0304)
 -->
<!-- Title: Game::quit Pages: 1 -->
<svg width="1622pt" height="485pt"
 viewBox="0.00 0.00 1622.00 485.00" xmlns="http://www.w3.org/2000/svg" xmlns:xlink="http://www.w3.org/1999/xlink">
<g id="graph0" class="graph" transform="scale(1 1) rotate(0) translate(4 481)">
<title>Game::quit</title>
<!-- Node64 -->
<g id="node1" class="node">
<title>Node64</title>
<polygon fill="#bfbfbf" stroke="#000000" points="0,-457.5 0,-476.5 71,-476.5 71,-457.5 0,-457.5"/>
<text text-anchor="middle" x="35.5" y="-464.5" font-family="Helvetica,sans-Serif" font-size="10.00" fill="#000000">Game::quit</text>
</g>
<!-- Node65 -->
<g id="node2" class="node">
<title>Node65</title>
<g id="a_node2"><a xlink:href="classSingleton.html#af5cb1e5749949e2b68416cfb8d378044" target="_top" xlink:title="Get an instance of the singleton. ">
<polygon fill="none" stroke="#000000" points="1487.5,-317 1487.5,-347 1600.5,-347 1600.5,-317 1487.5,-317"/>
<text text-anchor="start" x="1495.5" y="-335" font-family="Helvetica,sans-Serif" font-size="10.00" fill="#000000">Singleton&lt; Settings</text>
<text text-anchor="middle" x="1544" y="-324" font-family="Helvetica,sans-Serif" font-size="10.00" fill="#000000"> &gt;::instance</text>
</a>
</g>
</g>
<!-- Node64&#45;&gt;Node65 -->
<g id="edge1" class="edge">
<title>Node64&#45;&gt;Node65</title>
<path fill="none" stroke="#191970" d="M71.0092,-461.051C121.7768,-458 218.0326,-458 300,-458 300,-458 300,-458 1151,-458 1284.5974,-458 1430.5603,-387.3572 1501.0898,-351.6817"/>
<polygon fill="#191970" stroke="#191970" points="1502.7912,-354.7432 1510.1256,-347.0974 1499.6241,-348.5007 1502.7912,-354.7432"/>
</g>
<!-- Node64&#45;&gt;Node65 -->
<g id="edge2" class="edge">
<title>Node64&#45;&gt;Node65</title>
<path fill="none" stroke="#191970" d="M71.0092,-472.949C121.7768,-476 218.0326,-476 300,-476 300,-476 300,-476 1151,-476 1296.0853,-476 1455.7539,-392.6859 1517.5549,-352.5947"/>
<polygon fill="#191970" stroke="#191970" points="1519.5635,-355.4623 1525.9496,-347.0083 1515.6854,-349.6347 1519.5635,-355.4623"/>
</g>
<!-- Node66 -->
<g id="node3" class="node">
<title>Node66</title>
<g id="a_node3"><a xlink:href="classEngine.html#a0ba57971ffb5173ecc425461f65a4cd8" target="_top" xlink:title="Quits the game Sets m_running to false and quitting the game. ">
<polygon fill="none" stroke="#000000" points="107,-410.5 107,-429.5 211,-429.5 211,-410.5 107,-410.5"/>
<text text-anchor="middle" x="159" y="-417.5" font-family="Helvetica,sans-Serif" font-size="10.00" fill="#000000">Engine::quitGame</text>
</a>
</g>
</g>
<!-- Node64&#45;&gt;Node66 -->
<g id="edge3" class="edge">
<title>Node64&#45;&gt;Node66</title>
<path fill="none" stroke="#191970" d="M60.4921,-457.4888C78.7845,-450.5274 103.8432,-440.9908 124.1085,-433.2785"/>
<polygon fill="#191970" stroke="#191970" points="125.52,-436.4863 133.6212,-429.6583 123.0302,-429.9441 125.52,-436.4863"/>
</g>
<!-- Node67 -->
<g id="node4" class="node">
<title>Node67</title>
<g id="a_node4"><a xlink:href="classEngine.html#a83b7dbeee899b36a13d5b07c7ad87ebc" target="_top" xlink:title="Loads a saved game Loads a saved Game. ">
<polygon fill="none" stroke="#000000" points="247,-387.5 247,-406.5 353,-406.5 353,-387.5 247,-387.5"/>
<text text-anchor="middle" x="300" y="-394.5" font-family="Helvetica,sans-Serif" font-size="10.00" fill="#000000">Engine::loadGame</text>
</a>
</g>
</g>
<!-- Node66&#45;&gt;Node67 -->
<g id="edge4" class="edge">
<title>Node66&#45;&gt;Node67</title>
<path fill="none" stroke="#191970" d="M211.1026,-411.501C219.4476,-410.1398 228.1623,-408.7182 236.7329,-407.3202"/>
<polygon fill="#191970" stroke="#191970" points="237.391,-410.7592 246.6971,-405.6948 236.264,-403.8505 237.391,-410.7592"/>
</g>
<!-- Node68 -->
<g id="node5" class="node">
<title>Node68</title>
<g id="a_node5"><a xlink:href="classMap.html#afefe996cc1f62b61ec60d0ae415953bf" target="_top" xlink:title="Map::loadMapFromFile">
<polygon fill="none" stroke="#000000" points="389,-363.5 389,-382.5 514,-382.5 514,-363.5 389,-363.5"/>
<text text-anchor="middle" x="451.5" y="-370.5" font-family="Helvetica,sans-Serif" font-size="10.00" fill="#000000">Map::loadMapFromFile</text>
</a>
</g>
</g>
<!-- Node67&#45;&gt;Node68 -->
<g id="edge5" class="edge">
<title>Node67&#45;&gt;Node68</title>
<path fill="none" stroke="#191970" d="M353.4132,-388.5385C362.4222,-387.1113 371.894,-385.6108 381.2533,-384.1282"/>
<polygon fill="#191970" stroke="#191970" points="382.0084,-387.5523 391.3376,-382.5307 380.9131,-380.6385 382.0084,-387.5523"/>
</g>
<!-- Node69 -->
<g id="node6" class="node">
<title>Node69</title>
<g id="a_node6"><a xlink:href="compression_8hxx.html#a25f341059256700f2f3ffd62d8113956" target="_top" xlink:title="decompresses given string Decompresses a given string. ">
<polygon fill="none" stroke="#000000" points="550,-325.5 550,-344.5 654,-344.5 654,-325.5 550,-325.5"/>
<text text-anchor="middle" x="602" y="-332.5" font-family="Helvetica,sans-Serif" font-size="10.00" fill="#000000">decompressString</text>
</a>
</g>
</g>
<!-- Node68&#45;&gt;Node69 -->
<g id="edge6" class="edge">
<title>Node68&#45;&gt;Node69</title>
<path fill="none" stroke="#191970" d="M489.4775,-363.411C509.1587,-358.4417 533.3907,-352.3233 554.3206,-347.0387"/>
<polygon fill="#191970" stroke="#191970" points="555.4567,-350.3617 564.2956,-344.5201 553.743,-343.5747 555.4567,-350.3617"/>
</g>
<!-- Node70 -->
<g id="node7" class="node">
<title>Node70</title>
<g id="a_node7"><a xlink:href="namespacefs.html#a69aff598da647e46953ebeb1e255963b" target="_top" xlink:title="fs::readFileAsString">
<polygon fill="none" stroke="#000000" points="1096,-388.5 1096,-407.5 1206,-407.5 1206,-388.5 1096,-388.5"/>
<text text-anchor="middle" x="1151" y="-395.5" font-family="Helvetica,sans-Serif" font-size="10.00" fill="#000000">fs::readFileAsString</text>
</a>
</g>
</g>
<!-- Node68&#45;&gt;Node70 -->
<g id="edge7" class="edge">
<title>Node68&#45;&gt;Node70</title>
<path fill="none" stroke="#191970" d="M494.4537,-382.5768C511.6442,-386.0707 531.6804,-389.7201 550,-392 762.6115,-418.4603 817.7558,-401.8002 1032,-400 1049.4448,-399.8534 1068.3265,-399.586 1085.8,-399.2933"/>
<polygon fill="#191970" stroke="#191970" points="1085.9657,-402.7911 1095.9038,-399.1189 1085.8448,-395.7921 1085.9657,-402.7911"/>
</g>
<!-- Node71 -->
<g id="node8" class="node">
<title>Node71</title>
<g id="a_node8"><a xlink:href="classMap.html#a26eceeccd7b6ed693909b1927a25c67a" target="_top" xlink:title="Map::Map">
<polygon fill="none" stroke="#000000" points="570.5,-363.5 570.5,-382.5 633.5,-382.5 633.5,-363.5 570.5,-363.5"/>
<text text-anchor="middle" x="602" y="-370.5" font-family="Helvetica,sans-Serif" font-size="10.00" fill="#000000">Map::Map</text>
</a>
</g>
</g>
<!-- Node68&#45;&gt;Node71 -->
<g id="edge8" class="edge">
<title>Node68&#45;&gt;Node71</title>
<path fill="none" stroke="#191970" d="M514.0181,-373C529.6151,-373 545.9636,-373 560.2777,-373"/>
<polygon fill="#191970" stroke="#191970" points="560.3012,-376.5001 570.3012,-373 560.3011,-369.5001 560.3012,-376.5001"/>
</g>
<!-- Node75 -->
<g id="node12" class="node">
<title>Node75</title>
<g id="a_node12"><a xlink:href="classMap.html#a481b37ba71ef0e51e836fc42805762dd" target="_top" xlink:title="Update all mapNodes Updates all mapNode and its adjacent tiles regarding height information, draws slopes for adjacent tiles and sets tiling for mapNode sprite if applicable. ">
<polygon fill="none" stroke="#000000" points="704,-284.5 704,-303.5 824,-303.5 824,-284.5 704,-284.5"/>
<text text-anchor="middle" x="764" y="-291.5" font-family="Helvetica,sans-Serif" font-size="10.00" fill="#000000">Map::updateAllNodes</text>
</a>
</g>
</g>
<!-- Node68&#45;&gt;Node75 -->
<g id="edge38" class="edge">
<title>Node68&#45;&gt;Node75</title>
<path fill="none" stroke="#191970" d="M464.0433,-363.3706C481.9931,-350.1666 516.5459,-326.8463 550,-316 596.2787,-300.9959 650.8674,-295.5648 693.3275,-293.8495"/>
<polygon fill="#191970" stroke="#191970" points="693.6976,-297.3389 703.5715,-293.4976 693.4573,-290.343 693.6976,-297.3389"/>
</g>
<!-- Node72 -->
<g id="node9" class="node">
<title>Node72</title>
<g id="a_node9"><a xlink:href="classMapLayers.html#a5db6ba7e194ada6a4d0334d0428ff89b" target="_top" xlink:title="Enable drawing layers. ">
<polygon fill="none" stroke="#000000" points="694,-322.5 694,-341.5 834,-341.5 834,-322.5 694,-322.5"/>
<text text-anchor="middle" x="764" y="-329.5" font-family="Helvetica,sans-Serif" font-size="10.00" fill="#000000">MapLayers::enableLayers</text>
</a>
</g>
</g>
<!-- Node71&#45;&gt;Node72 -->
<g id="edge9" class="edge">
<title>Node71&#45;&gt;Node72</title>
<path fill="none" stroke="#191970" d="M633.6198,-364.9975C657.1347,-359.0461 689.6282,-350.8225 716.2936,-344.0738"/>
<polygon fill="#191970" stroke="#191970" points="717.3615,-347.414 726.1971,-341.5674 715.644,-340.628 717.3615,-347.414"/>
</g>
<!-- Node73 -->
<g id="node10" class="node">
<title>Node73</title>
<g id="a_node10"><a xlink:href="classTerrainGenerator.html#afd2668a80a6f5043d2b8d6c7a5044ede" target="_top" xlink:title="TerrainGenerator::generate\lTerrain">
<polygon fill="none" stroke="#000000" points="690,-361 690,-391 838,-391 838,-361 690,-361"/>
<text text-anchor="start" x="698" y="-379" font-family="Helvetica,sans-Serif" font-size="10.00" fill="#000000">TerrainGenerator::generate</text>
<text text-anchor="middle" x="764" y="-368" font-family="Helvetica,sans-Serif" font-size="10.00" fill="#000000">Terrain</text>
</a>
</g>
</g>
<!-- Node71&#45;&gt;Node73 -->
<g id="edge10" class="edge">
<title>Node71&#45;&gt;Node73</title>
<path fill="none" stroke="#191970" d="M633.6198,-373.5856C646.9642,-373.8327 663.2001,-374.1333 679.6214,-374.4374"/>
<polygon fill="#191970" stroke="#191970" points="679.7827,-377.9409 689.8458,-374.6268 679.9124,-370.9421 679.7827,-377.9409"/>
</g>
<!-- Node71&#45;&gt;Node75 -->
<g id="edge14" class="edge">
<title>Node71&#45;&gt;Node75</title>
<path fill="none" stroke="#191970" d="M633.7594,-364.2544C640.7553,-361.5652 647.893,-358.1806 654,-354 674.0104,-340.302 669.3365,-325.6912 690,-313 693.5603,-310.8133 697.3647,-308.8771 701.2995,-307.1629"/>
<polygon fill="#191970" stroke="#191970" points="702.5921,-310.4157 710.6632,-303.5522 700.0736,-303.8844 702.5921,-310.4157"/>
</g>
<!-- Node73&#45;&gt;Node65 -->
<g id="edge13" class="edge">
<title>Node73&#45;&gt;Node65</title>
<path fill="none" stroke="#191970" d="M820.4319,-360.9547C837.5181,-357.0022 856.4166,-353.2258 874,-351 1093.3032,-323.2399 1356.063,-326.2163 1477.0311,-329.599"/>
<polygon fill="#191970" stroke="#191970" points="1477.145,-333.1037 1487.2422,-329.8951 1477.3479,-326.1066 1477.145,-333.1037"/>
</g>
<!-- Node74 -->
<g id="node11" class="node">
<title>Node74</title>
<g id="a_node11"><a xlink:href="classTerrainGenerator.html#ac94cfaeb9dc89453018399361da5174a" target="_top" xlink:title="TerrainGenerator::loadTerrain\lDataFromJSON">
<polygon fill="none" stroke="#000000" points="874,-361 874,-391 1032,-391 1032,-361 874,-361"/>
<text text-anchor="start" x="882" y="-379" font-family="Helvetica,sans-Serif" font-size="10.00" fill="#000000">TerrainGenerator::loadTerrain</text>
<text text-anchor="middle" x="953" y="-368" font-family="Helvetica,sans-Serif" font-size="10.00" fill="#000000">DataFromJSON</text>
</a>
</g>
</g>
<!-- Node73&#45;&gt;Node74 -->
<g id="edge11" class="edge">
<title>Node73&#45;&gt;Node74</title>
<path fill="none" stroke="#191970" d="M838.1554,-376C846.5547,-376 855.1792,-376 863.7461,-376"/>
<polygon fill="#191970" stroke="#191970" points="863.7594,-379.5001 873.7593,-376 863.7593,-372.5001 863.7594,-379.5001"/>
</g>
<!-- Node74&#45;&gt;Node70 -->
<g id="edge12" class="edge">
<title>Node74&#45;&gt;Node70</title>
<path fill="none" stroke="#191970" d="M1032.1085,-384.7898C1049.7706,-386.7523 1068.3137,-388.8126 1085.3621,-390.7069"/>
<polygon fill="#191970" stroke="#191970" points="1085.4373,-394.2367 1095.7627,-391.8625 1086.2104,-387.2795 1085.4373,-394.2367"/>
</g>
<!-- Node76 -->
<g id="node13" class="node">
<title>Node76</title>
<g id="a_node13"><a xlink:href="classMap.html#af1e496c421981fe707890b0ba60cc20f" target="_top" xlink:title="Map::updateNodeNeighbors">
<polygon fill="none" stroke="#000000" points="877,-177.5 877,-196.5 1029,-196.5 1029,-177.5 877,-177.5"/>
<text text-anchor="middle" x="953" y="-184.5" font-family="Helvetica,sans-Serif" font-size="10.00" fill="#000000">Map::updateNodeNeighbors</text>
</a>
</g>
</g>
<!-- Node75&#45;&gt;Node76 -->
<g id="edge15" class="edge">
<title>Node75&#45;&gt;Node76</title>
<path fill="none" stroke="#191970" d="M781.1058,-284.3157C814.4186,-265.4561 888.1562,-223.7105 927.3479,-201.5226"/>
<polygon fill="#191970" stroke="#191970" points="929.0911,-204.5577 936.069,-196.5853 925.6424,-198.4662 929.0911,-204.5577"/>
</g>
<!-- Node77 -->
<g id="node14" class="node">
<title>Node77</title>
<g id="a_node14"><a xlink:href="classMap.html#ad360682917f0061dbba995d645c56212" target="_top" xlink:title="Map::getNeighborNodes">
<polygon fill="none" stroke="#000000" points="1084,-196.5 1084,-215.5 1218,-215.5 1218,-196.5 1084,-196.5"/>
<text text-anchor="middle" x="1151" y="-203.5" font-family="Helvetica,sans-Serif" font-size="10.00" fill="#000000">Map::getNeighborNodes</text>
</a>
</g>
</g>
<!-- Node76&#45;&gt;Node77 -->
<g id="edge16" class="edge">
<title>Node76&#45;&gt;Node77</title>
<path fill="none" stroke="#191970" d="M1029.2687,-194.3187C1043.8735,-195.7202 1059.176,-197.1886 1073.8096,-198.5928"/>
<polygon fill="#191970" stroke="#191970" points="1073.5282,-202.0818 1083.8168,-199.5531 1074.1969,-195.1138 1073.5282,-202.0818"/>
</g>
<!-- Node80 -->
<g id="node17" class="node">
<title>Node80</title>
<g id="a_node17"><a xlink:href="classMap.html#a9751d8dc0c6b2b127400b05994118aba" target="_top" xlink:title="Map::updateHeight">
<polygon fill="none" stroke="#000000" points="1096.5,-22.5 1096.5,-41.5 1205.5,-41.5 1205.5,-22.5 1096.5,-22.5"/>
<text text-anchor="middle" x="1151" y="-29.5" font-family="Helvetica,sans-Serif" font-size="10.00" fill="#000000">Map::updateHeight</text>
</a>
</g>
</g>
<!-- Node76&#45;&gt;Node80 -->
<g id="edge20" class="edge">
<title>Node76&#45;&gt;Node80</title>
<path fill="none" stroke="#191970" d="M960.7926,-177.3958C978.2327,-156.3596 1022.4657,-105.5021 1068,-73 1083.1661,-62.1745 1101.6188,-52.7452 1117.2705,-45.6678"/>
<polygon fill="#191970" stroke="#191970" points="1118.8491,-48.7972 1126.5995,-41.5735 1116.036,-42.3873 1118.8491,-48.7972"/>
</g>
<!-- Node82 -->
<g id="node19" class="node">
<title>Node82</title>
<g id="a_node19"><a xlink:href="classMapNode.html#a67296a58e167356efbabeaac3226b5d3" target="_top" xlink:title="get iso coordinates of this node gets the iso coordinates of this node ">
<polygon fill="none" stroke="#000000" points="1282.5,-278.5 1282.5,-297.5 1425.5,-297.5 1425.5,-278.5 1282.5,-278.5"/>
<text text-anchor="middle" x="1354" y="-285.5" font-family="Helvetica,sans-Serif" font-size="10.00" fill="#000000">MapNode::getCoordinates</text>
</a>
</g>
</g>
<!-- Node76&#45;&gt;Node82 -->
<g id="edge22" class="edge">
<title>Node76&#45;&gt;Node82</title>
<path fill="none" stroke="#191970" d="M979.258,-196.5288C1002.4165,-204.7275 1037.1797,-216.5373 1068,-225 1110.6998,-236.7246 1227.6971,-261.6602 1298.1194,-276.4011"/>
<polygon fill="#191970" stroke="#191970" points="1297.6526,-279.8792 1308.1572,-278.4993 1299.0849,-273.0272 1297.6526,-279.8792"/>
</g>
<!-- Node83 -->
<g id="node20" class="node">
<title>Node83</title>
<g id="a_node20"><a xlink:href="classMap.html#a769a53961d4a0dd34ee080d2da8c171e" target="_top" xlink:title="Map::getElevatedNeighbor\lBitmask">
<polygon fill="none" stroke="#000000" points="1078,-273 1078,-303 1224,-303 1224,-273 1078,-273"/>
<text text-anchor="start" x="1086" y="-291" font-family="Helvetica,sans-Serif" font-size="10.00" fill="#000000">Map::getElevatedNeighbor</text>
<text text-anchor="middle" x="1151" y="-280" font-family="Helvetica,sans-Serif" font-size="10.00" fill="#000000">Bitmask</text>
</a>
</g>
</g>
<!-- Node76&#45;&gt;Node83 -->
<g id="edge23" class="edge">
<title>Node76&#45;&gt;Node83</title>
<path fill="none" stroke="#191970" d="M966.6328,-196.712C987.6444,-211.3764 1029.5466,-239.4262 1068,-258 1076.4991,-262.1053 1085.7139,-265.9719 1094.8078,-269.4771"/>
<polygon fill="#191970" stroke="#191970" points="1093.6134,-272.7671 1104.2058,-272.9938 1096.0667,-266.2111 1093.6134,-272.7671"/>
</g>
<!-- Node84 -->
<g id="node21" class="node">
<title>Node84</title>
<g id="a_node21"><a xlink:href="classMap.html#aa8cc2ed983007621bce12dd9d1b8ec5b" target="_top" xlink:title="Demolish a node This function gathers all tiles that should be demolished and invokes the nodes demol...">
<polygon fill="none" stroke="#000000" points="1094.5,-158.5 1094.5,-177.5 1207.5,-177.5 1207.5,-158.5 1094.5,-158.5"/>
<text text-anchor="middle" x="1151" y="-165.5" font-family="Helvetica,sans-Serif" font-size="10.00" fill="#000000">Map::demolishNode</text>
</a>
</g>
</g>
<!-- Node76&#45;&gt;Node84 -->
<g id="edge25" class="edge">
<title>Node76&#45;&gt;Node84</title>
<path fill="none" stroke="#191970" d="M994.0257,-177.4705C1019.9651,-173.8029 1054.103,-170.2486 1083.9166,-168.0093"/>
<polygon fill="#191970" stroke="#191970" points="1084.5345,-171.4743 1094.2611,-167.274 1084.0381,-164.4919 1084.5345,-171.4743"/>
</g>
<!-- Node89 -->
<g id="node26" class="node">
<title>Node89</title>
<g id="a_node26"><a xlink:href="classMap.html#af192be95053d30ea6c6d9327106bf6d8" target="_top" xlink:title="Get a bitmask that represents same&#45;tile neighbors Checks all neighboring tiles and returns the elevat...">
<polygon fill="none" stroke="#000000" points="1068,-82.5 1068,-101.5 1234,-101.5 1234,-82.5 1068,-82.5"/>
<text text-anchor="middle" x="1151" y="-89.5" font-family="Helvetica,sans-Serif" font-size="10.00" fill="#000000">Map::calculateAutotileBitmask</text>
</a>
</g>
</g>
<!-- Node76&#45;&gt;Node89 -->
<g id="edge34" class="edge">
<title>Node76&#45;&gt;Node89</title>
<path fill="none" stroke="#191970" d="M973.0749,-177.3681C1008.299,-160.4676 1081.3499,-125.418 1122.0402,-105.8949"/>
<polygon fill="#191970" stroke="#191970" points="1123.6644,-108.9976 1131.1663,-101.5162 1120.6363,-102.6865 1123.6644,-108.9976"/>
</g>
<!-- Node78 -->
<g id="node15" class="node">
<title>Node78</title>
<g id="a_node15"><a xlink:href="isoMath_8cxx.html#a7fa61c3d8ef446fb1c48dc4838023649" target="_top" xlink:title="Check if given coordinates are within map boundaries Checks if coordinates are within map boundaries...">
<polygon fill="none" stroke="#000000" points="1276,-202.5 1276,-221.5 1432,-221.5 1432,-202.5 1276,-202.5"/>
<text text-anchor="middle" x="1354" y="-209.5" font-family="Helvetica,sans-Serif" font-size="10.00" fill="#000000">isPointWithinMapBoundaries</text>
</a>
</g>
</g>
<!-- Node77&#45;&gt;Node78 -->
<g id="edge17" class="edge">
<title>Node77&#45;&gt;Node78</title>
<path fill="none" stroke="#191970" d="M1218.0324,-207.9813C1233.1901,-208.4293 1249.5115,-208.9117 1265.4039,-209.3814"/>
<polygon fill="#191970" stroke="#191970" points="1265.6699,-212.8907 1275.769,-209.6878 1265.8768,-205.8937 1265.6699,-212.8907"/>
</g>
<!-- Node79 -->
<g id="node16" class="node">
<title>Node79</title>
<g id="a_node16"><a xlink:href="classMap.html#a1676db3d125b2c1764adfcb64d6332a2" target="_top" xlink:title="Map::nodeIdx">
<polygon fill="none" stroke="#000000" points="1313,-240.5 1313,-259.5 1395,-259.5 1395,-240.5 1313,-240.5"/>
<text text-anchor="middle" x="1354" y="-247.5" font-family="Helvetica,sans-Serif" font-size="10.00" fill="#000000">Map::nodeIdx</text>
</a>
</g>
</g>
<!-- Node77&#45;&gt;Node79 -->
<g id="edge19" class="edge">
<title>Node77&#45;&gt;Node79</title>
<path fill="none" stroke="#191970" d="M1195.048,-215.5473C1226.7511,-222.419 1269.6044,-231.7074 1302.827,-238.9083"/>
<polygon fill="#191970" stroke="#191970" points="1302.2908,-242.3733 1312.8053,-241.0711 1303.7737,-235.5321 1302.2908,-242.3733"/>
</g>
<!-- Node78&#45;&gt;Node65 -->
<g id="edge18" class="edge">
<title>Node78&#45;&gt;Node65</title>
<path fill="none" stroke="#191970" d="M1414.6285,-221.5635C1422.7401,-224.0246 1430.7513,-227.1164 1438,-231 1474.1191,-250.3513 1506.7811,-285.3803 1526.0179,-308.6693"/>
<polygon fill="#191970" stroke="#191970" points="1523.4725,-311.0881 1532.4793,-316.6675 1528.9177,-306.6892 1523.4725,-311.0881"/>
</g>
<!-- Node81 -->
<g id="node18" class="node">
<title>Node81</title>
<g id="a_node18"><a xlink:href="classMapNode.html#a10dded7848621ba007c3d3fc85392e32" target="_top" xlink:title="Change Height Increases or decrease the height of the node and its sprite This function should not be...">
<polygon fill="none" stroke="#000000" points="1286,-.5 1286,-19.5 1422,-19.5 1422,-.5 1286,-.5"/>
<text text-anchor="middle" x="1354" y="-7.5" font-family="Helvetica,sans-Serif" font-size="10.00" fill="#000000">MapNode::changeHeight</text>
</a>
</g>
</g>
<!-- Node80&#45;&gt;Node81 -->
<g id="edge21" class="edge">
<title>Node80&#45;&gt;Node81</title>
<path fill="none" stroke="#191970" d="M1205.6673,-26.0755C1227.1492,-23.7474 1252.2159,-21.0308 1275.5634,-18.5005"/>
<polygon fill="#191970" stroke="#191970" points="1276.2337,-21.9485 1285.7984,-17.3913 1275.4794,-14.9892 1276.2337,-21.9485"/>
</g>
<!-- Node83&#45;&gt;Node82 -->
<g id="edge24" class="edge">
<title>Node83&#45;&gt;Node82</title>
<path fill="none" stroke="#191970" d="M1224.0009,-288C1239.5725,-288 1256.118,-288 1272.0014,-288"/>
<polygon fill="#191970" stroke="#191970" points="1272.3266,-291.5001 1282.3266,-288 1272.3266,-284.5001 1272.3266,-291.5001"/>
</g>
<!-- Node84&#45;&gt;Node76 -->
<g id="edge33" class="edge">
<title>Node84&#45;&gt;Node76</title>
<path fill="none" stroke="#191970" d="M1109.9461,-177.5335C1089.4621,-180.429 1063.8705,-183.2537 1039.3342,-185.4161"/>
<polygon fill="#191970" stroke="#191970" points="1038.9368,-181.9371 1029.2687,-186.2706 1039.529,-188.912 1038.9368,-181.9371"/>
</g>
<!-- Node84&#45;&gt;Node78 -->
<g id="edge26" class="edge">
<title>Node84&#45;&gt;Node78</title>
<path fill="none" stroke="#191970" d="M1195.048,-177.5473C1225.9057,-184.2357 1267.3268,-193.2137 1300.1491,-200.3279"/>
<polygon fill="#191970" stroke="#191970" points="1299.5235,-203.7735 1310.038,-202.4713 1301.0064,-196.9323 1299.5235,-203.7735"/>
</g>
<!-- Node84&#45;&gt;Node79 -->
<g id="edge27" class="edge">
<title>Node84&#45;&gt;Node79</title>
<path fill="none" stroke="#191970" d="M1207.8983,-175.7459C1217.0393,-178.4493 1226.0852,-182.0922 1234,-187 1255.4737,-200.3154 1248.5091,-217.7124 1270,-231 1279.836,-237.0815 1291.3961,-241.2225 1302.7406,-244.0405"/>
<polygon fill="#191970" stroke="#191970" points="1302.0896,-247.4808 1312.6058,-246.1919 1303.5812,-240.6415 1302.0896,-247.4808"/>
</g>
<!-- Node85 -->
<g id="node22" class="node">
<title>Node85</title>
<g id="a_node22"><a xlink:href="classMapNode.html#a6b57e4355d0780fb37c34d63bbcdfdf9" target="_top" xlink:title="MapNode::getMapNodeDataFor\lLayer">
<polygon fill="none" stroke="#000000" points="1270,-77 1270,-107 1438,-107 1438,-77 1270,-77"/>
<text text-anchor="start" x="1278" y="-95" font-family="Helvetica,sans-Serif" font-size="10.00" fill="#000000">MapNode::getMapNodeDataFor</text>
<text text-anchor="middle" x="1354" y="-84" font-family="Helvetica,sans-Serif" font-size="10.00" fill="#000000">Layer</text>
</a>
</g>
</g>
<!-- Node84&#45;&gt;Node85 -->
<g id="edge28" class="edge">
<title>Node84&#45;&gt;Node85</title>
<path fill="none" stroke="#191970" d="M1171.3491,-158.4234C1194.8158,-147.5811 1234.7016,-129.7683 1270,-117 1276.4409,-114.6702 1283.214,-112.3867 1290.0033,-110.2053"/>
<polygon fill="#191970" stroke="#191970" points="1291.4335,-113.4247 1299.9251,-107.0888 1289.3358,-106.7464 1291.4335,-113.4247"/>
</g>
<!-- Node86 -->
<g id="node23" class="node">
<title>Node86</title>
<g id="a_node23"><a xlink:href="classMapNode.html#ad74bb8fd5b519f5e909f0e807960a918" target="_top" xlink:title="MapNode::getOrigCornerPoint">
<polygon fill="none" stroke="#000000" points="1273.5,-126.5 1273.5,-145.5 1434.5,-145.5 1434.5,-126.5 1273.5,-126.5"/>
<text text-anchor="middle" x="1354" y="-133.5" font-family="Helvetica,sans-Serif" font-size="10.00" fill="#000000">MapNode::getOrigCornerPoint</text>
</a>
</g>
</g>
<!-- Node84&#45;&gt;Node86 -->
<g id="edge29" class="edge">
<title>Node84&#45;&gt;Node86</title>
<path fill="none" stroke="#191970" d="M1207.5468,-159.0862C1231.0559,-155.3803 1258.5971,-151.0389 1283.4128,-147.1271"/>
<polygon fill="#191970" stroke="#191970" points="1284.1641,-150.5519 1293.4971,-145.5374 1283.074,-143.6373 1284.1641,-150.5519"/>
</g>
<!-- Node87 -->
<g id="node24" class="node">
<title>Node87</title>
<g id="a_node24"><a xlink:href="classMap.html#a3952b445c55efce61c1ccac6f362fe89" target="_top" xlink:title="Return vector of Points of an Object Tiles selection. ">
<polygon fill="none" stroke="#000000" points="1292,-164.5 1292,-183.5 1416,-183.5 1416,-164.5 1292,-164.5"/>
<text text-anchor="middle" x="1354" y="-171.5" font-family="Helvetica,sans-Serif" font-size="10.00" fill="#000000">Map::getObjectCoords</text>
</a>
</g>
</g>
<!-- Node84&#45;&gt;Node87 -->
<g id="edge30" class="edge">
<title>Node84&#45;&gt;Node87</title>
<path fill="none" stroke="#191970" d="M1207.5468,-169.6713C1230.4382,-170.3479 1257.1525,-171.1375 1281.451,-171.8557"/>
<polygon fill="#191970" stroke="#191970" points="1281.5995,-175.3615 1291.6986,-172.1586 1281.8064,-168.3646 1281.5995,-175.3615"/>
</g>
<!-- Node87&#45;&gt;Node65 -->
<g id="edge31" class="edge">
<title>Node87&#45;&gt;Node65</title>
<path fill="none" stroke="#191970" d="M1416.1113,-182.8164C1423.8248,-185.3946 1431.3321,-188.7179 1438,-193 1482.664,-221.6829 1515.7774,-276.0571 1532.2745,-307.6274"/>
<polygon fill="#191970" stroke="#191970" points="1529.2039,-309.3107 1536.8552,-316.6393 1535.444,-306.1388 1529.2039,-309.3107"/>
</g>
<!-- Node88 -->
<g id="node25" class="node">
<title>Node88</title>
<g id="a_node25"><a xlink:href="classTileManager.html#a8ee071ff8b24926288437d310f9bc714" target="_top" xlink:title="TileManager::getTileData">
<polygon fill="none" stroke="#000000" points="1474,-164.5 1474,-183.5 1614,-183.5 1614,-164.5 1474,-164.5"/>
<text text-anchor="middle" x="1544" y="-171.5" font-family="Helvetica,sans-Serif" font-size="10.00" fill="#000000">TileManager::getTileData</text>
</a>
</g>
</g>
<!-- Node87&#45;&gt;Node88 -->
<g id="edge32" class="edge">
<title>Node87&#45;&gt;Node88</title>
<path fill="none" stroke="#191970" d="M1416.2131,-174C1431.3056,-174 1447.6566,-174 1463.4608,-174"/>
<polygon fill="#191970" stroke="#191970" points="1463.7487,-177.5001 1473.7487,-174 1463.7487,-170.5001 1463.7487,-177.5001"/>
</g>
<!-- Node89&#45;&gt;Node85 -->
<g id="edge35" class="edge">
<title>Node89&#45;&gt;Node85</title>
<path fill="none" stroke="#191970" d="M1234.1536,-92C1242.6531,-92 1251.3302,-92 1259.9356,-92"/>
<polygon fill="#191970" stroke="#191970" points="1259.9897,-95.5001 1269.9897,-92 1259.9897,-88.5001 1259.9897,-95.5001"/>
</g>
<!-- Node90 -->
<g id="node27" class="node">
<title>Node90</title>
<g id="a_node27"><a xlink:href="classMapNode.html#afb1cbc0f9e987b7befced46220dd9277" target="_top" xlink:title="check if specific layer can be autotiled. ">
<polygon fill="none" stroke="#000000" points="1282,-38.5 1282,-57.5 1426,-57.5 1426,-38.5 1282,-38.5"/>
<text text-anchor="middle" x="1354" y="-45.5" font-family="Helvetica,sans-Serif" font-size="10.00" fill="#000000">MapNode::isLayerAutoTile</text>
</a>
</g>
</g>
<!-- Node89&#45;&gt;Node90 -->
<g id="edge36" class="edge">
<title>Node89&#45;&gt;Node90</title>
<path fill="none" stroke="#191970" d="M1195.048,-82.4527C1225.9057,-75.7643 1267.3268,-66.7863 1300.1491,-59.6721"/>
<polygon fill="#191970" stroke="#191970" points="1301.0064,-63.0677 1310.038,-57.5287 1299.5235,-56.2265 1301.0064,-63.0677"/>
</g>
<!-- Node91 -->
<g id="node28" class="node">
<title>Node91</title>
<g id="a_node28"><a xlink:href="classMapNode.html#a64cb9a4523c9e78f256fde42f1dee43d" target="_top" xlink:title="check if specific Tile Data is autotile category. ">
<polygon fill="none" stroke="#000000" points="1474,-38.5 1474,-57.5 1614,-57.5 1614,-38.5 1474,-38.5"/>
<text text-anchor="middle" x="1544" y="-45.5" font-family="Helvetica,sans-Serif" font-size="10.00" fill="#000000">MapNode::isDataAutoTile</text>
</a>
</g>
</g>
<!-- Node90&#45;&gt;Node91 -->
<g id="edge37" class="edge">
<title>Node90&#45;&gt;Node91</title>
<path fill="none" stroke="#191970" d="M1426.1018,-48C1438.3221,-48 1451.0799,-48 1463.4991,-48"/>
<polygon fill="#191970" stroke="#191970" points="1463.8325,-51.5001 1473.8324,-48 1463.8324,-44.5001 1463.8325,-51.5001"/>
</g>
</g>
</svg>
