<?xml version="1.0" encoding="UTF-8" standalone="no"?>
<!DOCTYPE svg PUBLIC "-//W3C//DTD SVG 1.1//EN"
 "http://www.w3.org/Graphics/SVG/1.1/DTD/svg11.dtd">
<!-- Generated by graphviz version 2.40.1 (20161225.0304)
 -->
<!-- Title: EventManager::unHighlightNodes Pages: 1 -->
<svg width="436pt" height="78pt"
 viewBox="0.00 0.00 436.00 77.50" xmlns="http://www.w3.org/2000/svg" xmlns:xlink="http://www.w3.org/1999/xlink">
<g id="graph0" class="graph" transform="scale(1 1) rotate(0) translate(4 73.5)">
<title>EventManager::unHighlightNodes</title>
<!-- Node108 -->
<g id="node1" class="node">
<title>Node108</title>
<polygon fill="#bfbfbf" stroke="#000000" points="0,-17 0,-47 149,-47 149,-17 0,-17"/>
<text text-anchor="start" x="8" y="-35" font-family="Helvetica,sans-Serif" font-size="10.00" fill="#000000">EventManager::unHighlight</text>
<text text-anchor="middle" x="74.5" y="-24" font-family="Helvetica,sans-Serif" font-size="10.00" fill="#000000">Nodes</text>
</g>
<!-- Node109 -->
<g id="node2" class="node">
<title>Node109</title>
<g id="a_node2"><a xlink:href="classSingleton.html#af5cb1e5749949e2b68416cfb8d378044" target="_top" xlink:title="Get an instance of the singleton. ">
<polygon fill="none" stroke="#000000" points="188.5,-39 188.5,-69 306.5,-69 306.5,-39 188.5,-39"/>
<text text-anchor="start" x="196.5" y="-57" font-family="Helvetica,sans-Serif" font-size="10.00" fill="#000000">Singleton&lt; Engine &gt;</text>
<text text-anchor="middle" x="247.5" y="-46" font-family="Helvetica,sans-Serif" font-size="10.00" fill="#000000">::instance</text>
</a>
</g>
</g>
<!-- Node108&#45;&gt;Node109 -->
<g id="edge1" class="edge">
<title>Node108&#45;&gt;Node109</title>
<path fill="none" stroke="#191970" d="M149.1228,-41.4896C158.8965,-42.7325 168.8764,-44.0016 178.5506,-45.2319"/>
<polygon fill="#191970" stroke="#191970" points="178.1383,-48.7075 188.4999,-46.4971 179.0214,-41.7635 178.1383,-48.7075"/>
</g>
<!-- Node110 -->
<g id="node3" class="node">
<title>Node110</title>
<g id="a_node3"><a xlink:href="classMap.html#a4b2fa896a5346d86a4c5a4a84579839a" target="_top" xlink:title="Sets a node to be unhighlit This sets a node to be unhighlit, the highlighting is done during renderi...">
<polygon fill="none" stroke="#000000" points="185,-.5 185,-19.5 310,-19.5 310,-.5 185,-.5"/>
<text text-anchor="middle" x="247.5" y="-7.5" font-family="Helvetica,sans-Serif" font-size="10.00" fill="#000000">Map::unHighlightNode</text>
</a>
</g>
</g>
<!-- Node108&#45;&gt;Node110 -->
<g id="edge2" class="edge">
<title>Node108&#45;&gt;Node110</title>
<path fill="none" stroke="#191970" d="M149.1228,-22.5104C157.5748,-21.4356 166.1809,-20.3412 174.6103,-19.2692"/>
<polygon fill="#191970" stroke="#191970" points="175.3036,-22.7093 184.7822,-17.9757 174.4205,-15.7652 175.3036,-22.7093"/>
</g>
<!-- Node111 -->
<g id="node4" class="node">
<title>Node111</title>
<g id="a_node4"><a xlink:href="classMap.html#a1676db3d125b2c1764adfcb64d6332a2" target="_top" xlink:title="Map::nodeIdx">
<polygon fill="none" stroke="#000000" points="346,-.5 346,-19.5 428,-19.5 428,-.5 346,-.5"/>
<text text-anchor="middle" x="387" y="-7.5" font-family="Helvetica,sans-Serif" font-size="10.00" fill="#000000">Map::nodeIdx</text>
</a>
</g>
</g>
<!-- Node110&#45;&gt;Node111 -->
<g id="edge3" class="edge">
<title>Node110&#45;&gt;Node111</title>
<path fill="none" stroke="#191970" d="M310.3125,-10C318.7533,-10 327.3311,-10 335.5447,-10"/>
<polygon fill="#191970" stroke="#191970" points="335.7161,-13.5001 345.716,-10 335.716,-6.5001 335.7161,-13.5001"/>
</g>
</g>
</svg>
