<?xml version="1.0" encoding="UTF-8" standalone="no"?>
<!DOCTYPE svg PUBLIC "-//W3C//DTD SVG 1.1//EN"
 "http://www.w3.org/Graphics/SVG/1.1/DTD/svg11.dtd">
<!-- Generated by graphviz version 2.40.1 (20161225.0304)
 -->
<!-- Title: Map::loadMapFromFile Pages: 1 -->
<svg width="1233pt" height="476pt"
 viewBox="0.00 0.00 1233.00 475.50" xmlns="http://www.w3.org/2000/svg" xmlns:xlink="http://www.w3.org/1999/xlink">
<g id="graph0" class="graph" transform="scale(1 1) rotate(0) translate(4 471.5)">
<title>Map::loadMapFromFile</title>
<!-- Node373 -->
<g id="node1" class="node">
<title>Node373</title>
<polygon fill="#bfbfbf" stroke="#000000" points="0,-388 0,-407 125,-407 125,-388 0,-388"/>
<text text-anchor="middle" x="62.5" y="-395" font-family="Helvetica,sans-Serif" font-size="10.00" fill="#000000">Map::loadMapFromFile</text>
</g>
<!-- Node374 -->
<g id="node2" class="node">
<title>Node374</title>
<g id="a_node2"><a xlink:href="compression_8hxx.html#a25f341059256700f2f3ffd62d8113956" target="_top" xlink:title="decompresses given string Decompresses a given string. ">
<polygon fill="none" stroke="#000000" points="161,-448 161,-467 265,-467 265,-448 161,-448"/>
<text text-anchor="middle" x="213" y="-455" font-family="Helvetica,sans-Serif" font-size="10.00" fill="#000000">decompressString</text>
</a>
</g>
</g>
<!-- Node373&#45;&gt;Node374 -->
<g id="edge1" class="edge">
<title>Node373&#45;&gt;Node374</title>
<path fill="none" stroke="#191970" d="M86.3472,-407.0072C111.4075,-416.998 151.0372,-432.7972 179.2898,-444.0607"/>
<polygon fill="#191970" stroke="#191970" points="178.1809,-447.3865 188.766,-447.8386 180.7732,-440.8841 178.1809,-447.3865"/>
</g>
<!-- Node375 -->
<g id="node3" class="node">
<title>Node375</title>
<g id="a_node3"><a xlink:href="namespacefs.html#a69aff598da647e46953ebeb1e255963b" target="_top" xlink:title="fs::readFileAsString">
<polygon fill="none" stroke="#000000" points="707,-388 707,-407 817,-407 817,-388 707,-388"/>
<text text-anchor="middle" x="762" y="-395" font-family="Helvetica,sans-Serif" font-size="10.00" fill="#000000">fs::readFileAsString</text>
</a>
</g>
</g>
<!-- Node373&#45;&gt;Node375 -->
<g id="edge2" class="edge">
<title>Node373&#45;&gt;Node375</title>
<path fill="none" stroke="#191970" d="M125.2111,-398.554C231.6686,-400.1795 454.5515,-402.875 643,-400.5 660.4471,-400.2801 679.3296,-399.879 696.8031,-399.44"/>
<polygon fill="#191970" stroke="#191970" points="697.0008,-402.9362 706.9068,-399.1783 696.8195,-395.9385 697.0008,-402.9362"/>
</g>
<!-- Node376 -->
<g id="node4" class="node">
<title>Node376</title>
<g id="a_node4"><a xlink:href="classMap.html#a26eceeccd7b6ed693909b1927a25c67a" target="_top" xlink:title="Map::Map">
<polygon fill="none" stroke="#000000" points="181.5,-344 181.5,-363 244.5,-363 244.5,-344 181.5,-344"/>
<text text-anchor="middle" x="213" y="-351" font-family="Helvetica,sans-Serif" font-size="10.00" fill="#000000">Map::Map</text>
</a>
</g>
</g>
<!-- Node373&#45;&gt;Node376 -->
<g id="edge3" class="edge">
<title>Node373&#45;&gt;Node376</title>
<path fill="none" stroke="#191970" d="M95.1563,-387.9527C117.6472,-381.3772 147.7074,-372.5889 171.8379,-365.5341"/>
<polygon fill="#191970" stroke="#191970" points="172.8228,-368.8928 181.4388,-362.7272 170.8584,-362.174 172.8228,-368.8928"/>
</g>
<!-- Node381 -->
<g id="node9" class="node">
<title>Node381</title>
<g id="a_node9"><a xlink:href="classMap.html#a481b37ba71ef0e51e836fc42805762dd" target="_top" xlink:title="Update all mapNodes Updates all mapNode and its adjacent tiles regarding height information, draws slopes for adjacent tiles and sets tiling for mapNode sprite if applicable. ">
<polygon fill="none" stroke="#000000" points="315,-284 315,-303 435,-303 435,-284 315,-284"/>
<text text-anchor="middle" x="375" y="-291" font-family="Helvetica,sans-Serif" font-size="10.00" fill="#000000">Map::updateAllNodes</text>
</a>
</g>
</g>
<!-- Node373&#45;&gt;Node381 -->
<g id="edge33" class="edge">
<title>Node373&#45;&gt;Node381</title>
<path fill="none" stroke="#191970" d="M74.1205,-387.9482C91.7612,-373.9618 126.8678,-348.0996 161,-334.5 207.035,-316.1578 261.9923,-305.8517 304.6864,-300.1602"/>
<polygon fill="#191970" stroke="#191970" points="305.2321,-303.619 314.7073,-298.8785 304.344,-296.6755 305.2321,-303.619"/>
</g>
<!-- Node377 -->
<g id="node5" class="node">
<title>Node377</title>
<g id="a_node5"><a xlink:href="classMapLayers.html#a5db6ba7e194ada6a4d0334d0428ff89b" target="_top" xlink:title="Enable drawing layers. ">
<polygon fill="none" stroke="#000000" points="305,-322 305,-341 445,-341 445,-322 305,-322"/>
<text text-anchor="middle" x="375" y="-329" font-family="Helvetica,sans-Serif" font-size="10.00" fill="#000000">MapLayers::enableLayers</text>
</a>
</g>
</g>
<!-- Node376&#45;&gt;Node377 -->
<g id="edge4" class="edge">
<title>Node376&#45;&gt;Node377</title>
<path fill="none" stroke="#191970" d="M244.6198,-349.206C259.1483,-347.2329 277.1042,-344.7945 294.9953,-342.3648"/>
<polygon fill="#191970" stroke="#191970" points="295.4679,-345.8329 304.906,-341.0189 294.5259,-338.8965 295.4679,-345.8329"/>
</g>
<!-- Node378 -->
<g id="node6" class="node">
<title>Node378</title>
<g id="a_node6"><a xlink:href="classTerrainGenerator.html#afd2668a80a6f5043d2b8d6c7a5044ede" target="_top" xlink:title="TerrainGenerator::generate\lTerrain">
<polygon fill="none" stroke="#000000" points="301,-360.5 301,-390.5 449,-390.5 449,-360.5 301,-360.5"/>
<text text-anchor="start" x="309" y="-378.5" font-family="Helvetica,sans-Serif" font-size="10.00" fill="#000000">TerrainGenerator::generate</text>
<text text-anchor="middle" x="375" y="-367.5" font-family="Helvetica,sans-Serif" font-size="10.00" fill="#000000">Terrain</text>
</a>
</g>
</g>
<!-- Node376&#45;&gt;Node378 -->
<g id="edge5" class="edge">
<title>Node376&#45;&gt;Node378</title>
<path fill="none" stroke="#191970" d="M244.6198,-357.794C257.9642,-359.6063 274.2001,-361.8111 290.6214,-364.0412"/>
<polygon fill="#191970" stroke="#191970" points="290.4658,-367.5521 300.8458,-365.4297 291.4078,-360.6158 290.4658,-367.5521"/>
</g>
<!-- Node376&#45;&gt;Node381 -->
<g id="edge9" class="edge">
<title>Node376&#45;&gt;Node381</title>
<path fill="none" stroke="#191970" d="M233.7684,-343.9651C243.2941,-339.5788 254.7293,-334.2951 265,-329.5 281.033,-322.0147 284.3559,-318.505 301,-312.5 307.7764,-310.0551 315.0083,-307.7925 322.1974,-305.7447"/>
<polygon fill="#191970" stroke="#191970" points="323.2021,-309.0986 331.9274,-303.0886 321.3586,-302.3457 323.2021,-309.0986"/>
</g>
<!-- Node379 -->
<g id="node7" class="node">
<title>Node379</title>
<g id="a_node7"><a xlink:href="classTerrainGenerator.html#ac94cfaeb9dc89453018399361da5174a" target="_top" xlink:title="TerrainGenerator::loadTerrain\lDataFromJSON">
<polygon fill="none" stroke="#000000" points="485,-360.5 485,-390.5 643,-390.5 643,-360.5 485,-360.5"/>
<text text-anchor="start" x="493" y="-378.5" font-family="Helvetica,sans-Serif" font-size="10.00" fill="#000000">TerrainGenerator::loadTerrain</text>
<text text-anchor="middle" x="564" y="-367.5" font-family="Helvetica,sans-Serif" font-size="10.00" fill="#000000">DataFromJSON</text>
</a>
</g>
</g>
<!-- Node378&#45;&gt;Node379 -->
<g id="edge6" class="edge">
<title>Node378&#45;&gt;Node379</title>
<path fill="none" stroke="#191970" d="M449.1554,-375.5C457.5547,-375.5 466.1792,-375.5 474.7461,-375.5"/>
<polygon fill="#191970" stroke="#191970" points="474.7594,-379.0001 484.7593,-375.5 474.7593,-372.0001 474.7594,-379.0001"/>
</g>
<!-- Node380 -->
<g id="node8" class="node">
<title>Node380</title>
<g id="a_node8"><a xlink:href="classSingleton.html#af5cb1e5749949e2b68416cfb8d378044" target="_top" xlink:title="Get an instance of the singleton. ">
<polygon fill="none" stroke="#000000" points="1098.5,-240.5 1098.5,-270.5 1211.5,-270.5 1211.5,-240.5 1098.5,-240.5"/>
<text text-anchor="start" x="1106.5" y="-258.5" font-family="Helvetica,sans-Serif" font-size="10.00" fill="#000000">Singleton&lt; Settings</text>
<text text-anchor="middle" x="1155" y="-247.5" font-family="Helvetica,sans-Serif" font-size="10.00" fill="#000000"> &gt;::instance</text>
</a>
</g>
</g>
<!-- Node378&#45;&gt;Node380 -->
<g id="edge8" class="edge">
<title>Node378&#45;&gt;Node380</title>
<path fill="none" stroke="#191970" d="M436.3817,-360.4519C452.1448,-357.0444 469.133,-353.7672 485,-351.5 733.7388,-315.9582 807.6043,-382.2304 1049,-312.5 1076.2787,-304.6202 1104.465,-289.0449 1124.909,-276.1643"/>
<polygon fill="#191970" stroke="#191970" points="1126.9416,-279.0182 1133.4483,-270.6567 1123.1475,-273.1356 1126.9416,-279.0182"/>
</g>
<!-- Node379&#45;&gt;Node375 -->
<g id="edge7" class="edge">
<title>Node379&#45;&gt;Node375</title>
<path fill="none" stroke="#191970" d="M643.1085,-384.2898C660.7706,-386.2523 679.3137,-388.3126 696.3621,-390.2069"/>
<polygon fill="#191970" stroke="#191970" points="696.4373,-393.7367 706.7627,-391.3625 697.2104,-386.7795 696.4373,-393.7367"/>
</g>
<!-- Node382 -->
<g id="node10" class="node">
<title>Node382</title>
<g id="a_node10"><a xlink:href="classMap.html#af1e496c421981fe707890b0ba60cc20f" target="_top" xlink:title="Map::updateNodeNeighbors">
<polygon fill="none" stroke="#000000" points="488,-148 488,-167 640,-167 640,-148 488,-148"/>
<text text-anchor="middle" x="564" y="-155" font-family="Helvetica,sans-Serif" font-size="10.00" fill="#000000">Map::updateNodeNeighbors</text>
</a>
</g>
</g>
<!-- Node381&#45;&gt;Node382 -->
<g id="edge10" class="edge">
<title>Node381&#45;&gt;Node382</title>
<path fill="none" stroke="#191970" d="M388.2901,-283.9367C420.5521,-260.7217 503.2428,-201.2195 542.5831,-172.9111"/>
<polygon fill="#191970" stroke="#191970" points="544.6519,-175.7345 550.7246,-167.0527 540.5633,-170.0526 544.6519,-175.7345"/>
</g>
<!-- Node383 -->
<g id="node11" class="node">
<title>Node383</title>
<g id="a_node11"><a xlink:href="classMap.html#ad360682917f0061dbba995d645c56212" target="_top" xlink:title="Map::getNeighborNodes">
<polygon fill="none" stroke="#000000" points="695,-246 695,-265 829,-265 829,-246 695,-246"/>
<text text-anchor="middle" x="762" y="-253" font-family="Helvetica,sans-Serif" font-size="10.00" fill="#000000">Map::getNeighborNodes</text>
</a>
</g>
</g>
<!-- Node382&#45;&gt;Node383 -->
<g id="edge11" class="edge">
<title>Node382&#45;&gt;Node383</title>
<path fill="none" stroke="#191970" d="M583.3456,-167.0751C618.3892,-184.4199 692.5224,-221.1121 733.4183,-241.3535"/>
<polygon fill="#191970" stroke="#191970" points="732.061,-244.5869 742.5759,-245.886 735.1662,-238.3133 732.061,-244.5869"/>
</g>
<!-- Node386 -->
<g id="node14" class="node">
<title>Node386</title>
<g id="a_node14"><a xlink:href="classMap.html#a9751d8dc0c6b2b127400b05994118aba" target="_top" xlink:title="Map::updateHeight">
<polygon fill="none" stroke="#000000" points="707.5,-88 707.5,-107 816.5,-107 816.5,-88 707.5,-88"/>
<text text-anchor="middle" x="762" y="-95" font-family="Helvetica,sans-Serif" font-size="10.00" fill="#000000">Map::updateHeight</text>
</a>
</g>
</g>
<!-- Node382&#45;&gt;Node386 -->
<g id="edge15" class="edge">
<title>Node382&#45;&gt;Node386</title>
<path fill="none" stroke="#191970" d="M588.4026,-147.8569C611.4963,-138.9571 647.2562,-125.7573 679,-116.5 687.558,-114.0043 696.6899,-111.63 705.6503,-109.4585"/>
<polygon fill="#191970" stroke="#191970" points="706.7257,-112.8009 715.6543,-107.0973 705.1177,-105.9881 706.7257,-112.8009"/>
</g>
<!-- Node388 -->
<g id="node16" class="node">
<title>Node388</title>
<g id="a_node16"><a xlink:href="classMapNode.html#a67296a58e167356efbabeaac3226b5d3" target="_top" xlink:title="get iso coordinates of this node gets the iso coordinates of this node ">
<polygon fill="none" stroke="#000000" points="893.5,-6 893.5,-25 1036.5,-25 1036.5,-6 893.5,-6"/>
<text text-anchor="middle" x="965" y="-13" font-family="Helvetica,sans-Serif" font-size="10.00" fill="#000000">MapNode::getCoordinates</text>
</a>
</g>
</g>
<!-- Node382&#45;&gt;Node388 -->
<g id="edge17" class="edge">
<title>Node382&#45;&gt;Node388</title>
<path fill="none" stroke="#191970" d="M574.8781,-147.8431C594.3351,-131.0977 637.0025,-96.7219 679,-78.5 699.7288,-69.5062 829.5791,-42.6244 907.0057,-27.0345"/>
<polygon fill="#191970" stroke="#191970" points="907.9885,-30.4071 917.103,-25.0056 906.6094,-23.5443 907.9885,-30.4071"/>
</g>
<!-- Node389 -->
<g id="node17" class="node">
<title>Node389</title>
<g id="a_node17"><a xlink:href="classMap.html#a769a53961d4a0dd34ee080d2da8c171e" target="_top" xlink:title="Map::getElevatedNeighbor\lBitmask">
<polygon fill="none" stroke="#000000" points="689,-.5 689,-30.5 835,-30.5 835,-.5 689,-.5"/>
<text text-anchor="start" x="697" y="-18.5" font-family="Helvetica,sans-Serif" font-size="10.00" fill="#000000">Map::getElevatedNeighbor</text>
<text text-anchor="middle" x="762" y="-7.5" font-family="Helvetica,sans-Serif" font-size="10.00" fill="#000000">Bitmask</text>
</a>
</g>
</g>
<!-- Node382&#45;&gt;Node389 -->
<g id="edge18" class="edge">
<title>Node382&#45;&gt;Node389</title>
<path fill="none" stroke="#191970" d="M571.5742,-147.6931C588.5786,-126.2859 631.9968,-74.9365 679,-45.5 685.574,-41.3829 692.7938,-37.721 700.1469,-34.4952"/>
<polygon fill="#191970" stroke="#191970" points="701.5829,-37.689 709.4935,-30.641 698.9143,-31.2176 701.5829,-37.689"/>
</g>
<!-- Node390 -->
<g id="node18" class="node">
<title>Node390</title>
<g id="a_node18"><a xlink:href="classMap.html#aa8cc2ed983007621bce12dd9d1b8ec5b" target="_top" xlink:title="Demolish a node This function gathers all tiles that should be demolished and invokes the nodes demol...">
<polygon fill="none" stroke="#000000" points="705.5,-170 705.5,-189 818.5,-189 818.5,-170 705.5,-170"/>
<text text-anchor="middle" x="762" y="-177" font-family="Helvetica,sans-Serif" font-size="10.00" fill="#000000">Map::demolishNode</text>
</a>
</g>
</g>
<!-- Node382&#45;&gt;Node390 -->
<g id="edge20" class="edge">
<title>Node382&#45;&gt;Node390</title>
<path fill="none" stroke="#191970" d="M640.2687,-159.385C665.4927,-161.8252 692.7977,-165.1098 715.1432,-168.4563"/>
<polygon fill="#191970" stroke="#191970" points="714.6165,-171.9164 725.0357,-169.9955 715.6927,-164.9996 714.6165,-171.9164"/>
</g>
<!-- Node395 -->
<g id="node23" class="node">
<title>Node395</title>
<g id="a_node23"><a xlink:href="classMap.html#af192be95053d30ea6c6d9327106bf6d8" target="_top" xlink:title="Get a bitmask that represents same&#45;tile neighbors Checks all neighboring tiles and returns the elevat...">
<polygon fill="none" stroke="#000000" points="679,-126 679,-145 845,-145 845,-126 679,-126"/>
<text text-anchor="middle" x="762" y="-133" font-family="Helvetica,sans-Serif" font-size="10.00" fill="#000000">Map::calculateAutotileBitmask</text>
</a>
</g>
</g>
<!-- Node382&#45;&gt;Node395 -->
<g id="edge29" class="edge">
<title>Node382&#45;&gt;Node395</title>
<path fill="none" stroke="#191970" d="M640.2687,-149.0257C649.6478,-147.9836 659.3146,-146.9095 668.9072,-145.8436"/>
<polygon fill="#191970" stroke="#191970" points="669.3094,-149.3206 678.8617,-144.7376 668.5363,-142.3634 669.3094,-149.3206"/>
</g>
<!-- Node384 -->
<g id="node12" class="node">
<title>Node384</title>
<g id="a_node12"><a xlink:href="isoMath_8cxx.html#a7fa61c3d8ef446fb1c48dc4838023649" target="_top" xlink:title="Check if given coordinates are within map boundaries Checks if coordinates are within map boundaries...">
<polygon fill="none" stroke="#000000" points="887,-246 887,-265 1043,-265 1043,-246 887,-246"/>
<text text-anchor="middle" x="965" y="-253" font-family="Helvetica,sans-Serif" font-size="10.00" fill="#000000">isPointWithinMapBoundaries</text>
</a>
</g>
</g>
<!-- Node383&#45;&gt;Node384 -->
<g id="edge12" class="edge">
<title>Node383&#45;&gt;Node384</title>
<path fill="none" stroke="#191970" d="M829.0324,-255.5C844.1901,-255.5 860.5115,-255.5 876.4039,-255.5"/>
<polygon fill="#191970" stroke="#191970" points="876.769,-259.0001 886.769,-255.5 876.769,-252.0001 876.769,-259.0001"/>
</g>
<!-- Node385 -->
<g id="node13" class="node">
<title>Node385</title>
<g id="a_node13"><a xlink:href="classMap.html#a1676db3d125b2c1764adfcb64d6332a2" target="_top" xlink:title="Map::nodeIdx">
<polygon fill="none" stroke="#000000" points="924,-284 924,-303 1006,-303 1006,-284 924,-284"/>
<text text-anchor="middle" x="965" y="-291" font-family="Helvetica,sans-Serif" font-size="10.00" fill="#000000">Map::nodeIdx</text>
</a>
</g>
</g>
<!-- Node383&#45;&gt;Node385 -->
<g id="edge14" class="edge">
<title>Node383&#45;&gt;Node385</title>
<path fill="none" stroke="#191970" d="M812.9634,-265.04C843.7748,-270.8076 882.9275,-278.1367 913.7842,-283.9128"/>
<polygon fill="#191970" stroke="#191970" points="913.4333,-287.4078 923.9066,-285.8076 914.7213,-280.5273 913.4333,-287.4078"/>
</g>
<!-- Node384&#45;&gt;Node380 -->
<g id="edge13" class="edge">
<title>Node384&#45;&gt;Node380</title>
<path fill="none" stroke="#191970" d="M1043.1028,-255.5C1058.0103,-255.5 1073.4914,-255.5 1088.0134,-255.5"/>
<polygon fill="#191970" stroke="#191970" points="1088.3963,-259.0001 1098.3962,-255.5 1088.3962,-252.0001 1088.3963,-259.0001"/>
</g>
<!-- Node387 -->
<g id="node15" class="node">
<title>Node387</title>
<g id="a_node15"><a xlink:href="classMapNode.html#a10dded7848621ba007c3d3fc85392e32" target="_top" xlink:title="Change Height Increases or decrease the height of the node and its sprite This function should not be...">
<polygon fill="none" stroke="#000000" points="897,-44 897,-63 1033,-63 1033,-44 897,-44"/>
<text text-anchor="middle" x="965" y="-51" font-family="Helvetica,sans-Serif" font-size="10.00" fill="#000000">MapNode::changeHeight</text>
</a>
</g>
</g>
<!-- Node386&#45;&gt;Node387 -->
<g id="edge16" class="edge">
<title>Node386&#45;&gt;Node387</title>
<path fill="none" stroke="#191970" d="M806.048,-87.9527C836.9057,-81.2643 878.3268,-72.2863 911.1491,-65.1721"/>
<polygon fill="#191970" stroke="#191970" points="912.0064,-68.5677 921.038,-63.0287 910.5235,-61.7265 912.0064,-68.5677"/>
</g>
<!-- Node389&#45;&gt;Node388 -->
<g id="edge19" class="edge">
<title>Node389&#45;&gt;Node388</title>
<path fill="none" stroke="#191970" d="M835.0009,-15.5C850.5725,-15.5 867.118,-15.5 883.0014,-15.5"/>
<polygon fill="#191970" stroke="#191970" points="883.3266,-19.0001 893.3266,-15.5 883.3266,-12.0001 883.3266,-19.0001"/>
</g>
<!-- Node390&#45;&gt;Node382 -->
<g id="edge28" class="edge">
<title>Node390&#45;&gt;Node382</title>
<path fill="none" stroke="#191970" d="M705.4392,-179.3809C675.6572,-176.9441 639.5549,-172.8288 611.2793,-168.6068"/>
<polygon fill="#191970" stroke="#191970" points="611.6607,-165.1242 601.2423,-167.0495 610.5874,-172.0415 611.6607,-165.1242"/>
</g>
<!-- Node390&#45;&gt;Node384 -->
<g id="edge21" class="edge">
<title>Node390&#45;&gt;Node384</title>
<path fill="none" stroke="#191970" d="M778.829,-189.0547C801.4297,-201.5338 843.1348,-223.3364 881,-236.5 888.5303,-239.1178 896.5677,-241.4694 904.5744,-243.5521"/>
<polygon fill="#191970" stroke="#191970" points="903.7412,-246.9514 914.2895,-245.959 905.4246,-240.1568 903.7412,-246.9514"/>
</g>
<!-- Node390&#45;&gt;Node385 -->
<g id="edge22" class="edge">
<title>Node390&#45;&gt;Node385</title>
<path fill="none" stroke="#191970" d="M778.0094,-189.0779C795.2717,-199.7215 823.2051,-217.8764 845,-236.5 862.6868,-251.6133 860.7811,-262.9922 881,-274.5 891.0504,-280.2203 902.6953,-284.2184 914.0538,-287.0128"/>
<polygon fill="#191970" stroke="#191970" points="913.3973,-290.4519 923.9145,-289.1717 914.8945,-283.6139 913.3973,-290.4519"/>
</g>
<!-- Node391 -->
<g id="node19" class="node">
<title>Node391</title>
<g id="a_node19"><a xlink:href="classMapNode.html#a6b57e4355d0780fb37c34d63bbcdfdf9" target="_top" xlink:title="MapNode::getMapNodeDataFor\lLayer">
<polygon fill="none" stroke="#000000" points="881,-120.5 881,-150.5 1049,-150.5 1049,-120.5 881,-120.5"/>
<text text-anchor="start" x="889" y="-138.5" font-family="Helvetica,sans-Serif" font-size="10.00" fill="#000000">MapNode::getMapNodeDataFor</text>
<text text-anchor="middle" x="965" y="-127.5" font-family="Helvetica,sans-Serif" font-size="10.00" fill="#000000">Layer</text>
</a>
</g>
</g>
<!-- Node390&#45;&gt;Node391 -->
<g id="edge23" class="edge">
<title>Node390&#45;&gt;Node391</title>
<path fill="none" stroke="#191970" d="M806.048,-169.9527C829.3115,-164.9103 858.5789,-158.5666 885.6393,-152.7013"/>
<polygon fill="#191970" stroke="#191970" points="886.4623,-156.1043 895.4939,-150.5654 884.9794,-149.2632 886.4623,-156.1043"/>
</g>
<!-- Node392 -->
<g id="node20" class="node">
<title>Node392</title>
<g id="a_node20"><a xlink:href="classMapNode.html#ad74bb8fd5b519f5e909f0e807960a918" target="_top" xlink:title="MapNode::getOrigCornerPoint">
<polygon fill="none" stroke="#000000" points="884.5,-208 884.5,-227 1045.5,-227 1045.5,-208 884.5,-208"/>
<text text-anchor="middle" x="965" y="-215" font-family="Helvetica,sans-Serif" font-size="10.00" fill="#000000">MapNode::getOrigCornerPoint</text>
</a>
</g>
</g>
<!-- Node390&#45;&gt;Node392 -->
<g id="edge24" class="edge">
<title>Node390&#45;&gt;Node392</title>
<path fill="none" stroke="#191970" d="M812.9634,-189.04C840.5941,-194.2122 874.9328,-200.6401 903.9811,-206.0778"/>
<polygon fill="#191970" stroke="#191970" points="903.5423,-209.5563 914.0156,-207.9561 904.8303,-202.6758 903.5423,-209.5563"/>
</g>
<!-- Node393 -->
<g id="node21" class="node">
<title>Node393</title>
<g id="a_node21"><a xlink:href="classMap.html#a3952b445c55efce61c1ccac6f362fe89" target="_top" xlink:title="Return vector of Points of an Object Tiles selection. ">
<polygon fill="none" stroke="#000000" points="903,-170 903,-189 1027,-189 1027,-170 903,-170"/>
<text text-anchor="middle" x="965" y="-177" font-family="Helvetica,sans-Serif" font-size="10.00" fill="#000000">Map::getObjectCoords</text>
</a>
</g>
</g>
<!-- Node390&#45;&gt;Node393 -->
<g id="edge25" class="edge">
<title>Node390&#45;&gt;Node393</title>
<path fill="none" stroke="#191970" d="M818.5468,-179.5C841.4382,-179.5 868.1525,-179.5 892.451,-179.5"/>
<polygon fill="#191970" stroke="#191970" points="892.6986,-183.0001 902.6986,-179.5 892.6986,-176.0001 892.6986,-183.0001"/>
</g>
<!-- Node393&#45;&gt;Node380 -->
<g id="edge26" class="edge">
<title>Node393&#45;&gt;Node380</title>
<path fill="none" stroke="#191970" d="M1017.6226,-189.0998C1028.168,-191.6635 1039.057,-194.7811 1049,-198.5 1074.9127,-208.1919 1102.3766,-223.1063 1122.8552,-235.2482"/>
<polygon fill="#191970" stroke="#191970" points="1121.0879,-238.2695 1131.46,-240.4304 1124.6993,-232.273 1121.0879,-238.2695"/>
</g>
<!-- Node394 -->
<g id="node22" class="node">
<title>Node394</title>
<g id="a_node22"><a xlink:href="classTileManager.html#a8ee071ff8b24926288437d310f9bc714" target="_top" xlink:title="TileManager::getTileData">
<polygon fill="none" stroke="#000000" points="1085,-170 1085,-189 1225,-189 1225,-170 1085,-170"/>
<text text-anchor="middle" x="1155" y="-177" font-family="Helvetica,sans-Serif" font-size="10.00" fill="#000000">TileManager::getTileData</text>
</a>
</g>
</g>
<!-- Node393&#45;&gt;Node394 -->
<g id="edge27" class="edge">
<title>Node393&#45;&gt;Node394</title>
<path fill="none" stroke="#191970" d="M1027.2131,-179.5C1042.3056,-179.5 1058.6566,-179.5 1074.4608,-179.5"/>
<polygon fill="#191970" stroke="#191970" points="1074.7487,-183.0001 1084.7487,-179.5 1074.7487,-176.0001 1074.7487,-183.0001"/>
</g>
<!-- Node395&#45;&gt;Node391 -->
<g id="edge30" class="edge">
<title>Node395&#45;&gt;Node391</title>
<path fill="none" stroke="#191970" d="M845.1536,-135.5C853.6531,-135.5 862.3302,-135.5 870.9356,-135.5"/>
<polygon fill="#191970" stroke="#191970" points="870.9897,-139.0001 880.9897,-135.5 870.9897,-132.0001 870.9897,-139.0001"/>
</g>
<!-- Node396 -->
<g id="node24" class="node">
<title>Node396</title>
<g id="a_node24"><a xlink:href="classMapNode.html#afb1cbc0f9e987b7befced46220dd9277" target="_top" xlink:title="check if specific layer can be autotiled. ">
<polygon fill="none" stroke="#000000" points="893,-82 893,-101 1037,-101 1037,-82 893,-82"/>
<text text-anchor="middle" x="965" y="-89" font-family="Helvetica,sans-Serif" font-size="10.00" fill="#000000">MapNode::isLayerAutoTile</text>
</a>
</g>
</g>
<!-- Node395&#45;&gt;Node396 -->
<g id="edge31" class="edge">
<title>Node395&#45;&gt;Node396</title>
<path fill="none" stroke="#191970" d="M806.048,-125.9527C836.9057,-119.2643 878.3268,-110.2863 911.1491,-103.1721"/>
<polygon fill="#191970" stroke="#191970" points="912.0064,-106.5677 921.038,-101.0287 910.5235,-99.7265 912.0064,-106.5677"/>
</g>
<!-- Node397 -->
<g id="node25" class="node">
<title>Node397</title>
<g id="a_node25"><a xlink:href="classMapNode.html#a64cb9a4523c9e78f256fde42f1dee43d" target="_top" xlink:title="check if specific Tile Data is autotile category. ">
<polygon fill="none" stroke="#000000" points="1085,-82 1085,-101 1225,-101 1225,-82 1085,-82"/>
<text text-anchor="middle" x="1155" y="-89" font-family="Helvetica,sans-Serif" font-size="10.00" fill="#000000">MapNode::isDataAutoTile</text>
</a>
</g>
</g>
<!-- Node396&#45;&gt;Node397 -->
<g id="edge32" class="edge">
<title>Node396&#45;&gt;Node397</title>
<path fill="none" stroke="#191970" d="M1037.1018,-91.5C1049.3221,-91.5 1062.0799,-91.5 1074.4991,-91.5"/>
<polygon fill="#191970" stroke="#191970" points="1074.8325,-95.0001 1084.8324,-91.5 1074.8324,-88.0001 1074.8325,-95.0001"/>
</g>
</g>
</svg>
