<?xml version="1.0" encoding="UTF-8" standalone="no"?>
<!DOCTYPE svg PUBLIC "-//W3C//DTD SVG 1.1//EN"
 "http://www.w3.org/Graphics/SVG/1.1/DTD/svg11.dtd">
<!-- Generated by graphviz version 2.40.1 (20161225.0304)
 -->
<!-- Title: Map::Map Pages: 1 -->
<svg width="1031pt" height="403pt"
 viewBox="0.00 0.00 1031.00 402.50" xmlns="http://www.w3.org/2000/svg" xmlns:xlink="http://www.w3.org/1999/xlink">
<g id="graph0" class="graph" transform="scale(1 1) rotate(0) translate(4 398.5)">
<title>Map::Map</title>
<!-- Node0 -->
<g id="node1" class="node">
<title>Node0</title>
<polygon fill="#bfbfbf" stroke="#000000" points="0,-325.5 0,-344.5 63,-344.5 63,-325.5 0,-325.5"/>
<text text-anchor="middle" x="31.5" y="-332.5" font-family="Helvetica,sans-Serif" font-size="10.00" fill="#000000">Map::Map</text>
</g>
<!-- Node1 -->
<g id="node2" class="node">
<title>Node1</title>
<g id="a_node2"><a xlink:href="classMapLayers.html#a5db6ba7e194ada6a4d0334d0428ff89b" target="_top" xlink:title="Enable drawing layers. ">
<polygon fill="none" stroke="#000000" points="103,-369.5 103,-388.5 243,-388.5 243,-369.5 103,-369.5"/>
<text text-anchor="middle" x="173" y="-376.5" font-family="Helvetica,sans-Serif" font-size="10.00" fill="#000000">MapLayers::enableLayers</text>
</a>
</g>
</g>
<!-- Node0&#45;&gt;Node1 -->
<g id="edge1" class="edge">
<title>Node0&#45;&gt;Node1</title>
<path fill="none" stroke="#191970" d="M55.3472,-344.518C68.1739,-349.4629 84.3294,-355.4133 99,-360 106.7402,-362.4199 115.0041,-364.7677 123.1002,-366.9398"/>
<polygon fill="#191970" stroke="#191970" points="122.2851,-370.3443 132.8458,-369.4951 124.0605,-363.5732 122.2851,-370.3443"/>
</g>
<!-- Node2 -->
<g id="node3" class="node">
<title>Node2</title>
<g id="a_node3"><a xlink:href="classTerrainGenerator.html#afd2668a80a6f5043d2b8d6c7a5044ede" target="_top" xlink:title="TerrainGenerator::generate\lTerrain">
<polygon fill="none" stroke="#000000" points="99,-320 99,-350 247,-350 247,-320 99,-320"/>
<text text-anchor="start" x="107" y="-338" font-family="Helvetica,sans-Serif" font-size="10.00" fill="#000000">TerrainGenerator::generate</text>
<text text-anchor="middle" x="173" y="-327" font-family="Helvetica,sans-Serif" font-size="10.00" fill="#000000">Terrain</text>
</a>
</g>
</g>
<!-- Node0&#45;&gt;Node2 -->
<g id="edge2" class="edge">
<title>Node0&#45;&gt;Node2</title>
<path fill="none" stroke="#191970" d="M63.2554,-335C71.0108,-335 79.6754,-335 88.643,-335"/>
<polygon fill="#191970" stroke="#191970" points="88.8643,-338.5001 98.8643,-335 88.8643,-331.5001 88.8643,-338.5001"/>
</g>
<!-- Node6 -->
<g id="node7" class="node">
<title>Node6</title>
<g id="a_node7"><a xlink:href="classMap.html#a481b37ba71ef0e51e836fc42805762dd" target="_top" xlink:title="Update all mapNodes Updates all mapNode and its adjacent tiles regarding height information, draws slopes for adjacent tiles and sets tiling for mapNode sprite if applicable. ">
<polygon fill="none" stroke="#000000" points="113,-221.5 113,-240.5 233,-240.5 233,-221.5 113,-221.5"/>
<text text-anchor="middle" x="173" y="-228.5" font-family="Helvetica,sans-Serif" font-size="10.00" fill="#000000">Map::updateAllNodes</text>
</a>
</g>
</g>
<!-- Node0&#45;&gt;Node6 -->
<g id="edge6" class="edge">
<title>Node0&#45;&gt;Node6</title>
<path fill="none" stroke="#191970" d="M44.5583,-325.4023C68.9875,-307.4473 121.811,-268.623 151.544,-246.7698"/>
<polygon fill="#191970" stroke="#191970" points="153.9883,-249.317 159.9732,-240.5745 149.8427,-243.6766 153.9883,-249.317"/>
</g>
<!-- Node3 -->
<g id="node4" class="node">
<title>Node3</title>
<g id="a_node4"><a xlink:href="classTerrainGenerator.html#ac94cfaeb9dc89453018399361da5174a" target="_top" xlink:title="TerrainGenerator::loadTerrain\lDataFromJSON">
<polygon fill="none" stroke="#000000" points="283,-364 283,-394 441,-394 441,-364 283,-364"/>
<text text-anchor="start" x="291" y="-382" font-family="Helvetica,sans-Serif" font-size="10.00" fill="#000000">TerrainGenerator::loadTerrain</text>
<text text-anchor="middle" x="362" y="-371" font-family="Helvetica,sans-Serif" font-size="10.00" fill="#000000">DataFromJSON</text>
</a>
</g>
</g>
<!-- Node2&#45;&gt;Node3 -->
<g id="edge3" class="edge">
<title>Node2&#45;&gt;Node3</title>
<path fill="none" stroke="#191970" d="M237.5145,-350.0192C253.5433,-353.7508 270.8563,-357.7814 287.3276,-361.616"/>
<polygon fill="#191970" stroke="#191970" points="286.9224,-365.1152 297.4556,-363.9738 288.5097,-358.2975 286.9224,-365.1152"/>
</g>
<!-- Node5 -->
<g id="node6" class="node">
<title>Node5</title>
<g id="a_node6"><a xlink:href="classSingleton.html#af5cb1e5749949e2b68416cfb8d378044" target="_top" xlink:title="Get an instance of the singleton. ">
<polygon fill="none" stroke="#000000" points="896.5,-235 896.5,-265 1009.5,-265 1009.5,-235 896.5,-235"/>
<text text-anchor="start" x="904.5" y="-253" font-family="Helvetica,sans-Serif" font-size="10.00" fill="#000000">Singleton&lt; Settings</text>
<text text-anchor="middle" x="953" y="-242" font-family="Helvetica,sans-Serif" font-size="10.00" fill="#000000"> &gt;::instance</text>
</a>
</g>
</g>
<!-- Node2&#45;&gt;Node5 -->
<g id="edge5" class="edge">
<title>Node2&#45;&gt;Node5</title>
<path fill="none" stroke="#191970" d="M247.1231,-337.2111C398.1438,-340.961 736.5243,-345.2993 847,-313 876.306,-304.4319 905.8591,-285.8562 926.2877,-271.0833"/>
<polygon fill="#191970" stroke="#191970" points="928.5094,-273.7932 934.4569,-265.0252 924.3397,-268.1706 928.5094,-273.7932"/>
</g>
<!-- Node4 -->
<g id="node5" class="node">
<title>Node4</title>
<g id="a_node5"><a xlink:href="namespacefs.html#a69aff598da647e46953ebeb1e255963b" target="_top" xlink:title="fs::readFileAsString">
<polygon fill="none" stroke="#000000" points="505,-369.5 505,-388.5 615,-388.5 615,-369.5 505,-369.5"/>
<text text-anchor="middle" x="560" y="-376.5" font-family="Helvetica,sans-Serif" font-size="10.00" fill="#000000">fs::readFileAsString</text>
</a>
</g>
</g>
<!-- Node3&#45;&gt;Node4 -->
<g id="edge4" class="edge">
<title>Node3&#45;&gt;Node4</title>
<path fill="none" stroke="#191970" d="M441.1085,-379C458.7706,-379 477.3137,-379 494.3621,-379"/>
<polygon fill="#191970" stroke="#191970" points="494.7627,-382.5001 504.7627,-379 494.7627,-375.5001 494.7627,-382.5001"/>
</g>
<!-- Node7 -->
<g id="node8" class="node">
<title>Node7</title>
<g id="a_node8"><a xlink:href="classMap.html#af1e496c421981fe707890b0ba60cc20f" target="_top" xlink:title="Map::updateNodeNeighbors">
<polygon fill="none" stroke="#000000" points="286,-180.5 286,-199.5 438,-199.5 438,-180.5 286,-180.5"/>
<text text-anchor="middle" x="362" y="-187.5" font-family="Helvetica,sans-Serif" font-size="10.00" fill="#000000">Map::updateNodeNeighbors</text>
</a>
</g>
</g>
<!-- Node6&#45;&gt;Node7 -->
<g id="edge7" class="edge">
<title>Node6&#45;&gt;Node7</title>
<path fill="none" stroke="#191970" d="M216.8354,-221.4907C244.051,-215.5868 279.2263,-207.9562 308.1347,-201.6851"/>
<polygon fill="#191970" stroke="#191970" points="309.0446,-205.0692 318.0753,-199.5286 307.5606,-198.2283 309.0446,-205.0692"/>
</g>
<!-- Node8 -->
<g id="node9" class="node">
<title>Node8</title>
<g id="a_node9"><a xlink:href="classMap.html#ad360682917f0061dbba995d645c56212" target="_top" xlink:title="Map::getNeighborNodes">
<polygon fill="none" stroke="#000000" points="493,-199.5 493,-218.5 627,-218.5 627,-199.5 493,-199.5"/>
<text text-anchor="middle" x="560" y="-206.5" font-family="Helvetica,sans-Serif" font-size="10.00" fill="#000000">Map::getNeighborNodes</text>
</a>
</g>
</g>
<!-- Node7&#45;&gt;Node8 -->
<g id="edge8" class="edge">
<title>Node7&#45;&gt;Node8</title>
<path fill="none" stroke="#191970" d="M438.2687,-197.3187C452.8735,-198.7202 468.176,-200.1886 482.8096,-201.5928"/>
<polygon fill="#191970" stroke="#191970" points="482.5282,-205.0818 492.8168,-202.5531 483.1969,-198.1138 482.5282,-205.0818"/>
</g>
<!-- Node11 -->
<g id="node12" class="node">
<title>Node11</title>
<g id="a_node12"><a xlink:href="classMap.html#a9751d8dc0c6b2b127400b05994118aba" target="_top" xlink:title="Map::updateHeight">
<polygon fill="none" stroke="#000000" points="505.5,-22.5 505.5,-41.5 614.5,-41.5 614.5,-22.5 505.5,-22.5"/>
<text text-anchor="middle" x="560" y="-29.5" font-family="Helvetica,sans-Serif" font-size="10.00" fill="#000000">Map::updateHeight</text>
</a>
</g>
</g>
<!-- Node7&#45;&gt;Node11 -->
<g id="edge12" class="edge">
<title>Node7&#45;&gt;Node11</title>
<path fill="none" stroke="#191970" d="M369.4765,-180.4475C386.6198,-159.0213 430.852,-106.3946 477,-73 492.0955,-62.0762 510.5415,-52.6377 526.2071,-45.5795"/>
<polygon fill="#191970" stroke="#191970" points="527.7837,-48.7103 535.547,-41.5004 524.982,-42.2953 527.7837,-48.7103"/>
</g>
<!-- Node13 -->
<g id="node14" class="node">
<title>Node13</title>
<g id="a_node14"><a xlink:href="classMapNode.html#a67296a58e167356efbabeaac3226b5d3" target="_top" xlink:title="get iso coordinates of this node gets the iso coordinates of this node ">
<polygon fill="none" stroke="#000000" points="691.5,-284.5 691.5,-303.5 834.5,-303.5 834.5,-284.5 691.5,-284.5"/>
<text text-anchor="middle" x="763" y="-291.5" font-family="Helvetica,sans-Serif" font-size="10.00" fill="#000000">MapNode::getCoordinates</text>
</a>
</g>
</g>
<!-- Node7&#45;&gt;Node13 -->
<g id="edge14" class="edge">
<title>Node7&#45;&gt;Node13</title>
<path fill="none" stroke="#191970" d="M370.6457,-199.7095C388.3655,-218.8308 431.0256,-260.9818 477,-278 542.5542,-302.2661 622.3424,-304.7084 680.9711,-301.9768"/>
<polygon fill="#191970" stroke="#191970" points="681.4932,-305.4542 691.295,-301.4324 681.1246,-298.4639 681.4932,-305.4542"/>
</g>
<!-- Node14 -->
<g id="node15" class="node">
<title>Node14</title>
<g id="a_node15"><a xlink:href="classMap.html#a769a53961d4a0dd34ee080d2da8c171e" target="_top" xlink:title="Map::getElevatedNeighbor\lBitmask">
<polygon fill="none" stroke="#000000" points="487,-238 487,-268 633,-268 633,-238 487,-238"/>
<text text-anchor="start" x="495" y="-256" font-family="Helvetica,sans-Serif" font-size="10.00" fill="#000000">Map::getElevatedNeighbor</text>
<text text-anchor="middle" x="560" y="-245" font-family="Helvetica,sans-Serif" font-size="10.00" fill="#000000">Bitmask</text>
</a>
</g>
</g>
<!-- Node7&#45;&gt;Node14 -->
<g id="edge15" class="edge">
<title>Node7&#45;&gt;Node14</title>
<path fill="none" stroke="#191970" d="M390.2882,-199.5799C413.5248,-207.3931 447.3243,-218.6296 477,-228 484.1844,-230.2685 491.7329,-232.6059 499.2285,-234.8983"/>
<polygon fill="#191970" stroke="#191970" points="498.4309,-238.314 509.0167,-237.8766 500.4686,-231.6171 498.4309,-238.314"/>
</g>
<!-- Node15 -->
<g id="node16" class="node">
<title>Node15</title>
<g id="a_node16"><a xlink:href="classMap.html#aa8cc2ed983007621bce12dd9d1b8ec5b" target="_top" xlink:title="Demolish a node This function gathers all tiles that should be demolished and invokes the nodes demol...">
<polygon fill="none" stroke="#000000" points="503.5,-161.5 503.5,-180.5 616.5,-180.5 616.5,-161.5 503.5,-161.5"/>
<text text-anchor="middle" x="560" y="-168.5" font-family="Helvetica,sans-Serif" font-size="10.00" fill="#000000">Map::demolishNode</text>
</a>
</g>
</g>
<!-- Node7&#45;&gt;Node15 -->
<g id="edge17" class="edge">
<title>Node7&#45;&gt;Node15</title>
<path fill="none" stroke="#191970" d="M403.0257,-180.4705C428.9651,-176.8029 463.103,-173.2486 492.9166,-171.0093"/>
<polygon fill="#191970" stroke="#191970" points="493.5345,-174.4743 503.2611,-170.274 493.0381,-167.4919 493.5345,-174.4743"/>
</g>
<!-- Node20 -->
<g id="node21" class="node">
<title>Node20</title>
<g id="a_node21"><a xlink:href="classMap.html#af192be95053d30ea6c6d9327106bf6d8" target="_top" xlink:title="Get a bitmask that represents same&#45;tile neighbors Checks all neighboring tiles and returns the elevat...">
<polygon fill="none" stroke="#000000" points="477,-82.5 477,-101.5 643,-101.5 643,-82.5 477,-82.5"/>
<text text-anchor="middle" x="560" y="-89.5" font-family="Helvetica,sans-Serif" font-size="10.00" fill="#000000">Map::calculateAutotileBitmask</text>
</a>
</g>
</g>
<!-- Node7&#45;&gt;Node20 -->
<g id="edge26" class="edge">
<title>Node7&#45;&gt;Node20</title>
<path fill="none" stroke="#191970" d="M381.3456,-180.4249C416.3892,-163.0801 490.5224,-126.3879 531.4183,-106.1465"/>
<polygon fill="#191970" stroke="#191970" points="533.1662,-109.1867 540.5759,-101.614 530.061,-102.9131 533.1662,-109.1867"/>
</g>
<!-- Node9 -->
<g id="node10" class="node">
<title>Node9</title>
<g id="a_node10"><a xlink:href="isoMath_8cxx.html#a7fa61c3d8ef446fb1c48dc4838023649" target="_top" xlink:title="Check if given coordinates are within map boundaries Checks if coordinates are within map boundaries...">
<polygon fill="none" stroke="#000000" points="685,-240.5 685,-259.5 841,-259.5 841,-240.5 685,-240.5"/>
<text text-anchor="middle" x="763" y="-247.5" font-family="Helvetica,sans-Serif" font-size="10.00" fill="#000000">isPointWithinMapBoundaries</text>
</a>
</g>
</g>
<!-- Node8&#45;&gt;Node9 -->
<g id="edge9" class="edge">
<title>Node8&#45;&gt;Node9</title>
<path fill="none" stroke="#191970" d="M607.0825,-218.5093C636.5693,-224.4647 674.7554,-232.1772 705.9567,-238.4789"/>
<polygon fill="#191970" stroke="#191970" points="705.3266,-241.9223 715.8216,-240.4714 706.7125,-235.0608 705.3266,-241.9223"/>
</g>
<!-- Node10 -->
<g id="node11" class="node">
<title>Node10</title>
<g id="a_node11"><a xlink:href="classMap.html#a1676db3d125b2c1764adfcb64d6332a2" target="_top" xlink:title="Map::nodeIdx">
<polygon fill="none" stroke="#000000" points="722,-202.5 722,-221.5 804,-221.5 804,-202.5 722,-202.5"/>
<text text-anchor="middle" x="763" y="-209.5" font-family="Helvetica,sans-Serif" font-size="10.00" fill="#000000">Map::nodeIdx</text>
</a>
</g>
</g>
<!-- Node8&#45;&gt;Node10 -->
<g id="edge11" class="edge">
<title>Node8&#45;&gt;Node10</title>
<path fill="none" stroke="#191970" d="M627.0324,-209.9906C654.5395,-210.3971 685.8791,-210.8603 711.5324,-211.2394"/>
<polygon fill="#191970" stroke="#191970" points="711.7365,-214.7427 721.7871,-211.3909 711.84,-207.7435 711.7365,-214.7427"/>
</g>
<!-- Node9&#45;&gt;Node5 -->
<g id="edge10" class="edge">
<title>Node9&#45;&gt;Node5</title>
<path fill="none" stroke="#191970" d="M841.1028,-250C856.0103,-250 871.4914,-250 886.0134,-250"/>
<polygon fill="#191970" stroke="#191970" points="886.3963,-253.5001 896.3962,-250 886.3962,-246.5001 886.3963,-253.5001"/>
</g>
<!-- Node12 -->
<g id="node13" class="node">
<title>Node12</title>
<g id="a_node13"><a xlink:href="classMapNode.html#a10dded7848621ba007c3d3fc85392e32" target="_top" xlink:title="Change Height Increases or decrease the height of the node and its sprite This function should not be...">
<polygon fill="none" stroke="#000000" points="695,-.5 695,-19.5 831,-19.5 831,-.5 695,-.5"/>
<text text-anchor="middle" x="763" y="-7.5" font-family="Helvetica,sans-Serif" font-size="10.00" fill="#000000">MapNode::changeHeight</text>
</a>
</g>
</g>
<!-- Node11&#45;&gt;Node12 -->
<g id="edge13" class="edge">
<title>Node11&#45;&gt;Node12</title>
<path fill="none" stroke="#191970" d="M614.6673,-26.0755C636.1492,-23.7474 661.2159,-21.0308 684.5634,-18.5005"/>
<polygon fill="#191970" stroke="#191970" points="685.2337,-21.9485 694.7984,-17.3913 684.4794,-14.9892 685.2337,-21.9485"/>
</g>
<!-- Node14&#45;&gt;Node13 -->
<g id="edge16" class="edge">
<title>Node14&#45;&gt;Node13</title>
<path fill="none" stroke="#191970" d="M633.0009,-267.744C657.0617,-272.6036 683.4475,-277.9328 706.1234,-282.5126"/>
<polygon fill="#191970" stroke="#191970" points="705.432,-285.9436 715.927,-284.4926 706.8178,-279.0821 705.432,-285.9436"/>
</g>
<!-- Node15&#45;&gt;Node7 -->
<g id="edge25" class="edge">
<title>Node15&#45;&gt;Node7</title>
<path fill="none" stroke="#191970" d="M518.9461,-180.5335C498.4621,-183.429 472.8705,-186.2537 448.3342,-188.4161"/>
<polygon fill="#191970" stroke="#191970" points="447.9368,-184.9371 438.2687,-189.2706 448.529,-191.912 447.9368,-184.9371"/>
</g>
<!-- Node15&#45;&gt;Node9 -->
<g id="edge18" class="edge">
<title>Node15&#45;&gt;Node9</title>
<path fill="none" stroke="#191970" d="M616.7547,-178.9821C625.9122,-181.6582 635.0009,-185.2307 643,-190 663.8286,-202.4185 658.1554,-218.6085 679,-231 682.687,-233.1918 686.6025,-235.131 690.649,-236.8466"/>
<polygon fill="#191970" stroke="#191970" points="689.6903,-240.225 700.2826,-240.4578 692.1474,-233.6704 689.6903,-240.225"/>
</g>
<!-- Node15&#45;&gt;Node10 -->
<g id="edge19" class="edge">
<title>Node15&#45;&gt;Node10</title>
<path fill="none" stroke="#191970" d="M607.0825,-180.5093C638.366,-186.8276 679.4413,-195.1236 711.5788,-201.6144"/>
<polygon fill="#191970" stroke="#191970" points="711.1802,-205.1045 721.6752,-203.6536 712.5661,-198.2431 711.1802,-205.1045"/>
</g>
<!-- Node16 -->
<g id="node17" class="node">
<title>Node16</title>
<g id="a_node17"><a xlink:href="classMapNode.html#a6b57e4355d0780fb37c34d63bbcdfdf9" target="_top" xlink:title="MapNode::getMapNodeDataFor\lLayer">
<polygon fill="none" stroke="#000000" points="679,-77 679,-107 847,-107 847,-77 679,-77"/>
<text text-anchor="start" x="687" y="-95" font-family="Helvetica,sans-Serif" font-size="10.00" fill="#000000">MapNode::getMapNodeDataFor</text>
<text text-anchor="middle" x="763" y="-84" font-family="Helvetica,sans-Serif" font-size="10.00" fill="#000000">Layer</text>
</a>
</g>
</g>
<!-- Node15&#45;&gt;Node16 -->
<g id="edge20" class="edge">
<title>Node15&#45;&gt;Node16</title>
<path fill="none" stroke="#191970" d="M579.0342,-161.3831C602.2499,-149.884 642.8718,-130.5012 679,-117 685.3202,-114.6381 691.9713,-112.3444 698.6489,-110.166"/>
<polygon fill="#191970" stroke="#191970" points="699.9454,-113.4265 708.416,-107.0625 697.8256,-106.7552 699.9454,-113.4265"/>
</g>
<!-- Node17 -->
<g id="node18" class="node">
<title>Node17</title>
<g id="a_node18"><a xlink:href="classMapNode.html#ad74bb8fd5b519f5e909f0e807960a918" target="_top" xlink:title="MapNode::getOrigCornerPoint">
<polygon fill="none" stroke="#000000" points="682.5,-126.5 682.5,-145.5 843.5,-145.5 843.5,-126.5 682.5,-126.5"/>
<text text-anchor="middle" x="763" y="-133.5" font-family="Helvetica,sans-Serif" font-size="10.00" fill="#000000">MapNode::getOrigCornerPoint</text>
</a>
</g>
</g>
<!-- Node15&#45;&gt;Node17 -->
<g id="edge21" class="edge">
<title>Node15&#45;&gt;Node17</title>
<path fill="none" stroke="#191970" d="M615.2025,-161.4823C640.7087,-157.0847 671.179,-151.8312 697.8088,-147.2399"/>
<polygon fill="#191970" stroke="#191970" points="698.5486,-150.664 707.8085,-145.5158 697.3592,-143.7658 698.5486,-150.664"/>
</g>
<!-- Node18 -->
<g id="node19" class="node">
<title>Node18</title>
<g id="a_node19"><a xlink:href="classMap.html#a3952b445c55efce61c1ccac6f362fe89" target="_top" xlink:title="Return vector of Points of an Object Tiles selection. ">
<polygon fill="none" stroke="#000000" points="701,-164.5 701,-183.5 825,-183.5 825,-164.5 701,-164.5"/>
<text text-anchor="middle" x="763" y="-171.5" font-family="Helvetica,sans-Serif" font-size="10.00" fill="#000000">Map::getObjectCoords</text>
</a>
</g>
</g>
<!-- Node15&#45;&gt;Node18 -->
<g id="edge22" class="edge">
<title>Node15&#45;&gt;Node18</title>
<path fill="none" stroke="#191970" d="M616.5468,-171.8357C639.4382,-172.174 666.1525,-172.5688 690.451,-172.9278"/>
<polygon fill="#191970" stroke="#191970" points="690.6479,-176.431 700.6986,-173.0793 690.7514,-169.4318 690.6479,-176.431"/>
</g>
<!-- Node18&#45;&gt;Node5 -->
<g id="edge23" class="edge">
<title>Node18&#45;&gt;Node5</title>
<path fill="none" stroke="#191970" d="M815.6226,-183.5998C826.168,-186.1635 837.057,-189.2811 847,-193 872.9127,-202.6919 900.3766,-217.6063 920.8552,-229.7482"/>
<polygon fill="#191970" stroke="#191970" points="919.0879,-232.7695 929.46,-234.9304 922.6993,-226.773 919.0879,-232.7695"/>
</g>
<!-- Node19 -->
<g id="node20" class="node">
<title>Node19</title>
<g id="a_node20"><a xlink:href="classTileManager.html#a8ee071ff8b24926288437d310f9bc714" target="_top" xlink:title="TileManager::getTileData">
<polygon fill="none" stroke="#000000" points="883,-164.5 883,-183.5 1023,-183.5 1023,-164.5 883,-164.5"/>
<text text-anchor="middle" x="953" y="-171.5" font-family="Helvetica,sans-Serif" font-size="10.00" fill="#000000">TileManager::getTileData</text>
</a>
</g>
</g>
<!-- Node18&#45;&gt;Node19 -->
<g id="edge24" class="edge">
<title>Node18&#45;&gt;Node19</title>
<path fill="none" stroke="#191970" d="M825.2131,-174C840.3056,-174 856.6566,-174 872.4608,-174"/>
<polygon fill="#191970" stroke="#191970" points="872.7487,-177.5001 882.7487,-174 872.7487,-170.5001 872.7487,-177.5001"/>
</g>
<!-- Node20&#45;&gt;Node16 -->
<g id="edge27" class="edge">
<title>Node20&#45;&gt;Node16</title>
<path fill="none" stroke="#191970" d="M643.1536,-92C651.6531,-92 660.3302,-92 668.9356,-92"/>
<polygon fill="#191970" stroke="#191970" points="668.9897,-95.5001 678.9897,-92 668.9897,-88.5001 668.9897,-95.5001"/>
</g>
<!-- Node21 -->
<g id="node22" class="node">
<title>Node21</title>
<g id="a_node22"><a xlink:href="classMapNode.html#afb1cbc0f9e987b7befced46220dd9277" target="_top" xlink:title="check if specific layer can be autotiled. ">
<polygon fill="none" stroke="#000000" points="691,-38.5 691,-57.5 835,-57.5 835,-38.5 691,-38.5"/>
<text text-anchor="middle" x="763" y="-45.5" font-family="Helvetica,sans-Serif" font-size="10.00" fill="#000000">MapNode::isLayerAutoTile</text>
</a>
</g>
</g>
<!-- Node20&#45;&gt;Node21 -->
<g id="edge28" class="edge">
<title>Node20&#45;&gt;Node21</title>
<path fill="none" stroke="#191970" d="M604.048,-82.4527C634.9057,-75.7643 676.3268,-66.7863 709.1491,-59.6721"/>
<polygon fill="#191970" stroke="#191970" points="710.0064,-63.0677 719.038,-57.5287 708.5235,-56.2265 710.0064,-63.0677"/>
</g>
<!-- Node22 -->
<g id="node23" class="node">
<title>Node22</title>
<g id="a_node23"><a xlink:href="classMapNode.html#a64cb9a4523c9e78f256fde42f1dee43d" target="_top" xlink:title="check if specific Tile Data is autotile category. ">
<polygon fill="none" stroke="#000000" points="883,-38.5 883,-57.5 1023,-57.5 1023,-38.5 883,-38.5"/>
<text text-anchor="middle" x="953" y="-45.5" font-family="Helvetica,sans-Serif" font-size="10.00" fill="#000000">MapNode::isDataAutoTile</text>
</a>
</g>
</g>
<!-- Node21&#45;&gt;Node22 -->
<g id="edge29" class="edge">
<title>Node21&#45;&gt;Node22</title>
<path fill="none" stroke="#191970" d="M835.1018,-48C847.3221,-48 860.0799,-48 872.4991,-48"/>
<polygon fill="#191970" stroke="#191970" points="872.8325,-51.5001 882.8324,-48 872.8324,-44.5001 872.8325,-51.5001"/>
</g>
</g>
</svg>
