<?xml version="1.0" encoding="UTF-8" standalone="no"?>
<!DOCTYPE svg PUBLIC "-//W3C//DTD SVG 1.1//EN"
 "http://www.w3.org/Graphics/SVG/1.1/DTD/svg11.dtd">
<!-- Generated by graphviz version 2.40.1 (20161225.0304)
 -->
<!-- Title: Map::getNodeOrigCornerPoint Pages: 1 -->
<svg width="510pt" height="72pt"
 viewBox="0.00 0.00 510.00 71.50" xmlns="http://www.w3.org/2000/svg" xmlns:xlink="http://www.w3.org/1999/xlink">
<g id="graph0" class="graph" transform="scale(1 1) rotate(0) translate(4 67.5)">
<title>Map::getNodeOrigCornerPoint</title>
<!-- Node270 -->
<g id="node1" class="node">
<title>Node270</title>
<polygon fill="#bfbfbf" stroke="#000000" points="0,-19.5 0,-38.5 161,-38.5 161,-19.5 0,-19.5"/>
<text text-anchor="middle" x="80.5" y="-26.5" font-family="Helvetica,sans-Serif" font-size="10.00" fill="#000000">Map::getNodeOrigCornerPoint</text>
</g>
<!-- Node271 -->
<g id="node2" class="node">
<title>Node271</title>
<g id="a_node2"><a xlink:href="isoMath_8cxx.html#a7fa61c3d8ef446fb1c48dc4838023649" target="_top" xlink:title="Check if given coordinates are within map boundaries Checks if coordinates are within map boundaries...">
<polygon fill="none" stroke="#000000" points="197,-38.5 197,-57.5 353,-57.5 353,-38.5 197,-38.5"/>
<text text-anchor="middle" x="275" y="-45.5" font-family="Helvetica,sans-Serif" font-size="10.00" fill="#000000">isPointWithinMapBoundaries</text>
</a>
</g>
</g>
<!-- Node270&#45;&gt;Node271 -->
<g id="edge1" class="edge">
<title>Node270&#45;&gt;Node271</title>
<path fill="none" stroke="#191970" d="M161.0146,-36.8652C169.5026,-37.6943 178.166,-38.5406 186.7355,-39.3778"/>
<polygon fill="#191970" stroke="#191970" points="186.4432,-42.8658 196.7362,-40.3547 187.1239,-35.8989 186.4432,-42.8658"/>
</g>
<!-- Node273 -->
<g id="node4" class="node">
<title>Node273</title>
<g id="a_node4"><a xlink:href="classMap.html#a1676db3d125b2c1764adfcb64d6332a2" target="_top" xlink:title="Map::nodeIdx">
<polygon fill="none" stroke="#000000" points="234,-.5 234,-19.5 316,-19.5 316,-.5 234,-.5"/>
<text text-anchor="middle" x="275" y="-7.5" font-family="Helvetica,sans-Serif" font-size="10.00" fill="#000000">Map::nodeIdx</text>
</a>
</g>
</g>
<!-- Node270&#45;&gt;Node273 -->
<g id="edge3" class="edge">
<title>Node270&#45;&gt;Node273</title>
<path fill="none" stroke="#191970" d="M161.0146,-21.1348C182.2755,-19.0579 204.6366,-16.8735 223.867,-14.995"/>
<polygon fill="#191970" stroke="#191970" points="224.2953,-18.4699 233.9076,-14.0142 223.6146,-11.5031 224.2953,-18.4699"/>
</g>
<!-- Node272 -->
<g id="node3" class="node">
<title>Node272</title>
<g id="a_node3"><a xlink:href="classSingleton.html#af5cb1e5749949e2b68416cfb8d378044" target="_top" xlink:title="Get an instance of the singleton. ">
<polygon fill="none" stroke="#000000" points="389,-33 389,-63 502,-63 502,-33 389,-33"/>
<text text-anchor="start" x="397" y="-51" font-family="Helvetica,sans-Serif" font-size="10.00" fill="#000000">Singleton&lt; Settings</text>
<text text-anchor="middle" x="445.5" y="-40" font-family="Helvetica,sans-Serif" font-size="10.00" fill="#000000"> &gt;::instance</text>
</a>
</g>
</g>
<!-- Node271&#45;&gt;Node272 -->
<g id="edge2" class="edge">
<title>Node271&#45;&gt;Node272</title>
<path fill="none" stroke="#191970" d="M353.2638,-48C361.635,-48 370.0967,-48 378.323,-48"/>
<polygon fill="#191970" stroke="#191970" points="378.5927,-51.5001 388.5927,-48 378.5926,-44.5001 378.5927,-51.5001"/>
</g>
</g>
</svg>
