<?xml version="1.0" encoding="UTF-8" standalone="no"?>
<!DOCTYPE svg PUBLIC "-//W3C//DTD SVG 1.1//EN"
 "http://www.w3.org/Graphics/SVG/1.1/DTD/svg11.dtd">
<!-- Generated by graphviz version 2.40.1 (20161225.0304)
 -->
<!-- Title: Map::updateNodeNeighbors Pages: 1 -->
<svg width="1515pt" height="210pt"
 viewBox="0.00 0.00 1515.00 209.98" xmlns="http://www.w3.org/2000/svg" xmlns:xlink="http://www.w3.org/1999/xlink">
<g id="graph0" class="graph" transform="scale(1 1) rotate(0) translate(4 205.9782)">
<title>Map::updateNodeNeighbors</title>
<!-- Node594 -->
<g id="node1" class="node">
<title>Node594</title>
<polygon fill="#bfbfbf" stroke="#000000" points="0,-106.4782 0,-125.4782 152,-125.4782 152,-106.4782 0,-106.4782"/>
<text text-anchor="middle" x="76" y="-113.4782" font-family="Helvetica,sans-Serif" font-size="10.00" fill="#000000">Map::updateNodeNeighbors</text>
</g>
<!-- Node595 -->
<g id="node2" class="node">
<title>Node595</title>
<g id="a_node2"><a xlink:href="classMap.html#ade1eeabf4e539f9dbfe2a96c97fda4e3" target="_top" xlink:title="Map::changeHeight">
<polygon fill="none" stroke="#000000" points="344,-144.4782 344,-163.4782 454,-163.4782 454,-144.4782 344,-144.4782"/>
<text text-anchor="middle" x="399" y="-151.4782" font-family="Helvetica,sans-Serif" font-size="10.00" fill="#000000">Map::changeHeight</text>
</a>
</g>
</g>
<!-- Node594&#45;&gt;Node595 -->
<g id="edge1" class="edge">
<title>Node594&#45;&gt;Node595</title>
<path fill="none" stroke="#191970" d="M137.2144,-127.2528C153.667,-130.0394 171.4791,-132.8364 188,-134.9782 240.7063,-141.8112 301.1382,-146.9839 343.7817,-150.1936"/>
<polygon fill="#191970" stroke="#191970" points="137.6184,-123.771 127.1697,-125.5251 136.4317,-130.6697 137.6184,-123.771"/>
</g>
<!-- Node604 -->
<g id="node11" class="node">
<title>Node604</title>
<g id="a_node11"><a xlink:href="classMap.html#a481b37ba71ef0e51e836fc42805762dd" target="_top" xlink:title="Update all mapNodes Updates all mapNode and its adjacent tiles regarding height information, draws slopes for adjacent tiles and sets tiling for mapNode sprite if applicable. ">
<polygon fill="none" stroke="#000000" points="188,-68.4782 188,-87.4782 308,-87.4782 308,-68.4782 188,-68.4782"/>
<text text-anchor="middle" x="248" y="-75.4782" font-family="Helvetica,sans-Serif" font-size="10.00" fill="#000000">Map::updateAllNodes</text>
</a>
</g>
</g>
<!-- Node594&#45;&gt;Node604 -->
<g id="edge11" class="edge">
<title>Node594&#45;&gt;Node604</title>
<path fill="none" stroke="#191970" d="M129.1959,-104.2256C153.5166,-98.8524 181.9547,-92.5696 204.9092,-87.4982"/>
<polygon fill="#191970" stroke="#191970" points="128.4123,-100.8142 119.4029,-106.3892 129.9225,-107.6494 128.4123,-100.8142"/>
</g>
<!-- Node612 -->
<g id="node19" class="node">
<title>Node612</title>
<g id="a_node19"><a xlink:href="classMap.html#aa8cc2ed983007621bce12dd9d1b8ec5b" target="_top" xlink:title="Demolish a node This function gathers all tiles that should be demolished and invokes the nodes demol...">
<polygon fill="none" stroke="#000000" points="191.5,-106.4782 191.5,-125.4782 304.5,-125.4782 304.5,-106.4782 191.5,-106.4782"/>
<text text-anchor="middle" x="248" y="-113.4782" font-family="Helvetica,sans-Serif" font-size="10.00" fill="#000000">Map::demolishNode</text>
</a>
</g>
</g>
<!-- Node594&#45;&gt;Node612 -->
<g id="edge24" class="edge">
<title>Node594&#45;&gt;Node612</title>
<path fill="none" stroke="#191970" d="M162.4498,-109.2283C172.3104,-109.2319 182.1632,-109.3538 191.4896,-109.594"/>
<polygon fill="#191970" stroke="#191970" points="162.1794,-105.7292 152.1928,-109.2674 162.2061,-112.7291 162.1794,-105.7292"/>
</g>
<!-- Node596 -->
<g id="node3" class="node">
<title>Node596</title>
<g id="a_node3"><a xlink:href="classMap.html#aba5154a4d917900679a3c0f7ec701561" target="_top" xlink:title="Increase Height Increases the height of the node and checks the surrounding tiles. Either draw a slope sprite or elevate the tile if necessary. ">
<polygon fill="none" stroke="#000000" points="494.5,-182.4782 494.5,-201.4782 610.5,-201.4782 610.5,-182.4782 494.5,-182.4782"/>
<text text-anchor="middle" x="552.5" y="-189.4782" font-family="Helvetica,sans-Serif" font-size="10.00" fill="#000000">Map::increaseHeight</text>
</a>
</g>
</g>
<!-- Node595&#45;&gt;Node596 -->
<g id="edge2" class="edge">
<title>Node595&#45;&gt;Node596</title>
<path fill="none" stroke="#191970" d="M447.6352,-166.0182C469.0799,-171.327 493.9226,-177.4769 514.044,-182.4581"/>
<polygon fill="#191970" stroke="#191970" points="448.2826,-162.5729 437.7345,-163.5672 446.6004,-169.3677 448.2826,-162.5729"/>
</g>
<!-- Node602 -->
<g id="node9" class="node">
<title>Node602</title>
<g id="a_node9"><a xlink:href="classMap.html#afb8cc864df90d273a5074872d635dc40" target="_top" xlink:title="Decrease Height Decreases the height of the node and checks the surrounding tiles. Either draw a slope sprite or lower the tile if necessary. ">
<polygon fill="none" stroke="#000000" points="493,-144.4782 493,-163.4782 612,-163.4782 612,-144.4782 493,-144.4782"/>
<text text-anchor="middle" x="552.5" y="-151.4782" font-family="Helvetica,sans-Serif" font-size="10.00" fill="#000000">Map::decreaseHeight</text>
</a>
</g>
</g>
<!-- Node595&#45;&gt;Node602 -->
<g id="edge8" class="edge">
<title>Node595&#45;&gt;Node602</title>
<path fill="none" stroke="#191970" d="M464.4846,-153.9782C473.8708,-153.9782 483.4869,-153.9782 492.7546,-153.9782"/>
<polygon fill="#191970" stroke="#191970" points="464.4171,-150.4783 454.417,-153.9782 464.417,-157.4783 464.4171,-150.4783"/>
</g>
<!-- Node597 -->
<g id="node4" class="node">
<title>Node597</title>
<g id="a_node4"><a xlink:href="classEngine.html#a4851ae1ff696c893741167fc0194fd77" target="_top" xlink:title="Increase Height Increases the height of the given map node Calls the according function of the Map ob...">
<polygon fill="none" stroke="#000000" points="819,-182.4782 819,-201.4782 948,-201.4782 948,-182.4782 819,-182.4782"/>
<text text-anchor="middle" x="883.5" y="-189.4782" font-family="Helvetica,sans-Serif" font-size="10.00" fill="#000000">Engine::increaseHeight</text>
</a>
</g>
</g>
<!-- Node596&#45;&gt;Node597 -->
<g id="edge3" class="edge">
<title>Node596&#45;&gt;Node597</title>
<path fill="none" stroke="#191970" d="M620.717,-191.9782C678.796,-191.9782 761.6556,-191.9782 818.7264,-191.9782"/>
<polygon fill="#191970" stroke="#191970" points="620.5346,-188.4783 610.5346,-191.9782 620.5345,-195.4783 620.5346,-188.4783"/>
</g>
<!-- Node598 -->
<g id="node5" class="node">
<title>Node598</title>
<g id="a_node5"><a xlink:href="classEventManager.html#a65ec91fd5016d4f9c4167fb8babed2df" target="_top" xlink:title="EventManager::checkEvents">
<polygon fill="none" stroke="#000000" points="996,-106.4782 996,-125.4782 1150,-125.4782 1150,-106.4782 996,-106.4782"/>
<text text-anchor="middle" x="1073" y="-113.4782" font-family="Helvetica,sans-Serif" font-size="10.00" fill="#000000">EventManager::checkEvents</text>
</a>
</g>
</g>
<!-- Node597&#45;&gt;Node598 -->
<g id="edge4" class="edge">
<title>Node597&#45;&gt;Node598</title>
<path fill="none" stroke="#191970" d="M919.3728,-178.9056C928.719,-175.4245 938.7592,-171.618 948,-167.9782 984.0839,-153.7654 1025.5809,-136.2719 1050.5233,-125.631"/>
<polygon fill="#191970" stroke="#191970" points="918.1099,-175.641 909.9469,-182.395 920.5401,-182.2056 918.1099,-175.641"/>
</g>
<!-- Node599 -->
<g id="node6" class="node">
<title>Node599</title>
<g id="a_node6"><a xlink:href="classGame.html#a1c2ab25d5216b2f4b2fe41efd2c09114" target="_top" xlink:title="begins the game starts running the game ">
<polygon fill="none" stroke="#000000" points="1215.5,-106.4782 1215.5,-125.4782 1283.5,-125.4782 1283.5,-106.4782 1215.5,-106.4782"/>
<text text-anchor="middle" x="1249.5" y="-113.4782" font-family="Helvetica,sans-Serif" font-size="10.00" fill="#000000">Game::run</text>
</a>
</g>
</g>
<!-- Node598&#45;&gt;Node599 -->
<g id="edge5" class="edge">
<title>Node598&#45;&gt;Node599</title>
<path fill="none" stroke="#191970" d="M1160.3664,-115.9782C1179.9355,-115.9782 1199.5625,-115.9782 1215.398,-115.9782"/>
<polygon fill="#191970" stroke="#191970" points="1160.1587,-112.4783 1150.1587,-115.9782 1160.1587,-119.4783 1160.1587,-112.4783"/>
</g>
<!-- Node600 -->
<g id="node7" class="node">
<title>Node600</title>
<g id="a_node7"><a xlink:href="main_8cxx.html#af582d708d899e67ead623eac34a22387" target="_top" xlink:title="protected_main">
<polygon fill="none" stroke="#000000" points="1337,-87.4782 1337,-106.4782 1430,-106.4782 1430,-87.4782 1337,-87.4782"/>
<text text-anchor="middle" x="1383.5" y="-94.4782" font-family="Helvetica,sans-Serif" font-size="10.00" fill="#000000">protected_main</text>
</a>
</g>
</g>
<!-- Node599&#45;&gt;Node600 -->
<g id="edge6" class="edge">
<title>Node599&#45;&gt;Node600</title>
<path fill="none" stroke="#191970" d="M1293.8611,-109.6882C1307.6278,-107.7362 1322.8396,-105.5793 1336.7626,-103.6051"/>
<polygon fill="#191970" stroke="#191970" points="1293.0702,-106.2652 1283.6606,-111.1345 1294.0529,-113.1959 1293.0702,-106.2652"/>
</g>
<!-- Node601 -->
<g id="node8" class="node">
<title>Node601</title>
<g id="a_node8"><a xlink:href="main_8cxx.html#a3c04138a5bfe5d72780bb7e82a18e627" target="_top" xlink:title="main">
<polygon fill="none" stroke="#000000" points="1466,-87.4782 1466,-106.4782 1507,-106.4782 1507,-87.4782 1466,-87.4782"/>
<text text-anchor="middle" x="1486.5" y="-94.4782" font-family="Helvetica,sans-Serif" font-size="10.00" fill="#000000">main</text>
</a>
</g>
</g>
<!-- Node600&#45;&gt;Node601 -->
<g id="edge7" class="edge">
<title>Node600&#45;&gt;Node601</title>
<path fill="none" stroke="#191970" d="M1440.2133,-96.9782C1449.4322,-96.9782 1458.4259,-96.9782 1465.9965,-96.9782"/>
<polygon fill="#191970" stroke="#191970" points="1440.1782,-93.4783 1430.1782,-96.9782 1440.1781,-100.4783 1440.1782,-93.4783"/>
</g>
<!-- Node603 -->
<g id="node10" class="node">
<title>Node603</title>
<g id="a_node10"><a xlink:href="classEngine.html#a13572fdd7f6470dca48a14497f58980e" target="_top" xlink:title="Decrease Height Decreases the height of the given map node Calls the according function of the Map ob...">
<polygon fill="none" stroke="#000000" points="651,-144.4782 651,-163.4782 783,-163.4782 783,-144.4782 651,-144.4782"/>
<text text-anchor="middle" x="717" y="-151.4782" font-family="Helvetica,sans-Serif" font-size="10.00" fill="#000000">Engine::decreaseHeight</text>
</a>
</g>
</g>
<!-- Node602&#45;&gt;Node603 -->
<g id="edge9" class="edge">
<title>Node602&#45;&gt;Node603</title>
<path fill="none" stroke="#191970" d="M622.4434,-153.9782C631.8433,-153.9782 641.4627,-153.9782 650.7952,-153.9782"/>
<polygon fill="#191970" stroke="#191970" points="622.3537,-150.4783 612.3536,-153.9782 622.3536,-157.4783 622.3537,-150.4783"/>
</g>
<!-- Node603&#45;&gt;Node598 -->
<g id="edge10" class="edge">
<title>Node603&#45;&gt;Node598</title>
<path fill="none" stroke="#191970" d="M793.2157,-146.2146C838.2509,-141.5885 896.3831,-135.55 948,-129.9782 963.5233,-128.3025 980.1263,-126.4708 995.9948,-124.7008"/>
<polygon fill="#191970" stroke="#191970" points="792.8213,-142.7366 783.2309,-147.2392 793.5359,-149.7 792.8213,-142.7366"/>
</g>
<!-- Node605 -->
<g id="node12" class="node">
<title>Node605</title>
<g id="a_node12"><a xlink:href="classMap.html#a26eceeccd7b6ed693909b1927a25c67a" target="_top" xlink:title="Map::Map">
<polygon fill="none" stroke="#000000" points="367.5,-68.4782 367.5,-87.4782 430.5,-87.4782 430.5,-68.4782 367.5,-68.4782"/>
<text text-anchor="middle" x="399" y="-75.4782" font-family="Helvetica,sans-Serif" font-size="10.00" fill="#000000">Map::Map</text>
</a>
</g>
</g>
<!-- Node604&#45;&gt;Node605 -->
<g id="edge12" class="edge">
<title>Node604&#45;&gt;Node605</title>
<path fill="none" stroke="#191970" d="M318.1682,-77.9782C335.3649,-77.9782 352.9322,-77.9782 367.2779,-77.9782"/>
<polygon fill="#191970" stroke="#191970" points="318.1131,-74.4783 308.1131,-77.9782 318.113,-81.4783 318.1131,-74.4783"/>
</g>
<!-- Node606 -->
<g id="node13" class="node">
<title>Node606</title>
<g id="a_node13"><a xlink:href="classMap.html#afefe996cc1f62b61ec60d0ae415953bf" target="_top" xlink:title="Map::loadMapFromFile">
<polygon fill="none" stroke="#000000" points="490,-30.4782 490,-49.4782 615,-49.4782 615,-30.4782 490,-30.4782"/>
<text text-anchor="middle" x="552.5" y="-37.4782" font-family="Helvetica,sans-Serif" font-size="10.00" fill="#000000">Map::loadMapFromFile</text>
</a>
</g>
</g>
<!-- Node604&#45;&gt;Node606 -->
<g id="edge23" class="edge">
<title>Node604&#45;&gt;Node606</title>
<path fill="none" stroke="#191970" d="M301.2062,-66.4191C315.0867,-63.6865 330.0622,-60.9869 344,-58.9782 392.7478,-51.9527 448.3038,-47.0414 489.804,-43.9744"/>
<polygon fill="#191970" stroke="#191970" points="300.4375,-63.0035 291.3232,-68.4053 301.8168,-69.8663 300.4375,-63.0035"/>
</g>
<!-- Node605&#45;&gt;Node606 -->
<g id="edge13" class="edge">
<title>Node605&#45;&gt;Node606</title>
<path fill="none" stroke="#191970" d="M440.5651,-67.6885C463.4163,-62.0315 491.5781,-55.0598 513.9373,-49.5247"/>
<polygon fill="#191970" stroke="#191970" points="439.6712,-64.304 430.8053,-70.1046 441.3534,-71.0989 439.6712,-64.304"/>
</g>
<!-- Node607 -->
<g id="node14" class="node">
<title>Node607</title>
<g id="a_node14"><a xlink:href="classEngine.html#a83b7dbeee899b36a13d5b07c7ad87ebc" target="_top" xlink:title="Loads a saved game Loads a saved Game. ">
<polygon fill="none" stroke="#000000" points="664,-30.4782 664,-49.4782 770,-49.4782 770,-30.4782 664,-30.4782"/>
<text text-anchor="middle" x="717" y="-37.4782" font-family="Helvetica,sans-Serif" font-size="10.00" fill="#000000">Engine::loadGame</text>
</a>
</g>
</g>
<!-- Node606&#45;&gt;Node607 -->
<g id="edge14" class="edge">
<title>Node606&#45;&gt;Node607</title>
<path fill="none" stroke="#191970" d="M625.4461,-39.9782C638.3866,-39.9782 651.6382,-39.9782 663.8977,-39.9782"/>
<polygon fill="#191970" stroke="#191970" points="625.1597,-36.4783 615.1597,-39.9782 625.1596,-43.4783 625.1597,-36.4783"/>
</g>
<!-- Node608 -->
<g id="node15" class="node">
<title>Node608</title>
<g id="a_node15"><a xlink:href="classEngine.html#a0ba57971ffb5173ecc425461f65a4cd8" target="_top" xlink:title="Quits the game Sets m_running to false and quitting the game. ">
<polygon fill="none" stroke="#000000" points="831.5,-68.4782 831.5,-87.4782 935.5,-87.4782 935.5,-68.4782 831.5,-68.4782"/>
<text text-anchor="middle" x="883.5" y="-75.4782" font-family="Helvetica,sans-Serif" font-size="10.00" fill="#000000">Engine::quitGame</text>
</a>
</g>
</g>
<!-- Node607&#45;&gt;Node608 -->
<g id="edge15" class="edge">
<title>Node607&#45;&gt;Node608</title>
<path fill="none" stroke="#191970" d="M768.809,-51.8025C792.2825,-57.1598 819.6654,-63.4093 841.7871,-68.4581"/>
<polygon fill="#191970" stroke="#191970" points="769.5431,-48.3801 759.015,-49.5672 767.9855,-55.2046 769.5431,-48.3801"/>
</g>
<!-- Node609 -->
<g id="node16" class="node">
<title>Node609</title>
<g id="a_node16"><a xlink:href="classUIManager.html#aa78e356fc3b356d790c848319d1c387e" target="_top" xlink:title="UIManager::setCallbackFunctions">
<polygon fill="none" stroke="#000000" points="984,-30.4782 984,-49.4782 1162,-49.4782 1162,-30.4782 984,-30.4782"/>
<text text-anchor="middle" x="1073" y="-37.4782" font-family="Helvetica,sans-Serif" font-size="10.00" fill="#000000">UIManager::setCallbackFunctions</text>
</a>
</g>
</g>
<!-- Node607&#45;&gt;Node609 -->
<g id="edge21" class="edge">
<title>Node607&#45;&gt;Node609</title>
<path fill="none" stroke="#191970" d="M780.5355,-39.9782C837.0967,-39.9782 920.4356,-39.9782 983.6965,-39.9782"/>
<polygon fill="#191970" stroke="#191970" points="780.2968,-36.4783 770.2968,-39.9782 780.2968,-43.4783 780.2968,-36.4783"/>
</g>
<!-- Node611 -->
<g id="node18" class="node">
<title>Node611</title>
<g id="a_node18"><a xlink:href="classGame.html#a560299f0291c281f7b44e7ef0dd7b264" target="_top" xlink:title="initializes and displays the main menu initializes and displays the main menu ">
<polygon fill="none" stroke="#000000" points="1198,-68.4782 1198,-87.4782 1301,-87.4782 1301,-68.4782 1198,-68.4782"/>
<text text-anchor="middle" x="1249.5" y="-75.4782" font-family="Helvetica,sans-Serif" font-size="10.00" fill="#000000">Game::mainMenu</text>
</a>
</g>
</g>
<!-- Node607&#45;&gt;Node611 -->
<g id="edge22" class="edge">
<title>Node607&#45;&gt;Node611</title>
<path fill="none" stroke="#191970" d="M763.866,-28.1673C846.3522,-9.5144 1021.9939,20.6017 1162,-20.9782 1193.2834,-30.2689 1223.8332,-54.6745 1239.215,-68.3465"/>
<polygon fill="#191970" stroke="#191970" points="762.9968,-24.7758 754.0403,-30.4354 764.5713,-31.5964 762.9968,-24.7758"/>
</g>
<!-- Node608&#45;&gt;Node598 -->
<g id="edge16" class="edge">
<title>Node608&#45;&gt;Node598</title>
<path fill="none" stroke="#191970" d="M941.3948,-89.5877C968.346,-94.9922 1000.0102,-101.3417 1025.525,-106.4581"/>
<polygon fill="#191970" stroke="#191970" points="941.8118,-86.1017 931.3189,-87.5672 940.4355,-92.9651 941.8118,-86.1017"/>
</g>
<!-- Node608&#45;&gt;Node609 -->
<g id="edge17" class="edge">
<title>Node608&#45;&gt;Node609</title>
<path fill="none" stroke="#191970" d="M941.3948,-66.3687C968.346,-60.9642 1000.0102,-54.6147 1025.525,-49.4982"/>
<polygon fill="#191970" stroke="#191970" points="940.4355,-62.9913 931.3189,-68.3892 941.8118,-69.8547 940.4355,-62.9913"/>
</g>
<!-- Node610 -->
<g id="node17" class="node">
<title>Node610</title>
<g id="a_node17"><a xlink:href="classGame.html#a8272be134d16c277bb014ad6a22fc357" target="_top" xlink:title="Game::quit">
<polygon fill="none" stroke="#000000" points="1037.5,-68.4782 1037.5,-87.4782 1108.5,-87.4782 1108.5,-68.4782 1037.5,-68.4782"/>
<text text-anchor="middle" x="1073" y="-75.4782" font-family="Helvetica,sans-Serif" font-size="10.00" fill="#000000">Game::quit</text>
</a>
</g>
</g>
<!-- Node608&#45;&gt;Node610 -->
<g id="edge18" class="edge">
<title>Node608&#45;&gt;Node610</title>
<path fill="none" stroke="#191970" d="M945.619,-77.9782C976.001,-77.9782 1011.482,-77.9782 1037.27,-77.9782"/>
<polygon fill="#191970" stroke="#191970" points="945.5324,-74.4783 935.5324,-77.9782 945.5323,-81.4783 945.5324,-74.4783"/>
</g>
<!-- Node610&#45;&gt;Node611 -->
<g id="edge19" class="edge">
<title>Node610&#45;&gt;Node611</title>
<path fill="none" stroke="#191970" d="M1119.0403,-77.9782C1143.1836,-77.9782 1172.8403,-77.9782 1197.7739,-77.9782"/>
<polygon fill="#191970" stroke="#191970" points="1118.7174,-74.4783 1108.7174,-77.9782 1118.7174,-81.4783 1118.7174,-74.4783"/>
</g>
<!-- Node611&#45;&gt;Node600 -->
<g id="edge20" class="edge">
<title>Node611&#45;&gt;Node600</title>
<path fill="none" stroke="#191970" d="M1311.2457,-86.7332C1319.7846,-87.9439 1328.438,-89.1709 1336.6465,-90.3348"/>
<polygon fill="#191970" stroke="#191970" points="1311.7003,-83.2627 1301.3079,-85.3241 1310.7175,-90.1934 1311.7003,-83.2627"/>
</g>
<!-- Node612&#45;&gt;Node594 -->
<g id="edge27" class="edge">
<title>Node612&#45;&gt;Node594</title>
<path fill="none" stroke="#191970" d="M181.2975,-122.5748C171.7622,-122.7287 161.8932,-122.7668 152.1928,-122.689"/>
<polygon fill="#191970" stroke="#191970" points="181.5647,-126.0701 191.4896,-122.3623 181.4187,-119.0716 181.5647,-126.0701"/>
</g>
<!-- Node612&#45;&gt;Node595 -->
<g id="edge26" class="edge">
<title>Node612&#45;&gt;Node595</title>
<path fill="none" stroke="#191970" d="M295.8431,-128.0182C316.9386,-133.327 341.3766,-139.4769 361.1703,-144.4581"/>
<polygon fill="#191970" stroke="#191970" points="296.6555,-124.6136 286.1037,-125.5672 294.9471,-131.4019 296.6555,-124.6136"/>
</g>
<!-- Node612&#45;&gt;Node598 -->
<g id="edge25" class="edge">
<title>Node612&#45;&gt;Node598</title>
<path fill="none" stroke="#191970" d="M315.0563,-115.9782C376.754,-115.9782 470.7932,-115.9782 552.5,-115.9782 552.5,-115.9782 552.5,-115.9782 717,-115.9782 813.1076,-115.9782 923.8097,-115.9782 995.9163,-115.9782"/>
<polygon fill="#191970" stroke="#191970" points="314.6818,-112.4783 304.6818,-115.9782 314.6818,-119.4783 314.6818,-112.4783"/>
</g>
</g>
</svg>
