<?xml version="1.0" encoding="UTF-8" standalone="no"?>
<!DOCTYPE svg PUBLIC "-//W3C//DTD SVG 1.1//EN"
 "http://www.w3.org/Graphics/SVG/1.1/DTD/svg11.dtd">
<!-- Generated by graphviz version 2.40.1 (20161225.0304)
 -->
<!-- Title: Map::renderMap Pages: 1 -->
<svg width="960pt" height="143pt"
 viewBox="0.00 0.00 960.00 143.00" xmlns="http://www.w3.org/2000/svg" xmlns:xlink="http://www.w3.org/1999/xlink">
<g id="graph0" class="graph" transform="scale(1 1) rotate(0) translate(4 139)">
<title>Map::renderMap</title>
<!-- Node475 -->
<g id="node1" class="node">
<title>Node475</title>
<polygon fill="#bfbfbf" stroke="#000000" points="0,-28 0,-47 95,-47 95,-28 0,-28"/>
<text text-anchor="middle" x="47.5" y="-35" font-family="Helvetica,sans-Serif" font-size="10.00" fill="#000000">Map::renderMap</text>
</g>
<!-- Node476 -->
<g id="node2" class="node">
<title>Node476</title>
<g id="a_node2"><a xlink:href="classSprite.html#abdf111e2030274680af0f00f296d8605" target="_top" xlink:title="Sprite::render">
<polygon fill="none" stroke="#000000" points="131,-28 131,-47 214,-47 214,-28 131,-28"/>
<text text-anchor="middle" x="172.5" y="-35" font-family="Helvetica,sans-Serif" font-size="10.00" fill="#000000">Sprite::render</text>
</a>
</g>
</g>
<!-- Node475&#45;&gt;Node476 -->
<g id="edge1" class="edge">
<title>Node475&#45;&gt;Node476</title>
<path fill="none" stroke="#191970" d="M95.1137,-37.5C103.4523,-37.5 112.1662,-37.5 120.6137,-37.5"/>
<polygon fill="#191970" stroke="#191970" points="120.7424,-41.0001 130.7424,-37.5 120.7424,-34.0001 120.7424,-41.0001"/>
</g>
<!-- Node477 -->
<g id="node3" class="node">
<title>Node477</title>
<g id="a_node3"><a xlink:href="classMapLayers.html#a1d810628821913c499b8348107b66891" target="_top" xlink:title="Check if given Layer is being drawn. ">
<polygon fill="none" stroke="#000000" points="257,-50 257,-69 398,-69 398,-50 257,-50"/>
<text text-anchor="middle" x="327.5" y="-57" font-family="Helvetica,sans-Serif" font-size="10.00" fill="#000000">MapLayers::isLayerActive</text>
</a>
</g>
</g>
<!-- Node476&#45;&gt;Node477 -->
<g id="edge2" class="edge">
<title>Node476&#45;&gt;Node477</title>
<path fill="none" stroke="#191970" d="M214.0372,-43.3956C225.2877,-44.9924 237.8374,-46.7737 250.3741,-48.5531"/>
<polygon fill="#191970" stroke="#191970" points="250.0078,-52.0361 260.4004,-49.9762 250.9915,-45.1056 250.0078,-52.0361"/>
</g>
<!-- Node484 -->
<g id="node10" class="node">
<title>Node484</title>
<g id="a_node10"><a xlink:href="classSingleton.html#af5cb1e5749949e2b68416cfb8d378044" target="_top" xlink:title="Get an instance of the singleton. ">
<polygon fill="none" stroke="#000000" points="250,-.5 250,-30.5 405,-30.5 405,-.5 250,-.5"/>
<text text-anchor="start" x="258" y="-18.5" font-family="Helvetica,sans-Serif" font-size="10.00" fill="#000000">Singleton&lt; WindowManager</text>
<text text-anchor="middle" x="327.5" y="-7.5" font-family="Helvetica,sans-Serif" font-size="10.00" fill="#000000"> &gt;::instance</text>
</a>
</g>
</g>
<!-- Node476&#45;&gt;Node484 -->
<g id="edge9" class="edge">
<title>Node476&#45;&gt;Node484</title>
<path fill="none" stroke="#191970" d="M214.0372,-31.6044C222.1162,-30.4577 230.8652,-29.2159 239.7982,-27.948"/>
<polygon fill="#191970" stroke="#191970" points="240.5272,-31.3797 249.9361,-26.5091 239.5435,-24.4491 240.5272,-31.3797"/>
</g>
<!-- Node478 -->
<g id="node4" class="node">
<title>Node478</title>
<g id="a_node4"><a xlink:href="classMapLayers.html#ab663dfc9e4c144f904ad85543b66ac8f" target="_top" xlink:title="Toggle Drawing Layer Toggle Drawing Layer (use bitwise XOR to toggle layer) ">
<polygon fill="none" stroke="#000000" points="441,-88 441,-107 603,-107 603,-88 441,-88"/>
<text text-anchor="middle" x="522" y="-95" font-family="Helvetica,sans-Serif" font-size="10.00" fill="#000000">MapLayers::setLayerEditMode</text>
</a>
</g>
</g>
<!-- Node477&#45;&gt;Node478 -->
<g id="edge3" class="edge">
<title>Node477&#45;&gt;Node478</title>
<path fill="none" stroke="#191970" d="M376.3295,-69.04C402.6876,-74.1896 435.4169,-80.584 463.1712,-86.0065"/>
<polygon fill="#191970" stroke="#191970" points="462.6648,-89.4736 473.1504,-87.9561 464.0071,-82.6035 462.6648,-89.4736"/>
</g>
<!-- Node482 -->
<g id="node8" class="node">
<title>Node482</title>
<g id="a_node8"><a xlink:href="classMapLayers.html#a53d7fcd90e70eaf36239d7a75c0c5dda" target="_top" xlink:title="MapLayers::MapLayers">
<polygon fill="none" stroke="#000000" points="458,-50 458,-69 586,-69 586,-50 458,-50"/>
<text text-anchor="middle" x="522" y="-57" font-family="Helvetica,sans-Serif" font-size="10.00" fill="#000000">MapLayers::MapLayers</text>
</a>
</g>
</g>
<!-- Node477&#45;&gt;Node482 -->
<g id="edge7" class="edge">
<title>Node477&#45;&gt;Node482</title>
<path fill="none" stroke="#191970" d="M398.2692,-59.5C414.2182,-59.5 431.1958,-59.5 447.3002,-59.5"/>
<polygon fill="#191970" stroke="#191970" points="447.7375,-63.0001 457.7375,-59.5 447.7375,-56.0001 447.7375,-63.0001"/>
</g>
<!-- Node483 -->
<g id="node9" class="node">
<title>Node483</title>
<g id="a_node9"><a xlink:href="classMapLayers.html#aa7fa21110e27ec69f131692b0a510d66" target="_top" xlink:title="MapLayers::~MapLayers">
<polygon fill="none" stroke="#000000" points="454,-12 454,-31 590,-31 590,-12 454,-12"/>
<text text-anchor="middle" x="522" y="-19" font-family="Helvetica,sans-Serif" font-size="10.00" fill="#000000">MapLayers::~MapLayers</text>
</a>
</g>
</g>
<!-- Node477&#45;&gt;Node483 -->
<g id="edge8" class="edge">
<title>Node477&#45;&gt;Node483</title>
<path fill="none" stroke="#191970" d="M376.3295,-49.96C402.6876,-44.8104 435.4169,-38.416 463.1712,-32.9935"/>
<polygon fill="#191970" stroke="#191970" points="464.0071,-36.3965 473.1504,-31.0439 462.6648,-29.5264 464.0071,-36.3965"/>
</g>
<!-- Node479 -->
<g id="node5" class="node">
<title>Node479</title>
<g id="a_node5"><a xlink:href="classMapLayers.html#a0a64d01a42e8864b78e1bc54007cb7d9" target="_top" xlink:title="Toggle Drawing Layer Toggle Drawing Layer (use bitwise XOR to toggle layer) ">
<polygon fill="none" stroke="#000000" points="639,-104.5 639,-134.5 779,-134.5 779,-104.5 639,-104.5"/>
<text text-anchor="start" x="647" y="-122.5" font-family="Helvetica,sans-Serif" font-size="10.00" fill="#000000">MapLayers::deactivateAll</text>
<text text-anchor="middle" x="709" y="-111.5" font-family="Helvetica,sans-Serif" font-size="10.00" fill="#000000">Layers</text>
</a>
</g>
</g>
<!-- Node478&#45;&gt;Node479 -->
<g id="edge4" class="edge">
<title>Node478&#45;&gt;Node479</title>
<path fill="none" stroke="#191970" d="M602.9333,-107.0216C611.5179,-108.0315 620.2464,-109.0584 628.8223,-110.0673"/>
<polygon fill="#191970" stroke="#191970" points="628.4613,-113.5489 638.8018,-111.2414 629.2792,-106.5969 628.4613,-113.5489"/>
</g>
<!-- Node481 -->
<g id="node7" class="node">
<title>Node481</title>
<g id="a_node7"><a xlink:href="classMapLayers.html#a5db6ba7e194ada6a4d0334d0428ff89b" target="_top" xlink:title="Enable drawing layers. ">
<polygon fill="none" stroke="#000000" points="639,-66 639,-85 779,-85 779,-66 639,-66"/>
<text text-anchor="middle" x="709" y="-73" font-family="Helvetica,sans-Serif" font-size="10.00" fill="#000000">MapLayers::enableLayers</text>
</a>
</g>
</g>
<!-- Node478&#45;&gt;Node481 -->
<g id="edge6" class="edge">
<title>Node478&#45;&gt;Node481</title>
<path fill="none" stroke="#191970" d="M602.9333,-87.9784C611.5179,-86.9685 620.2464,-85.9416 628.8223,-84.9327"/>
<polygon fill="#191970" stroke="#191970" points="629.2792,-88.4031 638.8018,-83.7586 628.4613,-81.4511 629.2792,-88.4031"/>
</g>
<!-- Node480 -->
<g id="node6" class="node">
<title>Node480</title>
<g id="a_node6"><a xlink:href="classMapLayers.html#a3b1b1f10dd431fa83e098a20e4c836b9" target="_top" xlink:title="Disable Drawing Layer Disable Drawing Layer ( Turned off by using bitwise AND with inversed pattern) ...">
<polygon fill="none" stroke="#000000" points="815,-110 815,-129 952,-129 952,-110 815,-110"/>
<text text-anchor="middle" x="883.5" y="-117" font-family="Helvetica,sans-Serif" font-size="10.00" fill="#000000">MapLayers::disableLayer</text>
</a>
</g>
</g>
<!-- Node479&#45;&gt;Node480 -->
<g id="edge5" class="edge">
<title>Node479&#45;&gt;Node480</title>
<path fill="none" stroke="#191970" d="M779.2215,-119.5C787.5704,-119.5 796.1356,-119.5 804.5953,-119.5"/>
<polygon fill="#191970" stroke="#191970" points="804.8402,-123.0001 814.8402,-119.5 804.8402,-116.0001 804.8402,-123.0001"/>
</g>
</g>
</svg>
