<?xml version="1.0" encoding="UTF-8" standalone="no"?>
<!DOCTYPE svg PUBLIC "-//W3C//DTD SVG 1.1//EN"
 "http://www.w3.org/Graphics/SVG/1.1/DTD/svg11.dtd">
<!-- Generated by graphviz version 2.40.1 (20161225.0304)
 -->
<!-- Title: Engine::quitGame Pages: 1 -->
<!--zoomable 476 -->
<svg id="main" version="1.1" xmlns="http://www.w3.org/2000/svg" xmlns:xlink="http://www.w3.org/1999/xlink" xml:space="preserve" onload="init(evt)">
<style type="text/css"><![CDATA[
.edge:hover path { stroke: red; }
.edge:hover polygon { stroke: red; fill: red; }
]]></style>
<script type="text/javascript"><![CDATA[
var edges = document.getElementsByTagName('g');
if (edges && edges.length) {
  for (var i=0;i<edges.length;i++) {
    if (edges[i].id.substr(0,4)=='edge') {
      edges[i].setAttribute('class','edge');
    }
  }
}
]]></script>
        <defs>
                <circle id="rim" cx="0" cy="0" r="7"/>
                <circle id="rim2" cx="0" cy="0" r="3.5"/>
                <g id="zoomPlus">
                        <use xlink:href="#rim" fill="#404040">
                                <set attributeName="fill" to="#808080" begin="zoomplus.mouseover" end="zoomplus.mouseout"/>
                        </use>
                        <path d="M-4,0h8M0,-4v8" fill="none" stroke="white" stroke-width="1.5" pointer-events="none"/>
                </g>
                <g id="zoomMin">
                        <use xlink:href="#rim" fill="#404040">
                                <set attributeName="fill" to="#808080" begin="zoomminus.mouseover" end="zoomminus.mouseout"/>
                        </use>
                        <path d="M-4,0h8" fill="none" stroke="white" stroke-width="1.5" pointer-events="none"/>
                </g>
                <g id="dirArrow">
                        <path fill="none" stroke="white" stroke-width="1.5" d="M0,-3.0v7 M-2.5,-0.5L0,-3.0L2.5,-0.5"/>
                </g>
               <g id="resetDef">
                       <use xlink:href="#rim2" fill="#404040">
                               <set attributeName="fill" to="#808080" begin="reset.mouseover" end="reset.mouseout"/>
                       </use>
               </g>
        </defs>

<script type="text/javascript">
var viewWidth = 1515;
var viewHeight = 476;
var sectionId = 'dynsection-11';
</script>
<script xlink:href="svgpan.js"/>
<svg id="graph" class="graph">
<g id="viewport">
<title>Engine::quitGame</title>
<!-- Node107 -->
<g id="node1" class="node">
<title>Node107</title>
<polygon fill="#bfbfbf" stroke="#000000" points="0,-388 0,-407 104,-407 104,-388 0,-388"/>
<text text-anchor="middle" x="52" y="-395" font-family="Helvetica,sans-Serif" font-size="10.00" fill="#000000">Engine::quitGame</text>
</g>
<!-- Node108 -->
<g id="node2" class="node">
<title>Node108</title>
<g id="a_node2"><a xlink:href="classEngine.html#a83b7dbeee899b36a13d5b07c7ad87ebc" target="_top" xlink:title="Loads a saved game Loads a saved Game. ">
<polygon fill="none" stroke="#000000" points="140,-388 140,-407 246,-407 246,-388 140,-388"/>
<text text-anchor="middle" x="193" y="-395" font-family="Helvetica,sans-Serif" font-size="10.00" fill="#000000">Engine::loadGame</text>
</a>
</g>
</g>
<!-- Node107&#45;&gt;Node108 -->
<g id="edge1" class="edge">
<title>Node107&#45;&gt;Node108</title>
<path fill="none" stroke="#191970" d="M104.1026,-397.5C112.3568,-397.5 120.9729,-397.5 129.4534,-397.5"/>
<polygon fill="#191970" stroke="#191970" points="129.6971,-401.0001 139.6971,-397.5 129.6971,-394.0001 129.6971,-401.0001"/>
</g>
<!-- Node109 -->
<g id="node3" class="node">
<title>Node109</title>
<g id="a_node3"><a xlink:href="classMap.html#afefe996cc1f62b61ec60d0ae415953bf" target="_top" xlink:title="Map::loadMapFromFile">
<polygon fill="none" stroke="#000000" points="282,-388 282,-407 407,-407 407,-388 282,-388"/>
<text text-anchor="middle" x="344.5" y="-395" font-family="Helvetica,sans-Serif" font-size="10.00" fill="#000000">Map::loadMapFromFile</text>
</a>
</g>
</g>
<!-- Node108&#45;&gt;Node109 -->
<g id="edge2" class="edge">
<title>Node108&#45;&gt;Node109</title>
<path fill="none" stroke="#191970" d="M246.4132,-397.5C254.6794,-397.5 263.3353,-397.5 271.9364,-397.5"/>
<polygon fill="#191970" stroke="#191970" points="271.9814,-401.0001 281.9814,-397.5 271.9814,-394.0001 271.9814,-401.0001"/>
</g>
<!-- Node110 -->
<g id="node4" class="node">
<title>Node110</title>
<g id="a_node4"><a xlink:href="compression_8hxx.html#a25f341059256700f2f3ffd62d8113956" target="_top" xlink:title="decompresses given string Decompresses a given string. ">
<polygon fill="none" stroke="#000000" points="443,-448 443,-467 547,-467 547,-448 443,-448"/>
<text text-anchor="middle" x="495" y="-455" font-family="Helvetica,sans-Serif" font-size="10.00" fill="#000000">decompressString</text>
</a>
</g>
</g>
<!-- Node109&#45;&gt;Node110 -->
<g id="edge3" class="edge">
<title>Node109&#45;&gt;Node110</title>
<path fill="none" stroke="#191970" d="M368.3472,-407.0072C393.4075,-416.998 433.0372,-432.7972 461.2898,-444.0607"/>
<polygon fill="#191970" stroke="#191970" points="460.1809,-447.3865 470.766,-447.8386 462.7732,-440.8841 460.1809,-447.3865"/>
</g>
<!-- Node111 -->
<g id="node5" class="node">
<title>Node111</title>
<g id="a_node5"><a xlink:href="namespacefs.html#a69aff598da647e46953ebeb1e255963b" target="_top" xlink:title="fs::readFileAsString">
<polygon fill="none" stroke="#000000" points="989,-388 989,-407 1099,-407 1099,-388 989,-388"/>
<text text-anchor="middle" x="1044" y="-395" font-family="Helvetica,sans-Serif" font-size="10.00" fill="#000000">fs::readFileAsString</text>
</a>
</g>
</g>
<!-- Node109&#45;&gt;Node111 -->
<g id="edge4" class="edge">
<title>Node109&#45;&gt;Node111</title>
<path fill="none" stroke="#191970" d="M407.2111,-398.554C513.6686,-400.1795 736.5515,-402.875 925,-400.5 942.4471,-400.2801 961.3296,-399.879 978.8031,-399.44"/>
<polygon fill="#191970" stroke="#191970" points="979.0008,-402.9362 988.9068,-399.1783 978.8195,-395.9385 979.0008,-402.9362"/>
</g>
<!-- Node112 -->
<g id="node6" class="node">
<title>Node112</title>
<g id="a_node6"><a xlink:href="classMap.html#a26eceeccd7b6ed693909b1927a25c67a" target="_top" xlink:title="Map::Map">
<polygon fill="none" stroke="#000000" points="463.5,-344 463.5,-363 526.5,-363 526.5,-344 463.5,-344"/>
<text text-anchor="middle" x="495" y="-351" font-family="Helvetica,sans-Serif" font-size="10.00" fill="#000000">Map::Map</text>
</a>
</g>
</g>
<!-- Node109&#45;&gt;Node112 -->
<g id="edge5" class="edge">
<title>Node109&#45;&gt;Node112</title>
<path fill="none" stroke="#191970" d="M377.1563,-387.9527C399.6472,-381.3772 429.7074,-372.5889 453.8379,-365.5341"/>
<polygon fill="#191970" stroke="#191970" points="454.8228,-368.8928 463.4388,-362.7272 452.8584,-362.174 454.8228,-368.8928"/>
</g>
<!-- Node117 -->
<g id="node11" class="node">
<title>Node117</title>
<g id="a_node11"><a xlink:href="classMap.html#a481b37ba71ef0e51e836fc42805762dd" target="_top" xlink:title="Update all mapNodes Updates all mapNode and its adjacent tiles regarding height information, draws slopes for adjacent tiles and sets tiling for mapNode sprite if applicable. ">
<polygon fill="none" stroke="#000000" points="597,-284 597,-303 717,-303 717,-284 597,-284"/>
<text text-anchor="middle" x="657" y="-291" font-family="Helvetica,sans-Serif" font-size="10.00" fill="#000000">Map::updateAllNodes</text>
</a>
</g>
</g>
<!-- Node109&#45;&gt;Node117 -->
<g id="edge35" class="edge">
<title>Node109&#45;&gt;Node117</title>
<path fill="none" stroke="#191970" d="M356.1205,-387.9482C373.7612,-373.9618 408.8678,-348.0996 443,-334.5 489.035,-316.1578 543.9923,-305.8517 586.6864,-300.1602"/>
<polygon fill="#191970" stroke="#191970" points="587.2321,-303.619 596.7073,-298.8785 586.344,-296.6755 587.2321,-303.619"/>
</g>
<!-- Node113 -->
<g id="node7" class="node">
<title>Node113</title>
<g id="a_node7"><a xlink:href="classMapLayers.html#a5db6ba7e194ada6a4d0334d0428ff89b" target="_top" xlink:title="Enable drawing layers. ">
<polygon fill="none" stroke="#000000" points="587,-322 587,-341 727,-341 727,-322 587,-322"/>
<text text-anchor="middle" x="657" y="-329" font-family="Helvetica,sans-Serif" font-size="10.00" fill="#000000">MapLayers::enableLayers</text>
</a>
</g>
</g>
<!-- Node112&#45;&gt;Node113 -->
<g id="edge6" class="edge">
<title>Node112&#45;&gt;Node113</title>
<path fill="none" stroke="#191970" d="M526.6198,-349.206C541.1483,-347.2329 559.1042,-344.7945 576.9953,-342.3648"/>
<polygon fill="#191970" stroke="#191970" points="577.4679,-345.8329 586.906,-341.0189 576.5259,-338.8965 577.4679,-345.8329"/>
</g>
<!-- Node114 -->
<g id="node8" class="node">
<title>Node114</title>
<g id="a_node8"><a xlink:href="classTerrainGenerator.html#afd2668a80a6f5043d2b8d6c7a5044ede" target="_top" xlink:title="TerrainGenerator::generate\lTerrain">
<polygon fill="none" stroke="#000000" points="583,-360.5 583,-390.5 731,-390.5 731,-360.5 583,-360.5"/>
<text text-anchor="start" x="591" y="-378.5" font-family="Helvetica,sans-Serif" font-size="10.00" fill="#000000">TerrainGenerator::generate</text>
<text text-anchor="middle" x="657" y="-367.5" font-family="Helvetica,sans-Serif" font-size="10.00" fill="#000000">Terrain</text>
</a>
</g>
</g>
<!-- Node112&#45;&gt;Node114 -->
<g id="edge7" class="edge">
<title>Node112&#45;&gt;Node114</title>
<path fill="none" stroke="#191970" d="M526.6198,-357.794C539.9642,-359.6063 556.2001,-361.8111 572.6214,-364.0412"/>
<polygon fill="#191970" stroke="#191970" points="572.4658,-367.5521 582.8458,-365.4297 573.4078,-360.6158 572.4658,-367.5521"/>
</g>
<!-- Node112&#45;&gt;Node117 -->
<g id="edge11" class="edge">
<title>Node112&#45;&gt;Node117</title>
<path fill="none" stroke="#191970" d="M515.7684,-343.9651C525.2941,-339.5788 536.7293,-334.2951 547,-329.5 563.033,-322.0147 566.3559,-318.505 583,-312.5 589.7764,-310.0551 597.0083,-307.7925 604.1974,-305.7447"/>
<polygon fill="#191970" stroke="#191970" points="605.2021,-309.0986 613.9274,-303.0886 603.3586,-302.3457 605.2021,-309.0986"/>
</g>
<!-- Node115 -->
<g id="node9" class="node">
<title>Node115</title>
<g id="a_node9"><a xlink:href="classTerrainGenerator.html#ac94cfaeb9dc89453018399361da5174a" target="_top" xlink:title="TerrainGenerator::loadTerrain\lDataFromJSON">
<polygon fill="none" stroke="#000000" points="767,-360.5 767,-390.5 925,-390.5 925,-360.5 767,-360.5"/>
<text text-anchor="start" x="775" y="-378.5" font-family="Helvetica,sans-Serif" font-size="10.00" fill="#000000">TerrainGenerator::loadTerrain</text>
<text text-anchor="middle" x="846" y="-367.5" font-family="Helvetica,sans-Serif" font-size="10.00" fill="#000000">DataFromJSON</text>
</a>
</g>
</g>
<!-- Node114&#45;&gt;Node115 -->
<g id="edge8" class="edge">
<title>Node114&#45;&gt;Node115</title>
<path fill="none" stroke="#191970" d="M731.1554,-375.5C739.5547,-375.5 748.1792,-375.5 756.7461,-375.5"/>
<polygon fill="#191970" stroke="#191970" points="756.7594,-379.0001 766.7593,-375.5 756.7593,-372.0001 756.7594,-379.0001"/>
</g>
<!-- Node116 -->
<g id="node10" class="node">
<title>Node116</title>
<g id="a_node10"><a xlink:href="classSingleton.html#af5cb1e5749949e2b68416cfb8d378044" target="_top" xlink:title="Get an instance of the singleton. ">
<polygon fill="none" stroke="#000000" points="1380.5,-240.5 1380.5,-270.5 1493.5,-270.5 1493.5,-240.5 1380.5,-240.5"/>
<text text-anchor="start" x="1388.5" y="-258.5" font-family="Helvetica,sans-Serif" font-size="10.00" fill="#000000">Singleton&lt; Settings</text>
<text text-anchor="middle" x="1437" y="-247.5" font-family="Helvetica,sans-Serif" font-size="10.00" fill="#000000"> &gt;::instance</text>
</a>
</g>
</g>
<!-- Node114&#45;&gt;Node116 -->
<g id="edge10" class="edge">
<title>Node114&#45;&gt;Node116</title>
<path fill="none" stroke="#191970" d="M718.3817,-360.4519C734.1448,-357.0444 751.133,-353.7672 767,-351.5 1015.7388,-315.9582 1089.6043,-382.2304 1331,-312.5 1358.2787,-304.6202 1386.465,-289.0449 1406.909,-276.1643"/>
<polygon fill="#191970" stroke="#191970" points="1408.9416,-279.0182 1415.4483,-270.6567 1405.1475,-273.1356 1408.9416,-279.0182"/>
</g>
<!-- Node115&#45;&gt;Node111 -->
<g id="edge9" class="edge">
<title>Node115&#45;&gt;Node111</title>
<path fill="none" stroke="#191970" d="M925.1085,-384.2898C942.7706,-386.2523 961.3137,-388.3126 978.3621,-390.2069"/>
<polygon fill="#191970" stroke="#191970" points="978.4373,-393.7367 988.7627,-391.3625 979.2104,-386.7795 978.4373,-393.7367"/>
</g>
<!-- Node118 -->
<g id="node12" class="node">
<title>Node118</title>
<g id="a_node12"><a xlink:href="classMap.html#af1e496c421981fe707890b0ba60cc20f" target="_top" xlink:title="Map::updateNodeNeighbors">
<polygon fill="none" stroke="#000000" points="770,-148 770,-167 922,-167 922,-148 770,-148"/>
<text text-anchor="middle" x="846" y="-155" font-family="Helvetica,sans-Serif" font-size="10.00" fill="#000000">Map::updateNodeNeighbors</text>
</a>
</g>
</g>
<!-- Node117&#45;&gt;Node118 -->
<g id="edge12" class="edge">
<title>Node117&#45;&gt;Node118</title>
<path fill="none" stroke="#191970" d="M670.2901,-283.9367C702.5521,-260.7217 785.2428,-201.2195 824.5831,-172.9111"/>
<polygon fill="#191970" stroke="#191970" points="826.6519,-175.7345 832.7246,-167.0527 822.5633,-170.0526 826.6519,-175.7345"/>
</g>
<!-- Node119 -->
<g id="node13" class="node">
<title>Node119</title>
<g id="a_node13"><a xlink:href="classMap.html#ad360682917f0061dbba995d645c56212" target="_top" xlink:title="Map::getNeighborNodes">
<polygon fill="none" stroke="#000000" points="977,-246 977,-265 1111,-265 1111,-246 977,-246"/>
<text text-anchor="middle" x="1044" y="-253" font-family="Helvetica,sans-Serif" font-size="10.00" fill="#000000">Map::getNeighborNodes</text>
</a>
</g>
</g>
<!-- Node118&#45;&gt;Node119 -->
<g id="edge13" class="edge">
<title>Node118&#45;&gt;Node119</title>
<path fill="none" stroke="#191970" d="M865.3456,-167.0751C900.3892,-184.4199 974.5224,-221.1121 1015.4183,-241.3535"/>
<polygon fill="#191970" stroke="#191970" points="1014.061,-244.5869 1024.5759,-245.886 1017.1662,-238.3133 1014.061,-244.5869"/>
</g>
<!-- Node122 -->
<g id="node16" class="node">
<title>Node122</title>
<g id="a_node16"><a xlink:href="classMap.html#a9751d8dc0c6b2b127400b05994118aba" target="_top" xlink:title="Map::updateHeight">
<polygon fill="none" stroke="#000000" points="989.5,-88 989.5,-107 1098.5,-107 1098.5,-88 989.5,-88"/>
<text text-anchor="middle" x="1044" y="-95" font-family="Helvetica,sans-Serif" font-size="10.00" fill="#000000">Map::updateHeight</text>
</a>
</g>
</g>
<!-- Node118&#45;&gt;Node122 -->
<g id="edge17" class="edge">
<title>Node118&#45;&gt;Node122</title>
<path fill="none" stroke="#191970" d="M870.4026,-147.8569C893.4963,-138.9571 929.2562,-125.7573 961,-116.5 969.558,-114.0043 978.6899,-111.63 987.6503,-109.4585"/>
<polygon fill="#191970" stroke="#191970" points="988.7257,-112.8009 997.6543,-107.0973 987.1177,-105.9881 988.7257,-112.8009"/>
</g>
<!-- Node124 -->
<g id="node18" class="node">
<title>Node124</title>
<g id="a_node18"><a xlink:href="classMapNode.html#a67296a58e167356efbabeaac3226b5d3" target="_top" xlink:title="get iso coordinates of this node gets the iso coordinates of this node ">
<polygon fill="none" stroke="#000000" points="1175.5,-6 1175.5,-25 1318.5,-25 1318.5,-6 1175.5,-6"/>
<text text-anchor="middle" x="1247" y="-13" font-family="Helvetica,sans-Serif" font-size="10.00" fill="#000000">MapNode::getCoordinates</text>
</a>
</g>
</g>
<!-- Node118&#45;&gt;Node124 -->
<g id="edge19" class="edge">
<title>Node118&#45;&gt;Node124</title>
<path fill="none" stroke="#191970" d="M856.8781,-147.8431C876.3351,-131.0977 919.0025,-96.7219 961,-78.5 981.7288,-69.5062 1111.5791,-42.6244 1189.0057,-27.0345"/>
<polygon fill="#191970" stroke="#191970" points="1189.9885,-30.4071 1199.103,-25.0056 1188.6094,-23.5443 1189.9885,-30.4071"/>
</g>
<!-- Node125 -->
<g id="node19" class="node">
<title>Node125</title>
<g id="a_node19"><a xlink:href="classMap.html#a769a53961d4a0dd34ee080d2da8c171e" target="_top" xlink:title="Map::getElevatedNeighbor\lBitmask">
<polygon fill="none" stroke="#000000" points="971,-.5 971,-30.5 1117,-30.5 1117,-.5 971,-.5"/>
<text text-anchor="start" x="979" y="-18.5" font-family="Helvetica,sans-Serif" font-size="10.00" fill="#000000">Map::getElevatedNeighbor</text>
<text text-anchor="middle" x="1044" y="-7.5" font-family="Helvetica,sans-Serif" font-size="10.00" fill="#000000">Bitmask</text>
</a>
</g>
</g>
<!-- Node118&#45;&gt;Node125 -->
<g id="edge20" class="edge">
<title>Node118&#45;&gt;Node125</title>
<path fill="none" stroke="#191970" d="M853.5742,-147.6931C870.5786,-126.2859 913.9968,-74.9365 961,-45.5 967.574,-41.3829 974.7938,-37.721 982.1469,-34.4952"/>
<polygon fill="#191970" stroke="#191970" points="983.5829,-37.689 991.4935,-30.641 980.9143,-31.2176 983.5829,-37.689"/>
</g>
<!-- Node126 -->
<g id="node20" class="node">
<title>Node126</title>
<g id="a_node20"><a xlink:href="classMap.html#aa8cc2ed983007621bce12dd9d1b8ec5b" target="_top" xlink:title="Demolish a node This function gathers all tiles that should be demolished and invokes the nodes demol...">
<polygon fill="none" stroke="#000000" points="987.5,-170 987.5,-189 1100.5,-189 1100.5,-170 987.5,-170"/>
<text text-anchor="middle" x="1044" y="-177" font-family="Helvetica,sans-Serif" font-size="10.00" fill="#000000">Map::demolishNode</text>
</a>
</g>
</g>
<!-- Node118&#45;&gt;Node126 -->
<g id="edge22" class="edge">
<title>Node118&#45;&gt;Node126</title>
<path fill="none" stroke="#191970" d="M922.2687,-159.385C947.4927,-161.8252 974.7977,-165.1098 997.1432,-168.4563"/>
<polygon fill="#191970" stroke="#191970" points="996.6165,-171.9164 1007.0357,-169.9955 997.6927,-164.9996 996.6165,-171.9164"/>
</g>
<!-- Node131 -->
<g id="node25" class="node">
<title>Node131</title>
<g id="a_node25"><a xlink:href="classMap.html#af192be95053d30ea6c6d9327106bf6d8" target="_top" xlink:title="Get a bitmask that represents same&#45;tile neighbors Checks all neighboring tiles and returns the elevat...">
<polygon fill="none" stroke="#000000" points="961,-126 961,-145 1127,-145 1127,-126 961,-126"/>
<text text-anchor="middle" x="1044" y="-133" font-family="Helvetica,sans-Serif" font-size="10.00" fill="#000000">Map::calculateAutotileBitmask</text>
</a>
</g>
</g>
<!-- Node118&#45;&gt;Node131 -->
<g id="edge31" class="edge">
<title>Node118&#45;&gt;Node131</title>
<path fill="none" stroke="#191970" d="M922.2687,-149.0257C931.6478,-147.9836 941.3146,-146.9095 950.9072,-145.8436"/>
<polygon fill="#191970" stroke="#191970" points="951.3094,-149.3206 960.8617,-144.7376 950.5363,-142.3634 951.3094,-149.3206"/>
</g>
<!-- Node120 -->
<g id="node14" class="node">
<title>Node120</title>
<g id="a_node14"><a xlink:href="isoMath_8cxx.html#a7fa61c3d8ef446fb1c48dc4838023649" target="_top" xlink:title="Check if given coordinates are within map boundaries Checks if coordinates are within map boundaries...">
<polygon fill="none" stroke="#000000" points="1169,-246 1169,-265 1325,-265 1325,-246 1169,-246"/>
<text text-anchor="middle" x="1247" y="-253" font-family="Helvetica,sans-Serif" font-size="10.00" fill="#000000">isPointWithinMapBoundaries</text>
</a>
</g>
</g>
<!-- Node119&#45;&gt;Node120 -->
<g id="edge14" class="edge">
<title>Node119&#45;&gt;Node120</title>
<path fill="none" stroke="#191970" d="M1111.0324,-255.5C1126.1901,-255.5 1142.5115,-255.5 1158.4039,-255.5"/>
<polygon fill="#191970" stroke="#191970" points="1158.769,-259.0001 1168.769,-255.5 1158.769,-252.0001 1158.769,-259.0001"/>
</g>
<!-- Node121 -->
<g id="node15" class="node">
<title>Node121</title>
<g id="a_node15"><a xlink:href="classMap.html#a1676db3d125b2c1764adfcb64d6332a2" target="_top" xlink:title="Map::nodeIdx">
<polygon fill="none" stroke="#000000" points="1206,-284 1206,-303 1288,-303 1288,-284 1206,-284"/>
<text text-anchor="middle" x="1247" y="-291" font-family="Helvetica,sans-Serif" font-size="10.00" fill="#000000">Map::nodeIdx</text>
</a>
</g>
</g>
<!-- Node119&#45;&gt;Node121 -->
<g id="edge16" class="edge">
<title>Node119&#45;&gt;Node121</title>
<path fill="none" stroke="#191970" d="M1094.9634,-265.04C1125.7748,-270.8076 1164.9275,-278.1367 1195.7842,-283.9128"/>
<polygon fill="#191970" stroke="#191970" points="1195.4333,-287.4078 1205.9066,-285.8076 1196.7213,-280.5273 1195.4333,-287.4078"/>
</g>
<!-- Node120&#45;&gt;Node116 -->
<g id="edge15" class="edge">
<title>Node120&#45;&gt;Node116</title>
<path fill="none" stroke="#191970" d="M1325.1028,-255.5C1340.0103,-255.5 1355.4914,-255.5 1370.0134,-255.5"/>
<polygon fill="#191970" stroke="#191970" points="1370.3963,-259.0001 1380.3962,-255.5 1370.3962,-252.0001 1370.3963,-259.0001"/>
</g>
<!-- Node123 -->
<g id="node17" class="node">
<title>Node123</title>
<g id="a_node17"><a xlink:href="classMapNode.html#a10dded7848621ba007c3d3fc85392e32" target="_top" xlink:title="Change Height Increases or decrease the height of the node and its sprite This function should not be...">
<polygon fill="none" stroke="#000000" points="1179,-44 1179,-63 1315,-63 1315,-44 1179,-44"/>
<text text-anchor="middle" x="1247" y="-51" font-family="Helvetica,sans-Serif" font-size="10.00" fill="#000000">MapNode::changeHeight</text>
</a>
</g>
</g>
<!-- Node122&#45;&gt;Node123 -->
<g id="edge18" class="edge">
<title>Node122&#45;&gt;Node123</title>
<path fill="none" stroke="#191970" d="M1088.048,-87.9527C1118.9057,-81.2643 1160.3268,-72.2863 1193.1491,-65.1721"/>
<polygon fill="#191970" stroke="#191970" points="1194.0064,-68.5677 1203.038,-63.0287 1192.5235,-61.7265 1194.0064,-68.5677"/>
</g>
<!-- Node125&#45;&gt;Node124 -->
<g id="edge21" class="edge">
<title>Node125&#45;&gt;Node124</title>
<path fill="none" stroke="#191970" d="M1117.0009,-15.5C1132.5725,-15.5 1149.118,-15.5 1165.0014,-15.5"/>
<polygon fill="#191970" stroke="#191970" points="1165.3266,-19.0001 1175.3266,-15.5 1165.3266,-12.0001 1165.3266,-19.0001"/>
</g>
<!-- Node126&#45;&gt;Node118 -->
<g id="edge30" class="edge">
<title>Node126&#45;&gt;Node118</title>
<path fill="none" stroke="#191970" d="M987.4392,-179.3809C957.6572,-176.9441 921.5549,-172.8288 893.2793,-168.6068"/>
<polygon fill="#191970" stroke="#191970" points="893.6607,-165.1242 883.2423,-167.0495 892.5874,-172.0415 893.6607,-165.1242"/>
</g>
<!-- Node126&#45;&gt;Node120 -->
<g id="edge23" class="edge">
<title>Node126&#45;&gt;Node120</title>
<path fill="none" stroke="#191970" d="M1060.829,-189.0547C1083.4297,-201.5338 1125.1348,-223.3364 1163,-236.5 1170.5303,-239.1178 1178.5677,-241.4694 1186.5744,-243.5521"/>
<polygon fill="#191970" stroke="#191970" points="1185.7412,-246.9514 1196.2895,-245.959 1187.4246,-240.1568 1185.7412,-246.9514"/>
</g>
<!-- Node126&#45;&gt;Node121 -->
<g id="edge24" class="edge">
<title>Node126&#45;&gt;Node121</title>
<path fill="none" stroke="#191970" d="M1060.0094,-189.0779C1077.2717,-199.7215 1105.2051,-217.8764 1127,-236.5 1144.6868,-251.6133 1142.7811,-262.9922 1163,-274.5 1173.0504,-280.2203 1184.6953,-284.2184 1196.0538,-287.0128"/>
<polygon fill="#191970" stroke="#191970" points="1195.3973,-290.4519 1205.9145,-289.1717 1196.8945,-283.6139 1195.3973,-290.4519"/>
</g>
<!-- Node127 -->
<g id="node21" class="node">
<title>Node127</title>
<g id="a_node21"><a xlink:href="classMapNode.html#a6b57e4355d0780fb37c34d63bbcdfdf9" target="_top" xlink:title="MapNode::getMapNodeDataFor\lLayer">
<polygon fill="none" stroke="#000000" points="1163,-120.5 1163,-150.5 1331,-150.5 1331,-120.5 1163,-120.5"/>
<text text-anchor="start" x="1171" y="-138.5" font-family="Helvetica,sans-Serif" font-size="10.00" fill="#000000">MapNode::getMapNodeDataFor</text>
<text text-anchor="middle" x="1247" y="-127.5" font-family="Helvetica,sans-Serif" font-size="10.00" fill="#000000">Layer</text>
</a>
</g>
</g>
<!-- Node126&#45;&gt;Node127 -->
<g id="edge25" class="edge">
<title>Node126&#45;&gt;Node127</title>
<path fill="none" stroke="#191970" d="M1088.048,-169.9527C1111.3115,-164.9103 1140.5789,-158.5666 1167.6393,-152.7013"/>
<polygon fill="#191970" stroke="#191970" points="1168.4623,-156.1043 1177.4939,-150.5654 1166.9794,-149.2632 1168.4623,-156.1043"/>
</g>
<!-- Node128 -->
<g id="node22" class="node">
<title>Node128</title>
<g id="a_node22"><a xlink:href="classMapNode.html#ad74bb8fd5b519f5e909f0e807960a918" target="_top" xlink:title="MapNode::getOrigCornerPoint">
<polygon fill="none" stroke="#000000" points="1166.5,-208 1166.5,-227 1327.5,-227 1327.5,-208 1166.5,-208"/>
<text text-anchor="middle" x="1247" y="-215" font-family="Helvetica,sans-Serif" font-size="10.00" fill="#000000">MapNode::getOrigCornerPoint</text>
</a>
</g>
</g>
<!-- Node126&#45;&gt;Node128 -->
<g id="edge26" class="edge">
<title>Node126&#45;&gt;Node128</title>
<path fill="none" stroke="#191970" d="M1094.9634,-189.04C1122.5941,-194.2122 1156.9328,-200.6401 1185.9811,-206.0778"/>
<polygon fill="#191970" stroke="#191970" points="1185.5423,-209.5563 1196.0156,-207.9561 1186.8303,-202.6758 1185.5423,-209.5563"/>
</g>
<!-- Node129 -->
<g id="node23" class="node">
<title>Node129</title>
<g id="a_node23"><a xlink:href="classMap.html#a3952b445c55efce61c1ccac6f362fe89" target="_top" xlink:title="Return vector of Points of an Object Tiles selection. ">
<polygon fill="none" stroke="#000000" points="1185,-170 1185,-189 1309,-189 1309,-170 1185,-170"/>
<text text-anchor="middle" x="1247" y="-177" font-family="Helvetica,sans-Serif" font-size="10.00" fill="#000000">Map::getObjectCoords</text>
</a>
</g>
</g>
<!-- Node126&#45;&gt;Node129 -->
<g id="edge27" class="edge">
<title>Node126&#45;&gt;Node129</title>
<path fill="none" stroke="#191970" d="M1100.5468,-179.5C1123.4382,-179.5 1150.1525,-179.5 1174.451,-179.5"/>
<polygon fill="#191970" stroke="#191970" points="1174.6986,-183.0001 1184.6986,-179.5 1174.6986,-176.0001 1174.6986,-183.0001"/>
</g>
<!-- Node129&#45;&gt;Node116 -->
<g id="edge28" class="edge">
<title>Node129&#45;&gt;Node116</title>
<path fill="none" stroke="#191970" d="M1299.6226,-189.0998C1310.168,-191.6635 1321.057,-194.7811 1331,-198.5 1356.9127,-208.1919 1384.3766,-223.1063 1404.8552,-235.2482"/>
<polygon fill="#191970" stroke="#191970" points="1403.0879,-238.2695 1413.46,-240.4304 1406.6993,-232.273 1403.0879,-238.2695"/>
</g>
<!-- Node130 -->
<g id="node24" class="node">
<title>Node130</title>
<g id="a_node24"><a xlink:href="classTileManager.html#a8ee071ff8b24926288437d310f9bc714" target="_top" xlink:title="TileManager::getTileData">
<polygon fill="none" stroke="#000000" points="1367,-170 1367,-189 1507,-189 1507,-170 1367,-170"/>
<text text-anchor="middle" x="1437" y="-177" font-family="Helvetica,sans-Serif" font-size="10.00" fill="#000000">TileManager::getTileData</text>
</a>
</g>
</g>
<!-- Node129&#45;&gt;Node130 -->
<g id="edge29" class="edge">
<title>Node129&#45;&gt;Node130</title>
<path fill="none" stroke="#191970" d="M1309.2131,-179.5C1324.3056,-179.5 1340.6566,-179.5 1356.4608,-179.5"/>
<polygon fill="#191970" stroke="#191970" points="1356.7487,-183.0001 1366.7487,-179.5 1356.7487,-176.0001 1356.7487,-183.0001"/>
</g>
<!-- Node131&#45;&gt;Node127 -->
<g id="edge32" class="edge">
<title>Node131&#45;&gt;Node127</title>
<path fill="none" stroke="#191970" d="M1127.1536,-135.5C1135.6531,-135.5 1144.3302,-135.5 1152.9356,-135.5"/>
<polygon fill="#191970" stroke="#191970" points="1152.9897,-139.0001 1162.9897,-135.5 1152.9897,-132.0001 1152.9897,-139.0001"/>
</g>
<!-- Node132 -->
<g id="node26" class="node">
<title>Node132</title>
<g id="a_node26"><a xlink:href="classMapNode.html#afb1cbc0f9e987b7befced46220dd9277" target="_top" xlink:title="check if specific layer can be autotiled. ">
<polygon fill="none" stroke="#000000" points="1175,-82 1175,-101 1319,-101 1319,-82 1175,-82"/>
<text text-anchor="middle" x="1247" y="-89" font-family="Helvetica,sans-Serif" font-size="10.00" fill="#000000">MapNode::isLayerAutoTile</text>
</a>
</g>
</g>
<!-- Node131&#45;&gt;Node132 -->
<g id="edge33" class="edge">
<title>Node131&#45;&gt;Node132</title>
<path fill="none" stroke="#191970" d="M1088.048,-125.9527C1118.9057,-119.2643 1160.3268,-110.2863 1193.1491,-103.1721"/>
<polygon fill="#191970" stroke="#191970" points="1194.0064,-106.5677 1203.038,-101.0287 1192.5235,-99.7265 1194.0064,-106.5677"/>
</g>
<!-- Node133 -->
<g id="node27" class="node">
<title>Node133</title>
<g id="a_node27"><a xlink:href="classMapNode.html#a64cb9a4523c9e78f256fde42f1dee43d" target="_top" xlink:title="check if specific Tile Data is autotile category. ">
<polygon fill="none" stroke="#000000" points="1367,-82 1367,-101 1507,-101 1507,-82 1367,-82"/>
<text text-anchor="middle" x="1437" y="-89" font-family="Helvetica,sans-Serif" font-size="10.00" fill="#000000">MapNode::isDataAutoTile</text>
</a>
</g>
</g>
<!-- Node132&#45;&gt;Node133 -->
<g id="edge34" class="edge">
<title>Node132&#45;&gt;Node133</title>
<path fill="none" stroke="#191970" d="M1319.1018,-91.5C1331.3221,-91.5 1344.0799,-91.5 1356.4991,-91.5"/>
<polygon fill="#191970" stroke="#191970" points="1356.8325,-95.0001 1366.8324,-91.5 1356.8324,-88.0001 1356.8325,-95.0001"/>
</g>
</g>
</svg>
        <g id="navigator" transform="translate(0 0)" fill="#404254">
                <rect fill="#f2f5e9" fill-opacity="0.5" stroke="#606060" stroke-width=".5" x="0" y="0" width="60" height="60"/>
                <use id="zoomplus" xlink:href="#zoomPlus" x="17" y="9" onmousedown="handleZoom(evt,'in')"/>
                <use id="zoomminus" xlink:href="#zoomMin" x="42" y="9" onmousedown="handleZoom(evt,'out')"/>
                <use id="reset" xlink:href="#resetDef" x="30" y="36" onmousedown="handleReset()"/>
                <g id="arrowUp" xlink:href="#dirArrow" transform="translate(30 24)" onmousedown="handlePan(0,-1)">
                  <use xlink:href="#rim" fill="#404040">
                        <set attributeName="fill" to="#808080" begin="arrowUp.mouseover" end="arrowUp.mouseout"/>
                  </use>
                  <path fill="none" stroke="white" stroke-width="1.5" d="M0,-3.0v7 M-2.5,-0.5L0,-3.0L2.5,-0.5"/>
                </g>
                <g id="arrowRight" xlink:href="#dirArrow" transform="rotate(90) translate(36 -43)" onmousedown="handlePan(1,0)">
                  <use xlink:href="#rim" fill="#404040">
                        <set attributeName="fill" to="#808080" begin="arrowRight.mouseover" end="arrowRight.mouseout"/>
                  </use>
                  <path fill="none" stroke="white" stroke-width="1.5" d="M0,-3.0v7 M-2.5,-0.5L0,-3.0L2.5,-0.5"/>
                </g>
                <g id="arrowDown" xlink:href="#dirArrow" transform="rotate(180) translate(-30 -48)" onmousedown="handlePan(0,1)">
                  <use xlink:href="#rim" fill="#404040">
                        <set attributeName="fill" to="#808080" begin="arrowDown.mouseover" end="arrowDown.mouseout"/>
                  </use>
                  <path fill="none" stroke="white" stroke-width="1.5" d="M0,-3.0v7 M-2.5,-0.5L0,-3.0L2.5,-0.5"/>
                </g>
                <g id="arrowLeft" xlink:href="#dirArrow" transform="rotate(270) translate(-36 17)" onmousedown="handlePan(-1,0)">
                  <use xlink:href="#rim" fill="#404040">
                        <set attributeName="fill" to="#808080" begin="arrowLeft.mouseover" end="arrowLeft.mouseout"/>
                  </use>
                  <path fill="none" stroke="white" stroke-width="1.5" d="M0,-3.0v7 M-2.5,-0.5L0,-3.0L2.5,-0.5"/>
                </g>
        </g>
        <svg viewBox="0 0 15 15" width="100%" height="30px" preserveAspectRatio="xMaxYMin meet">
         <g id="arrow_out" transform="scale(0.3 0.3)">
          <a xlink:href="classEngine_a0ba57971ffb5173ecc425461f65a4cd8_cgraph_org.svg" target="_base">
           <rect id="button" ry="5" rx="5" y="6" x="6" height="38" width="38"
                fill="#f2f5e9" fill-opacity="0.5" stroke="#606060" stroke-width="1.0"/>
           <path id="arrow"
             d="M 11.500037,31.436501 C 11.940474,20.09759 22.043105,11.32322 32.158766,21.979434 L 37.068811,17.246167 C 37.068811,17.246167 37.088388,32 37.088388,32 L 22.160133,31.978069 C 22.160133,31.978069 26.997745,27.140456 26.997745,27.140456 C 18.528582,18.264221 13.291696,25.230495 11.500037,31.436501 z"
             style="fill:#404040;"/>
          </a>
         </g>
        </svg>
</svg>
