<?xml version="1.0" encoding="UTF-8" standalone="no"?>
<!DOCTYPE svg PUBLIC "-//W3C//DTD SVG 1.1//EN"
 "http://www.w3.org/Graphics/SVG/1.1/DTD/svg11.dtd">
<!-- Generated by graphviz version 2.40.1 (20161225.0304)
 -->
<!-- Title: Map::getNeighborNodes Pages: 1 -->
<svg width="483pt" height="72pt"
 viewBox="0.00 0.00 483.00 71.50" xmlns="http://www.w3.org/2000/svg" xmlns:xlink="http://www.w3.org/1999/xlink">
<g id="graph0" class="graph" transform="scale(1 1) rotate(0) translate(4 67.5)">
<title>Map::getNeighborNodes</title>
<!-- Node228 -->
<g id="node1" class="node">
<title>Node228</title>
<polygon fill="#bfbfbf" stroke="#000000" points="0,-19.5 0,-38.5 134,-38.5 134,-19.5 0,-19.5"/>
<text text-anchor="middle" x="67" y="-26.5" font-family="Helvetica,sans-Serif" font-size="10.00" fill="#000000">Map::getNeighborNodes</text>
</g>
<!-- Node229 -->
<g id="node2" class="node">
<title>Node229</title>
<g id="a_node2"><a xlink:href="isoMath_8cxx.html#a7fa61c3d8ef446fb1c48dc4838023649" target="_top" xlink:title="Check if given coordinates are within map boundaries Checks if coordinates are within map boundaries...">
<polygon fill="none" stroke="#000000" points="170,-38.5 170,-57.5 326,-57.5 326,-38.5 170,-38.5"/>
<text text-anchor="middle" x="248" y="-45.5" font-family="Helvetica,sans-Serif" font-size="10.00" fill="#000000">isPointWithinMapBoundaries</text>
</a>
</g>
</g>
<!-- Node228&#45;&gt;Node229 -->
<g id="edge1" class="edge">
<title>Node228&#45;&gt;Node229</title>
<path fill="none" stroke="#191970" d="M134.1405,-36.0479C142.5286,-36.9284 151.2041,-37.8391 159.851,-38.7468"/>
<polygon fill="#191970" stroke="#191970" points="159.6588,-42.2458 169.9696,-39.809 160.3896,-35.284 159.6588,-42.2458"/>
</g>
<!-- Node231 -->
<g id="node4" class="node">
<title>Node231</title>
<g id="a_node4"><a xlink:href="classMap.html#a1676db3d125b2c1764adfcb64d6332a2" target="_top" xlink:title="Map::nodeIdx">
<polygon fill="none" stroke="#000000" points="207,-.5 207,-19.5 289,-19.5 289,-.5 207,-.5"/>
<text text-anchor="middle" x="248" y="-7.5" font-family="Helvetica,sans-Serif" font-size="10.00" fill="#000000">Map::nodeIdx</text>
</a>
</g>
</g>
<!-- Node228&#45;&gt;Node231 -->
<g id="edge3" class="edge">
<title>Node228&#45;&gt;Node231</title>
<path fill="none" stroke="#191970" d="M134.1405,-21.9521C154.8636,-19.7768 177.3408,-17.4173 196.8067,-15.3739"/>
<polygon fill="#191970" stroke="#191970" points="197.4027,-18.8306 206.9826,-14.3057 196.6719,-11.8689 197.4027,-18.8306"/>
</g>
<!-- Node230 -->
<g id="node3" class="node">
<title>Node230</title>
<g id="a_node3"><a xlink:href="classSingleton.html#af5cb1e5749949e2b68416cfb8d378044" target="_top" xlink:title="Get an instance of the singleton. ">
<polygon fill="none" stroke="#000000" points="362,-33 362,-63 475,-63 475,-33 362,-33"/>
<text text-anchor="start" x="370" y="-51" font-family="Helvetica,sans-Serif" font-size="10.00" fill="#000000">Singleton&lt; Settings</text>
<text text-anchor="middle" x="418.5" y="-40" font-family="Helvetica,sans-Serif" font-size="10.00" fill="#000000"> &gt;::instance</text>
</a>
</g>
</g>
<!-- Node229&#45;&gt;Node230 -->
<g id="edge2" class="edge">
<title>Node229&#45;&gt;Node230</title>
<path fill="none" stroke="#191970" d="M326.2638,-48C334.635,-48 343.0967,-48 351.323,-48"/>
<polygon fill="#191970" stroke="#191970" points="351.5927,-51.5001 361.5927,-48 351.5926,-44.5001 351.5927,-51.5001"/>
</g>
</g>
</svg>
