<?xml version="1.0" encoding="UTF-8" standalone="no"?>
<!DOCTYPE svg PUBLIC "-//W3C//DTD SVG 1.1//EN"
 "http://www.w3.org/Graphics/SVG/1.1/DTD/svg11.dtd">
<!-- Generated by graphviz version 2.40.1 (20161225.0304)
 -->
<!-- Title: Camera::decreaseZoomLevel Pages: 1 -->
<svg width="941pt" height="197pt"
 viewBox="0.00 0.00 941.00 196.63" xmlns="http://www.w3.org/2000/svg" xmlns:xlink="http://www.w3.org/1999/xlink">
<g id="graph0" class="graph" transform="scale(1 1) rotate(0) translate(4 192.6289)">
<title>Camera::decreaseZoomLevel</title>
<!-- Node36 -->
<g id="node1" class="node">
<title>Node36</title>
<polygon fill="#bfbfbf" stroke="#000000" points="0,-114.5 0,-133.5 160,-133.5 160,-114.5 0,-114.5"/>
<text text-anchor="middle" x="80" y="-121.5" font-family="Helvetica,sans-Serif" font-size="10.00" fill="#000000">Camera::decreaseZoomLevel</text>
</g>
<!-- Node37 -->
<g id="node2" class="node">
<title>Node37</title>
<g id="a_node2"><a xlink:href="classCamera.html#adfb240823ff20b97b69459490dbd8dc3" target="_top" xlink:title="Centers camera on given isometric coordinates Centers the camera on the given isometric coordinates...">
<polygon fill="none" stroke="#000000" points="196,-114.5 196,-133.5 359,-133.5 359,-114.5 196,-114.5"/>
<text text-anchor="middle" x="277.5" y="-121.5" font-family="Helvetica,sans-Serif" font-size="10.00" fill="#000000">Camera::centerScreenOnPoint</text>
</a>
</g>
</g>
<!-- Node36&#45;&gt;Node37 -->
<g id="edge1" class="edge">
<title>Node36&#45;&gt;Node37</title>
<path fill="none" stroke="#191970" d="M160.0461,-124C168.5,-124 177.1437,-124 185.7171,-124"/>
<polygon fill="#191970" stroke="#191970" points="185.7335,-127.5001 195.7335,-124 185.7335,-120.5001 185.7335,-127.5001"/>
</g>
<!-- Node39 -->
<g id="node4" class="node">
<title>Node39</title>
<g id="a_node4"><a xlink:href="classSingleton.html#af5cb1e5749949e2b68416cfb8d378044" target="_top" xlink:title="Get an instance of the singleton. ">
<polygon fill="none" stroke="#000000" points="791.5,-156 791.5,-186 904.5,-186 904.5,-156 791.5,-156"/>
<text text-anchor="start" x="799.5" y="-174" font-family="Helvetica,sans-Serif" font-size="10.00" fill="#000000">Singleton&lt; Settings</text>
<text text-anchor="middle" x="848" y="-163" font-family="Helvetica,sans-Serif" font-size="10.00" fill="#000000"> &gt;::instance</text>
</a>
</g>
</g>
<!-- Node36&#45;&gt;Node39 -->
<g id="edge14" class="edge">
<title>Node36&#45;&gt;Node39</title>
<path fill="none" stroke="#191970" d="M126.6,-133.5218C232.8839,-154.129 501.4655,-199.9261 727,-186 744.573,-184.9149 763.5,-182.9515 781.0462,-180.795"/>
<polygon fill="#191970" stroke="#191970" points="781.7165,-184.2381 791.1969,-179.5082 780.8361,-177.2937 781.7165,-184.2381"/>
</g>
<!-- Node41 -->
<g id="node6" class="node">
<title>Node41</title>
<g id="a_node6"><a xlink:href="classMap.html#ab69938ac0e56eb0da1d1701221f3d185" target="_top" xlink:title="Refresh all the map tile textures. ">
<polygon fill="none" stroke="#000000" points="434.5,-.5 434.5,-19.5 511.5,-19.5 511.5,-.5 434.5,-.5"/>
<text text-anchor="middle" x="473" y="-7.5" font-family="Helvetica,sans-Serif" font-size="10.00" fill="#000000">Map::refresh</text>
</a>
</g>
</g>
<!-- Node36&#45;&gt;Node41 -->
<g id="edge15" class="edge">
<title>Node36&#45;&gt;Node41</title>
<path fill="none" stroke="#191970" d="M112.831,-114.4765C183.7731,-93.8979 351.3276,-45.2943 430.3474,-22.3725"/>
<polygon fill="#191970" stroke="#191970" points="431.3571,-25.724 439.9861,-19.5766 429.4069,-19.0011 431.3571,-25.724"/>
</g>
<!-- Node38 -->
<g id="node3" class="node">
<title>Node38</title>
<g id="a_node3"><a xlink:href="isoMath_8cxx.html#a7fa61c3d8ef446fb1c48dc4838023649" target="_top" xlink:title="Check if given coordinates are within map boundaries Checks if coordinates are within map boundaries...">
<polygon fill="none" stroke="#000000" points="395,-114.5 395,-133.5 551,-133.5 551,-114.5 395,-114.5"/>
<text text-anchor="middle" x="473" y="-121.5" font-family="Helvetica,sans-Serif" font-size="10.00" fill="#000000">isPointWithinMapBoundaries</text>
</a>
</g>
</g>
<!-- Node37&#45;&gt;Node38 -->
<g id="edge2" class="edge">
<title>Node37&#45;&gt;Node38</title>
<path fill="none" stroke="#191970" d="M359.2768,-124C367.6826,-124 376.2504,-124 384.7223,-124"/>
<polygon fill="#191970" stroke="#191970" points="384.9915,-127.5001 394.9914,-124 384.9914,-120.5001 384.9915,-127.5001"/>
</g>
<!-- Node37&#45;&gt;Node39 -->
<g id="edge5" class="edge">
<title>Node37&#45;&gt;Node39</title>
<path fill="none" stroke="#191970" d="M359.2157,-129.372C371.1915,-131.0584 383.3966,-132.7064 395,-134 531.7208,-149.2418 692.6494,-156.7171 781.1785,-162.7849"/>
<polygon fill="#191970" stroke="#191970" points="781.1269,-166.2898 791.3476,-163.4994 781.6176,-159.307 781.1269,-166.2898"/>
</g>
<!-- Node37&#45;&gt;Node39 -->
<g id="edge6" class="edge">
<title>Node37&#45;&gt;Node39</title>
<path fill="none" stroke="#191970" d="M294.9444,-133.5472C317.8255,-140.6704 359.2655,-148.0163 395,-152 531.7208,-167.2418 692.6494,-174.7171 781.1785,-175.0755"/>
<polygon fill="#191970" stroke="#191970" points="781.3444,-178.5756 791.3476,-175.0846 781.3508,-171.5756 781.3444,-178.5756"/>
</g>
<!-- Node40 -->
<g id="node5" class="node">
<title>Node40</title>
<g id="a_node5"><a xlink:href="isoMath_8cxx.html#a229d5dd54cd4e1f43ed5911e4fd266d3" target="_top" xlink:title="converts coordinates from isometric to screen space The given isometric coordinates (which contain he...">
<polygon fill="none" stroke="#000000" points="763,-10.5 763,-29.5 933,-29.5 933,-10.5 763,-10.5"/>
<text text-anchor="middle" x="848" y="-17.5" font-family="Helvetica,sans-Serif" font-size="10.00" fill="#000000">convertIsoToScreenCoordinates</text>
</a>
</g>
</g>
<!-- Node37&#45;&gt;Node40 -->
<g id="edge4" class="edge">
<title>Node37&#45;&gt;Node40</title>
<path fill="none" stroke="#191970" d="M328.9656,-114.4573C390.3744,-103.0858 496.1589,-83.5441 587,-67 654.4476,-54.7163 731.7347,-40.8213 784.596,-31.3452"/>
<polygon fill="#191970" stroke="#191970" points="785.2773,-34.7789 794.503,-29.5697 784.0424,-27.8887 785.2773,-34.7789"/>
</g>
<!-- Node37&#45;&gt;Node41 -->
<g id="edge7" class="edge">
<title>Node37&#45;&gt;Node41</title>
<path fill="none" stroke="#191970" d="M290.2373,-114.3767C306.3038,-102.2229 334.7626,-80.6439 359,-62 375.0664,-49.6414 377.0187,-43.356 395,-34 404.1437,-29.2424 414.3896,-25.2506 424.3728,-21.9736"/>
<polygon fill="#191970" stroke="#191970" points="425.6961,-25.2281 434.218,-18.933 423.6305,-18.5398 425.6961,-25.2281"/>
</g>
<!-- Node38&#45;&gt;Node39 -->
<g id="edge3" class="edge">
<title>Node38&#45;&gt;Node39</title>
<path fill="none" stroke="#191970" d="M551.0387,-129.4728C601.3977,-133.4728 668.2358,-139.6574 727,-148 744.609,-150.4999 763.5486,-153.8033 781.0954,-157.1242"/>
<polygon fill="#191970" stroke="#191970" points="780.7642,-160.6245 791.2452,-159.0755 782.0858,-153.7504 780.7642,-160.6245"/>
</g>
<!-- Node42 -->
<g id="node7" class="node">
<title>Node42</title>
<g id="a_node7"><a xlink:href="classMap.html#af654ddecf0d25b836d7c9c27ee5c2150" target="_top" xlink:title="Map::calculateVisibleMap">
<polygon fill="none" stroke="#000000" points="587,-76.5 587,-95.5 727,-95.5 727,-76.5 587,-76.5"/>
<text text-anchor="middle" x="657" y="-83.5" font-family="Helvetica,sans-Serif" font-size="10.00" fill="#000000">Map::calculateVisibleMap</text>
</a>
</g>
</g>
<!-- Node41&#45;&gt;Node42 -->
<g id="edge8" class="edge">
<title>Node41&#45;&gt;Node42</title>
<path fill="none" stroke="#191970" d="M496.3037,-19.6255C528.7936,-33.0452 587.8399,-57.4339 624.5996,-72.6172"/>
<polygon fill="#191970" stroke="#191970" points="623.3067,-75.87 633.8855,-76.4527 625.979,-69.4001 623.3067,-75.87"/>
</g>
<!-- Node45 -->
<g id="node10" class="node">
<title>Node45</title>
<g id="a_node10"><a xlink:href="classSprite.html#ababb7913a4d642b0d20a2c48c2a7e77a" target="_top" xlink:title="Sprite::refresh">
<polygon fill="none" stroke="#000000" points="614,-.5 614,-19.5 700,-19.5 700,-.5 614,-.5"/>
<text text-anchor="middle" x="657" y="-7.5" font-family="Helvetica,sans-Serif" font-size="10.00" fill="#000000">Sprite::refresh</text>
</a>
</g>
</g>
<!-- Node41&#45;&gt;Node45 -->
<g id="edge12" class="edge">
<title>Node41&#45;&gt;Node45</title>
<path fill="none" stroke="#191970" d="M511.5724,-10C538.344,-10 574.3525,-10 603.8403,-10"/>
<polygon fill="#191970" stroke="#191970" points="603.9727,-13.5001 613.9727,-10 603.9727,-6.5001 603.9727,-13.5001"/>
</g>
<!-- Node42&#45;&gt;Node39 -->
<g id="edge10" class="edge">
<title>Node42&#45;&gt;Node39</title>
<path fill="none" stroke="#191970" d="M687.661,-95.5041C700.0239,-99.5962 714.3312,-104.6643 727,-110 756.0931,-122.2532 787.932,-138.4209 811.6447,-151.0327"/>
<polygon fill="#191970" stroke="#191970" points="810.1655,-154.2109 820.6328,-155.8497 813.4721,-148.041 810.1655,-154.2109"/>
</g>
<!-- Node43 -->
<g id="node8" class="node">
<title>Node43</title>
<g id="a_node8"><a xlink:href="isoMath_8cxx.html#a0a076d973bc64ffa7859b894793c8000" target="_top" xlink:title="Calculates screen space coordinates to isometric space coordinates. A formula is used to calculate th...">
<polygon fill="none" stroke="#000000" points="781,-95.5 781,-114.5 915,-114.5 915,-95.5 781,-95.5"/>
<text text-anchor="middle" x="848" y="-102.5" font-family="Helvetica,sans-Serif" font-size="10.00" fill="#000000">calculateIsoCoordinates</text>
</a>
</g>
</g>
<!-- Node42&#45;&gt;Node43 -->
<g id="edge9" class="edge">
<title>Node42&#45;&gt;Node43</title>
<path fill="none" stroke="#191970" d="M727.0368,-92.967C741.1728,-94.3732 756.1119,-95.8593 770.4868,-97.2893"/>
<polygon fill="#191970" stroke="#191970" points="770.5373,-100.8115 780.8347,-98.3186 771.2303,-93.8459 770.5373,-100.8115"/>
</g>
<!-- Node44 -->
<g id="node9" class="node">
<title>Node44</title>
<g id="a_node9"><a xlink:href="classMap.html#a1676db3d125b2c1764adfcb64d6332a2" target="_top" xlink:title="Map::nodeIdx">
<polygon fill="none" stroke="#000000" points="807,-57.5 807,-76.5 889,-76.5 889,-57.5 807,-57.5"/>
<text text-anchor="middle" x="848" y="-64.5" font-family="Helvetica,sans-Serif" font-size="10.00" fill="#000000">Map::nodeIdx</text>
</a>
</g>
</g>
<!-- Node42&#45;&gt;Node44 -->
<g id="edge11" class="edge">
<title>Node42&#45;&gt;Node44</title>
<path fill="none" stroke="#191970" d="M727.0368,-79.033C750.0936,-76.7394 775.2867,-74.2333 796.6839,-72.1047"/>
<polygon fill="#191970" stroke="#191970" points="797.2527,-75.5655 806.8571,-71.0928 796.5597,-68.5999 797.2527,-75.5655"/>
</g>
<!-- Node45&#45;&gt;Node40 -->
<g id="edge13" class="edge">
<title>Node45&#45;&gt;Node40</title>
<path fill="none" stroke="#191970" d="M700.3409,-12.2692C715.9425,-13.086 734.2233,-14.0431 752.5038,-15.0002"/>
<polygon fill="#191970" stroke="#191970" points="752.4733,-18.5033 762.6427,-15.531 752.8394,-11.5129 752.4733,-18.5033"/>
</g>
</g>
</svg>
