<?xml version="1.0" encoding="UTF-8" standalone="no"?>
<!DOCTYPE svg PUBLIC "-//W3C//DTD SVG 1.1//EN"
 "http://www.w3.org/Graphics/SVG/1.1/DTD/svg11.dtd">
<!-- Generated by graphviz version 2.40.1 (20161225.0304)
 -->
<!-- Title: MapNode::getTileID Pages: 1 -->
<svg width="1301pt" height="123pt"
 viewBox="0.00 0.00 1301.00 123.00" xmlns="http://www.w3.org/2000/svg" xmlns:xlink="http://www.w3.org/1999/xlink">
<g id="graph0" class="graph" transform="scale(1 1) rotate(0) translate(4 119)">
<title>MapNode::getTileID</title>
<!-- Node177 -->
<g id="node1" class="node">
<title>Node177</title>
<polygon fill="#bfbfbf" stroke="#000000" points="0,-57.5 0,-76.5 113,-76.5 113,-57.5 0,-57.5"/>
<text text-anchor="middle" x="56.5" y="-64.5" font-family="Helvetica,sans-Serif" font-size="10.00" fill="#000000">MapNode::getTileID</text>
</g>
<!-- Node178 -->
<g id="node2" class="node">
<title>Node178</title>
<g id="a_node2"><a xlink:href="classMapNode.html#aabbb10c19ddd79e9c519eb4af5e995e0" target="_top" xlink:title="Update texture. ">
<polygon fill="none" stroke="#000000" points="149,-57.5 149,-76.5 287,-76.5 287,-57.5 149,-57.5"/>
<text text-anchor="middle" x="218" y="-64.5" font-family="Helvetica,sans-Serif" font-size="10.00" fill="#000000">MapNode::updateTexture</text>
</a>
</g>
</g>
<!-- Node177&#45;&gt;Node178 -->
<g id="edge1" class="edge">
<title>Node177&#45;&gt;Node178</title>
<path fill="none" stroke="#191970" d="M123.5123,-67C131.8735,-67 140.4372,-67 148.8305,-67"/>
<polygon fill="#191970" stroke="#191970" points="123.4389,-63.5001 113.4389,-67 123.4388,-70.5001 123.4389,-63.5001"/>
</g>
<!-- Node179 -->
<g id="node3" class="node">
<title>Node179</title>
<g id="a_node3"><a xlink:href="classMapNode.html#ae515fc96b543bf97237bfb1ca53fe571" target="_top" xlink:title="MapNode::MapNode">
<polygon fill="none" stroke="#000000" points="502.5,-95.5 502.5,-114.5 616.5,-114.5 616.5,-95.5 502.5,-95.5"/>
<text text-anchor="middle" x="559.5" y="-102.5" font-family="Helvetica,sans-Serif" font-size="10.00" fill="#000000">MapNode::MapNode</text>
</a>
</g>
</g>
<!-- Node178&#45;&gt;Node179 -->
<g id="edge2" class="edge">
<title>Node178&#45;&gt;Node179</title>
<path fill="none" stroke="#191970" d="M247.1224,-80.6421C267.7885,-89.5438 296.4605,-100.3453 323,-105 383.4604,-115.6039 453.9604,-113.8228 502.1547,-110.5056"/>
<polygon fill="#191970" stroke="#191970" points="248.5078,-77.4278 237.9464,-76.5876 245.6787,-83.8307 248.5078,-77.4278"/>
</g>
<!-- Node180 -->
<g id="node4" class="node">
<title>Node180</title>
<g id="a_node4"><a xlink:href="classMapNode.html#a92b521fa20e0a75d81523a52ba1d8250" target="_top" xlink:title="MapNode::setBitmask">
<polygon fill="none" stroke="#000000" points="330.5,-76.5 330.5,-95.5 454.5,-95.5 454.5,-76.5 330.5,-76.5"/>
<text text-anchor="middle" x="392.5" y="-83.5" font-family="Helvetica,sans-Serif" font-size="10.00" fill="#000000">MapNode::setBitmask</text>
</a>
</g>
</g>
<!-- Node178&#45;&gt;Node180 -->
<g id="edge3" class="edge">
<title>Node178&#45;&gt;Node180</title>
<path fill="none" stroke="#191970" d="M297.3436,-75.6391C308.4451,-76.8479 319.7186,-78.0754 330.4375,-79.2425"/>
<polygon fill="#191970" stroke="#191970" points="297.5378,-72.1397 287.2177,-74.5366 296.78,-79.0985 297.5378,-72.1397"/>
</g>
<!-- Node181 -->
<g id="node5" class="node">
<title>Node181</title>
<g id="a_node5"><a xlink:href="classMapNode.html#a26e55c94192a56990f8a59e7af139a73" target="_top" xlink:title="MapNode::setTileID">
<polygon fill="none" stroke="#000000" points="336.5,-38.5 336.5,-57.5 448.5,-57.5 448.5,-38.5 336.5,-38.5"/>
<text text-anchor="middle" x="392.5" y="-45.5" font-family="Helvetica,sans-Serif" font-size="10.00" fill="#000000">MapNode::setTileID</text>
</a>
</g>
</g>
<!-- Node178&#45;&gt;Node181 -->
<g id="edge4" class="edge">
<title>Node178&#45;&gt;Node181</title>
<path fill="none" stroke="#191970" d="M297.2213,-58.3742C310.392,-56.9401 323.8088,-55.4793 336.2575,-54.1238"/>
<polygon fill="#191970" stroke="#191970" points="296.78,-54.9015 287.2177,-59.4634 297.5378,-61.8603 296.78,-54.9015"/>
</g>
<!-- Node188 -->
<g id="node12" class="node">
<title>Node188</title>
<g id="a_node12"><a xlink:href="classMapNode.html#a002b868485074599fbf087fc4c96b2c9" target="_top" xlink:title="Demolish a node Removes all tiles on a node. This effects all layers where something to demolish is p...">
<polygon fill="none" stroke="#000000" points="323,-.5 323,-19.5 462,-19.5 462,-.5 323,-.5"/>
<text text-anchor="middle" x="392.5" y="-7.5" font-family="Helvetica,sans-Serif" font-size="10.00" fill="#000000">MapNode::demolishNode</text>
</a>
</g>
</g>
<!-- Node178&#45;&gt;Node188 -->
<g id="edge12" class="edge">
<title>Node178&#45;&gt;Node188</title>
<path fill="none" stroke="#191970" d="M252.3286,-53.7868C272.7244,-46.1347 299.1787,-36.5532 323,-29 333.4928,-25.6729 344.9843,-22.3881 355.5479,-19.5096"/>
<polygon fill="#191970" stroke="#191970" points="250.9588,-50.5627 242.8409,-57.3709 253.4326,-57.1111 250.9588,-50.5627"/>
</g>
<!-- Node181&#45;&gt;Node179 -->
<g id="edge5" class="edge">
<title>Node181&#45;&gt;Node179</title>
<path fill="none" stroke="#191970" d="M439.8807,-60.2375C447.322,-62.3649 454.8981,-64.6524 462,-67 488.0465,-75.6098 517.288,-87.2835 536.8935,-95.4112"/>
<polygon fill="#191970" stroke="#191970" points="440.8002,-56.8604 430.2273,-57.5414 438.9172,-63.6024 440.8002,-56.8604"/>
</g>
<!-- Node182 -->
<g id="node6" class="node">
<title>Node182</title>
<g id="a_node6"><a xlink:href="classMap.html#a404c38b33d61f8c63ce2c2efb864d6dd" target="_top" xlink:title="Set the Tile ID Of Node object Also invokes all necessary texture updates (auto&#45;tiling, slopes, ...) ">
<polygon fill="none" stroke="#000000" points="498,-38.5 498,-57.5 621,-57.5 621,-38.5 498,-38.5"/>
<text text-anchor="middle" x="559.5" y="-45.5" font-family="Helvetica,sans-Serif" font-size="10.00" fill="#000000">Map::setTileIDOfNode</text>
</a>
</g>
</g>
<!-- Node181&#45;&gt;Node182 -->
<g id="edge6" class="edge">
<title>Node181&#45;&gt;Node182</title>
<path fill="none" stroke="#191970" d="M458.7595,-48C471.645,-48 485.1033,-48 497.8334,-48"/>
<polygon fill="#191970" stroke="#191970" points="458.5732,-44.5001 448.5732,-48 458.5731,-51.5001 458.5732,-44.5001"/>
</g>
<!-- Node183 -->
<g id="node7" class="node">
<title>Node183</title>
<g id="a_node7"><a xlink:href="classEngine.html#a7a1521fd7fc731f961ebaf3f723127d9" target="_top" xlink:title="Engine::setTileIDOfNode">
<polygon fill="none" stroke="#000000" points="657,-38.5 657,-57.5 793,-57.5 793,-38.5 657,-38.5"/>
<text text-anchor="middle" x="725" y="-45.5" font-family="Helvetica,sans-Serif" font-size="10.00" fill="#000000">Engine::setTileIDOfNode</text>
</a>
</g>
</g>
<!-- Node182&#45;&gt;Node183 -->
<g id="edge7" class="edge">
<title>Node182&#45;&gt;Node183</title>
<path fill="none" stroke="#191970" d="M631.3736,-48C639.858,-48 648.4976,-48 656.9273,-48"/>
<polygon fill="#191970" stroke="#191970" points="631.1261,-44.5001 621.1261,-48 631.1261,-51.5001 631.1261,-44.5001"/>
</g>
<!-- Node184 -->
<g id="node8" class="node">
<title>Node184</title>
<g id="a_node8"><a xlink:href="classEventManager.html#a65ec91fd5016d4f9c4167fb8babed2df" target="_top" xlink:title="EventManager::checkEvents">
<polygon fill="none" stroke="#000000" points="829,-38.5 829,-57.5 983,-57.5 983,-38.5 829,-38.5"/>
<text text-anchor="middle" x="906" y="-45.5" font-family="Helvetica,sans-Serif" font-size="10.00" fill="#000000">EventManager::checkEvents</text>
</a>
</g>
</g>
<!-- Node183&#45;&gt;Node184 -->
<g id="edge8" class="edge">
<title>Node183&#45;&gt;Node184</title>
<path fill="none" stroke="#191970" d="M803.3623,-48C811.7925,-48 820.3658,-48 828.7824,-48"/>
<polygon fill="#191970" stroke="#191970" points="803.1705,-44.5001 793.1704,-48 803.1704,-51.5001 803.1705,-44.5001"/>
</g>
<!-- Node185 -->
<g id="node9" class="node">
<title>Node185</title>
<g id="a_node9"><a xlink:href="classGame.html#a1c2ab25d5216b2f4b2fe41efd2c09114" target="_top" xlink:title="begins the game starts running the game ">
<polygon fill="none" stroke="#000000" points="1019,-38.5 1019,-57.5 1087,-57.5 1087,-38.5 1019,-38.5"/>
<text text-anchor="middle" x="1053" y="-45.5" font-family="Helvetica,sans-Serif" font-size="10.00" fill="#000000">Game::run</text>
</a>
</g>
</g>
<!-- Node184&#45;&gt;Node185 -->
<g id="edge9" class="edge">
<title>Node184&#45;&gt;Node185</title>
<path fill="none" stroke="#191970" d="M993.5248,-48C1002.4338,-48 1011.0572,-48 1018.845,-48"/>
<polygon fill="#191970" stroke="#191970" points="993.3744,-44.5001 983.3744,-48 993.3743,-51.5001 993.3744,-44.5001"/>
</g>
<!-- Node186 -->
<g id="node10" class="node">
<title>Node186</title>
<g id="a_node10"><a xlink:href="main_8cxx.html#af582d708d899e67ead623eac34a22387" target="_top" xlink:title="protected_main">
<polygon fill="none" stroke="#000000" points="1123,-38.5 1123,-57.5 1216,-57.5 1216,-38.5 1123,-38.5"/>
<text text-anchor="middle" x="1169.5" y="-45.5" font-family="Helvetica,sans-Serif" font-size="10.00" fill="#000000">protected_main</text>
</a>
</g>
</g>
<!-- Node185&#45;&gt;Node186 -->
<g id="edge10" class="edge">
<title>Node185&#45;&gt;Node186</title>
<path fill="none" stroke="#191970" d="M1097.2653,-48C1105.5757,-48 1114.2897,-48 1122.6749,-48"/>
<polygon fill="#191970" stroke="#191970" points="1097.0098,-44.5001 1087.0098,-48 1097.0098,-51.5001 1097.0098,-44.5001"/>
</g>
<!-- Node187 -->
<g id="node11" class="node">
<title>Node187</title>
<g id="a_node11"><a xlink:href="main_8cxx.html#a3c04138a5bfe5d72780bb7e82a18e627" target="_top" xlink:title="main">
<polygon fill="none" stroke="#000000" points="1252,-38.5 1252,-57.5 1293,-57.5 1293,-38.5 1252,-38.5"/>
<text text-anchor="middle" x="1272.5" y="-45.5" font-family="Helvetica,sans-Serif" font-size="10.00" fill="#000000">main</text>
</a>
</g>
</g>
<!-- Node186&#45;&gt;Node187 -->
<g id="edge11" class="edge">
<title>Node186&#45;&gt;Node187</title>
<path fill="none" stroke="#191970" d="M1226.2133,-48C1235.4322,-48 1244.4259,-48 1251.9965,-48"/>
<polygon fill="#191970" stroke="#191970" points="1226.1782,-44.5001 1216.1782,-48 1226.1781,-51.5001 1226.1782,-44.5001"/>
</g>
</g>
</svg>
