<?xml version="1.0" encoding="UTF-8" standalone="no"?>
<!DOCTYPE svg PUBLIC "-//W3C//DTD SVG 1.1//EN"
 "http://www.w3.org/Graphics/SVG/1.1/DTD/svg11.dtd">
<!-- Generated by graphviz version 2.40.1 (20161225.0304)
 -->
<!-- Title: Camera::centerScreenOnPoint Pages: 1 -->
<svg width="745pt" height="169pt"
 viewBox="0.00 0.00 745.00 168.50" xmlns="http://www.w3.org/2000/svg" xmlns:xlink="http://www.w3.org/1999/xlink">
<g id="graph0" class="graph" transform="scale(1 1) rotate(0) translate(4 164.5)">
<title>Camera::centerScreenOnPoint</title>
<!-- Node18 -->
<g id="node1" class="node">
<title>Node18</title>
<polygon fill="#bfbfbf" stroke="#000000" points="0,-95.5 0,-114.5 163,-114.5 163,-95.5 0,-95.5"/>
<text text-anchor="middle" x="81.5" y="-102.5" font-family="Helvetica,sans-Serif" font-size="10.00" fill="#000000">Camera::centerScreenOnPoint</text>
</g>
<!-- Node19 -->
<g id="node2" class="node">
<title>Node19</title>
<g id="a_node2"><a xlink:href="isoMath_8cxx.html#a7fa61c3d8ef446fb1c48dc4838023649" target="_top" xlink:title="Check if given coordinates are within map boundaries Checks if coordinates are within map boundaries...">
<polygon fill="none" stroke="#000000" points="199,-95.5 199,-114.5 355,-114.5 355,-95.5 199,-95.5"/>
<text text-anchor="middle" x="277" y="-102.5" font-family="Helvetica,sans-Serif" font-size="10.00" fill="#000000">isPointWithinMapBoundaries</text>
</a>
</g>
</g>
<!-- Node18&#45;&gt;Node19 -->
<g id="edge1" class="edge">
<title>Node18&#45;&gt;Node19</title>
<path fill="none" stroke="#191970" d="M163.2768,-105C171.6826,-105 180.2504,-105 188.7223,-105"/>
<polygon fill="#191970" stroke="#191970" points="188.9915,-108.5001 198.9914,-105 188.9914,-101.5001 188.9915,-108.5001"/>
</g>
<!-- Node20 -->
<g id="node3" class="node">
<title>Node20</title>
<g id="a_node3"><a xlink:href="classSingleton.html#af5cb1e5749949e2b68416cfb8d378044" target="_top" xlink:title="Get an instance of the singleton. ">
<polygon fill="none" stroke="#000000" points="595.5,-130 595.5,-160 708.5,-160 708.5,-130 595.5,-130"/>
<text text-anchor="start" x="603.5" y="-148" font-family="Helvetica,sans-Serif" font-size="10.00" fill="#000000">Singleton&lt; Settings</text>
<text text-anchor="middle" x="652" y="-137" font-family="Helvetica,sans-Serif" font-size="10.00" fill="#000000"> &gt;::instance</text>
</a>
</g>
</g>
<!-- Node18&#45;&gt;Node20 -->
<g id="edge4" class="edge">
<title>Node18&#45;&gt;Node20</title>
<path fill="none" stroke="#191970" d="M163.1982,-110.535C175.1766,-112.1977 187.3869,-113.7959 199,-115 335.7202,-129.1763 496.649,-133.7837 585.1783,-138.1352"/>
<polygon fill="#191970" stroke="#191970" points="585.1828,-141.6398 595.3475,-138.6515 585.5378,-134.6489 585.1828,-141.6398"/>
</g>
<!-- Node18&#45;&gt;Node20 -->
<g id="edge5" class="edge">
<title>Node18&#45;&gt;Node20</title>
<path fill="none" stroke="#191970" d="M98.5428,-114.5076C121.3302,-121.7611 163.0304,-129.2704 199,-133 335.7202,-147.1763 496.649,-151.7837 585.1783,-150.4258"/>
<polygon fill="#191970" stroke="#191970" points="585.4143,-153.9221 595.3475,-150.2367 585.2841,-146.9233 585.4143,-153.9221"/>
</g>
<!-- Node21 -->
<g id="node4" class="node">
<title>Node21</title>
<g id="a_node4"><a xlink:href="isoMath_8cxx.html#a229d5dd54cd4e1f43ed5911e4fd266d3" target="_top" xlink:title="converts coordinates from isometric to screen space The given isometric coordinates (which contain he...">
<polygon fill="none" stroke="#000000" points="567,-.5 567,-19.5 737,-19.5 737,-.5 567,-.5"/>
<text text-anchor="middle" x="652" y="-7.5" font-family="Helvetica,sans-Serif" font-size="10.00" fill="#000000">convertIsoToScreenCoordinates</text>
</a>
</g>
</g>
<!-- Node18&#45;&gt;Node21 -->
<g id="edge3" class="edge">
<title>Node18&#45;&gt;Node21</title>
<path fill="none" stroke="#191970" d="M97.668,-95.4964C119.8166,-82.8702 161.166,-60.6861 199,-48 281.4756,-20.3453 304.4262,-18.4849 391,-10 445.7413,-4.6349 507.2516,-4.3578 556.8037,-5.5497"/>
<polygon fill="#191970" stroke="#191970" points="556.7798,-9.0502 566.8688,-5.8158 556.9648,-2.0526 556.7798,-9.0502"/>
</g>
<!-- Node22 -->
<g id="node5" class="node">
<title>Node22</title>
<g id="a_node5"><a xlink:href="classMap.html#ab69938ac0e56eb0da1d1701221f3d185" target="_top" xlink:title="Refresh all the map tile textures. ">
<polygon fill="none" stroke="#000000" points="238.5,-57.5 238.5,-76.5 315.5,-76.5 315.5,-57.5 238.5,-57.5"/>
<text text-anchor="middle" x="277" y="-64.5" font-family="Helvetica,sans-Serif" font-size="10.00" fill="#000000">Map::refresh</text>
</a>
</g>
</g>
<!-- Node18&#45;&gt;Node22 -->
<g id="edge6" class="edge">
<title>Node18&#45;&gt;Node22</title>
<path fill="none" stroke="#191970" d="M130.5806,-95.46C160.428,-89.6585 198.4035,-82.2771 228.1999,-76.4854"/>
<polygon fill="#191970" stroke="#191970" points="229.2229,-79.8522 238.3714,-74.5084 227.8873,-72.9808 229.2229,-79.8522"/>
</g>
<!-- Node19&#45;&gt;Node20 -->
<g id="edge2" class="edge">
<title>Node19&#45;&gt;Node20</title>
<path fill="none" stroke="#191970" d="M355.1761,-111.6283C405.4452,-116.0778 472.134,-122.3293 531,-129 548.6007,-130.9945 567.6087,-133.3925 585.2282,-135.7178"/>
<polygon fill="#191970" stroke="#191970" points="585.0462,-139.2243 595.4207,-137.0749 585.9701,-132.2856 585.0462,-139.2243"/>
</g>
<!-- Node23 -->
<g id="node6" class="node">
<title>Node23</title>
<g id="a_node6"><a xlink:href="classMap.html#af654ddecf0d25b836d7c9c27ee5c2150" target="_top" xlink:title="Map::calculateVisibleMap">
<polygon fill="none" stroke="#000000" points="391,-57.5 391,-76.5 531,-76.5 531,-57.5 391,-57.5"/>
<text text-anchor="middle" x="461" y="-64.5" font-family="Helvetica,sans-Serif" font-size="10.00" fill="#000000">Map::calculateVisibleMap</text>
</a>
</g>
</g>
<!-- Node22&#45;&gt;Node23 -->
<g id="edge7" class="edge">
<title>Node22&#45;&gt;Node23</title>
<path fill="none" stroke="#191970" d="M315.5724,-67C334.489,-67 358.0174,-67 380.5985,-67"/>
<polygon fill="#191970" stroke="#191970" points="380.887,-70.5001 390.8869,-67 380.8869,-63.5001 380.887,-70.5001"/>
</g>
<!-- Node26 -->
<g id="node9" class="node">
<title>Node26</title>
<g id="a_node9"><a xlink:href="classSprite.html#ababb7913a4d642b0d20a2c48c2a7e77a" target="_top" xlink:title="Sprite::refresh">
<polygon fill="none" stroke="#000000" points="418,-19.5 418,-38.5 504,-38.5 504,-19.5 418,-19.5"/>
<text text-anchor="middle" x="461" y="-26.5" font-family="Helvetica,sans-Serif" font-size="10.00" fill="#000000">Sprite::refresh</text>
</a>
</g>
</g>
<!-- Node22&#45;&gt;Node26 -->
<g id="edge11" class="edge">
<title>Node22&#45;&gt;Node26</title>
<path fill="none" stroke="#191970" d="M315.5724,-59.034C342.344,-53.5051 378.3525,-46.0685 407.8403,-39.9786"/>
<polygon fill="#191970" stroke="#191970" points="408.8873,-43.3364 417.9727,-37.8861 407.4715,-36.481 408.8873,-43.3364"/>
</g>
<!-- Node23&#45;&gt;Node20 -->
<g id="edge9" class="edge">
<title>Node23&#45;&gt;Node20</title>
<path fill="none" stroke="#191970" d="M494.0566,-76.541C505.9516,-80.4381 519.3128,-85.3629 531,-91 548.1014,-99.2485 549.9795,-105.5859 567,-114 575.9767,-118.4377 585.7536,-122.5875 595.3756,-126.3178"/>
<polygon fill="#191970" stroke="#191970" points="594.3185,-129.6595 604.9106,-129.9033 596.7824,-123.1074 594.3185,-129.6595"/>
</g>
<!-- Node24 -->
<g id="node7" class="node">
<title>Node24</title>
<g id="a_node7"><a xlink:href="isoMath_8cxx.html#a0a076d973bc64ffa7859b894793c8000" target="_top" xlink:title="Calculates screen space coordinates to isometric space coordinates. A formula is used to calculate th...">
<polygon fill="none" stroke="#000000" points="585,-47.5 585,-66.5 719,-66.5 719,-47.5 585,-47.5"/>
<text text-anchor="middle" x="652" y="-54.5" font-family="Helvetica,sans-Serif" font-size="10.00" fill="#000000">calculateIsoCoordinates</text>
</a>
</g>
</g>
<!-- Node23&#45;&gt;Node24 -->
<g id="edge8" class="edge">
<title>Node23&#45;&gt;Node24</title>
<path fill="none" stroke="#191970" d="M531.0368,-63.3332C545.1728,-62.593 560.1119,-61.8109 574.4868,-61.0583"/>
<polygon fill="#191970" stroke="#191970" points="575.0314,-64.5347 584.8347,-60.5165 574.6654,-57.5442 575.0314,-64.5347"/>
</g>
<!-- Node25 -->
<g id="node8" class="node">
<title>Node25</title>
<g id="a_node8"><a xlink:href="classMap.html#a1676db3d125b2c1764adfcb64d6332a2" target="_top" xlink:title="Map::nodeIdx">
<polygon fill="none" stroke="#000000" points="611,-85.5 611,-104.5 693,-104.5 693,-85.5 611,-85.5"/>
<text text-anchor="middle" x="652" y="-92.5" font-family="Helvetica,sans-Serif" font-size="10.00" fill="#000000">Map::nodeIdx</text>
</a>
</g>
</g>
<!-- Node23&#45;&gt;Node25 -->
<g id="edge10" class="edge">
<title>Node23&#45;&gt;Node25</title>
<path fill="none" stroke="#191970" d="M525.9304,-76.5186C550.424,-80.1093 577.9167,-84.1396 600.9624,-87.5181"/>
<polygon fill="#191970" stroke="#191970" points="600.4753,-90.984 610.8772,-88.9715 601.4907,-84.058 600.4753,-90.984"/>
</g>
<!-- Node26&#45;&gt;Node21 -->
<g id="edge12" class="edge">
<title>Node26&#45;&gt;Node21</title>
<path fill="none" stroke="#191970" d="M504.3409,-24.6886C519.9425,-23.1366 538.2233,-21.3181 556.5038,-19.4996"/>
<polygon fill="#191970" stroke="#191970" points="557.0383,-22.9638 566.6427,-18.491 556.3453,-15.9982 557.0383,-22.9638"/>
</g>
</g>
</svg>
