<?xml version="1.0" encoding="UTF-8" standalone="no"?>
<!DOCTYPE svg PUBLIC "-//W3C//DTD SVG 1.1//EN"
 "http://www.w3.org/Graphics/SVG/1.1/DTD/svg11.dtd">
<!-- Generated by graphviz version 2.40.1 (20161225.0304)
 -->
<!-- Title: MapLayers::isLayerActive Pages: 1 -->
<!--zoomable 268 -->
<svg id="main" version="1.1" xmlns="http://www.w3.org/2000/svg" xmlns:xlink="http://www.w3.org/1999/xlink" xml:space="preserve" onload="init(evt)">
<style type="text/css"><![CDATA[
.edge:hover path { stroke: red; }
.edge:hover polygon { stroke: red; fill: red; }
]]></style>
<script type="text/javascript"><![CDATA[
var edges = document.getElementsByTagName('g');
if (edges && edges.length) {
  for (var i=0;i<edges.length;i++) {
    if (edges[i].id.substr(0,4)=='edge') {
      edges[i].setAttribute('class','edge');
    }
  }
}
]]></script>
        <defs>
                <circle id="rim" cx="0" cy="0" r="7"/>
                <circle id="rim2" cx="0" cy="0" r="3.5"/>
                <g id="zoomPlus">
                        <use xlink:href="#rim" fill="#404040">
                                <set attributeName="fill" to="#808080" begin="zoomplus.mouseover" end="zoomplus.mouseout"/>
                        </use>
                        <path d="M-4,0h8M0,-4v8" fill="none" stroke="white" stroke-width="1.5" pointer-events="none"/>
                </g>
                <g id="zoomMin">
                        <use xlink:href="#rim" fill="#404040">
                                <set attributeName="fill" to="#808080" begin="zoomminus.mouseover" end="zoomminus.mouseout"/>
                        </use>
                        <path d="M-4,0h8" fill="none" stroke="white" stroke-width="1.5" pointer-events="none"/>
                </g>
                <g id="dirArrow">
                        <path fill="none" stroke="white" stroke-width="1.5" d="M0,-3.0v7 M-2.5,-0.5L0,-3.0L2.5,-0.5"/>
                </g>
               <g id="resetDef">
                       <use xlink:href="#rim2" fill="#404040">
                               <set attributeName="fill" to="#808080" begin="reset.mouseover" end="reset.mouseout"/>
                       </use>
               </g>
        </defs>

<script type="text/javascript">
var viewWidth = 1266;
var viewHeight = 268;
var sectionId = 'dynsection-8';
</script>
<script xlink:href="svgpan.js"/>
<svg id="graph" class="graph">
<g id="viewport">
<title>MapLayers::isLayerActive</title>
<!-- Node116 -->
<g id="node1" class="node">
<title>Node116</title>
<polygon fill="#bfbfbf" stroke="#000000" points="0,-114.5 0,-133.5 141,-133.5 141,-114.5 0,-114.5"/>
<text text-anchor="middle" x="70.5" y="-121.5" font-family="Helvetica,sans-Serif" font-size="10.00" fill="#000000">MapLayers::isLayerActive</text>
</g>
<!-- Node117 -->
<g id="node2" class="node">
<title>Node117</title>
<g id="a_node2"><a xlink:href="classMapNode.html#ac307762dc7ad609974c6b13774c3c00d" target="_top" xlink:title="return topmost active layer. check layers in order of significance for the topmost active layer that ...">
<polygon fill="none" stroke="#000000" points="177,-229 177,-259 332,-259 332,-229 177,-229"/>
<text text-anchor="start" x="185" y="-247" font-family="Helvetica,sans-Serif" font-size="10.00" fill="#000000">MapNode::getTopMostActive</text>
<text text-anchor="middle" x="254.5" y="-236" font-family="Helvetica,sans-Serif" font-size="10.00" fill="#000000">Layer</text>
</a>
</g>
</g>
<!-- Node116&#45;&gt;Node117 -->
<g id="edge1" class="edge">
<title>Node116&#45;&gt;Node117</title>
<path fill="none" stroke="#191970" d="M85.3808,-141.0759C104.5961,-162.1527 139.9897,-197.7987 177,-219 183.6244,-222.7948 190.9024,-226.101 198.2636,-228.9559"/>
<polygon fill="#191970" stroke="#191970" points="87.8953,-138.6373 78.6179,-133.5205 82.6795,-143.3059 87.8953,-138.6373"/>
</g>
<!-- Node124 -->
<g id="node9" class="node">
<title>Node124</title>
<g id="a_node9"><a xlink:href="classMapNode.html#a002b868485074599fbf087fc4c96b2c9" target="_top" xlink:title="Demolish a node Removes all tiles on a node. This effects all layers where something to demolish is p...">
<polygon fill="none" stroke="#000000" points="185,-190.5 185,-209.5 324,-209.5 324,-190.5 185,-190.5"/>
<text text-anchor="middle" x="254.5" y="-197.5" font-family="Helvetica,sans-Serif" font-size="10.00" fill="#000000">MapNode::demolishNode</text>
</a>
</g>
</g>
<!-- Node116&#45;&gt;Node124 -->
<g id="edge8" class="edge">
<title>Node116&#45;&gt;Node124</title>
<path fill="none" stroke="#191970" d="M94.0281,-138.8206C115.0841,-151.5339 147.1477,-169.5613 177,-181 186.5728,-184.668 197.0869,-187.8031 207.1984,-190.4068"/>
<polygon fill="#191970" stroke="#191970" points="95.8021,-135.8029 85.4464,-133.5643 92.1459,-141.7722 95.8021,-135.8029"/>
</g>
<!-- Node125 -->
<g id="node10" class="node">
<title>Node125</title>
<g id="a_node10"><a xlink:href="classMap.html#a352929ea8cc2efc4f415c7ec795e1538" target="_top" xlink:title="Map::isClickWithinTile">
<polygon fill="none" stroke="#000000" points="192,-152.5 192,-171.5 317,-171.5 317,-152.5 192,-152.5"/>
<text text-anchor="middle" x="254.5" y="-159.5" font-family="Helvetica,sans-Serif" font-size="10.00" fill="#000000">Map::isClickWithinTile</text>
</a>
</g>
</g>
<!-- Node116&#45;&gt;Node125 -->
<g id="edge9" class="edge">
<title>Node116&#45;&gt;Node125</title>
<path fill="none" stroke="#191970" d="M127.0606,-135.681C153.1542,-141.0699 183.7378,-147.3861 208.4029,-152.4799"/>
<polygon fill="#191970" stroke="#191970" points="127.4322,-132.184 116.931,-133.589 126.0164,-139.0393 127.4322,-132.184"/>
</g>
<!-- Node128 -->
<g id="node13" class="node">
<title>Node128</title>
<g id="a_node13"><a xlink:href="classSprite.html#abdf111e2030274680af0f00f296d8605" target="_top" xlink:title="Sprite::render">
<polygon fill="none" stroke="#000000" points="418.5,-114.5 418.5,-133.5 501.5,-133.5 501.5,-114.5 418.5,-114.5"/>
<text text-anchor="middle" x="460" y="-121.5" font-family="Helvetica,sans-Serif" font-size="10.00" fill="#000000">Sprite::render</text>
</a>
</g>
</g>
<!-- Node116&#45;&gt;Node128 -->
<g id="edge14" class="edge">
<title>Node116&#45;&gt;Node128</title>
<path fill="none" stroke="#191970" d="M151.2433,-124C232.6128,-124 354.9645,-124 418.4544,-124"/>
<polygon fill="#191970" stroke="#191970" points="151.0355,-120.5001 141.0355,-124 151.0355,-127.5001 151.0355,-120.5001"/>
</g>
<!-- Node130 -->
<g id="node15" class="node">
<title>Node130</title>
<g id="a_node15"><a xlink:href="classSprite.html#a87428873289f8ec84f4b75d9162c9d7c" target="_top" xlink:title="Sprite::getActiveClipRect">
<polygon fill="none" stroke="#000000" points="186,-76.5 186,-95.5 323,-95.5 323,-76.5 186,-76.5"/>
<text text-anchor="middle" x="254.5" y="-83.5" font-family="Helvetica,sans-Serif" font-size="10.00" fill="#000000">Sprite::getActiveClipRect</text>
</a>
</g>
</g>
<!-- Node116&#45;&gt;Node130 -->
<g id="edge17" class="edge">
<title>Node116&#45;&gt;Node130</title>
<path fill="none" stroke="#191970" d="M127.0606,-112.319C153.1542,-106.9301 183.7378,-100.6139 208.4029,-95.5201"/>
<polygon fill="#191970" stroke="#191970" points="126.0164,-108.9607 116.931,-114.411 127.4322,-115.816 126.0164,-108.9607"/>
</g>
<!-- Node131 -->
<g id="node16" class="node">
<title>Node131</title>
<g id="a_node16"><a xlink:href="classSprite.html#a7376c698bf914312fbcc7c2b8180cbed" target="_top" xlink:title="Sprite::isLayerUsed">
<polygon fill="none" stroke="#000000" points="199,-38.5 199,-57.5 310,-57.5 310,-38.5 199,-38.5"/>
<text text-anchor="middle" x="254.5" y="-45.5" font-family="Helvetica,sans-Serif" font-size="10.00" fill="#000000">Sprite::isLayerUsed</text>
</a>
</g>
</g>
<!-- Node116&#45;&gt;Node131 -->
<g id="edge18" class="edge">
<title>Node116&#45;&gt;Node131</title>
<path fill="none" stroke="#191970" d="M94.0281,-109.1794C115.0841,-96.4661 147.1477,-78.4387 177,-67 186.5728,-63.332 197.0869,-60.1969 207.1984,-57.5932"/>
<polygon fill="#191970" stroke="#191970" points="92.1459,-106.2278 85.4464,-114.4357 95.8021,-112.1971 92.1459,-106.2278"/>
</g>
<!-- Node132 -->
<g id="node17" class="node">
<title>Node132</title>
<g id="a_node17"><a xlink:href="classSprite.html#aedfac1c3b8a22c5ae4d97bd9586a6a26" target="_top" xlink:title="Sprite::getActiveDestRect">
<polygon fill="none" stroke="#000000" points="184,-.5 184,-19.5 325,-19.5 325,-.5 184,-.5"/>
<text text-anchor="middle" x="254.5" y="-7.5" font-family="Helvetica,sans-Serif" font-size="10.00" fill="#000000">Sprite::getActiveDestRect</text>
</a>
</g>
</g>
<!-- Node116&#45;&gt;Node132 -->
<g id="edge19" class="edge">
<title>Node116&#45;&gt;Node132</title>
<path fill="none" stroke="#191970" d="M85.1441,-106.4932C104.1144,-84.9703 139.2544,-48.8626 177,-29 184.3557,-25.1293 192.5206,-22.0292 200.7114,-19.5513"/>
<polygon fill="#191970" stroke="#191970" points="82.3589,-104.3635 78.476,-114.2212 87.6588,-108.9365 82.3589,-104.3635"/>
</g>
<!-- Node118 -->
<g id="node3" class="node">
<title>Node118</title>
<g id="a_node3"><a xlink:href="classMapNode.html#a0b089ef93b46bbfed8ccf71dc516c4ef" target="_top" xlink:title="MapNode::getActiveMapNodeData">
<polygon fill="none" stroke="#000000" points="368,-232.5 368,-251.5 552,-251.5 552,-232.5 368,-232.5"/>
<text text-anchor="middle" x="460" y="-239.5" font-family="Helvetica,sans-Serif" font-size="10.00" fill="#000000">MapNode::getActiveMapNodeData</text>
</a>
</g>
</g>
<!-- Node117&#45;&gt;Node118 -->
<g id="edge2" class="edge">
<title>Node117&#45;&gt;Node118</title>
<path fill="none" stroke="#191970" d="M342.3425,-243.1451C350.7329,-243.0634 359.2587,-242.9805 367.6899,-242.8984"/>
<polygon fill="#191970" stroke="#191970" points="342.1562,-239.6466 332.1907,-243.2439 342.2244,-246.6463 342.1562,-239.6466"/>
</g>
<!-- Node119 -->
<g id="node4" class="node">
<title>Node119</title>
<g id="a_node4"><a xlink:href="classMap.html#a0241b997090783e5d13667114731a592" target="_top" xlink:title="Debug MapNodeData to Console Used as Tile&#45;Inspector until we implement a GUI variant. ">
<polygon fill="none" stroke="#000000" points="602.5,-231.5 602.5,-250.5 743.5,-250.5 743.5,-231.5 602.5,-231.5"/>
<text text-anchor="middle" x="673" y="-238.5" font-family="Helvetica,sans-Serif" font-size="10.00" fill="#000000">Map::getNodeInformation</text>
</a>
</g>
</g>
<!-- Node118&#45;&gt;Node119 -->
<g id="edge3" class="edge">
<title>Node118&#45;&gt;Node119</title>
<path fill="none" stroke="#191970" d="M562.44,-241.5191C575.8896,-241.4559 589.4257,-241.3924 602.1885,-241.3324"/>
<polygon fill="#191970" stroke="#191970" points="562.1695,-238.0202 552.1861,-241.5672 562.2024,-245.0201 562.1695,-238.0202"/>
</g>
<!-- Node120 -->
<g id="node5" class="node">
<title>Node120</title>
<g id="a_node5"><a xlink:href="classEventManager.html#a65ec91fd5016d4f9c4167fb8babed2df" target="_top" xlink:title="EventManager::checkEvents">
<polygon fill="none" stroke="#000000" points="794,-171.5 794,-190.5 948,-190.5 948,-171.5 794,-171.5"/>
<text text-anchor="middle" x="871" y="-178.5" font-family="Helvetica,sans-Serif" font-size="10.00" fill="#000000">EventManager::checkEvents</text>
</a>
</g>
</g>
<!-- Node119&#45;&gt;Node120 -->
<g id="edge4" class="edge">
<title>Node119&#45;&gt;Node120</title>
<path fill="none" stroke="#191970" d="M714.4073,-228.4523C751.6573,-217.1644 805.5852,-200.8227 839.4459,-190.5618"/>
<polygon fill="#191970" stroke="#191970" points="712.9289,-225.2431 704.3737,-231.4928 714.959,-231.9423 712.9289,-225.2431"/>
</g>
<!-- Node121 -->
<g id="node6" class="node">
<title>Node121</title>
<g id="a_node6"><a xlink:href="classGame.html#a1c2ab25d5216b2f4b2fe41efd2c09114" target="_top" xlink:title="begins the game starts running the game ">
<polygon fill="none" stroke="#000000" points="984,-152.5 984,-171.5 1052,-171.5 1052,-152.5 984,-152.5"/>
<text text-anchor="middle" x="1018" y="-159.5" font-family="Helvetica,sans-Serif" font-size="10.00" fill="#000000">Game::run</text>
</a>
</g>
</g>
<!-- Node120&#45;&gt;Node121 -->
<g id="edge5" class="edge">
<title>Node120&#45;&gt;Node121</title>
<path fill="none" stroke="#191970" d="M955.0861,-170.1317C965.1799,-168.8271 975.0017,-167.5576 983.7683,-166.4245"/>
<polygon fill="#191970" stroke="#191970" points="954.3995,-166.6913 944.9307,-171.4443 955.2968,-173.6335 954.3995,-166.6913"/>
</g>
<!-- Node122 -->
<g id="node7" class="node">
<title>Node122</title>
<g id="a_node7"><a xlink:href="main_8cxx.html#af582d708d899e67ead623eac34a22387" target="_top" xlink:title="protected_main">
<polygon fill="none" stroke="#000000" points="1088,-152.5 1088,-171.5 1181,-171.5 1181,-152.5 1088,-152.5"/>
<text text-anchor="middle" x="1134.5" y="-159.5" font-family="Helvetica,sans-Serif" font-size="10.00" fill="#000000">protected_main</text>
</a>
</g>
</g>
<!-- Node121&#45;&gt;Node122 -->
<g id="edge6" class="edge">
<title>Node121&#45;&gt;Node122</title>
<path fill="none" stroke="#191970" d="M1062.2653,-162C1070.5757,-162 1079.2897,-162 1087.6749,-162"/>
<polygon fill="#191970" stroke="#191970" points="1062.0098,-158.5001 1052.0098,-162 1062.0098,-165.5001 1062.0098,-158.5001"/>
</g>
<!-- Node123 -->
<g id="node8" class="node">
<title>Node123</title>
<g id="a_node8"><a xlink:href="main_8cxx.html#a3c04138a5bfe5d72780bb7e82a18e627" target="_top" xlink:title="main">
<polygon fill="none" stroke="#000000" points="1217,-152.5 1217,-171.5 1258,-171.5 1258,-152.5 1217,-152.5"/>
<text text-anchor="middle" x="1237.5" y="-159.5" font-family="Helvetica,sans-Serif" font-size="10.00" fill="#000000">main</text>
</a>
</g>
</g>
<!-- Node122&#45;&gt;Node123 -->
<g id="edge7" class="edge">
<title>Node122&#45;&gt;Node123</title>
<path fill="none" stroke="#191970" d="M1191.2133,-162C1200.4322,-162 1209.4259,-162 1216.9965,-162"/>
<polygon fill="#191970" stroke="#191970" points="1191.1782,-158.5001 1181.1782,-162 1191.1781,-165.5001 1191.1782,-158.5001"/>
</g>
<!-- Node126 -->
<g id="node11" class="node">
<title>Node126</title>
<g id="a_node11"><a xlink:href="classMap.html#a64e71e521c539cf28828be9978c34889" target="_top" xlink:title="Returns the node at given screencoordinates. ">
<polygon fill="none" stroke="#000000" points="402,-152.5 402,-171.5 518,-171.5 518,-152.5 402,-152.5"/>
<text text-anchor="middle" x="460" y="-159.5" font-family="Helvetica,sans-Serif" font-size="10.00" fill="#000000">Map::findNodeInMap</text>
</a>
</g>
</g>
<!-- Node125&#45;&gt;Node126 -->
<g id="edge10" class="edge">
<title>Node125&#45;&gt;Node126</title>
<path fill="none" stroke="#191970" d="M327.5506,-162C351.921,-162 378.73,-162 401.816,-162"/>
<polygon fill="#191970" stroke="#191970" points="327.2734,-158.5001 317.2734,-162 327.2734,-165.5001 327.2734,-158.5001"/>
</g>
<!-- Node126&#45;&gt;Node120 -->
<g id="edge13" class="edge">
<title>Node126&#45;&gt;Node120</title>
<path fill="none" stroke="#191970" d="M522.1321,-173.1026C542.9925,-176.3276 566.4354,-179.4082 588,-181 657.4556,-186.1268 736.7611,-185.5761 793.7138,-184.0634"/>
<polygon fill="#191970" stroke="#191970" points="522.5434,-169.6242 512.1184,-171.5138 521.4464,-176.5377 522.5434,-169.6242"/>
</g>
<!-- Node127 -->
<g id="node12" class="node">
<title>Node127</title>
<g id="a_node12"><a xlink:href="isoMath_8hxx.html#ad3c5f070c4a876bc6e8978635d02ce52" target="_top" xlink:title="converts screen space coordinates to isometric space coordinates. To convert screen coordinates in to...">
<polygon fill="none" stroke="#000000" points="588,-152.5 588,-171.5 758,-171.5 758,-152.5 588,-152.5"/>
<text text-anchor="middle" x="673" y="-159.5" font-family="Helvetica,sans-Serif" font-size="10.00" fill="#000000">convertScreenToIsoCoordinates</text>
</a>
</g>
</g>
<!-- Node126&#45;&gt;Node127 -->
<g id="edge11" class="edge">
<title>Node126&#45;&gt;Node127</title>
<path fill="none" stroke="#191970" d="M528.2123,-162C547.1416,-162 567.9326,-162 587.707,-162"/>
<polygon fill="#191970" stroke="#191970" points="528.2032,-158.5001 518.2032,-162 528.2032,-165.5001 528.2032,-158.5001"/>
</g>
<!-- Node127&#45;&gt;Node120 -->
<g id="edge12" class="edge">
<title>Node127&#45;&gt;Node120</title>
<path fill="none" stroke="#191970" d="M768.161,-171.1316C776.7436,-171.9552 785.3647,-172.7825 793.7658,-173.5886"/>
<polygon fill="#191970" stroke="#191970" points="768.4075,-167.6393 758.1189,-170.168 767.7388,-174.6073 768.4075,-167.6393"/>
</g>
<!-- Node129 -->
<g id="node14" class="node">
<title>Node129</title>
<g id="a_node14"><a xlink:href="classMap.html#a8ffaf087a7bf669a890301a1efad6976" target="_top" xlink:title="Map::renderMap">
<polygon fill="none" stroke="#000000" points="823.5,-133.5 823.5,-152.5 918.5,-152.5 918.5,-133.5 823.5,-133.5"/>
<text text-anchor="middle" x="871" y="-140.5" font-family="Helvetica,sans-Serif" font-size="10.00" fill="#000000">Map::renderMap</text>
</a>
</g>
</g>
<!-- Node128&#45;&gt;Node129 -->
<g id="edge15" class="edge">
<title>Node128&#45;&gt;Node129</title>
<path fill="none" stroke="#191970" d="M512.0421,-126.4058C592.4088,-130.1211 745.5396,-137.2001 823.2338,-140.7918"/>
<polygon fill="#191970" stroke="#191970" points="511.8217,-122.892 501.6707,-125.9264 511.4983,-129.8845 511.8217,-122.892"/>
</g>
<!-- Node129&#45;&gt;Node121 -->
<g id="edge16" class="edge">
<title>Node129&#45;&gt;Node121</title>
<path fill="none" stroke="#191970" d="M928.8361,-150.4754C947.3476,-152.8681 967.2493,-155.4404 983.5437,-157.5465"/>
<polygon fill="#191970" stroke="#191970" points="929.0929,-146.9796 918.7267,-149.1688 928.1955,-153.9218 929.0929,-146.9796"/>
</g>
</g>
</svg>
        <g id="navigator" transform="translate(0 0)" fill="#404254">
                <rect fill="#f2f5e9" fill-opacity="0.5" stroke="#606060" stroke-width=".5" x="0" y="0" width="60" height="60"/>
                <use id="zoomplus" xlink:href="#zoomPlus" x="17" y="9" onmousedown="handleZoom(evt,'in')"/>
                <use id="zoomminus" xlink:href="#zoomMin" x="42" y="9" onmousedown="handleZoom(evt,'out')"/>
                <use id="reset" xlink:href="#resetDef" x="30" y="36" onmousedown="handleReset()"/>
                <g id="arrowUp" xlink:href="#dirArrow" transform="translate(30 24)" onmousedown="handlePan(0,-1)">
                  <use xlink:href="#rim" fill="#404040">
                        <set attributeName="fill" to="#808080" begin="arrowUp.mouseover" end="arrowUp.mouseout"/>
                  </use>
                  <path fill="none" stroke="white" stroke-width="1.5" d="M0,-3.0v7 M-2.5,-0.5L0,-3.0L2.5,-0.5"/>
                </g>
                <g id="arrowRight" xlink:href="#dirArrow" transform="rotate(90) translate(36 -43)" onmousedown="handlePan(1,0)">
                  <use xlink:href="#rim" fill="#404040">
                        <set attributeName="fill" to="#808080" begin="arrowRight.mouseover" end="arrowRight.mouseout"/>
                  </use>
                  <path fill="none" stroke="white" stroke-width="1.5" d="M0,-3.0v7 M-2.5,-0.5L0,-3.0L2.5,-0.5"/>
                </g>
                <g id="arrowDown" xlink:href="#dirArrow" transform="rotate(180) translate(-30 -48)" onmousedown="handlePan(0,1)">
                  <use xlink:href="#rim" fill="#404040">
                        <set attributeName="fill" to="#808080" begin="arrowDown.mouseover" end="arrowDown.mouseout"/>
                  </use>
                  <path fill="none" stroke="white" stroke-width="1.5" d="M0,-3.0v7 M-2.5,-0.5L0,-3.0L2.5,-0.5"/>
                </g>
                <g id="arrowLeft" xlink:href="#dirArrow" transform="rotate(270) translate(-36 17)" onmousedown="handlePan(-1,0)">
                  <use xlink:href="#rim" fill="#404040">
                        <set attributeName="fill" to="#808080" begin="arrowLeft.mouseover" end="arrowLeft.mouseout"/>
                  </use>
                  <path fill="none" stroke="white" stroke-width="1.5" d="M0,-3.0v7 M-2.5,-0.5L0,-3.0L2.5,-0.5"/>
                </g>
        </g>
        <svg viewBox="0 0 15 15" width="100%" height="30px" preserveAspectRatio="xMaxYMin meet">
         <g id="arrow_out" transform="scale(0.3 0.3)">
          <a xlink:href="classMapLayers_a1d810628821913c499b8348107b66891_icgraph_org.svg" target="_base">
           <rect id="button" ry="5" rx="5" y="6" x="6" height="38" width="38"
                fill="#f2f5e9" fill-opacity="0.5" stroke="#606060" stroke-width="1.0"/>
           <path id="arrow"
             d="M 11.500037,31.436501 C 11.940474,20.09759 22.043105,11.32322 32.158766,21.979434 L 37.068811,17.246167 C 37.068811,17.246167 37.088388,32 37.088388,32 L 22.160133,31.978069 C 22.160133,31.978069 26.997745,27.140456 26.997745,27.140456 C 18.528582,18.264221 13.291696,25.230495 11.500037,31.436501 z"
             style="fill:#404040;"/>
          </a>
         </g>
        </svg>
</svg>
