<?xml version="1.0" encoding="UTF-8" standalone="no"?>
<!DOCTYPE svg PUBLIC "-//W3C//DTD SVG 1.1//EN"
 "http://www.w3.org/Graphics/SVG/1.1/DTD/svg11.dtd">
<!-- Generated by graphviz version 2.40.1 (20161225.0304)
 -->
<!-- Title: Map::updateAllNodes Pages: 1 -->
<!--zoomable 312 -->
<svg id="main" version="1.1" xmlns="http://www.w3.org/2000/svg" xmlns:xlink="http://www.w3.org/1999/xlink" xml:space="preserve" onload="init(evt)">
<style type="text/css"><![CDATA[
.edge:hover path { stroke: red; }
.edge:hover polygon { stroke: red; fill: red; }
]]></style>
<script type="text/javascript"><![CDATA[
var edges = document.getElementsByTagName('g');
if (edges && edges.length) {
  for (var i=0;i<edges.length;i++) {
    if (edges[i].id.substr(0,4)=='edge') {
      edges[i].setAttribute('class','edge');
    }
  }
}
]]></script>
        <defs>
                <circle id="rim" cx="0" cy="0" r="7"/>
                <circle id="rim2" cx="0" cy="0" r="3.5"/>
                <g id="zoomPlus">
                        <use xlink:href="#rim" fill="#404040">
                                <set attributeName="fill" to="#808080" begin="zoomplus.mouseover" end="zoomplus.mouseout"/>
                        </use>
                        <path d="M-4,0h8M0,-4v8" fill="none" stroke="white" stroke-width="1.5" pointer-events="none"/>
                </g>
                <g id="zoomMin">
                        <use xlink:href="#rim" fill="#404040">
                                <set attributeName="fill" to="#808080" begin="zoomminus.mouseover" end="zoomminus.mouseout"/>
                        </use>
                        <path d="M-4,0h8" fill="none" stroke="white" stroke-width="1.5" pointer-events="none"/>
                </g>
                <g id="dirArrow">
                        <path fill="none" stroke="white" stroke-width="1.5" d="M0,-3.0v7 M-2.5,-0.5L0,-3.0L2.5,-0.5"/>
                </g>
               <g id="resetDef">
                       <use xlink:href="#rim2" fill="#404040">
                               <set attributeName="fill" to="#808080" begin="reset.mouseover" end="reset.mouseout"/>
                       </use>
               </g>
        </defs>

<script type="text/javascript">
var viewWidth = 898;
var viewHeight = 312;
var sectionId = 'dynsection-51';
</script>
<script xlink:href="svgpan.js"/>
<svg id="graph" class="graph">
<g id="viewport">
<title>Map::updateAllNodes</title>
<!-- Node525 -->
<g id="node1" class="node">
<title>Node525</title>
<polygon fill="#bfbfbf" stroke="#000000" points="0,-126 0,-145 120,-145 120,-126 0,-126"/>
<text text-anchor="middle" x="60" y="-133" font-family="Helvetica,sans-Serif" font-size="10.00" fill="#000000">Map::updateAllNodes</text>
</g>
<!-- Node526 -->
<g id="node2" class="node">
<title>Node526</title>
<g id="a_node2"><a xlink:href="classMap.html#af1e496c421981fe707890b0ba60cc20f" target="_top" xlink:title="Map::updateNodeNeighbors">
<polygon fill="none" stroke="#000000" points="156,-126 156,-145 308,-145 308,-126 156,-126"/>
<text text-anchor="middle" x="232" y="-133" font-family="Helvetica,sans-Serif" font-size="10.00" fill="#000000">Map::updateNodeNeighbors</text>
</a>
</g>
</g>
<!-- Node525&#45;&gt;Node526 -->
<g id="edge1" class="edge">
<title>Node525&#45;&gt;Node526</title>
<path fill="none" stroke="#191970" d="M120.1573,-135.5C128.4431,-135.5 137.0817,-135.5 145.7241,-135.5"/>
<polygon fill="#191970" stroke="#191970" points="145.8503,-139.0001 155.8502,-135.5 145.8502,-132.0001 145.8503,-139.0001"/>
</g>
<!-- Node527 -->
<g id="node3" class="node">
<title>Node527</title>
<g id="a_node3"><a xlink:href="classMap.html#ad360682917f0061dbba995d645c56212" target="_top" xlink:title="Map::getNeighborNodes">
<polygon fill="none" stroke="#000000" points="360,-246 360,-265 494,-265 494,-246 360,-246"/>
<text text-anchor="middle" x="427" y="-253" font-family="Helvetica,sans-Serif" font-size="10.00" fill="#000000">Map::getNeighborNodes</text>
</a>
</g>
</g>
<!-- Node526&#45;&gt;Node527 -->
<g id="edge2" class="edge">
<title>Node526&#45;&gt;Node527</title>
<path fill="none" stroke="#191970" d="M247.628,-145.1173C281.5016,-165.9625 361.9039,-215.4409 402.5609,-240.4606"/>
<polygon fill="#191970" stroke="#191970" points="400.9466,-243.5767 411.2975,-245.8369 404.6153,-237.6151 400.9466,-243.5767"/>
</g>
<!-- Node531 -->
<g id="node7" class="node">
<title>Node531</title>
<g id="a_node7"><a xlink:href="classMap.html#a9751d8dc0c6b2b127400b05994118aba" target="_top" xlink:title="Map::updateHeight">
<polygon fill="none" stroke="#000000" points="372.5,-88 372.5,-107 481.5,-107 481.5,-88 372.5,-88"/>
<text text-anchor="middle" x="427" y="-95" font-family="Helvetica,sans-Serif" font-size="10.00" fill="#000000">Map::updateHeight</text>
</a>
</g>
</g>
<!-- Node526&#45;&gt;Node531 -->
<g id="edge6" class="edge">
<title>Node526&#45;&gt;Node531</title>
<path fill="none" stroke="#191970" d="M280.955,-125.96C307.3809,-120.8104 340.1943,-114.416 368.02,-108.9935"/>
<polygon fill="#191970" stroke="#191970" points="368.8789,-112.3921 378.0248,-107.0439 367.54,-105.5213 368.8789,-112.3921"/>
</g>
<!-- Node533 -->
<g id="node9" class="node">
<title>Node533</title>
<g id="a_node9"><a xlink:href="classMapNode.html#a67296a58e167356efbabeaac3226b5d3" target="_top" xlink:title="get iso coordinates of this node gets the iso coordinates of this node ">
<polygon fill="none" stroke="#000000" points="558.5,-6 558.5,-25 701.5,-25 701.5,-6 558.5,-6"/>
<text text-anchor="middle" x="630" y="-13" font-family="Helvetica,sans-Serif" font-size="10.00" fill="#000000">MapNode::getCoordinates</text>
</a>
</g>
</g>
<!-- Node526&#45;&gt;Node533 -->
<g id="edge8" class="edge">
<title>Node526&#45;&gt;Node533</title>
<path fill="none" stroke="#191970" d="M247.7462,-125.8569C268.9147,-113.2799 308.0532,-91.3693 344,-78.5 365.4167,-70.8326 496.6618,-43.0965 573.7107,-27.0981"/>
<polygon fill="#191970" stroke="#191970" points="574.6651,-30.4747 583.7461,-25.0171 573.2437,-23.6205 574.6651,-30.4747"/>
</g>
<!-- Node534 -->
<g id="node10" class="node">
<title>Node534</title>
<g id="a_node10"><a xlink:href="classMap.html#a769a53961d4a0dd34ee080d2da8c171e" target="_top" xlink:title="Map::getElevatedNeighbor\lBitmask">
<polygon fill="none" stroke="#000000" points="354,-.5 354,-30.5 500,-30.5 500,-.5 354,-.5"/>
<text text-anchor="start" x="362" y="-18.5" font-family="Helvetica,sans-Serif" font-size="10.00" fill="#000000">Map::getElevatedNeighbor</text>
<text text-anchor="middle" x="427" y="-7.5" font-family="Helvetica,sans-Serif" font-size="10.00" fill="#000000">Bitmask</text>
</a>
</g>
</g>
<!-- Node526&#45;&gt;Node534 -->
<g id="edge9" class="edge">
<title>Node526&#45;&gt;Node534</title>
<path fill="none" stroke="#191970" d="M241.671,-125.836C260.1226,-107.8544 302.2452,-68.9588 344,-45.5 351.3929,-41.3465 359.4685,-37.5867 367.5861,-34.2446"/>
<polygon fill="#191970" stroke="#191970" points="369.0647,-37.4243 377.0962,-30.5145 366.5087,-30.9076 369.0647,-37.4243"/>
</g>
<!-- Node535 -->
<g id="node11" class="node">
<title>Node535</title>
<g id="a_node11"><a xlink:href="classMap.html#aa8cc2ed983007621bce12dd9d1b8ec5b" target="_top" xlink:title="Demolish a node This function gathers all tiles that should be demolished and invokes the nodes demol...">
<polygon fill="none" stroke="#000000" points="370.5,-170 370.5,-189 483.5,-189 483.5,-170 370.5,-170"/>
<text text-anchor="middle" x="427" y="-177" font-family="Helvetica,sans-Serif" font-size="10.00" fill="#000000">Map::demolishNode</text>
</a>
</g>
</g>
<!-- Node526&#45;&gt;Node535 -->
<g id="edge11" class="edge">
<title>Node526&#45;&gt;Node535</title>
<path fill="none" stroke="#191970" d="M303.2272,-145.0445C334.5915,-151.5777 369.8755,-159.9914 394.722,-167.0459"/>
<polygon fill="#191970" stroke="#191970" points="393.7789,-170.4167 404.36,-169.8759 395.7511,-163.7002 393.7789,-170.4167"/>
</g>
<!-- Node540 -->
<g id="node16" class="node">
<title>Node540</title>
<g id="a_node16"><a xlink:href="classMap.html#af192be95053d30ea6c6d9327106bf6d8" target="_top" xlink:title="Get a bitmask that represents same&#45;tile neighbors Checks all neighboring tiles and returns the elevat...">
<polygon fill="none" stroke="#000000" points="344,-126 344,-145 510,-145 510,-126 344,-126"/>
<text text-anchor="middle" x="427" y="-133" font-family="Helvetica,sans-Serif" font-size="10.00" fill="#000000">Map::calculateAutotileBitmask</text>
</a>
</g>
</g>
<!-- Node526&#45;&gt;Node540 -->
<g id="edge20" class="edge">
<title>Node526&#45;&gt;Node540</title>
<path fill="none" stroke="#191970" d="M308.2299,-135.5C316.5076,-135.5 325.0003,-135.5 333.4534,-135.5"/>
<polygon fill="#191970" stroke="#191970" points="333.7275,-139.0001 343.7274,-135.5 333.7274,-132.0001 333.7275,-139.0001"/>
</g>
<!-- Node528 -->
<g id="node4" class="node">
<title>Node528</title>
<g id="a_node4"><a xlink:href="isoMath_8cxx.html#a7fa61c3d8ef446fb1c48dc4838023649" target="_top" xlink:title="Check if given coordinates are within map boundaries Checks if coordinates are within map boundaries...">
<polygon fill="none" stroke="#000000" points="552,-284 552,-303 708,-303 708,-284 552,-284"/>
<text text-anchor="middle" x="630" y="-291" font-family="Helvetica,sans-Serif" font-size="10.00" fill="#000000">isPointWithinMapBoundaries</text>
</a>
</g>
</g>
<!-- Node527&#45;&gt;Node528 -->
<g id="edge3" class="edge">
<title>Node527&#45;&gt;Node528</title>
<path fill="none" stroke="#191970" d="M477.9634,-265.04C505.5941,-270.2122 539.9328,-276.6401 568.9811,-282.0778"/>
<polygon fill="#191970" stroke="#191970" points="568.5423,-285.5563 579.0156,-283.9561 569.8303,-278.6758 568.5423,-285.5563"/>
</g>
<!-- Node530 -->
<g id="node6" class="node">
<title>Node530</title>
<g id="a_node6"><a xlink:href="classMap.html#a1676db3d125b2c1764adfcb64d6332a2" target="_top" xlink:title="Map::nodeIdx">
<polygon fill="none" stroke="#000000" points="589,-246 589,-265 671,-265 671,-246 589,-246"/>
<text text-anchor="middle" x="630" y="-253" font-family="Helvetica,sans-Serif" font-size="10.00" fill="#000000">Map::nodeIdx</text>
</a>
</g>
</g>
<!-- Node527&#45;&gt;Node530 -->
<g id="edge5" class="edge">
<title>Node527&#45;&gt;Node530</title>
<path fill="none" stroke="#191970" d="M494.0324,-255.5C521.5395,-255.5 552.8791,-255.5 578.5324,-255.5"/>
<polygon fill="#191970" stroke="#191970" points="578.7872,-259.0001 588.7871,-255.5 578.7871,-252.0001 578.7872,-259.0001"/>
</g>
<!-- Node529 -->
<g id="node5" class="node">
<title>Node529</title>
<g id="a_node5"><a xlink:href="classSingleton.html#af5cb1e5749949e2b68416cfb8d378044" target="_top" xlink:title="Get an instance of the singleton. ">
<polygon fill="none" stroke="#000000" points="763.5,-262.5 763.5,-292.5 876.5,-292.5 876.5,-262.5 763.5,-262.5"/>
<text text-anchor="start" x="771.5" y="-280.5" font-family="Helvetica,sans-Serif" font-size="10.00" fill="#000000">Singleton&lt; Settings</text>
<text text-anchor="middle" x="820" y="-269.5" font-family="Helvetica,sans-Serif" font-size="10.00" fill="#000000"> &gt;::instance</text>
</a>
</g>
</g>
<!-- Node528&#45;&gt;Node529 -->
<g id="edge4" class="edge">
<title>Node528&#45;&gt;Node529</title>
<path fill="none" stroke="#191970" d="M708.1028,-286.9229C723.0103,-285.6676 738.4914,-284.3639 753.0134,-283.141"/>
<polygon fill="#191970" stroke="#191970" points="753.7252,-286.5935 763.3962,-282.2666 753.1378,-279.6182 753.7252,-286.5935"/>
</g>
<!-- Node532 -->
<g id="node8" class="node">
<title>Node532</title>
<g id="a_node8"><a xlink:href="classMapNode.html#a10dded7848621ba007c3d3fc85392e32" target="_top" xlink:title="Change Height Increases or decrease the height of the node and its sprite This function should not be...">
<polygon fill="none" stroke="#000000" points="562,-44 562,-63 698,-63 698,-44 562,-44"/>
<text text-anchor="middle" x="630" y="-51" font-family="Helvetica,sans-Serif" font-size="10.00" fill="#000000">MapNode::changeHeight</text>
</a>
</g>
</g>
<!-- Node531&#45;&gt;Node532 -->
<g id="edge7" class="edge">
<title>Node531&#45;&gt;Node532</title>
<path fill="none" stroke="#191970" d="M471.048,-87.9527C501.9057,-81.2643 543.3268,-72.2863 576.1491,-65.1721"/>
<polygon fill="#191970" stroke="#191970" points="577.0064,-68.5677 586.038,-63.0287 575.5235,-61.7265 577.0064,-68.5677"/>
</g>
<!-- Node534&#45;&gt;Node533 -->
<g id="edge10" class="edge">
<title>Node534&#45;&gt;Node533</title>
<path fill="none" stroke="#191970" d="M500.0009,-15.5C515.5725,-15.5 532.118,-15.5 548.0014,-15.5"/>
<polygon fill="#191970" stroke="#191970" points="548.3266,-19.0001 558.3266,-15.5 548.3266,-12.0001 548.3266,-19.0001"/>
</g>
<!-- Node535&#45;&gt;Node526 -->
<g id="edge19" class="edge">
<title>Node535&#45;&gt;Node526</title>
<path fill="none" stroke="#191970" d="M370.4547,-172.9312C335.9686,-166.1494 293.1282,-156.1437 264.3103,-147.9633"/>
<polygon fill="#191970" stroke="#191970" points="264.9501,-144.5033 254.369,-145.0413 262.9762,-151.2193 264.9501,-144.5033"/>
</g>
<!-- Node535&#45;&gt;Node528 -->
<g id="edge12" class="edge">
<title>Node535&#45;&gt;Node528</title>
<path fill="none" stroke="#191970" d="M443.0094,-189.0779C460.2717,-199.7215 488.2051,-217.8764 510,-236.5 527.6868,-251.6133 525.7811,-262.9922 546,-274.5 549.9065,-276.7234 554.0538,-278.6866 558.3316,-280.4201"/>
<polygon fill="#191970" stroke="#191970" points="557.2676,-283.757 567.862,-283.8598 559.6441,-277.1727 557.2676,-283.757"/>
</g>
<!-- Node535&#45;&gt;Node530 -->
<g id="edge13" class="edge">
<title>Node535&#45;&gt;Node530</title>
<path fill="none" stroke="#191970" d="M443.829,-189.0547C466.4297,-201.5338 508.1348,-223.3364 546,-236.5 556.4883,-240.1462 567.9605,-243.2759 578.9632,-245.8818"/>
<polygon fill="#191970" stroke="#191970" points="578.3682,-249.3356 588.894,-248.1277 579.9123,-242.508 578.3682,-249.3356"/>
</g>
<!-- Node536 -->
<g id="node12" class="node">
<title>Node536</title>
<g id="a_node12"><a xlink:href="classMapNode.html#a6b57e4355d0780fb37c34d63bbcdfdf9" target="_top" xlink:title="MapNode::getMapNodeDataFor\lLayer">
<polygon fill="none" stroke="#000000" points="546,-120.5 546,-150.5 714,-150.5 714,-120.5 546,-120.5"/>
<text text-anchor="start" x="554" y="-138.5" font-family="Helvetica,sans-Serif" font-size="10.00" fill="#000000">MapNode::getMapNodeDataFor</text>
<text text-anchor="middle" x="630" y="-127.5" font-family="Helvetica,sans-Serif" font-size="10.00" fill="#000000">Layer</text>
</a>
</g>
</g>
<!-- Node535&#45;&gt;Node536 -->
<g id="edge14" class="edge">
<title>Node535&#45;&gt;Node536</title>
<path fill="none" stroke="#191970" d="M471.048,-169.9527C494.3115,-164.9103 523.5789,-158.5666 550.6393,-152.7013"/>
<polygon fill="#191970" stroke="#191970" points="551.4623,-156.1043 560.4939,-150.5654 549.9794,-149.2632 551.4623,-156.1043"/>
</g>
<!-- Node537 -->
<g id="node13" class="node">
<title>Node537</title>
<g id="a_node13"><a xlink:href="classMapNode.html#ad74bb8fd5b519f5e909f0e807960a918" target="_top" xlink:title="MapNode::getOrigCornerPoint">
<polygon fill="none" stroke="#000000" points="549.5,-170 549.5,-189 710.5,-189 710.5,-170 549.5,-170"/>
<text text-anchor="middle" x="630" y="-177" font-family="Helvetica,sans-Serif" font-size="10.00" fill="#000000">MapNode::getOrigCornerPoint</text>
</a>
</g>
</g>
<!-- Node535&#45;&gt;Node537 -->
<g id="edge15" class="edge">
<title>Node535&#45;&gt;Node537</title>
<path fill="none" stroke="#191970" d="M483.5468,-179.5C500.8501,-179.5 520.3376,-179.5 539.315,-179.5"/>
<polygon fill="#191970" stroke="#191970" points="539.4821,-183.0001 549.482,-179.5 539.482,-176.0001 539.4821,-183.0001"/>
</g>
<!-- Node538 -->
<g id="node14" class="node">
<title>Node538</title>
<g id="a_node14"><a xlink:href="classMap.html#a3952b445c55efce61c1ccac6f362fe89" target="_top" xlink:title="Return vector of Points of an Object Tiles selection. ">
<polygon fill="none" stroke="#000000" points="568,-208 568,-227 692,-227 692,-208 568,-208"/>
<text text-anchor="middle" x="630" y="-215" font-family="Helvetica,sans-Serif" font-size="10.00" fill="#000000">Map::getObjectCoords</text>
</a>
</g>
</g>
<!-- Node535&#45;&gt;Node538 -->
<g id="edge16" class="edge">
<title>Node535&#45;&gt;Node538</title>
<path fill="none" stroke="#191970" d="M477.9634,-189.04C505.5941,-194.2122 539.9328,-200.6401 568.9811,-206.0778"/>
<polygon fill="#191970" stroke="#191970" points="568.5423,-209.5563 579.0156,-207.9561 569.8303,-202.6758 568.5423,-209.5563"/>
</g>
<!-- Node538&#45;&gt;Node529 -->
<g id="edge17" class="edge">
<title>Node538&#45;&gt;Node529</title>
<path fill="none" stroke="#191970" d="M677.852,-227.0487C689.7516,-229.7718 702.4149,-232.9701 714,-236.5 734.4127,-242.7196 756.4961,-251.0014 775.1957,-258.493"/>
<polygon fill="#191970" stroke="#191970" points="774.0568,-261.808 784.6391,-262.3235 776.688,-255.3213 774.0568,-261.808"/>
</g>
<!-- Node539 -->
<g id="node15" class="node">
<title>Node539</title>
<g id="a_node15"><a xlink:href="classTileManager.html#a8ee071ff8b24926288437d310f9bc714" target="_top" xlink:title="TileManager::getTileData">
<polygon fill="none" stroke="#000000" points="750,-208 750,-227 890,-227 890,-208 750,-208"/>
<text text-anchor="middle" x="820" y="-215" font-family="Helvetica,sans-Serif" font-size="10.00" fill="#000000">TileManager::getTileData</text>
</a>
</g>
</g>
<!-- Node538&#45;&gt;Node539 -->
<g id="edge18" class="edge">
<title>Node538&#45;&gt;Node539</title>
<path fill="none" stroke="#191970" d="M692.2131,-217.5C707.3056,-217.5 723.6566,-217.5 739.4608,-217.5"/>
<polygon fill="#191970" stroke="#191970" points="739.7487,-221.0001 749.7487,-217.5 739.7487,-214.0001 739.7487,-221.0001"/>
</g>
<!-- Node540&#45;&gt;Node536 -->
<g id="edge21" class="edge">
<title>Node540&#45;&gt;Node536</title>
<path fill="none" stroke="#191970" d="M510.1536,-135.5C518.6531,-135.5 527.3302,-135.5 535.9356,-135.5"/>
<polygon fill="#191970" stroke="#191970" points="535.9897,-139.0001 545.9897,-135.5 535.9897,-132.0001 535.9897,-139.0001"/>
</g>
<!-- Node541 -->
<g id="node17" class="node">
<title>Node541</title>
<g id="a_node17"><a xlink:href="classMapNode.html#afb1cbc0f9e987b7befced46220dd9277" target="_top" xlink:title="check if specific layer can be autotiled. ">
<polygon fill="none" stroke="#000000" points="558,-82 558,-101 702,-101 702,-82 558,-82"/>
<text text-anchor="middle" x="630" y="-89" font-family="Helvetica,sans-Serif" font-size="10.00" fill="#000000">MapNode::isLayerAutoTile</text>
</a>
</g>
</g>
<!-- Node540&#45;&gt;Node541 -->
<g id="edge22" class="edge">
<title>Node540&#45;&gt;Node541</title>
<path fill="none" stroke="#191970" d="M471.048,-125.9527C501.9057,-119.2643 543.3268,-110.2863 576.1491,-103.1721"/>
<polygon fill="#191970" stroke="#191970" points="577.0064,-106.5677 586.038,-101.0287 575.5235,-99.7265 577.0064,-106.5677"/>
</g>
<!-- Node542 -->
<g id="node18" class="node">
<title>Node542</title>
<g id="a_node18"><a xlink:href="classMapNode.html#a64cb9a4523c9e78f256fde42f1dee43d" target="_top" xlink:title="check if specific Tile Data is autotile category. ">
<polygon fill="none" stroke="#000000" points="750,-82 750,-101 890,-101 890,-82 750,-82"/>
<text text-anchor="middle" x="820" y="-89" font-family="Helvetica,sans-Serif" font-size="10.00" fill="#000000">MapNode::isDataAutoTile</text>
</a>
</g>
</g>
<!-- Node541&#45;&gt;Node542 -->
<g id="edge23" class="edge">
<title>Node541&#45;&gt;Node542</title>
<path fill="none" stroke="#191970" d="M702.1018,-91.5C714.3221,-91.5 727.0799,-91.5 739.4991,-91.5"/>
<polygon fill="#191970" stroke="#191970" points="739.8325,-95.0001 749.8324,-91.5 739.8324,-88.0001 739.8325,-95.0001"/>
</g>
</g>
</svg>
        <g id="navigator" transform="translate(0 0)" fill="#404254">
                <rect fill="#f2f5e9" fill-opacity="0.5" stroke="#606060" stroke-width=".5" x="0" y="0" width="60" height="60"/>
                <use id="zoomplus" xlink:href="#zoomPlus" x="17" y="9" onmousedown="handleZoom(evt,'in')"/>
                <use id="zoomminus" xlink:href="#zoomMin" x="42" y="9" onmousedown="handleZoom(evt,'out')"/>
                <use id="reset" xlink:href="#resetDef" x="30" y="36" onmousedown="handleReset()"/>
                <g id="arrowUp" xlink:href="#dirArrow" transform="translate(30 24)" onmousedown="handlePan(0,-1)">
                  <use xlink:href="#rim" fill="#404040">
                        <set attributeName="fill" to="#808080" begin="arrowUp.mouseover" end="arrowUp.mouseout"/>
                  </use>
                  <path fill="none" stroke="white" stroke-width="1.5" d="M0,-3.0v7 M-2.5,-0.5L0,-3.0L2.5,-0.5"/>
                </g>
                <g id="arrowRight" xlink:href="#dirArrow" transform="rotate(90) translate(36 -43)" onmousedown="handlePan(1,0)">
                  <use xlink:href="#rim" fill="#404040">
                        <set attributeName="fill" to="#808080" begin="arrowRight.mouseover" end="arrowRight.mouseout"/>
                  </use>
                  <path fill="none" stroke="white" stroke-width="1.5" d="M0,-3.0v7 M-2.5,-0.5L0,-3.0L2.5,-0.5"/>
                </g>
                <g id="arrowDown" xlink:href="#dirArrow" transform="rotate(180) translate(-30 -48)" onmousedown="handlePan(0,1)">
                  <use xlink:href="#rim" fill="#404040">
                        <set attributeName="fill" to="#808080" begin="arrowDown.mouseover" end="arrowDown.mouseout"/>
                  </use>
                  <path fill="none" stroke="white" stroke-width="1.5" d="M0,-3.0v7 M-2.5,-0.5L0,-3.0L2.5,-0.5"/>
                </g>
                <g id="arrowLeft" xlink:href="#dirArrow" transform="rotate(270) translate(-36 17)" onmousedown="handlePan(-1,0)">
                  <use xlink:href="#rim" fill="#404040">
                        <set attributeName="fill" to="#808080" begin="arrowLeft.mouseover" end="arrowLeft.mouseout"/>
                  </use>
                  <path fill="none" stroke="white" stroke-width="1.5" d="M0,-3.0v7 M-2.5,-0.5L0,-3.0L2.5,-0.5"/>
                </g>
        </g>
        <svg viewBox="0 0 15 15" width="100%" height="30px" preserveAspectRatio="xMaxYMin meet">
         <g id="arrow_out" transform="scale(0.3 0.3)">
          <a xlink:href="classMap_a481b37ba71ef0e51e836fc42805762dd_cgraph_org.svg" target="_base">
           <rect id="button" ry="5" rx="5" y="6" x="6" height="38" width="38"
                fill="#f2f5e9" fill-opacity="0.5" stroke="#606060" stroke-width="1.0"/>
           <path id="arrow"
             d="M 11.500037,31.436501 C 11.940474,20.09759 22.043105,11.32322 32.158766,21.979434 L 37.068811,17.246167 C 37.068811,17.246167 37.088388,32 37.088388,32 L 22.160133,31.978069 C 22.160133,31.978069 26.997745,27.140456 26.997745,27.140456 C 18.528582,18.264221 13.291696,25.230495 11.500037,31.436501 z"
             style="fill:#404040;"/>
          </a>
         </g>
        </svg>
</svg>
