<?xml version="1.0" encoding="UTF-8" standalone="no"?>
<!DOCTYPE svg PUBLIC "-//W3C//DTD SVG 1.1//EN"
 "http://www.w3.org/Graphics/SVG/1.1/DTD/svg11.dtd">
<!-- Generated by graphviz version 2.40.1 (20161225.0304)
 -->
<!-- Title: Map::demolishNode Pages: 1 -->
<!--zoomable 396 -->
<svg id="main" version="1.1" xmlns="http://www.w3.org/2000/svg" xmlns:xlink="http://www.w3.org/1999/xlink" xml:space="preserve" onload="init(evt)">
<style type="text/css"><![CDATA[
.edge:hover path { stroke: red; }
.edge:hover polygon { stroke: red; fill: red; }
]]></style>
<script type="text/javascript"><![CDATA[
var edges = document.getElementsByTagName('g');
if (edges && edges.length) {
  for (var i=0;i<edges.length;i++) {
    if (edges[i].id.substr(0,4)=='edge') {
      edges[i].setAttribute('class','edge');
    }
  }
}
]]></script>
        <defs>
                <circle id="rim" cx="0" cy="0" r="7"/>
                <circle id="rim2" cx="0" cy="0" r="3.5"/>
                <g id="zoomPlus">
                        <use xlink:href="#rim" fill="#404040">
                                <set attributeName="fill" to="#808080" begin="zoomplus.mouseover" end="zoomplus.mouseout"/>
                        </use>
                        <path d="M-4,0h8M0,-4v8" fill="none" stroke="white" stroke-width="1.5" pointer-events="none"/>
                </g>
                <g id="zoomMin">
                        <use xlink:href="#rim" fill="#404040">
                                <set attributeName="fill" to="#808080" begin="zoomminus.mouseover" end="zoomminus.mouseout"/>
                        </use>
                        <path d="M-4,0h8" fill="none" stroke="white" stroke-width="1.5" pointer-events="none"/>
                </g>
                <g id="dirArrow">
                        <path fill="none" stroke="white" stroke-width="1.5" d="M0,-3.0v7 M-2.5,-0.5L0,-3.0L2.5,-0.5"/>
                </g>
               <g id="resetDef">
                       <use xlink:href="#rim2" fill="#404040">
                               <set attributeName="fill" to="#808080" begin="reset.mouseover" end="reset.mouseout"/>
                       </use>
               </g>
        </defs>

<script type="text/javascript">
var viewWidth = 900;
var viewHeight = 396;
var sectionId = 'dynsection-11';
</script>
<script xlink:href="svgpan.js"/>
<svg id="graph" class="graph">
<g id="viewport">
<title>Map::demolishNode</title>
<!-- Node135 -->
<g id="node1" class="node">
<title>Node135</title>
<polygon fill="#bfbfbf" stroke="#000000" points="0,-183.5 0,-202.5 113,-202.5 113,-183.5 0,-183.5"/>
<text text-anchor="middle" x="56.5" y="-190.5" font-family="Helvetica,sans-Serif" font-size="10.00" fill="#000000">Map::demolishNode</text>
</g>
<!-- Node136 -->
<g id="node2" class="node">
<title>Node136</title>
<g id="a_node2"><a xlink:href="isoMath_8cxx.html#a7fa61c3d8ef446fb1c48dc4838023649" target="_top" xlink:title="Check if given coordinates are within map boundaries Checks if coordinates are within map boundaries...">
<polygon fill="none" stroke="#000000" points="554,-316.5 554,-335.5 710,-335.5 710,-316.5 554,-316.5"/>
<text text-anchor="middle" x="632" y="-323.5" font-family="Helvetica,sans-Serif" font-size="10.00" fill="#000000">isPointWithinMapBoundaries</text>
</a>
</g>
</g>
<!-- Node135&#45;&gt;Node136 -->
<g id="edge1" class="edge">
<title>Node135&#45;&gt;Node136</title>
<path fill="none" stroke="#191970" d="M66.931,-202.6823C83.1335,-217.1128 115.9379,-243.9587 149,-257 279.8985,-308.6326 444.2982,-322.3102 543.6011,-325.5499"/>
<polygon fill="#191970" stroke="#191970" points="543.7953,-329.0571 553.8949,-325.8558 544.0033,-322.0602 543.7953,-329.0571"/>
</g>
<!-- Node138 -->
<g id="node4" class="node">
<title>Node138</title>
<g id="a_node4"><a xlink:href="classMap.html#a1676db3d125b2c1764adfcb64d6332a2" target="_top" xlink:title="Map::nodeIdx">
<polygon fill="none" stroke="#000000" points="591,-259.5 591,-278.5 673,-278.5 673,-259.5 591,-259.5"/>
<text text-anchor="middle" x="632" y="-266.5" font-family="Helvetica,sans-Serif" font-size="10.00" fill="#000000">Map::nodeIdx</text>
</a>
</g>
</g>
<!-- Node135&#45;&gt;Node138 -->
<g id="edge3" class="edge">
<title>Node135&#45;&gt;Node138</title>
<path fill="none" stroke="#191970" d="M83.5772,-202.6165C134.2721,-220.0534 247.3087,-256.2615 346,-269 427.3598,-279.5014 522.8266,-276.4481 580.3043,-272.9619"/>
<polygon fill="#191970" stroke="#191970" points="580.8246,-276.436 590.5826,-272.3091 580.3809,-269.4501 580.8246,-276.436"/>
</g>
<!-- Node139 -->
<g id="node5" class="node">
<title>Node139</title>
<g id="a_node5"><a xlink:href="classMapNode.html#a6b57e4355d0780fb37c34d63bbcdfdf9" target="_top" xlink:title="MapNode::getMapNodeDataFor\lLayer">
<polygon fill="none" stroke="#000000" points="548,-33 548,-63 716,-63 716,-33 548,-33"/>
<text text-anchor="start" x="556" y="-51" font-family="Helvetica,sans-Serif" font-size="10.00" fill="#000000">MapNode::getMapNodeDataFor</text>
<text text-anchor="middle" x="632" y="-40" font-family="Helvetica,sans-Serif" font-size="10.00" fill="#000000">Layer</text>
</a>
</g>
</g>
<!-- Node135&#45;&gt;Node139 -->
<g id="edge4" class="edge">
<title>Node135&#45;&gt;Node139</title>
<path fill="none" stroke="#191970" d="M73.0738,-183.3307C116.267,-158.6879 236.5427,-93.6029 346,-67 408.7056,-51.7598 481.2709,-47.0843 537.6167,-46.1808"/>
<polygon fill="#191970" stroke="#191970" points="537.9865,-49.6766 547.9429,-46.0543 537.9007,-42.6772 537.9865,-49.6766"/>
</g>
<!-- Node140 -->
<g id="node6" class="node">
<title>Node140</title>
<g id="a_node6"><a xlink:href="classMapNode.html#ad74bb8fd5b519f5e909f0e807960a918" target="_top" xlink:title="MapNode::getOrigCornerPoint">
<polygon fill="none" stroke="#000000" points="149,-.5 149,-19.5 310,-19.5 310,-.5 149,-.5"/>
<text text-anchor="middle" x="229.5" y="-7.5" font-family="Helvetica,sans-Serif" font-size="10.00" fill="#000000">MapNode::getOrigCornerPoint</text>
</a>
</g>
</g>
<!-- Node135&#45;&gt;Node140 -->
<g id="edge5" class="edge">
<title>Node135&#45;&gt;Node140</title>
<path fill="none" stroke="#191970" d="M59.2819,-183.4615C67.8169,-155.8996 96.3011,-75.479 149,-34 154.3896,-29.7579 160.5159,-26.2644 166.9263,-23.3877"/>
<polygon fill="#191970" stroke="#191970" points="168.4662,-26.5421 176.4688,-19.5989 165.883,-20.0362 168.4662,-26.5421"/>
</g>
<!-- Node141 -->
<g id="node7" class="node">
<title>Node141</title>
<g id="a_node7"><a xlink:href="classMap.html#a3952b445c55efce61c1ccac6f362fe89" target="_top" xlink:title="Return vector of Points of an Object Tiles selection. ">
<polygon fill="none" stroke="#000000" points="167.5,-354.5 167.5,-373.5 291.5,-373.5 291.5,-354.5 167.5,-354.5"/>
<text text-anchor="middle" x="229.5" y="-361.5" font-family="Helvetica,sans-Serif" font-size="10.00" fill="#000000">Map::getObjectCoords</text>
</a>
</g>
</g>
<!-- Node135&#45;&gt;Node141 -->
<g id="edge6" class="edge">
<title>Node135&#45;&gt;Node141</title>
<path fill="none" stroke="#191970" d="M59.7682,-202.5656C69.2043,-228.7338 99.05,-302.0714 149,-340 154.7493,-344.3656 161.2849,-347.9402 168.0878,-350.8666"/>
<polygon fill="#191970" stroke="#191970" points="166.8913,-354.1562 177.4815,-354.4686 169.3976,-347.6202 166.8913,-354.1562"/>
</g>
<!-- Node143 -->
<g id="node9" class="node">
<title>Node143</title>
<g id="a_node9"><a xlink:href="classMap.html#af1e496c421981fe707890b0ba60cc20f" target="_top" xlink:title="Map::updateNodeNeighbors">
<polygon fill="none" stroke="#000000" points="153.5,-183.5 153.5,-202.5 305.5,-202.5 305.5,-183.5 153.5,-183.5"/>
<text text-anchor="middle" x="229.5" y="-190.5" font-family="Helvetica,sans-Serif" font-size="10.00" fill="#000000">Map::updateNodeNeighbors</text>
</a>
</g>
</g>
<!-- Node135&#45;&gt;Node143 -->
<g id="edge9" class="edge">
<title>Node135&#45;&gt;Node143</title>
<path fill="none" stroke="#191970" d="M113.1467,-186.6208C122.7546,-186.3729 132.9227,-186.2493 143.0891,-186.25"/>
<polygon fill="#191970" stroke="#191970" points="143.2197,-189.7505 153.2342,-186.2922 143.2488,-182.7505 143.2197,-189.7505"/>
</g>
<!-- Node137 -->
<g id="node3" class="node">
<title>Node137</title>
<g id="a_node3"><a xlink:href="classSingleton.html#af5cb1e5749949e2b68416cfb8d378044" target="_top" xlink:title="Get an instance of the singleton. ">
<polygon fill="none" stroke="#000000" points="765.5,-349 765.5,-379 878.5,-379 878.5,-349 765.5,-349"/>
<text text-anchor="start" x="773.5" y="-367" font-family="Helvetica,sans-Serif" font-size="10.00" fill="#000000">Singleton&lt; Settings</text>
<text text-anchor="middle" x="822" y="-356" font-family="Helvetica,sans-Serif" font-size="10.00" fill="#000000"> &gt;::instance</text>
</a>
</g>
</g>
<!-- Node136&#45;&gt;Node137 -->
<g id="edge2" class="edge">
<title>Node136&#45;&gt;Node137</title>
<path fill="none" stroke="#191970" d="M679.945,-335.589C702.7476,-340.1495 730.3891,-345.6778 755.2063,-350.6413"/>
<polygon fill="#191970" stroke="#191970" points="754.791,-354.1274 765.2832,-352.6566 756.1639,-347.2634 754.791,-354.1274"/>
</g>
<!-- Node141&#45;&gt;Node137 -->
<g id="edge7" class="edge">
<title>Node141&#45;&gt;Node137</title>
<path fill="none" stroke="#191970" d="M276.8996,-373.5128C297.9644,-377.2783 323.1229,-381.1467 346,-383 491.8019,-394.8114 663.3488,-381.2324 755.4695,-371.7093"/>
<polygon fill="#191970" stroke="#191970" points="755.9095,-375.1825 765.4892,-370.657 755.1783,-368.2208 755.9095,-375.1825"/>
</g>
<!-- Node142 -->
<g id="node8" class="node">
<title>Node142</title>
<g id="a_node8"><a xlink:href="classTileManager.html#a8ee071ff8b24926288437d310f9bc714" target="_top" xlink:title="TileManager::getTileData">
<polygon fill="none" stroke="#000000" points="359,-354.5 359,-373.5 499,-373.5 499,-354.5 359,-354.5"/>
<text text-anchor="middle" x="429" y="-361.5" font-family="Helvetica,sans-Serif" font-size="10.00" fill="#000000">TileManager::getTileData</text>
</a>
</g>
</g>
<!-- Node141&#45;&gt;Node142 -->
<g id="edge8" class="edge">
<title>Node141&#45;&gt;Node142</title>
<path fill="none" stroke="#191970" d="M291.5295,-364C309.5634,-364 329.5264,-364 348.5204,-364"/>
<polygon fill="#191970" stroke="#191970" points="348.6506,-367.5001 358.6506,-364 348.6506,-360.5001 348.6506,-367.5001"/>
</g>
<!-- Node143&#45;&gt;Node135 -->
<g id="edge18" class="edge">
<title>Node143&#45;&gt;Node135</title>
<path fill="none" stroke="#191970" d="M153.2342,-199.7078C143.2365,-199.7906 133.0539,-199.7516 123.2306,-199.5908"/>
<polygon fill="#191970" stroke="#191970" points="123.2179,-196.0899 113.1467,-199.3792 123.071,-203.0883 123.2179,-196.0899"/>
</g>
<!-- Node144 -->
<g id="node10" class="node">
<title>Node144</title>
<g id="a_node10"><a xlink:href="classMap.html#ad360682917f0061dbba995d645c56212" target="_top" xlink:title="Map::getNeighborNodes">
<polygon fill="none" stroke="#000000" points="362,-240.5 362,-259.5 496,-259.5 496,-240.5 362,-240.5"/>
<text text-anchor="middle" x="429" y="-247.5" font-family="Helvetica,sans-Serif" font-size="10.00" fill="#000000">Map::getNeighborNodes</text>
</a>
</g>
</g>
<!-- Node143&#45;&gt;Node144 -->
<g id="edge10" class="edge">
<title>Node143&#45;&gt;Node144</title>
<path fill="none" stroke="#191970" d="M256.5942,-202.607C280.0717,-210.746 315.0409,-222.4262 346,-231 354.9974,-233.4917 364.607,-235.9104 373.9792,-238.1404"/>
<polygon fill="#191970" stroke="#191970" points="373.482,-241.6183 384.0156,-240.4808 375.0717,-234.8012 373.482,-241.6183"/>
</g>
<!-- Node145 -->
<g id="node11" class="node">
<title>Node145</title>
<g id="a_node11"><a xlink:href="classMap.html#a9751d8dc0c6b2b127400b05994118aba" target="_top" xlink:title="Map::updateHeight">
<polygon fill="none" stroke="#000000" points="374.5,-202.5 374.5,-221.5 483.5,-221.5 483.5,-202.5 374.5,-202.5"/>
<text text-anchor="middle" x="429" y="-209.5" font-family="Helvetica,sans-Serif" font-size="10.00" fill="#000000">Map::updateHeight</text>
</a>
</g>
</g>
<!-- Node143&#45;&gt;Node145 -->
<g id="edge13" class="edge">
<title>Node143&#45;&gt;Node145</title>
<path fill="none" stroke="#191970" d="M305.7763,-200.2644C325.0812,-202.103 345.6297,-204.06 364.301,-205.8382"/>
<polygon fill="#191970" stroke="#191970" points="364.1742,-209.3419 374.461,-206.8058 364.8379,-202.3734 364.1742,-209.3419"/>
</g>
<!-- Node147 -->
<g id="node13" class="node">
<title>Node147</title>
<g id="a_node13"><a xlink:href="classMapNode.html#a67296a58e167356efbabeaac3226b5d3" target="_top" xlink:title="get iso coordinates of this node gets the iso coordinates of this node ">
<polygon fill="none" stroke="#000000" points="560.5,-142.5 560.5,-161.5 703.5,-161.5 703.5,-142.5 560.5,-142.5"/>
<text text-anchor="middle" x="632" y="-149.5" font-family="Helvetica,sans-Serif" font-size="10.00" fill="#000000">MapNode::getCoordinates</text>
</a>
</g>
</g>
<!-- Node143&#45;&gt;Node147 -->
<g id="edge15" class="edge">
<title>Node143&#45;&gt;Node147</title>
<path fill="none" stroke="#191970" d="M305.6804,-185.24C375.4096,-178.1372 478.3267,-167.6537 549.8688,-160.3662"/>
<polygon fill="#191970" stroke="#191970" points="550.595,-163.8104 560.1888,-159.3149 549.8856,-156.8464 550.595,-163.8104"/>
</g>
<!-- Node148 -->
<g id="node14" class="node">
<title>Node148</title>
<g id="a_node14"><a xlink:href="classMap.html#a769a53961d4a0dd34ee080d2da8c171e" target="_top" xlink:title="Map::getElevatedNeighbor\lBitmask">
<polygon fill="none" stroke="#000000" points="356,-115 356,-145 502,-145 502,-115 356,-115"/>
<text text-anchor="start" x="364" y="-133" font-family="Helvetica,sans-Serif" font-size="10.00" fill="#000000">Map::getElevatedNeighbor</text>
<text text-anchor="middle" x="429" y="-122" font-family="Helvetica,sans-Serif" font-size="10.00" fill="#000000">Bitmask</text>
</a>
</g>
</g>
<!-- Node143&#45;&gt;Node148 -->
<g id="edge16" class="edge">
<title>Node143&#45;&gt;Node148</title>
<path fill="none" stroke="#191970" d="M259.7998,-183.4317C289.4179,-174.0786 335.2534,-159.6042 371.7514,-148.0785"/>
<polygon fill="#191970" stroke="#191970" points="372.8122,-151.414 381.294,-145.065 370.7042,-144.7389 372.8122,-151.414"/>
</g>
<!-- Node149 -->
<g id="node15" class="node">
<title>Node149</title>
<g id="a_node15"><a xlink:href="classMap.html#af192be95053d30ea6c6d9327106bf6d8" target="_top" xlink:title="Get a bitmask that represents same&#45;tile neighbors Checks all neighboring tiles and returns the elevat...">
<polygon fill="none" stroke="#000000" points="346,-76.5 346,-95.5 512,-95.5 512,-76.5 346,-76.5"/>
<text text-anchor="middle" x="429" y="-83.5" font-family="Helvetica,sans-Serif" font-size="10.00" fill="#000000">Map::calculateAutotileBitmask</text>
</a>
</g>
</g>
<!-- Node143&#45;&gt;Node149 -->
<g id="edge19" class="edge">
<title>Node143&#45;&gt;Node149</title>
<path fill="none" stroke="#191970" d="M239.4771,-183.2683C258.5327,-165.2364 302.1279,-126.5977 346,-106 352.1299,-103.122 358.7154,-100.6343 365.3987,-98.4892"/>
<polygon fill="#191970" stroke="#191970" points="366.6213,-101.7776 375.2187,-95.586 364.6367,-95.0648 366.6213,-101.7776"/>
</g>
<!-- Node144&#45;&gt;Node136 -->
<g id="edge11" class="edge">
<title>Node144&#45;&gt;Node136</title>
<path fill="none" stroke="#191970" d="M454.7101,-259.6255C490.7837,-273.1308 556.5312,-297.7457 597.0274,-312.9068"/>
<polygon fill="#191970" stroke="#191970" points="595.9063,-316.2243 606.4987,-316.4527 598.3607,-309.6686 595.9063,-316.2243"/>
</g>
<!-- Node144&#45;&gt;Node138 -->
<g id="edge12" class="edge">
<title>Node144&#45;&gt;Node138</title>
<path fill="none" stroke="#191970" d="M496.0324,-256.274C523.5395,-258.8485 554.8791,-261.7818 580.5324,-264.1828"/>
<polygon fill="#191970" stroke="#191970" points="580.5044,-267.6954 590.7871,-265.1426 581.1568,-260.7259 580.5044,-267.6954"/>
</g>
<!-- Node146 -->
<g id="node12" class="node">
<title>Node146</title>
<g id="a_node12"><a xlink:href="classMapNode.html#a10dded7848621ba007c3d3fc85392e32" target="_top" xlink:title="Change Height Increases or decrease the height of the node and its sprite This function should not be...">
<polygon fill="none" stroke="#000000" points="564,-202.5 564,-221.5 700,-221.5 700,-202.5 564,-202.5"/>
<text text-anchor="middle" x="632" y="-209.5" font-family="Helvetica,sans-Serif" font-size="10.00" fill="#000000">MapNode::changeHeight</text>
</a>
</g>
</g>
<!-- Node145&#45;&gt;Node146 -->
<g id="edge14" class="edge">
<title>Node145&#45;&gt;Node146</title>
<path fill="none" stroke="#191970" d="M483.6673,-212C505.1492,-212 530.2159,-212 553.5634,-212"/>
<polygon fill="#191970" stroke="#191970" points="553.7984,-215.5001 563.7984,-212 553.7983,-208.5001 553.7984,-215.5001"/>
</g>
<!-- Node148&#45;&gt;Node147 -->
<g id="edge17" class="edge">
<title>Node148&#45;&gt;Node147</title>
<path fill="none" stroke="#191970" d="M502.0009,-137.9114C517.5725,-139.599 534.118,-141.3921 550.0014,-143.1135"/>
<polygon fill="#191970" stroke="#191970" points="550.0077,-146.6345 560.3266,-144.2324 550.7619,-139.6753 550.0077,-146.6345"/>
</g>
<!-- Node149&#45;&gt;Node139 -->
<g id="edge20" class="edge">
<title>Node149&#45;&gt;Node139</title>
<path fill="none" stroke="#191970" d="M479.9634,-76.46C498.7205,-72.9489 520.5688,-68.859 541.7549,-64.8932"/>
<polygon fill="#191970" stroke="#191970" points="542.5707,-68.3013 551.7559,-63.0211 541.2826,-61.4209 542.5707,-68.3013"/>
</g>
<!-- Node150 -->
<g id="node16" class="node">
<title>Node150</title>
<g id="a_node16"><a xlink:href="classMapNode.html#afb1cbc0f9e987b7befced46220dd9277" target="_top" xlink:title="check if specific layer can be autotiled. ">
<polygon fill="none" stroke="#000000" points="560,-82.5 560,-101.5 704,-101.5 704,-82.5 560,-82.5"/>
<text text-anchor="middle" x="632" y="-89.5" font-family="Helvetica,sans-Serif" font-size="10.00" fill="#000000">MapNode::isLayerAutoTile</text>
</a>
</g>
</g>
<!-- Node149&#45;&gt;Node150 -->
<g id="edge21" class="edge">
<title>Node149&#45;&gt;Node150</title>
<path fill="none" stroke="#191970" d="M512.1536,-88.4577C524.4717,-88.8218 537.1628,-89.1969 549.4681,-89.5606"/>
<polygon fill="#191970" stroke="#191970" points="549.5982,-93.0659 559.6973,-89.863 549.8051,-86.069 549.5982,-93.0659"/>
</g>
<!-- Node151 -->
<g id="node17" class="node">
<title>Node151</title>
<g id="a_node17"><a xlink:href="classMapNode.html#a64cb9a4523c9e78f256fde42f1dee43d" target="_top" xlink:title="check if specific Tile Data is autotile category. ">
<polygon fill="none" stroke="#000000" points="752,-82.5 752,-101.5 892,-101.5 892,-82.5 752,-82.5"/>
<text text-anchor="middle" x="822" y="-89.5" font-family="Helvetica,sans-Serif" font-size="10.00" fill="#000000">MapNode::isDataAutoTile</text>
</a>
</g>
</g>
<!-- Node150&#45;&gt;Node151 -->
<g id="edge22" class="edge">
<title>Node150&#45;&gt;Node151</title>
<path fill="none" stroke="#191970" d="M704.1018,-92C716.3221,-92 729.0799,-92 741.4991,-92"/>
<polygon fill="#191970" stroke="#191970" points="741.8325,-95.5001 751.8324,-92 741.8324,-88.5001 741.8325,-95.5001"/>
</g>
</g>
</svg>
        <g id="navigator" transform="translate(0 0)" fill="#404254">
                <rect fill="#f2f5e9" fill-opacity="0.5" stroke="#606060" stroke-width=".5" x="0" y="0" width="60" height="60"/>
                <use id="zoomplus" xlink:href="#zoomPlus" x="17" y="9" onmousedown="handleZoom(evt,'in')"/>
                <use id="zoomminus" xlink:href="#zoomMin" x="42" y="9" onmousedown="handleZoom(evt,'out')"/>
                <use id="reset" xlink:href="#resetDef" x="30" y="36" onmousedown="handleReset()"/>
                <g id="arrowUp" xlink:href="#dirArrow" transform="translate(30 24)" onmousedown="handlePan(0,-1)">
                  <use xlink:href="#rim" fill="#404040">
                        <set attributeName="fill" to="#808080" begin="arrowUp.mouseover" end="arrowUp.mouseout"/>
                  </use>
                  <path fill="none" stroke="white" stroke-width="1.5" d="M0,-3.0v7 M-2.5,-0.5L0,-3.0L2.5,-0.5"/>
                </g>
                <g id="arrowRight" xlink:href="#dirArrow" transform="rotate(90) translate(36 -43)" onmousedown="handlePan(1,0)">
                  <use xlink:href="#rim" fill="#404040">
                        <set attributeName="fill" to="#808080" begin="arrowRight.mouseover" end="arrowRight.mouseout"/>
                  </use>
                  <path fill="none" stroke="white" stroke-width="1.5" d="M0,-3.0v7 M-2.5,-0.5L0,-3.0L2.5,-0.5"/>
                </g>
                <g id="arrowDown" xlink:href="#dirArrow" transform="rotate(180) translate(-30 -48)" onmousedown="handlePan(0,1)">
                  <use xlink:href="#rim" fill="#404040">
                        <set attributeName="fill" to="#808080" begin="arrowDown.mouseover" end="arrowDown.mouseout"/>
                  </use>
                  <path fill="none" stroke="white" stroke-width="1.5" d="M0,-3.0v7 M-2.5,-0.5L0,-3.0L2.5,-0.5"/>
                </g>
                <g id="arrowLeft" xlink:href="#dirArrow" transform="rotate(270) translate(-36 17)" onmousedown="handlePan(-1,0)">
                  <use xlink:href="#rim" fill="#404040">
                        <set attributeName="fill" to="#808080" begin="arrowLeft.mouseover" end="arrowLeft.mouseout"/>
                  </use>
                  <path fill="none" stroke="white" stroke-width="1.5" d="M0,-3.0v7 M-2.5,-0.5L0,-3.0L2.5,-0.5"/>
                </g>
        </g>
        <svg viewBox="0 0 15 15" width="100%" height="30px" preserveAspectRatio="xMaxYMin meet">
         <g id="arrow_out" transform="scale(0.3 0.3)">
          <a xlink:href="classMap_aa8cc2ed983007621bce12dd9d1b8ec5b_cgraph_org.svg" target="_base">
           <rect id="button" ry="5" rx="5" y="6" x="6" height="38" width="38"
                fill="#f2f5e9" fill-opacity="0.5" stroke="#606060" stroke-width="1.0"/>
           <path id="arrow"
             d="M 11.500037,31.436501 C 11.940474,20.09759 22.043105,11.32322 32.158766,21.979434 L 37.068811,17.246167 C 37.068811,17.246167 37.088388,32 37.088388,32 L 22.160133,31.978069 C 22.160133,31.978069 26.997745,27.140456 26.997745,27.140456 C 18.528582,18.264221 13.291696,25.230495 11.500037,31.436501 z"
             style="fill:#404040;"/>
          </a>
         </g>
        </svg>
</svg>
