<?xml version="1.0" encoding="UTF-8" standalone="no"?>
<!DOCTYPE svg PUBLIC "-//W3C//DTD SVG 1.1//EN"
 "http://www.w3.org/Graphics/SVG/1.1/DTD/svg11.dtd">
<!-- Generated by graphviz version 2.40.1 (20161225.0304)
 -->
<!-- Title: Map::getObjectCoords Pages: 1 -->
<!--zoomable 238 -->
<svg id="main" version="1.1" xmlns="http://www.w3.org/2000/svg" xmlns:xlink="http://www.w3.org/1999/xlink" xml:space="preserve" onload="init(evt)">
<style type="text/css"><![CDATA[
.edge:hover path { stroke: red; }
.edge:hover polygon { stroke: red; fill: red; }
]]></style>
<script type="text/javascript"><![CDATA[
var edges = document.getElementsByTagName('g');
if (edges && edges.length) {
  for (var i=0;i<edges.length;i++) {
    if (edges[i].id.substr(0,4)=='edge') {
      edges[i].setAttribute('class','edge');
    }
  }
}
]]></script>
        <defs>
                <circle id="rim" cx="0" cy="0" r="7"/>
                <circle id="rim2" cx="0" cy="0" r="3.5"/>
                <g id="zoomPlus">
                        <use xlink:href="#rim" fill="#404040">
                                <set attributeName="fill" to="#808080" begin="zoomplus.mouseover" end="zoomplus.mouseout"/>
                        </use>
                        <path d="M-4,0h8M0,-4v8" fill="none" stroke="white" stroke-width="1.5" pointer-events="none"/>
                </g>
                <g id="zoomMin">
                        <use xlink:href="#rim" fill="#404040">
                                <set attributeName="fill" to="#808080" begin="zoomminus.mouseover" end="zoomminus.mouseout"/>
                        </use>
                        <path d="M-4,0h8" fill="none" stroke="white" stroke-width="1.5" pointer-events="none"/>
                </g>
                <g id="dirArrow">
                        <path fill="none" stroke="white" stroke-width="1.5" d="M0,-3.0v7 M-2.5,-0.5L0,-3.0L2.5,-0.5"/>
                </g>
               <g id="resetDef">
                       <use xlink:href="#rim2" fill="#404040">
                               <set attributeName="fill" to="#808080" begin="reset.mouseover" end="reset.mouseout"/>
                       </use>
               </g>
        </defs>

<script type="text/javascript">
var viewWidth = 1833;
var viewHeight = 238;
var sectionId = 'dynsection-26';
</script>
<script xlink:href="svgpan.js"/>
<svg id="graph" class="graph">
<g id="viewport">
<title>Map::getObjectCoords</title>
<!-- Node282 -->
<g id="node1" class="node">
<title>Node282</title>
<polygon fill="#bfbfbf" stroke="#000000" points="0,-182.5584 0,-201.5584 124,-201.5584 124,-182.5584 0,-182.5584"/>
<text text-anchor="middle" x="62" y="-189.5584" font-family="Helvetica,sans-Serif" font-size="10.00" fill="#000000">Map::getObjectCoords</text>
</g>
<!-- Node283 -->
<g id="node2" class="node">
<title>Node283</title>
<g id="a_node2"><a xlink:href="classEventManager.html#a65ec91fd5016d4f9c4167fb8babed2df" target="_top" xlink:title="EventManager::checkEvents">
<polygon fill="none" stroke="#000000" points="1314,-134.5584 1314,-153.5584 1468,-153.5584 1468,-134.5584 1314,-134.5584"/>
<text text-anchor="middle" x="1391" y="-141.5584" font-family="Helvetica,sans-Serif" font-size="10.00" fill="#000000">EventManager::checkEvents</text>
</a>
</g>
</g>
<!-- Node282&#45;&gt;Node283 -->
<g id="edge1" class="edge">
<title>Node282&#45;&gt;Node283</title>
<path fill="none" stroke="#191970" d="M121.8744,-203.3562C186.5303,-214.5576 292.6811,-230.0584 385,-230.0584 385,-230.0584 385,-230.0584 1033.5,-230.0584 1138.277,-230.0584 1164.8237,-218.2902 1266,-191.0584 1303.164,-181.0556 1344.6899,-164.2631 1369.2944,-153.6921"/>
<polygon fill="#191970" stroke="#191970" points="122.3169,-199.8804 111.8623,-201.5983 121.1064,-206.7749 122.3169,-199.8804"/>
</g>
<!-- Node287 -->
<g id="node6" class="node">
<title>Node287</title>
<g id="a_node6"><a xlink:href="classMap.html#aa8cc2ed983007621bce12dd9d1b8ec5b" target="_top" xlink:title="Demolish a node This function gathers all tiles that should be demolished and invokes the nodes demol...">
<polygon fill="none" stroke="#000000" points="160,-144.5584 160,-163.5584 273,-163.5584 273,-144.5584 160,-144.5584"/>
<text text-anchor="middle" x="216.5" y="-151.5584" font-family="Helvetica,sans-Serif" font-size="10.00" fill="#000000">Map::demolishNode</text>
</a>
</g>
</g>
<!-- Node282&#45;&gt;Node287 -->
<g id="edge5" class="edge">
<title>Node282&#45;&gt;Node287</title>
<path fill="none" stroke="#191970" d="M110.9521,-180.0184C132.5365,-174.7096 157.541,-168.5596 177.7935,-163.5784"/>
<polygon fill="#191970" stroke="#191970" points="109.8615,-176.6822 100.9869,-182.4694 111.5334,-183.4797 109.8615,-176.6822"/>
</g>
<!-- Node284 -->
<g id="node3" class="node">
<title>Node284</title>
<g id="a_node3"><a xlink:href="classGame.html#a1c2ab25d5216b2f4b2fe41efd2c09114" target="_top" xlink:title="begins the game starts running the game ">
<polygon fill="none" stroke="#000000" points="1533.5,-115.5584 1533.5,-134.5584 1601.5,-134.5584 1601.5,-115.5584 1533.5,-115.5584"/>
<text text-anchor="middle" x="1567.5" y="-122.5584" font-family="Helvetica,sans-Serif" font-size="10.00" fill="#000000">Game::run</text>
</a>
</g>
</g>
<!-- Node283&#45;&gt;Node284 -->
<g id="edge2" class="edge">
<title>Node283&#45;&gt;Node284</title>
<path fill="none" stroke="#191970" d="M1478.3664,-134.6535C1497.9355,-132.5469 1517.5625,-130.4341 1533.398,-128.7294"/>
<polygon fill="#191970" stroke="#191970" points="1477.7266,-131.2021 1468.1587,-135.7524 1478.4759,-138.1619 1477.7266,-131.2021"/>
</g>
<!-- Node285 -->
<g id="node4" class="node">
<title>Node285</title>
<g id="a_node4"><a xlink:href="main_8cxx.html#af582d708d899e67ead623eac34a22387" target="_top" xlink:title="protected_main">
<polygon fill="none" stroke="#000000" points="1655,-87.5584 1655,-106.5584 1748,-106.5584 1748,-87.5584 1655,-87.5584"/>
<text text-anchor="middle" x="1701.5" y="-94.5584" font-family="Helvetica,sans-Serif" font-size="10.00" fill="#000000">protected_main</text>
</a>
</g>
</g>
<!-- Node284&#45;&gt;Node285 -->
<g id="edge3" class="edge">
<title>Node284&#45;&gt;Node285</title>
<path fill="none" stroke="#191970" d="M1611.6996,-115.8227C1625.9237,-112.8505 1641.7045,-109.553 1656.0191,-106.5619"/>
<polygon fill="#191970" stroke="#191970" points="1610.7333,-112.4489 1601.6606,-117.9204 1612.1651,-119.3009 1610.7333,-112.4489"/>
</g>
<!-- Node286 -->
<g id="node5" class="node">
<title>Node286</title>
<g id="a_node5"><a xlink:href="main_8cxx.html#a3c04138a5bfe5d72780bb7e82a18e627" target="_top" xlink:title="main">
<polygon fill="none" stroke="#000000" points="1784,-87.5584 1784,-106.5584 1825,-106.5584 1825,-87.5584 1784,-87.5584"/>
<text text-anchor="middle" x="1804.5" y="-94.5584" font-family="Helvetica,sans-Serif" font-size="10.00" fill="#000000">main</text>
</a>
</g>
</g>
<!-- Node285&#45;&gt;Node286 -->
<g id="edge4" class="edge">
<title>Node285&#45;&gt;Node286</title>
<path fill="none" stroke="#191970" d="M1758.2133,-97.0584C1767.4322,-97.0584 1776.4259,-97.0584 1783.9965,-97.0584"/>
<polygon fill="#191970" stroke="#191970" points="1758.1782,-93.5585 1748.1782,-97.0584 1758.1781,-100.5585 1758.1782,-93.5585"/>
</g>
<!-- Node287&#45;&gt;Node283 -->
<g id="edge6" class="edge">
<title>Node287&#45;&gt;Node283</title>
<path fill="none" stroke="#191970" d="M279.2241,-165.2871C347.3648,-176.4937 459.5458,-192.0584 557,-192.0584 557,-192.0584 557,-192.0584 1033.5,-192.0584 1147.9434,-192.0584 1281.1763,-167.5973 1348.0512,-153.599"/>
<polygon fill="#191970" stroke="#191970" points="279.5255,-161.7891 269.0863,-163.5983 278.3753,-168.694 279.5255,-161.7891"/>
</g>
<!-- Node288 -->
<g id="node7" class="node">
<title>Node288</title>
<g id="a_node7"><a xlink:href="classMap.html#ade1eeabf4e539f9dbfe2a96c97fda4e3" target="_top" xlink:title="Map::changeHeight">
<polygon fill="none" stroke="#000000" points="502,-125.5584 502,-144.5584 612,-144.5584 612,-125.5584 502,-125.5584"/>
<text text-anchor="middle" x="557" y="-132.5584" font-family="Helvetica,sans-Serif" font-size="10.00" fill="#000000">Map::changeHeight</text>
</a>
</g>
</g>
<!-- Node287&#45;&gt;Node288 -->
<g id="edge7" class="edge">
<title>Node287&#45;&gt;Node288</title>
<path fill="none" stroke="#191970" d="M283.4738,-150.3212C347.3394,-146.7575 442.371,-141.4547 501.9499,-138.1302"/>
<polygon fill="#191970" stroke="#191970" points="282.8983,-146.8478 273.1089,-150.8996 283.2884,-153.8369 282.8983,-146.8478"/>
</g>
<!-- Node293 -->
<g id="node12" class="node">
<title>Node293</title>
<g id="a_node12"><a xlink:href="classMap.html#af1e496c421981fe707890b0ba60cc20f" target="_top" xlink:title="Map::updateNodeNeighbors">
<polygon fill="none" stroke="#000000" points="309,-106.5584 309,-125.5584 461,-125.5584 461,-106.5584 309,-106.5584"/>
<text text-anchor="middle" x="385" y="-113.5584" font-family="Helvetica,sans-Serif" font-size="10.00" fill="#000000">Map::updateNodeNeighbors</text>
</a>
</g>
</g>
<!-- Node287&#45;&gt;Node293 -->
<g id="edge14" class="edge">
<title>Node287&#45;&gt;Node293</title>
<path fill="none" stroke="#191970" d="M248.0256,-141.5473C266.3758,-136.314 290.3056,-130.4892 313.0196,-125.6054"/>
<polygon fill="#191970" stroke="#191970" points="246.7757,-138.2672 238.1835,-144.466 248.7659,-144.9784 246.7757,-138.2672"/>
</g>
<!-- Node289 -->
<g id="node8" class="node">
<title>Node289</title>
<g id="a_node8"><a xlink:href="classMap.html#aba5154a4d917900679a3c0f7ec701561" target="_top" xlink:title="Increase Height Increases the height of the node and checks the surrounding tiles. Either draw a slope sprite or elevate the tile if necessary. ">
<polygon fill="none" stroke="#000000" points="654.5,-144.5584 654.5,-163.5584 770.5,-163.5584 770.5,-144.5584 654.5,-144.5584"/>
<text text-anchor="middle" x="712.5" y="-151.5584" font-family="Helvetica,sans-Serif" font-size="10.00" fill="#000000">Map::increaseHeight</text>
</a>
</g>
</g>
<!-- Node288&#45;&gt;Node289 -->
<g id="edge8" class="edge">
<title>Node288&#45;&gt;Node289</title>
<path fill="none" stroke="#191970" d="M622.3062,-143.0379C632.9124,-144.3339 643.8357,-145.6685 654.2589,-146.9421"/>
<polygon fill="#191970" stroke="#191970" points="622.612,-139.5493 612.2613,-141.8106 621.763,-146.4977 622.612,-139.5493"/>
</g>
<!-- Node291 -->
<g id="node10" class="node">
<title>Node291</title>
<g id="a_node10"><a xlink:href="classMap.html#afb8cc864df90d273a5074872d635dc40" target="_top" xlink:title="Decrease Height Decreases the height of the node and checks the surrounding tiles. Either draw a slope sprite or lower the tile if necessary. ">
<polygon fill="none" stroke="#000000" points="653,-106.5584 653,-125.5584 772,-125.5584 772,-106.5584 653,-106.5584"/>
<text text-anchor="middle" x="712.5" y="-113.5584" font-family="Helvetica,sans-Serif" font-size="10.00" fill="#000000">Map::decreaseHeight</text>
</a>
</g>
</g>
<!-- Node288&#45;&gt;Node291 -->
<g id="edge11" class="edge">
<title>Node288&#45;&gt;Node291</title>
<path fill="none" stroke="#191970" d="M622.2978,-127.0799C632.458,-125.8384 642.9095,-124.5614 652.9337,-123.3366"/>
<polygon fill="#191970" stroke="#191970" points="621.763,-123.6191 612.2613,-128.3062 622.612,-130.5674 621.763,-123.6191"/>
</g>
<!-- Node290 -->
<g id="node9" class="node">
<title>Node290</title>
<g id="a_node9"><a xlink:href="classEngine.html#a4851ae1ff696c893741167fc0194fd77" target="_top" xlink:title="Increase Height Increases the height of the given map node Calls the according function of the Map ob...">
<polygon fill="none" stroke="#000000" points="969,-144.5584 969,-163.5584 1098,-163.5584 1098,-144.5584 969,-144.5584"/>
<text text-anchor="middle" x="1033.5" y="-151.5584" font-family="Helvetica,sans-Serif" font-size="10.00" fill="#000000">Engine::increaseHeight</text>
</a>
</g>
</g>
<!-- Node289&#45;&gt;Node290 -->
<g id="edge9" class="edge">
<title>Node289&#45;&gt;Node290</title>
<path fill="none" stroke="#191970" d="M780.742,-154.0584C836.3447,-154.0584 914.3155,-154.0584 968.9082,-154.0584"/>
<polygon fill="#191970" stroke="#191970" points="780.6307,-150.5585 770.6307,-154.0584 780.6306,-157.5585 780.6307,-150.5585"/>
</g>
<!-- Node290&#45;&gt;Node283 -->
<g id="edge10" class="edge">
<title>Node290&#45;&gt;Node283</title>
<path fill="none" stroke="#191970" d="M1108.4541,-151.9618C1168.752,-150.2751 1253.1622,-147.914 1313.9976,-146.2123"/>
<polygon fill="#191970" stroke="#191970" points="1108.1387,-148.4691 1098.2406,-152.2475 1108.3345,-155.4664 1108.1387,-148.4691"/>
</g>
<!-- Node292 -->
<g id="node11" class="node">
<title>Node292</title>
<g id="a_node11"><a xlink:href="classEngine.html#a13572fdd7f6470dca48a14497f58980e" target="_top" xlink:title="Decrease Height Decreases the height of the given map node Calls the according function of the Map ob...">
<polygon fill="none" stroke="#000000" points="1134,-106.5584 1134,-125.5584 1266,-125.5584 1266,-106.5584 1134,-106.5584"/>
<text text-anchor="middle" x="1200" y="-113.5584" font-family="Helvetica,sans-Serif" font-size="10.00" fill="#000000">Engine::decreaseHeight</text>
</a>
</g>
</g>
<!-- Node291&#45;&gt;Node292 -->
<g id="edge12" class="edge">
<title>Node291&#45;&gt;Node292</title>
<path fill="none" stroke="#191970" d="M782.5299,-116.0584C876.451,-116.0584 1042.0114,-116.0584 1133.8891,-116.0584"/>
<polygon fill="#191970" stroke="#191970" points="782.2771,-112.5585 772.2771,-116.0584 782.277,-119.5585 782.2771,-112.5585"/>
</g>
<!-- Node292&#45;&gt;Node283 -->
<g id="edge13" class="edge">
<title>Node292&#45;&gt;Node283</title>
<path fill="none" stroke="#191970" d="M1275.2313,-127.0871C1291.9879,-129.5435 1309.6172,-132.1279 1325.9248,-134.5186"/>
<polygon fill="#191970" stroke="#191970" points="1275.3323,-123.5645 1264.9304,-125.577 1274.317,-130.4905 1275.3323,-123.5645"/>
</g>
<!-- Node293&#45;&gt;Node287 -->
<g id="edge29" class="edge">
<title>Node293&#45;&gt;Node287</title>
<path fill="none" stroke="#191970" d="M353.6083,-128.5313C331.0246,-134.9779 299.9395,-142.3288 273.0768,-147.7146"/>
<polygon fill="#191970" stroke="#191970" points="354.7496,-131.8435 363.3407,-125.6433 352.7582,-125.1328 354.7496,-131.8435"/>
</g>
<!-- Node293&#45;&gt;Node288 -->
<g id="edge15" class="edge">
<title>Node293&#45;&gt;Node288</title>
<path fill="none" stroke="#191970" d="M471.1553,-125.5755C481.5662,-126.7256 491.9739,-127.8753 501.7684,-128.9572"/>
<polygon fill="#191970" stroke="#191970" points="471.5167,-122.0943 461.1928,-124.475 470.7481,-129.0519 471.5167,-122.0943"/>
</g>
<!-- Node294 -->
<g id="node13" class="node">
<title>Node294</title>
<g id="a_node13"><a xlink:href="classMap.html#a481b37ba71ef0e51e836fc42805762dd" target="_top" xlink:title="Update all mapNodes Updates all mapNode and its adjacent tiles regarding height information, draws slopes for adjacent tiles and sets tiling for mapNode sprite if applicable. ">
<polygon fill="none" stroke="#000000" points="497,-68.5584 497,-87.5584 617,-87.5584 617,-68.5584 497,-68.5584"/>
<text text-anchor="middle" x="557" y="-75.5584" font-family="Helvetica,sans-Serif" font-size="10.00" fill="#000000">Map::updateAllNodes</text>
</a>
</g>
</g>
<!-- Node293&#45;&gt;Node294 -->
<g id="edge16" class="edge">
<title>Node293&#45;&gt;Node294</title>
<path fill="none" stroke="#191970" d="M438.1959,-104.3058C462.5166,-98.9326 490.9547,-92.6498 513.9092,-87.5784"/>
<polygon fill="#191970" stroke="#191970" points="437.4123,-100.8944 428.4029,-106.4694 438.9225,-107.7296 437.4123,-100.8944"/>
</g>
<!-- Node295 -->
<g id="node14" class="node">
<title>Node295</title>
<g id="a_node14"><a xlink:href="classMap.html#a26eceeccd7b6ed693909b1927a25c67a" target="_top" xlink:title="Map::Map">
<polygon fill="none" stroke="#000000" points="681,-68.5584 681,-87.5584 744,-87.5584 744,-68.5584 681,-68.5584"/>
<text text-anchor="middle" x="712.5" y="-75.5584" font-family="Helvetica,sans-Serif" font-size="10.00" fill="#000000">Map::Map</text>
</a>
</g>
</g>
<!-- Node294&#45;&gt;Node295 -->
<g id="edge17" class="edge">
<title>Node294&#45;&gt;Node295</title>
<path fill="none" stroke="#191970" d="M627.1506,-78.0584C645.9085,-78.0584 665.262,-78.0584 680.7876,-78.0584"/>
<polygon fill="#191970" stroke="#191970" points="627.1204,-74.5585 617.1204,-78.0584 627.1203,-81.5585 627.1204,-74.5585"/>
</g>
<!-- Node296 -->
<g id="node15" class="node">
<title>Node296</title>
<g id="a_node15"><a xlink:href="classMap.html#afefe996cc1f62b61ec60d0ae415953bf" target="_top" xlink:title="Map::loadMapFromFile">
<polygon fill="none" stroke="#000000" points="808,-30.5584 808,-49.5584 933,-49.5584 933,-30.5584 808,-30.5584"/>
<text text-anchor="middle" x="870.5" y="-37.5584" font-family="Helvetica,sans-Serif" font-size="10.00" fill="#000000">Map::loadMapFromFile</text>
</a>
</g>
</g>
<!-- Node294&#45;&gt;Node296 -->
<g id="edge28" class="edge">
<title>Node294&#45;&gt;Node296</title>
<path fill="none" stroke="#191970" d="M609.7971,-66.5431C623.7907,-63.7838 638.9232,-61.0603 653,-59.0584 704.9744,-51.6671 764.3727,-46.7121 807.9492,-43.7208"/>
<polygon fill="#191970" stroke="#191970" points="608.9522,-63.143 599.8403,-68.5489 610.3346,-70.0051 608.9522,-63.143"/>
</g>
<!-- Node295&#45;&gt;Node296 -->
<g id="edge18" class="edge">
<title>Node295&#45;&gt;Node296</title>
<path fill="none" stroke="#191970" d="M753.8821,-68.1057C777.6505,-62.3893 807.3456,-55.2474 830.8219,-49.6012"/>
<polygon fill="#191970" stroke="#191970" points="752.9982,-64.7184 744.0939,-70.4599 754.6351,-71.5244 752.9982,-64.7184"/>
</g>
<!-- Node297 -->
<g id="node16" class="node">
<title>Node297</title>
<g id="a_node16"><a xlink:href="classEngine.html#a83b7dbeee899b36a13d5b07c7ad87ebc" target="_top" xlink:title="Loads a saved game Loads a saved Game. ">
<polygon fill="none" stroke="#000000" points="980.5,-30.5584 980.5,-49.5584 1086.5,-49.5584 1086.5,-30.5584 980.5,-30.5584"/>
<text text-anchor="middle" x="1033.5" y="-37.5584" font-family="Helvetica,sans-Serif" font-size="10.00" fill="#000000">Engine::loadGame</text>
</a>
</g>
</g>
<!-- Node296&#45;&gt;Node297 -->
<g id="edge19" class="edge">
<title>Node296&#45;&gt;Node297</title>
<path fill="none" stroke="#191970" d="M943.4208,-40.0584C955.8687,-40.0584 968.5866,-40.0584 980.3955,-40.0584"/>
<polygon fill="#191970" stroke="#191970" points="943.0539,-36.5585 933.0539,-40.0584 943.0539,-43.5585 943.0539,-36.5585"/>
</g>
<!-- Node298 -->
<g id="node17" class="node">
<title>Node298</title>
<g id="a_node17"><a xlink:href="classEngine.html#a0ba57971ffb5173ecc425461f65a4cd8" target="_top" xlink:title="Quits the game Sets m_running to false and quitting the game. ">
<polygon fill="none" stroke="#000000" points="1148,-68.5584 1148,-87.5584 1252,-87.5584 1252,-68.5584 1148,-68.5584"/>
<text text-anchor="middle" x="1200" y="-75.5584" font-family="Helvetica,sans-Serif" font-size="10.00" fill="#000000">Engine::quitGame</text>
</a>
</g>
</g>
<!-- Node297&#45;&gt;Node298 -->
<g id="edge20" class="edge">
<title>Node297&#45;&gt;Node298</title>
<path fill="none" stroke="#191970" d="M1085.309,-51.8827C1108.7825,-57.24 1136.1654,-63.4895 1158.2871,-68.5383"/>
<polygon fill="#191970" stroke="#191970" points="1086.0431,-48.4603 1075.515,-49.6474 1084.4855,-55.2848 1086.0431,-48.4603"/>
</g>
<!-- Node299 -->
<g id="node18" class="node">
<title>Node299</title>
<g id="a_node18"><a xlink:href="classUIManager.html#aa78e356fc3b356d790c848319d1c387e" target="_top" xlink:title="UIManager::setCallbackFunctions">
<polygon fill="none" stroke="#000000" points="1302,-30.5584 1302,-49.5584 1480,-49.5584 1480,-30.5584 1302,-30.5584"/>
<text text-anchor="middle" x="1391" y="-37.5584" font-family="Helvetica,sans-Serif" font-size="10.00" fill="#000000">UIManager::setCallbackFunctions</text>
</a>
</g>
</g>
<!-- Node297&#45;&gt;Node299 -->
<g id="edge26" class="edge">
<title>Node297&#45;&gt;Node299</title>
<path fill="none" stroke="#191970" d="M1096.9417,-40.0584C1153.8953,-40.0584 1238.0959,-40.0584 1301.8182,-40.0584"/>
<polygon fill="#191970" stroke="#191970" points="1096.6354,-36.5585 1086.6353,-40.0584 1096.6353,-43.5585 1096.6354,-36.5585"/>
</g>
<!-- Node301 -->
<g id="node20" class="node">
<title>Node301</title>
<g id="a_node20"><a xlink:href="classGame.html#a560299f0291c281f7b44e7ef0dd7b264" target="_top" xlink:title="initializes and displays the main menu initializes and displays the main menu ">
<polygon fill="none" stroke="#000000" points="1516,-68.5584 1516,-87.5584 1619,-87.5584 1619,-68.5584 1516,-68.5584"/>
<text text-anchor="middle" x="1567.5" y="-75.5584" font-family="Helvetica,sans-Serif" font-size="10.00" fill="#000000">Game::mainMenu</text>
</a>
</g>
</g>
<!-- Node297&#45;&gt;Node301 -->
<g id="edge27" class="edge">
<title>Node297&#45;&gt;Node301</title>
<path fill="none" stroke="#191970" d="M1080.5242,-28.2186C1163.2887,-9.5212 1339.5229,20.6614 1480,-21.0584 1511.2834,-30.3491 1541.8332,-54.7547 1557.215,-68.4267"/>
<polygon fill="#191970" stroke="#191970" points="1079.623,-24.8345 1070.6653,-30.4922 1081.1961,-31.6555 1079.623,-24.8345"/>
</g>
<!-- Node298&#45;&gt;Node283 -->
<g id="edge21" class="edge">
<title>Node298&#45;&gt;Node283</title>
<path fill="none" stroke="#191970" d="M1244.7032,-90.4066C1251.8551,-92.5316 1259.1523,-94.7893 1266,-97.0584 1301.6529,-108.8723 1342.239,-124.5555 1367.2375,-134.48"/>
<polygon fill="#191970" stroke="#191970" points="1245.6768,-87.0447 1235.0966,-87.6024 1243.7153,-93.7643 1245.6768,-87.0447"/>
</g>
<!-- Node298&#45;&gt;Node299 -->
<g id="edge22" class="edge">
<title>Node298&#45;&gt;Node299</title>
<path fill="none" stroke="#191970" d="M1258.3531,-66.4489C1285.5176,-61.0444 1317.4324,-54.6949 1343.1492,-49.5784"/>
<polygon fill="#191970" stroke="#191970" points="1257.3222,-63.0853 1248.1974,-68.4694 1258.6881,-69.9507 1257.3222,-63.0853"/>
</g>
<!-- Node300 -->
<g id="node19" class="node">
<title>Node300</title>
<g id="a_node19"><a xlink:href="classGame.html#a8272be134d16c277bb014ad6a22fc357" target="_top" xlink:title="Game::quit">
<polygon fill="none" stroke="#000000" points="1355.5,-68.5584 1355.5,-87.5584 1426.5,-87.5584 1426.5,-68.5584 1355.5,-68.5584"/>
<text text-anchor="middle" x="1391" y="-75.5584" font-family="Helvetica,sans-Serif" font-size="10.00" fill="#000000">Game::quit</text>
</a>
</g>
</g>
<!-- Node298&#45;&gt;Node300 -->
<g id="edge23" class="edge">
<title>Node298&#45;&gt;Node300</title>
<path fill="none" stroke="#191970" d="M1262.4322,-78.0584C1293.2881,-78.0584 1329.3982,-78.0584 1355.4801,-78.0584"/>
<polygon fill="#191970" stroke="#191970" points="1262.1916,-74.5585 1252.1916,-78.0584 1262.1916,-81.5585 1262.1916,-74.5585"/>
</g>
<!-- Node300&#45;&gt;Node301 -->
<g id="edge24" class="edge">
<title>Node300&#45;&gt;Node301</title>
<path fill="none" stroke="#191970" d="M1437.0403,-78.0584C1461.1836,-78.0584 1490.8403,-78.0584 1515.7739,-78.0584"/>
<polygon fill="#191970" stroke="#191970" points="1436.7174,-74.5585 1426.7174,-78.0584 1436.7174,-81.5585 1436.7174,-74.5585"/>
</g>
<!-- Node301&#45;&gt;Node285 -->
<g id="edge25" class="edge">
<title>Node301&#45;&gt;Node285</title>
<path fill="none" stroke="#191970" d="M1629.2457,-86.8134C1637.7846,-88.0241 1646.438,-89.2511 1654.6465,-90.415"/>
<polygon fill="#191970" stroke="#191970" points="1629.7003,-83.3429 1619.3079,-85.4043 1628.7175,-90.2736 1629.7003,-83.3429"/>
</g>
</g>
</svg>
        <g id="navigator" transform="translate(0 0)" fill="#404254">
                <rect fill="#f2f5e9" fill-opacity="0.5" stroke="#606060" stroke-width=".5" x="0" y="0" width="60" height="60"/>
                <use id="zoomplus" xlink:href="#zoomPlus" x="17" y="9" onmousedown="handleZoom(evt,'in')"/>
                <use id="zoomminus" xlink:href="#zoomMin" x="42" y="9" onmousedown="handleZoom(evt,'out')"/>
                <use id="reset" xlink:href="#resetDef" x="30" y="36" onmousedown="handleReset()"/>
                <g id="arrowUp" xlink:href="#dirArrow" transform="translate(30 24)" onmousedown="handlePan(0,-1)">
                  <use xlink:href="#rim" fill="#404040">
                        <set attributeName="fill" to="#808080" begin="arrowUp.mouseover" end="arrowUp.mouseout"/>
                  </use>
                  <path fill="none" stroke="white" stroke-width="1.5" d="M0,-3.0v7 M-2.5,-0.5L0,-3.0L2.5,-0.5"/>
                </g>
                <g id="arrowRight" xlink:href="#dirArrow" transform="rotate(90) translate(36 -43)" onmousedown="handlePan(1,0)">
                  <use xlink:href="#rim" fill="#404040">
                        <set attributeName="fill" to="#808080" begin="arrowRight.mouseover" end="arrowRight.mouseout"/>
                  </use>
                  <path fill="none" stroke="white" stroke-width="1.5" d="M0,-3.0v7 M-2.5,-0.5L0,-3.0L2.5,-0.5"/>
                </g>
                <g id="arrowDown" xlink:href="#dirArrow" transform="rotate(180) translate(-30 -48)" onmousedown="handlePan(0,1)">
                  <use xlink:href="#rim" fill="#404040">
                        <set attributeName="fill" to="#808080" begin="arrowDown.mouseover" end="arrowDown.mouseout"/>
                  </use>
                  <path fill="none" stroke="white" stroke-width="1.5" d="M0,-3.0v7 M-2.5,-0.5L0,-3.0L2.5,-0.5"/>
                </g>
                <g id="arrowLeft" xlink:href="#dirArrow" transform="rotate(270) translate(-36 17)" onmousedown="handlePan(-1,0)">
                  <use xlink:href="#rim" fill="#404040">
                        <set attributeName="fill" to="#808080" begin="arrowLeft.mouseover" end="arrowLeft.mouseout"/>
                  </use>
                  <path fill="none" stroke="white" stroke-width="1.5" d="M0,-3.0v7 M-2.5,-0.5L0,-3.0L2.5,-0.5"/>
                </g>
        </g>
        <svg viewBox="0 0 15 15" width="100%" height="30px" preserveAspectRatio="xMaxYMin meet">
         <g id="arrow_out" transform="scale(0.3 0.3)">
          <a xlink:href="classMap_a3952b445c55efce61c1ccac6f362fe89_icgraph_org.svg" target="_base">
           <rect id="button" ry="5" rx="5" y="6" x="6" height="38" width="38"
                fill="#f2f5e9" fill-opacity="0.5" stroke="#606060" stroke-width="1.0"/>
           <path id="arrow"
             d="M 11.500037,31.436501 C 11.940474,20.09759 22.043105,11.32322 32.158766,21.979434 L 37.068811,17.246167 C 37.068811,17.246167 37.088388,32 37.088388,32 L 22.160133,31.978069 C 22.160133,31.978069 26.997745,27.140456 26.997745,27.140456 C 18.528582,18.264221 13.291696,25.230495 11.500037,31.436501 z"
             style="fill:#404040;"/>
          </a>
         </g>
        </svg>
</svg>
