<?xml version="1.0" encoding="UTF-8" standalone="no"?>
<!DOCTYPE svg PUBLIC "-//W3C//DTD SVG 1.1//EN"
 "http://www.w3.org/Graphics/SVG/1.1/DTD/svg11.dtd">
<!-- Generated by graphviz version 2.40.1 (20161225.0304)
 -->
<!-- Title: TileManager::calculateTileOrientation Pages: 1 -->
<svg width="1333pt" height="123pt"
 viewBox="0.00 0.00 1333.00 123.00" xmlns="http://www.w3.org/2000/svg" xmlns:xlink="http://www.w3.org/1999/xlink">
<g id="graph0" class="graph" transform="scale(1 1) rotate(0) translate(4 119)">
<title>TileManager::calculateTileOrientation</title>
<!-- Node43 -->
<g id="node1" class="node">
<title>Node43</title>
<polygon fill="#bfbfbf" stroke="#000000" points="0,-52 0,-82 145,-82 145,-52 0,-52"/>
<text text-anchor="start" x="8" y="-70" font-family="Helvetica,sans-Serif" font-size="10.00" fill="#000000">TileManager::calculateTile</text>
<text text-anchor="middle" x="72.5" y="-59" font-family="Helvetica,sans-Serif" font-size="10.00" fill="#000000">Orientation</text>
</g>
<!-- Node44 -->
<g id="node2" class="node">
<title>Node44</title>
<g id="a_node2"><a xlink:href="classMapNode.html#aabbb10c19ddd79e9c519eb4af5e995e0" target="_top" xlink:title="Update texture. ">
<polygon fill="none" stroke="#000000" points="181,-57.5 181,-76.5 319,-76.5 319,-57.5 181,-57.5"/>
<text text-anchor="middle" x="250" y="-64.5" font-family="Helvetica,sans-Serif" font-size="10.00" fill="#000000">MapNode::updateTexture</text>
</a>
</g>
</g>
<!-- Node43&#45;&gt;Node44 -->
<g id="edge1" class="edge">
<title>Node43&#45;&gt;Node44</title>
<path fill="none" stroke="#191970" d="M155.2174,-67C163.7898,-67 172.4375,-67 180.8388,-67"/>
<polygon fill="#191970" stroke="#191970" points="155.2082,-63.5001 145.2082,-67 155.2082,-70.5001 155.2082,-63.5001"/>
</g>
<!-- Node45 -->
<g id="node3" class="node">
<title>Node45</title>
<g id="a_node3"><a xlink:href="classMapNode.html#ae515fc96b543bf97237bfb1ca53fe571" target="_top" xlink:title="MapNode::MapNode">
<polygon fill="none" stroke="#000000" points="534.5,-95.5 534.5,-114.5 648.5,-114.5 648.5,-95.5 534.5,-95.5"/>
<text text-anchor="middle" x="591.5" y="-102.5" font-family="Helvetica,sans-Serif" font-size="10.00" fill="#000000">MapNode::MapNode</text>
</a>
</g>
</g>
<!-- Node44&#45;&gt;Node45 -->
<g id="edge2" class="edge">
<title>Node44&#45;&gt;Node45</title>
<path fill="none" stroke="#191970" d="M279.1224,-80.6421C299.7885,-89.5438 328.4605,-100.3453 355,-105 415.4604,-115.6039 485.9604,-113.8228 534.1547,-110.5056"/>
<polygon fill="#191970" stroke="#191970" points="280.5078,-77.4278 269.9464,-76.5876 277.6787,-83.8307 280.5078,-77.4278"/>
</g>
<!-- Node46 -->
<g id="node4" class="node">
<title>Node46</title>
<g id="a_node4"><a xlink:href="classMapNode.html#a92b521fa20e0a75d81523a52ba1d8250" target="_top" xlink:title="MapNode::setBitmask">
<polygon fill="none" stroke="#000000" points="362.5,-76.5 362.5,-95.5 486.5,-95.5 486.5,-76.5 362.5,-76.5"/>
<text text-anchor="middle" x="424.5" y="-83.5" font-family="Helvetica,sans-Serif" font-size="10.00" fill="#000000">MapNode::setBitmask</text>
</a>
</g>
</g>
<!-- Node44&#45;&gt;Node46 -->
<g id="edge3" class="edge">
<title>Node44&#45;&gt;Node46</title>
<path fill="none" stroke="#191970" d="M329.3436,-75.6391C340.4451,-76.8479 351.7186,-78.0754 362.4375,-79.2425"/>
<polygon fill="#191970" stroke="#191970" points="329.5378,-72.1397 319.2177,-74.5366 328.78,-79.0985 329.5378,-72.1397"/>
</g>
<!-- Node47 -->
<g id="node5" class="node">
<title>Node47</title>
<g id="a_node5"><a xlink:href="classMapNode.html#a26e55c94192a56990f8a59e7af139a73" target="_top" xlink:title="MapNode::setTileID">
<polygon fill="none" stroke="#000000" points="368.5,-38.5 368.5,-57.5 480.5,-57.5 480.5,-38.5 368.5,-38.5"/>
<text text-anchor="middle" x="424.5" y="-45.5" font-family="Helvetica,sans-Serif" font-size="10.00" fill="#000000">MapNode::setTileID</text>
</a>
</g>
</g>
<!-- Node44&#45;&gt;Node47 -->
<g id="edge4" class="edge">
<title>Node44&#45;&gt;Node47</title>
<path fill="none" stroke="#191970" d="M329.2213,-58.3742C342.392,-56.9401 355.8088,-55.4793 368.2575,-54.1238"/>
<polygon fill="#191970" stroke="#191970" points="328.78,-54.9015 319.2177,-59.4634 329.5378,-61.8603 328.78,-54.9015"/>
</g>
<!-- Node54 -->
<g id="node12" class="node">
<title>Node54</title>
<g id="a_node12"><a xlink:href="classMapNode.html#a002b868485074599fbf087fc4c96b2c9" target="_top" xlink:title="Demolish a node Removes all tiles on a node. This effects all layers where something to demolish is p...">
<polygon fill="none" stroke="#000000" points="355,-.5 355,-19.5 494,-19.5 494,-.5 355,-.5"/>
<text text-anchor="middle" x="424.5" y="-7.5" font-family="Helvetica,sans-Serif" font-size="10.00" fill="#000000">MapNode::demolishNode</text>
</a>
</g>
</g>
<!-- Node44&#45;&gt;Node54 -->
<g id="edge12" class="edge">
<title>Node44&#45;&gt;Node54</title>
<path fill="none" stroke="#191970" d="M284.3286,-53.7868C304.7244,-46.1347 331.1787,-36.5532 355,-29 365.4928,-25.6729 376.9843,-22.3881 387.5479,-19.5096"/>
<polygon fill="#191970" stroke="#191970" points="282.9588,-50.5627 274.8409,-57.3709 285.4326,-57.1111 282.9588,-50.5627"/>
</g>
<!-- Node47&#45;&gt;Node45 -->
<g id="edge5" class="edge">
<title>Node47&#45;&gt;Node45</title>
<path fill="none" stroke="#191970" d="M471.8807,-60.2375C479.322,-62.3649 486.8981,-64.6524 494,-67 520.0465,-75.6098 549.288,-87.2835 568.8935,-95.4112"/>
<polygon fill="#191970" stroke="#191970" points="472.8002,-56.8604 462.2273,-57.5414 470.9172,-63.6024 472.8002,-56.8604"/>
</g>
<!-- Node48 -->
<g id="node6" class="node">
<title>Node48</title>
<g id="a_node6"><a xlink:href="classMap.html#a404c38b33d61f8c63ce2c2efb864d6dd" target="_top" xlink:title="Set the Tile ID Of Node object Also invokes all necessary texture updates (auto&#45;tiling, slopes, ...) ">
<polygon fill="none" stroke="#000000" points="530,-38.5 530,-57.5 653,-57.5 653,-38.5 530,-38.5"/>
<text text-anchor="middle" x="591.5" y="-45.5" font-family="Helvetica,sans-Serif" font-size="10.00" fill="#000000">Map::setTileIDOfNode</text>
</a>
</g>
</g>
<!-- Node47&#45;&gt;Node48 -->
<g id="edge6" class="edge">
<title>Node47&#45;&gt;Node48</title>
<path fill="none" stroke="#191970" d="M490.7595,-48C503.645,-48 517.1033,-48 529.8334,-48"/>
<polygon fill="#191970" stroke="#191970" points="490.5732,-44.5001 480.5732,-48 490.5731,-51.5001 490.5732,-44.5001"/>
</g>
<!-- Node49 -->
<g id="node7" class="node">
<title>Node49</title>
<g id="a_node7"><a xlink:href="classEngine.html#a7a1521fd7fc731f961ebaf3f723127d9" target="_top" xlink:title="Engine::setTileIDOfNode">
<polygon fill="none" stroke="#000000" points="689,-38.5 689,-57.5 825,-57.5 825,-38.5 689,-38.5"/>
<text text-anchor="middle" x="757" y="-45.5" font-family="Helvetica,sans-Serif" font-size="10.00" fill="#000000">Engine::setTileIDOfNode</text>
</a>
</g>
</g>
<!-- Node48&#45;&gt;Node49 -->
<g id="edge7" class="edge">
<title>Node48&#45;&gt;Node49</title>
<path fill="none" stroke="#191970" d="M663.3736,-48C671.858,-48 680.4976,-48 688.9273,-48"/>
<polygon fill="#191970" stroke="#191970" points="663.1261,-44.5001 653.1261,-48 663.1261,-51.5001 663.1261,-44.5001"/>
</g>
<!-- Node50 -->
<g id="node8" class="node">
<title>Node50</title>
<g id="a_node8"><a xlink:href="classEventManager.html#a65ec91fd5016d4f9c4167fb8babed2df" target="_top" xlink:title="EventManager::checkEvents">
<polygon fill="none" stroke="#000000" points="861,-38.5 861,-57.5 1015,-57.5 1015,-38.5 861,-38.5"/>
<text text-anchor="middle" x="938" y="-45.5" font-family="Helvetica,sans-Serif" font-size="10.00" fill="#000000">EventManager::checkEvents</text>
</a>
</g>
</g>
<!-- Node49&#45;&gt;Node50 -->
<g id="edge8" class="edge">
<title>Node49&#45;&gt;Node50</title>
<path fill="none" stroke="#191970" d="M835.3623,-48C843.7925,-48 852.3658,-48 860.7824,-48"/>
<polygon fill="#191970" stroke="#191970" points="835.1705,-44.5001 825.1704,-48 835.1704,-51.5001 835.1705,-44.5001"/>
</g>
<!-- Node51 -->
<g id="node9" class="node">
<title>Node51</title>
<g id="a_node9"><a xlink:href="classGame.html#a1c2ab25d5216b2f4b2fe41efd2c09114" target="_top" xlink:title="begins the game starts running the game ">
<polygon fill="none" stroke="#000000" points="1051,-38.5 1051,-57.5 1119,-57.5 1119,-38.5 1051,-38.5"/>
<text text-anchor="middle" x="1085" y="-45.5" font-family="Helvetica,sans-Serif" font-size="10.00" fill="#000000">Game::run</text>
</a>
</g>
</g>
<!-- Node50&#45;&gt;Node51 -->
<g id="edge9" class="edge">
<title>Node50&#45;&gt;Node51</title>
<path fill="none" stroke="#191970" d="M1025.5248,-48C1034.4338,-48 1043.0572,-48 1050.845,-48"/>
<polygon fill="#191970" stroke="#191970" points="1025.3744,-44.5001 1015.3744,-48 1025.3743,-51.5001 1025.3744,-44.5001"/>
</g>
<!-- Node52 -->
<g id="node10" class="node">
<title>Node52</title>
<g id="a_node10"><a xlink:href="main_8cxx.html#af582d708d899e67ead623eac34a22387" target="_top" xlink:title="protected_main">
<polygon fill="none" stroke="#000000" points="1155,-38.5 1155,-57.5 1248,-57.5 1248,-38.5 1155,-38.5"/>
<text text-anchor="middle" x="1201.5" y="-45.5" font-family="Helvetica,sans-Serif" font-size="10.00" fill="#000000">protected_main</text>
</a>
</g>
</g>
<!-- Node51&#45;&gt;Node52 -->
<g id="edge10" class="edge">
<title>Node51&#45;&gt;Node52</title>
<path fill="none" stroke="#191970" d="M1129.2653,-48C1137.5757,-48 1146.2897,-48 1154.6749,-48"/>
<polygon fill="#191970" stroke="#191970" points="1129.0098,-44.5001 1119.0098,-48 1129.0098,-51.5001 1129.0098,-44.5001"/>
</g>
<!-- Node53 -->
<g id="node11" class="node">
<title>Node53</title>
<g id="a_node11"><a xlink:href="main_8cxx.html#a3c04138a5bfe5d72780bb7e82a18e627" target="_top" xlink:title="main">
<polygon fill="none" stroke="#000000" points="1284,-38.5 1284,-57.5 1325,-57.5 1325,-38.5 1284,-38.5"/>
<text text-anchor="middle" x="1304.5" y="-45.5" font-family="Helvetica,sans-Serif" font-size="10.00" fill="#000000">main</text>
</a>
</g>
</g>
<!-- Node52&#45;&gt;Node53 -->
<g id="edge11" class="edge">
<title>Node52&#45;&gt;Node53</title>
<path fill="none" stroke="#191970" d="M1258.2133,-48C1267.4322,-48 1276.4259,-48 1283.9965,-48"/>
<polygon fill="#191970" stroke="#191970" points="1258.1782,-44.5001 1248.1782,-48 1258.1781,-51.5001 1258.1782,-44.5001"/>
</g>
</g>
</svg>
