<?xml version="1.0" encoding="UTF-8" standalone="no"?>
<!DOCTYPE svg PUBLIC "-//W3C//DTD SVG 1.1//EN"
 "http://www.w3.org/Graphics/SVG/1.1/DTD/svg11.dtd">
<!-- Generated by graphviz version 2.40.1 (20161225.0304)
 -->
<!-- Title: MapNode::MapNode Pages: 1 -->
<svg width="821pt" height="363pt"
 viewBox="0.00 0.00 821.00 363.00" xmlns="http://www.w3.org/2000/svg" xmlns:xlink="http://www.w3.org/1999/xlink">
<g id="graph0" class="graph" transform="scale(1 1) rotate(0) translate(4 359)">
<title>MapNode::MapNode</title>
<!-- Node0 -->
<g id="node1" class="node">
<title>Node0</title>
<polygon fill="#bfbfbf" stroke="#000000" points="0,-183.5 0,-202.5 114,-202.5 114,-183.5 0,-183.5"/>
<text text-anchor="middle" x="57" y="-190.5" font-family="Helvetica,sans-Serif" font-size="10.00" fill="#000000">MapNode::MapNode</text>
</g>
<!-- Node1 -->
<g id="node2" class="node">
<title>Node1</title>
<g id="a_node2"><a xlink:href="classMapNode.html#a26e55c94192a56990f8a59e7af139a73" target="_top" xlink:title="MapNode::setTileID">
<polygon fill="none" stroke="#000000" points="150,-221.5 150,-240.5 262,-240.5 262,-221.5 150,-221.5"/>
<text text-anchor="middle" x="206" y="-228.5" font-family="Helvetica,sans-Serif" font-size="10.00" fill="#000000">MapNode::setTileID</text>
</a>
</g>
</g>
<!-- Node0&#45;&gt;Node1 -->
<g id="edge1" class="edge">
<title>Node0&#45;&gt;Node1</title>
<path fill="none" stroke="#191970" d="M94.599,-202.589C114.084,-207.5583 138.0745,-213.6767 158.7958,-218.9613"/>
<polygon fill="#191970" stroke="#191970" points="158.1166,-222.4001 168.6714,-221.4799 159.8465,-215.6172 158.1166,-222.4001"/>
</g>
<!-- Node2 -->
<g id="node3" class="node">
<title>Node2</title>
<g id="a_node3"><a xlink:href="classSingleton.html#af5cb1e5749949e2b68416cfb8d378044" target="_top" xlink:title="Get an instance of the singleton. ">
<polygon fill="none" stroke="#000000" points="493,-175 493,-205 627,-205 627,-175 493,-175"/>
<text text-anchor="start" x="501" y="-193" font-family="Helvetica,sans-Serif" font-size="10.00" fill="#000000">Singleton&lt; TileManager</text>
<text text-anchor="middle" x="560" y="-182" font-family="Helvetica,sans-Serif" font-size="10.00" fill="#000000"> &gt;::instance</text>
</a>
</g>
</g>
<!-- Node0&#45;&gt;Node2 -->
<g id="edge18" class="edge">
<title>Node0&#45;&gt;Node2</title>
<path fill="none" stroke="#191970" d="M114.2108,-192.6588C204.7013,-192.1191 380.9926,-191.0676 482.6668,-190.4612"/>
<polygon fill="#191970" stroke="#191970" points="482.8929,-193.96 492.8718,-190.4004 482.8511,-186.9602 482.8929,-193.96"/>
</g>
<!-- Node4 -->
<g id="node5" class="node">
<title>Node4</title>
<g id="a_node5"><a xlink:href="classTileManager.html#a105151a0c336807e918aff002ffd6101" target="_top" xlink:title="TileManager::getTileLayer">
<polygon fill="none" stroke="#000000" points="301,-335.5 301,-354.5 444,-354.5 444,-335.5 301,-335.5"/>
<text text-anchor="middle" x="372.5" y="-342.5" font-family="Helvetica,sans-Serif" font-size="10.00" fill="#000000">TileManager::getTileLayer</text>
</a>
</g>
</g>
<!-- Node0&#45;&gt;Node4 -->
<g id="edge19" class="edge">
<title>Node0&#45;&gt;Node4</title>
<path fill="none" stroke="#191970" d="M71.4873,-202.6624C89.5059,-214.4952 121.3895,-234.8321 150,-250 213.7936,-283.8202 231.2812,-289.3951 298,-317 310.3916,-322.127 324.0955,-327.391 336.3354,-331.9512"/>
<polygon fill="#191970" stroke="#191970" points="335.1915,-335.2598 345.7848,-335.4415 337.617,-328.6934 335.1915,-335.2598"/>
</g>
<!-- Node8 -->
<g id="node9" class="node">
<title>Node8</title>
<g id="a_node9"><a xlink:href="classMapNode.html#aabbb10c19ddd79e9c519eb4af5e995e0" target="_top" xlink:title="Update texture. ">
<polygon fill="none" stroke="#000000" points="303.5,-107.5 303.5,-126.5 441.5,-126.5 441.5,-107.5 303.5,-107.5"/>
<text text-anchor="middle" x="372.5" y="-114.5" font-family="Helvetica,sans-Serif" font-size="10.00" fill="#000000">MapNode::updateTexture</text>
</a>
</g>
</g>
<!-- Node0&#45;&gt;Node8 -->
<g id="edge20" class="edge">
<title>Node0&#45;&gt;Node8</title>
<path fill="none" stroke="#191970" d="M70.0736,-183.4217C87.3908,-171.2863 119.3338,-150.7773 150,-141 196.0922,-126.3044 249.9857,-120.2266 293.1868,-117.86"/>
<polygon fill="#191970" stroke="#191970" points="293.5452,-121.3467 303.3613,-117.3599 293.2015,-114.3552 293.5452,-121.3467"/>
</g>
<!-- Node1&#45;&gt;Node2 -->
<g id="edge2" class="edge">
<title>Node1&#45;&gt;Node2</title>
<path fill="none" stroke="#191970" d="M247.0319,-221.4287C262.8821,-218.0205 281.2132,-214.4293 298,-212 359.8341,-203.0518 430.4447,-197.3831 482.7702,-194.045"/>
<polygon fill="#191970" stroke="#191970" points="483.2207,-197.5238 492.9835,-193.4082 482.7851,-190.5374 483.2207,-197.5238"/>
</g>
<!-- Node3 -->
<g id="node4" class="node">
<title>Node3</title>
<g id="a_node4"><a xlink:href="classTileManager.html#a8ee071ff8b24926288437d310f9bc714" target="_top" xlink:title="TileManager::getTileData">
<polygon fill="none" stroke="#000000" points="490,-316.5 490,-335.5 630,-335.5 630,-316.5 490,-316.5"/>
<text text-anchor="middle" x="560" y="-323.5" font-family="Helvetica,sans-Serif" font-size="10.00" fill="#000000">TileManager::getTileData</text>
</a>
</g>
</g>
<!-- Node1&#45;&gt;Node3 -->
<g id="edge3" class="edge">
<title>Node1&#45;&gt;Node3</title>
<path fill="none" stroke="#191970" d="M217.9489,-240.682C234.7341,-253.7257 266.7518,-276.6163 298,-288 356.7263,-309.394 426.9904,-318.7817 479.9639,-322.8816"/>
<polygon fill="#191970" stroke="#191970" points="479.7555,-326.3756 489.983,-323.6103 480.2633,-319.3941 479.7555,-326.3756"/>
</g>
<!-- Node1&#45;&gt;Node4 -->
<g id="edge4" class="edge">
<title>Node1&#45;&gt;Node4</title>
<path fill="none" stroke="#191970" d="M214.821,-240.69C233.9317,-261.5005 278.9659,-309.5119 298,-321 305.2748,-325.3907 313.4406,-329.0684 321.6282,-332.1195"/>
<polygon fill="#191970" stroke="#191970" points="320.6029,-335.4681 331.1976,-335.4184 322.8843,-328.8503 320.6029,-335.4681"/>
</g>
<!-- Node5 -->
<g id="node6" class="node">
<title>Node5</title>
<g id="a_node6"><a xlink:href="classMapNode.html#a06be1917d4b251010ae78d8a2b7bc88a" target="_top" xlink:title="demolish specific layer of a Node. ">
<polygon fill="none" stroke="#000000" points="302.5,-221.5 302.5,-240.5 442.5,-240.5 442.5,-221.5 302.5,-221.5"/>
<text text-anchor="middle" x="372.5" y="-228.5" font-family="Helvetica,sans-Serif" font-size="10.00" fill="#000000">MapNode::demolishLayer</text>
</a>
</g>
</g>
<!-- Node1&#45;&gt;Node5 -->
<g id="edge7" class="edge">
<title>Node1&#45;&gt;Node5</title>
<path fill="none" stroke="#191970" d="M262.3693,-231C271.9922,-231 282.1518,-231 292.2524,-231"/>
<polygon fill="#191970" stroke="#191970" points="292.3113,-234.5001 302.3113,-231 292.3112,-227.5001 292.3113,-234.5001"/>
</g>
<!-- Node7 -->
<g id="node8" class="node">
<title>Node7</title>
<g id="a_node8"><a xlink:href="classMapNode.html#ae38d4ab8e73fc9c44e404f3c9a196953" target="_top" xlink:title="MapNode::isLayerOccupied">
<polygon fill="none" stroke="#000000" points="298,-259.5 298,-278.5 447,-278.5 447,-259.5 298,-259.5"/>
<text text-anchor="middle" x="372.5" y="-266.5" font-family="Helvetica,sans-Serif" font-size="10.00" fill="#000000">MapNode::isLayerOccupied</text>
</a>
</g>
</g>
<!-- Node1&#45;&gt;Node7 -->
<g id="edge9" class="edge">
<title>Node1&#45;&gt;Node7</title>
<path fill="none" stroke="#191970" d="M248.015,-240.589C270.1844,-245.6487 297.5732,-251.8996 321.011,-257.2488"/>
<polygon fill="#191970" stroke="#191970" points="320.259,-260.6671 330.7871,-259.4799 321.8166,-253.8425 320.259,-260.6671"/>
</g>
<!-- Node1&#45;&gt;Node8 -->
<g id="edge10" class="edge">
<title>Node1&#45;&gt;Node8</title>
<path fill="none" stroke="#191970" d="M219.9093,-221.4765C248.6077,-201.8271 314.6241,-156.6267 349.6721,-132.6299"/>
<polygon fill="#191970" stroke="#191970" points="352.0034,-135.2755 358.2773,-126.738 348.0487,-129.4996 352.0034,-135.2755"/>
</g>
<!-- Node4&#45;&gt;Node2 -->
<g id="edge5" class="edge">
<title>Node4&#45;&gt;Node2</title>
<path fill="none" stroke="#191970" d="M389.0926,-335.4574C405.4901,-325.3635 430.4556,-308.1305 447,-288 469.9689,-260.0524 455.6439,-238.6703 483,-215 484.953,-213.3101 487.0223,-211.7341 489.1813,-210.2641"/>
<polygon fill="#191970" stroke="#191970" points="491.074,-213.211 497.8959,-205.1047 487.5078,-207.1875 491.074,-213.211"/>
</g>
<!-- Node4&#45;&gt;Node3 -->
<g id="edge6" class="edge">
<title>Node4&#45;&gt;Node3</title>
<path fill="none" stroke="#191970" d="M444.1883,-337.7356C455.7825,-336.5607 467.854,-335.3375 479.6374,-334.1434"/>
<polygon fill="#191970" stroke="#191970" points="480.303,-337.594 489.8991,-333.1036 479.5972,-330.6296 480.303,-337.594"/>
</g>
<!-- Node6 -->
<g id="node7" class="node">
<title>Node6</title>
<g id="a_node7"><a xlink:href="classMapNode.html#a67296a58e167356efbabeaac3226b5d3" target="_top" xlink:title="get iso coordinates of this node gets the iso coordinates of this node ">
<polygon fill="none" stroke="#000000" points="488.5,-224.5 488.5,-243.5 631.5,-243.5 631.5,-224.5 488.5,-224.5"/>
<text text-anchor="middle" x="560" y="-231.5" font-family="Helvetica,sans-Serif" font-size="10.00" fill="#000000">MapNode::getCoordinates</text>
</a>
</g>
</g>
<!-- Node5&#45;&gt;Node6 -->
<g id="edge8" class="edge">
<title>Node5&#45;&gt;Node6</title>
<path fill="none" stroke="#191970" d="M442.5847,-232.1214C454.1696,-232.3067 466.2704,-232.5003 478.1144,-232.6898"/>
<polygon fill="#191970" stroke="#191970" points="478.3825,-236.1945 488.4372,-232.855 478.4945,-229.1954 478.3825,-236.1945"/>
</g>
<!-- Node8&#45;&gt;Node2 -->
<g id="edge11" class="edge">
<title>Node8&#45;&gt;Node2</title>
<path fill="none" stroke="#191970" d="M434.8464,-126.5584C439.015,-128.2514 443.1023,-130.0722 447,-132 464.4607,-140.6361 465.4985,-148.447 483,-157 494.8128,-162.7729 508.3192,-167.5398 520.6876,-171.7061"/>
<polygon fill="#191970" stroke="#191970" points="519.7148,-175.0713 530.3086,-174.9263 521.9367,-168.4332 519.7148,-175.0713"/>
</g>
<!-- Node8&#45;&gt;Node2 -->
<g id="edge17" class="edge">
<title>Node8&#45;&gt;Node2</title>
<path fill="none" stroke="#191970" d="M385.8769,-126.5389C401.153,-132.7914 426.659,-139.9394 447,-150 464.4607,-158.6361 465.4985,-166.447 483,-175 483.1966,-175.0961 483.3936,-175.1918 483.5911,-175.2874"/>
<polygon fill="#191970" stroke="#191970" points="482.1851,-178.4926 492.742,-179.388 485.0476,-172.1046 482.1851,-178.4926"/>
</g>
<!-- Node9 -->
<g id="node10" class="node">
<title>Node9</title>
<g id="a_node10"><a xlink:href="classTileManager.html#a519b2d5c91877025a2faa0dff3ba099c" target="_top" xlink:title="TileManager::calculateSlope\lOrientation">
<polygon fill="none" stroke="#000000" points="483,-126 483,-156 637,-156 637,-126 483,-126"/>
<text text-anchor="start" x="491" y="-144" font-family="Helvetica,sans-Serif" font-size="10.00" fill="#000000">TileManager::calculateSlope</text>
<text text-anchor="middle" x="560" y="-133" font-family="Helvetica,sans-Serif" font-size="10.00" fill="#000000">Orientation</text>
</a>
</g>
</g>
<!-- Node8&#45;&gt;Node9 -->
<g id="edge12" class="edge">
<title>Node8&#45;&gt;Node9</title>
<path fill="none" stroke="#191970" d="M441.5193,-125.8345C451.727,-127.1411 462.356,-128.5016 472.8733,-129.8478"/>
<polygon fill="#191970" stroke="#191970" points="472.5418,-133.3338 482.9053,-131.1319 473.4306,-126.3905 472.5418,-133.3338"/>
</g>
<!-- Node10 -->
<g id="node11" class="node">
<title>Node10</title>
<g id="a_node11"><a xlink:href="classTileManager.html#a05d41a7f0858cff242f027a08e06ea43" target="_top" xlink:title="TileManager::calculateTile\lOrientation">
<polygon fill="none" stroke="#000000" points="487.5,-77 487.5,-107 632.5,-107 632.5,-77 487.5,-77"/>
<text text-anchor="start" x="495.5" y="-95" font-family="Helvetica,sans-Serif" font-size="10.00" fill="#000000">TileManager::calculateTile</text>
<text text-anchor="middle" x="560" y="-84" font-family="Helvetica,sans-Serif" font-size="10.00" fill="#000000">Orientation</text>
</a>
</g>
</g>
<!-- Node8&#45;&gt;Node10 -->
<g id="edge13" class="edge">
<title>Node8&#45;&gt;Node10</title>
<path fill="none" stroke="#191970" d="M441.5193,-107.7974C453.1848,-106.242 465.4005,-104.6133 477.3709,-103.0172"/>
<polygon fill="#191970" stroke="#191970" points="477.9012,-106.4776 487.3509,-101.6865 476.976,-99.539 477.9012,-106.4776"/>
</g>
<!-- Node11 -->
<g id="node12" class="node">
<title>Node11</title>
<g id="a_node12"><a xlink:href="classMapNode.html#afb1cbc0f9e987b7befced46220dd9277" target="_top" xlink:title="check if specific layer can be autotiled. ">
<polygon fill="none" stroke="#000000" points="488,-38.5 488,-57.5 632,-57.5 632,-38.5 488,-38.5"/>
<text text-anchor="middle" x="560" y="-45.5" font-family="Helvetica,sans-Serif" font-size="10.00" fill="#000000">MapNode::isLayerAutoTile</text>
</a>
</g>
</g>
<!-- Node8&#45;&gt;Node11 -->
<g id="edge14" class="edge">
<title>Node8&#45;&gt;Node11</title>
<path fill="none" stroke="#191970" d="M390.845,-107.4414C412.4307,-96.4927 449.5731,-78.5775 483,-67 490.1468,-64.5247 497.7716,-62.2369 505.3404,-60.1701"/>
<polygon fill="#191970" stroke="#191970" points="506.4269,-63.5036 515.2131,-57.5832 504.6525,-56.7322 506.4269,-63.5036"/>
</g>
<!-- Node13 -->
<g id="node14" class="node">
<title>Node13</title>
<g id="a_node14"><a xlink:href="classMapNode.html#ab34930f43b60310cd475f514e969a401" target="_top" xlink:title="get TileID of specific layer inside NodeData. ">
<polygon fill="none" stroke="#000000" points="503.5,-.5 503.5,-19.5 616.5,-19.5 616.5,-.5 503.5,-.5"/>
<text text-anchor="middle" x="560" y="-7.5" font-family="Helvetica,sans-Serif" font-size="10.00" fill="#000000">MapNode::getTileID</text>
</a>
</g>
</g>
<!-- Node8&#45;&gt;Node13 -->
<g id="edge16" class="edge">
<title>Node8&#45;&gt;Node13</title>
<path fill="none" stroke="#191970" d="M381.5664,-107.431C399.2915,-89.3013 440.5301,-49.8951 483,-29 487.8647,-26.6066 493.0545,-24.5 498.3543,-22.6485"/>
<polygon fill="#191970" stroke="#191970" points="499.5016,-25.9564 507.9664,-19.5846 497.3757,-19.287 499.5016,-25.9564"/>
</g>
<!-- Node12 -->
<g id="node13" class="node">
<title>Node12</title>
<g id="a_node13"><a xlink:href="classMapNode.html#a64cb9a4523c9e78f256fde42f1dee43d" target="_top" xlink:title="check if specific Tile Data is autotile category. ">
<polygon fill="none" stroke="#000000" points="673,-38.5 673,-57.5 813,-57.5 813,-38.5 673,-38.5"/>
<text text-anchor="middle" x="743" y="-45.5" font-family="Helvetica,sans-Serif" font-size="10.00" fill="#000000">MapNode::isDataAutoTile</text>
</a>
</g>
</g>
<!-- Node11&#45;&gt;Node12 -->
<g id="edge15" class="edge">
<title>Node11&#45;&gt;Node12</title>
<path fill="none" stroke="#191970" d="M632.0638,-48C642.1158,-48 652.4959,-48 662.688,-48"/>
<polygon fill="#191970" stroke="#191970" points="662.7984,-51.5001 672.7984,-48 662.7983,-44.5001 662.7984,-51.5001"/>
</g>
</g>
</svg>
