<?xml version="1.0" encoding="UTF-8" standalone="no"?>
<!DOCTYPE svg PUBLIC "-//W3C//DTD SVG 1.1//EN"
 "http://www.w3.org/Graphics/SVG/1.1/DTD/svg11.dtd">
<!-- Generated by graphviz version 2.40.1 (20161225.0304)
 -->
<!-- Title: MapNode::setTileID Pages: 1 -->
<svg width="951pt" height="66pt"
 viewBox="0.00 0.00 951.00 66.00" xmlns="http://www.w3.org/2000/svg" xmlns:xlink="http://www.w3.org/1999/xlink">
<g id="graph0" class="graph" transform="scale(1 1) rotate(0) translate(4 62)">
<title>MapNode::setTileID</title>
<!-- Node339 -->
<g id="node1" class="node">
<title>Node339</title>
<polygon fill="#bfbfbf" stroke="#000000" points="0,-19.5 0,-38.5 112,-38.5 112,-19.5 0,-19.5"/>
<text text-anchor="middle" x="56" y="-26.5" font-family="Helvetica,sans-Serif" font-size="10.00" fill="#000000">MapNode::setTileID</text>
</g>
<!-- Node340 -->
<g id="node2" class="node">
<title>Node340</title>
<g id="a_node2"><a xlink:href="classMapNode.html#ae515fc96b543bf97237bfb1ca53fe571" target="_top" xlink:title="MapNode::MapNode">
<polygon fill="none" stroke="#000000" points="152.5,-38.5 152.5,-57.5 266.5,-57.5 266.5,-38.5 152.5,-38.5"/>
<text text-anchor="middle" x="209.5" y="-45.5" font-family="Helvetica,sans-Serif" font-size="10.00" fill="#000000">MapNode::MapNode</text>
</a>
</g>
</g>
<!-- Node339&#45;&gt;Node340 -->
<g id="edge1" class="edge">
<title>Node339&#45;&gt;Node340</title>
<path fill="none" stroke="#191970" d="M122.239,-37.199C132.3,-38.4443 142.6067,-39.72 152.4496,-40.9384"/>
<polygon fill="#191970" stroke="#191970" points="122.6404,-33.722 112.2861,-35.967 121.7804,-40.669 122.6404,-33.722"/>
</g>
<!-- Node341 -->
<g id="node3" class="node">
<title>Node341</title>
<g id="a_node3"><a xlink:href="classMap.html#a404c38b33d61f8c63ce2c2efb864d6dd" target="_top" xlink:title="Set the Tile ID Of Node object Also invokes all necessary texture updates (auto&#45;tiling, slopes, ...) ">
<polygon fill="none" stroke="#000000" points="148,-.5 148,-19.5 271,-19.5 271,-.5 148,-.5"/>
<text text-anchor="middle" x="209.5" y="-7.5" font-family="Helvetica,sans-Serif" font-size="10.00" fill="#000000">Map::setTileIDOfNode</text>
</a>
</g>
</g>
<!-- Node339&#45;&gt;Node341 -->
<g id="edge2" class="edge">
<title>Node339&#45;&gt;Node341</title>
<path fill="none" stroke="#191970" d="M122.4425,-20.7758C130.8602,-19.7339 139.4465,-18.6711 147.7862,-17.6388"/>
<polygon fill="#191970" stroke="#191970" points="121.7804,-17.331 112.2861,-22.033 122.6404,-24.278 121.7804,-17.331"/>
</g>
<!-- Node342 -->
<g id="node4" class="node">
<title>Node342</title>
<g id="a_node4"><a xlink:href="classEngine.html#a7a1521fd7fc731f961ebaf3f723127d9" target="_top" xlink:title="Engine::setTileIDOfNode">
<polygon fill="none" stroke="#000000" points="307,-.5 307,-19.5 443,-19.5 443,-.5 307,-.5"/>
<text text-anchor="middle" x="375" y="-7.5" font-family="Helvetica,sans-Serif" font-size="10.00" fill="#000000">Engine::setTileIDOfNode</text>
</a>
</g>
</g>
<!-- Node341&#45;&gt;Node342 -->
<g id="edge3" class="edge">
<title>Node341&#45;&gt;Node342</title>
<path fill="none" stroke="#191970" d="M281.3736,-10C289.858,-10 298.4976,-10 306.9273,-10"/>
<polygon fill="#191970" stroke="#191970" points="281.1261,-6.5001 271.1261,-10 281.1261,-13.5001 281.1261,-6.5001"/>
</g>
<!-- Node343 -->
<g id="node5" class="node">
<title>Node343</title>
<g id="a_node5"><a xlink:href="classEventManager.html#a65ec91fd5016d4f9c4167fb8babed2df" target="_top" xlink:title="EventManager::checkEvents">
<polygon fill="none" stroke="#000000" points="479,-.5 479,-19.5 633,-19.5 633,-.5 479,-.5"/>
<text text-anchor="middle" x="556" y="-7.5" font-family="Helvetica,sans-Serif" font-size="10.00" fill="#000000">EventManager::checkEvents</text>
</a>
</g>
</g>
<!-- Node342&#45;&gt;Node343 -->
<g id="edge4" class="edge">
<title>Node342&#45;&gt;Node343</title>
<path fill="none" stroke="#191970" d="M453.3623,-10C461.7925,-10 470.3658,-10 478.7824,-10"/>
<polygon fill="#191970" stroke="#191970" points="453.1705,-6.5001 443.1704,-10 453.1704,-13.5001 453.1705,-6.5001"/>
</g>
<!-- Node344 -->
<g id="node6" class="node">
<title>Node344</title>
<g id="a_node6"><a xlink:href="classGame.html#a1c2ab25d5216b2f4b2fe41efd2c09114" target="_top" xlink:title="begins the game starts running the game ">
<polygon fill="none" stroke="#000000" points="669,-.5 669,-19.5 737,-19.5 737,-.5 669,-.5"/>
<text text-anchor="middle" x="703" y="-7.5" font-family="Helvetica,sans-Serif" font-size="10.00" fill="#000000">Game::run</text>
</a>
</g>
</g>
<!-- Node343&#45;&gt;Node344 -->
<g id="edge5" class="edge">
<title>Node343&#45;&gt;Node344</title>
<path fill="none" stroke="#191970" d="M643.5248,-10C652.4338,-10 661.0572,-10 668.845,-10"/>
<polygon fill="#191970" stroke="#191970" points="643.3744,-6.5001 633.3744,-10 643.3743,-13.5001 643.3744,-6.5001"/>
</g>
<!-- Node345 -->
<g id="node7" class="node">
<title>Node345</title>
<g id="a_node7"><a xlink:href="main_8cxx.html#af582d708d899e67ead623eac34a22387" target="_top" xlink:title="protected_main">
<polygon fill="none" stroke="#000000" points="773,-.5 773,-19.5 866,-19.5 866,-.5 773,-.5"/>
<text text-anchor="middle" x="819.5" y="-7.5" font-family="Helvetica,sans-Serif" font-size="10.00" fill="#000000">protected_main</text>
</a>
</g>
</g>
<!-- Node344&#45;&gt;Node345 -->
<g id="edge6" class="edge">
<title>Node344&#45;&gt;Node345</title>
<path fill="none" stroke="#191970" d="M747.2653,-10C755.5757,-10 764.2897,-10 772.6749,-10"/>
<polygon fill="#191970" stroke="#191970" points="747.0098,-6.5001 737.0098,-10 747.0098,-13.5001 747.0098,-6.5001"/>
</g>
<!-- Node346 -->
<g id="node8" class="node">
<title>Node346</title>
<g id="a_node8"><a xlink:href="main_8cxx.html#a3c04138a5bfe5d72780bb7e82a18e627" target="_top" xlink:title="main">
<polygon fill="none" stroke="#000000" points="902,-.5 902,-19.5 943,-19.5 943,-.5 902,-.5"/>
<text text-anchor="middle" x="922.5" y="-7.5" font-family="Helvetica,sans-Serif" font-size="10.00" fill="#000000">main</text>
</a>
</g>
</g>
<!-- Node345&#45;&gt;Node346 -->
<g id="edge7" class="edge">
<title>Node345&#45;&gt;Node346</title>
<path fill="none" stroke="#191970" d="M876.2133,-10C885.4322,-10 894.4259,-10 901.9965,-10"/>
<polygon fill="#191970" stroke="#191970" points="876.1782,-6.5001 866.1782,-10 876.1781,-13.5001 876.1782,-6.5001"/>
</g>
</g>
</svg>
