<?xml version="1.0" encoding="UTF-8" standalone="no"?>
<!DOCTYPE svg PUBLIC "-//W3C//DTD SVG 1.1//EN"
 "http://www.w3.org/Graphics/SVG/1.1/DTD/svg11.dtd">
<!-- Generated by graphviz version 2.40.1 (20161225.0304)
 -->
<!-- Title: MapNode::setRenderFlag Pages: 1 -->
<svg width="976pt" height="28pt"
 viewBox="0.00 0.00 976.00 28.00" xmlns="http://www.w3.org/2000/svg" xmlns:xlink="http://www.w3.org/1999/xlink">
<g id="graph0" class="graph" transform="scale(1 1) rotate(0) translate(4 24)">
<title>MapNode::setRenderFlag</title>
<!-- Node319 -->
<g id="node1" class="node">
<title>Node319</title>
<polygon fill="#bfbfbf" stroke="#000000" points="0,-.5 0,-19.5 137,-19.5 137,-.5 0,-.5"/>
<text text-anchor="middle" x="68.5" y="-7.5" font-family="Helvetica,sans-Serif" font-size="10.00" fill="#000000">MapNode::setRenderFlag</text>
</g>
<!-- Node320 -->
<g id="node2" class="node">
<title>Node320</title>
<g id="a_node2"><a xlink:href="classMap.html#a404c38b33d61f8c63ce2c2efb864d6dd" target="_top" xlink:title="Set the Tile ID Of Node object Also invokes all necessary texture updates (auto&#45;tiling, slopes, ...) ">
<polygon fill="none" stroke="#000000" points="173,-.5 173,-19.5 296,-19.5 296,-.5 173,-.5"/>
<text text-anchor="middle" x="234.5" y="-7.5" font-family="Helvetica,sans-Serif" font-size="10.00" fill="#000000">Map::setTileIDOfNode</text>
</a>
</g>
</g>
<!-- Node319&#45;&gt;Node320 -->
<g id="edge1" class="edge">
<title>Node319&#45;&gt;Node320</title>
<path fill="none" stroke="#191970" d="M147.7269,-10C156.1873,-10 164.7,-10 172.9126,-10"/>
<polygon fill="#191970" stroke="#191970" points="147.4568,-6.5001 137.4568,-10 147.4568,-13.5001 147.4568,-6.5001"/>
</g>
<!-- Node321 -->
<g id="node3" class="node">
<title>Node321</title>
<g id="a_node3"><a xlink:href="classEngine.html#a7a1521fd7fc731f961ebaf3f723127d9" target="_top" xlink:title="Engine::setTileIDOfNode">
<polygon fill="none" stroke="#000000" points="332,-.5 332,-19.5 468,-19.5 468,-.5 332,-.5"/>
<text text-anchor="middle" x="400" y="-7.5" font-family="Helvetica,sans-Serif" font-size="10.00" fill="#000000">Engine::setTileIDOfNode</text>
</a>
</g>
</g>
<!-- Node320&#45;&gt;Node321 -->
<g id="edge2" class="edge">
<title>Node320&#45;&gt;Node321</title>
<path fill="none" stroke="#191970" d="M306.3736,-10C314.858,-10 323.4976,-10 331.9273,-10"/>
<polygon fill="#191970" stroke="#191970" points="306.1261,-6.5001 296.1261,-10 306.1261,-13.5001 306.1261,-6.5001"/>
</g>
<!-- Node322 -->
<g id="node4" class="node">
<title>Node322</title>
<g id="a_node4"><a xlink:href="classEventManager.html#a65ec91fd5016d4f9c4167fb8babed2df" target="_top" xlink:title="EventManager::checkEvents">
<polygon fill="none" stroke="#000000" points="504,-.5 504,-19.5 658,-19.5 658,-.5 504,-.5"/>
<text text-anchor="middle" x="581" y="-7.5" font-family="Helvetica,sans-Serif" font-size="10.00" fill="#000000">EventManager::checkEvents</text>
</a>
</g>
</g>
<!-- Node321&#45;&gt;Node322 -->
<g id="edge3" class="edge">
<title>Node321&#45;&gt;Node322</title>
<path fill="none" stroke="#191970" d="M478.3623,-10C486.7925,-10 495.3658,-10 503.7824,-10"/>
<polygon fill="#191970" stroke="#191970" points="478.1705,-6.5001 468.1704,-10 478.1704,-13.5001 478.1705,-6.5001"/>
</g>
<!-- Node323 -->
<g id="node5" class="node">
<title>Node323</title>
<g id="a_node5"><a xlink:href="classGame.html#a1c2ab25d5216b2f4b2fe41efd2c09114" target="_top" xlink:title="begins the game starts running the game ">
<polygon fill="none" stroke="#000000" points="694,-.5 694,-19.5 762,-19.5 762,-.5 694,-.5"/>
<text text-anchor="middle" x="728" y="-7.5" font-family="Helvetica,sans-Serif" font-size="10.00" fill="#000000">Game::run</text>
</a>
</g>
</g>
<!-- Node322&#45;&gt;Node323 -->
<g id="edge4" class="edge">
<title>Node322&#45;&gt;Node323</title>
<path fill="none" stroke="#191970" d="M668.5248,-10C677.4338,-10 686.0572,-10 693.845,-10"/>
<polygon fill="#191970" stroke="#191970" points="668.3744,-6.5001 658.3744,-10 668.3743,-13.5001 668.3744,-6.5001"/>
</g>
<!-- Node324 -->
<g id="node6" class="node">
<title>Node324</title>
<g id="a_node6"><a xlink:href="main_8cxx.html#af582d708d899e67ead623eac34a22387" target="_top" xlink:title="protected_main">
<polygon fill="none" stroke="#000000" points="798,-.5 798,-19.5 891,-19.5 891,-.5 798,-.5"/>
<text text-anchor="middle" x="844.5" y="-7.5" font-family="Helvetica,sans-Serif" font-size="10.00" fill="#000000">protected_main</text>
</a>
</g>
</g>
<!-- Node323&#45;&gt;Node324 -->
<g id="edge5" class="edge">
<title>Node323&#45;&gt;Node324</title>
<path fill="none" stroke="#191970" d="M772.2653,-10C780.5757,-10 789.2897,-10 797.6749,-10"/>
<polygon fill="#191970" stroke="#191970" points="772.0098,-6.5001 762.0098,-10 772.0098,-13.5001 772.0098,-6.5001"/>
</g>
<!-- Node325 -->
<g id="node7" class="node">
<title>Node325</title>
<g id="a_node7"><a xlink:href="main_8cxx.html#a3c04138a5bfe5d72780bb7e82a18e627" target="_top" xlink:title="main">
<polygon fill="none" stroke="#000000" points="927,-.5 927,-19.5 968,-19.5 968,-.5 927,-.5"/>
<text text-anchor="middle" x="947.5" y="-7.5" font-family="Helvetica,sans-Serif" font-size="10.00" fill="#000000">main</text>
</a>
</g>
</g>
<!-- Node324&#45;&gt;Node325 -->
<g id="edge6" class="edge">
<title>Node324&#45;&gt;Node325</title>
<path fill="none" stroke="#191970" d="M901.2133,-10C910.4322,-10 919.4259,-10 926.9965,-10"/>
<polygon fill="#191970" stroke="#191970" points="901.1782,-6.5001 891.1782,-10 901.1781,-13.5001 901.1782,-6.5001"/>
</g>
</g>
</svg>
