<?xml version="1.0" encoding="UTF-8" standalone="no"?>
<!DOCTYPE svg PUBLIC "-//W3C//DTD SVG 1.1//EN"
 "http://www.w3.org/Graphics/SVG/1.1/DTD/svg11.dtd">
<!-- Generated by graphviz version 2.40.1 (20161225.0304)
 -->
<!-- Title: Map::getElevatedNeighborBitmask Pages: 1 -->
<svg width="1697pt" height="210pt"
 viewBox="0.00 0.00 1697.00 209.98" xmlns="http://www.w3.org/2000/svg" xmlns:xlink="http://www.w3.org/1999/xlink">
<g id="graph0" class="graph" transform="scale(1 1) rotate(0) translate(4 205.9782)">
<title>Map::getElevatedNeighborBitmask</title>
<!-- Node202 -->
<g id="node1" class="node">
<title>Node202</title>
<polygon fill="#bfbfbf" stroke="#000000" points="0,-100.9782 0,-130.9782 146,-130.9782 146,-100.9782 0,-100.9782"/>
<text text-anchor="start" x="8" y="-118.9782" font-family="Helvetica,sans-Serif" font-size="10.00" fill="#000000">Map::getElevatedNeighbor</text>
<text text-anchor="middle" x="73" y="-107.9782" font-family="Helvetica,sans-Serif" font-size="10.00" fill="#000000">Bitmask</text>
</g>
<!-- Node203 -->
<g id="node2" class="node">
<title>Node203</title>
<g id="a_node2"><a xlink:href="classMap.html#af1e496c421981fe707890b0ba60cc20f" target="_top" xlink:title="Map::updateNodeNeighbors">
<polygon fill="none" stroke="#000000" points="182,-106.4782 182,-125.4782 334,-125.4782 334,-106.4782 182,-106.4782"/>
<text text-anchor="middle" x="258" y="-113.4782" font-family="Helvetica,sans-Serif" font-size="10.00" fill="#000000">Map::updateNodeNeighbors</text>
</a>
</g>
</g>
<!-- Node202&#45;&gt;Node203 -->
<g id="edge1" class="edge">
<title>Node202&#45;&gt;Node203</title>
<path fill="none" stroke="#191970" d="M156.3662,-115.9782C164.8264,-115.9782 173.3896,-115.9782 181.7689,-115.9782"/>
<polygon fill="#191970" stroke="#191970" points="156.1169,-112.4783 146.1169,-115.9782 156.1169,-119.4783 156.1169,-112.4783"/>
</g>
<!-- Node204 -->
<g id="node3" class="node">
<title>Node204</title>
<g id="a_node3"><a xlink:href="classMap.html#ade1eeabf4e539f9dbfe2a96c97fda4e3" target="_top" xlink:title="Map::changeHeight">
<polygon fill="none" stroke="#000000" points="526,-144.4782 526,-163.4782 636,-163.4782 636,-144.4782 526,-144.4782"/>
<text text-anchor="middle" x="581" y="-151.4782" font-family="Helvetica,sans-Serif" font-size="10.00" fill="#000000">Map::changeHeight</text>
</a>
</g>
</g>
<!-- Node203&#45;&gt;Node204 -->
<g id="edge2" class="edge">
<title>Node203&#45;&gt;Node204</title>
<path fill="none" stroke="#191970" d="M319.2144,-127.2528C335.667,-130.0394 353.4791,-132.8364 370,-134.9782 422.7063,-141.8112 483.1382,-146.9839 525.7817,-150.1936"/>
<polygon fill="#191970" stroke="#191970" points="319.6184,-123.771 309.1697,-125.5251 318.4317,-130.6697 319.6184,-123.771"/>
</g>
<!-- Node213 -->
<g id="node12" class="node">
<title>Node213</title>
<g id="a_node12"><a xlink:href="classMap.html#a481b37ba71ef0e51e836fc42805762dd" target="_top" xlink:title="Update all mapNodes Updates all mapNode and its adjacent tiles regarding height information, draws slopes for adjacent tiles and sets tiling for mapNode sprite if applicable. ">
<polygon fill="none" stroke="#000000" points="370,-68.4782 370,-87.4782 490,-87.4782 490,-68.4782 370,-68.4782"/>
<text text-anchor="middle" x="430" y="-75.4782" font-family="Helvetica,sans-Serif" font-size="10.00" fill="#000000">Map::updateAllNodes</text>
</a>
</g>
</g>
<!-- Node203&#45;&gt;Node213 -->
<g id="edge12" class="edge">
<title>Node203&#45;&gt;Node213</title>
<path fill="none" stroke="#191970" d="M311.1959,-104.2256C335.5166,-98.8524 363.9547,-92.5696 386.9092,-87.4982"/>
<polygon fill="#191970" stroke="#191970" points="310.4123,-100.8142 301.4029,-106.3892 311.9225,-107.6494 310.4123,-100.8142"/>
</g>
<!-- Node221 -->
<g id="node20" class="node">
<title>Node221</title>
<g id="a_node20"><a xlink:href="classMap.html#aa8cc2ed983007621bce12dd9d1b8ec5b" target="_top" xlink:title="Demolish a node This function gathers all tiles that should be demolished and invokes the nodes demol...">
<polygon fill="none" stroke="#000000" points="373.5,-106.4782 373.5,-125.4782 486.5,-125.4782 486.5,-106.4782 373.5,-106.4782"/>
<text text-anchor="middle" x="430" y="-113.4782" font-family="Helvetica,sans-Serif" font-size="10.00" fill="#000000">Map::demolishNode</text>
</a>
</g>
</g>
<!-- Node203&#45;&gt;Node221 -->
<g id="edge25" class="edge">
<title>Node203&#45;&gt;Node221</title>
<path fill="none" stroke="#191970" d="M344.4498,-109.2283C354.3104,-109.2319 364.1632,-109.3538 373.4896,-109.594"/>
<polygon fill="#191970" stroke="#191970" points="344.1794,-105.7292 334.1928,-109.2674 344.2061,-112.7291 344.1794,-105.7292"/>
</g>
<!-- Node205 -->
<g id="node4" class="node">
<title>Node205</title>
<g id="a_node4"><a xlink:href="classMap.html#aba5154a4d917900679a3c0f7ec701561" target="_top" xlink:title="Increase Height Increases the height of the node and checks the surrounding tiles. Either draw a slope sprite or elevate the tile if necessary. ">
<polygon fill="none" stroke="#000000" points="676.5,-182.4782 676.5,-201.4782 792.5,-201.4782 792.5,-182.4782 676.5,-182.4782"/>
<text text-anchor="middle" x="734.5" y="-189.4782" font-family="Helvetica,sans-Serif" font-size="10.00" fill="#000000">Map::increaseHeight</text>
</a>
</g>
</g>
<!-- Node204&#45;&gt;Node205 -->
<g id="edge3" class="edge">
<title>Node204&#45;&gt;Node205</title>
<path fill="none" stroke="#191970" d="M629.6352,-166.0182C651.0799,-171.327 675.9226,-177.4769 696.044,-182.4581"/>
<polygon fill="#191970" stroke="#191970" points="630.2826,-162.5729 619.7345,-163.5672 628.6004,-169.3677 630.2826,-162.5729"/>
</g>
<!-- Node211 -->
<g id="node10" class="node">
<title>Node211</title>
<g id="a_node10"><a xlink:href="classMap.html#afb8cc864df90d273a5074872d635dc40" target="_top" xlink:title="Decrease Height Decreases the height of the node and checks the surrounding tiles. Either draw a slope sprite or lower the tile if necessary. ">
<polygon fill="none" stroke="#000000" points="675,-144.4782 675,-163.4782 794,-163.4782 794,-144.4782 675,-144.4782"/>
<text text-anchor="middle" x="734.5" y="-151.4782" font-family="Helvetica,sans-Serif" font-size="10.00" fill="#000000">Map::decreaseHeight</text>
</a>
</g>
</g>
<!-- Node204&#45;&gt;Node211 -->
<g id="edge9" class="edge">
<title>Node204&#45;&gt;Node211</title>
<path fill="none" stroke="#191970" d="M646.4846,-153.9782C655.8708,-153.9782 665.4869,-153.9782 674.7546,-153.9782"/>
<polygon fill="#191970" stroke="#191970" points="646.4171,-150.4783 636.417,-153.9782 646.417,-157.4783 646.4171,-150.4783"/>
</g>
<!-- Node206 -->
<g id="node5" class="node">
<title>Node206</title>
<g id="a_node5"><a xlink:href="classEngine.html#a4851ae1ff696c893741167fc0194fd77" target="_top" xlink:title="Increase Height Increases the height of the given map node Calls the according function of the Map ob...">
<polygon fill="none" stroke="#000000" points="1001,-182.4782 1001,-201.4782 1130,-201.4782 1130,-182.4782 1001,-182.4782"/>
<text text-anchor="middle" x="1065.5" y="-189.4782" font-family="Helvetica,sans-Serif" font-size="10.00" fill="#000000">Engine::increaseHeight</text>
</a>
</g>
</g>
<!-- Node205&#45;&gt;Node206 -->
<g id="edge4" class="edge">
<title>Node205&#45;&gt;Node206</title>
<path fill="none" stroke="#191970" d="M802.717,-191.9782C860.796,-191.9782 943.6556,-191.9782 1000.7264,-191.9782"/>
<polygon fill="#191970" stroke="#191970" points="802.5346,-188.4783 792.5346,-191.9782 802.5345,-195.4783 802.5346,-188.4783"/>
</g>
<!-- Node207 -->
<g id="node6" class="node">
<title>Node207</title>
<g id="a_node6"><a xlink:href="classEventManager.html#a65ec91fd5016d4f9c4167fb8babed2df" target="_top" xlink:title="EventManager::checkEvents">
<polygon fill="none" stroke="#000000" points="1178,-106.4782 1178,-125.4782 1332,-125.4782 1332,-106.4782 1178,-106.4782"/>
<text text-anchor="middle" x="1255" y="-113.4782" font-family="Helvetica,sans-Serif" font-size="10.00" fill="#000000">EventManager::checkEvents</text>
</a>
</g>
</g>
<!-- Node206&#45;&gt;Node207 -->
<g id="edge5" class="edge">
<title>Node206&#45;&gt;Node207</title>
<path fill="none" stroke="#191970" d="M1101.3728,-178.9056C1110.719,-175.4245 1120.7592,-171.618 1130,-167.9782 1166.0839,-153.7654 1207.5809,-136.2719 1232.5233,-125.631"/>
<polygon fill="#191970" stroke="#191970" points="1100.1099,-175.641 1091.9469,-182.395 1102.5401,-182.2056 1100.1099,-175.641"/>
</g>
<!-- Node208 -->
<g id="node7" class="node">
<title>Node208</title>
<g id="a_node7"><a xlink:href="classGame.html#a1c2ab25d5216b2f4b2fe41efd2c09114" target="_top" xlink:title="begins the game starts running the game ">
<polygon fill="none" stroke="#000000" points="1397.5,-106.4782 1397.5,-125.4782 1465.5,-125.4782 1465.5,-106.4782 1397.5,-106.4782"/>
<text text-anchor="middle" x="1431.5" y="-113.4782" font-family="Helvetica,sans-Serif" font-size="10.00" fill="#000000">Game::run</text>
</a>
</g>
</g>
<!-- Node207&#45;&gt;Node208 -->
<g id="edge6" class="edge">
<title>Node207&#45;&gt;Node208</title>
<path fill="none" stroke="#191970" d="M1342.3664,-115.9782C1361.9355,-115.9782 1381.5625,-115.9782 1397.398,-115.9782"/>
<polygon fill="#191970" stroke="#191970" points="1342.1587,-112.4783 1332.1587,-115.9782 1342.1587,-119.4783 1342.1587,-112.4783"/>
</g>
<!-- Node209 -->
<g id="node8" class="node">
<title>Node209</title>
<g id="a_node8"><a xlink:href="main_8cxx.html#af582d708d899e67ead623eac34a22387" target="_top" xlink:title="protected_main">
<polygon fill="none" stroke="#000000" points="1519,-87.4782 1519,-106.4782 1612,-106.4782 1612,-87.4782 1519,-87.4782"/>
<text text-anchor="middle" x="1565.5" y="-94.4782" font-family="Helvetica,sans-Serif" font-size="10.00" fill="#000000">protected_main</text>
</a>
</g>
</g>
<!-- Node208&#45;&gt;Node209 -->
<g id="edge7" class="edge">
<title>Node208&#45;&gt;Node209</title>
<path fill="none" stroke="#191970" d="M1475.8611,-109.6882C1489.6278,-107.7362 1504.8396,-105.5793 1518.7626,-103.6051"/>
<polygon fill="#191970" stroke="#191970" points="1475.0702,-106.2652 1465.6606,-111.1345 1476.0529,-113.1959 1475.0702,-106.2652"/>
</g>
<!-- Node210 -->
<g id="node9" class="node">
<title>Node210</title>
<g id="a_node9"><a xlink:href="main_8cxx.html#a3c04138a5bfe5d72780bb7e82a18e627" target="_top" xlink:title="main">
<polygon fill="none" stroke="#000000" points="1648,-87.4782 1648,-106.4782 1689,-106.4782 1689,-87.4782 1648,-87.4782"/>
<text text-anchor="middle" x="1668.5" y="-94.4782" font-family="Helvetica,sans-Serif" font-size="10.00" fill="#000000">main</text>
</a>
</g>
</g>
<!-- Node209&#45;&gt;Node210 -->
<g id="edge8" class="edge">
<title>Node209&#45;&gt;Node210</title>
<path fill="none" stroke="#191970" d="M1622.2133,-96.9782C1631.4322,-96.9782 1640.4259,-96.9782 1647.9965,-96.9782"/>
<polygon fill="#191970" stroke="#191970" points="1622.1782,-93.4783 1612.1782,-96.9782 1622.1781,-100.4783 1622.1782,-93.4783"/>
</g>
<!-- Node212 -->
<g id="node11" class="node">
<title>Node212</title>
<g id="a_node11"><a xlink:href="classEngine.html#a13572fdd7f6470dca48a14497f58980e" target="_top" xlink:title="Decrease Height Decreases the height of the given map node Calls the according function of the Map ob...">
<polygon fill="none" stroke="#000000" points="833,-144.4782 833,-163.4782 965,-163.4782 965,-144.4782 833,-144.4782"/>
<text text-anchor="middle" x="899" y="-151.4782" font-family="Helvetica,sans-Serif" font-size="10.00" fill="#000000">Engine::decreaseHeight</text>
</a>
</g>
</g>
<!-- Node211&#45;&gt;Node212 -->
<g id="edge10" class="edge">
<title>Node211&#45;&gt;Node212</title>
<path fill="none" stroke="#191970" d="M804.4434,-153.9782C813.8433,-153.9782 823.4627,-153.9782 832.7952,-153.9782"/>
<polygon fill="#191970" stroke="#191970" points="804.3537,-150.4783 794.3536,-153.9782 804.3536,-157.4783 804.3537,-150.4783"/>
</g>
<!-- Node212&#45;&gt;Node207 -->
<g id="edge11" class="edge">
<title>Node212&#45;&gt;Node207</title>
<path fill="none" stroke="#191970" d="M975.2157,-146.2146C1020.2509,-141.5885 1078.3831,-135.55 1130,-129.9782 1145.5233,-128.3025 1162.1263,-126.4708 1177.9948,-124.7008"/>
<polygon fill="#191970" stroke="#191970" points="974.8213,-142.7366 965.2309,-147.2392 975.5359,-149.7 974.8213,-142.7366"/>
</g>
<!-- Node214 -->
<g id="node13" class="node">
<title>Node214</title>
<g id="a_node13"><a xlink:href="classMap.html#a26eceeccd7b6ed693909b1927a25c67a" target="_top" xlink:title="Map::Map">
<polygon fill="none" stroke="#000000" points="549.5,-68.4782 549.5,-87.4782 612.5,-87.4782 612.5,-68.4782 549.5,-68.4782"/>
<text text-anchor="middle" x="581" y="-75.4782" font-family="Helvetica,sans-Serif" font-size="10.00" fill="#000000">Map::Map</text>
</a>
</g>
</g>
<!-- Node213&#45;&gt;Node214 -->
<g id="edge13" class="edge">
<title>Node213&#45;&gt;Node214</title>
<path fill="none" stroke="#191970" d="M500.1682,-77.9782C517.3649,-77.9782 534.9322,-77.9782 549.2779,-77.9782"/>
<polygon fill="#191970" stroke="#191970" points="500.1131,-74.4783 490.1131,-77.9782 500.113,-81.4783 500.1131,-74.4783"/>
</g>
<!-- Node215 -->
<g id="node14" class="node">
<title>Node215</title>
<g id="a_node14"><a xlink:href="classMap.html#afefe996cc1f62b61ec60d0ae415953bf" target="_top" xlink:title="Map::loadMapFromFile">
<polygon fill="none" stroke="#000000" points="672,-30.4782 672,-49.4782 797,-49.4782 797,-30.4782 672,-30.4782"/>
<text text-anchor="middle" x="734.5" y="-37.4782" font-family="Helvetica,sans-Serif" font-size="10.00" fill="#000000">Map::loadMapFromFile</text>
</a>
</g>
</g>
<!-- Node213&#45;&gt;Node215 -->
<g id="edge24" class="edge">
<title>Node213&#45;&gt;Node215</title>
<path fill="none" stroke="#191970" d="M483.2062,-66.4191C497.0867,-63.6865 512.0622,-60.9869 526,-58.9782 574.7478,-51.9527 630.3038,-47.0414 671.804,-43.9744"/>
<polygon fill="#191970" stroke="#191970" points="482.4375,-63.0035 473.3232,-68.4053 483.8168,-69.8663 482.4375,-63.0035"/>
</g>
<!-- Node214&#45;&gt;Node215 -->
<g id="edge14" class="edge">
<title>Node214&#45;&gt;Node215</title>
<path fill="none" stroke="#191970" d="M622.5651,-67.6885C645.4163,-62.0315 673.5781,-55.0598 695.9373,-49.5247"/>
<polygon fill="#191970" stroke="#191970" points="621.6712,-64.304 612.8053,-70.1046 623.3534,-71.0989 621.6712,-64.304"/>
</g>
<!-- Node216 -->
<g id="node15" class="node">
<title>Node216</title>
<g id="a_node15"><a xlink:href="classEngine.html#a83b7dbeee899b36a13d5b07c7ad87ebc" target="_top" xlink:title="Loads a saved game Loads a saved Game. ">
<polygon fill="none" stroke="#000000" points="846,-30.4782 846,-49.4782 952,-49.4782 952,-30.4782 846,-30.4782"/>
<text text-anchor="middle" x="899" y="-37.4782" font-family="Helvetica,sans-Serif" font-size="10.00" fill="#000000">Engine::loadGame</text>
</a>
</g>
</g>
<!-- Node215&#45;&gt;Node216 -->
<g id="edge15" class="edge">
<title>Node215&#45;&gt;Node216</title>
<path fill="none" stroke="#191970" d="M807.4461,-39.9782C820.3866,-39.9782 833.6382,-39.9782 845.8977,-39.9782"/>
<polygon fill="#191970" stroke="#191970" points="807.1597,-36.4783 797.1597,-39.9782 807.1596,-43.4783 807.1597,-36.4783"/>
</g>
<!-- Node217 -->
<g id="node16" class="node">
<title>Node217</title>
<g id="a_node16"><a xlink:href="classEngine.html#a0ba57971ffb5173ecc425461f65a4cd8" target="_top" xlink:title="Quits the game Sets m_running to false and quitting the game. ">
<polygon fill="none" stroke="#000000" points="1013.5,-68.4782 1013.5,-87.4782 1117.5,-87.4782 1117.5,-68.4782 1013.5,-68.4782"/>
<text text-anchor="middle" x="1065.5" y="-75.4782" font-family="Helvetica,sans-Serif" font-size="10.00" fill="#000000">Engine::quitGame</text>
</a>
</g>
</g>
<!-- Node216&#45;&gt;Node217 -->
<g id="edge16" class="edge">
<title>Node216&#45;&gt;Node217</title>
<path fill="none" stroke="#191970" d="M950.809,-51.8025C974.2825,-57.1598 1001.6654,-63.4093 1023.7871,-68.4581"/>
<polygon fill="#191970" stroke="#191970" points="951.5431,-48.3801 941.015,-49.5672 949.9855,-55.2046 951.5431,-48.3801"/>
</g>
<!-- Node218 -->
<g id="node17" class="node">
<title>Node218</title>
<g id="a_node17"><a xlink:href="classUIManager.html#aa78e356fc3b356d790c848319d1c387e" target="_top" xlink:title="UIManager::setCallbackFunctions">
<polygon fill="none" stroke="#000000" points="1166,-30.4782 1166,-49.4782 1344,-49.4782 1344,-30.4782 1166,-30.4782"/>
<text text-anchor="middle" x="1255" y="-37.4782" font-family="Helvetica,sans-Serif" font-size="10.00" fill="#000000">UIManager::setCallbackFunctions</text>
</a>
</g>
</g>
<!-- Node216&#45;&gt;Node218 -->
<g id="edge22" class="edge">
<title>Node216&#45;&gt;Node218</title>
<path fill="none" stroke="#191970" d="M962.5355,-39.9782C1019.0967,-39.9782 1102.4356,-39.9782 1165.6965,-39.9782"/>
<polygon fill="#191970" stroke="#191970" points="962.2968,-36.4783 952.2968,-39.9782 962.2968,-43.4783 962.2968,-36.4783"/>
</g>
<!-- Node220 -->
<g id="node19" class="node">
<title>Node220</title>
<g id="a_node19"><a xlink:href="classGame.html#a560299f0291c281f7b44e7ef0dd7b264" target="_top" xlink:title="initializes and displays the main menu initializes and displays the main menu ">
<polygon fill="none" stroke="#000000" points="1380,-68.4782 1380,-87.4782 1483,-87.4782 1483,-68.4782 1380,-68.4782"/>
<text text-anchor="middle" x="1431.5" y="-75.4782" font-family="Helvetica,sans-Serif" font-size="10.00" fill="#000000">Game::mainMenu</text>
</a>
</g>
</g>
<!-- Node216&#45;&gt;Node220 -->
<g id="edge23" class="edge">
<title>Node216&#45;&gt;Node220</title>
<path fill="none" stroke="#191970" d="M945.866,-28.1673C1028.3522,-9.5144 1203.9939,20.6017 1344,-20.9782 1375.2834,-30.2689 1405.8332,-54.6745 1421.215,-68.3465"/>
<polygon fill="#191970" stroke="#191970" points="944.9968,-24.7758 936.0403,-30.4354 946.5713,-31.5964 944.9968,-24.7758"/>
</g>
<!-- Node217&#45;&gt;Node207 -->
<g id="edge17" class="edge">
<title>Node217&#45;&gt;Node207</title>
<path fill="none" stroke="#191970" d="M1123.3948,-89.5877C1150.346,-94.9922 1182.0102,-101.3417 1207.525,-106.4581"/>
<polygon fill="#191970" stroke="#191970" points="1123.8118,-86.1017 1113.3189,-87.5672 1122.4355,-92.9651 1123.8118,-86.1017"/>
</g>
<!-- Node217&#45;&gt;Node218 -->
<g id="edge18" class="edge">
<title>Node217&#45;&gt;Node218</title>
<path fill="none" stroke="#191970" d="M1123.3948,-66.3687C1150.346,-60.9642 1182.0102,-54.6147 1207.525,-49.4982"/>
<polygon fill="#191970" stroke="#191970" points="1122.4355,-62.9913 1113.3189,-68.3892 1123.8118,-69.8547 1122.4355,-62.9913"/>
</g>
<!-- Node219 -->
<g id="node18" class="node">
<title>Node219</title>
<g id="a_node18"><a xlink:href="classGame.html#a8272be134d16c277bb014ad6a22fc357" target="_top" xlink:title="Game::quit">
<polygon fill="none" stroke="#000000" points="1219.5,-68.4782 1219.5,-87.4782 1290.5,-87.4782 1290.5,-68.4782 1219.5,-68.4782"/>
<text text-anchor="middle" x="1255" y="-75.4782" font-family="Helvetica,sans-Serif" font-size="10.00" fill="#000000">Game::quit</text>
</a>
</g>
</g>
<!-- Node217&#45;&gt;Node219 -->
<g id="edge19" class="edge">
<title>Node217&#45;&gt;Node219</title>
<path fill="none" stroke="#191970" d="M1127.619,-77.9782C1158.001,-77.9782 1193.482,-77.9782 1219.27,-77.9782"/>
<polygon fill="#191970" stroke="#191970" points="1127.5324,-74.4783 1117.5324,-77.9782 1127.5323,-81.4783 1127.5324,-74.4783"/>
</g>
<!-- Node219&#45;&gt;Node220 -->
<g id="edge20" class="edge">
<title>Node219&#45;&gt;Node220</title>
<path fill="none" stroke="#191970" d="M1301.0403,-77.9782C1325.1836,-77.9782 1354.8403,-77.9782 1379.7739,-77.9782"/>
<polygon fill="#191970" stroke="#191970" points="1300.7174,-74.4783 1290.7174,-77.9782 1300.7174,-81.4783 1300.7174,-74.4783"/>
</g>
<!-- Node220&#45;&gt;Node209 -->
<g id="edge21" class="edge">
<title>Node220&#45;&gt;Node209</title>
<path fill="none" stroke="#191970" d="M1493.2457,-86.7332C1501.7846,-87.9439 1510.438,-89.1709 1518.6465,-90.3348"/>
<polygon fill="#191970" stroke="#191970" points="1493.7003,-83.2627 1483.3079,-85.3241 1492.7175,-90.1934 1493.7003,-83.2627"/>
</g>
<!-- Node221&#45;&gt;Node203 -->
<g id="edge28" class="edge">
<title>Node221&#45;&gt;Node203</title>
<path fill="none" stroke="#191970" d="M363.2975,-122.5748C353.7622,-122.7287 343.8932,-122.7668 334.1928,-122.689"/>
<polygon fill="#191970" stroke="#191970" points="363.5647,-126.0701 373.4896,-122.3623 363.4187,-119.0716 363.5647,-126.0701"/>
</g>
<!-- Node221&#45;&gt;Node204 -->
<g id="edge27" class="edge">
<title>Node221&#45;&gt;Node204</title>
<path fill="none" stroke="#191970" d="M477.8431,-128.0182C498.9386,-133.327 523.3766,-139.4769 543.1703,-144.4581"/>
<polygon fill="#191970" stroke="#191970" points="478.6555,-124.6136 468.1037,-125.5672 476.9471,-131.4019 478.6555,-124.6136"/>
</g>
<!-- Node221&#45;&gt;Node207 -->
<g id="edge26" class="edge">
<title>Node221&#45;&gt;Node207</title>
<path fill="none" stroke="#191970" d="M497.0563,-115.9782C558.754,-115.9782 652.7932,-115.9782 734.5,-115.9782 734.5,-115.9782 734.5,-115.9782 899,-115.9782 995.1076,-115.9782 1105.8097,-115.9782 1177.9163,-115.9782"/>
<polygon fill="#191970" stroke="#191970" points="496.6818,-112.4783 486.6818,-115.9782 496.6818,-119.4783 496.6818,-112.4783"/>
</g>
</g>
</svg>
