<?xml version="1.0" encoding="UTF-8" standalone="no"?>
<!DOCTYPE svg PUBLIC "-//W3C//DTD SVG 1.1//EN"
 "http://www.w3.org/Graphics/SVG/1.1/DTD/svg11.dtd">
<!-- Generated by graphviz version 2.40.1 (20161225.0304)
 -->
<!-- Title: Map::getColorOfPixelInSurface Pages: 1 -->
<svg width="1192pt" height="47pt"
 viewBox="0.00 0.00 1192.00 47.00" xmlns="http://www.w3.org/2000/svg" xmlns:xlink="http://www.w3.org/1999/xlink">
<g id="graph0" class="graph" transform="scale(1 1) rotate(0) translate(4 43)">
<title>Map::getColorOfPixelInSurface</title>
<!-- Node192 -->
<g id="node1" class="node">
<title>Node192</title>
<polygon fill="#bfbfbf" stroke="#000000" points="0,-.5 0,-19.5 165,-19.5 165,-.5 0,-.5"/>
<text text-anchor="middle" x="82.5" y="-7.5" font-family="Helvetica,sans-Serif" font-size="10.00" fill="#000000">Map::getColorOfPixelInSurface</text>
</g>
<!-- Node193 -->
<g id="node2" class="node">
<title>Node193</title>
<g id="a_node2"><a xlink:href="classMap.html#a352929ea8cc2efc4f415c7ec795e1538" target="_top" xlink:title="Map::isClickWithinTile">
<polygon fill="none" stroke="#000000" points="201,-.5 201,-19.5 326,-19.5 326,-.5 201,-.5"/>
<text text-anchor="middle" x="263.5" y="-7.5" font-family="Helvetica,sans-Serif" font-size="10.00" fill="#000000">Map::isClickWithinTile</text>
</a>
</g>
</g>
<!-- Node192&#45;&gt;Node193 -->
<g id="edge1" class="edge">
<title>Node192&#45;&gt;Node193</title>
<path fill="none" stroke="#191970" d="M175.2288,-10C183.901,-10 192.5459,-10 200.8447,-10"/>
<polygon fill="#191970" stroke="#191970" points="175.055,-6.5001 165.055,-10 175.055,-13.5001 175.055,-6.5001"/>
</g>
<!-- Node194 -->
<g id="node3" class="node">
<title>Node194</title>
<g id="a_node3"><a xlink:href="classMap.html#a64e71e521c539cf28828be9978c34889" target="_top" xlink:title="Returns the node at given screencoordinates. ">
<polygon fill="none" stroke="#000000" points="362,-.5 362,-19.5 478,-19.5 478,-.5 362,-.5"/>
<text text-anchor="middle" x="420" y="-7.5" font-family="Helvetica,sans-Serif" font-size="10.00" fill="#000000">Map::findNodeInMap</text>
</a>
</g>
</g>
<!-- Node193&#45;&gt;Node194 -->
<g id="edge2" class="edge">
<title>Node193&#45;&gt;Node194</title>
<path fill="none" stroke="#191970" d="M336.524,-10C345,-10 353.5581,-10 361.7982,-10"/>
<polygon fill="#191970" stroke="#191970" points="336.2528,-6.5001 326.2528,-10 336.2528,-13.5001 336.2528,-6.5001"/>
</g>
<!-- Node195 -->
<g id="node4" class="node">
<title>Node195</title>
<g id="a_node4"><a xlink:href="isoMath_8hxx.html#ad3c5f070c4a876bc6e8978635d02ce52" target="_top" xlink:title="converts screen space coordinates to isometric space coordinates. To convert screen coordinates in to...">
<polygon fill="none" stroke="#000000" points="514,-19.5 514,-38.5 684,-38.5 684,-19.5 514,-19.5"/>
<text text-anchor="middle" x="599" y="-26.5" font-family="Helvetica,sans-Serif" font-size="10.00" fill="#000000">convertScreenToIsoCoordinates</text>
</a>
</g>
</g>
<!-- Node194&#45;&gt;Node195 -->
<g id="edge3" class="edge">
<title>Node194&#45;&gt;Node195</title>
<path fill="none" stroke="#191970" d="M488.2057,-17.2397C496.6028,-18.131 505.2655,-19.0505 513.874,-19.9643"/>
<polygon fill="#191970" stroke="#191970" points="488.4298,-13.7439 478.1162,-16.1688 487.6908,-20.7048 488.4298,-13.7439"/>
</g>
<!-- Node196 -->
<g id="node5" class="node">
<title>Node196</title>
<g id="a_node5"><a xlink:href="classEventManager.html#a65ec91fd5016d4f9c4167fb8babed2df" target="_top" xlink:title="EventManager::checkEvents">
<polygon fill="none" stroke="#000000" points="720,-.5 720,-19.5 874,-19.5 874,-.5 720,-.5"/>
<text text-anchor="middle" x="797" y="-7.5" font-family="Helvetica,sans-Serif" font-size="10.00" fill="#000000">EventManager::checkEvents</text>
</a>
</g>
</g>
<!-- Node194&#45;&gt;Node196 -->
<g id="edge8" class="edge">
<title>Node194&#45;&gt;Node196</title>
<path fill="none" stroke="#191970" d="M488.2632,-10C553.5391,-10 651.8334,-10 719.9019,-10"/>
<polygon fill="#191970" stroke="#191970" points="488.0801,-6.5001 478.08,-10 488.08,-13.5001 488.0801,-6.5001"/>
</g>
<!-- Node195&#45;&gt;Node196 -->
<g id="edge4" class="edge">
<title>Node195&#45;&gt;Node196</title>
<path fill="none" stroke="#191970" d="M694.161,-19.8684C702.7436,-19.0448 711.3647,-18.2175 719.7658,-17.4114"/>
<polygon fill="#191970" stroke="#191970" points="693.7388,-16.3927 684.1189,-20.832 694.4075,-23.3607 693.7388,-16.3927"/>
</g>
<!-- Node197 -->
<g id="node6" class="node">
<title>Node197</title>
<g id="a_node6"><a xlink:href="classGame.html#a1c2ab25d5216b2f4b2fe41efd2c09114" target="_top" xlink:title="begins the game starts running the game ">
<polygon fill="none" stroke="#000000" points="910,-.5 910,-19.5 978,-19.5 978,-.5 910,-.5"/>
<text text-anchor="middle" x="944" y="-7.5" font-family="Helvetica,sans-Serif" font-size="10.00" fill="#000000">Game::run</text>
</a>
</g>
</g>
<!-- Node196&#45;&gt;Node197 -->
<g id="edge5" class="edge">
<title>Node196&#45;&gt;Node197</title>
<path fill="none" stroke="#191970" d="M884.5248,-10C893.4338,-10 902.0572,-10 909.845,-10"/>
<polygon fill="#191970" stroke="#191970" points="884.3744,-6.5001 874.3744,-10 884.3743,-13.5001 884.3744,-6.5001"/>
</g>
<!-- Node198 -->
<g id="node7" class="node">
<title>Node198</title>
<g id="a_node7"><a xlink:href="main_8cxx.html#af582d708d899e67ead623eac34a22387" target="_top" xlink:title="protected_main">
<polygon fill="none" stroke="#000000" points="1014,-.5 1014,-19.5 1107,-19.5 1107,-.5 1014,-.5"/>
<text text-anchor="middle" x="1060.5" y="-7.5" font-family="Helvetica,sans-Serif" font-size="10.00" fill="#000000">protected_main</text>
</a>
</g>
</g>
<!-- Node197&#45;&gt;Node198 -->
<g id="edge6" class="edge">
<title>Node197&#45;&gt;Node198</title>
<path fill="none" stroke="#191970" d="M988.2653,-10C996.5757,-10 1005.2897,-10 1013.6749,-10"/>
<polygon fill="#191970" stroke="#191970" points="988.0098,-6.5001 978.0098,-10 988.0098,-13.5001 988.0098,-6.5001"/>
</g>
<!-- Node199 -->
<g id="node8" class="node">
<title>Node199</title>
<g id="a_node8"><a xlink:href="main_8cxx.html#a3c04138a5bfe5d72780bb7e82a18e627" target="_top" xlink:title="main">
<polygon fill="none" stroke="#000000" points="1143,-.5 1143,-19.5 1184,-19.5 1184,-.5 1143,-.5"/>
<text text-anchor="middle" x="1163.5" y="-7.5" font-family="Helvetica,sans-Serif" font-size="10.00" fill="#000000">main</text>
</a>
</g>
</g>
<!-- Node198&#45;&gt;Node199 -->
<g id="edge7" class="edge">
<title>Node198&#45;&gt;Node199</title>
<path fill="none" stroke="#191970" d="M1117.2133,-10C1126.4322,-10 1135.4259,-10 1142.9965,-10"/>
<polygon fill="#191970" stroke="#191970" points="1117.1782,-6.5001 1107.1782,-10 1117.1781,-13.5001 1117.1782,-6.5001"/>
</g>
</g>
</svg>
