<?xml version="1.0" encoding="UTF-8" standalone="no"?>
<!DOCTYPE svg PUBLIC "-//W3C//DTD SVG 1.1//EN"
 "http://www.w3.org/Graphics/SVG/1.1/DTD/svg11.dtd">
<!-- Generated by graphviz version 2.40.1 (20161225.0304)
 -->
<!-- Title: Engine::increaseHeight Pages: 1 -->
<svg width="1363pt" height="436pt"
 viewBox="0.00 0.00 1363.00 435.60" xmlns="http://www.w3.org/2000/svg" xmlns:xlink="http://www.w3.org/1999/xlink">
<g id="graph0" class="graph" transform="scale(1 1) rotate(0) translate(4 431.5952)">
<title>Engine::increaseHeight</title>
<!-- Node31 -->
<g id="node1" class="node">
<title>Node31</title>
<polygon fill="#bfbfbf" stroke="#000000" points="0,-158.9874 0,-177.9874 129,-177.9874 129,-158.9874 0,-158.9874"/>
<text text-anchor="middle" x="64.5" y="-165.9874" font-family="Helvetica,sans-Serif" font-size="10.00" fill="#000000">Engine::increaseHeight</text>
</g>
<!-- Node32 -->
<g id="node2" class="node">
<title>Node32</title>
<g id="a_node2"><a xlink:href="classMap.html#aba5154a4d917900679a3c0f7ec701561" target="_top" xlink:title="Increase Height Increases the height of the node and checks the surrounding tiles. Either draw a slope sprite or elevate the tile if necessary. ">
<polygon fill="none" stroke="#000000" points="165,-158.9874 165,-177.9874 281,-177.9874 281,-158.9874 165,-158.9874"/>
<text text-anchor="middle" x="223" y="-165.9874" font-family="Helvetica,sans-Serif" font-size="10.00" fill="#000000">Map::increaseHeight</text>
</a>
</g>
</g>
<!-- Node31&#45;&gt;Node32 -->
<g id="edge1" class="edge">
<title>Node31&#45;&gt;Node32</title>
<path fill="none" stroke="#191970" d="M129.4253,-168.4874C137.7521,-168.4874 146.2972,-168.4874 154.6761,-168.4874"/>
<polygon fill="#191970" stroke="#191970" points="154.7883,-171.9875 164.7883,-168.4874 154.7883,-164.9875 154.7883,-171.9875"/>
</g>
<!-- Node33 -->
<g id="node3" class="node">
<title>Node33</title>
<g id="a_node3"><a xlink:href="classMap.html#ade1eeabf4e539f9dbfe2a96c97fda4e3" target="_top" xlink:title="Map::changeHeight">
<polygon fill="none" stroke="#000000" points="317,-158.9874 317,-177.9874 427,-177.9874 427,-158.9874 317,-158.9874"/>
<text text-anchor="middle" x="372" y="-165.9874" font-family="Helvetica,sans-Serif" font-size="10.00" fill="#000000">Map::changeHeight</text>
</a>
</g>
</g>
<!-- Node32&#45;&gt;Node33 -->
<g id="edge2" class="edge">
<title>Node32&#45;&gt;Node33</title>
<path fill="none" stroke="#191970" d="M281.0339,-168.4874C289.3992,-168.4874 298.0561,-168.4874 306.5535,-168.4874"/>
<polygon fill="#191970" stroke="#191970" points="306.809,-171.9875 316.809,-168.4874 306.809,-164.9875 306.809,-171.9875"/>
</g>
<!-- Node34 -->
<g id="node4" class="node">
<title>Node34</title>
<g id="a_node4"><a xlink:href="classMap.html#a1676db3d125b2c1764adfcb64d6332a2" target="_top" xlink:title="Map::nodeIdx">
<polygon fill="none" stroke="#000000" points="1054,-405.9874 1054,-424.9874 1136,-424.9874 1136,-405.9874 1054,-405.9874"/>
<text text-anchor="middle" x="1095" y="-412.9874" font-family="Helvetica,sans-Serif" font-size="10.00" fill="#000000">Map::nodeIdx</text>
</a>
</g>
</g>
<!-- Node33&#45;&gt;Node34 -->
<g id="edge3" class="edge">
<title>Node33&#45;&gt;Node34</title>
<path fill="none" stroke="#191970" d="M377.8025,-178.2148C390.8775,-199.5297 424.5224,-251.1105 463,-284.4874 520.7589,-334.5896 541.4414,-341.0288 612,-370.4874 762.517,-433.3291 812.0056,-430.5911 975,-424.4874 997.6061,-423.6409 1022.5574,-421.9003 1043.8257,-420.1734"/>
<polygon fill="#191970" stroke="#191970" points="1044.2692,-423.6487 1053.9442,-419.3308 1043.6882,-416.6729 1044.2692,-423.6487"/>
</g>
<!-- Node35 -->
<g id="node5" class="node">
<title>Node35</title>
<g id="a_node5"><a xlink:href="classMap.html#ad360682917f0061dbba995d645c56212" target="_top" xlink:title="Map::getNeighborNodes">
<polygon fill="none" stroke="#000000" points="825,-367.9874 825,-386.9874 959,-386.9874 959,-367.9874 825,-367.9874"/>
<text text-anchor="middle" x="892" y="-374.9874" font-family="Helvetica,sans-Serif" font-size="10.00" fill="#000000">Map::getNeighborNodes</text>
</a>
</g>
</g>
<!-- Node33&#45;&gt;Node35 -->
<g id="edge4" class="edge">
<title>Node33&#45;&gt;Node35</title>
<path fill="none" stroke="#191970" d="M383.629,-178.084C416.924,-205.0426 516.3774,-281.995 612,-320.4874 677.7706,-346.963 757.3733,-361.6426 814.8649,-369.4452"/>
<polygon fill="#191970" stroke="#191970" points="814.602,-372.9408 824.9736,-370.7774 815.5166,-366.0008 814.602,-372.9408"/>
</g>
<!-- Node38 -->
<g id="node8" class="node">
<title>Node38</title>
<g id="a_node8"><a xlink:href="classMap.html#a9751d8dc0c6b2b127400b05994118aba" target="_top" xlink:title="Map::updateHeight">
<polygon fill="none" stroke="#000000" points="837.5,-13.9874 837.5,-32.9874 946.5,-32.9874 946.5,-13.9874 837.5,-13.9874"/>
<text text-anchor="middle" x="892" y="-20.9874" font-family="Helvetica,sans-Serif" font-size="10.00" fill="#000000">Map::updateHeight</text>
</a>
</g>
</g>
<!-- Node33&#45;&gt;Node38 -->
<g id="edge8" class="edge">
<title>Node33&#45;&gt;Node38</title>
<path fill="none" stroke="#191970" d="M375.8853,-158.6674C386.0034,-134.5933 415.712,-72.7668 463,-47.4874 582.6358,16.4679 748.7885,1.6694 834.9956,-12.2671"/>
<polygon fill="#191970" stroke="#191970" points="834.6636,-15.76 845.1039,-13.957 835.8179,-8.8559 834.6636,-15.76"/>
</g>
<!-- Node40 -->
<g id="node10" class="node">
<title>Node40</title>
<g id="a_node10"><a xlink:href="classMap.html#aa8cc2ed983007621bce12dd9d1b8ec5b" target="_top" xlink:title="Demolish a node This function gathers all tiles that should be demolished and invokes the nodes demol...">
<polygon fill="none" stroke="#000000" points="463,-196.9874 463,-215.9874 576,-215.9874 576,-196.9874 463,-196.9874"/>
<text text-anchor="middle" x="519.5" y="-203.9874" font-family="Helvetica,sans-Serif" font-size="10.00" fill="#000000">Map::demolishNode</text>
</a>
</g>
</g>
<!-- Node33&#45;&gt;Node40 -->
<g id="edge10" class="edge">
<title>Node33&#45;&gt;Node40</title>
<path fill="none" stroke="#191970" d="M409.2205,-178.0764C428.5093,-183.0457 452.2584,-189.1641 472.771,-194.4488"/>
<polygon fill="#191970" stroke="#191970" points="471.9902,-197.8618 482.5472,-196.9674 473.7366,-191.0831 471.9902,-197.8618"/>
</g>
<!-- Node45 -->
<g id="node15" class="node">
<title>Node45</title>
<g id="a_node15"><a xlink:href="classMap.html#af1e496c421981fe707890b0ba60cc20f" target="_top" xlink:title="Map::updateNodeNeighbors">
<polygon fill="none" stroke="#000000" points="616.5,-139.9874 616.5,-158.9874 768.5,-158.9874 768.5,-139.9874 616.5,-139.9874"/>
<text text-anchor="middle" x="692.5" y="-146.9874" font-family="Helvetica,sans-Serif" font-size="10.00" fill="#000000">Map::updateNodeNeighbors</text>
</a>
</g>
</g>
<!-- Node33&#45;&gt;Node45 -->
<g id="edge30" class="edge">
<title>Node33&#45;&gt;Node45</title>
<path fill="none" stroke="#191970" d="M427.0959,-165.2212C476.3124,-162.3035 549.2212,-157.9813 606.1754,-154.6049"/>
<polygon fill="#191970" stroke="#191970" points="606.4777,-158.0933 616.2531,-154.0075 606.0634,-151.1055 606.4777,-158.0933"/>
</g>
<!-- Node46 -->
<g id="node16" class="node">
<title>Node46</title>
<g id="a_node16"><a xlink:href="classMapNode.html#a67296a58e167356efbabeaac3226b5d3" target="_top" xlink:title="get iso coordinates of this node gets the iso coordinates of this node ">
<polygon fill="none" stroke="#000000" points="1023.5,-95.9874 1023.5,-114.9874 1166.5,-114.9874 1166.5,-95.9874 1023.5,-95.9874"/>
<text text-anchor="middle" x="1095" y="-102.9874" font-family="Helvetica,sans-Serif" font-size="10.00" fill="#000000">MapNode::getCoordinates</text>
</a>
</g>
</g>
<!-- Node33&#45;&gt;Node46 -->
<g id="edge29" class="edge">
<title>Node33&#45;&gt;Node46</title>
<path fill="none" stroke="#191970" d="M401.3804,-158.9723C488.5529,-131.8704 753.4719,-57.6567 975,-80.4874 999.7821,-83.0415 1026.9936,-88.4878 1049.2299,-93.6469"/>
<polygon fill="#191970" stroke="#191970" points="1048.5316,-97.0784 1059.0699,-95.9857 1050.1503,-90.2681 1048.5316,-97.0784"/>
</g>
<!-- Node35&#45;&gt;Node34 -->
<g id="edge7" class="edge">
<title>Node35&#45;&gt;Node34</title>
<path fill="none" stroke="#191970" d="M942.9634,-387.0274C973.7748,-392.795 1012.9275,-400.1241 1043.7842,-405.9002"/>
<polygon fill="#191970" stroke="#191970" points="1043.4333,-409.3952 1053.9066,-407.795 1044.7213,-402.5148 1043.4333,-409.3952"/>
</g>
<!-- Node36 -->
<g id="node6" class="node">
<title>Node36</title>
<g id="a_node6"><a xlink:href="isoMath_8cxx.html#a7fa61c3d8ef446fb1c48dc4838023649" target="_top" xlink:title="Check if given coordinates are within map boundaries Checks if coordinates are within map boundaries...">
<polygon fill="none" stroke="#000000" points="1017,-329.9874 1017,-348.9874 1173,-348.9874 1173,-329.9874 1017,-329.9874"/>
<text text-anchor="middle" x="1095" y="-336.9874" font-family="Helvetica,sans-Serif" font-size="10.00" fill="#000000">isPointWithinMapBoundaries</text>
</a>
</g>
</g>
<!-- Node35&#45;&gt;Node36 -->
<g id="edge5" class="edge">
<title>Node35&#45;&gt;Node36</title>
<path fill="none" stroke="#191970" d="M942.9634,-367.9475C970.5941,-362.7752 1004.9328,-356.3473 1033.9811,-350.9097"/>
<polygon fill="#191970" stroke="#191970" points="1034.8303,-354.3116 1044.0156,-349.0313 1033.5423,-347.4311 1034.8303,-354.3116"/>
</g>
<!-- Node37 -->
<g id="node7" class="node">
<title>Node37</title>
<g id="a_node7"><a xlink:href="classSingleton.html#af5cb1e5749949e2b68416cfb8d378044" target="_top" xlink:title="Get an instance of the singleton. ">
<polygon fill="none" stroke="#000000" points="1228.5,-286.4874 1228.5,-316.4874 1341.5,-316.4874 1341.5,-286.4874 1228.5,-286.4874"/>
<text text-anchor="start" x="1236.5" y="-304.4874" font-family="Helvetica,sans-Serif" font-size="10.00" fill="#000000">Singleton&lt; Settings</text>
<text text-anchor="middle" x="1285" y="-293.4874" font-family="Helvetica,sans-Serif" font-size="10.00" fill="#000000"> &gt;::instance</text>
</a>
</g>
</g>
<!-- Node36&#45;&gt;Node37 -->
<g id="edge6" class="edge">
<title>Node36&#45;&gt;Node37</title>
<path fill="none" stroke="#191970" d="M1142.945,-329.8984C1165.7476,-325.3379 1193.3891,-319.8096 1218.2063,-314.8461"/>
<polygon fill="#191970" stroke="#191970" points="1219.1639,-318.224 1228.2832,-312.8308 1217.791,-311.36 1219.1639,-318.224"/>
</g>
<!-- Node39 -->
<g id="node9" class="node">
<title>Node39</title>
<g id="a_node9"><a xlink:href="classMapNode.html#a10dded7848621ba007c3d3fc85392e32" target="_top" xlink:title="Change Height Increases or decrease the height of the node and its sprite This function should not be...">
<polygon fill="none" stroke="#000000" points="1027,-13.9874 1027,-32.9874 1163,-32.9874 1163,-13.9874 1027,-13.9874"/>
<text text-anchor="middle" x="1095" y="-20.9874" font-family="Helvetica,sans-Serif" font-size="10.00" fill="#000000">MapNode::changeHeight</text>
</a>
</g>
</g>
<!-- Node38&#45;&gt;Node39 -->
<g id="edge9" class="edge">
<title>Node38&#45;&gt;Node39</title>
<path fill="none" stroke="#191970" d="M946.6673,-23.4874C968.1492,-23.4874 993.2159,-23.4874 1016.5634,-23.4874"/>
<polygon fill="#191970" stroke="#191970" points="1016.7984,-26.9875 1026.7984,-23.4874 1016.7983,-19.9875 1016.7984,-26.9875"/>
</g>
<!-- Node40&#45;&gt;Node34 -->
<g id="edge12" class="edge">
<title>Node40&#45;&gt;Node34</title>
<path fill="none" stroke="#191970" d="M524.9237,-216.1628C537.5049,-237.7926 570.7711,-290.5109 612,-320.4874 744.4155,-416.7634 949.122,-422.1475 1043.7773,-418.7591"/>
<polygon fill="#191970" stroke="#191970" points="1044.0994,-422.249 1053.9488,-418.3454 1043.8148,-415.2548 1044.0994,-422.249"/>
</g>
<!-- Node40&#45;&gt;Node36 -->
<g id="edge11" class="edge">
<title>Node40&#45;&gt;Node36</title>
<path fill="none" stroke="#191970" d="M528.1263,-216.2089C543.3257,-232.6739 576.6335,-265.8734 612,-282.4874 739.6381,-342.4475 906.3109,-348.4324 1006.7601,-345.3483"/>
<polygon fill="#191970" stroke="#191970" points="1006.9972,-348.8423 1016.8708,-345.0003 1006.7563,-341.8465 1006.9972,-348.8423"/>
</g>
<!-- Node41 -->
<g id="node11" class="node">
<title>Node41</title>
<g id="a_node11"><a xlink:href="classMapNode.html#a6b57e4355d0780fb37c34d63bbcdfdf9" target="_top" xlink:title="MapNode::getMapNodeDataFor\lLayer">
<polygon fill="none" stroke="#000000" points="1011,-204.4874 1011,-234.4874 1179,-234.4874 1179,-204.4874 1011,-204.4874"/>
<text text-anchor="start" x="1019" y="-222.4874" font-family="Helvetica,sans-Serif" font-size="10.00" fill="#000000">MapNode::getMapNodeDataFor</text>
<text text-anchor="middle" x="1095" y="-211.4874" font-family="Helvetica,sans-Serif" font-size="10.00" fill="#000000">Layer</text>
</a>
</g>
</g>
<!-- Node40&#45;&gt;Node41 -->
<g id="edge13" class="edge">
<title>Node40&#45;&gt;Node41</title>
<path fill="none" stroke="#191970" d="M576.2562,-207.7695C675.1761,-210.004 880.1003,-214.633 1000.6667,-217.3565"/>
<polygon fill="#191970" stroke="#191970" points="1000.9124,-220.8629 1010.9889,-217.5897 1001.0706,-213.8646 1000.9124,-220.8629"/>
</g>
<!-- Node42 -->
<g id="node12" class="node">
<title>Node42</title>
<g id="a_node12"><a xlink:href="classMapNode.html#ad74bb8fd5b519f5e909f0e807960a918" target="_top" xlink:title="MapNode::getOrigCornerPoint">
<polygon fill="none" stroke="#000000" points="612,-177.9874 612,-196.9874 773,-196.9874 773,-177.9874 612,-177.9874"/>
<text text-anchor="middle" x="692.5" y="-184.9874" font-family="Helvetica,sans-Serif" font-size="10.00" fill="#000000">MapNode::getOrigCornerPoint</text>
</a>
</g>
</g>
<!-- Node40&#45;&gt;Node42 -->
<g id="edge14" class="edge">
<title>Node40&#45;&gt;Node42</title>
<path fill="none" stroke="#191970" d="M576.1467,-200.2661C584.3627,-199.3638 592.9883,-198.4164 601.6722,-197.4627"/>
<polygon fill="#191970" stroke="#191970" points="602.314,-200.9134 611.8721,-196.3425 601.5498,-193.9552 602.314,-200.9134"/>
</g>
<!-- Node43 -->
<g id="node13" class="node">
<title>Node43</title>
<g id="a_node13"><a xlink:href="classMap.html#a3952b445c55efce61c1ccac6f362fe89" target="_top" xlink:title="Return vector of Points of an Object Tiles selection. ">
<polygon fill="none" stroke="#000000" points="630.5,-253.9874 630.5,-272.9874 754.5,-272.9874 754.5,-253.9874 630.5,-253.9874"/>
<text text-anchor="middle" x="692.5" y="-260.9874" font-family="Helvetica,sans-Serif" font-size="10.00" fill="#000000">Map::getObjectCoords</text>
</a>
</g>
</g>
<!-- Node40&#45;&gt;Node43 -->
<g id="edge15" class="edge">
<title>Node40&#45;&gt;Node43</title>
<path fill="none" stroke="#191970" d="M545.2907,-216.1016C563.7757,-222.8909 589.313,-232.0644 612,-239.4874 624.0197,-243.4202 637.1334,-247.4425 649.2207,-251.0424"/>
<polygon fill="#191970" stroke="#191970" points="648.5042,-254.4802 659.086,-253.9557 650.4868,-247.7668 648.5042,-254.4802"/>
</g>
<!-- Node40&#45;&gt;Node45 -->
<g id="edge18" class="edge">
<title>Node40&#45;&gt;Node45</title>
<path fill="none" stroke="#191970" d="M528.512,-196.9034C543.3851,-186.6345 574.3282,-172.4197 606.5734,-161.3622"/>
<polygon fill="#191970" stroke="#191970" points="607.7568,-164.6573 616.1463,-158.1868 605.5528,-158.0132 607.7568,-164.6573"/>
</g>
<!-- Node43&#45;&gt;Node37 -->
<g id="edge16" class="edge">
<title>Node43&#45;&gt;Node37</title>
<path fill="none" stroke="#191970" d="M754.5093,-267.4644C866.709,-274.6603 1102.4847,-289.7818 1218.1416,-297.1994"/>
<polygon fill="#191970" stroke="#191970" points="1218.075,-300.7023 1228.2786,-297.8496 1218.5231,-293.7166 1218.075,-300.7023"/>
</g>
<!-- Node44 -->
<g id="node14" class="node">
<title>Node44</title>
<g id="a_node14"><a xlink:href="classTileManager.html#a8ee071ff8b24926288437d310f9bc714" target="_top" xlink:title="TileManager::getTileData">
<polygon fill="none" stroke="#000000" points="822,-291.9874 822,-310.9874 962,-310.9874 962,-291.9874 822,-291.9874"/>
<text text-anchor="middle" x="892" y="-298.9874" font-family="Helvetica,sans-Serif" font-size="10.00" fill="#000000">TileManager::getTileData</text>
</a>
</g>
</g>
<!-- Node43&#45;&gt;Node44 -->
<g id="edge17" class="edge">
<title>Node43&#45;&gt;Node44</title>
<path fill="none" stroke="#191970" d="M742.5848,-273.0274C769.739,-278.1996 803.4857,-284.6275 832.0332,-290.0652"/>
<polygon fill="#191970" stroke="#191970" points="831.4163,-293.5105 841.8946,-291.9435 832.7262,-286.6341 831.4163,-293.5105"/>
</g>
<!-- Node45&#45;&gt;Node35 -->
<g id="edge19" class="edge">
<title>Node45&#45;&gt;Node35</title>
<path fill="none" stroke="#191970" d="M760.1899,-159.1664C764.8881,-161.6651 769.2416,-164.7319 773,-168.4874 822.1095,-217.5589 769.7548,-263.2199 809,-320.4874 821.8746,-339.2744 843.1432,-353.7027 860.9268,-363.3426"/>
<polygon fill="#191970" stroke="#191970" points="859.3543,-366.4697 869.8459,-367.945 862.5643,-360.249 859.3543,-366.4697"/>
</g>
<!-- Node45&#45;&gt;Node38 -->
<g id="edge20" class="edge">
<title>Node45&#45;&gt;Node38</title>
<path fill="none" stroke="#191970" d="M707.8232,-139.8096C742.432,-117.9514 826.8469,-64.6367 868.2757,-38.4712"/>
<polygon fill="#191970" stroke="#191970" points="870.3118,-41.3249 876.8977,-33.0257 866.5738,-35.4065 870.3118,-41.3249"/>
</g>
<!-- Node45&#45;&gt;Node40 -->
<g id="edge24" class="edge">
<title>Node45&#45;&gt;Node40</title>
<path fill="none" stroke="#191970" d="M677.1704,-159.0309C660.827,-164.584 634.285,-170.3296 612,-177.4874 597.6296,-182.1031 582.3517,-187.9663 568.44,-193.3449"/>
<polygon fill="#191970" stroke="#191970" points="567.1223,-190.1018 559.0551,-196.9698 569.6445,-196.6316 567.1223,-190.1018"/>
</g>
<!-- Node45&#45;&gt;Node46 -->
<g id="edge21" class="edge">
<title>Node45&#45;&gt;Node46</title>
<path fill="none" stroke="#191970" d="M768.605,-146.7151C825.6181,-144.0048 905.4424,-138.8669 975,-129.4874 997.9026,-126.3991 1023.0072,-121.6023 1044.3077,-117.1065"/>
<polygon fill="#191970" stroke="#191970" points="1045.0749,-120.5216 1054.1178,-115.0011 1043.606,-113.6775 1045.0749,-120.5216"/>
</g>
<!-- Node47 -->
<g id="node17" class="node">
<title>Node47</title>
<g id="a_node17"><a xlink:href="classMap.html#a769a53961d4a0dd34ee080d2da8c171e" target="_top" xlink:title="Map::getElevatedNeighbor\lBitmask">
<polygon fill="none" stroke="#000000" points="819,-90.4874 819,-120.4874 965,-120.4874 965,-90.4874 819,-90.4874"/>
<text text-anchor="start" x="827" y="-108.4874" font-family="Helvetica,sans-Serif" font-size="10.00" fill="#000000">Map::getElevatedNeighbor</text>
<text text-anchor="middle" x="892" y="-97.4874" font-family="Helvetica,sans-Serif" font-size="10.00" fill="#000000">Bitmask</text>
</a>
</g>
</g>
<!-- Node45&#45;&gt;Node47 -->
<g id="edge22" class="edge">
<title>Node45&#45;&gt;Node47</title>
<path fill="none" stroke="#191970" d="M735.7885,-139.9401C758.5507,-134.9198 787.1615,-128.6097 813.6576,-122.7659"/>
<polygon fill="#191970" stroke="#191970" points="814.6808,-126.1245 823.6923,-120.5528 813.1731,-119.2887 814.6808,-126.1245"/>
</g>
<!-- Node48 -->
<g id="node18" class="node">
<title>Node48</title>
<g id="a_node18"><a xlink:href="classMap.html#af192be95053d30ea6c6d9327106bf6d8" target="_top" xlink:title="Get a bitmask that represents same&#45;tile neighbors Checks all neighboring tiles and returns the elevat...">
<polygon fill="none" stroke="#000000" points="809,-177.9874 809,-196.9874 975,-196.9874 975,-177.9874 809,-177.9874"/>
<text text-anchor="middle" x="892" y="-184.9874" font-family="Helvetica,sans-Serif" font-size="10.00" fill="#000000">Map::calculateAutotileBitmask</text>
</a>
</g>
</g>
<!-- Node45&#45;&gt;Node48 -->
<g id="edge25" class="edge">
<title>Node45&#45;&gt;Node48</title>
<path fill="none" stroke="#191970" d="M742.5848,-159.0274C769.739,-164.1996 803.4857,-170.6275 832.0332,-176.0652"/>
<polygon fill="#191970" stroke="#191970" points="831.4163,-179.5105 841.8946,-177.9435 832.7262,-172.6341 831.4163,-179.5105"/>
</g>
<!-- Node47&#45;&gt;Node46 -->
<g id="edge23" class="edge">
<title>Node47&#45;&gt;Node46</title>
<path fill="none" stroke="#191970" d="M965.0009,-105.4874C980.5725,-105.4874 997.118,-105.4874 1013.0014,-105.4874"/>
<polygon fill="#191970" stroke="#191970" points="1013.3266,-108.9875 1023.3266,-105.4874 1013.3266,-101.9875 1013.3266,-108.9875"/>
</g>
<!-- Node48&#45;&gt;Node41 -->
<g id="edge26" class="edge">
<title>Node48&#45;&gt;Node41</title>
<path fill="none" stroke="#191970" d="M952.3571,-197.0018C967.5524,-199.3971 984.2285,-202.0259 1000.6536,-204.6151"/>
<polygon fill="#191970" stroke="#191970" points="1000.4096,-208.1198 1010.8327,-206.2197 1001.4997,-201.2051 1000.4096,-208.1198"/>
</g>
<!-- Node49 -->
<g id="node19" class="node">
<title>Node49</title>
<g id="a_node19"><a xlink:href="classMapNode.html#afb1cbc0f9e987b7befced46220dd9277" target="_top" xlink:title="check if specific layer can be autotiled. ">
<polygon fill="none" stroke="#000000" points="1023,-165.9874 1023,-184.9874 1167,-184.9874 1167,-165.9874 1023,-165.9874"/>
<text text-anchor="middle" x="1095" y="-172.9874" font-family="Helvetica,sans-Serif" font-size="10.00" fill="#000000">MapNode::isLayerAutoTile</text>
</a>
</g>
</g>
<!-- Node48&#45;&gt;Node49 -->
<g id="edge27" class="edge">
<title>Node48&#45;&gt;Node49</title>
<path fill="none" stroke="#191970" d="M975.1536,-182.5719C987.4717,-181.8438 1000.1628,-181.0936 1012.4681,-180.3661"/>
<polygon fill="#191970" stroke="#191970" points="1012.9213,-183.8456 1022.6973,-179.7615 1012.5081,-176.8578 1012.9213,-183.8456"/>
</g>
<!-- Node50 -->
<g id="node20" class="node">
<title>Node50</title>
<g id="a_node20"><a xlink:href="classMapNode.html#a64cb9a4523c9e78f256fde42f1dee43d" target="_top" xlink:title="check if specific Tile Data is autotile category. ">
<polygon fill="none" stroke="#000000" points="1215,-165.9874 1215,-184.9874 1355,-184.9874 1355,-165.9874 1215,-165.9874"/>
<text text-anchor="middle" x="1285" y="-172.9874" font-family="Helvetica,sans-Serif" font-size="10.00" fill="#000000">MapNode::isDataAutoTile</text>
</a>
</g>
</g>
<!-- Node49&#45;&gt;Node50 -->
<g id="edge28" class="edge">
<title>Node49&#45;&gt;Node50</title>
<path fill="none" stroke="#191970" d="M1167.1018,-175.4874C1179.3221,-175.4874 1192.0799,-175.4874 1204.4991,-175.4874"/>
<polygon fill="#191970" stroke="#191970" points="1204.8325,-178.9875 1214.8324,-175.4874 1204.8324,-171.9875 1204.8325,-178.9875"/>
</g>
</g>
</svg>
