<?xml version="1.0" encoding="UTF-8" standalone="no"?>
<!DOCTYPE svg PUBLIC "-//W3C//DTD SVG 1.1//EN"
 "http://www.w3.org/Graphics/SVG/1.1/DTD/svg11.dtd">
<!-- Generated by graphviz version 2.40.1 (20161225.0304)
 -->
<!-- Title: Map::refresh Pages: 1 -->
<svg width="467pt" height="154pt"
 viewBox="0.00 0.00 467.00 154.00" xmlns="http://www.w3.org/2000/svg" xmlns:xlink="http://www.w3.org/1999/xlink">
<g id="graph0" class="graph" transform="scale(1 1) rotate(0) translate(4 150)">
<title>Map::refresh</title>
<!-- Node454 -->
<g id="node1" class="node">
<title>Node454</title>
<polygon fill="#bfbfbf" stroke="#000000" points="0,-41.5 0,-60.5 77,-60.5 77,-41.5 0,-41.5"/>
<text text-anchor="middle" x="38.5" y="-48.5" font-family="Helvetica,sans-Serif" font-size="10.00" fill="#000000">Map::refresh</text>
</g>
<!-- Node455 -->
<g id="node2" class="node">
<title>Node455</title>
<g id="a_node2"><a xlink:href="classMap.html#af654ddecf0d25b836d7c9c27ee5c2150" target="_top" xlink:title="Map::calculateVisibleMap">
<polygon fill="none" stroke="#000000" points="113,-71.5 113,-90.5 253,-90.5 253,-71.5 113,-71.5"/>
<text text-anchor="middle" x="183" y="-78.5" font-family="Helvetica,sans-Serif" font-size="10.00" fill="#000000">Map::calculateVisibleMap</text>
</a>
</g>
</g>
<!-- Node454&#45;&gt;Node455 -->
<g id="edge1" class="edge">
<title>Node454&#45;&gt;Node455</title>
<path fill="none" stroke="#191970" d="M77.2233,-59.0394C92.5233,-62.2159 110.4005,-65.9274 127.0576,-69.3857"/>
<polygon fill="#191970" stroke="#191970" points="126.7347,-72.8932 137.2374,-71.4991 128.1577,-66.0393 126.7347,-72.8932"/>
</g>
<!-- Node459 -->
<g id="node6" class="node">
<title>Node459</title>
<g id="a_node6"><a xlink:href="classSprite.html#ababb7913a4d642b0d20a2c48c2a7e77a" target="_top" xlink:title="Sprite::refresh">
<polygon fill="none" stroke="#000000" points="140,-22.5 140,-41.5 226,-41.5 226,-22.5 140,-22.5"/>
<text text-anchor="middle" x="183" y="-29.5" font-family="Helvetica,sans-Serif" font-size="10.00" fill="#000000">Sprite::refresh</text>
</a>
</g>
</g>
<!-- Node454&#45;&gt;Node459 -->
<g id="edge5" class="edge">
<title>Node454&#45;&gt;Node459</title>
<path fill="none" stroke="#191970" d="M77.2233,-45.9083C93.3664,-43.7857 112.3788,-41.2858 129.7998,-38.9952"/>
<polygon fill="#191970" stroke="#191970" points="130.3811,-42.449 139.8394,-37.6751 129.4685,-35.5087 130.3811,-42.449"/>
</g>
<!-- Node456 -->
<g id="node3" class="node">
<title>Node456</title>
<g id="a_node3"><a xlink:href="isoMath_8cxx.html#a0a076d973bc64ffa7859b894793c8000" target="_top" xlink:title="Calculates screen space coordinates to isometric space coordinates. A formula is used to calculate th...">
<polygon fill="none" stroke="#000000" points="307,-126.5 307,-145.5 441,-145.5 441,-126.5 307,-126.5"/>
<text text-anchor="middle" x="374" y="-133.5" font-family="Helvetica,sans-Serif" font-size="10.00" fill="#000000">calculateIsoCoordinates</text>
</a>
</g>
</g>
<!-- Node455&#45;&gt;Node456 -->
<g id="edge2" class="edge">
<title>Node455&#45;&gt;Node456</title>
<path fill="none" stroke="#191970" d="M208.4619,-90.5084C229.7848,-98.2625 261.1192,-109.1739 289,-117 298.0763,-119.5477 307.773,-121.9814 317.2496,-124.2054"/>
<polygon fill="#191970" stroke="#191970" points="316.481,-127.62 327.0103,-126.4432 318.0454,-120.797 316.481,-127.62"/>
</g>
<!-- Node457 -->
<g id="node4" class="node">
<title>Node457</title>
<g id="a_node4"><a xlink:href="classSingleton.html#af5cb1e5749949e2b68416cfb8d378044" target="_top" xlink:title="Get an instance of the singleton. ">
<polygon fill="none" stroke="#000000" points="317.5,-77 317.5,-107 430.5,-107 430.5,-77 317.5,-77"/>
<text text-anchor="start" x="325.5" y="-95" font-family="Helvetica,sans-Serif" font-size="10.00" fill="#000000">Singleton&lt; Settings</text>
<text text-anchor="middle" x="374" y="-84" font-family="Helvetica,sans-Serif" font-size="10.00" fill="#000000"> &gt;::instance</text>
</a>
</g>
</g>
<!-- Node455&#45;&gt;Node457 -->
<g id="edge3" class="edge">
<title>Node455&#45;&gt;Node457</title>
<path fill="none" stroke="#191970" d="M253.0368,-85.0335C270.7478,-86.0535 289.7193,-87.1461 307.2626,-88.1565"/>
<polygon fill="#191970" stroke="#191970" points="307.2217,-91.6598 317.4065,-88.7407 307.6243,-84.6714 307.2217,-91.6598"/>
</g>
<!-- Node458 -->
<g id="node5" class="node">
<title>Node458</title>
<g id="a_node5"><a xlink:href="classMap.html#a1676db3d125b2c1764adfcb64d6332a2" target="_top" xlink:title="Map::nodeIdx">
<polygon fill="none" stroke="#000000" points="333,-38.5 333,-57.5 415,-57.5 415,-38.5 333,-38.5"/>
<text text-anchor="middle" x="374" y="-45.5" font-family="Helvetica,sans-Serif" font-size="10.00" fill="#000000">Map::nodeIdx</text>
</a>
</g>
</g>
<!-- Node455&#45;&gt;Node458 -->
<g id="edge4" class="edge">
<title>Node455&#45;&gt;Node458</title>
<path fill="none" stroke="#191970" d="M237.9889,-71.4993C264.6465,-66.8935 296.4737,-61.3946 322.6358,-56.8744"/>
<polygon fill="#191970" stroke="#191970" points="323.4714,-60.282 332.7295,-55.1305 322.2796,-53.3842 323.4714,-60.282"/>
</g>
<!-- Node460 -->
<g id="node7" class="node">
<title>Node460</title>
<g id="a_node7"><a xlink:href="isoMath_8cxx.html#a229d5dd54cd4e1f43ed5911e4fd266d3" target="_top" xlink:title="converts coordinates from isometric to screen space The given isometric coordinates (which contain he...">
<polygon fill="none" stroke="#000000" points="289,-.5 289,-19.5 459,-19.5 459,-.5 289,-.5"/>
<text text-anchor="middle" x="374" y="-7.5" font-family="Helvetica,sans-Serif" font-size="10.00" fill="#000000">convertIsoToScreenCoordinates</text>
</a>
</g>
</g>
<!-- Node459&#45;&gt;Node460 -->
<g id="edge6" class="edge">
<title>Node459&#45;&gt;Node460</title>
<path fill="none" stroke="#191970" d="M226.3409,-27.0079C242.743,-25.1186 262.1063,-22.8883 281.3175,-20.6755"/>
<polygon fill="#191970" stroke="#191970" points="281.7995,-24.1432 291.3333,-19.5218 280.9985,-17.1892 281.7995,-24.1432"/>
</g>
</g>
</svg>
