<?xml version="1.0" encoding="UTF-8" standalone="no"?>
<!DOCTYPE svg PUBLIC "-//W3C//DTD SVG 1.1//EN"
 "http://www.w3.org/Graphics/SVG/1.1/DTD/svg11.dtd">
<!-- Generated by graphviz version 2.40.1 (20161225.0304)
 -->
<!-- Title: Map::isAllowSetTileId Pages: 1 -->
<svg width="333pt" height="116pt"
 viewBox="0.00 0.00 333.00 116.00" xmlns="http://www.w3.org/2000/svg" xmlns:xlink="http://www.w3.org/1999/xlink">
<g id="graph0" class="graph" transform="scale(1 1) rotate(0) translate(4 112)">
<title>Map::isAllowSetTileId</title>
<!-- Node341 -->
<g id="node1" class="node">
<title>Node341</title>
<polygon fill="#bfbfbf" stroke="#000000" points="0,-44.5 0,-63.5 121,-63.5 121,-44.5 0,-44.5"/>
<text text-anchor="middle" x="60.5" y="-51.5" font-family="Helvetica,sans-Serif" font-size="10.00" fill="#000000">Map::isAllowSetTileId</text>
</g>
<!-- Node342 -->
<g id="node2" class="node">
<title>Node342</title>
<g id="a_node2"><a xlink:href="classMapNode.html#ae38d4ab8e73fc9c44e404f3c9a196953" target="_top" xlink:title="MapNode::isLayerOccupied">
<polygon fill="none" stroke="#000000" points="166.5,-88.5 166.5,-107.5 315.5,-107.5 315.5,-88.5 166.5,-88.5"/>
<text text-anchor="middle" x="241" y="-95.5" font-family="Helvetica,sans-Serif" font-size="10.00" fill="#000000">MapNode::isLayerOccupied</text>
</a>
</g>
</g>
<!-- Node341&#45;&gt;Node342 -->
<g id="edge1" class="edge">
<title>Node341&#45;&gt;Node342</title>
<path fill="none" stroke="#191970" d="M96.1794,-63.5253C114.3524,-68.3052 136.8174,-74.1044 157,-79 166.917,-81.4055 177.5166,-83.8789 187.73,-86.2129"/>
<polygon fill="#191970" stroke="#191970" points="187.2485,-89.6926 197.7751,-88.4928 188.7979,-82.8662 187.2485,-89.6926"/>
</g>
<!-- Node343 -->
<g id="node3" class="node">
<title>Node343</title>
<g id="a_node3"><a xlink:href="classMapNode.html#a6b57e4355d0780fb37c34d63bbcdfdf9" target="_top" xlink:title="MapNode::getMapNodeDataFor\lLayer">
<polygon fill="none" stroke="#000000" points="157,-39 157,-69 325,-69 325,-39 157,-39"/>
<text text-anchor="start" x="165" y="-57" font-family="Helvetica,sans-Serif" font-size="10.00" fill="#000000">MapNode::getMapNodeDataFor</text>
<text text-anchor="middle" x="241" y="-46" font-family="Helvetica,sans-Serif" font-size="10.00" fill="#000000">Layer</text>
</a>
</g>
</g>
<!-- Node341&#45;&gt;Node343 -->
<g id="edge2" class="edge">
<title>Node341&#45;&gt;Node343</title>
<path fill="none" stroke="#191970" d="M121.106,-54C129.3505,-54 137.9663,-54 146.6329,-54"/>
<polygon fill="#191970" stroke="#191970" points="146.8108,-57.5001 156.8107,-54 146.8107,-50.5001 146.8108,-57.5001"/>
</g>
<!-- Node344 -->
<g id="node4" class="node">
<title>Node344</title>
<g id="a_node4"><a xlink:href="classMapNode.html#a58a7785b716413df71aeee7a939a416b" target="_top" xlink:title="check if current Node Terrain is Slope Terrain. ">
<polygon fill="none" stroke="#000000" points="176.5,-.5 176.5,-19.5 305.5,-19.5 305.5,-.5 176.5,-.5"/>
<text text-anchor="middle" x="241" y="-7.5" font-family="Helvetica,sans-Serif" font-size="10.00" fill="#000000">MapNode::isSlopeNode</text>
</a>
</g>
</g>
<!-- Node341&#45;&gt;Node344 -->
<g id="edge3" class="edge">
<title>Node341&#45;&gt;Node344</title>
<path fill="none" stroke="#191970" d="M98.5196,-44.4511C116.2771,-40.0151 137.7098,-34.6951 157,-30 167.8174,-27.3671 179.4278,-24.5787 190.4607,-21.9465"/>
<polygon fill="#191970" stroke="#191970" points="191.474,-25.3032 200.3914,-19.5821 189.8526,-18.4935 191.474,-25.3032"/>
</g>
</g>
</svg>
