<?xml version="1.0" encoding="UTF-8" standalone="no"?>
<!DOCTYPE svg PUBLIC "-//W3C//DTD SVG 1.1//EN"
 "http://www.w3.org/Graphics/SVG/1.1/DTD/svg11.dtd">
<!-- Generated by graphviz version 2.40.1 (20161225.0304)
 -->
<!-- Title: Camera::increaseZoomLevel Pages: 1 -->
<svg width="938pt" height="197pt"
 viewBox="0.00 0.00 938.00 196.62" xmlns="http://www.w3.org/2000/svg" xmlns:xlink="http://www.w3.org/1999/xlink">
<g id="graph0" class="graph" transform="scale(1 1) rotate(0) translate(4 192.6166)">
<title>Camera::increaseZoomLevel</title>
<!-- Node52 -->
<g id="node1" class="node">
<title>Node52</title>
<polygon fill="#bfbfbf" stroke="#000000" points="0,-114.5 0,-133.5 157,-133.5 157,-114.5 0,-114.5"/>
<text text-anchor="middle" x="78.5" y="-121.5" font-family="Helvetica,sans-Serif" font-size="10.00" fill="#000000">Camera::increaseZoomLevel</text>
</g>
<!-- Node53 -->
<g id="node2" class="node">
<title>Node53</title>
<g id="a_node2"><a xlink:href="classCamera.html#adfb240823ff20b97b69459490dbd8dc3" target="_top" xlink:title="Centers camera on given isometric coordinates Centers the camera on the given isometric coordinates...">
<polygon fill="none" stroke="#000000" points="193,-114.5 193,-133.5 356,-133.5 356,-114.5 193,-114.5"/>
<text text-anchor="middle" x="274.5" y="-121.5" font-family="Helvetica,sans-Serif" font-size="10.00" fill="#000000">Camera::centerScreenOnPoint</text>
</a>
</g>
</g>
<!-- Node52&#45;&gt;Node53 -->
<g id="edge1" class="edge">
<title>Node52&#45;&gt;Node53</title>
<path fill="none" stroke="#191970" d="M157.0914,-124C165.4201,-124 173.9437,-124 182.4082,-124"/>
<polygon fill="#191970" stroke="#191970" points="182.6869,-127.5001 192.6869,-124 182.6868,-120.5001 182.6869,-127.5001"/>
</g>
<!-- Node55 -->
<g id="node4" class="node">
<title>Node55</title>
<g id="a_node4"><a xlink:href="classSingleton.html#af5cb1e5749949e2b68416cfb8d378044" target="_top" xlink:title="Get an instance of the singleton. ">
<polygon fill="none" stroke="#000000" points="788.5,-156 788.5,-186 901.5,-186 901.5,-156 788.5,-156"/>
<text text-anchor="start" x="796.5" y="-174" font-family="Helvetica,sans-Serif" font-size="10.00" fill="#000000">Singleton&lt; Settings</text>
<text text-anchor="middle" x="845" y="-163" font-family="Helvetica,sans-Serif" font-size="10.00" fill="#000000"> &gt;::instance</text>
</a>
</g>
</g>
<!-- Node52&#45;&gt;Node55 -->
<g id="edge14" class="edge">
<title>Node52&#45;&gt;Node55</title>
<path fill="none" stroke="#191970" d="M124.9913,-133.5172C231.0273,-154.1151 498.9837,-199.8941 724,-186 741.573,-184.9149 760.5,-182.9515 778.0462,-180.795"/>
<polygon fill="#191970" stroke="#191970" points="778.7165,-184.2381 788.1969,-179.5082 777.8361,-177.2937 778.7165,-184.2381"/>
</g>
<!-- Node57 -->
<g id="node6" class="node">
<title>Node57</title>
<g id="a_node6"><a xlink:href="classMap.html#ab69938ac0e56eb0da1d1701221f3d185" target="_top" xlink:title="Refresh all the map tile textures. ">
<polygon fill="none" stroke="#000000" points="431.5,-.5 431.5,-19.5 508.5,-19.5 508.5,-.5 431.5,-.5"/>
<text text-anchor="middle" x="470" y="-7.5" font-family="Helvetica,sans-Serif" font-size="10.00" fill="#000000">Map::refresh</text>
</a>
</g>
</g>
<!-- Node52&#45;&gt;Node57 -->
<g id="edge15" class="edge">
<title>Node52&#45;&gt;Node57</title>
<path fill="none" stroke="#191970" d="M111.2057,-114.4765C181.877,-93.8979 348.792,-45.2943 427.5102,-22.3725"/>
<polygon fill="#191970" stroke="#191970" points="428.4894,-25.7328 437.1121,-19.5766 426.5323,-19.012 428.4894,-25.7328"/>
</g>
<!-- Node54 -->
<g id="node3" class="node">
<title>Node54</title>
<g id="a_node3"><a xlink:href="isoMath_8cxx.html#a7fa61c3d8ef446fb1c48dc4838023649" target="_top" xlink:title="Check if given coordinates are within map boundaries Checks if coordinates are within map boundaries...">
<polygon fill="none" stroke="#000000" points="392,-114.5 392,-133.5 548,-133.5 548,-114.5 392,-114.5"/>
<text text-anchor="middle" x="470" y="-121.5" font-family="Helvetica,sans-Serif" font-size="10.00" fill="#000000">isPointWithinMapBoundaries</text>
</a>
</g>
</g>
<!-- Node53&#45;&gt;Node54 -->
<g id="edge2" class="edge">
<title>Node53&#45;&gt;Node54</title>
<path fill="none" stroke="#191970" d="M356.2768,-124C364.6826,-124 373.2504,-124 381.7223,-124"/>
<polygon fill="#191970" stroke="#191970" points="381.9915,-127.5001 391.9914,-124 381.9914,-120.5001 381.9915,-127.5001"/>
</g>
<!-- Node53&#45;&gt;Node55 -->
<g id="edge5" class="edge">
<title>Node53&#45;&gt;Node55</title>
<path fill="none" stroke="#191970" d="M356.2157,-129.372C368.1915,-131.0584 380.3966,-132.7064 392,-134 528.7208,-149.2418 689.6494,-156.7171 778.1785,-162.7849"/>
<polygon fill="#191970" stroke="#191970" points="778.1269,-166.2898 788.3476,-163.4994 778.6176,-159.307 778.1269,-166.2898"/>
</g>
<!-- Node53&#45;&gt;Node55 -->
<g id="edge6" class="edge">
<title>Node53&#45;&gt;Node55</title>
<path fill="none" stroke="#191970" d="M291.9444,-133.5472C314.8255,-140.6704 356.2655,-148.0163 392,-152 528.7208,-167.2418 689.6494,-174.7171 778.1785,-175.0755"/>
<polygon fill="#191970" stroke="#191970" points="778.3444,-178.5756 788.3476,-175.0846 778.3508,-171.5756 778.3444,-178.5756"/>
</g>
<!-- Node56 -->
<g id="node5" class="node">
<title>Node56</title>
<g id="a_node5"><a xlink:href="isoMath_8cxx.html#a229d5dd54cd4e1f43ed5911e4fd266d3" target="_top" xlink:title="converts coordinates from isometric to screen space The given isometric coordinates (which contain he...">
<polygon fill="none" stroke="#000000" points="760,-10.5 760,-29.5 930,-29.5 930,-10.5 760,-10.5"/>
<text text-anchor="middle" x="845" y="-17.5" font-family="Helvetica,sans-Serif" font-size="10.00" fill="#000000">convertIsoToScreenCoordinates</text>
</a>
</g>
</g>
<!-- Node53&#45;&gt;Node56 -->
<g id="edge4" class="edge">
<title>Node53&#45;&gt;Node56</title>
<path fill="none" stroke="#191970" d="M325.9656,-114.4573C387.3744,-103.0858 493.1589,-83.5441 584,-67 651.4476,-54.7163 728.7347,-40.8213 781.596,-31.3452"/>
<polygon fill="#191970" stroke="#191970" points="782.2773,-34.7789 791.503,-29.5697 781.0424,-27.8887 782.2773,-34.7789"/>
</g>
<!-- Node53&#45;&gt;Node57 -->
<g id="edge7" class="edge">
<title>Node53&#45;&gt;Node57</title>
<path fill="none" stroke="#191970" d="M287.2373,-114.3767C303.3038,-102.2229 331.7626,-80.6439 356,-62 372.0664,-49.6414 374.0187,-43.356 392,-34 401.1437,-29.2424 411.3896,-25.2506 421.3728,-21.9736"/>
<polygon fill="#191970" stroke="#191970" points="422.6961,-25.2281 431.218,-18.933 420.6305,-18.5398 422.6961,-25.2281"/>
</g>
<!-- Node54&#45;&gt;Node55 -->
<g id="edge3" class="edge">
<title>Node54&#45;&gt;Node55</title>
<path fill="none" stroke="#191970" d="M548.0387,-129.4728C598.3977,-133.4728 665.2358,-139.6574 724,-148 741.609,-150.4999 760.5486,-153.8033 778.0954,-157.1242"/>
<polygon fill="#191970" stroke="#191970" points="777.7642,-160.6245 788.2452,-159.0755 779.0858,-153.7504 777.7642,-160.6245"/>
</g>
<!-- Node58 -->
<g id="node7" class="node">
<title>Node58</title>
<g id="a_node7"><a xlink:href="classMap.html#af654ddecf0d25b836d7c9c27ee5c2150" target="_top" xlink:title="Map::calculateVisibleMap">
<polygon fill="none" stroke="#000000" points="584,-76.5 584,-95.5 724,-95.5 724,-76.5 584,-76.5"/>
<text text-anchor="middle" x="654" y="-83.5" font-family="Helvetica,sans-Serif" font-size="10.00" fill="#000000">Map::calculateVisibleMap</text>
</a>
</g>
</g>
<!-- Node57&#45;&gt;Node58 -->
<g id="edge8" class="edge">
<title>Node57&#45;&gt;Node58</title>
<path fill="none" stroke="#191970" d="M493.3037,-19.6255C525.7936,-33.0452 584.8399,-57.4339 621.5996,-72.6172"/>
<polygon fill="#191970" stroke="#191970" points="620.3067,-75.87 630.8855,-76.4527 622.979,-69.4001 620.3067,-75.87"/>
</g>
<!-- Node61 -->
<g id="node10" class="node">
<title>Node61</title>
<g id="a_node10"><a xlink:href="classSprite.html#ababb7913a4d642b0d20a2c48c2a7e77a" target="_top" xlink:title="Sprite::refresh">
<polygon fill="none" stroke="#000000" points="611,-.5 611,-19.5 697,-19.5 697,-.5 611,-.5"/>
<text text-anchor="middle" x="654" y="-7.5" font-family="Helvetica,sans-Serif" font-size="10.00" fill="#000000">Sprite::refresh</text>
</a>
</g>
</g>
<!-- Node57&#45;&gt;Node61 -->
<g id="edge12" class="edge">
<title>Node57&#45;&gt;Node61</title>
<path fill="none" stroke="#191970" d="M508.5724,-10C535.344,-10 571.3525,-10 600.8403,-10"/>
<polygon fill="#191970" stroke="#191970" points="600.9727,-13.5001 610.9727,-10 600.9727,-6.5001 600.9727,-13.5001"/>
</g>
<!-- Node58&#45;&gt;Node55 -->
<g id="edge10" class="edge">
<title>Node58&#45;&gt;Node55</title>
<path fill="none" stroke="#191970" d="M684.661,-95.5041C697.0239,-99.5962 711.3312,-104.6643 724,-110 753.0931,-122.2532 784.932,-138.4209 808.6447,-151.0327"/>
<polygon fill="#191970" stroke="#191970" points="807.1655,-154.2109 817.6328,-155.8497 810.4721,-148.041 807.1655,-154.2109"/>
</g>
<!-- Node59 -->
<g id="node8" class="node">
<title>Node59</title>
<g id="a_node8"><a xlink:href="isoMath_8cxx.html#a0a076d973bc64ffa7859b894793c8000" target="_top" xlink:title="Calculates screen space coordinates to isometric space coordinates. A formula is used to calculate th...">
<polygon fill="none" stroke="#000000" points="778,-95.5 778,-114.5 912,-114.5 912,-95.5 778,-95.5"/>
<text text-anchor="middle" x="845" y="-102.5" font-family="Helvetica,sans-Serif" font-size="10.00" fill="#000000">calculateIsoCoordinates</text>
</a>
</g>
</g>
<!-- Node58&#45;&gt;Node59 -->
<g id="edge9" class="edge">
<title>Node58&#45;&gt;Node59</title>
<path fill="none" stroke="#191970" d="M724.0368,-92.967C738.1728,-94.3732 753.1119,-95.8593 767.4868,-97.2893"/>
<polygon fill="#191970" stroke="#191970" points="767.5373,-100.8115 777.8347,-98.3186 768.2303,-93.8459 767.5373,-100.8115"/>
</g>
<!-- Node60 -->
<g id="node9" class="node">
<title>Node60</title>
<g id="a_node9"><a xlink:href="classMap.html#a1676db3d125b2c1764adfcb64d6332a2" target="_top" xlink:title="Map::nodeIdx">
<polygon fill="none" stroke="#000000" points="804,-57.5 804,-76.5 886,-76.5 886,-57.5 804,-57.5"/>
<text text-anchor="middle" x="845" y="-64.5" font-family="Helvetica,sans-Serif" font-size="10.00" fill="#000000">Map::nodeIdx</text>
</a>
</g>
</g>
<!-- Node58&#45;&gt;Node60 -->
<g id="edge11" class="edge">
<title>Node58&#45;&gt;Node60</title>
<path fill="none" stroke="#191970" d="M724.0368,-79.033C747.0936,-76.7394 772.2867,-74.2333 793.6839,-72.1047"/>
<polygon fill="#191970" stroke="#191970" points="794.2527,-75.5655 803.8571,-71.0928 793.5597,-68.5999 794.2527,-75.5655"/>
</g>
<!-- Node61&#45;&gt;Node56 -->
<g id="edge13" class="edge">
<title>Node61&#45;&gt;Node56</title>
<path fill="none" stroke="#191970" d="M697.3409,-12.2692C712.9425,-13.086 731.2233,-14.0431 749.5038,-15.0002"/>
<polygon fill="#191970" stroke="#191970" points="749.4733,-18.5033 759.6427,-15.531 749.8394,-11.5129 749.4733,-18.5033"/>
</g>
</g>
</svg>
