<?xml version="1.0" encoding="UTF-8" standalone="no"?>
<!DOCTYPE svg PUBLIC "-//W3C//DTD SVG 1.1//EN"
 "http://www.w3.org/Graphics/SVG/1.1/DTD/svg11.dtd">
<!-- Generated by graphviz version 2.40.1 (20161225.0304)
 -->
<!-- Title: Map::updateHeight Pages: 1 -->
<!--zoomable 210 -->
<svg id="main" version="1.1" xmlns="http://www.w3.org/2000/svg" xmlns:xlink="http://www.w3.org/1999/xlink" xml:space="preserve" onload="init(evt)">
<style type="text/css"><![CDATA[
.edge:hover path { stroke: red; }
.edge:hover polygon { stroke: red; fill: red; }
]]></style>
<script type="text/javascript"><![CDATA[
var edges = document.getElementsByTagName('g');
if (edges && edges.length) {
  for (var i=0;i<edges.length;i++) {
    if (edges[i].id.substr(0,4)=='edge') {
      edges[i].setAttribute('class','edge');
    }
  }
}
]]></script>
        <defs>
                <circle id="rim" cx="0" cy="0" r="7"/>
                <circle id="rim2" cx="0" cy="0" r="3.5"/>
                <g id="zoomPlus">
                        <use xlink:href="#rim" fill="#404040">
                                <set attributeName="fill" to="#808080" begin="zoomplus.mouseover" end="zoomplus.mouseout"/>
                        </use>
                        <path d="M-4,0h8M0,-4v8" fill="none" stroke="white" stroke-width="1.5" pointer-events="none"/>
                </g>
                <g id="zoomMin">
                        <use xlink:href="#rim" fill="#404040">
                                <set attributeName="fill" to="#808080" begin="zoomminus.mouseover" end="zoomminus.mouseout"/>
                        </use>
                        <path d="M-4,0h8" fill="none" stroke="white" stroke-width="1.5" pointer-events="none"/>
                </g>
                <g id="dirArrow">
                        <path fill="none" stroke="white" stroke-width="1.5" d="M0,-3.0v7 M-2.5,-0.5L0,-3.0L2.5,-0.5"/>
                </g>
               <g id="resetDef">
                       <use xlink:href="#rim2" fill="#404040">
                               <set attributeName="fill" to="#808080" begin="reset.mouseover" end="reset.mouseout"/>
                       </use>
               </g>
        </defs>

<script type="text/javascript">
var viewWidth = 1660;
var viewHeight = 210;
var sectionId = 'dynsection-54';
</script>
<script xlink:href="svgpan.js"/>
<svg id="graph" class="graph">
<g id="viewport">
<title>Map::updateHeight</title>
<!-- Node557 -->
<g id="node1" class="node">
<title>Node557</title>
<polygon fill="#bfbfbf" stroke="#000000" points="0,-144.4782 0,-163.4782 109,-163.4782 109,-144.4782 0,-144.4782"/>
<text text-anchor="middle" x="54.5" y="-151.4782" font-family="Helvetica,sans-Serif" font-size="10.00" fill="#000000">Map::updateHeight</text>
</g>
<!-- Node558 -->
<g id="node2" class="node">
<title>Node558</title>
<g id="a_node2"><a xlink:href="classMap.html#ade1eeabf4e539f9dbfe2a96c97fda4e3" target="_top" xlink:title="Map::changeHeight">
<polygon fill="none" stroke="#000000" points="489,-144.4782 489,-163.4782 599,-163.4782 599,-144.4782 489,-144.4782"/>
<text text-anchor="middle" x="544" y="-151.4782" font-family="Helvetica,sans-Serif" font-size="10.00" fill="#000000">Map::changeHeight</text>
</a>
</g>
</g>
<!-- Node557&#45;&gt;Node558 -->
<g id="edge1" class="edge">
<title>Node557&#45;&gt;Node558</title>
<path fill="none" stroke="#191970" d="M119.5592,-154.4609C198.4545,-154.9724 335.4764,-155.6239 453,-154.9782 464.5335,-154.9148 476.8889,-154.8063 488.6596,-154.6835"/>
<polygon fill="#191970" stroke="#191970" points="119.314,-150.9593 109.291,-154.3929 119.2676,-157.9591 119.314,-150.9593"/>
</g>
<!-- Node567 -->
<g id="node11" class="node">
<title>Node567</title>
<g id="a_node11"><a xlink:href="classMap.html#af1e496c421981fe707890b0ba60cc20f" target="_top" xlink:title="Map::updateNodeNeighbors">
<polygon fill="none" stroke="#000000" points="145,-106.4782 145,-125.4782 297,-125.4782 297,-106.4782 145,-106.4782"/>
<text text-anchor="middle" x="221" y="-113.4782" font-family="Helvetica,sans-Serif" font-size="10.00" fill="#000000">Map::updateNodeNeighbors</text>
</a>
</g>
</g>
<!-- Node557&#45;&gt;Node567 -->
<g id="edge11" class="edge">
<title>Node557&#45;&gt;Node567</title>
<path fill="none" stroke="#191970" d="M106.309,-142.1539C129.7825,-136.7966 157.1654,-130.5471 179.2871,-125.4982"/>
<polygon fill="#191970" stroke="#191970" points="105.4855,-138.7518 96.515,-144.3892 107.0431,-145.5763 105.4855,-138.7518"/>
</g>
<!-- Node559 -->
<g id="node3" class="node">
<title>Node559</title>
<g id="a_node3"><a xlink:href="classMap.html#aba5154a4d917900679a3c0f7ec701561" target="_top" xlink:title="Increase Height Increases the height of the node and checks the surrounding tiles. Either draw a slope sprite or elevate the tile if necessary. ">
<polygon fill="none" stroke="#000000" points="639.5,-182.4782 639.5,-201.4782 755.5,-201.4782 755.5,-182.4782 639.5,-182.4782"/>
<text text-anchor="middle" x="697.5" y="-189.4782" font-family="Helvetica,sans-Serif" font-size="10.00" fill="#000000">Map::increaseHeight</text>
</a>
</g>
</g>
<!-- Node558&#45;&gt;Node559 -->
<g id="edge2" class="edge">
<title>Node558&#45;&gt;Node559</title>
<path fill="none" stroke="#191970" d="M592.6352,-166.0182C614.0799,-171.327 638.9226,-177.4769 659.044,-182.4581"/>
<polygon fill="#191970" stroke="#191970" points="593.2826,-162.5729 582.7345,-163.5672 591.6004,-169.3677 593.2826,-162.5729"/>
</g>
<!-- Node565 -->
<g id="node9" class="node">
<title>Node565</title>
<g id="a_node9"><a xlink:href="classMap.html#afb8cc864df90d273a5074872d635dc40" target="_top" xlink:title="Decrease Height Decreases the height of the node and checks the surrounding tiles. Either draw a slope sprite or lower the tile if necessary. ">
<polygon fill="none" stroke="#000000" points="638,-144.4782 638,-163.4782 757,-163.4782 757,-144.4782 638,-144.4782"/>
<text text-anchor="middle" x="697.5" y="-151.4782" font-family="Helvetica,sans-Serif" font-size="10.00" fill="#000000">Map::decreaseHeight</text>
</a>
</g>
</g>
<!-- Node558&#45;&gt;Node565 -->
<g id="edge8" class="edge">
<title>Node558&#45;&gt;Node565</title>
<path fill="none" stroke="#191970" d="M609.4846,-153.9782C618.8708,-153.9782 628.4869,-153.9782 637.7546,-153.9782"/>
<polygon fill="#191970" stroke="#191970" points="609.4171,-150.4783 599.417,-153.9782 609.417,-157.4783 609.4171,-150.4783"/>
</g>
<!-- Node560 -->
<g id="node4" class="node">
<title>Node560</title>
<g id="a_node4"><a xlink:href="classEngine.html#a4851ae1ff696c893741167fc0194fd77" target="_top" xlink:title="Increase Height Increases the height of the given map node Calls the according function of the Map ob...">
<polygon fill="none" stroke="#000000" points="964,-182.4782 964,-201.4782 1093,-201.4782 1093,-182.4782 964,-182.4782"/>
<text text-anchor="middle" x="1028.5" y="-189.4782" font-family="Helvetica,sans-Serif" font-size="10.00" fill="#000000">Engine::increaseHeight</text>
</a>
</g>
</g>
<!-- Node559&#45;&gt;Node560 -->
<g id="edge3" class="edge">
<title>Node559&#45;&gt;Node560</title>
<path fill="none" stroke="#191970" d="M765.717,-191.9782C823.796,-191.9782 906.6556,-191.9782 963.7264,-191.9782"/>
<polygon fill="#191970" stroke="#191970" points="765.5346,-188.4783 755.5346,-191.9782 765.5345,-195.4783 765.5346,-188.4783"/>
</g>
<!-- Node561 -->
<g id="node5" class="node">
<title>Node561</title>
<g id="a_node5"><a xlink:href="classEventManager.html#a65ec91fd5016d4f9c4167fb8babed2df" target="_top" xlink:title="EventManager::checkEvents">
<polygon fill="none" stroke="#000000" points="1141,-106.4782 1141,-125.4782 1295,-125.4782 1295,-106.4782 1141,-106.4782"/>
<text text-anchor="middle" x="1218" y="-113.4782" font-family="Helvetica,sans-Serif" font-size="10.00" fill="#000000">EventManager::checkEvents</text>
</a>
</g>
</g>
<!-- Node560&#45;&gt;Node561 -->
<g id="edge4" class="edge">
<title>Node560&#45;&gt;Node561</title>
<path fill="none" stroke="#191970" d="M1064.3728,-178.9056C1073.719,-175.4245 1083.7592,-171.618 1093,-167.9782 1129.0839,-153.7654 1170.5809,-136.2719 1195.5233,-125.631"/>
<polygon fill="#191970" stroke="#191970" points="1063.1099,-175.641 1054.9469,-182.395 1065.5401,-182.2056 1063.1099,-175.641"/>
</g>
<!-- Node562 -->
<g id="node6" class="node">
<title>Node562</title>
<g id="a_node6"><a xlink:href="classGame.html#a1c2ab25d5216b2f4b2fe41efd2c09114" target="_top" xlink:title="begins the game starts running the game ">
<polygon fill="none" stroke="#000000" points="1360.5,-106.4782 1360.5,-125.4782 1428.5,-125.4782 1428.5,-106.4782 1360.5,-106.4782"/>
<text text-anchor="middle" x="1394.5" y="-113.4782" font-family="Helvetica,sans-Serif" font-size="10.00" fill="#000000">Game::run</text>
</a>
</g>
</g>
<!-- Node561&#45;&gt;Node562 -->
<g id="edge5" class="edge">
<title>Node561&#45;&gt;Node562</title>
<path fill="none" stroke="#191970" d="M1305.3664,-115.9782C1324.9355,-115.9782 1344.5625,-115.9782 1360.398,-115.9782"/>
<polygon fill="#191970" stroke="#191970" points="1305.1587,-112.4783 1295.1587,-115.9782 1305.1587,-119.4783 1305.1587,-112.4783"/>
</g>
<!-- Node563 -->
<g id="node7" class="node">
<title>Node563</title>
<g id="a_node7"><a xlink:href="main_8cxx.html#af582d708d899e67ead623eac34a22387" target="_top" xlink:title="protected_main">
<polygon fill="none" stroke="#000000" points="1482,-87.4782 1482,-106.4782 1575,-106.4782 1575,-87.4782 1482,-87.4782"/>
<text text-anchor="middle" x="1528.5" y="-94.4782" font-family="Helvetica,sans-Serif" font-size="10.00" fill="#000000">protected_main</text>
</a>
</g>
</g>
<!-- Node562&#45;&gt;Node563 -->
<g id="edge6" class="edge">
<title>Node562&#45;&gt;Node563</title>
<path fill="none" stroke="#191970" d="M1438.8611,-109.6882C1452.6278,-107.7362 1467.8396,-105.5793 1481.7626,-103.6051"/>
<polygon fill="#191970" stroke="#191970" points="1438.0702,-106.2652 1428.6606,-111.1345 1439.0529,-113.1959 1438.0702,-106.2652"/>
</g>
<!-- Node564 -->
<g id="node8" class="node">
<title>Node564</title>
<g id="a_node8"><a xlink:href="main_8cxx.html#a3c04138a5bfe5d72780bb7e82a18e627" target="_top" xlink:title="main">
<polygon fill="none" stroke="#000000" points="1611,-87.4782 1611,-106.4782 1652,-106.4782 1652,-87.4782 1611,-87.4782"/>
<text text-anchor="middle" x="1631.5" y="-94.4782" font-family="Helvetica,sans-Serif" font-size="10.00" fill="#000000">main</text>
</a>
</g>
</g>
<!-- Node563&#45;&gt;Node564 -->
<g id="edge7" class="edge">
<title>Node563&#45;&gt;Node564</title>
<path fill="none" stroke="#191970" d="M1585.2133,-96.9782C1594.4322,-96.9782 1603.4259,-96.9782 1610.9965,-96.9782"/>
<polygon fill="#191970" stroke="#191970" points="1585.1782,-93.4783 1575.1782,-96.9782 1585.1781,-100.4783 1585.1782,-93.4783"/>
</g>
<!-- Node566 -->
<g id="node10" class="node">
<title>Node566</title>
<g id="a_node10"><a xlink:href="classEngine.html#a13572fdd7f6470dca48a14497f58980e" target="_top" xlink:title="Decrease Height Decreases the height of the given map node Calls the according function of the Map ob...">
<polygon fill="none" stroke="#000000" points="796,-144.4782 796,-163.4782 928,-163.4782 928,-144.4782 796,-144.4782"/>
<text text-anchor="middle" x="862" y="-151.4782" font-family="Helvetica,sans-Serif" font-size="10.00" fill="#000000">Engine::decreaseHeight</text>
</a>
</g>
</g>
<!-- Node565&#45;&gt;Node566 -->
<g id="edge9" class="edge">
<title>Node565&#45;&gt;Node566</title>
<path fill="none" stroke="#191970" d="M767.4434,-153.9782C776.8433,-153.9782 786.4627,-153.9782 795.7952,-153.9782"/>
<polygon fill="#191970" stroke="#191970" points="767.3537,-150.4783 757.3536,-153.9782 767.3536,-157.4783 767.3537,-150.4783"/>
</g>
<!-- Node566&#45;&gt;Node561 -->
<g id="edge10" class="edge">
<title>Node566&#45;&gt;Node561</title>
<path fill="none" stroke="#191970" d="M938.2157,-146.2146C983.2509,-141.5885 1041.3831,-135.55 1093,-129.9782 1108.5233,-128.3025 1125.1263,-126.4708 1140.9948,-124.7008"/>
<polygon fill="#191970" stroke="#191970" points="937.8213,-142.7366 928.2309,-147.2392 938.5359,-149.7 937.8213,-142.7366"/>
</g>
<!-- Node567&#45;&gt;Node558 -->
<g id="edge12" class="edge">
<title>Node567&#45;&gt;Node558</title>
<path fill="none" stroke="#191970" d="M282.2144,-127.2528C298.667,-130.0394 316.4791,-132.8364 333,-134.9782 385.7063,-141.8112 446.1382,-146.9839 488.7817,-150.1936"/>
<polygon fill="#191970" stroke="#191970" points="282.6184,-123.771 272.1697,-125.5251 281.4317,-130.6697 282.6184,-123.771"/>
</g>
<!-- Node568 -->
<g id="node12" class="node">
<title>Node568</title>
<g id="a_node12"><a xlink:href="classMap.html#a481b37ba71ef0e51e836fc42805762dd" target="_top" xlink:title="Update all mapNodes Updates all mapNode and its adjacent tiles regarding height information, draws slopes for adjacent tiles and sets tiling for mapNode sprite if applicable. ">
<polygon fill="none" stroke="#000000" points="333,-68.4782 333,-87.4782 453,-87.4782 453,-68.4782 333,-68.4782"/>
<text text-anchor="middle" x="393" y="-75.4782" font-family="Helvetica,sans-Serif" font-size="10.00" fill="#000000">Map::updateAllNodes</text>
</a>
</g>
</g>
<!-- Node567&#45;&gt;Node568 -->
<g id="edge13" class="edge">
<title>Node567&#45;&gt;Node568</title>
<path fill="none" stroke="#191970" d="M274.1959,-104.2256C298.5166,-98.8524 326.9547,-92.5696 349.9092,-87.4982"/>
<polygon fill="#191970" stroke="#191970" points="273.4123,-100.8142 264.4029,-106.3892 274.9225,-107.6494 273.4123,-100.8142"/>
</g>
<!-- Node576 -->
<g id="node20" class="node">
<title>Node576</title>
<g id="a_node20"><a xlink:href="classMap.html#aa8cc2ed983007621bce12dd9d1b8ec5b" target="_top" xlink:title="Demolish a node This function gathers all tiles that should be demolished and invokes the nodes demol...">
<polygon fill="none" stroke="#000000" points="336.5,-106.4782 336.5,-125.4782 449.5,-125.4782 449.5,-106.4782 336.5,-106.4782"/>
<text text-anchor="middle" x="393" y="-113.4782" font-family="Helvetica,sans-Serif" font-size="10.00" fill="#000000">Map::demolishNode</text>
</a>
</g>
</g>
<!-- Node567&#45;&gt;Node576 -->
<g id="edge26" class="edge">
<title>Node567&#45;&gt;Node576</title>
<path fill="none" stroke="#191970" d="M307.4498,-109.2283C317.3104,-109.2319 327.1632,-109.3538 336.4896,-109.594"/>
<polygon fill="#191970" stroke="#191970" points="307.1794,-105.7292 297.1928,-109.2674 307.2061,-112.7291 307.1794,-105.7292"/>
</g>
<!-- Node569 -->
<g id="node13" class="node">
<title>Node569</title>
<g id="a_node13"><a xlink:href="classMap.html#a26eceeccd7b6ed693909b1927a25c67a" target="_top" xlink:title="Map::Map">
<polygon fill="none" stroke="#000000" points="512.5,-30.4782 512.5,-49.4782 575.5,-49.4782 575.5,-30.4782 512.5,-30.4782"/>
<text text-anchor="middle" x="544" y="-37.4782" font-family="Helvetica,sans-Serif" font-size="10.00" fill="#000000">Map::Map</text>
</a>
</g>
</g>
<!-- Node568&#45;&gt;Node569 -->
<g id="edge14" class="edge">
<title>Node568&#45;&gt;Node569</title>
<path fill="none" stroke="#191970" d="M441.097,-65.8743C464.2741,-60.0417 491.4375,-53.2058 512.0345,-48.0225"/>
<polygon fill="#191970" stroke="#191970" points="439.9471,-62.5545 431.1037,-68.3892 441.6555,-69.3428 439.9471,-62.5545"/>
</g>
<!-- Node570 -->
<g id="node14" class="node">
<title>Node570</title>
<g id="a_node14"><a xlink:href="classMap.html#afefe996cc1f62b61ec60d0ae415953bf" target="_top" xlink:title="Map::loadMapFromFile">
<polygon fill="none" stroke="#000000" points="635,-30.4782 635,-49.4782 760,-49.4782 760,-30.4782 635,-30.4782"/>
<text text-anchor="middle" x="697.5" y="-37.4782" font-family="Helvetica,sans-Serif" font-size="10.00" fill="#000000">Map::loadMapFromFile</text>
</a>
</g>
</g>
<!-- Node568&#45;&gt;Node570 -->
<g id="edge25" class="edge">
<title>Node568&#45;&gt;Node570</title>
<path fill="none" stroke="#191970" d="M463.2897,-73.2211C503.2007,-70.0884 554.023,-65.3744 599,-58.9782 616.7597,-56.4526 636.1736,-52.8836 653.0357,-49.5196"/>
<polygon fill="#191970" stroke="#191970" points="462.8281,-69.7461 453.1262,-74.0033 463.3653,-76.7255 462.8281,-69.7461"/>
</g>
<!-- Node569&#45;&gt;Node570 -->
<g id="edge15" class="edge">
<title>Node569&#45;&gt;Node570</title>
<path fill="none" stroke="#191970" d="M585.8303,-39.9782C600.8933,-39.9782 618.2371,-39.9782 634.6955,-39.9782"/>
<polygon fill="#191970" stroke="#191970" points="585.8053,-36.4783 575.8053,-39.9782 585.8053,-43.4783 585.8053,-36.4783"/>
</g>
<!-- Node571 -->
<g id="node15" class="node">
<title>Node571</title>
<g id="a_node15"><a xlink:href="classEngine.html#a83b7dbeee899b36a13d5b07c7ad87ebc" target="_top" xlink:title="Loads a saved game Loads a saved Game. ">
<polygon fill="none" stroke="#000000" points="809,-30.4782 809,-49.4782 915,-49.4782 915,-30.4782 809,-30.4782"/>
<text text-anchor="middle" x="862" y="-37.4782" font-family="Helvetica,sans-Serif" font-size="10.00" fill="#000000">Engine::loadGame</text>
</a>
</g>
</g>
<!-- Node570&#45;&gt;Node571 -->
<g id="edge16" class="edge">
<title>Node570&#45;&gt;Node571</title>
<path fill="none" stroke="#191970" d="M770.4461,-39.9782C783.3866,-39.9782 796.6382,-39.9782 808.8977,-39.9782"/>
<polygon fill="#191970" stroke="#191970" points="770.1597,-36.4783 760.1597,-39.9782 770.1596,-43.4783 770.1597,-36.4783"/>
</g>
<!-- Node572 -->
<g id="node16" class="node">
<title>Node572</title>
<g id="a_node16"><a xlink:href="classEngine.html#a0ba57971ffb5173ecc425461f65a4cd8" target="_top" xlink:title="Quits the game Sets m_running to false and quitting the game. ">
<polygon fill="none" stroke="#000000" points="976.5,-68.4782 976.5,-87.4782 1080.5,-87.4782 1080.5,-68.4782 976.5,-68.4782"/>
<text text-anchor="middle" x="1028.5" y="-75.4782" font-family="Helvetica,sans-Serif" font-size="10.00" fill="#000000">Engine::quitGame</text>
</a>
</g>
</g>
<!-- Node571&#45;&gt;Node572 -->
<g id="edge17" class="edge">
<title>Node571&#45;&gt;Node572</title>
<path fill="none" stroke="#191970" d="M913.809,-51.8025C937.2825,-57.1598 964.6654,-63.4093 986.7871,-68.4581"/>
<polygon fill="#191970" stroke="#191970" points="914.5431,-48.3801 904.015,-49.5672 912.9855,-55.2046 914.5431,-48.3801"/>
</g>
<!-- Node573 -->
<g id="node17" class="node">
<title>Node573</title>
<g id="a_node17"><a xlink:href="classUIManager.html#aa78e356fc3b356d790c848319d1c387e" target="_top" xlink:title="UIManager::setCallbackFunctions">
<polygon fill="none" stroke="#000000" points="1129,-30.4782 1129,-49.4782 1307,-49.4782 1307,-30.4782 1129,-30.4782"/>
<text text-anchor="middle" x="1218" y="-37.4782" font-family="Helvetica,sans-Serif" font-size="10.00" fill="#000000">UIManager::setCallbackFunctions</text>
</a>
</g>
</g>
<!-- Node571&#45;&gt;Node573 -->
<g id="edge23" class="edge">
<title>Node571&#45;&gt;Node573</title>
<path fill="none" stroke="#191970" d="M925.5355,-39.9782C982.0967,-39.9782 1065.4356,-39.9782 1128.6965,-39.9782"/>
<polygon fill="#191970" stroke="#191970" points="925.2968,-36.4783 915.2968,-39.9782 925.2968,-43.4783 925.2968,-36.4783"/>
</g>
<!-- Node575 -->
<g id="node19" class="node">
<title>Node575</title>
<g id="a_node19"><a xlink:href="classGame.html#a560299f0291c281f7b44e7ef0dd7b264" target="_top" xlink:title="initializes and displays the main menu initializes and displays the main menu ">
<polygon fill="none" stroke="#000000" points="1343,-68.4782 1343,-87.4782 1446,-87.4782 1446,-68.4782 1343,-68.4782"/>
<text text-anchor="middle" x="1394.5" y="-75.4782" font-family="Helvetica,sans-Serif" font-size="10.00" fill="#000000">Game::mainMenu</text>
</a>
</g>
</g>
<!-- Node571&#45;&gt;Node575 -->
<g id="edge24" class="edge">
<title>Node571&#45;&gt;Node575</title>
<path fill="none" stroke="#191970" d="M908.866,-28.1673C991.3522,-9.5144 1166.9939,20.6017 1307,-20.9782 1338.2834,-30.2689 1368.8332,-54.6745 1384.215,-68.3465"/>
<polygon fill="#191970" stroke="#191970" points="907.9968,-24.7758 899.0403,-30.4354 909.5713,-31.5964 907.9968,-24.7758"/>
</g>
<!-- Node572&#45;&gt;Node561 -->
<g id="edge18" class="edge">
<title>Node572&#45;&gt;Node561</title>
<path fill="none" stroke="#191970" d="M1086.3948,-89.5877C1113.346,-94.9922 1145.0102,-101.3417 1170.525,-106.4581"/>
<polygon fill="#191970" stroke="#191970" points="1086.8118,-86.1017 1076.3189,-87.5672 1085.4355,-92.9651 1086.8118,-86.1017"/>
</g>
<!-- Node572&#45;&gt;Node573 -->
<g id="edge19" class="edge">
<title>Node572&#45;&gt;Node573</title>
<path fill="none" stroke="#191970" d="M1086.3948,-66.3687C1113.346,-60.9642 1145.0102,-54.6147 1170.525,-49.4982"/>
<polygon fill="#191970" stroke="#191970" points="1085.4355,-62.9913 1076.3189,-68.3892 1086.8118,-69.8547 1085.4355,-62.9913"/>
</g>
<!-- Node574 -->
<g id="node18" class="node">
<title>Node574</title>
<g id="a_node18"><a xlink:href="classGame.html#a8272be134d16c277bb014ad6a22fc357" target="_top" xlink:title="Game::quit">
<polygon fill="none" stroke="#000000" points="1182.5,-68.4782 1182.5,-87.4782 1253.5,-87.4782 1253.5,-68.4782 1182.5,-68.4782"/>
<text text-anchor="middle" x="1218" y="-75.4782" font-family="Helvetica,sans-Serif" font-size="10.00" fill="#000000">Game::quit</text>
</a>
</g>
</g>
<!-- Node572&#45;&gt;Node574 -->
<g id="edge20" class="edge">
<title>Node572&#45;&gt;Node574</title>
<path fill="none" stroke="#191970" d="M1090.619,-77.9782C1121.001,-77.9782 1156.482,-77.9782 1182.27,-77.9782"/>
<polygon fill="#191970" stroke="#191970" points="1090.5324,-74.4783 1080.5324,-77.9782 1090.5323,-81.4783 1090.5324,-74.4783"/>
</g>
<!-- Node574&#45;&gt;Node575 -->
<g id="edge21" class="edge">
<title>Node574&#45;&gt;Node575</title>
<path fill="none" stroke="#191970" d="M1264.0403,-77.9782C1288.1836,-77.9782 1317.8403,-77.9782 1342.7739,-77.9782"/>
<polygon fill="#191970" stroke="#191970" points="1263.7174,-74.4783 1253.7174,-77.9782 1263.7174,-81.4783 1263.7174,-74.4783"/>
</g>
<!-- Node575&#45;&gt;Node563 -->
<g id="edge22" class="edge">
<title>Node575&#45;&gt;Node563</title>
<path fill="none" stroke="#191970" d="M1456.2457,-86.7332C1464.7846,-87.9439 1473.438,-89.1709 1481.6465,-90.3348"/>
<polygon fill="#191970" stroke="#191970" points="1456.7003,-83.2627 1446.3079,-85.3241 1455.7175,-90.1934 1456.7003,-83.2627"/>
</g>
<!-- Node576&#45;&gt;Node558 -->
<g id="edge28" class="edge">
<title>Node576&#45;&gt;Node558</title>
<path fill="none" stroke="#191970" d="M440.8431,-128.0182C461.9386,-133.327 486.3766,-139.4769 506.1703,-144.4581"/>
<polygon fill="#191970" stroke="#191970" points="441.6555,-124.6136 431.1037,-125.5672 439.9471,-131.4019 441.6555,-124.6136"/>
</g>
<!-- Node576&#45;&gt;Node561 -->
<g id="edge27" class="edge">
<title>Node576&#45;&gt;Node561</title>
<path fill="none" stroke="#191970" d="M460.0563,-115.9782C521.754,-115.9782 615.7932,-115.9782 697.5,-115.9782 697.5,-115.9782 697.5,-115.9782 862,-115.9782 958.1076,-115.9782 1068.8097,-115.9782 1140.9163,-115.9782"/>
<polygon fill="#191970" stroke="#191970" points="459.6818,-112.4783 449.6818,-115.9782 459.6818,-119.4783 459.6818,-112.4783"/>
</g>
<!-- Node576&#45;&gt;Node567 -->
<g id="edge29" class="edge">
<title>Node576&#45;&gt;Node567</title>
<path fill="none" stroke="#191970" d="M326.2975,-122.5748C316.7622,-122.7287 306.8932,-122.7668 297.1928,-122.689"/>
<polygon fill="#191970" stroke="#191970" points="326.5647,-126.0701 336.4896,-122.3623 326.4187,-119.0716 326.5647,-126.0701"/>
</g>
</g>
</svg>
        <g id="navigator" transform="translate(0 0)" fill="#404254">
                <rect fill="#f2f5e9" fill-opacity="0.5" stroke="#606060" stroke-width=".5" x="0" y="0" width="60" height="60"/>
                <use id="zoomplus" xlink:href="#zoomPlus" x="17" y="9" onmousedown="handleZoom(evt,'in')"/>
                <use id="zoomminus" xlink:href="#zoomMin" x="42" y="9" onmousedown="handleZoom(evt,'out')"/>
                <use id="reset" xlink:href="#resetDef" x="30" y="36" onmousedown="handleReset()"/>
                <g id="arrowUp" xlink:href="#dirArrow" transform="translate(30 24)" onmousedown="handlePan(0,-1)">
                  <use xlink:href="#rim" fill="#404040">
                        <set attributeName="fill" to="#808080" begin="arrowUp.mouseover" end="arrowUp.mouseout"/>
                  </use>
                  <path fill="none" stroke="white" stroke-width="1.5" d="M0,-3.0v7 M-2.5,-0.5L0,-3.0L2.5,-0.5"/>
                </g>
                <g id="arrowRight" xlink:href="#dirArrow" transform="rotate(90) translate(36 -43)" onmousedown="handlePan(1,0)">
                  <use xlink:href="#rim" fill="#404040">
                        <set attributeName="fill" to="#808080" begin="arrowRight.mouseover" end="arrowRight.mouseout"/>
                  </use>
                  <path fill="none" stroke="white" stroke-width="1.5" d="M0,-3.0v7 M-2.5,-0.5L0,-3.0L2.5,-0.5"/>
                </g>
                <g id="arrowDown" xlink:href="#dirArrow" transform="rotate(180) translate(-30 -48)" onmousedown="handlePan(0,1)">
                  <use xlink:href="#rim" fill="#404040">
                        <set attributeName="fill" to="#808080" begin="arrowDown.mouseover" end="arrowDown.mouseout"/>
                  </use>
                  <path fill="none" stroke="white" stroke-width="1.5" d="M0,-3.0v7 M-2.5,-0.5L0,-3.0L2.5,-0.5"/>
                </g>
                <g id="arrowLeft" xlink:href="#dirArrow" transform="rotate(270) translate(-36 17)" onmousedown="handlePan(-1,0)">
                  <use xlink:href="#rim" fill="#404040">
                        <set attributeName="fill" to="#808080" begin="arrowLeft.mouseover" end="arrowLeft.mouseout"/>
                  </use>
                  <path fill="none" stroke="white" stroke-width="1.5" d="M0,-3.0v7 M-2.5,-0.5L0,-3.0L2.5,-0.5"/>
                </g>
        </g>
        <svg viewBox="0 0 15 15" width="100%" height="30px" preserveAspectRatio="xMaxYMin meet">
         <g id="arrow_out" transform="scale(0.3 0.3)">
          <a xlink:href="classMap_a9751d8dc0c6b2b127400b05994118aba_icgraph_org.svg" target="_base">
           <rect id="button" ry="5" rx="5" y="6" x="6" height="38" width="38"
                fill="#f2f5e9" fill-opacity="0.5" stroke="#606060" stroke-width="1.0"/>
           <path id="arrow"
             d="M 11.500037,31.436501 C 11.940474,20.09759 22.043105,11.32322 32.158766,21.979434 L 37.068811,17.246167 C 37.068811,17.246167 37.088388,32 37.088388,32 L 22.160133,31.978069 C 22.160133,31.978069 26.997745,27.140456 26.997745,27.140456 C 18.528582,18.264221 13.291696,25.230495 11.500037,31.436501 z"
             style="fill:#404040;"/>
          </a>
         </g>
        </svg>
</svg>
