<?xml version="1.0" encoding="UTF-8" standalone="no"?>
<!DOCTYPE svg PUBLIC "-//W3C//DTD SVG 1.1//EN"
 "http://www.w3.org/Graphics/SVG/1.1/DTD/svg11.dtd">
<!-- Generated by graphviz version 2.40.1 (20161225.0304)
 -->
<!-- Title: Map::updateNodeNeighbors Pages: 1 -->
<svg width="742pt" height="312pt"
 viewBox="0.00 0.00 742.00 311.50" xmlns="http://www.w3.org/2000/svg" xmlns:xlink="http://www.w3.org/1999/xlink">
<g id="graph0" class="graph" transform="scale(1 1) rotate(0) translate(4 307.5)">
<title>Map::updateNodeNeighbors</title>
<!-- Node577 -->
<g id="node1" class="node">
<title>Node577</title>
<polygon fill="#bfbfbf" stroke="#000000" points="0,-126 0,-145 152,-145 152,-126 0,-126"/>
<text text-anchor="middle" x="76" y="-133" font-family="Helvetica,sans-Serif" font-size="10.00" fill="#000000">Map::updateNodeNeighbors</text>
</g>
<!-- Node578 -->
<g id="node2" class="node">
<title>Node578</title>
<g id="a_node2"><a xlink:href="classMap.html#ad360682917f0061dbba995d645c56212" target="_top" xlink:title="Map::getNeighborNodes">
<polygon fill="none" stroke="#000000" points="204,-246 204,-265 338,-265 338,-246 204,-246"/>
<text text-anchor="middle" x="271" y="-253" font-family="Helvetica,sans-Serif" font-size="10.00" fill="#000000">Map::getNeighborNodes</text>
</a>
</g>
</g>
<!-- Node577&#45;&gt;Node578 -->
<g id="edge1" class="edge">
<title>Node577&#45;&gt;Node578</title>
<path fill="none" stroke="#191970" d="M91.628,-145.1173C125.5016,-165.9625 205.9039,-215.4409 246.5609,-240.4606"/>
<polygon fill="#191970" stroke="#191970" points="244.9466,-243.5767 255.2975,-245.8369 248.6153,-237.6151 244.9466,-243.5767"/>
</g>
<!-- Node582 -->
<g id="node6" class="node">
<title>Node582</title>
<g id="a_node6"><a xlink:href="classMap.html#a9751d8dc0c6b2b127400b05994118aba" target="_top" xlink:title="Map::updateHeight">
<polygon fill="none" stroke="#000000" points="216.5,-88 216.5,-107 325.5,-107 325.5,-88 216.5,-88"/>
<text text-anchor="middle" x="271" y="-95" font-family="Helvetica,sans-Serif" font-size="10.00" fill="#000000">Map::updateHeight</text>
</a>
</g>
</g>
<!-- Node577&#45;&gt;Node582 -->
<g id="edge5" class="edge">
<title>Node577&#45;&gt;Node582</title>
<path fill="none" stroke="#191970" d="M124.955,-125.96C151.3809,-120.8104 184.1943,-114.416 212.02,-108.9935"/>
<polygon fill="#191970" stroke="#191970" points="212.8789,-112.3921 222.0248,-107.0439 211.54,-105.5213 212.8789,-112.3921"/>
</g>
<!-- Node584 -->
<g id="node8" class="node">
<title>Node584</title>
<g id="a_node8"><a xlink:href="classMapNode.html#a67296a58e167356efbabeaac3226b5d3" target="_top" xlink:title="get iso coordinates of this node gets the iso coordinates of this node ">
<polygon fill="none" stroke="#000000" points="402.5,-6 402.5,-25 545.5,-25 545.5,-6 402.5,-6"/>
<text text-anchor="middle" x="474" y="-13" font-family="Helvetica,sans-Serif" font-size="10.00" fill="#000000">MapNode::getCoordinates</text>
</a>
</g>
</g>
<!-- Node577&#45;&gt;Node584 -->
<g id="edge7" class="edge">
<title>Node577&#45;&gt;Node584</title>
<path fill="none" stroke="#191970" d="M91.7462,-125.8569C112.9147,-113.2799 152.0532,-91.3693 188,-78.5 209.4167,-70.8326 340.6618,-43.0965 417.7107,-27.0981"/>
<polygon fill="#191970" stroke="#191970" points="418.6651,-30.4747 427.7461,-25.0171 417.2437,-23.6205 418.6651,-30.4747"/>
</g>
<!-- Node585 -->
<g id="node9" class="node">
<title>Node585</title>
<g id="a_node9"><a xlink:href="classMap.html#a769a53961d4a0dd34ee080d2da8c171e" target="_top" xlink:title="Map::getElevatedNeighbor\lBitmask">
<polygon fill="none" stroke="#000000" points="198,-.5 198,-30.5 344,-30.5 344,-.5 198,-.5"/>
<text text-anchor="start" x="206" y="-18.5" font-family="Helvetica,sans-Serif" font-size="10.00" fill="#000000">Map::getElevatedNeighbor</text>
<text text-anchor="middle" x="271" y="-7.5" font-family="Helvetica,sans-Serif" font-size="10.00" fill="#000000">Bitmask</text>
</a>
</g>
</g>
<!-- Node577&#45;&gt;Node585 -->
<g id="edge8" class="edge">
<title>Node577&#45;&gt;Node585</title>
<path fill="none" stroke="#191970" d="M85.671,-125.836C104.1226,-107.8544 146.2452,-68.9588 188,-45.5 195.3929,-41.3465 203.4685,-37.5867 211.5861,-34.2446"/>
<polygon fill="#191970" stroke="#191970" points="213.0647,-37.4243 221.0962,-30.5145 210.5087,-30.9076 213.0647,-37.4243"/>
</g>
<!-- Node586 -->
<g id="node10" class="node">
<title>Node586</title>
<g id="a_node10"><a xlink:href="classMap.html#aa8cc2ed983007621bce12dd9d1b8ec5b" target="_top" xlink:title="Demolish a node This function gathers all tiles that should be demolished and invokes the nodes demol...">
<polygon fill="none" stroke="#000000" points="214.5,-170 214.5,-189 327.5,-189 327.5,-170 214.5,-170"/>
<text text-anchor="middle" x="271" y="-177" font-family="Helvetica,sans-Serif" font-size="10.00" fill="#000000">Map::demolishNode</text>
</a>
</g>
</g>
<!-- Node577&#45;&gt;Node586 -->
<g id="edge10" class="edge">
<title>Node577&#45;&gt;Node586</title>
<path fill="none" stroke="#191970" d="M147.2272,-145.0445C178.5915,-151.5777 213.8755,-159.9914 238.722,-167.0459"/>
<polygon fill="#191970" stroke="#191970" points="237.7789,-170.4167 248.36,-169.8759 239.7511,-163.7002 237.7789,-170.4167"/>
</g>
<!-- Node591 -->
<g id="node15" class="node">
<title>Node591</title>
<g id="a_node15"><a xlink:href="classMap.html#af192be95053d30ea6c6d9327106bf6d8" target="_top" xlink:title="Get a bitmask that represents same&#45;tile neighbors Checks all neighboring tiles and returns the elevat...">
<polygon fill="none" stroke="#000000" points="188,-126 188,-145 354,-145 354,-126 188,-126"/>
<text text-anchor="middle" x="271" y="-133" font-family="Helvetica,sans-Serif" font-size="10.00" fill="#000000">Map::calculateAutotileBitmask</text>
</a>
</g>
</g>
<!-- Node577&#45;&gt;Node591 -->
<g id="edge19" class="edge">
<title>Node577&#45;&gt;Node591</title>
<path fill="none" stroke="#191970" d="M152.2299,-135.5C160.5076,-135.5 169.0003,-135.5 177.4534,-135.5"/>
<polygon fill="#191970" stroke="#191970" points="177.7275,-139.0001 187.7274,-135.5 177.7274,-132.0001 177.7275,-139.0001"/>
</g>
<!-- Node579 -->
<g id="node3" class="node">
<title>Node579</title>
<g id="a_node3"><a xlink:href="isoMath_8cxx.html#a7fa61c3d8ef446fb1c48dc4838023649" target="_top" xlink:title="Check if given coordinates are within map boundaries Checks if coordinates are within map boundaries...">
<polygon fill="none" stroke="#000000" points="396,-284 396,-303 552,-303 552,-284 396,-284"/>
<text text-anchor="middle" x="474" y="-291" font-family="Helvetica,sans-Serif" font-size="10.00" fill="#000000">isPointWithinMapBoundaries</text>
</a>
</g>
</g>
<!-- Node578&#45;&gt;Node579 -->
<g id="edge2" class="edge">
<title>Node578&#45;&gt;Node579</title>
<path fill="none" stroke="#191970" d="M321.9634,-265.04C349.5941,-270.2122 383.9328,-276.6401 412.9811,-282.0778"/>
<polygon fill="#191970" stroke="#191970" points="412.5423,-285.5563 423.0156,-283.9561 413.8303,-278.6758 412.5423,-285.5563"/>
</g>
<!-- Node581 -->
<g id="node5" class="node">
<title>Node581</title>
<g id="a_node5"><a xlink:href="classMap.html#a1676db3d125b2c1764adfcb64d6332a2" target="_top" xlink:title="Map::nodeIdx">
<polygon fill="none" stroke="#000000" points="433,-246 433,-265 515,-265 515,-246 433,-246"/>
<text text-anchor="middle" x="474" y="-253" font-family="Helvetica,sans-Serif" font-size="10.00" fill="#000000">Map::nodeIdx</text>
</a>
</g>
</g>
<!-- Node578&#45;&gt;Node581 -->
<g id="edge4" class="edge">
<title>Node578&#45;&gt;Node581</title>
<path fill="none" stroke="#191970" d="M338.0324,-255.5C365.5395,-255.5 396.8791,-255.5 422.5324,-255.5"/>
<polygon fill="#191970" stroke="#191970" points="422.7872,-259.0001 432.7871,-255.5 422.7871,-252.0001 422.7872,-259.0001"/>
</g>
<!-- Node580 -->
<g id="node4" class="node">
<title>Node580</title>
<g id="a_node4"><a xlink:href="classSingleton.html#af5cb1e5749949e2b68416cfb8d378044" target="_top" xlink:title="Get an instance of the singleton. ">
<polygon fill="none" stroke="#000000" points="607.5,-262.5 607.5,-292.5 720.5,-292.5 720.5,-262.5 607.5,-262.5"/>
<text text-anchor="start" x="615.5" y="-280.5" font-family="Helvetica,sans-Serif" font-size="10.00" fill="#000000">Singleton&lt; Settings</text>
<text text-anchor="middle" x="664" y="-269.5" font-family="Helvetica,sans-Serif" font-size="10.00" fill="#000000"> &gt;::instance</text>
</a>
</g>
</g>
<!-- Node579&#45;&gt;Node580 -->
<g id="edge3" class="edge">
<title>Node579&#45;&gt;Node580</title>
<path fill="none" stroke="#191970" d="M552.1028,-286.9229C567.0103,-285.6676 582.4914,-284.3639 597.0134,-283.141"/>
<polygon fill="#191970" stroke="#191970" points="597.7252,-286.5935 607.3962,-282.2666 597.1378,-279.6182 597.7252,-286.5935"/>
</g>
<!-- Node583 -->
<g id="node7" class="node">
<title>Node583</title>
<g id="a_node7"><a xlink:href="classMapNode.html#a10dded7848621ba007c3d3fc85392e32" target="_top" xlink:title="Change Height Increases or decrease the height of the node and its sprite This function should not be...">
<polygon fill="none" stroke="#000000" points="406,-44 406,-63 542,-63 542,-44 406,-44"/>
<text text-anchor="middle" x="474" y="-51" font-family="Helvetica,sans-Serif" font-size="10.00" fill="#000000">MapNode::changeHeight</text>
</a>
</g>
</g>
<!-- Node582&#45;&gt;Node583 -->
<g id="edge6" class="edge">
<title>Node582&#45;&gt;Node583</title>
<path fill="none" stroke="#191970" d="M315.048,-87.9527C345.9057,-81.2643 387.3268,-72.2863 420.1491,-65.1721"/>
<polygon fill="#191970" stroke="#191970" points="421.0064,-68.5677 430.038,-63.0287 419.5235,-61.7265 421.0064,-68.5677"/>
</g>
<!-- Node585&#45;&gt;Node584 -->
<g id="edge9" class="edge">
<title>Node585&#45;&gt;Node584</title>
<path fill="none" stroke="#191970" d="M344.0009,-15.5C359.5725,-15.5 376.118,-15.5 392.0014,-15.5"/>
<polygon fill="#191970" stroke="#191970" points="392.3266,-19.0001 402.3266,-15.5 392.3266,-12.0001 392.3266,-19.0001"/>
</g>
<!-- Node586&#45;&gt;Node577 -->
<g id="edge18" class="edge">
<title>Node586&#45;&gt;Node577</title>
<path fill="none" stroke="#191970" d="M214.4547,-172.9312C179.9686,-166.1494 137.1282,-156.1437 108.3103,-147.9633"/>
<polygon fill="#191970" stroke="#191970" points="108.9501,-144.5033 98.369,-145.0413 106.9762,-151.2193 108.9501,-144.5033"/>
</g>
<!-- Node586&#45;&gt;Node579 -->
<g id="edge11" class="edge">
<title>Node586&#45;&gt;Node579</title>
<path fill="none" stroke="#191970" d="M287.0094,-189.0779C304.2717,-199.7215 332.2051,-217.8764 354,-236.5 371.6868,-251.6133 369.7811,-262.9922 390,-274.5 393.9065,-276.7234 398.0538,-278.6866 402.3316,-280.4201"/>
<polygon fill="#191970" stroke="#191970" points="401.2676,-283.757 411.862,-283.8598 403.6441,-277.1727 401.2676,-283.757"/>
</g>
<!-- Node586&#45;&gt;Node581 -->
<g id="edge12" class="edge">
<title>Node586&#45;&gt;Node581</title>
<path fill="none" stroke="#191970" d="M287.829,-189.0547C310.4297,-201.5338 352.1348,-223.3364 390,-236.5 400.4883,-240.1462 411.9605,-243.2759 422.9632,-245.8818"/>
<polygon fill="#191970" stroke="#191970" points="422.3682,-249.3356 432.894,-248.1277 423.9123,-242.508 422.3682,-249.3356"/>
</g>
<!-- Node587 -->
<g id="node11" class="node">
<title>Node587</title>
<g id="a_node11"><a xlink:href="classMapNode.html#a6b57e4355d0780fb37c34d63bbcdfdf9" target="_top" xlink:title="MapNode::getMapNodeDataFor\lLayer">
<polygon fill="none" stroke="#000000" points="390,-120.5 390,-150.5 558,-150.5 558,-120.5 390,-120.5"/>
<text text-anchor="start" x="398" y="-138.5" font-family="Helvetica,sans-Serif" font-size="10.00" fill="#000000">MapNode::getMapNodeDataFor</text>
<text text-anchor="middle" x="474" y="-127.5" font-family="Helvetica,sans-Serif" font-size="10.00" fill="#000000">Layer</text>
</a>
</g>
</g>
<!-- Node586&#45;&gt;Node587 -->
<g id="edge13" class="edge">
<title>Node586&#45;&gt;Node587</title>
<path fill="none" stroke="#191970" d="M315.048,-169.9527C338.3115,-164.9103 367.5789,-158.5666 394.6393,-152.7013"/>
<polygon fill="#191970" stroke="#191970" points="395.4623,-156.1043 404.4939,-150.5654 393.9794,-149.2632 395.4623,-156.1043"/>
</g>
<!-- Node588 -->
<g id="node12" class="node">
<title>Node588</title>
<g id="a_node12"><a xlink:href="classMapNode.html#ad74bb8fd5b519f5e909f0e807960a918" target="_top" xlink:title="MapNode::getOrigCornerPoint">
<polygon fill="none" stroke="#000000" points="393.5,-170 393.5,-189 554.5,-189 554.5,-170 393.5,-170"/>
<text text-anchor="middle" x="474" y="-177" font-family="Helvetica,sans-Serif" font-size="10.00" fill="#000000">MapNode::getOrigCornerPoint</text>
</a>
</g>
</g>
<!-- Node586&#45;&gt;Node588 -->
<g id="edge14" class="edge">
<title>Node586&#45;&gt;Node588</title>
<path fill="none" stroke="#191970" d="M327.5468,-179.5C344.8501,-179.5 364.3376,-179.5 383.315,-179.5"/>
<polygon fill="#191970" stroke="#191970" points="383.4821,-183.0001 393.482,-179.5 383.482,-176.0001 383.4821,-183.0001"/>
</g>
<!-- Node589 -->
<g id="node13" class="node">
<title>Node589</title>
<g id="a_node13"><a xlink:href="classMap.html#a3952b445c55efce61c1ccac6f362fe89" target="_top" xlink:title="Return vector of Points of an Object Tiles selection. ">
<polygon fill="none" stroke="#000000" points="412,-208 412,-227 536,-227 536,-208 412,-208"/>
<text text-anchor="middle" x="474" y="-215" font-family="Helvetica,sans-Serif" font-size="10.00" fill="#000000">Map::getObjectCoords</text>
</a>
</g>
</g>
<!-- Node586&#45;&gt;Node589 -->
<g id="edge15" class="edge">
<title>Node586&#45;&gt;Node589</title>
<path fill="none" stroke="#191970" d="M321.9634,-189.04C349.5941,-194.2122 383.9328,-200.6401 412.9811,-206.0778"/>
<polygon fill="#191970" stroke="#191970" points="412.5423,-209.5563 423.0156,-207.9561 413.8303,-202.6758 412.5423,-209.5563"/>
</g>
<!-- Node589&#45;&gt;Node580 -->
<g id="edge16" class="edge">
<title>Node589&#45;&gt;Node580</title>
<path fill="none" stroke="#191970" d="M521.852,-227.0487C533.7516,-229.7718 546.4149,-232.9701 558,-236.5 578.4127,-242.7196 600.4961,-251.0014 619.1957,-258.493"/>
<polygon fill="#191970" stroke="#191970" points="618.0568,-261.808 628.6391,-262.3235 620.688,-255.3213 618.0568,-261.808"/>
</g>
<!-- Node590 -->
<g id="node14" class="node">
<title>Node590</title>
<g id="a_node14"><a xlink:href="classTileManager.html#a8ee071ff8b24926288437d310f9bc714" target="_top" xlink:title="TileManager::getTileData">
<polygon fill="none" stroke="#000000" points="594,-208 594,-227 734,-227 734,-208 594,-208"/>
<text text-anchor="middle" x="664" y="-215" font-family="Helvetica,sans-Serif" font-size="10.00" fill="#000000">TileManager::getTileData</text>
</a>
</g>
</g>
<!-- Node589&#45;&gt;Node590 -->
<g id="edge17" class="edge">
<title>Node589&#45;&gt;Node590</title>
<path fill="none" stroke="#191970" d="M536.2131,-217.5C551.3056,-217.5 567.6566,-217.5 583.4608,-217.5"/>
<polygon fill="#191970" stroke="#191970" points="583.7487,-221.0001 593.7487,-217.5 583.7487,-214.0001 583.7487,-221.0001"/>
</g>
<!-- Node591&#45;&gt;Node587 -->
<g id="edge20" class="edge">
<title>Node591&#45;&gt;Node587</title>
<path fill="none" stroke="#191970" d="M354.1536,-135.5C362.6531,-135.5 371.3302,-135.5 379.9356,-135.5"/>
<polygon fill="#191970" stroke="#191970" points="379.9897,-139.0001 389.9897,-135.5 379.9897,-132.0001 379.9897,-139.0001"/>
</g>
<!-- Node592 -->
<g id="node16" class="node">
<title>Node592</title>
<g id="a_node16"><a xlink:href="classMapNode.html#afb1cbc0f9e987b7befced46220dd9277" target="_top" xlink:title="check if specific layer can be autotiled. ">
<polygon fill="none" stroke="#000000" points="402,-82 402,-101 546,-101 546,-82 402,-82"/>
<text text-anchor="middle" x="474" y="-89" font-family="Helvetica,sans-Serif" font-size="10.00" fill="#000000">MapNode::isLayerAutoTile</text>
</a>
</g>
</g>
<!-- Node591&#45;&gt;Node592 -->
<g id="edge21" class="edge">
<title>Node591&#45;&gt;Node592</title>
<path fill="none" stroke="#191970" d="M315.048,-125.9527C345.9057,-119.2643 387.3268,-110.2863 420.1491,-103.1721"/>
<polygon fill="#191970" stroke="#191970" points="421.0064,-106.5677 430.038,-101.0287 419.5235,-99.7265 421.0064,-106.5677"/>
</g>
<!-- Node593 -->
<g id="node17" class="node">
<title>Node593</title>
<g id="a_node17"><a xlink:href="classMapNode.html#a64cb9a4523c9e78f256fde42f1dee43d" target="_top" xlink:title="check if specific Tile Data is autotile category. ">
<polygon fill="none" stroke="#000000" points="594,-82 594,-101 734,-101 734,-82 594,-82"/>
<text text-anchor="middle" x="664" y="-89" font-family="Helvetica,sans-Serif" font-size="10.00" fill="#000000">MapNode::isDataAutoTile</text>
</a>
</g>
</g>
<!-- Node592&#45;&gt;Node593 -->
<g id="edge22" class="edge">
<title>Node592&#45;&gt;Node593</title>
<path fill="none" stroke="#191970" d="M546.1018,-91.5C558.3221,-91.5 571.0799,-91.5 583.4991,-91.5"/>
<polygon fill="#191970" stroke="#191970" points="583.8325,-95.0001 593.8324,-91.5 583.8324,-88.0001 583.8325,-95.0001"/>
</g>
</g>
</svg>
