<?xml version="1.0" encoding="UTF-8" standalone="no"?>
<!DOCTYPE svg PUBLIC "-//W3C//DTD SVG 1.1//EN"
 "http://www.w3.org/Graphics/SVG/1.1/DTD/svg11.dtd">
<!-- Generated by graphviz version 2.40.1 (20161225.0304)
 -->
<!-- Title: Map::calculateVisibleMap Pages: 1 -->
<svg width="1391pt" height="261pt"
 viewBox="0.00 0.00 1391.00 261.25" xmlns="http://www.w3.org/2000/svg" xmlns:xlink="http://www.w3.org/1999/xlink">
<g id="graph0" class="graph" transform="scale(1 1) rotate(0) translate(4 257.2462)">
<title>Map::calculateVisibleMap</title>
<!-- Node68 -->
<g id="node1" class="node">
<title>Node68</title>
<polygon fill="#bfbfbf" stroke="#000000" points="0,-145 0,-164 140,-164 140,-145 0,-145"/>
<text text-anchor="middle" x="70" y="-152" font-family="Helvetica,sans-Serif" font-size="10.00" fill="#000000">Map::calculateVisibleMap</text>
</g>
<!-- Node69 -->
<g id="node2" class="node">
<title>Node69</title>
<g id="a_node2"><a xlink:href="classMap.html#ab69938ac0e56eb0da1d1701221f3d185" target="_top" xlink:title="Refresh all the map tile textures. ">
<polygon fill="none" stroke="#000000" points="176,-145 176,-164 253,-164 253,-145 176,-145"/>
<text text-anchor="middle" x="214.5" y="-152" font-family="Helvetica,sans-Serif" font-size="10.00" fill="#000000">Map::refresh</text>
</a>
</g>
</g>
<!-- Node68&#45;&gt;Node69 -->
<g id="edge1" class="edge">
<title>Node68&#45;&gt;Node69</title>
<path fill="none" stroke="#191970" d="M150.1507,-154.5C158.9884,-154.5 167.6665,-154.5 175.6475,-154.5"/>
<polygon fill="#191970" stroke="#191970" points="150.1336,-151.0001 140.1336,-154.5 150.1335,-158.0001 150.1336,-151.0001"/>
</g>
<!-- Node70 -->
<g id="node3" class="node">
<title>Node70</title>
<g id="a_node3"><a xlink:href="classCamera.html#a0a8ee04ccb4f4cc9af52a964cf225f66" target="_top" xlink:title="Increases the zoom level of the camera Increases the zoom level of the camera. ">
<polygon fill="none" stroke="#000000" points="521.5,-202 521.5,-221 678.5,-221 678.5,-202 521.5,-202"/>
<text text-anchor="middle" x="600" y="-209" font-family="Helvetica,sans-Serif" font-size="10.00" fill="#000000">Camera::increaseZoomLevel</text>
</a>
</g>
</g>
<!-- Node69&#45;&gt;Node70 -->
<g id="edge2" class="edge">
<title>Node69&#45;&gt;Node70</title>
<path fill="none" stroke="#191970" d="M237.5024,-169.3613C251.7382,-177.7461 270.7302,-187.5155 289,-192.5 365.9749,-213.5007 457.4922,-216.6089 521.2403,-215.4712"/>
<polygon fill="#191970" stroke="#191970" points="239.2509,-166.3282 228.8897,-164.1155 235.6096,-172.3066 239.2509,-166.3282"/>
</g>
<!-- Node72 -->
<g id="node5" class="node">
<title>Node72</title>
<g id="a_node5"><a xlink:href="classEventManager.html#a65ec91fd5016d4f9c4167fb8babed2df" target="_top" xlink:title="EventManager::checkEvents">
<polygon fill="none" stroke="#000000" points="919,-164 919,-183 1073,-183 1073,-164 919,-164"/>
<text text-anchor="middle" x="996" y="-171" font-family="Helvetica,sans-Serif" font-size="10.00" fill="#000000">EventManager::checkEvents</text>
</a>
</g>
</g>
<!-- Node69&#45;&gt;Node72 -->
<g id="edge18" class="edge">
<title>Node69&#45;&gt;Node72</title>
<path fill="none" stroke="#191970" d="M229.1374,-172.0522C242.863,-187.1054 264.8463,-207.8464 289,-217.5 454.1683,-283.5132 511.3186,-238.7253 689,-230.5 775.4999,-226.4957 798.3538,-230.7564 883,-212.5 915.2565,-205.5429 951.035,-192.1833 973.5173,-183.058"/>
<polygon fill="#191970" stroke="#191970" points="231.629,-169.5851 222.4003,-164.381 226.3694,-174.2043 231.629,-169.5851"/>
</g>
<!-- Node76 -->
<g id="node9" class="node">
<title>Node76</title>
<g id="a_node9"><a xlink:href="classCamera.html#aeea39f352d5873495dea6f376cf3207e" target="_top" xlink:title="Decreases the zoom level of the camera Decreases the zoom level of the camera. ">
<polygon fill="none" stroke="#000000" points="520,-126 520,-145 680,-145 680,-126 520,-126"/>
<text text-anchor="middle" x="600" y="-133" font-family="Helvetica,sans-Serif" font-size="10.00" fill="#000000">Camera::decreaseZoomLevel</text>
</a>
</g>
</g>
<!-- Node69&#45;&gt;Node76 -->
<g id="edge9" class="edge">
<title>Node69&#45;&gt;Node76</title>
<path fill="none" stroke="#191970" d="M263.5387,-152.083C328.1387,-148.8991 442.5814,-143.2586 519.8489,-139.4504"/>
<polygon fill="#191970" stroke="#191970" points="263.0438,-148.6031 253.2283,-152.5912 263.3885,-155.5946 263.0438,-148.6031"/>
</g>
<!-- Node77 -->
<g id="node10" class="node">
<title>Node77</title>
<g id="a_node10"><a xlink:href="classCamera.html#adfb240823ff20b97b69459490dbd8dc3" target="_top" xlink:title="Centers camera on given isometric coordinates Centers the camera on the given isometric coordinates...">
<polygon fill="none" stroke="#000000" points="300.5,-164 300.5,-183 463.5,-183 463.5,-164 300.5,-164"/>
<text text-anchor="middle" x="382" y="-171" font-family="Helvetica,sans-Serif" font-size="10.00" fill="#000000">Camera::centerScreenOnPoint</text>
</a>
</g>
</g>
<!-- Node69&#45;&gt;Node77 -->
<g id="edge12" class="edge">
<title>Node69&#45;&gt;Node77</title>
<path fill="none" stroke="#191970" d="M263.6352,-160.0735C275.1983,-161.3852 287.8298,-162.818 300.3967,-164.2435"/>
<polygon fill="#191970" stroke="#191970" points="263.6797,-156.5562 253.3489,-158.9067 262.8906,-163.5116 263.6797,-156.5562"/>
</g>
<!-- Node79 -->
<g id="node12" class="node">
<title>Node79</title>
<g id="a_node12"><a xlink:href="classUIManager.html#ac927e1cd3dea979202ea9dbf1195b583" target="_top" xlink:title="UIManager::changeResolution">
<polygon fill="none" stroke="#000000" points="301.5,-50 301.5,-69 462.5,-69 462.5,-50 301.5,-50"/>
<text text-anchor="middle" x="382" y="-57" font-family="Helvetica,sans-Serif" font-size="10.00" fill="#000000">UIManager::changeResolution</text>
</a>
</g>
</g>
<!-- Node69&#45;&gt;Node79 -->
<g id="edge19" class="edge">
<title>Node69&#45;&gt;Node79</title>
<path fill="none" stroke="#191970" d="M240.5352,-139.7338C275.2143,-120.065 335.5959,-85.8188 364.9725,-69.1574"/>
<polygon fill="#191970" stroke="#191970" points="238.4542,-136.8902 231.4826,-144.8681 241.9077,-142.9791 238.4542,-136.8902"/>
</g>
<!-- Node82 -->
<g id="node15" class="node">
<title>Node82</title>
<g id="a_node15"><a xlink:href="classUIManager.html#af2ffb4ee45e57152164643ef6cddda37" target="_top" xlink:title="UIManager::changeFullScreenMode">
<polygon fill="none" stroke="#000000" points="289,-9 289,-28 475,-28 475,-9 289,-9"/>
<text text-anchor="middle" x="382" y="-16" font-family="Helvetica,sans-Serif" font-size="10.00" fill="#000000">UIManager::changeFullScreenMode</text>
</a>
</g>
</g>
<!-- Node69&#45;&gt;Node82 -->
<g id="edge22" class="edge">
<title>Node69&#45;&gt;Node82</title>
<path fill="none" stroke="#191970" d="M221.6817,-135.3534C232.3336,-109.6641 254.8158,-64.5002 289,-40.5 296.6042,-35.1612 305.3318,-31.1054 314.3273,-28.0267"/>
<polygon fill="#191970" stroke="#191970" points="218.3857,-134.1703 217.9529,-144.7563 224.8928,-136.7508 218.3857,-134.1703"/>
</g>
<!-- Node71 -->
<g id="node4" class="node">
<title>Node71</title>
<g id="a_node4"><a xlink:href="classCamera.html#a1f8ecd427814c5a4970223c2d13b9310" target="_top" xlink:title="Camera::setPinchDistance">
<polygon fill="none" stroke="#000000" points="731.5,-164 731.5,-183 876.5,-183 876.5,-164 731.5,-164"/>
<text text-anchor="middle" x="804" y="-171" font-family="Helvetica,sans-Serif" font-size="10.00" fill="#000000">Camera::setPinchDistance</text>
</a>
</g>
</g>
<!-- Node70&#45;&gt;Node71 -->
<g id="edge3" class="edge">
<title>Node70&#45;&gt;Node71</title>
<path fill="none" stroke="#191970" d="M661.2973,-200.0819C690.486,-194.6448 724.9943,-188.2168 752.7644,-183.0439"/>
<polygon fill="#191970" stroke="#191970" points="660.4044,-196.6879 651.2145,-201.96 661.6864,-203.5695 660.4044,-196.6879"/>
</g>
<!-- Node70&#45;&gt;Node72 -->
<g id="edge8" class="edge">
<title>Node70&#45;&gt;Node72</title>
<path fill="none" stroke="#191970" d="M688.7933,-207.8101C744.6611,-204.9269 818.1968,-200.1043 883,-192.5 903.647,-190.0772 926.2668,-186.4664 945.8084,-183.0412"/>
<polygon fill="#191970" stroke="#191970" points="688.3841,-204.3262 678.5733,-208.3261 688.7371,-211.3173 688.3841,-204.3262"/>
</g>
<!-- Node71&#45;&gt;Node72 -->
<g id="edge4" class="edge">
<title>Node71&#45;&gt;Node72</title>
<path fill="none" stroke="#191970" d="M886.7207,-173.5C897.3799,-173.5 908.2617,-173.5 918.8269,-173.5"/>
<polygon fill="#191970" stroke="#191970" points="886.587,-170.0001 876.587,-173.5 886.5869,-177.0001 886.587,-170.0001"/>
</g>
<!-- Node73 -->
<g id="node6" class="node">
<title>Node73</title>
<g id="a_node6"><a xlink:href="classGame.html#a1c2ab25d5216b2f4b2fe41efd2c09114" target="_top" xlink:title="begins the game starts running the game ">
<polygon fill="none" stroke="#000000" points="1109,-123 1109,-142 1177,-142 1177,-123 1109,-123"/>
<text text-anchor="middle" x="1143" y="-130" font-family="Helvetica,sans-Serif" font-size="10.00" fill="#000000">Game::run</text>
</a>
</g>
</g>
<!-- Node72&#45;&gt;Node73 -->
<g id="edge5" class="edge">
<title>Node72&#45;&gt;Node73</title>
<path fill="none" stroke="#191970" d="M1039.8958,-161.2569C1061.9621,-155.1024 1088.3026,-147.7557 1108.8363,-142.0286"/>
<polygon fill="#191970" stroke="#191970" points="1038.7863,-157.9327 1030.0942,-163.9907 1040.6669,-164.6754 1038.7863,-157.9327"/>
</g>
<!-- Node74 -->
<g id="node7" class="node">
<title>Node74</title>
<g id="a_node7"><a xlink:href="main_8cxx.html#af582d708d899e67ead623eac34a22387" target="_top" xlink:title="protected_main">
<polygon fill="none" stroke="#000000" points="1213,-123 1213,-142 1306,-142 1306,-123 1213,-123"/>
<text text-anchor="middle" x="1259.5" y="-130" font-family="Helvetica,sans-Serif" font-size="10.00" fill="#000000">protected_main</text>
</a>
</g>
</g>
<!-- Node73&#45;&gt;Node74 -->
<g id="edge6" class="edge">
<title>Node73&#45;&gt;Node74</title>
<path fill="none" stroke="#191970" d="M1187.2653,-132.5C1195.5757,-132.5 1204.2897,-132.5 1212.6749,-132.5"/>
<polygon fill="#191970" stroke="#191970" points="1187.0098,-129.0001 1177.0098,-132.5 1187.0098,-136.0001 1187.0098,-129.0001"/>
</g>
<!-- Node75 -->
<g id="node8" class="node">
<title>Node75</title>
<g id="a_node8"><a xlink:href="main_8cxx.html#a3c04138a5bfe5d72780bb7e82a18e627" target="_top" xlink:title="main">
<polygon fill="none" stroke="#000000" points="1342,-123 1342,-142 1383,-142 1383,-123 1342,-123"/>
<text text-anchor="middle" x="1362.5" y="-130" font-family="Helvetica,sans-Serif" font-size="10.00" fill="#000000">main</text>
</a>
</g>
</g>
<!-- Node74&#45;&gt;Node75 -->
<g id="edge7" class="edge">
<title>Node74&#45;&gt;Node75</title>
<path fill="none" stroke="#191970" d="M1316.2133,-132.5C1325.4322,-132.5 1334.4259,-132.5 1341.9965,-132.5"/>
<polygon fill="#191970" stroke="#191970" points="1316.1782,-129.0001 1306.1782,-132.5 1316.1781,-136.0001 1316.1782,-129.0001"/>
</g>
<!-- Node76&#45;&gt;Node71 -->
<g id="edge10" class="edge">
<title>Node76&#45;&gt;Node71</title>
<path fill="none" stroke="#191970" d="M661.2973,-146.9181C690.486,-152.3552 724.9943,-158.7832 752.7644,-163.9561"/>
<polygon fill="#191970" stroke="#191970" points="661.6864,-143.4305 651.2145,-145.04 660.4044,-150.3121 661.6864,-143.4305"/>
</g>
<!-- Node76&#45;&gt;Node72 -->
<g id="edge11" class="edge">
<title>Node76&#45;&gt;Node72</title>
<path fill="none" stroke="#191970" d="M690.286,-139.2672C745.9666,-142.159 818.7723,-146.9632 883,-154.5 903.647,-156.9228 926.2668,-160.5336 945.8084,-163.9588"/>
<polygon fill="#191970" stroke="#191970" points="690.2592,-135.7614 680.0944,-138.7492 689.9039,-142.7524 690.2592,-135.7614"/>
</g>
<!-- Node77&#45;&gt;Node70 -->
<g id="edge13" class="edge">
<title>Node77&#45;&gt;Node70</title>
<path fill="none" stroke="#191970" d="M446.688,-184.7759C478.0512,-190.2429 515.3131,-196.7381 545.2483,-201.9561"/>
<polygon fill="#191970" stroke="#191970" points="447.1817,-181.3093 436.7292,-183.04 445.9796,-188.2053 447.1817,-181.3093"/>
</g>
<!-- Node77&#45;&gt;Node71 -->
<g id="edge15" class="edge">
<title>Node77&#45;&gt;Node71</title>
<path fill="none" stroke="#191970" d="M473.8274,-173.5C551.1115,-173.5 660.1335,-173.5 731.4237,-173.5"/>
<polygon fill="#191970" stroke="#191970" points="473.6159,-170.0001 463.6159,-173.5 473.6159,-177.0001 473.6159,-170.0001"/>
</g>
<!-- Node77&#45;&gt;Node76 -->
<g id="edge14" class="edge">
<title>Node77&#45;&gt;Node76</title>
<path fill="none" stroke="#191970" d="M446.688,-162.2241C478.0512,-156.7571 515.3131,-150.2619 545.2483,-145.0439"/>
<polygon fill="#191970" stroke="#191970" points="445.9796,-158.7947 436.7292,-163.96 447.1817,-165.6907 445.9796,-158.7947"/>
</g>
<!-- Node78 -->
<g id="node11" class="node">
<title>Node78</title>
<g id="a_node11"><a xlink:href="classCamera.html#af29da768f8948f3afbf0a9b43530eb1d" target="_top" xlink:title="Centers camera on the middle of the map Centers the camera on the middle of the map. ">
<polygon fill="none" stroke="#000000" points="725,-76.5 725,-106.5 883,-106.5 883,-76.5 725,-76.5"/>
<text text-anchor="start" x="733" y="-94.5" font-family="Helvetica,sans-Serif" font-size="10.00" fill="#000000">Camera::centerScreenOnMap</text>
<text text-anchor="middle" x="804" y="-83.5" font-family="Helvetica,sans-Serif" font-size="10.00" fill="#000000">Center</text>
</a>
</g>
</g>
<!-- Node77&#45;&gt;Node78 -->
<g id="edge16" class="edge">
<title>Node77&#45;&gt;Node78</title>
<path fill="none" stroke="#191970" d="M407.8421,-159.0115C433.2513,-145.5168 473.5614,-126.0832 511,-116.5 581.849,-98.3646 665.1519,-92.6973 724.7868,-91.2231"/>
<polygon fill="#191970" stroke="#191970" points="406.0041,-156.0264 398.8704,-163.8598 409.332,-162.1847 406.0041,-156.0264"/>
</g>
<!-- Node78&#45;&gt;Node73 -->
<g id="edge17" class="edge">
<title>Node78&#45;&gt;Node73</title>
<path fill="none" stroke="#191970" d="M893.2863,-102.2986C963.8907,-110.8378 1058.6287,-122.2958 1108.6803,-128.3492"/>
<polygon fill="#191970" stroke="#191970" points="893.4005,-98.787 883.0526,-101.0609 892.56,-105.7364 893.4005,-98.787"/>
</g>
<!-- Node80 -->
<g id="node13" class="node">
<title>Node80</title>
<g id="a_node13"><a xlink:href="classUIManager.html#aa78e356fc3b356d790c848319d1c387e" target="_top" xlink:title="UIManager::setCallbackFunctions">
<polygon fill="none" stroke="#000000" points="511,-50 511,-69 689,-69 689,-50 511,-50"/>
<text text-anchor="middle" x="600" y="-57" font-family="Helvetica,sans-Serif" font-size="10.00" fill="#000000">UIManager::setCallbackFunctions</text>
</a>
</g>
</g>
<!-- Node79&#45;&gt;Node80 -->
<g id="edge20" class="edge">
<title>Node79&#45;&gt;Node80</title>
<path fill="none" stroke="#191970" d="M472.6341,-59.5C485.309,-59.5 498.3251,-59.5 510.9699,-59.5"/>
<polygon fill="#191970" stroke="#191970" points="472.5558,-56.0001 462.5558,-59.5 472.5557,-63.0001 472.5558,-56.0001"/>
</g>
<!-- Node81 -->
<g id="node14" class="node">
<title>Node81</title>
<g id="a_node14"><a xlink:href="classUIManager.html#a5c4cb8e02504ffa0d3faf45181feab9d" target="_top" xlink:title="Fill UI Widgets whose ID start with a $ with data Used for filling widgets with data, like BuildMenu Position combobox, Screen Resolution ComboBox and so on. ">
<polygon fill="none" stroke="#000000" points="527,-.5 527,-30.5 673,-30.5 673,-.5 527,-.5"/>
<text text-anchor="start" x="535" y="-18.5" font-family="Helvetica,sans-Serif" font-size="10.00" fill="#000000">UIManager::initializeDollar</text>
<text text-anchor="middle" x="600" y="-7.5" font-family="Helvetica,sans-Serif" font-size="10.00" fill="#000000">Variables</text>
</a>
</g>
</g>
<!-- Node79&#45;&gt;Node81 -->
<g id="edge21" class="edge">
<title>Node79&#45;&gt;Node81</title>
<path fill="none" stroke="#191970" d="M439.2657,-47.9418C466.001,-42.5457 498.1426,-36.0584 526.6343,-30.3078"/>
<polygon fill="#191970" stroke="#191970" points="438.4126,-44.5433 429.3028,-49.9527 439.7976,-51.4049 438.4126,-44.5433"/>
</g>
<!-- Node82&#45;&gt;Node81 -->
<g id="edge23" class="edge">
<title>Node82&#45;&gt;Node81</title>
<path fill="none" stroke="#191970" d="M485.3047,-17.0784C499.3906,-16.8845 513.6036,-16.6889 526.9995,-16.5046"/>
<polygon fill="#191970" stroke="#191970" points="485.0348,-13.5817 475.084,-17.219 485.1312,-20.581 485.0348,-13.5817"/>
</g>
</g>
</svg>
