<?xml version="1.0" encoding="UTF-8" standalone="no"?>
<!DOCTYPE svg PUBLIC "-//W3C//DTD SVG 1.1//EN"
 "http://www.w3.org/Graphics/SVG/1.1/DTD/svg11.dtd">
<!-- Generated by graphviz version 2.40.1 (20161225.0304)
 -->
<!-- Title: Map::isClickWithinTile Pages: 1 -->
<svg width="881pt" height="180pt"
 viewBox="0.00 0.00 881.00 180.00" xmlns="http://www.w3.org/2000/svg" xmlns:xlink="http://www.w3.org/1999/xlink">
<g id="graph0" class="graph" transform="scale(1 1) rotate(0) translate(4 176)">
<title>Map::isClickWithinTile</title>
<!-- Node346 -->
<g id="node1" class="node">
<title>Node346</title>
<polygon fill="#bfbfbf" stroke="#000000" points="0,-76.5 0,-95.5 125,-95.5 125,-76.5 0,-76.5"/>
<text text-anchor="middle" x="62.5" y="-83.5" font-family="Helvetica,sans-Serif" font-size="10.00" fill="#000000">Map::isClickWithinTile</text>
</g>
<!-- Node347 -->
<g id="node2" class="node">
<title>Node347</title>
<g id="a_node2"><a xlink:href="isoMath_8cxx.html#a7fa61c3d8ef446fb1c48dc4838023649" target="_top" xlink:title="Check if given coordinates are within map boundaries Checks if coordinates are within map boundaries...">
<polygon fill="none" stroke="#000000" points="165.5,-152.5 165.5,-171.5 321.5,-171.5 321.5,-152.5 165.5,-152.5"/>
<text text-anchor="middle" x="243.5" y="-159.5" font-family="Helvetica,sans-Serif" font-size="10.00" fill="#000000">isPointWithinMapBoundaries</text>
</a>
</g>
</g>
<!-- Node346&#45;&gt;Node347 -->
<g id="edge1" class="edge">
<title>Node346&#45;&gt;Node347</title>
<path fill="none" stroke="#191970" d="M78.3995,-95.6887C97.4819,-107.0081 130.7049,-125.7444 161,-138 171.8021,-142.3699 183.6936,-146.3076 195.0039,-149.67"/>
<polygon fill="#191970" stroke="#191970" points="194.1738,-153.073 204.7516,-152.4731 196.1084,-146.3457 194.1738,-153.073"/>
</g>
<!-- Node348 -->
<g id="node3" class="node">
<title>Node348</title>
<g id="a_node3"><a xlink:href="classSingleton.html#af5cb1e5749949e2b68416cfb8d378044" target="_top" xlink:title="Get an instance of the singleton. ">
<polygon fill="none" stroke="#000000" points="386.5,-131 386.5,-161 499.5,-161 499.5,-131 386.5,-131"/>
<text text-anchor="start" x="394.5" y="-149" font-family="Helvetica,sans-Serif" font-size="10.00" fill="#000000">Singleton&lt; Settings</text>
<text text-anchor="middle" x="443" y="-138" font-family="Helvetica,sans-Serif" font-size="10.00" fill="#000000"> &gt;::instance</text>
</a>
</g>
</g>
<!-- Node346&#45;&gt;Node348 -->
<g id="edge12" class="edge">
<title>Node346&#45;&gt;Node348</title>
<path fill="none" stroke="#191970" d="M109.5161,-95.5276C125.7922,-98.704 144.1712,-102.1551 161,-105 234.5137,-117.4274 319.2005,-129.4316 376.43,-137.2042"/>
<polygon fill="#191970" stroke="#191970" points="376.0541,-140.6851 386.4331,-138.5576 376.9927,-133.7483 376.0541,-140.6851"/>
</g>
<!-- Node349 -->
<g id="node4" class="node">
<title>Node349</title>
<g id="a_node4"><a xlink:href="classMap.html#a1676db3d125b2c1764adfcb64d6332a2" target="_top" xlink:title="Map::nodeIdx">
<polygon fill="none" stroke="#000000" points="202.5,-76.5 202.5,-95.5 284.5,-95.5 284.5,-76.5 202.5,-76.5"/>
<text text-anchor="middle" x="243.5" y="-83.5" font-family="Helvetica,sans-Serif" font-size="10.00" fill="#000000">Map::nodeIdx</text>
</a>
</g>
</g>
<!-- Node346&#45;&gt;Node349 -->
<g id="edge3" class="edge">
<title>Node346&#45;&gt;Node349</title>
<path fill="none" stroke="#191970" d="M125.0434,-86C146.8968,-86 171.1619,-86 192.0109,-86"/>
<polygon fill="#191970" stroke="#191970" points="192.2576,-89.5001 202.2576,-86 192.2576,-82.5001 192.2576,-89.5001"/>
</g>
<!-- Node350 -->
<g id="node5" class="node">
<title>Node350</title>
<g id="a_node5"><a xlink:href="classMapLayers.html#a1d810628821913c499b8348107b66891" target="_top" xlink:title="Check if given Layer is being drawn. ">
<polygon fill="none" stroke="#000000" points="173,-38.5 173,-57.5 314,-57.5 314,-38.5 173,-38.5"/>
<text text-anchor="middle" x="243.5" y="-45.5" font-family="Helvetica,sans-Serif" font-size="10.00" fill="#000000">MapLayers::isLayerActive</text>
</a>
</g>
</g>
<!-- Node346&#45;&gt;Node350 -->
<g id="edge4" class="edge">
<title>Node346&#45;&gt;Node350</title>
<path fill="none" stroke="#191970" d="M108.1739,-76.411C132.4892,-71.3061 162.5802,-64.9887 188.2084,-59.6082"/>
<polygon fill="#191970" stroke="#191970" points="189.087,-63.0001 198.1545,-57.5201 187.6487,-56.1495 189.087,-63.0001"/>
</g>
<!-- Node357 -->
<g id="node12" class="node">
<title>Node357</title>
<g id="a_node12"><a xlink:href="classMap.html#a60c25a64389c3007bb118d3041ac86c9" target="_top" xlink:title="Map::getColorOfPixelInSurface">
<polygon fill="none" stroke="#000000" points="161,-.5 161,-19.5 326,-19.5 326,-.5 161,-.5"/>
<text text-anchor="middle" x="243.5" y="-7.5" font-family="Helvetica,sans-Serif" font-size="10.00" fill="#000000">Map::getColorOfPixelInSurface</text>
</a>
</g>
</g>
<!-- Node346&#45;&gt;Node357 -->
<g id="edge11" class="edge">
<title>Node346&#45;&gt;Node357</title>
<path fill="none" stroke="#191970" d="M76.1821,-76.2999C94.6153,-63.6598 128.833,-41.6795 161,-29 167.431,-26.4651 174.2836,-24.2202 181.1857,-22.2445"/>
<polygon fill="#191970" stroke="#191970" points="182.5353,-25.5066 191.2903,-19.54 180.7254,-18.7446 182.5353,-25.5066"/>
</g>
<!-- Node347&#45;&gt;Node348 -->
<g id="edge2" class="edge">
<title>Node347&#45;&gt;Node348</title>
<path fill="none" stroke="#191970" d="M321.7751,-155.7223C339.7519,-154.2805 358.7056,-152.7605 376.148,-151.3616"/>
<polygon fill="#191970" stroke="#191970" points="376.5362,-154.8418 386.2244,-150.5534 375.9765,-147.8642 376.5362,-154.8418"/>
</g>
<!-- Node351 -->
<g id="node6" class="node">
<title>Node351</title>
<g id="a_node6"><a xlink:href="classMapLayers.html#ab663dfc9e4c144f904ad85543b66ac8f" target="_top" xlink:title="Toggle Drawing Layer Toggle Drawing Layer (use bitwise XOR to toggle layer) ">
<polygon fill="none" stroke="#000000" points="362,-76.5 362,-95.5 524,-95.5 524,-76.5 362,-76.5"/>
<text text-anchor="middle" x="443" y="-83.5" font-family="Helvetica,sans-Serif" font-size="10.00" fill="#000000">MapLayers::setLayerEditMode</text>
</a>
</g>
</g>
<!-- Node350&#45;&gt;Node351 -->
<g id="edge5" class="edge">
<title>Node350&#45;&gt;Node351</title>
<path fill="none" stroke="#191970" d="M293.5848,-57.54C320.739,-62.7122 354.4857,-69.1401 383.0332,-74.5778"/>
<polygon fill="#191970" stroke="#191970" points="382.4163,-78.0231 392.8946,-76.4561 383.7262,-71.1467 382.4163,-78.0231"/>
</g>
<!-- Node355 -->
<g id="node10" class="node">
<title>Node355</title>
<g id="a_node10"><a xlink:href="classMapLayers.html#a53d7fcd90e70eaf36239d7a75c0c5dda" target="_top" xlink:title="MapLayers::MapLayers">
<polygon fill="none" stroke="#000000" points="379,-38.5 379,-57.5 507,-57.5 507,-38.5 379,-38.5"/>
<text text-anchor="middle" x="443" y="-45.5" font-family="Helvetica,sans-Serif" font-size="10.00" fill="#000000">MapLayers::MapLayers</text>
</a>
</g>
</g>
<!-- Node350&#45;&gt;Node355 -->
<g id="edge9" class="edge">
<title>Node350&#45;&gt;Node355</title>
<path fill="none" stroke="#191970" d="M314.117,-48C331.7326,-48 350.6769,-48 368.4746,-48"/>
<polygon fill="#191970" stroke="#191970" points="368.8025,-51.5001 378.8024,-48 368.8024,-44.5001 368.8025,-51.5001"/>
</g>
<!-- Node356 -->
<g id="node11" class="node">
<title>Node356</title>
<g id="a_node11"><a xlink:href="classMapLayers.html#aa7fa21110e27ec69f131692b0a510d66" target="_top" xlink:title="MapLayers::~MapLayers">
<polygon fill="none" stroke="#000000" points="375,-.5 375,-19.5 511,-19.5 511,-.5 375,-.5"/>
<text text-anchor="middle" x="443" y="-7.5" font-family="Helvetica,sans-Serif" font-size="10.00" fill="#000000">MapLayers::~MapLayers</text>
</a>
</g>
</g>
<!-- Node350&#45;&gt;Node356 -->
<g id="edge10" class="edge">
<title>Node350&#45;&gt;Node356</title>
<path fill="none" stroke="#191970" d="M293.5848,-38.46C320.739,-33.2878 354.4857,-26.8599 383.0332,-21.4222"/>
<polygon fill="#191970" stroke="#191970" points="383.7262,-24.8533 392.8946,-19.5439 382.4163,-17.9769 383.7262,-24.8533"/>
</g>
<!-- Node352 -->
<g id="node7" class="node">
<title>Node352</title>
<g id="a_node7"><a xlink:href="classMapLayers.html#a0a64d01a42e8864b78e1bc54007cb7d9" target="_top" xlink:title="Toggle Drawing Layer Toggle Drawing Layer (use bitwise XOR to toggle layer) ">
<polygon fill="none" stroke="#000000" points="560,-93 560,-123 700,-123 700,-93 560,-93"/>
<text text-anchor="start" x="568" y="-111" font-family="Helvetica,sans-Serif" font-size="10.00" fill="#000000">MapLayers::deactivateAll</text>
<text text-anchor="middle" x="630" y="-100" font-family="Helvetica,sans-Serif" font-size="10.00" fill="#000000">Layers</text>
</a>
</g>
</g>
<!-- Node351&#45;&gt;Node352 -->
<g id="edge6" class="edge">
<title>Node351&#45;&gt;Node352</title>
<path fill="none" stroke="#191970" d="M523.9333,-95.5216C532.5179,-96.5315 541.2464,-97.5584 549.8223,-98.5673"/>
<polygon fill="#191970" stroke="#191970" points="549.4613,-102.0489 559.8018,-99.7414 550.2792,-95.0969 549.4613,-102.0489"/>
</g>
<!-- Node354 -->
<g id="node9" class="node">
<title>Node354</title>
<g id="a_node9"><a xlink:href="classMapLayers.html#a5db6ba7e194ada6a4d0334d0428ff89b" target="_top" xlink:title="Enable drawing layers. ">
<polygon fill="none" stroke="#000000" points="560,-54.5 560,-73.5 700,-73.5 700,-54.5 560,-54.5"/>
<text text-anchor="middle" x="630" y="-61.5" font-family="Helvetica,sans-Serif" font-size="10.00" fill="#000000">MapLayers::enableLayers</text>
</a>
</g>
</g>
<!-- Node351&#45;&gt;Node354 -->
<g id="edge8" class="edge">
<title>Node351&#45;&gt;Node354</title>
<path fill="none" stroke="#191970" d="M523.9333,-76.4784C532.5179,-75.4685 541.2464,-74.4416 549.8223,-73.4327"/>
<polygon fill="#191970" stroke="#191970" points="550.2792,-76.9031 559.8018,-72.2586 549.4613,-69.9511 550.2792,-76.9031"/>
</g>
<!-- Node353 -->
<g id="node8" class="node">
<title>Node353</title>
<g id="a_node8"><a xlink:href="classMapLayers.html#a3b1b1f10dd431fa83e098a20e4c836b9" target="_top" xlink:title="Disable Drawing Layer Disable Drawing Layer ( Turned off by using bitwise AND with inversed pattern) ...">
<polygon fill="none" stroke="#000000" points="736,-98.5 736,-117.5 873,-117.5 873,-98.5 736,-98.5"/>
<text text-anchor="middle" x="804.5" y="-105.5" font-family="Helvetica,sans-Serif" font-size="10.00" fill="#000000">MapLayers::disableLayer</text>
</a>
</g>
</g>
<!-- Node352&#45;&gt;Node353 -->
<g id="edge7" class="edge">
<title>Node352&#45;&gt;Node353</title>
<path fill="none" stroke="#191970" d="M700.2215,-108C708.5704,-108 717.1356,-108 725.5953,-108"/>
<polygon fill="#191970" stroke="#191970" points="725.8402,-111.5001 735.8402,-108 725.8402,-104.5001 725.8402,-111.5001"/>
</g>
</g>
</svg>
