<?xml version="1.0" encoding="UTF-8" standalone="no"?>
<!DOCTYPE svg PUBLIC "-//W3C//DTD SVG 1.1//EN"
 "http://www.w3.org/Graphics/SVG/1.1/DTD/svg11.dtd">
<!-- Generated by graphviz version 2.40.1 (20161225.0304)
 -->
<!-- Title: Map::getNodeInformation Pages: 1 -->
<!--zoomable 181 -->
<svg id="main" version="1.1" xmlns="http://www.w3.org/2000/svg" xmlns:xlink="http://www.w3.org/1999/xlink" xml:space="preserve" onload="init(evt)">
<style type="text/css"><![CDATA[
.edge:hover path { stroke: red; }
.edge:hover polygon { stroke: red; fill: red; }
]]></style>
<script type="text/javascript"><![CDATA[
var edges = document.getElementsByTagName('g');
if (edges && edges.length) {
  for (var i=0;i<edges.length;i++) {
    if (edges[i].id.substr(0,4)=='edge') {
      edges[i].setAttribute('class','edge');
    }
  }
}
]]></script>
        <defs>
                <circle id="rim" cx="0" cy="0" r="7"/>
                <circle id="rim2" cx="0" cy="0" r="3.5"/>
                <g id="zoomPlus">
                        <use xlink:href="#rim" fill="#404040">
                                <set attributeName="fill" to="#808080" begin="zoomplus.mouseover" end="zoomplus.mouseout"/>
                        </use>
                        <path d="M-4,0h8M0,-4v8" fill="none" stroke="white" stroke-width="1.5" pointer-events="none"/>
                </g>
                <g id="zoomMin">
                        <use xlink:href="#rim" fill="#404040">
                                <set attributeName="fill" to="#808080" begin="zoomminus.mouseover" end="zoomminus.mouseout"/>
                        </use>
                        <path d="M-4,0h8" fill="none" stroke="white" stroke-width="1.5" pointer-events="none"/>
                </g>
                <g id="dirArrow">
                        <path fill="none" stroke="white" stroke-width="1.5" d="M0,-3.0v7 M-2.5,-0.5L0,-3.0L2.5,-0.5"/>
                </g>
               <g id="resetDef">
                       <use xlink:href="#rim2" fill="#404040">
                               <set attributeName="fill" to="#808080" begin="reset.mouseover" end="reset.mouseout"/>
                       </use>
               </g>
        </defs>

<script type="text/javascript">
var viewWidth = 1284;
var viewHeight = 181;
var sectionId = 'dynsection-21';
</script>
<script xlink:href="svgpan.js"/>
<svg id="graph" class="graph">
<g id="viewport">
<title>Map::getNodeInformation</title>
<!-- Node252 -->
<g id="node1" class="node">
<title>Node252</title>
<polygon fill="#bfbfbf" stroke="#000000" points="0,-69 0,-88 141,-88 141,-69 0,-69"/>
<text text-anchor="middle" x="70.5" y="-76" font-family="Helvetica,sans-Serif" font-size="10.00" fill="#000000">Map::getNodeInformation</text>
</g>
<!-- Node253 -->
<g id="node2" class="node">
<title>Node253</title>
<g id="a_node2"><a xlink:href="classMap.html#a1676db3d125b2c1764adfcb64d6332a2" target="_top" xlink:title="Map::nodeIdx">
<polygon fill="none" stroke="#000000" points="228,-126 228,-145 310,-145 310,-126 228,-126"/>
<text text-anchor="middle" x="269" y="-133" font-family="Helvetica,sans-Serif" font-size="10.00" fill="#000000">Map::nodeIdx</text>
</a>
</g>
</g>
<!-- Node252&#45;&gt;Node253 -->
<g id="edge1" class="edge">
<title>Node252&#45;&gt;Node253</title>
<path fill="none" stroke="#191970" d="M94.3021,-88.0688C115.6858,-96.4056 148.078,-108.3961 177,-116.5 190.1402,-120.1819 204.5189,-123.4866 217.9227,-126.2675"/>
<polygon fill="#191970" stroke="#191970" points="217.4514,-129.7429 227.946,-128.2895 218.8356,-122.8811 217.4514,-129.7429"/>
</g>
<!-- Node254 -->
<g id="node3" class="node">
<title>Node254</title>
<g id="a_node3"><a xlink:href="classMapNode.html#a0b089ef93b46bbfed8ccf71dc516c4ef" target="_top" xlink:title="MapNode::getActiveMapNodeData">
<polygon fill="none" stroke="#000000" points="177,-88 177,-107 361,-107 361,-88 177,-88"/>
<text text-anchor="middle" x="269" y="-95" font-family="Helvetica,sans-Serif" font-size="10.00" fill="#000000">MapNode::getActiveMapNodeData</text>
</a>
</g>
</g>
<!-- Node252&#45;&gt;Node254 -->
<g id="edge2" class="edge">
<title>Node252&#45;&gt;Node254</title>
<path fill="none" stroke="#191970" d="M141.0426,-85.2522C149.3723,-86.0495 157.9973,-86.8751 166.6536,-87.7036"/>
<polygon fill="#191970" stroke="#191970" points="166.526,-91.2073 176.8141,-88.6762 167.1931,-84.2392 166.526,-91.2073"/>
</g>
<!-- Node263 -->
<g id="node12" class="node">
<title>Node263</title>
<g id="a_node12"><a xlink:href="classMapNode.html#a67296a58e167356efbabeaac3226b5d3" target="_top" xlink:title="get iso coordinates of this node gets the iso coordinates of this node ">
<polygon fill="none" stroke="#000000" points="197.5,-50 197.5,-69 340.5,-69 340.5,-50 197.5,-50"/>
<text text-anchor="middle" x="269" y="-57" font-family="Helvetica,sans-Serif" font-size="10.00" fill="#000000">MapNode::getCoordinates</text>
</a>
</g>
</g>
<!-- Node252&#45;&gt;Node263 -->
<g id="edge11" class="edge">
<title>Node252&#45;&gt;Node263</title>
<path fill="none" stroke="#191970" d="M141.0426,-71.7478C156.034,-70.3129 171.9816,-68.7864 187.3478,-67.3156"/>
<polygon fill="#191970" stroke="#191970" points="187.7247,-70.7956 197.3457,-66.3586 187.0577,-63.8274 187.7247,-70.7956"/>
</g>
<!-- Node264 -->
<g id="node13" class="node">
<title>Node264</title>
<g id="a_node13"><a xlink:href="classMapNode.html#a6b57e4355d0780fb37c34d63bbcdfdf9" target="_top" xlink:title="MapNode::getMapNodeDataFor\lLayer">
<polygon fill="none" stroke="#000000" points="185,-.5 185,-30.5 353,-30.5 353,-.5 185,-.5"/>
<text text-anchor="start" x="193" y="-18.5" font-family="Helvetica,sans-Serif" font-size="10.00" fill="#000000">MapNode::getMapNodeDataFor</text>
<text text-anchor="middle" x="269" y="-7.5" font-family="Helvetica,sans-Serif" font-size="10.00" fill="#000000">Layer</text>
</a>
</g>
</g>
<!-- Node252&#45;&gt;Node264 -->
<g id="edge12" class="edge">
<title>Node252&#45;&gt;Node264</title>
<path fill="none" stroke="#191970" d="M95.7054,-68.8844C117.1687,-60.8466 148.9035,-49.3154 177,-40.5 184.7469,-38.0694 192.9029,-35.6523 201.0269,-33.3328"/>
<polygon fill="#191970" stroke="#191970" points="202.2124,-36.6352 210.8907,-30.5577 200.3165,-29.8969 202.2124,-36.6352"/>
</g>
<!-- Node255 -->
<g id="node4" class="node">
<title>Node255</title>
<g id="a_node4"><a xlink:href="classMapNode.html#ac307762dc7ad609974c6b13774c3c00d" target="_top" xlink:title="return topmost active layer. check layers in order of significance for the topmost active layer that ...">
<polygon fill="none" stroke="#000000" points="397,-82.5 397,-112.5 552,-112.5 552,-82.5 397,-82.5"/>
<text text-anchor="start" x="405" y="-100.5" font-family="Helvetica,sans-Serif" font-size="10.00" fill="#000000">MapNode::getTopMostActive</text>
<text text-anchor="middle" x="474.5" y="-89.5" font-family="Helvetica,sans-Serif" font-size="10.00" fill="#000000">Layer</text>
</a>
</g>
</g>
<!-- Node254&#45;&gt;Node255 -->
<g id="edge3" class="edge">
<title>Node254&#45;&gt;Node255</title>
<path fill="none" stroke="#191970" d="M361.2305,-97.5C369.6507,-97.5 378.166,-97.5 386.5472,-97.5"/>
<polygon fill="#191970" stroke="#191970" points="386.6886,-101.0001 396.6885,-97.5 386.6885,-94.0001 386.6886,-101.0001"/>
</g>
<!-- Node256 -->
<g id="node5" class="node">
<title>Node256</title>
<g id="a_node5"><a xlink:href="classMapLayers.html#a1d810628821913c499b8348107b66891" target="_top" xlink:title="Check if given Layer is being drawn. ">
<polygon fill="none" stroke="#000000" points="588,-88 588,-107 729,-107 729,-88 588,-88"/>
<text text-anchor="middle" x="658.5" y="-95" font-family="Helvetica,sans-Serif" font-size="10.00" fill="#000000">MapLayers::isLayerActive</text>
</a>
</g>
</g>
<!-- Node255&#45;&gt;Node256 -->
<g id="edge4" class="edge">
<title>Node255&#45;&gt;Node256</title>
<path fill="none" stroke="#191970" d="M552.2659,-97.5C560.6335,-97.5 569.162,-97.5 577.5656,-97.5"/>
<polygon fill="#191970" stroke="#191970" points="577.735,-101.0001 587.735,-97.5 577.7349,-94.0001 577.735,-101.0001"/>
</g>
<!-- Node257 -->
<g id="node6" class="node">
<title>Node257</title>
<g id="a_node6"><a xlink:href="classMapLayers.html#ab663dfc9e4c144f904ad85543b66ac8f" target="_top" xlink:title="Toggle Drawing Layer Toggle Drawing Layer (use bitwise XOR to toggle layer) ">
<polygon fill="none" stroke="#000000" points="765,-126 765,-145 927,-145 927,-126 765,-126"/>
<text text-anchor="middle" x="846" y="-133" font-family="Helvetica,sans-Serif" font-size="10.00" fill="#000000">MapLayers::setLayerEditMode</text>
</a>
</g>
</g>
<!-- Node256&#45;&gt;Node257 -->
<g id="edge5" class="edge">
<title>Node256&#45;&gt;Node257</title>
<path fill="none" stroke="#191970" d="M705.8142,-107.089C731.1141,-112.2165 762.4502,-118.5672 789.075,-123.9632"/>
<polygon fill="#191970" stroke="#191970" points="788.5301,-127.4238 799.0261,-125.9799 789.9205,-120.5633 788.5301,-127.4238"/>
</g>
<!-- Node261 -->
<g id="node10" class="node">
<title>Node261</title>
<g id="a_node10"><a xlink:href="classMapLayers.html#a53d7fcd90e70eaf36239d7a75c0c5dda" target="_top" xlink:title="MapLayers::MapLayers">
<polygon fill="none" stroke="#000000" points="782,-88 782,-107 910,-107 910,-88 782,-88"/>
<text text-anchor="middle" x="846" y="-95" font-family="Helvetica,sans-Serif" font-size="10.00" fill="#000000">MapLayers::MapLayers</text>
</a>
</g>
</g>
<!-- Node256&#45;&gt;Node261 -->
<g id="edge9" class="edge">
<title>Node256&#45;&gt;Node261</title>
<path fill="none" stroke="#191970" d="M729.1185,-97.5C743.0688,-97.5 757.7479,-97.5 771.8122,-97.5"/>
<polygon fill="#191970" stroke="#191970" points="771.9254,-101.0001 781.9254,-97.5 771.9254,-94.0001 771.9254,-101.0001"/>
</g>
<!-- Node262 -->
<g id="node11" class="node">
<title>Node262</title>
<g id="a_node11"><a xlink:href="classMapLayers.html#aa7fa21110e27ec69f131692b0a510d66" target="_top" xlink:title="MapLayers::~MapLayers">
<polygon fill="none" stroke="#000000" points="778,-50 778,-69 914,-69 914,-50 778,-50"/>
<text text-anchor="middle" x="846" y="-57" font-family="Helvetica,sans-Serif" font-size="10.00" fill="#000000">MapLayers::~MapLayers</text>
</a>
</g>
</g>
<!-- Node256&#45;&gt;Node262 -->
<g id="edge10" class="edge">
<title>Node256&#45;&gt;Node262</title>
<path fill="none" stroke="#191970" d="M705.8142,-87.911C731.1141,-82.7835 762.4502,-76.4328 789.075,-71.0368"/>
<polygon fill="#191970" stroke="#191970" points="789.9205,-74.4367 799.0261,-69.0201 788.5301,-67.5762 789.9205,-74.4367"/>
</g>
<!-- Node258 -->
<g id="node7" class="node">
<title>Node258</title>
<g id="a_node7"><a xlink:href="classMapLayers.html#a0a64d01a42e8864b78e1bc54007cb7d9" target="_top" xlink:title="Toggle Drawing Layer Toggle Drawing Layer (use bitwise XOR to toggle layer) ">
<polygon fill="none" stroke="#000000" points="963,-142.5 963,-172.5 1103,-172.5 1103,-142.5 963,-142.5"/>
<text text-anchor="start" x="971" y="-160.5" font-family="Helvetica,sans-Serif" font-size="10.00" fill="#000000">MapLayers::deactivateAll</text>
<text text-anchor="middle" x="1033" y="-149.5" font-family="Helvetica,sans-Serif" font-size="10.00" fill="#000000">Layers</text>
</a>
</g>
</g>
<!-- Node257&#45;&gt;Node258 -->
<g id="edge6" class="edge">
<title>Node257&#45;&gt;Node258</title>
<path fill="none" stroke="#191970" d="M926.9333,-145.0216C935.5179,-146.0315 944.2464,-147.0584 952.8223,-148.0673"/>
<polygon fill="#191970" stroke="#191970" points="952.4613,-151.5489 962.8018,-149.2414 953.2792,-144.5969 952.4613,-151.5489"/>
</g>
<!-- Node260 -->
<g id="node9" class="node">
<title>Node260</title>
<g id="a_node9"><a xlink:href="classMapLayers.html#a5db6ba7e194ada6a4d0334d0428ff89b" target="_top" xlink:title="Enable drawing layers. ">
<polygon fill="none" stroke="#000000" points="963,-104 963,-123 1103,-123 1103,-104 963,-104"/>
<text text-anchor="middle" x="1033" y="-111" font-family="Helvetica,sans-Serif" font-size="10.00" fill="#000000">MapLayers::enableLayers</text>
</a>
</g>
</g>
<!-- Node257&#45;&gt;Node260 -->
<g id="edge8" class="edge">
<title>Node257&#45;&gt;Node260</title>
<path fill="none" stroke="#191970" d="M926.9333,-125.9784C935.5179,-124.9685 944.2464,-123.9416 952.8223,-122.9327"/>
<polygon fill="#191970" stroke="#191970" points="953.2792,-126.4031 962.8018,-121.7586 952.4613,-119.4511 953.2792,-126.4031"/>
</g>
<!-- Node259 -->
<g id="node8" class="node">
<title>Node259</title>
<g id="a_node8"><a xlink:href="classMapLayers.html#a3b1b1f10dd431fa83e098a20e4c836b9" target="_top" xlink:title="Disable Drawing Layer Disable Drawing Layer ( Turned off by using bitwise AND with inversed pattern) ...">
<polygon fill="none" stroke="#000000" points="1139,-148 1139,-167 1276,-167 1276,-148 1139,-148"/>
<text text-anchor="middle" x="1207.5" y="-155" font-family="Helvetica,sans-Serif" font-size="10.00" fill="#000000">MapLayers::disableLayer</text>
</a>
</g>
</g>
<!-- Node258&#45;&gt;Node259 -->
<g id="edge7" class="edge">
<title>Node258&#45;&gt;Node259</title>
<path fill="none" stroke="#191970" d="M1103.2215,-157.5C1111.5704,-157.5 1120.1356,-157.5 1128.5953,-157.5"/>
<polygon fill="#191970" stroke="#191970" points="1128.8402,-161.0001 1138.8402,-157.5 1128.8402,-154.0001 1128.8402,-161.0001"/>
</g>
</g>
</svg>
        <g id="navigator" transform="translate(0 0)" fill="#404254">
                <rect fill="#f2f5e9" fill-opacity="0.5" stroke="#606060" stroke-width=".5" x="0" y="0" width="60" height="60"/>
                <use id="zoomplus" xlink:href="#zoomPlus" x="17" y="9" onmousedown="handleZoom(evt,'in')"/>
                <use id="zoomminus" xlink:href="#zoomMin" x="42" y="9" onmousedown="handleZoom(evt,'out')"/>
                <use id="reset" xlink:href="#resetDef" x="30" y="36" onmousedown="handleReset()"/>
                <g id="arrowUp" xlink:href="#dirArrow" transform="translate(30 24)" onmousedown="handlePan(0,-1)">
                  <use xlink:href="#rim" fill="#404040">
                        <set attributeName="fill" to="#808080" begin="arrowUp.mouseover" end="arrowUp.mouseout"/>
                  </use>
                  <path fill="none" stroke="white" stroke-width="1.5" d="M0,-3.0v7 M-2.5,-0.5L0,-3.0L2.5,-0.5"/>
                </g>
                <g id="arrowRight" xlink:href="#dirArrow" transform="rotate(90) translate(36 -43)" onmousedown="handlePan(1,0)">
                  <use xlink:href="#rim" fill="#404040">
                        <set attributeName="fill" to="#808080" begin="arrowRight.mouseover" end="arrowRight.mouseout"/>
                  </use>
                  <path fill="none" stroke="white" stroke-width="1.5" d="M0,-3.0v7 M-2.5,-0.5L0,-3.0L2.5,-0.5"/>
                </g>
                <g id="arrowDown" xlink:href="#dirArrow" transform="rotate(180) translate(-30 -48)" onmousedown="handlePan(0,1)">
                  <use xlink:href="#rim" fill="#404040">
                        <set attributeName="fill" to="#808080" begin="arrowDown.mouseover" end="arrowDown.mouseout"/>
                  </use>
                  <path fill="none" stroke="white" stroke-width="1.5" d="M0,-3.0v7 M-2.5,-0.5L0,-3.0L2.5,-0.5"/>
                </g>
                <g id="arrowLeft" xlink:href="#dirArrow" transform="rotate(270) translate(-36 17)" onmousedown="handlePan(-1,0)">
                  <use xlink:href="#rim" fill="#404040">
                        <set attributeName="fill" to="#808080" begin="arrowLeft.mouseover" end="arrowLeft.mouseout"/>
                  </use>
                  <path fill="none" stroke="white" stroke-width="1.5" d="M0,-3.0v7 M-2.5,-0.5L0,-3.0L2.5,-0.5"/>
                </g>
        </g>
        <svg viewBox="0 0 15 15" width="100%" height="30px" preserveAspectRatio="xMaxYMin meet">
         <g id="arrow_out" transform="scale(0.3 0.3)">
          <a xlink:href="classMap_a0241b997090783e5d13667114731a592_cgraph_org.svg" target="_base">
           <rect id="button" ry="5" rx="5" y="6" x="6" height="38" width="38"
                fill="#f2f5e9" fill-opacity="0.5" stroke="#606060" stroke-width="1.0"/>
           <path id="arrow"
             d="M 11.500037,31.436501 C 11.940474,20.09759 22.043105,11.32322 32.158766,21.979434 L 37.068811,17.246167 C 37.068811,17.246167 37.088388,32 37.088388,32 L 22.160133,31.978069 C 22.160133,31.978069 26.997745,27.140456 26.997745,27.140456 C 18.528582,18.264221 13.291696,25.230495 11.500037,31.436501 z"
             style="fill:#404040;"/>
          </a>
         </g>
        </svg>
</svg>
