<?xml version="1.0" encoding="UTF-8" standalone="no"?>
<!DOCTYPE svg PUBLIC "-//W3C//DTD SVG 1.1//EN"
 "http://www.w3.org/Graphics/SVG/1.1/DTD/svg11.dtd">
<!-- Generated by graphviz version 2.40.1 (20161225.0304)
 -->
<!-- Title: UIManager::changeResolution Pages: 1 -->
<svg width="1009pt" height="366pt"
 viewBox="0.00 0.00 1009.00 365.59" xmlns="http://www.w3.org/2000/svg" xmlns:xlink="http://www.w3.org/1999/xlink">
<g id="graph0" class="graph" transform="scale(1 1) rotate(0) translate(4 361.5941)">
<title>UIManager::changeResolution</title>
<!-- Node30 -->
<g id="node1" class="node">
<title>Node30</title>
<polygon fill="#bfbfbf" stroke="#000000" points="0,-285.5 0,-304.5 161,-304.5 161,-285.5 0,-285.5"/>
<text text-anchor="middle" x="80.5" y="-292.5" font-family="Helvetica,sans-Serif" font-size="10.00" fill="#000000">UIManager::changeResolution</text>
</g>
<!-- Node31 -->
<g id="node2" class="node">
<title>Node31</title>
<g id="a_node2"><a xlink:href="classSingleton.html#af5cb1e5749949e2b68416cfb8d378044" target="_top" xlink:title="Get an instance of the singleton. ">
<polygon fill="none" stroke="#000000" points="593,-274 593,-304 748,-304 748,-274 593,-274"/>
<text text-anchor="start" x="601" y="-292" font-family="Helvetica,sans-Serif" font-size="10.00" fill="#000000">Singleton&lt; WindowManager</text>
<text text-anchor="middle" x="670.5" y="-281" font-family="Helvetica,sans-Serif" font-size="10.00" fill="#000000"> &gt;::instance</text>
</a>
</g>
</g>
<!-- Node30&#45;&gt;Node31 -->
<g id="edge1" class="edge">
<title>Node30&#45;&gt;Node31</title>
<path fill="none" stroke="#191970" d="M125.0915,-304.5486C146.4731,-311.2794 172.6738,-319.2298 197,-323 351.6143,-346.9627 394.6406,-343.5534 549,-318 564.5613,-315.4239 580.889,-311.3309 596.3463,-306.9619"/>
<polygon fill="#191970" stroke="#191970" points="597.7283,-310.2057 606.3615,-304.0641 595.7827,-303.4815 597.7283,-310.2057"/>
</g>
<!-- Node30&#45;&gt;Node31 -->
<g id="edge21" class="edge">
<title>Node30&#45;&gt;Node31</title>
<path fill="none" stroke="#191970" d="M90.8403,-304.6233C110.8637,-316.8827 156.5262,-334.7272 197,-341 351.6143,-364.9627 394.6406,-361.5534 549,-336 580.8126,-330.7336 615.8278,-319.1275 640.0624,-308.4524"/>
<polygon fill="#191970" stroke="#191970" points="641.8273,-311.4921 649.4289,-304.112 638.8841,-305.1409 641.8273,-311.4921"/>
</g>
<!-- Node32 -->
<g id="node3" class="node">
<title>Node32</title>
<g id="a_node3"><a xlink:href="classWindowManager.html#a02ff8708c66cbb980399eb967a37a937" target="_top" xlink:title="WindowManager::setScreen\lResolution">
<polygon fill="none" stroke="#000000" points="197,-292 197,-322 349,-322 349,-292 197,-292"/>
<text text-anchor="start" x="205" y="-310" font-family="Helvetica,sans-Serif" font-size="10.00" fill="#000000">WindowManager::setScreen</text>
<text text-anchor="middle" x="273" y="-299" font-family="Helvetica,sans-Serif" font-size="10.00" fill="#000000">Resolution</text>
</a>
</g>
</g>
<!-- Node30&#45;&gt;Node32 -->
<g id="edge2" class="edge">
<title>Node30&#45;&gt;Node32</title>
<path fill="none" stroke="#191970" d="M161.022,-300.0196C169.5378,-300.5504 178.2225,-301.0918 186.7996,-301.6265"/>
<polygon fill="#191970" stroke="#191970" points="186.6039,-305.121 196.8023,-302.25 187.0394,-298.1345 186.6039,-305.121"/>
</g>
<!-- Node33 -->
<g id="node4" class="node">
<title>Node33</title>
<g id="a_node4"><a xlink:href="classComboBox.html#afddbdfd25efa15206eb724b641665cfc" target="_top" xlink:title="Get ID of selected element returns the ID of the selected element in the comboBox. ">
<polygon fill="none" stroke="#000000" points="206.5,-38.5 206.5,-57.5 339.5,-57.5 339.5,-38.5 206.5,-38.5"/>
<text text-anchor="middle" x="273" y="-45.5" font-family="Helvetica,sans-Serif" font-size="10.00" fill="#000000">ComboBox::getActiveID</text>
</a>
</g>
</g>
<!-- Node30&#45;&gt;Node33 -->
<g id="edge4" class="edge">
<title>Node30&#45;&gt;Node33</title>
<path fill="none" stroke="#191970" d="M83.54,-285.384C94.1504,-253.1857 132.4451,-147.7213 197,-86 207.8108,-75.6637 221.9796,-67.5543 235.1508,-61.529"/>
<polygon fill="#191970" stroke="#191970" points="236.6985,-64.6735 244.5029,-57.5081 233.9335,-58.2427 236.6985,-64.6735"/>
</g>
<!-- Node35 -->
<g id="node6" class="node">
<title>Node35</title>
<g id="a_node6"><a xlink:href="classLayout.html#afa734c5af10f59f3dadb066054fe81ab" target="_top" xlink:title="Arrange the layout elements. ">
<polygon fill="none" stroke="#000000" points="203.5,-238.5 203.5,-257.5 342.5,-257.5 342.5,-238.5 203.5,-238.5"/>
<text text-anchor="middle" x="273" y="-245.5" font-family="Helvetica,sans-Serif" font-size="10.00" fill="#000000">Layout::arrangeElements</text>
</a>
</g>
</g>
<!-- Node30&#45;&gt;Node35 -->
<g id="edge6" class="edge">
<title>Node30&#45;&gt;Node35</title>
<path fill="none" stroke="#191970" d="M119.4552,-285.4888C149.6225,-278.1233 191.5962,-267.8752 224.0352,-259.955"/>
<polygon fill="#191970" stroke="#191970" points="224.8883,-263.3496 233.7728,-257.5776 223.228,-256.5494 224.8883,-263.3496"/>
</g>
<!-- Node44 -->
<g id="node15" class="node">
<title>Node44</title>
<g id="a_node15"><a xlink:href="classMap.html#ab69938ac0e56eb0da1d1701221f3d185" target="_top" xlink:title="Refresh all the map tile textures. ">
<polygon fill="none" stroke="#000000" points="234.5,-95.5 234.5,-114.5 311.5,-114.5 311.5,-95.5 234.5,-95.5"/>
<text text-anchor="middle" x="273" y="-102.5" font-family="Helvetica,sans-Serif" font-size="10.00" fill="#000000">Map::refresh</text>
</a>
</g>
</g>
<!-- Node30&#45;&gt;Node44 -->
<g id="edge22" class="edge">
<title>Node30&#45;&gt;Node44</title>
<path fill="none" stroke="#191970" d="M90.3108,-285.3167C121.0682,-254.9587 215.9054,-161.3531 255.4272,-122.3446"/>
<polygon fill="#191970" stroke="#191970" points="258.3197,-124.4074 262.9782,-114.8917 253.4023,-119.4254 258.3197,-124.4074"/>
</g>
<!-- Node32&#45;&gt;Node31 -->
<g id="edge3" class="edge">
<title>Node32&#45;&gt;Node31</title>
<path fill="none" stroke="#191970" d="M349.1971,-310.8587C361.1756,-311.3334 373.4219,-311.7417 385,-312 457.8708,-313.6258 476.4298,-318.8083 549,-312 563.4144,-310.6477 578.6659,-308.4118 593.3132,-305.8516"/>
<polygon fill="#191970" stroke="#191970" points="594.124,-309.2618 603.3394,-304.0343 592.8755,-302.374 594.124,-309.2618"/>
</g>
<!-- Node34 -->
<g id="node5" class="node">
<title>Node34</title>
<g id="a_node5"><a xlink:href="classComboBox.html#ad0dba514b01ed2bb3c41c738c80a7d6a" target="_top" xlink:title="Set ID of selected element sets the ID of the selected element in the comboBox. ">
<polygon fill="none" stroke="#000000" points="401,-19.5 401,-38.5 533,-38.5 533,-19.5 401,-19.5"/>
<text text-anchor="middle" x="467" y="-26.5" font-family="Helvetica,sans-Serif" font-size="10.00" fill="#000000">ComboBox::setActiveID</text>
</a>
</g>
</g>
<!-- Node33&#45;&gt;Node34 -->
<g id="edge5" class="edge">
<title>Node33&#45;&gt;Node34</title>
<path fill="none" stroke="#191970" d="M339.7638,-41.4613C356.1016,-39.8612 373.7111,-38.1365 390.4668,-36.4955"/>
<polygon fill="#191970" stroke="#191970" points="391.1591,-39.9445 400.7703,-35.4864 390.4768,-32.9779 391.1591,-39.9445"/>
</g>
<!-- Node35&#45;&gt;Node31 -->
<g id="edge7" class="edge">
<title>Node35&#45;&gt;Node31</title>
<path fill="none" stroke="#191970" d="M342.5817,-247.4591C356.6198,-248.885 371.2781,-250.5309 385,-252 451.3365,-259.1023 526.4224,-266.4384 582.9373,-273.1085"/>
<polygon fill="#191970" stroke="#191970" points="582.5651,-276.5889 592.9103,-274.3026 583.3973,-269.6385 582.5651,-276.5889"/>
</g>
<!-- Node35&#45;&gt;Node31 -->
<g id="edge10" class="edge">
<title>Node35&#45;&gt;Node31</title>
<path fill="none" stroke="#191970" d="M295.2995,-257.5094C317.8935,-262.4212 353.858,-266.6658 385,-270 451.1992,-277.0875 526.1115,-284.4081 582.5861,-288.5041"/>
<polygon fill="#191970" stroke="#191970" points="582.6892,-292.0199 592.9103,-289.2306 583.1807,-285.0372 582.6892,-292.0199"/>
</g>
<!-- Node36 -->
<g id="node7" class="node">
<title>Node36</title>
<g id="a_node7"><a xlink:href="classLayout.html#a79480df6d9dd2d32b23468c05c6ac944" target="_top" xlink:title="Calculates height and width of layout groups. ">
<polygon fill="none" stroke="#000000" points="386,-221 386,-251 548,-251 548,-221 386,-221"/>
<text text-anchor="start" x="394" y="-239" font-family="Helvetica,sans-Serif" font-size="10.00" fill="#000000">Layout::calculateLayoutGroup</text>
<text text-anchor="middle" x="467" y="-228" font-family="Helvetica,sans-Serif" font-size="10.00" fill="#000000">Dimensions</text>
</a>
</g>
</g>
<!-- Node35&#45;&gt;Node36 -->
<g id="edge8" class="edge">
<title>Node35&#45;&gt;Node36</title>
<path fill="none" stroke="#191970" d="M342.7644,-243.6847C353.4931,-243.021 364.7057,-242.3275 375.8161,-241.6402"/>
<polygon fill="#191970" stroke="#191970" points="376.2092,-245.1227 385.974,-241.0119 375.7769,-238.1361 376.2092,-245.1227"/>
</g>
<!-- Node37 -->
<g id="node8" class="node">
<title>Node37</title>
<g id="a_node8"><a xlink:href="classUIManager.html#a0d32c5b63c4110ff8e43ab06c1c7d761" target="_top" xlink:title="Get the Layoutgroup container Returns the container, that holds LayoutGroups. ">
<polygon fill="none" stroke="#000000" points="585,-228.5 585,-247.5 756,-247.5 756,-228.5 585,-228.5"/>
<text text-anchor="middle" x="670.5" y="-235.5" font-family="Helvetica,sans-Serif" font-size="10.00" fill="#000000">UIManager::getAllLayoutGroups</text>
</a>
</g>
</g>
<!-- Node35&#45;&gt;Node37 -->
<g id="edge11" class="edge">
<title>Node35&#45;&gt;Node37</title>
<path fill="none" stroke="#191970" d="M295.657,-238.4095C317.9281,-229.5396 353.1191,-216.9978 385,-212 457.0094,-200.7115 476.5157,-204.3313 549,-212 556.131,-212.7544 588.6332,-219.7396 618.2266,-226.2793"/>
<polygon fill="#191970" stroke="#191970" points="617.5898,-229.7231 628.1103,-228.4704 619.1049,-222.889 617.5898,-229.7231"/>
</g>
<!-- Node38 -->
<g id="node9" class="node">
<title>Node38</title>
<g id="a_node9"><a xlink:href="classLayout.html#a99004e4afcea6a945e3890b19cce6236" target="_top" xlink:title="Arrange Elements that are aligned to a parent This is a seperate function, so it can recurse if a par...">
<polygon fill="none" stroke="#000000" points="385,-144.5 385,-163.5 549,-163.5 549,-144.5 385,-144.5"/>
<text text-anchor="middle" x="467" y="-151.5" font-family="Helvetica,sans-Serif" font-size="10.00" fill="#000000">Layout::arrangeChildElements</text>
</a>
</g>
</g>
<!-- Node35&#45;&gt;Node38 -->
<g id="edge12" class="edge">
<title>Node35&#45;&gt;Node38</title>
<path fill="none" stroke="#191970" d="M285.788,-238.3597C305.9328,-223.5647 346.7139,-195.174 385,-178 394.9475,-173.5378 405.9424,-169.6595 416.5633,-166.3977"/>
<polygon fill="#191970" stroke="#191970" points="417.5624,-169.7522 426.1711,-163.5764 415.5901,-163.0358 417.5624,-169.7522"/>
</g>
<!-- Node36&#45;&gt;Node31 -->
<g id="edge9" class="edge">
<title>Node36&#45;&gt;Node31</title>
<path fill="none" stroke="#191970" d="M524.7706,-251.0459C549.0449,-257.368 577.4546,-264.767 602.7109,-271.3448"/>
<polygon fill="#191970" stroke="#191970" points="602.0256,-274.7831 612.5849,-273.9165 603.7899,-268.009 602.0256,-274.7831"/>
</g>
<!-- Node38&#45;&gt;Node31 -->
<g id="edge13" class="edge">
<title>Node38&#45;&gt;Node31</title>
<path fill="none" stroke="#191970" d="M495.8185,-163.6432C512.258,-173.1909 532.758,-187.6909 549,-203 567.6381,-220.5676 564.2606,-232.9708 585,-248 598.3702,-257.689 615.018,-264.7916 630.0615,-270.4148"/>
<polygon fill="#191970" stroke="#191970" points="629.0709,-273.7788 639.665,-273.9088 631.4642,-267.2007 629.0709,-273.7788"/>
</g>
<!-- Node38&#45;&gt;Node31 -->
<g id="edge14" class="edge">
<title>Node38&#45;&gt;Node31</title>
<path fill="none" stroke="#191970" d="M474.7677,-163.5585C489.9853,-176.4529 524.3831,-197.7971 549,-221 567.6381,-238.5676 564.2606,-250.9708 585,-266 586.2433,-266.901 587.5149,-267.7796 588.8109,-268.6357"/>
<polygon fill="#191970" stroke="#191970" points="587.3024,-271.8124 597.6774,-273.9594 590.9058,-265.8111 587.3024,-271.8124"/>
</g>
<!-- Node38&#45;&gt;Node37 -->
<g id="edge17" class="edge">
<title>Node38&#45;&gt;Node37</title>
<path fill="none" stroke="#191970" d="M516.2215,-163.5208C527.5268,-167.0045 539.1185,-171.7012 549,-178 569.4487,-191.0346 564.132,-206.6479 585,-219 588.6802,-221.1784 592.5838,-223.1075 596.6172,-224.8157"/>
<polygon fill="#191970" stroke="#191970" points="595.6279,-228.1826 606.2202,-228.4143 598.0843,-221.6277 595.6279,-228.1826"/>
</g>
<!-- Node39 -->
<g id="node10" class="node">
<title>Node39</title>
<g id="a_node10"><a xlink:href="classUIManager.html#aa5b6dbe1a9d5c50b588c55e9c9673f58" target="_top" xlink:title="Get the Ui Element By ID Finds and returns an UiElement by its elementID parameter. ">
<polygon fill="none" stroke="#000000" points="588,-114.5 588,-133.5 753,-133.5 753,-114.5 588,-114.5"/>
<text text-anchor="middle" x="670.5" y="-121.5" font-family="Helvetica,sans-Serif" font-size="10.00" fill="#000000">UIManager::getUiElementByID</text>
</a>
</g>
</g>
<!-- Node38&#45;&gt;Node39 -->
<g id="edge15" class="edge">
<title>Node38&#45;&gt;Node39</title>
<path fill="none" stroke="#191970" d="M531.6683,-144.4666C552.0716,-141.4587 574.7794,-138.1111 595.8214,-135.0091"/>
<polygon fill="#191970" stroke="#191970" points="596.6174,-138.4297 606,-133.5086 595.5964,-131.5046 596.6174,-138.4297"/>
</g>
<!-- Node40 -->
<g id="node11" class="node">
<title>Node40</title>
<g id="a_node11"><a xlink:href="classUIElement.html#a6451228b4c9bc058d69e4d4f2b03c719" target="_top" xlink:title="UIElement::getUiElementData">
<polygon fill="none" stroke="#000000" points="588.5,-190.5 588.5,-209.5 752.5,-209.5 752.5,-190.5 588.5,-190.5"/>
<text text-anchor="middle" x="670.5" y="-197.5" font-family="Helvetica,sans-Serif" font-size="10.00" fill="#000000">UIElement::getUiElementData</text>
</a>
</g>
</g>
<!-- Node38&#45;&gt;Node40 -->
<g id="edge16" class="edge">
<title>Node38&#45;&gt;Node40</title>
<path fill="none" stroke="#191970" d="M508.4888,-163.5601C531.0997,-168.7533 559.5791,-175.2672 585,-181 595.454,-183.3575 606.6321,-185.857 617.3432,-188.2416"/>
<polygon fill="#191970" stroke="#191970" points="616.9095,-191.7306 627.4307,-190.4843 618.4287,-184.8974 616.9095,-191.7306"/>
</g>
<!-- Node41 -->
<g id="node12" class="node">
<title>Node41</title>
<g id="a_node12"><a xlink:href="classUIElement.html#ad1c0d7431b71bdd9a3704a6d5c8a4643" target="_top" xlink:title="Get the position and the size of this ui element Gets the position and the size of this ui element...">
<polygon fill="none" stroke="#000000" points="590,-152.5 590,-171.5 751,-171.5 751,-152.5 590,-152.5"/>
<text text-anchor="middle" x="670.5" y="-159.5" font-family="Helvetica,sans-Serif" font-size="10.00" fill="#000000">UIElement::getUiElementRect</text>
</a>
</g>
</g>
<!-- Node38&#45;&gt;Node41 -->
<g id="edge18" class="edge">
<title>Node38&#45;&gt;Node41</title>
<path fill="none" stroke="#191970" d="M549.1847,-157.2308C559.278,-157.6276 569.6383,-158.0349 579.8478,-158.4363"/>
<polygon fill="#191970" stroke="#191970" points="579.8617,-161.9394 589.9915,-158.835 580.1367,-154.9448 579.8617,-161.9394"/>
</g>
<!-- Node42 -->
<g id="node13" class="node">
<title>Node42</title>
<g id="a_node13"><a xlink:href="classUIElement.html#aa7f624963eaeb31043d74219ee24386c" target="_top" xlink:title="Checks if the mouse cursor is over the current UI Element Check if the coordinates match the ones sto...">
<polygon fill="none" stroke="#000000" points="828,-171.5 828,-190.5 965,-190.5 965,-171.5 828,-171.5"/>
<text text-anchor="middle" x="896.5" y="-178.5" font-family="Helvetica,sans-Serif" font-size="10.00" fill="#000000">UIElement::isMouseOver</text>
</a>
</g>
</g>
<!-- Node41&#45;&gt;Node42 -->
<g id="edge19" class="edge">
<title>Node41&#45;&gt;Node42</title>
<path fill="none" stroke="#191970" d="M751.134,-168.779C772.802,-170.6006 796.204,-172.568 817.7673,-174.3809"/>
<polygon fill="#191970" stroke="#191970" points="817.6016,-177.8792 827.8597,-175.2294 818.1881,-170.9038 817.6016,-177.8792"/>
</g>
<!-- Node43 -->
<g id="node14" class="node">
<title>Node43</title>
<g id="a_node14"><a xlink:href="classUIElement.html#a570841bf8b7970ca935b1a00e571036a" target="_top" xlink:title="Handling for the hovering event Check, if the mouse cursor is hovering over the element. virtual function to provide custom handling if necessary (e.g. Combobox) Per default, it&#39;s the same implementation as isMouseOver. ">
<polygon fill="none" stroke="#000000" points="792,-133.5 792,-152.5 1001,-152.5 1001,-133.5 792,-133.5"/>
<text text-anchor="middle" x="896.5" y="-140.5" font-family="Helvetica,sans-Serif" font-size="10.00" fill="#000000">UIElement::isMouseOverHoverableArea</text>
</a>
</g>
</g>
<!-- Node41&#45;&gt;Node43 -->
<g id="edge20" class="edge">
<title>Node41&#45;&gt;Node43</title>
<path fill="none" stroke="#191970" d="M751.134,-155.221C761.0217,-154.3898 771.2705,-153.5281 781.5409,-152.6647"/>
<polygon fill="#191970" stroke="#191970" points="782.1343,-156.1273 791.8059,-151.8017 781.5478,-149.1519 782.1343,-156.1273"/>
</g>
<!-- Node45 -->
<g id="node16" class="node">
<title>Node45</title>
<g id="a_node16"><a xlink:href="classMap.html#af654ddecf0d25b836d7c9c27ee5c2150" target="_top" xlink:title="Map::calculateVisibleMap">
<polygon fill="none" stroke="#000000" points="397,-95.5 397,-114.5 537,-114.5 537,-95.5 397,-95.5"/>
<text text-anchor="middle" x="467" y="-102.5" font-family="Helvetica,sans-Serif" font-size="10.00" fill="#000000">Map::calculateVisibleMap</text>
</a>
</g>
</g>
<!-- Node44&#45;&gt;Node45 -->
<g id="edge23" class="edge">
<title>Node44&#45;&gt;Node45</title>
<path fill="none" stroke="#191970" d="M311.7925,-105C333.2682,-105 360.7844,-105 386.6681,-105"/>
<polygon fill="#191970" stroke="#191970" points="386.8716,-108.5001 396.8716,-105 386.8715,-101.5001 386.8716,-108.5001"/>
</g>
<!-- Node48 -->
<g id="node19" class="node">
<title>Node48</title>
<g id="a_node19"><a xlink:href="classSprite.html#ababb7913a4d642b0d20a2c48c2a7e77a" target="_top" xlink:title="Sprite::refresh">
<polygon fill="none" stroke="#000000" points="424,-57.5 424,-76.5 510,-76.5 510,-57.5 424,-57.5"/>
<text text-anchor="middle" x="467" y="-64.5" font-family="Helvetica,sans-Serif" font-size="10.00" fill="#000000">Sprite::refresh</text>
</a>
</g>
</g>
<!-- Node44&#45;&gt;Node48 -->
<g id="edge27" class="edge">
<title>Node44&#45;&gt;Node48</title>
<path fill="none" stroke="#191970" d="M311.7925,-97.4015C341.027,-91.6751 381.4551,-83.7562 413.7212,-77.4361"/>
<polygon fill="#191970" stroke="#191970" points="414.7451,-80.8021 423.8858,-75.445 413.3995,-73.9326 414.7451,-80.8021"/>
</g>
<!-- Node45&#45;&gt;Node31 -->
<g id="edge25" class="edge">
<title>Node45&#45;&gt;Node31</title>
<path fill="none" stroke="#191970" d="M515.6553,-114.5399C527.8995,-118.9871 540.0803,-125.4924 549,-135 587.6802,-176.2297 546.4727,-215.6274 585,-257 589.3239,-261.6432 594.3861,-265.6167 599.8501,-269.0165"/>
<polygon fill="#191970" stroke="#191970" points="598.2708,-272.1423 608.7187,-273.9005 601.6476,-266.0106 598.2708,-272.1423"/>
</g>
<!-- Node46 -->
<g id="node17" class="node">
<title>Node46</title>
<g id="a_node17"><a xlink:href="isoMath_8cxx.html#a0a076d973bc64ffa7859b894793c8000" target="_top" xlink:title="Calculates screen space coordinates to isometric space coordinates. A formula is used to calculate th...">
<polygon fill="none" stroke="#000000" points="603.5,-38.5 603.5,-57.5 737.5,-57.5 737.5,-38.5 603.5,-38.5"/>
<text text-anchor="middle" x="670.5" y="-45.5" font-family="Helvetica,sans-Serif" font-size="10.00" fill="#000000">calculateIsoCoordinates</text>
</a>
</g>
</g>
<!-- Node45&#45;&gt;Node46 -->
<g id="edge24" class="edge">
<title>Node45&#45;&gt;Node46</title>
<path fill="none" stroke="#191970" d="M517.475,-95.4635C528.0406,-92.8699 539.0036,-89.7245 549,-86 565.9532,-79.6834 568.0185,-73.24 585,-67 592.046,-64.4108 599.5541,-62.1137 607.0839,-60.0923"/>
<polygon fill="#191970" stroke="#191970" points="608.1232,-63.4397 616.9582,-57.5923 606.4051,-56.6538 608.1232,-63.4397"/>
</g>
<!-- Node47 -->
<g id="node18" class="node">
<title>Node47</title>
<g id="a_node18"><a xlink:href="classMap.html#a1676db3d125b2c1764adfcb64d6332a2" target="_top" xlink:title="Map::nodeIdx">
<polygon fill="none" stroke="#000000" points="629.5,-76.5 629.5,-95.5 711.5,-95.5 711.5,-76.5 629.5,-76.5"/>
<text text-anchor="middle" x="670.5" y="-83.5" font-family="Helvetica,sans-Serif" font-size="10.00" fill="#000000">Map::nodeIdx</text>
</a>
</g>
</g>
<!-- Node45&#45;&gt;Node47 -->
<g id="edge26" class="edge">
<title>Node45&#45;&gt;Node47</title>
<path fill="none" stroke="#191970" d="M537.0332,-98.4613C564.1143,-95.9328 594.526,-93.0934 619.4721,-90.7643"/>
<polygon fill="#191970" stroke="#191970" points="619.8175,-94.2473 629.4488,-89.8328 619.1668,-87.2777 619.8175,-94.2473"/>
</g>
<!-- Node49 -->
<g id="node20" class="node">
<title>Node49</title>
<g id="a_node20"><a xlink:href="isoMath_8cxx.html#a229d5dd54cd4e1f43ed5911e4fd266d3" target="_top" xlink:title="converts coordinates from isometric to screen space The given isometric coordinates (which contain he...">
<polygon fill="none" stroke="#000000" points="585.5,-.5 585.5,-19.5 755.5,-19.5 755.5,-.5 585.5,-.5"/>
<text text-anchor="middle" x="670.5" y="-7.5" font-family="Helvetica,sans-Serif" font-size="10.00" fill="#000000">convertIsoToScreenCoordinates</text>
</a>
</g>
</g>
<!-- Node48&#45;&gt;Node49 -->
<g id="edge28" class="edge">
<title>Node48&#45;&gt;Node49</title>
<path fill="none" stroke="#191970" d="M510.1754,-59.1861C522.8821,-56.3034 536.6757,-52.5919 549,-48 565.9532,-41.6834 568.0185,-35.24 585,-29 592.046,-26.4108 599.5541,-24.1137 607.0839,-22.0923"/>
<polygon fill="#191970" stroke="#191970" points="608.1232,-25.4397 616.9582,-19.5923 606.4051,-18.6538 608.1232,-25.4397"/>
</g>
</g>
</svg>
