<?xml version="1.0" encoding="UTF-8" standalone="no"?>
<!DOCTYPE svg PUBLIC "-//W3C//DTD SVG 1.1//EN"
 "http://www.w3.org/Graphics/SVG/1.1/DTD/svg11.dtd">
<!-- Generated by graphviz version 2.40.1 (20161225.0304)
 -->
<!-- Title: MapLayers::enableLayers Pages: 1 -->
<!--zoomable 458 -->
<svg id="main" version="1.1" xmlns="http://www.w3.org/2000/svg" xmlns:xlink="http://www.w3.org/1999/xlink" xml:space="preserve" onload="init(evt)">
<style type="text/css"><![CDATA[
.edge:hover path { stroke: red; }
.edge:hover polygon { stroke: red; fill: red; }
]]></style>
<script type="text/javascript"><![CDATA[
var edges = document.getElementsByTagName('g');
if (edges && edges.length) {
  for (var i=0;i<edges.length;i++) {
    if (edges[i].id.substr(0,4)=='edge') {
      edges[i].setAttribute('class','edge');
    }
  }
}
]]></script>
        <defs>
                <circle id="rim" cx="0" cy="0" r="7"/>
                <circle id="rim2" cx="0" cy="0" r="3.5"/>
                <g id="zoomPlus">
                        <use xlink:href="#rim" fill="#404040">
                                <set attributeName="fill" to="#808080" begin="zoomplus.mouseover" end="zoomplus.mouseout"/>
                        </use>
                        <path d="M-4,0h8M0,-4v8" fill="none" stroke="white" stroke-width="1.5" pointer-events="none"/>
                </g>
                <g id="zoomMin">
                        <use xlink:href="#rim" fill="#404040">
                                <set attributeName="fill" to="#808080" begin="zoomminus.mouseover" end="zoomminus.mouseout"/>
                        </use>
                        <path d="M-4,0h8" fill="none" stroke="white" stroke-width="1.5" pointer-events="none"/>
                </g>
                <g id="dirArrow">
                        <path fill="none" stroke="white" stroke-width="1.5" d="M0,-3.0v7 M-2.5,-0.5L0,-3.0L2.5,-0.5"/>
                </g>
               <g id="resetDef">
                       <use xlink:href="#rim2" fill="#404040">
                               <set attributeName="fill" to="#808080" begin="reset.mouseover" end="reset.mouseout"/>
                       </use>
               </g>
        </defs>

<script type="text/javascript">
var viewWidth = 1648;
var viewHeight = 458;
var sectionId = 'dynsection-6';
</script>
<script xlink:href="svgpan.js"/>
<svg id="graph" class="graph">
<g id="viewport">
<title>MapLayers::enableLayers</title>
<!-- Node83 -->
<g id="node1" class="node">
<title>Node83</title>
<polygon fill="#bfbfbf" stroke="#000000" points="0,-297.5 0,-316.5 140,-316.5 140,-297.5 0,-297.5"/>
<text text-anchor="middle" x="70" y="-304.5" font-family="Helvetica,sans-Serif" font-size="10.00" fill="#000000">MapLayers::enableLayers</text>
</g>
<!-- Node84 -->
<g id="node2" class="node">
<title>Node84</title>
<g id="a_node2"><a xlink:href="classMap.html#a26eceeccd7b6ed693909b1927a25c67a" target="_top" xlink:title="Map::Map">
<polygon fill="none" stroke="#000000" points="225.5,-325.5 225.5,-344.5 288.5,-344.5 288.5,-325.5 225.5,-325.5"/>
<text text-anchor="middle" x="257" y="-332.5" font-family="Helvetica,sans-Serif" font-size="10.00" fill="#000000">Map::Map</text>
</a>
</g>
</g>
<!-- Node83&#45;&gt;Node84 -->
<g id="edge1" class="edge">
<title>Node83&#45;&gt;Node84</title>
<path fill="none" stroke="#191970" d="M143.4977,-318.005C171.9199,-322.2607 202.9292,-326.9038 225.3425,-330.2598"/>
<polygon fill="#191970" stroke="#191970" points="143.9787,-314.5381 133.5706,-316.5186 142.942,-321.4609 143.9787,-314.5381"/>
</g>
<!-- Node95 -->
<g id="node13" class="node">
<title>Node95</title>
<g id="a_node13"><a xlink:href="classMapLayers.html#ab663dfc9e4c144f904ad85543b66ac8f" target="_top" xlink:title="Toggle Drawing Layer Toggle Drawing Layer (use bitwise XOR to toggle layer) ">
<polygon fill="none" stroke="#000000" points="176,-278.5 176,-297.5 338,-297.5 338,-278.5 176,-278.5"/>
<text text-anchor="middle" x="257" y="-285.5" font-family="Helvetica,sans-Serif" font-size="10.00" fill="#000000">MapLayers::setLayerEditMode</text>
</a>
</g>
</g>
<!-- Node83&#45;&gt;Node95 -->
<g id="edge15" class="edge">
<title>Node83&#45;&gt;Node95</title>
<path fill="none" stroke="#191970" d="M150.3393,-298.8372C158.7557,-297.982 167.3173,-297.1121 175.744,-296.256"/>
<polygon fill="#191970" stroke="#191970" points="149.7589,-295.378 140.1639,-299.871 150.4665,-302.3422 149.7589,-295.378"/>
</g>
<!-- Node85 -->
<g id="node3" class="node">
<title>Node85</title>
<g id="a_node3"><a xlink:href="classMap.html#afefe996cc1f62b61ec60d0ae415953bf" target="_top" xlink:title="Map::loadMapFromFile">
<polygon fill="none" stroke="#000000" points="382,-344.5 382,-363.5 507,-363.5 507,-344.5 382,-344.5"/>
<text text-anchor="middle" x="444.5" y="-351.5" font-family="Helvetica,sans-Serif" font-size="10.00" fill="#000000">Map::loadMapFromFile</text>
</a>
</g>
</g>
<!-- Node84&#45;&gt;Node85 -->
<g id="edge2" class="edge">
<title>Node84&#45;&gt;Node85</title>
<path fill="none" stroke="#191970" d="M298.8105,-339.2368C323.2051,-341.7088 354.4554,-344.8755 381.7536,-347.6417"/>
<polygon fill="#191970" stroke="#191970" points="299.1088,-335.7492 288.8068,-338.2231 298.403,-342.7135 299.1088,-335.7492"/>
</g>
<!-- Node86 -->
<g id="node4" class="node">
<title>Node86</title>
<g id="a_node4"><a xlink:href="classEngine.html#a83b7dbeee899b36a13d5b07c7ad87ebc" target="_top" xlink:title="Loads a saved game Loads a saved Game. ">
<polygon fill="none" stroke="#000000" points="575.5,-349.5 575.5,-368.5 681.5,-368.5 681.5,-349.5 575.5,-349.5"/>
<text text-anchor="middle" x="628.5" y="-356.5" font-family="Helvetica,sans-Serif" font-size="10.00" fill="#000000">Engine::loadGame</text>
</a>
</g>
</g>
<!-- Node85&#45;&gt;Node86 -->
<g id="edge3" class="edge">
<title>Node85&#45;&gt;Node86</title>
<path fill="none" stroke="#191970" d="M517.0821,-355.9723C536.5133,-356.5004 557.1553,-357.0613 575.3235,-357.555"/>
<polygon fill="#191970" stroke="#191970" points="517.1422,-352.4728 507.0508,-355.6997 516.952,-359.4702 517.1422,-352.4728"/>
</g>
<!-- Node87 -->
<g id="node5" class="node">
<title>Node87</title>
<g id="a_node5"><a xlink:href="classEngine.html#a0ba57971ffb5173ecc425461f65a4cd8" target="_top" xlink:title="Quits the game Sets m_running to false and quitting the game. ">
<polygon fill="none" stroke="#000000" points="782,-392.5 782,-411.5 886,-411.5 886,-392.5 782,-392.5"/>
<text text-anchor="middle" x="834" y="-399.5" font-family="Helvetica,sans-Serif" font-size="10.00" fill="#000000">Engine::quitGame</text>
</a>
</g>
</g>
<!-- Node86&#45;&gt;Node87 -->
<g id="edge4" class="edge">
<title>Node86&#45;&gt;Node87</title>
<path fill="none" stroke="#191970" d="M683.9886,-370.6107C716.7414,-377.4641 757.686,-386.0316 788.5204,-392.4836"/>
<polygon fill="#191970" stroke="#191970" points="684.612,-367.1655 674.1071,-368.5431 683.1783,-374.0171 684.612,-367.1655"/>
</g>
<!-- Node92 -->
<g id="node10" class="node">
<title>Node92</title>
<g id="a_node10"><a xlink:href="classUIManager.html#aa78e356fc3b356d790c848319d1c387e" target="_top" xlink:title="UIManager::setCallbackFunctions">
<polygon fill="none" stroke="#000000" points="962,-354.5 962,-373.5 1140,-373.5 1140,-354.5 962,-354.5"/>
<text text-anchor="middle" x="1051" y="-361.5" font-family="Helvetica,sans-Serif" font-size="10.00" fill="#000000">UIManager::setCallbackFunctions</text>
</a>
</g>
</g>
<!-- Node86&#45;&gt;Node92 -->
<g id="edge13" class="edge">
<title>Node86&#45;&gt;Node92</title>
<path fill="none" stroke="#191970" d="M691.8122,-359.7493C763.4577,-360.5971 880.6898,-361.9845 961.6337,-362.9424"/>
<polygon fill="#191970" stroke="#191970" points="691.6229,-356.2469 681.5821,-359.6282 691.54,-363.2464 691.6229,-356.2469"/>
</g>
<!-- Node94 -->
<g id="node12" class="node">
<title>Node94</title>
<g id="a_node12"><a xlink:href="classGame.html#a560299f0291c281f7b44e7ef0dd7b264" target="_top" xlink:title="initializes and displays the main menu initializes and displays the main menu ">
<polygon fill="none" stroke="#000000" points="1201.5,-316.5 1201.5,-335.5 1304.5,-335.5 1304.5,-316.5 1201.5,-316.5"/>
<text text-anchor="middle" x="1253" y="-323.5" font-family="Helvetica,sans-Serif" font-size="10.00" fill="#000000">Game::mainMenu</text>
</a>
</g>
</g>
<!-- Node86&#45;&gt;Node94 -->
<g id="edge14" class="edge">
<title>Node86&#45;&gt;Node94</title>
<path fill="none" stroke="#191970" d="M691.8239,-355.6538C815.5777,-349.1144 1087.3503,-334.7533 1201.2092,-328.7367"/>
<polygon fill="#191970" stroke="#191970" points="691.5459,-352.1635 681.7445,-356.1864 691.9153,-359.1538 691.5459,-352.1635"/>
</g>
<!-- Node88 -->
<g id="node6" class="node">
<title>Node88</title>
<g id="a_node6"><a xlink:href="classEventManager.html#a65ec91fd5016d4f9c4167fb8babed2df" target="_top" xlink:title="EventManager::checkEvents">
<polygon fill="none" stroke="#000000" points="1176,-215.5 1176,-234.5 1330,-234.5 1330,-215.5 1176,-215.5"/>
<text text-anchor="middle" x="1253" y="-222.5" font-family="Helvetica,sans-Serif" font-size="10.00" fill="#000000">EventManager::checkEvents</text>
</a>
</g>
</g>
<!-- Node87&#45;&gt;Node88 -->
<g id="edge5" class="edge">
<title>Node87&#45;&gt;Node88</title>
<path fill="none" stroke="#191970" d="M896.3517,-405.3955C974.1588,-408.4112 1101.6691,-408.9553 1140,-383 1170.948,-362.0439 1154.9527,-337.8861 1176,-307 1195.795,-277.9517 1225.8209,-249.213 1241.9042,-234.7096"/>
<polygon fill="#191970" stroke="#191970" points="896.3203,-401.8914 886.1847,-404.9766 896.0321,-408.8854 896.3203,-401.8914"/>
</g>
<!-- Node87&#45;&gt;Node92 -->
<g id="edge9" class="edge">
<title>Node87&#45;&gt;Node92</title>
<path fill="none" stroke="#191970" d="M896.2889,-391.0923C927.9532,-385.5474 966.0749,-378.8717 996.5535,-373.5344"/>
<polygon fill="#191970" stroke="#191970" points="895.4994,-387.6772 886.2531,-392.8497 896.7069,-394.5722 895.4994,-387.6772"/>
</g>
<!-- Node93 -->
<g id="node11" class="node">
<title>Node93</title>
<g id="a_node11"><a xlink:href="classGame.html#a8272be134d16c277bb014ad6a22fc357" target="_top" xlink:title="Game::quit">
<polygon fill="none" stroke="#000000" points="1015.5,-430.5 1015.5,-449.5 1086.5,-449.5 1086.5,-430.5 1015.5,-430.5"/>
<text text-anchor="middle" x="1051" y="-437.5" font-family="Helvetica,sans-Serif" font-size="10.00" fill="#000000">Game::quit</text>
</a>
</g>
</g>
<!-- Node87&#45;&gt;Node93 -->
<g id="edge10" class="edge">
<title>Node87&#45;&gt;Node93</title>
<path fill="none" stroke="#191970" d="M896.3647,-412.921C935.0081,-419.6881 983.2463,-428.1353 1015.4738,-433.7788"/>
<polygon fill="#191970" stroke="#191970" points="896.7069,-409.4277 886.2531,-411.1503 895.4994,-416.3228 896.7069,-409.4277"/>
</g>
<!-- Node89 -->
<g id="node7" class="node">
<title>Node89</title>
<g id="a_node7"><a xlink:href="classGame.html#a1c2ab25d5216b2f4b2fe41efd2c09114" target="_top" xlink:title="begins the game starts running the game ">
<polygon fill="none" stroke="#000000" points="1366,-215.5 1366,-234.5 1434,-234.5 1434,-215.5 1366,-215.5"/>
<text text-anchor="middle" x="1400" y="-222.5" font-family="Helvetica,sans-Serif" font-size="10.00" fill="#000000">Game::run</text>
</a>
</g>
</g>
<!-- Node88&#45;&gt;Node89 -->
<g id="edge6" class="edge">
<title>Node88&#45;&gt;Node89</title>
<path fill="none" stroke="#191970" d="M1340.5248,-225C1349.4338,-225 1358.0572,-225 1365.845,-225"/>
<polygon fill="#191970" stroke="#191970" points="1340.3744,-221.5001 1330.3744,-225 1340.3743,-228.5001 1340.3744,-221.5001"/>
</g>
<!-- Node90 -->
<g id="node8" class="node">
<title>Node90</title>
<g id="a_node8"><a xlink:href="main_8cxx.html#af582d708d899e67ead623eac34a22387" target="_top" xlink:title="protected_main">
<polygon fill="none" stroke="#000000" points="1470,-234.5 1470,-253.5 1563,-253.5 1563,-234.5 1470,-234.5"/>
<text text-anchor="middle" x="1516.5" y="-241.5" font-family="Helvetica,sans-Serif" font-size="10.00" fill="#000000">protected_main</text>
</a>
</g>
</g>
<!-- Node89&#45;&gt;Node90 -->
<g id="edge7" class="edge">
<title>Node89&#45;&gt;Node90</title>
<path fill="none" stroke="#191970" d="M1443.9884,-232.1741C1452.382,-233.543 1461.1965,-234.9805 1469.6749,-236.3633"/>
<polygon fill="#191970" stroke="#191970" points="1444.4428,-228.702 1434.0098,-230.5467 1443.316,-235.6107 1444.4428,-228.702"/>
</g>
<!-- Node91 -->
<g id="node9" class="node">
<title>Node91</title>
<g id="a_node9"><a xlink:href="main_8cxx.html#a3c04138a5bfe5d72780bb7e82a18e627" target="_top" xlink:title="main">
<polygon fill="none" stroke="#000000" points="1599,-234.5 1599,-253.5 1640,-253.5 1640,-234.5 1599,-234.5"/>
<text text-anchor="middle" x="1619.5" y="-241.5" font-family="Helvetica,sans-Serif" font-size="10.00" fill="#000000">main</text>
</a>
</g>
</g>
<!-- Node90&#45;&gt;Node91 -->
<g id="edge8" class="edge">
<title>Node90&#45;&gt;Node91</title>
<path fill="none" stroke="#191970" d="M1573.2133,-244C1582.4322,-244 1591.4259,-244 1598.9965,-244"/>
<polygon fill="#191970" stroke="#191970" points="1573.1782,-240.5001 1563.1782,-244 1573.1781,-247.5001 1573.1782,-240.5001"/>
</g>
<!-- Node93&#45;&gt;Node94 -->
<g id="edge11" class="edge">
<title>Node93&#45;&gt;Node94</title>
<path fill="none" stroke="#191970" d="M1096.9847,-431.4066C1111.2258,-427.7537 1126.6681,-422.7385 1140,-416 1183.1999,-394.1651 1225.4888,-354.0994 1243.6866,-335.702"/>
<polygon fill="#191970" stroke="#191970" points="1095.7828,-428.0954 1086.8745,-433.8307 1097.415,-434.9025 1095.7828,-428.0954"/>
</g>
<!-- Node94&#45;&gt;Node90 -->
<g id="edge12" class="edge">
<title>Node94&#45;&gt;Node90</title>
<path fill="none" stroke="#191970" d="M1293.4929,-313.3988C1346.5377,-296.8915 1438.3749,-268.3122 1485.9533,-253.506"/>
<polygon fill="#191970" stroke="#191970" points="1292.2508,-310.1197 1283.7425,-316.4331 1294.3309,-316.8035 1292.2508,-310.1197"/>
</g>
<!-- Node95&#45;&gt;Node92 -->
<g id="edge33" class="edge">
<title>Node95&#45;&gt;Node92</title>
<path fill="none" stroke="#191970" d="M348.579,-296.7657C502.1532,-311.4655 809.6918,-340.9025 961.7164,-355.454"/>
<polygon fill="#191970" stroke="#191970" points="348.5286,-293.245 338.2405,-295.7762 347.8615,-300.2132 348.5286,-293.245"/>
</g>
<!-- Node96 -->
<g id="node14" class="node">
<title>Node96</title>
<g id="a_node14"><a xlink:href="classMapLayers.html#a1d810628821913c499b8348107b66891" target="_top" xlink:title="Check if given Layer is being drawn. ">
<polygon fill="none" stroke="#000000" points="374,-133.5 374,-152.5 515,-152.5 515,-133.5 374,-133.5"/>
<text text-anchor="middle" x="444.5" y="-140.5" font-family="Helvetica,sans-Serif" font-size="10.00" fill="#000000">MapLayers::isLayerActive</text>
</a>
</g>
</g>
<!-- Node95&#45;&gt;Node96 -->
<g id="edge16" class="edge">
<title>Node95&#45;&gt;Node96</title>
<path fill="none" stroke="#191970" d="M277.3081,-272.2951C316.1825,-242.2322 400.0771,-177.3537 431.9065,-152.739"/>
<polygon fill="#191970" stroke="#191970" points="275.0718,-269.5999 269.3024,-278.4861 279.3541,-275.1373 275.0718,-269.5999"/>
</g>
<!-- Node97 -->
<g id="node15" class="node">
<title>Node97</title>
<g id="a_node15"><a xlink:href="classMapNode.html#ac307762dc7ad609974c6b13774c3c00d" target="_top" xlink:title="return topmost active layer. check layers in order of significance for the topmost active layer that ...">
<polygon fill="none" stroke="#000000" points="551,-229 551,-259 706,-259 706,-229 551,-229"/>
<text text-anchor="start" x="559" y="-247" font-family="Helvetica,sans-Serif" font-size="10.00" fill="#000000">MapNode::getTopMostActive</text>
<text text-anchor="middle" x="628.5" y="-236" font-family="Helvetica,sans-Serif" font-size="10.00" fill="#000000">Layer</text>
</a>
</g>
</g>
<!-- Node96&#45;&gt;Node97 -->
<g id="edge17" class="edge">
<title>Node96&#45;&gt;Node97</title>
<path fill="none" stroke="#191970" d="M463.4512,-159.2948C483.8949,-176.1841 517.9724,-202.3921 551,-219 558.3258,-222.6837 566.3102,-225.9816 574.2787,-228.8792"/>
<polygon fill="#191970" stroke="#191970" points="465.4782,-156.4268 455.5672,-152.6822 460.9799,-161.7901 465.4782,-156.4268"/>
</g>
<!-- Node100 -->
<g id="node18" class="node">
<title>Node100</title>
<g id="a_node18"><a xlink:href="classMapNode.html#a002b868485074599fbf087fc4c96b2c9" target="_top" xlink:title="Demolish a node Removes all tiles on a node. This effects all layers where something to demolish is p...">
<polygon fill="none" stroke="#000000" points="559,-190.5 559,-209.5 698,-209.5 698,-190.5 559,-190.5"/>
<text text-anchor="middle" x="628.5" y="-197.5" font-family="Helvetica,sans-Serif" font-size="10.00" fill="#000000">MapNode::demolishNode</text>
</a>
</g>
</g>
<!-- Node96&#45;&gt;Node100 -->
<g id="edge21" class="edge">
<title>Node96&#45;&gt;Node100</title>
<path fill="none" stroke="#191970" d="M478.85,-156.2652C499.5725,-164.0142 526.6005,-173.6771 551,-181 562.2783,-184.3849 574.6111,-187.6167 586.0547,-190.4238"/>
<polygon fill="#191970" stroke="#191970" points="479.8146,-152.8884 469.2229,-152.6335 477.3439,-159.4378 479.8146,-152.8884"/>
</g>
<!-- Node101 -->
<g id="node19" class="node">
<title>Node101</title>
<g id="a_node19"><a xlink:href="classMap.html#a352929ea8cc2efc4f415c7ec795e1538" target="_top" xlink:title="Map::isClickWithinTile">
<polygon fill="none" stroke="#000000" points="566,-152.5 566,-171.5 691,-171.5 691,-152.5 566,-152.5"/>
<text text-anchor="middle" x="628.5" y="-159.5" font-family="Helvetica,sans-Serif" font-size="10.00" fill="#000000">Map::isClickWithinTile</text>
</a>
</g>
</g>
<!-- Node96&#45;&gt;Node101 -->
<g id="edge22" class="edge">
<title>Node96&#45;&gt;Node101</title>
<path fill="none" stroke="#191970" d="M525.4065,-151.3545C538.9767,-152.7557 552.8737,-154.1908 565.8931,-155.5352"/>
<polygon fill="#191970" stroke="#191970" points="525.4196,-147.8373 515.113,-150.2916 524.7006,-154.8003 525.4196,-147.8373"/>
</g>
<!-- Node104 -->
<g id="node22" class="node">
<title>Node104</title>
<g id="a_node22"><a xlink:href="classSprite.html#abdf111e2030274680af0f00f296d8605" target="_top" xlink:title="Sprite::render">
<polygon fill="none" stroke="#000000" points="792.5,-117.5 792.5,-136.5 875.5,-136.5 875.5,-117.5 792.5,-117.5"/>
<text text-anchor="middle" x="834" y="-124.5" font-family="Helvetica,sans-Serif" font-size="10.00" fill="#000000">Sprite::render</text>
</a>
</g>
</g>
<!-- Node96&#45;&gt;Node104 -->
<g id="edge27" class="edge">
<title>Node96&#45;&gt;Node104</title>
<path fill="none" stroke="#191970" d="M525.2433,-139.6832C606.6128,-136.3407 728.9645,-131.3147 792.4544,-128.7066"/>
<polygon fill="#191970" stroke="#191970" points="524.8834,-136.1949 515.0355,-140.1025 525.1708,-143.189 524.8834,-136.1949"/>
</g>
<!-- Node106 -->
<g id="node24" class="node">
<title>Node106</title>
<g id="a_node24"><a xlink:href="classSprite.html#a87428873289f8ec84f4b75d9162c9d7c" target="_top" xlink:title="Sprite::getActiveClipRect">
<polygon fill="none" stroke="#000000" points="560,-76.5 560,-95.5 697,-95.5 697,-76.5 560,-76.5"/>
<text text-anchor="middle" x="628.5" y="-83.5" font-family="Helvetica,sans-Serif" font-size="10.00" fill="#000000">Sprite::getActiveClipRect</text>
</a>
</g>
</g>
<!-- Node96&#45;&gt;Node106 -->
<g id="edge30" class="edge">
<title>Node96&#45;&gt;Node106</title>
<path fill="none" stroke="#191970" d="M484.9159,-130.4799C518.8618,-119.964 566.6518,-105.1595 597.6021,-95.5716"/>
<polygon fill="#191970" stroke="#191970" points="483.8139,-127.1571 475.2975,-133.4595 485.8853,-133.8436 483.8139,-127.1571"/>
</g>
<!-- Node107 -->
<g id="node25" class="node">
<title>Node107</title>
<g id="a_node25"><a xlink:href="classSprite.html#a7376c698bf914312fbcc7c2b8180cbed" target="_top" xlink:title="Sprite::isLayerUsed">
<polygon fill="none" stroke="#000000" points="573,-38.5 573,-57.5 684,-57.5 684,-38.5 573,-38.5"/>
<text text-anchor="middle" x="628.5" y="-45.5" font-family="Helvetica,sans-Serif" font-size="10.00" fill="#000000">Sprite::isLayerUsed</text>
</a>
</g>
</g>
<!-- Node96&#45;&gt;Node107 -->
<g id="edge31" class="edge">
<title>Node96&#45;&gt;Node107</title>
<path fill="none" stroke="#191970" d="M462.8975,-126.5082C483.1124,-109.2323 517.2183,-82.4976 551,-67 559.3104,-63.1875 568.487,-60.078 577.5307,-57.5623"/>
<polygon fill="#191970" stroke="#191970" points="460.3708,-124.0673 455.1259,-133.2728 464.9667,-129.3473 460.3708,-124.0673"/>
</g>
<!-- Node108 -->
<g id="node26" class="node">
<title>Node108</title>
<g id="a_node26"><a xlink:href="classSprite.html#aedfac1c3b8a22c5ae4d97bd9586a6a26" target="_top" xlink:title="Sprite::getActiveDestRect">
<polygon fill="none" stroke="#000000" points="558,-.5 558,-19.5 699,-19.5 699,-.5 558,-.5"/>
<text text-anchor="middle" x="628.5" y="-7.5" font-family="Helvetica,sans-Serif" font-size="10.00" fill="#000000">Sprite::getActiveDestRect</text>
</a>
</g>
</g>
<!-- Node96&#45;&gt;Node108 -->
<g id="edge32" class="edge">
<title>Node96&#45;&gt;Node108</title>
<path fill="none" stroke="#191970" d="M456.2507,-124.9213C473.7605,-99.4848 509.164,-53.5073 551,-29 557.5744,-25.1488 564.901,-22.0754 572.3533,-19.6233"/>
<polygon fill="#191970" stroke="#191970" points="453.3027,-123.0331 450.6305,-133.2854 459.1129,-126.9372 453.3027,-123.0331"/>
</g>
<!-- Node98 -->
<g id="node16" class="node">
<title>Node98</title>
<g id="a_node16"><a xlink:href="classMapNode.html#a0b089ef93b46bbfed8ccf71dc516c4ef" target="_top" xlink:title="MapNode::getActiveMapNodeData">
<polygon fill="none" stroke="#000000" points="742,-234.5 742,-253.5 926,-253.5 926,-234.5 742,-234.5"/>
<text text-anchor="middle" x="834" y="-241.5" font-family="Helvetica,sans-Serif" font-size="10.00" fill="#000000">MapNode::getActiveMapNodeData</text>
</a>
</g>
</g>
<!-- Node97&#45;&gt;Node98 -->
<g id="edge18" class="edge">
<title>Node97&#45;&gt;Node98</title>
<path fill="none" stroke="#191970" d="M716.3425,-244C724.7329,-244 733.2587,-244 741.6899,-244"/>
<polygon fill="#191970" stroke="#191970" points="716.1908,-240.5001 706.1907,-244 716.1907,-247.5001 716.1908,-240.5001"/>
</g>
<!-- Node99 -->
<g id="node17" class="node">
<title>Node99</title>
<g id="a_node17"><a xlink:href="classMap.html#a0241b997090783e5d13667114731a592" target="_top" xlink:title="Debug MapNodeData to Console Used as Tile&#45;Inspector until we implement a GUI variant. ">
<polygon fill="none" stroke="#000000" points="980.5,-234.5 980.5,-253.5 1121.5,-253.5 1121.5,-234.5 980.5,-234.5"/>
<text text-anchor="middle" x="1051" y="-241.5" font-family="Helvetica,sans-Serif" font-size="10.00" fill="#000000">Map::getNodeInformation</text>
</a>
</g>
</g>
<!-- Node98&#45;&gt;Node99 -->
<g id="edge19" class="edge">
<title>Node98&#45;&gt;Node99</title>
<path fill="none" stroke="#191970" d="M936.2814,-244C951.1485,-244 966.1719,-244 980.2299,-244"/>
<polygon fill="#191970" stroke="#191970" points="936.0276,-240.5001 926.0275,-244 936.0275,-247.5001 936.0276,-240.5001"/>
</g>
<!-- Node99&#45;&gt;Node88 -->
<g id="edge20" class="edge">
<title>Node99&#45;&gt;Node88</title>
<path fill="none" stroke="#191970" d="M1131.6311,-236.4159C1146.2077,-235.0448 1161.3749,-233.6182 1175.8489,-232.2568"/>
<polygon fill="#191970" stroke="#191970" points="1131.2781,-232.9336 1121.6498,-237.3547 1131.9336,-239.9028 1131.2781,-232.9336"/>
</g>
<!-- Node102 -->
<g id="node20" class="node">
<title>Node102</title>
<g id="a_node20"><a xlink:href="classMap.html#a64e71e521c539cf28828be9978c34889" target="_top" xlink:title="Returns the node at given screencoordinates. ">
<polygon fill="none" stroke="#000000" points="776,-158.5 776,-177.5 892,-177.5 892,-158.5 776,-158.5"/>
<text text-anchor="middle" x="834" y="-165.5" font-family="Helvetica,sans-Serif" font-size="10.00" fill="#000000">Map::findNodeInMap</text>
</a>
</g>
</g>
<!-- Node101&#45;&gt;Node102 -->
<g id="edge23" class="edge">
<title>Node101&#45;&gt;Node102</title>
<path fill="none" stroke="#191970" d="M701.5506,-164.1329C725.921,-164.8444 752.73,-165.6272 775.816,-166.3012"/>
<polygon fill="#191970" stroke="#191970" points="701.3713,-160.6262 691.2734,-163.8328 701.167,-167.6232 701.3713,-160.6262"/>
</g>
<!-- Node102&#45;&gt;Node88 -->
<g id="edge26" class="edge">
<title>Node102&#45;&gt;Node88</title>
<path fill="none" stroke="#191970" d="M902.2003,-178.3497C921.521,-181.2202 942.5788,-184.2907 962,-187 1035.0425,-197.1894 1118.52,-208.005 1177.2796,-215.4811"/>
<polygon fill="#191970" stroke="#191970" points="902.6798,-174.8825 892.273,-176.8698 901.6476,-181.806 902.6798,-174.8825"/>
</g>
<!-- Node103 -->
<g id="node21" class="node">
<title>Node103</title>
<g id="a_node21"><a xlink:href="isoMath_8hxx.html#ad3c5f070c4a876bc6e8978635d02ce52" target="_top" xlink:title="converts screen space coordinates to isometric space coordinates. To convert screen coordinates in to...">
<polygon fill="none" stroke="#000000" points="966,-158.5 966,-177.5 1136,-177.5 1136,-158.5 966,-158.5"/>
<text text-anchor="middle" x="1051" y="-165.5" font-family="Helvetica,sans-Serif" font-size="10.00" fill="#000000">convertScreenToIsoCoordinates</text>
</a>
</g>
</g>
<!-- Node102&#45;&gt;Node103 -->
<g id="edge24" class="edge">
<title>Node102&#45;&gt;Node103</title>
<path fill="none" stroke="#191970" d="M902.1685,-168C922.329,-168 944.6556,-168 965.7517,-168"/>
<polygon fill="#191970" stroke="#191970" points="902.1521,-164.5001 892.152,-168 902.152,-171.5001 902.1521,-164.5001"/>
</g>
<!-- Node103&#45;&gt;Node88 -->
<g id="edge25" class="edge">
<title>Node103&#45;&gt;Node88</title>
<path fill="none" stroke="#191970" d="M1096.8163,-180.16C1110.7042,-183.8985 1125.9901,-188.0658 1140,-192 1167.3502,-199.6804 1198.3139,-208.7493 1220.9038,-215.4345"/>
<polygon fill="#191970" stroke="#191970" points="1097.5544,-176.7344 1086.989,-177.5231 1095.7403,-183.4952 1097.5544,-176.7344"/>
</g>
<!-- Node105 -->
<g id="node23" class="node">
<title>Node105</title>
<g id="a_node23"><a xlink:href="classMap.html#a8ffaf087a7bf669a890301a1efad6976" target="_top" xlink:title="Map::renderMap">
<polygon fill="none" stroke="#000000" points="1205.5,-158.5 1205.5,-177.5 1300.5,-177.5 1300.5,-158.5 1205.5,-158.5"/>
<text text-anchor="middle" x="1253" y="-165.5" font-family="Helvetica,sans-Serif" font-size="10.00" fill="#000000">Map::renderMap</text>
</a>
</g>
</g>
<!-- Node104&#45;&gt;Node105 -->
<g id="edge28" class="edge">
<title>Node104&#45;&gt;Node105</title>
<path fill="none" stroke="#191970" d="M885.8317,-129.2261C946.8064,-132.1918 1051.0139,-138.3443 1140,-149 1161.53,-151.5781 1185.2116,-155.4053 1205.3094,-158.9505"/>
<polygon fill="#191970" stroke="#191970" points="885.8499,-125.7231 875.6947,-128.7432 885.5167,-132.7152 885.8499,-125.7231"/>
</g>
<!-- Node105&#45;&gt;Node89 -->
<g id="edge29" class="edge">
<title>Node105&#45;&gt;Node89</title>
<path fill="none" stroke="#191970" d="M1287.0497,-181.203C1314.0411,-191.669 1351.1193,-206.0462 1375.3152,-215.4284"/>
<polygon fill="#191970" stroke="#191970" points="1288.1935,-177.8926 1277.6045,-177.5405 1285.6627,-184.4191 1288.1935,-177.8926"/>
</g>
</g>
</svg>
        <g id="navigator" transform="translate(0 0)" fill="#404254">
                <rect fill="#f2f5e9" fill-opacity="0.5" stroke="#606060" stroke-width=".5" x="0" y="0" width="60" height="60"/>
                <use id="zoomplus" xlink:href="#zoomPlus" x="17" y="9" onmousedown="handleZoom(evt,'in')"/>
                <use id="zoomminus" xlink:href="#zoomMin" x="42" y="9" onmousedown="handleZoom(evt,'out')"/>
                <use id="reset" xlink:href="#resetDef" x="30" y="36" onmousedown="handleReset()"/>
                <g id="arrowUp" xlink:href="#dirArrow" transform="translate(30 24)" onmousedown="handlePan(0,-1)">
                  <use xlink:href="#rim" fill="#404040">
                        <set attributeName="fill" to="#808080" begin="arrowUp.mouseover" end="arrowUp.mouseout"/>
                  </use>
                  <path fill="none" stroke="white" stroke-width="1.5" d="M0,-3.0v7 M-2.5,-0.5L0,-3.0L2.5,-0.5"/>
                </g>
                <g id="arrowRight" xlink:href="#dirArrow" transform="rotate(90) translate(36 -43)" onmousedown="handlePan(1,0)">
                  <use xlink:href="#rim" fill="#404040">
                        <set attributeName="fill" to="#808080" begin="arrowRight.mouseover" end="arrowRight.mouseout"/>
                  </use>
                  <path fill="none" stroke="white" stroke-width="1.5" d="M0,-3.0v7 M-2.5,-0.5L0,-3.0L2.5,-0.5"/>
                </g>
                <g id="arrowDown" xlink:href="#dirArrow" transform="rotate(180) translate(-30 -48)" onmousedown="handlePan(0,1)">
                  <use xlink:href="#rim" fill="#404040">
                        <set attributeName="fill" to="#808080" begin="arrowDown.mouseover" end="arrowDown.mouseout"/>
                  </use>
                  <path fill="none" stroke="white" stroke-width="1.5" d="M0,-3.0v7 M-2.5,-0.5L0,-3.0L2.5,-0.5"/>
                </g>
                <g id="arrowLeft" xlink:href="#dirArrow" transform="rotate(270) translate(-36 17)" onmousedown="handlePan(-1,0)">
                  <use xlink:href="#rim" fill="#404040">
                        <set attributeName="fill" to="#808080" begin="arrowLeft.mouseover" end="arrowLeft.mouseout"/>
                  </use>
                  <path fill="none" stroke="white" stroke-width="1.5" d="M0,-3.0v7 M-2.5,-0.5L0,-3.0L2.5,-0.5"/>
                </g>
        </g>
        <svg viewBox="0 0 15 15" width="100%" height="30px" preserveAspectRatio="xMaxYMin meet">
         <g id="arrow_out" transform="scale(0.3 0.3)">
          <a xlink:href="classMapLayers_a5db6ba7e194ada6a4d0334d0428ff89b_icgraph_org.svg" target="_base">
           <rect id="button" ry="5" rx="5" y="6" x="6" height="38" width="38"
                fill="#f2f5e9" fill-opacity="0.5" stroke="#606060" stroke-width="1.0"/>
           <path id="arrow"
             d="M 11.500037,31.436501 C 11.940474,20.09759 22.043105,11.32322 32.158766,21.979434 L 37.068811,17.246167 C 37.068811,17.246167 37.088388,32 37.088388,32 L 22.160133,31.978069 C 22.160133,31.978069 26.997745,27.140456 26.997745,27.140456 C 18.528582,18.264221 13.291696,25.230495 11.500037,31.436501 z"
             style="fill:#404040;"/>
          </a>
         </g>
        </svg>
</svg>
