<?xml version="1.0" encoding="UTF-8" standalone="no"?>
<!DOCTYPE svg PUBLIC "-//W3C//DTD SVG 1.1//EN"
 "http://www.w3.org/Graphics/SVG/1.1/DTD/svg11.dtd">
<!-- Generated by graphviz version 2.40.1 (20161225.0304)
 -->
<!-- Title: MapNode::changeHeight Pages: 1 -->
<svg width="1832pt" height="210pt"
 viewBox="0.00 0.00 1832.00 209.98" xmlns="http://www.w3.org/2000/svg" xmlns:xlink="http://www.w3.org/1999/xlink">
<g id="graph0" class="graph" transform="scale(1 1) rotate(0) translate(4 205.9782)">
<title>MapNode::changeHeight</title>
<!-- Node20 -->
<g id="node1" class="node">
<title>Node20</title>
<polygon fill="#bfbfbf" stroke="#000000" points="0,-144.4782 0,-163.4782 136,-163.4782 136,-144.4782 0,-144.4782"/>
<text text-anchor="middle" x="68" y="-151.4782" font-family="Helvetica,sans-Serif" font-size="10.00" fill="#000000">MapNode::changeHeight</text>
</g>
<!-- Node21 -->
<g id="node2" class="node">
<title>Node21</title>
<g id="a_node2"><a xlink:href="classMap.html#a9751d8dc0c6b2b127400b05994118aba" target="_top" xlink:title="Map::updateHeight">
<polygon fill="none" stroke="#000000" points="172,-144.4782 172,-163.4782 281,-163.4782 281,-144.4782 172,-144.4782"/>
<text text-anchor="middle" x="226.5" y="-151.4782" font-family="Helvetica,sans-Serif" font-size="10.00" fill="#000000">Map::updateHeight</text>
</a>
</g>
</g>
<!-- Node20&#45;&gt;Node21 -->
<g id="edge1" class="edge">
<title>Node20&#45;&gt;Node21</title>
<path fill="none" stroke="#191970" d="M146.2474,-153.9782C154.8862,-153.9782 163.5409,-153.9782 171.8007,-153.9782"/>
<polygon fill="#191970" stroke="#191970" points="146.1382,-150.4783 136.1381,-153.9782 146.1381,-157.4783 146.1382,-150.4783"/>
</g>
<!-- Node22 -->
<g id="node3" class="node">
<title>Node22</title>
<g id="a_node3"><a xlink:href="classMap.html#ade1eeabf4e539f9dbfe2a96c97fda4e3" target="_top" xlink:title="Map::changeHeight">
<polygon fill="none" stroke="#000000" points="661,-144.4782 661,-163.4782 771,-163.4782 771,-144.4782 661,-144.4782"/>
<text text-anchor="middle" x="716" y="-151.4782" font-family="Helvetica,sans-Serif" font-size="10.00" fill="#000000">Map::changeHeight</text>
</a>
</g>
</g>
<!-- Node21&#45;&gt;Node22 -->
<g id="edge2" class="edge">
<title>Node21&#45;&gt;Node22</title>
<path fill="none" stroke="#191970" d="M291.5592,-154.4609C370.4545,-154.9724 507.4764,-155.6239 625,-154.9782 636.5335,-154.9148 648.8889,-154.8063 660.6596,-154.6835"/>
<polygon fill="#191970" stroke="#191970" points="291.314,-150.9593 281.291,-154.3929 291.2676,-157.9591 291.314,-150.9593"/>
</g>
<!-- Node31 -->
<g id="node12" class="node">
<title>Node31</title>
<g id="a_node12"><a xlink:href="classMap.html#af1e496c421981fe707890b0ba60cc20f" target="_top" xlink:title="Map::updateNodeNeighbors">
<polygon fill="none" stroke="#000000" points="317,-106.4782 317,-125.4782 469,-125.4782 469,-106.4782 317,-106.4782"/>
<text text-anchor="middle" x="393" y="-113.4782" font-family="Helvetica,sans-Serif" font-size="10.00" fill="#000000">Map::updateNodeNeighbors</text>
</a>
</g>
</g>
<!-- Node21&#45;&gt;Node31 -->
<g id="edge12" class="edge">
<title>Node21&#45;&gt;Node31</title>
<path fill="none" stroke="#191970" d="M278.309,-142.1539C301.7825,-136.7966 329.1654,-130.5471 351.2871,-125.4982"/>
<polygon fill="#191970" stroke="#191970" points="277.4855,-138.7518 268.515,-144.3892 279.0431,-145.5763 277.4855,-138.7518"/>
</g>
<!-- Node23 -->
<g id="node4" class="node">
<title>Node23</title>
<g id="a_node4"><a xlink:href="classMap.html#aba5154a4d917900679a3c0f7ec701561" target="_top" xlink:title="Increase Height Increases the height of the node and checks the surrounding tiles. Either draw a slope sprite or elevate the tile if necessary. ">
<polygon fill="none" stroke="#000000" points="811.5,-182.4782 811.5,-201.4782 927.5,-201.4782 927.5,-182.4782 811.5,-182.4782"/>
<text text-anchor="middle" x="869.5" y="-189.4782" font-family="Helvetica,sans-Serif" font-size="10.00" fill="#000000">Map::increaseHeight</text>
</a>
</g>
</g>
<!-- Node22&#45;&gt;Node23 -->
<g id="edge3" class="edge">
<title>Node22&#45;&gt;Node23</title>
<path fill="none" stroke="#191970" d="M764.6352,-166.0182C786.0799,-171.327 810.9226,-177.4769 831.044,-182.4581"/>
<polygon fill="#191970" stroke="#191970" points="765.2826,-162.5729 754.7345,-163.5672 763.6004,-169.3677 765.2826,-162.5729"/>
</g>
<!-- Node29 -->
<g id="node10" class="node">
<title>Node29</title>
<g id="a_node10"><a xlink:href="classMap.html#afb8cc864df90d273a5074872d635dc40" target="_top" xlink:title="Decrease Height Decreases the height of the node and checks the surrounding tiles. Either draw a slope sprite or lower the tile if necessary. ">
<polygon fill="none" stroke="#000000" points="810,-144.4782 810,-163.4782 929,-163.4782 929,-144.4782 810,-144.4782"/>
<text text-anchor="middle" x="869.5" y="-151.4782" font-family="Helvetica,sans-Serif" font-size="10.00" fill="#000000">Map::decreaseHeight</text>
</a>
</g>
</g>
<!-- Node22&#45;&gt;Node29 -->
<g id="edge9" class="edge">
<title>Node22&#45;&gt;Node29</title>
<path fill="none" stroke="#191970" d="M781.4846,-153.9782C790.8708,-153.9782 800.4869,-153.9782 809.7546,-153.9782"/>
<polygon fill="#191970" stroke="#191970" points="781.4171,-150.4783 771.417,-153.9782 781.417,-157.4783 781.4171,-150.4783"/>
</g>
<!-- Node24 -->
<g id="node5" class="node">
<title>Node24</title>
<g id="a_node5"><a xlink:href="classEngine.html#a4851ae1ff696c893741167fc0194fd77" target="_top" xlink:title="Increase Height Increases the height of the given map node Calls the according function of the Map ob...">
<polygon fill="none" stroke="#000000" points="1136,-182.4782 1136,-201.4782 1265,-201.4782 1265,-182.4782 1136,-182.4782"/>
<text text-anchor="middle" x="1200.5" y="-189.4782" font-family="Helvetica,sans-Serif" font-size="10.00" fill="#000000">Engine::increaseHeight</text>
</a>
</g>
</g>
<!-- Node23&#45;&gt;Node24 -->
<g id="edge4" class="edge">
<title>Node23&#45;&gt;Node24</title>
<path fill="none" stroke="#191970" d="M937.717,-191.9782C995.796,-191.9782 1078.6556,-191.9782 1135.7264,-191.9782"/>
<polygon fill="#191970" stroke="#191970" points="937.5346,-188.4783 927.5346,-191.9782 937.5345,-195.4783 937.5346,-188.4783"/>
</g>
<!-- Node25 -->
<g id="node6" class="node">
<title>Node25</title>
<g id="a_node6"><a xlink:href="classEventManager.html#a65ec91fd5016d4f9c4167fb8babed2df" target="_top" xlink:title="EventManager::checkEvents">
<polygon fill="none" stroke="#000000" points="1313,-106.4782 1313,-125.4782 1467,-125.4782 1467,-106.4782 1313,-106.4782"/>
<text text-anchor="middle" x="1390" y="-113.4782" font-family="Helvetica,sans-Serif" font-size="10.00" fill="#000000">EventManager::checkEvents</text>
</a>
</g>
</g>
<!-- Node24&#45;&gt;Node25 -->
<g id="edge5" class="edge">
<title>Node24&#45;&gt;Node25</title>
<path fill="none" stroke="#191970" d="M1236.3728,-178.9056C1245.719,-175.4245 1255.7592,-171.618 1265,-167.9782 1301.0839,-153.7654 1342.5809,-136.2719 1367.5233,-125.631"/>
<polygon fill="#191970" stroke="#191970" points="1235.1099,-175.641 1226.9469,-182.395 1237.5401,-182.2056 1235.1099,-175.641"/>
</g>
<!-- Node26 -->
<g id="node7" class="node">
<title>Node26</title>
<g id="a_node7"><a xlink:href="classGame.html#a1c2ab25d5216b2f4b2fe41efd2c09114" target="_top" xlink:title="begins the game starts running the game ">
<polygon fill="none" stroke="#000000" points="1532.5,-106.4782 1532.5,-125.4782 1600.5,-125.4782 1600.5,-106.4782 1532.5,-106.4782"/>
<text text-anchor="middle" x="1566.5" y="-113.4782" font-family="Helvetica,sans-Serif" font-size="10.00" fill="#000000">Game::run</text>
</a>
</g>
</g>
<!-- Node25&#45;&gt;Node26 -->
<g id="edge6" class="edge">
<title>Node25&#45;&gt;Node26</title>
<path fill="none" stroke="#191970" d="M1477.3664,-115.9782C1496.9355,-115.9782 1516.5625,-115.9782 1532.398,-115.9782"/>
<polygon fill="#191970" stroke="#191970" points="1477.1587,-112.4783 1467.1587,-115.9782 1477.1587,-119.4783 1477.1587,-112.4783"/>
</g>
<!-- Node27 -->
<g id="node8" class="node">
<title>Node27</title>
<g id="a_node8"><a xlink:href="main_8cxx.html#af582d708d899e67ead623eac34a22387" target="_top" xlink:title="protected_main">
<polygon fill="none" stroke="#000000" points="1654,-87.4782 1654,-106.4782 1747,-106.4782 1747,-87.4782 1654,-87.4782"/>
<text text-anchor="middle" x="1700.5" y="-94.4782" font-family="Helvetica,sans-Serif" font-size="10.00" fill="#000000">protected_main</text>
</a>
</g>
</g>
<!-- Node26&#45;&gt;Node27 -->
<g id="edge7" class="edge">
<title>Node26&#45;&gt;Node27</title>
<path fill="none" stroke="#191970" d="M1610.8611,-109.6882C1624.6278,-107.7362 1639.8396,-105.5793 1653.7626,-103.6051"/>
<polygon fill="#191970" stroke="#191970" points="1610.0702,-106.2652 1600.6606,-111.1345 1611.0529,-113.1959 1610.0702,-106.2652"/>
</g>
<!-- Node28 -->
<g id="node9" class="node">
<title>Node28</title>
<g id="a_node9"><a xlink:href="main_8cxx.html#a3c04138a5bfe5d72780bb7e82a18e627" target="_top" xlink:title="main">
<polygon fill="none" stroke="#000000" points="1783,-87.4782 1783,-106.4782 1824,-106.4782 1824,-87.4782 1783,-87.4782"/>
<text text-anchor="middle" x="1803.5" y="-94.4782" font-family="Helvetica,sans-Serif" font-size="10.00" fill="#000000">main</text>
</a>
</g>
</g>
<!-- Node27&#45;&gt;Node28 -->
<g id="edge8" class="edge">
<title>Node27&#45;&gt;Node28</title>
<path fill="none" stroke="#191970" d="M1757.2133,-96.9782C1766.4322,-96.9782 1775.4259,-96.9782 1782.9965,-96.9782"/>
<polygon fill="#191970" stroke="#191970" points="1757.1782,-93.4783 1747.1782,-96.9782 1757.1781,-100.4783 1757.1782,-93.4783"/>
</g>
<!-- Node30 -->
<g id="node11" class="node">
<title>Node30</title>
<g id="a_node11"><a xlink:href="classEngine.html#a13572fdd7f6470dca48a14497f58980e" target="_top" xlink:title="Decrease Height Decreases the height of the given map node Calls the according function of the Map ob...">
<polygon fill="none" stroke="#000000" points="968,-144.4782 968,-163.4782 1100,-163.4782 1100,-144.4782 968,-144.4782"/>
<text text-anchor="middle" x="1034" y="-151.4782" font-family="Helvetica,sans-Serif" font-size="10.00" fill="#000000">Engine::decreaseHeight</text>
</a>
</g>
</g>
<!-- Node29&#45;&gt;Node30 -->
<g id="edge10" class="edge">
<title>Node29&#45;&gt;Node30</title>
<path fill="none" stroke="#191970" d="M939.4434,-153.9782C948.8433,-153.9782 958.4627,-153.9782 967.7952,-153.9782"/>
<polygon fill="#191970" stroke="#191970" points="939.3537,-150.4783 929.3536,-153.9782 939.3536,-157.4783 939.3537,-150.4783"/>
</g>
<!-- Node30&#45;&gt;Node25 -->
<g id="edge11" class="edge">
<title>Node30&#45;&gt;Node25</title>
<path fill="none" stroke="#191970" d="M1110.2157,-146.2146C1155.2509,-141.5885 1213.3831,-135.55 1265,-129.9782 1280.5233,-128.3025 1297.1263,-126.4708 1312.9948,-124.7008"/>
<polygon fill="#191970" stroke="#191970" points="1109.8213,-142.7366 1100.2309,-147.2392 1110.5359,-149.7 1109.8213,-142.7366"/>
</g>
<!-- Node31&#45;&gt;Node22 -->
<g id="edge13" class="edge">
<title>Node31&#45;&gt;Node22</title>
<path fill="none" stroke="#191970" d="M454.2144,-127.2528C470.667,-130.0394 488.4791,-132.8364 505,-134.9782 557.7063,-141.8112 618.1382,-146.9839 660.7817,-150.1936"/>
<polygon fill="#191970" stroke="#191970" points="454.6184,-123.771 444.1697,-125.5251 453.4317,-130.6697 454.6184,-123.771"/>
</g>
<!-- Node32 -->
<g id="node13" class="node">
<title>Node32</title>
<g id="a_node13"><a xlink:href="classMap.html#a481b37ba71ef0e51e836fc42805762dd" target="_top" xlink:title="Update all mapNodes Updates all mapNode and its adjacent tiles regarding height information, draws slopes for adjacent tiles and sets tiling for mapNode sprite if applicable. ">
<polygon fill="none" stroke="#000000" points="505,-68.4782 505,-87.4782 625,-87.4782 625,-68.4782 505,-68.4782"/>
<text text-anchor="middle" x="565" y="-75.4782" font-family="Helvetica,sans-Serif" font-size="10.00" fill="#000000">Map::updateAllNodes</text>
</a>
</g>
</g>
<!-- Node31&#45;&gt;Node32 -->
<g id="edge14" class="edge">
<title>Node31&#45;&gt;Node32</title>
<path fill="none" stroke="#191970" d="M446.1959,-104.2256C470.5166,-98.8524 498.9547,-92.5696 521.9092,-87.4982"/>
<polygon fill="#191970" stroke="#191970" points="445.4123,-100.8142 436.4029,-106.3892 446.9225,-107.6494 445.4123,-100.8142"/>
</g>
<!-- Node40 -->
<g id="node21" class="node">
<title>Node40</title>
<g id="a_node21"><a xlink:href="classMap.html#aa8cc2ed983007621bce12dd9d1b8ec5b" target="_top" xlink:title="Demolish a node This function gathers all tiles that should be demolished and invokes the nodes demol...">
<polygon fill="none" stroke="#000000" points="508.5,-106.4782 508.5,-125.4782 621.5,-125.4782 621.5,-106.4782 508.5,-106.4782"/>
<text text-anchor="middle" x="565" y="-113.4782" font-family="Helvetica,sans-Serif" font-size="10.00" fill="#000000">Map::demolishNode</text>
</a>
</g>
</g>
<!-- Node31&#45;&gt;Node40 -->
<g id="edge27" class="edge">
<title>Node31&#45;&gt;Node40</title>
<path fill="none" stroke="#191970" d="M479.4498,-109.2283C489.3104,-109.2319 499.1632,-109.3538 508.4896,-109.594"/>
<polygon fill="#191970" stroke="#191970" points="479.1794,-105.7292 469.1928,-109.2674 479.2061,-112.7291 479.1794,-105.7292"/>
</g>
<!-- Node33 -->
<g id="node14" class="node">
<title>Node33</title>
<g id="a_node14"><a xlink:href="classMap.html#a26eceeccd7b6ed693909b1927a25c67a" target="_top" xlink:title="Map::Map">
<polygon fill="none" stroke="#000000" points="684.5,-30.4782 684.5,-49.4782 747.5,-49.4782 747.5,-30.4782 684.5,-30.4782"/>
<text text-anchor="middle" x="716" y="-37.4782" font-family="Helvetica,sans-Serif" font-size="10.00" fill="#000000">Map::Map</text>
</a>
</g>
</g>
<!-- Node32&#45;&gt;Node33 -->
<g id="edge15" class="edge">
<title>Node32&#45;&gt;Node33</title>
<path fill="none" stroke="#191970" d="M613.097,-65.8743C636.2741,-60.0417 663.4375,-53.2058 684.0345,-48.0225"/>
<polygon fill="#191970" stroke="#191970" points="611.9471,-62.5545 603.1037,-68.3892 613.6555,-69.3428 611.9471,-62.5545"/>
</g>
<!-- Node34 -->
<g id="node15" class="node">
<title>Node34</title>
<g id="a_node15"><a xlink:href="classMap.html#afefe996cc1f62b61ec60d0ae415953bf" target="_top" xlink:title="Map::loadMapFromFile">
<polygon fill="none" stroke="#000000" points="807,-30.4782 807,-49.4782 932,-49.4782 932,-30.4782 807,-30.4782"/>
<text text-anchor="middle" x="869.5" y="-37.4782" font-family="Helvetica,sans-Serif" font-size="10.00" fill="#000000">Map::loadMapFromFile</text>
</a>
</g>
</g>
<!-- Node32&#45;&gt;Node34 -->
<g id="edge26" class="edge">
<title>Node32&#45;&gt;Node34</title>
<path fill="none" stroke="#191970" d="M635.2897,-73.2211C675.2007,-70.0884 726.023,-65.3744 771,-58.9782 788.7597,-56.4526 808.1736,-52.8836 825.0357,-49.5196"/>
<polygon fill="#191970" stroke="#191970" points="634.8281,-69.7461 625.1262,-74.0033 635.3653,-76.7255 634.8281,-69.7461"/>
</g>
<!-- Node33&#45;&gt;Node34 -->
<g id="edge16" class="edge">
<title>Node33&#45;&gt;Node34</title>
<path fill="none" stroke="#191970" d="M757.8303,-39.9782C772.8933,-39.9782 790.2371,-39.9782 806.6955,-39.9782"/>
<polygon fill="#191970" stroke="#191970" points="757.8053,-36.4783 747.8053,-39.9782 757.8053,-43.4783 757.8053,-36.4783"/>
</g>
<!-- Node35 -->
<g id="node16" class="node">
<title>Node35</title>
<g id="a_node16"><a xlink:href="classEngine.html#a83b7dbeee899b36a13d5b07c7ad87ebc" target="_top" xlink:title="Loads a saved game Loads a saved Game. ">
<polygon fill="none" stroke="#000000" points="981,-30.4782 981,-49.4782 1087,-49.4782 1087,-30.4782 981,-30.4782"/>
<text text-anchor="middle" x="1034" y="-37.4782" font-family="Helvetica,sans-Serif" font-size="10.00" fill="#000000">Engine::loadGame</text>
</a>
</g>
</g>
<!-- Node34&#45;&gt;Node35 -->
<g id="edge17" class="edge">
<title>Node34&#45;&gt;Node35</title>
<path fill="none" stroke="#191970" d="M942.4461,-39.9782C955.3866,-39.9782 968.6382,-39.9782 980.8977,-39.9782"/>
<polygon fill="#191970" stroke="#191970" points="942.1597,-36.4783 932.1597,-39.9782 942.1596,-43.4783 942.1597,-36.4783"/>
</g>
<!-- Node36 -->
<g id="node17" class="node">
<title>Node36</title>
<g id="a_node17"><a xlink:href="classEngine.html#a0ba57971ffb5173ecc425461f65a4cd8" target="_top" xlink:title="Quits the game Sets m_running to false and quitting the game. ">
<polygon fill="none" stroke="#000000" points="1148.5,-68.4782 1148.5,-87.4782 1252.5,-87.4782 1252.5,-68.4782 1148.5,-68.4782"/>
<text text-anchor="middle" x="1200.5" y="-75.4782" font-family="Helvetica,sans-Serif" font-size="10.00" fill="#000000">Engine::quitGame</text>
</a>
</g>
</g>
<!-- Node35&#45;&gt;Node36 -->
<g id="edge18" class="edge">
<title>Node35&#45;&gt;Node36</title>
<path fill="none" stroke="#191970" d="M1085.809,-51.8025C1109.2825,-57.1598 1136.6654,-63.4093 1158.7871,-68.4581"/>
<polygon fill="#191970" stroke="#191970" points="1086.5431,-48.3801 1076.015,-49.5672 1084.9855,-55.2046 1086.5431,-48.3801"/>
</g>
<!-- Node37 -->
<g id="node18" class="node">
<title>Node37</title>
<g id="a_node18"><a xlink:href="classUIManager.html#aa78e356fc3b356d790c848319d1c387e" target="_top" xlink:title="UIManager::setCallbackFunctions">
<polygon fill="none" stroke="#000000" points="1301,-30.4782 1301,-49.4782 1479,-49.4782 1479,-30.4782 1301,-30.4782"/>
<text text-anchor="middle" x="1390" y="-37.4782" font-family="Helvetica,sans-Serif" font-size="10.00" fill="#000000">UIManager::setCallbackFunctions</text>
</a>
</g>
</g>
<!-- Node35&#45;&gt;Node37 -->
<g id="edge24" class="edge">
<title>Node35&#45;&gt;Node37</title>
<path fill="none" stroke="#191970" d="M1097.5355,-39.9782C1154.0967,-39.9782 1237.4356,-39.9782 1300.6965,-39.9782"/>
<polygon fill="#191970" stroke="#191970" points="1097.2968,-36.4783 1087.2968,-39.9782 1097.2968,-43.4783 1097.2968,-36.4783"/>
</g>
<!-- Node39 -->
<g id="node20" class="node">
<title>Node39</title>
<g id="a_node20"><a xlink:href="classGame.html#a560299f0291c281f7b44e7ef0dd7b264" target="_top" xlink:title="initializes and displays the main menu initializes and displays the main menu ">
<polygon fill="none" stroke="#000000" points="1515,-68.4782 1515,-87.4782 1618,-87.4782 1618,-68.4782 1515,-68.4782"/>
<text text-anchor="middle" x="1566.5" y="-75.4782" font-family="Helvetica,sans-Serif" font-size="10.00" fill="#000000">Game::mainMenu</text>
</a>
</g>
</g>
<!-- Node35&#45;&gt;Node39 -->
<g id="edge25" class="edge">
<title>Node35&#45;&gt;Node39</title>
<path fill="none" stroke="#191970" d="M1080.866,-28.1673C1163.3522,-9.5144 1338.9939,20.6017 1479,-20.9782 1510.2834,-30.2689 1540.8332,-54.6745 1556.215,-68.3465"/>
<polygon fill="#191970" stroke="#191970" points="1079.9968,-24.7758 1071.0403,-30.4354 1081.5713,-31.5964 1079.9968,-24.7758"/>
</g>
<!-- Node36&#45;&gt;Node25 -->
<g id="edge19" class="edge">
<title>Node36&#45;&gt;Node25</title>
<path fill="none" stroke="#191970" d="M1258.3948,-89.5877C1285.346,-94.9922 1317.0102,-101.3417 1342.525,-106.4581"/>
<polygon fill="#191970" stroke="#191970" points="1258.8118,-86.1017 1248.3189,-87.5672 1257.4355,-92.9651 1258.8118,-86.1017"/>
</g>
<!-- Node36&#45;&gt;Node37 -->
<g id="edge20" class="edge">
<title>Node36&#45;&gt;Node37</title>
<path fill="none" stroke="#191970" d="M1258.3948,-66.3687C1285.346,-60.9642 1317.0102,-54.6147 1342.525,-49.4982"/>
<polygon fill="#191970" stroke="#191970" points="1257.4355,-62.9913 1248.3189,-68.3892 1258.8118,-69.8547 1257.4355,-62.9913"/>
</g>
<!-- Node38 -->
<g id="node19" class="node">
<title>Node38</title>
<g id="a_node19"><a xlink:href="classGame.html#a8272be134d16c277bb014ad6a22fc357" target="_top" xlink:title="Game::quit">
<polygon fill="none" stroke="#000000" points="1354.5,-68.4782 1354.5,-87.4782 1425.5,-87.4782 1425.5,-68.4782 1354.5,-68.4782"/>
<text text-anchor="middle" x="1390" y="-75.4782" font-family="Helvetica,sans-Serif" font-size="10.00" fill="#000000">Game::quit</text>
</a>
</g>
</g>
<!-- Node36&#45;&gt;Node38 -->
<g id="edge21" class="edge">
<title>Node36&#45;&gt;Node38</title>
<path fill="none" stroke="#191970" d="M1262.619,-77.9782C1293.001,-77.9782 1328.482,-77.9782 1354.27,-77.9782"/>
<polygon fill="#191970" stroke="#191970" points="1262.5324,-74.4783 1252.5324,-77.9782 1262.5323,-81.4783 1262.5324,-74.4783"/>
</g>
<!-- Node38&#45;&gt;Node39 -->
<g id="edge22" class="edge">
<title>Node38&#45;&gt;Node39</title>
<path fill="none" stroke="#191970" d="M1436.0403,-77.9782C1460.1836,-77.9782 1489.8403,-77.9782 1514.7739,-77.9782"/>
<polygon fill="#191970" stroke="#191970" points="1435.7174,-74.4783 1425.7174,-77.9782 1435.7174,-81.4783 1435.7174,-74.4783"/>
</g>
<!-- Node39&#45;&gt;Node27 -->
<g id="edge23" class="edge">
<title>Node39&#45;&gt;Node27</title>
<path fill="none" stroke="#191970" d="M1628.2457,-86.7332C1636.7846,-87.9439 1645.438,-89.1709 1653.6465,-90.3348"/>
<polygon fill="#191970" stroke="#191970" points="1628.7003,-83.2627 1618.3079,-85.3241 1627.7175,-90.1934 1628.7003,-83.2627"/>
</g>
<!-- Node40&#45;&gt;Node22 -->
<g id="edge29" class="edge">
<title>Node40&#45;&gt;Node22</title>
<path fill="none" stroke="#191970" d="M612.8431,-128.0182C633.9386,-133.327 658.3766,-139.4769 678.1703,-144.4581"/>
<polygon fill="#191970" stroke="#191970" points="613.6555,-124.6136 603.1037,-125.5672 611.9471,-131.4019 613.6555,-124.6136"/>
</g>
<!-- Node40&#45;&gt;Node25 -->
<g id="edge28" class="edge">
<title>Node40&#45;&gt;Node25</title>
<path fill="none" stroke="#191970" d="M632.0563,-115.9782C693.754,-115.9782 787.7932,-115.9782 869.5,-115.9782 869.5,-115.9782 869.5,-115.9782 1034,-115.9782 1130.1076,-115.9782 1240.8097,-115.9782 1312.9163,-115.9782"/>
<polygon fill="#191970" stroke="#191970" points="631.6818,-112.4783 621.6818,-115.9782 631.6818,-119.4783 631.6818,-112.4783"/>
</g>
<!-- Node40&#45;&gt;Node31 -->
<g id="edge30" class="edge">
<title>Node40&#45;&gt;Node31</title>
<path fill="none" stroke="#191970" d="M498.2975,-122.5748C488.7622,-122.7287 478.8932,-122.7668 469.1928,-122.689"/>
<polygon fill="#191970" stroke="#191970" points="498.5647,-126.0701 508.4896,-122.3623 498.4187,-119.0716 498.5647,-126.0701"/>
</g>
</g>
</svg>
