<?xml version="1.0" encoding="UTF-8" standalone="no"?>
<!DOCTYPE svg PUBLIC "-//W3C//DTD SVG 1.1//EN"
 "http://www.w3.org/Graphics/SVG/1.1/DTD/svg11.dtd">
<!-- Generated by graphviz version 2.40.1 (20161225.0304)
 -->
<!-- Title: Camera::setPinchDistance Pages: 1 -->
<!--zoomable 255 -->
<svg id="main" version="1.1" xmlns="http://www.w3.org/2000/svg" xmlns:xlink="http://www.w3.org/1999/xlink" xml:space="preserve" onload="init(evt)">
<style type="text/css"><![CDATA[
.edge:hover path { stroke: red; }
.edge:hover polygon { stroke: red; fill: red; }
]]></style>
<script type="text/javascript"><![CDATA[
var edges = document.getElementsByTagName('g');
if (edges && edges.length) {
  for (var i=0;i<edges.length;i++) {
    if (edges[i].id.substr(0,4)=='edge') {
      edges[i].setAttribute('class','edge');
    }
  }
}
]]></script>
        <defs>
                <circle id="rim" cx="0" cy="0" r="7"/>
                <circle id="rim2" cx="0" cy="0" r="3.5"/>
                <g id="zoomPlus">
                        <use xlink:href="#rim" fill="#404040">
                                <set attributeName="fill" to="#808080" begin="zoomplus.mouseover" end="zoomplus.mouseout"/>
                        </use>
                        <path d="M-4,0h8M0,-4v8" fill="none" stroke="white" stroke-width="1.5" pointer-events="none"/>
                </g>
                <g id="zoomMin">
                        <use xlink:href="#rim" fill="#404040">
                                <set attributeName="fill" to="#808080" begin="zoomminus.mouseover" end="zoomminus.mouseout"/>
                        </use>
                        <path d="M-4,0h8" fill="none" stroke="white" stroke-width="1.5" pointer-events="none"/>
                </g>
                <g id="dirArrow">
                        <path fill="none" stroke="white" stroke-width="1.5" d="M0,-3.0v7 M-2.5,-0.5L0,-3.0L2.5,-0.5"/>
                </g>
               <g id="resetDef">
                       <use xlink:href="#rim2" fill="#404040">
                               <set attributeName="fill" to="#808080" begin="reset.mouseover" end="reset.mouseout"/>
                       </use>
               </g>
        </defs>

<script type="text/javascript">
var viewWidth = 1122;
var viewHeight = 255;
var sectionId = 'dynsection-9';
</script>
<script xlink:href="svgpan.js"/>
<svg id="graph" class="graph">
<g id="viewport">
<title>Camera::setPinchDistance</title>
<!-- Node68 -->
<g id="node1" class="node">
<title>Node68</title>
<polygon fill="#bfbfbf" stroke="#000000" points="0,-152.5 0,-171.5 145,-171.5 145,-152.5 0,-152.5"/>
<text text-anchor="middle" x="72.5" y="-159.5" font-family="Helvetica,sans-Serif" font-size="10.00" fill="#000000">Camera::setPinchDistance</text>
</g>
<!-- Node69 -->
<g id="node2" class="node">
<title>Node69</title>
<g id="a_node2"><a xlink:href="classCamera.html#adfb240823ff20b97b69459490dbd8dc3" target="_top" xlink:title="Centers camera on given isometric coordinates Centers the camera on the given isometric coordinates...">
<polygon fill="none" stroke="#000000" points="377,-157.5 377,-176.5 540,-176.5 540,-157.5 377,-157.5"/>
<text text-anchor="middle" x="458.5" y="-164.5" font-family="Helvetica,sans-Serif" font-size="10.00" fill="#000000">Camera::centerScreenOnPoint</text>
</a>
</g>
</g>
<!-- Node68&#45;&gt;Node69 -->
<g id="edge1" class="edge">
<title>Node68&#45;&gt;Node69</title>
<path fill="none" stroke="#191970" d="M116.6146,-171.5119C136.2273,-175.2773 159.6622,-179.1458 181,-181 251.8441,-187.1561 270.0139,-185.2141 341,-181 353.6217,-180.2507 366.966,-179.0525 379.956,-177.6645"/>
<polygon fill="#191970" stroke="#191970" points="380.7257,-181.1006 390.2771,-176.5157 379.9512,-174.1435 380.7257,-181.1006"/>
</g>
<!-- Node78 -->
<g id="node11" class="node">
<title>Node78</title>
<g id="a_node11"><a xlink:href="classCamera.html#a0a8ee04ccb4f4cc9af52a964cf225f66" target="_top" xlink:title="Increases the zoom level of the camera Increases the zoom level of the camera. ">
<polygon fill="none" stroke="#000000" points="182.5,-152.5 182.5,-171.5 339.5,-171.5 339.5,-152.5 182.5,-152.5"/>
<text text-anchor="middle" x="261" y="-159.5" font-family="Helvetica,sans-Serif" font-size="10.00" fill="#000000">Camera::increaseZoomLevel</text>
</a>
</g>
</g>
<!-- Node68&#45;&gt;Node78 -->
<g id="edge14" class="edge">
<title>Node68&#45;&gt;Node78</title>
<path fill="none" stroke="#191970" d="M145.1094,-162C154.0012,-162 163.1646,-162 172.2594,-162"/>
<polygon fill="#191970" stroke="#191970" points="172.4805,-165.5001 182.4804,-162 172.4804,-158.5001 172.4805,-165.5001"/>
</g>
<!-- Node79 -->
<g id="node12" class="node">
<title>Node79</title>
<g id="a_node12"><a xlink:href="classCamera.html#aeea39f352d5873495dea6f376cf3207e" target="_top" xlink:title="Decreases the zoom level of the camera Decreases the zoom level of the camera. ">
<polygon fill="none" stroke="#000000" points="181,-114.5 181,-133.5 341,-133.5 341,-114.5 181,-114.5"/>
<text text-anchor="middle" x="261" y="-121.5" font-family="Helvetica,sans-Serif" font-size="10.00" fill="#000000">Camera::decreaseZoomLevel</text>
</a>
</g>
</g>
<!-- Node68&#45;&gt;Node79 -->
<g id="edge18" class="edge">
<title>Node68&#45;&gt;Node79</title>
<path fill="none" stroke="#191970" d="M120.0665,-152.411C145.5014,-147.2835 177.0046,-140.9328 203.7714,-135.5368"/>
<polygon fill="#191970" stroke="#191970" points="204.6644,-138.9273 213.7755,-133.5201 203.2811,-132.0653 204.6644,-138.9273"/>
</g>
<!-- Node70 -->
<g id="node3" class="node">
<title>Node70</title>
<g id="a_node3"><a xlink:href="isoMath_8cxx.html#a7fa61c3d8ef446fb1c48dc4838023649" target="_top" xlink:title="Check if given coordinates are within map boundaries Checks if coordinates are within map boundaries...">
<polygon fill="none" stroke="#000000" points="576,-208.5 576,-227.5 732,-227.5 732,-208.5 576,-208.5"/>
<text text-anchor="middle" x="654" y="-215.5" font-family="Helvetica,sans-Serif" font-size="10.00" fill="#000000">isPointWithinMapBoundaries</text>
</a>
</g>
</g>
<!-- Node69&#45;&gt;Node70 -->
<g id="edge2" class="edge">
<title>Node69&#45;&gt;Node70</title>
<path fill="none" stroke="#191970" d="M495.2721,-176.5927C527.0841,-184.8915 573.2425,-196.9328 607.5913,-205.8934"/>
<polygon fill="#191970" stroke="#191970" points="606.8332,-209.3127 617.3928,-208.4503 608.6002,-202.5393 606.8332,-209.3127"/>
</g>
<!-- Node71 -->
<g id="node4" class="node">
<title>Node71</title>
<g id="a_node4"><a xlink:href="classSingleton.html#af5cb1e5749949e2b68416cfb8d378044" target="_top" xlink:title="Get an instance of the singleton. ">
<polygon fill="none" stroke="#000000" points="972.5,-156 972.5,-186 1085.5,-186 1085.5,-156 972.5,-156"/>
<text text-anchor="start" x="980.5" y="-174" font-family="Helvetica,sans-Serif" font-size="10.00" fill="#000000">Singleton&lt; Settings</text>
<text text-anchor="middle" x="1029" y="-163" font-family="Helvetica,sans-Serif" font-size="10.00" fill="#000000"> &gt;::instance</text>
</a>
</g>
</g>
<!-- Node69&#45;&gt;Node71 -->
<g id="edge5" class="edge">
<title>Node69&#45;&gt;Node71</title>
<path fill="none" stroke="#191970" d="M540.2387,-162.6725C653.8427,-160.8848 857.3068,-162.4354 962.2854,-166.0037"/>
<polygon fill="#191970" stroke="#191970" points="962.3194,-169.5071 972.4381,-166.3669 962.5697,-162.5116 962.3194,-169.5071"/>
</g>
<!-- Node69&#45;&gt;Node71 -->
<g id="edge6" class="edge">
<title>Node69&#45;&gt;Node71</title>
<path fill="none" stroke="#191970" d="M540.2387,-172.4737C653.8427,-175.8544 857.3068,-177.157 962.2854,-175.0607"/>
<polygon fill="#191970" stroke="#191970" points="962.5166,-178.5566 972.4381,-174.84 962.3644,-171.5583 962.5166,-178.5566"/>
</g>
<!-- Node72 -->
<g id="node5" class="node">
<title>Node72</title>
<g id="a_node5"><a xlink:href="isoMath_8cxx.html#a229d5dd54cd4e1f43ed5911e4fd266d3" target="_top" xlink:title="converts coordinates from isometric to screen space The given isometric coordinates (which contain he...">
<polygon fill="none" stroke="#000000" points="944,-10.5 944,-29.5 1114,-29.5 1114,-10.5 944,-10.5"/>
<text text-anchor="middle" x="1029" y="-17.5" font-family="Helvetica,sans-Serif" font-size="10.00" fill="#000000">convertIsoToScreenCoordinates</text>
</a>
</g>
</g>
<!-- Node69&#45;&gt;Node72 -->
<g id="edge4" class="edge">
<title>Node69&#45;&gt;Node72</title>
<path fill="none" stroke="#191970" d="M484.2443,-157.3772C536.8851,-137.993 660.9114,-93.8133 768,-67 829.1319,-51.6935 899.5053,-39.3189 951.7622,-31.1167"/>
<polygon fill="#191970" stroke="#191970" points="952.6195,-34.5256 961.9639,-29.5323 951.5452,-27.6085 952.6195,-34.5256"/>
</g>
<!-- Node73 -->
<g id="node6" class="node">
<title>Node73</title>
<g id="a_node6"><a xlink:href="classMap.html#ab69938ac0e56eb0da1d1701221f3d185" target="_top" xlink:title="Refresh all the map tile textures. ">
<polygon fill="none" stroke="#000000" points="615.5,-19.5 615.5,-38.5 692.5,-38.5 692.5,-19.5 615.5,-19.5"/>
<text text-anchor="middle" x="654" y="-26.5" font-family="Helvetica,sans-Serif" font-size="10.00" fill="#000000">Map::refresh</text>
</a>
</g>
</g>
<!-- Node69&#45;&gt;Node73 -->
<g id="edge7" class="edge">
<title>Node69&#45;&gt;Node73</title>
<path fill="none" stroke="#191970" d="M470.2935,-157.4632C486.565,-144.1117 516.5477,-118.8059 540,-95 557.254,-77.4859 555.4397,-66.4803 576,-53 584.8892,-47.1718 595.2672,-42.6984 605.498,-39.2863"/>
<polygon fill="#191970" stroke="#191970" points="606.661,-42.5909 615.2084,-36.3305 604.6226,-35.8943 606.661,-42.5909"/>
</g>
<!-- Node70&#45;&gt;Node71 -->
<g id="edge3" class="edge">
<title>Node70&#45;&gt;Node71</title>
<path fill="none" stroke="#191970" d="M732.0387,-212.5272C782.3977,-208.5272 849.2358,-202.3426 908,-194 925.609,-191.5001 944.5486,-188.1967 962.0954,-184.8758"/>
<polygon fill="#191970" stroke="#191970" points="963.0858,-188.2496 972.2452,-182.9245 961.7642,-181.3755 963.0858,-188.2496"/>
</g>
<!-- Node74 -->
<g id="node7" class="node">
<title>Node74</title>
<g id="a_node7"><a xlink:href="classMap.html#af654ddecf0d25b836d7c9c27ee5c2150" target="_top" xlink:title="Map::calculateVisibleMap">
<polygon fill="none" stroke="#000000" points="768,-76.5 768,-95.5 908,-95.5 908,-76.5 768,-76.5"/>
<text text-anchor="middle" x="838" y="-83.5" font-family="Helvetica,sans-Serif" font-size="10.00" fill="#000000">Map::calculateVisibleMap</text>
</a>
</g>
</g>
<!-- Node73&#45;&gt;Node74 -->
<g id="edge8" class="edge">
<title>Node73&#45;&gt;Node74</title>
<path fill="none" stroke="#191970" d="M684.7975,-38.5405C715.7112,-48.1171 763.4979,-62.9205 797.4738,-73.4457"/>
<polygon fill="#191970" stroke="#191970" points="796.5142,-76.8125 807.1021,-76.4284 798.5856,-70.1259 796.5142,-76.8125"/>
</g>
<!-- Node77 -->
<g id="node10" class="node">
<title>Node77</title>
<g id="a_node10"><a xlink:href="classSprite.html#ababb7913a4d642b0d20a2c48c2a7e77a" target="_top" xlink:title="Sprite::refresh">
<polygon fill="none" stroke="#000000" points="795,-.5 795,-19.5 881,-19.5 881,-.5 795,-.5"/>
<text text-anchor="middle" x="838" y="-7.5" font-family="Helvetica,sans-Serif" font-size="10.00" fill="#000000">Sprite::refresh</text>
</a>
</g>
</g>
<!-- Node73&#45;&gt;Node77 -->
<g id="edge12" class="edge">
<title>Node73&#45;&gt;Node77</title>
<path fill="none" stroke="#191970" d="M692.5724,-25.017C719.344,-22.2525 755.3525,-18.5343 784.8403,-15.4893"/>
<polygon fill="#191970" stroke="#191970" points="785.3851,-18.9518 794.9727,-14.443 784.6661,-11.9888 785.3851,-18.9518"/>
</g>
<!-- Node74&#45;&gt;Node71 -->
<g id="edge10" class="edge">
<title>Node74&#45;&gt;Node71</title>
<path fill="none" stroke="#191970" d="M868.661,-95.5041C881.0239,-99.5962 895.3312,-104.6643 908,-110 937.0931,-122.2532 968.932,-138.4209 992.6447,-151.0327"/>
<polygon fill="#191970" stroke="#191970" points="991.1655,-154.2109 1001.6328,-155.8497 994.4721,-148.041 991.1655,-154.2109"/>
</g>
<!-- Node75 -->
<g id="node8" class="node">
<title>Node75</title>
<g id="a_node8"><a xlink:href="isoMath_8cxx.html#a0a076d973bc64ffa7859b894793c8000" target="_top" xlink:title="Calculates screen space coordinates to isometric space coordinates. A formula is used to calculate th...">
<polygon fill="none" stroke="#000000" points="962,-95.5 962,-114.5 1096,-114.5 1096,-95.5 962,-95.5"/>
<text text-anchor="middle" x="1029" y="-102.5" font-family="Helvetica,sans-Serif" font-size="10.00" fill="#000000">calculateIsoCoordinates</text>
</a>
</g>
</g>
<!-- Node74&#45;&gt;Node75 -->
<g id="edge9" class="edge">
<title>Node74&#45;&gt;Node75</title>
<path fill="none" stroke="#191970" d="M908.0368,-92.967C922.1728,-94.3732 937.1119,-95.8593 951.4868,-97.2893"/>
<polygon fill="#191970" stroke="#191970" points="951.5373,-100.8115 961.8347,-98.3186 952.2303,-93.8459 951.5373,-100.8115"/>
</g>
<!-- Node76 -->
<g id="node9" class="node">
<title>Node76</title>
<g id="a_node9"><a xlink:href="classMap.html#a1676db3d125b2c1764adfcb64d6332a2" target="_top" xlink:title="Map::nodeIdx">
<polygon fill="none" stroke="#000000" points="988,-57.5 988,-76.5 1070,-76.5 1070,-57.5 988,-57.5"/>
<text text-anchor="middle" x="1029" y="-64.5" font-family="Helvetica,sans-Serif" font-size="10.00" fill="#000000">Map::nodeIdx</text>
</a>
</g>
</g>
<!-- Node74&#45;&gt;Node76 -->
<g id="edge11" class="edge">
<title>Node74&#45;&gt;Node76</title>
<path fill="none" stroke="#191970" d="M908.0368,-79.033C931.0936,-76.7394 956.2867,-74.2333 977.6839,-72.1047"/>
<polygon fill="#191970" stroke="#191970" points="978.2527,-75.5655 987.8571,-71.0928 977.5597,-68.5999 978.2527,-75.5655"/>
</g>
<!-- Node77&#45;&gt;Node72 -->
<g id="edge13" class="edge">
<title>Node77&#45;&gt;Node72</title>
<path fill="none" stroke="#191970" d="M881.3409,-12.2692C896.9425,-13.086 915.2233,-14.0431 933.5038,-15.0002"/>
<polygon fill="#191970" stroke="#191970" points="933.4733,-18.5033 943.6427,-15.531 933.8394,-11.5129 933.4733,-18.5033"/>
</g>
<!-- Node78&#45;&gt;Node69 -->
<g id="edge15" class="edge">
<title>Node78&#45;&gt;Node69</title>
<path fill="none" stroke="#191970" d="M339.6247,-163.9905C348.5346,-164.2161 357.6728,-164.4474 366.7322,-164.6768"/>
<polygon fill="#191970" stroke="#191970" points="366.8254,-168.1801 376.9108,-164.9345 367.0026,-161.1824 366.8254,-168.1801"/>
</g>
<!-- Node78&#45;&gt;Node71 -->
<g id="edge16" class="edge">
<title>Node78&#45;&gt;Node71</title>
<path fill="none" stroke="#191970" d="M290.9854,-171.6286C346.5,-188.8928 469.3595,-224.4797 576,-237 722.8704,-254.2436 764.2394,-249.6574 908,-215 934.0491,-208.7202 962.2341,-198.6737 984.843,-189.7651"/>
<polygon fill="#191970" stroke="#191970" points="986.1862,-192.9975 994.1687,-186.0311 983.5841,-186.4991 986.1862,-192.9975"/>
</g>
<!-- Node78&#45;&gt;Node73 -->
<g id="edge17" class="edge">
<title>Node78&#45;&gt;Node73</title>
<path fill="none" stroke="#191970" d="M305.7143,-152.4854C317.2894,-149.7215 329.6789,-146.4954 341,-143 394.4322,-126.5029 523.1349,-71.2331 576,-53 587.3953,-49.0698 599.8314,-45.1011 611.3578,-41.5537"/>
<polygon fill="#191970" stroke="#191970" points="612.6568,-44.8169 621.204,-38.5562 610.6181,-38.1203 612.6568,-44.8169"/>
</g>
<!-- Node79&#45;&gt;Node69 -->
<g id="edge19" class="edge">
<title>Node79&#45;&gt;Node69</title>
<path fill="none" stroke="#191970" d="M304.8317,-133.5431C334.3646,-139.973 373.5064,-148.4951 404.8944,-155.3289"/>
<polygon fill="#191970" stroke="#191970" points="404.2752,-158.776 414.7909,-157.4836 405.7644,-151.9362 404.2752,-158.776"/>
</g>
<!-- Node79&#45;&gt;Node71 -->
<g id="edge20" class="edge">
<title>Node79&#45;&gt;Node71</title>
<path fill="none" stroke="#191970" d="M341.0161,-128.8968C493.0006,-138.198 820.8465,-158.2614 962.0585,-166.9033"/>
<polygon fill="#191970" stroke="#191970" points="962.1085,-170.4128 972.3036,-167.5303 962.5361,-163.4259 962.1085,-170.4128"/>
</g>
<!-- Node79&#45;&gt;Node73 -->
<g id="edge21" class="edge">
<title>Node79&#45;&gt;Node73</title>
<path fill="none" stroke="#191970" d="M276.4707,-114.3814C298.1042,-101.4111 339.0166,-78.6054 377,-67 454.5713,-43.299 548.8946,-34.3485 605.0507,-30.9904"/>
<polygon fill="#191970" stroke="#191970" points="605.2919,-34.4824 615.0795,-30.4261 604.8986,-27.4935 605.2919,-34.4824"/>
</g>
</g>
</svg>
        <g id="navigator" transform="translate(0 0)" fill="#404254">
                <rect fill="#f2f5e9" fill-opacity="0.5" stroke="#606060" stroke-width=".5" x="0" y="0" width="60" height="60"/>
                <use id="zoomplus" xlink:href="#zoomPlus" x="17" y="9" onmousedown="handleZoom(evt,'in')"/>
                <use id="zoomminus" xlink:href="#zoomMin" x="42" y="9" onmousedown="handleZoom(evt,'out')"/>
                <use id="reset" xlink:href="#resetDef" x="30" y="36" onmousedown="handleReset()"/>
                <g id="arrowUp" xlink:href="#dirArrow" transform="translate(30 24)" onmousedown="handlePan(0,-1)">
                  <use xlink:href="#rim" fill="#404040">
                        <set attributeName="fill" to="#808080" begin="arrowUp.mouseover" end="arrowUp.mouseout"/>
                  </use>
                  <path fill="none" stroke="white" stroke-width="1.5" d="M0,-3.0v7 M-2.5,-0.5L0,-3.0L2.5,-0.5"/>
                </g>
                <g id="arrowRight" xlink:href="#dirArrow" transform="rotate(90) translate(36 -43)" onmousedown="handlePan(1,0)">
                  <use xlink:href="#rim" fill="#404040">
                        <set attributeName="fill" to="#808080" begin="arrowRight.mouseover" end="arrowRight.mouseout"/>
                  </use>
                  <path fill="none" stroke="white" stroke-width="1.5" d="M0,-3.0v7 M-2.5,-0.5L0,-3.0L2.5,-0.5"/>
                </g>
                <g id="arrowDown" xlink:href="#dirArrow" transform="rotate(180) translate(-30 -48)" onmousedown="handlePan(0,1)">
                  <use xlink:href="#rim" fill="#404040">
                        <set attributeName="fill" to="#808080" begin="arrowDown.mouseover" end="arrowDown.mouseout"/>
                  </use>
                  <path fill="none" stroke="white" stroke-width="1.5" d="M0,-3.0v7 M-2.5,-0.5L0,-3.0L2.5,-0.5"/>
                </g>
                <g id="arrowLeft" xlink:href="#dirArrow" transform="rotate(270) translate(-36 17)" onmousedown="handlePan(-1,0)">
                  <use xlink:href="#rim" fill="#404040">
                        <set attributeName="fill" to="#808080" begin="arrowLeft.mouseover" end="arrowLeft.mouseout"/>
                  </use>
                  <path fill="none" stroke="white" stroke-width="1.5" d="M0,-3.0v7 M-2.5,-0.5L0,-3.0L2.5,-0.5"/>
                </g>
        </g>
        <svg viewBox="0 0 15 15" width="100%" height="30px" preserveAspectRatio="xMaxYMin meet">
         <g id="arrow_out" transform="scale(0.3 0.3)">
          <a xlink:href="classCamera_a1f8ecd427814c5a4970223c2d13b9310_cgraph_org.svg" target="_base">
           <rect id="button" ry="5" rx="5" y="6" x="6" height="38" width="38"
                fill="#f2f5e9" fill-opacity="0.5" stroke="#606060" stroke-width="1.0"/>
           <path id="arrow"
             d="M 11.500037,31.436501 C 11.940474,20.09759 22.043105,11.32322 32.158766,21.979434 L 37.068811,17.246167 C 37.068811,17.246167 37.088388,32 37.088388,32 L 22.160133,31.978069 C 22.160133,31.978069 26.997745,27.140456 26.997745,27.140456 C 18.528582,18.264221 13.291696,25.230495 11.500037,31.436501 z"
             style="fill:#404040;"/>
          </a>
         </g>
        </svg>
</svg>
