<?xml version="1.0" encoding="UTF-8" standalone="no"?>
<!DOCTYPE svg PUBLIC "-//W3C//DTD SVG 1.1//EN"
 "http://www.w3.org/Graphics/SVG/1.1/DTD/svg11.dtd">
<!-- Generated by graphviz version 2.40.1 (20161225.0304)
 -->
<!-- Title: MapNode::updateTexture Pages: 1 -->
<!--zoomable 123 -->
<svg id="main" version="1.1" xmlns="http://www.w3.org/2000/svg" xmlns:xlink="http://www.w3.org/1999/xlink" xml:space="preserve" onload="init(evt)">
<style type="text/css"><![CDATA[
.edge:hover path { stroke: red; }
.edge:hover polygon { stroke: red; fill: red; }
]]></style>
<script type="text/javascript"><![CDATA[
var edges = document.getElementsByTagName('g');
if (edges && edges.length) {
  for (var i=0;i<edges.length;i++) {
    if (edges[i].id.substr(0,4)=='edge') {
      edges[i].setAttribute('class','edge');
    }
  }
}
]]></script>
        <defs>
                <circle id="rim" cx="0" cy="0" r="7"/>
                <circle id="rim2" cx="0" cy="0" r="3.5"/>
                <g id="zoomPlus">
                        <use xlink:href="#rim" fill="#404040">
                                <set attributeName="fill" to="#808080" begin="zoomplus.mouseover" end="zoomplus.mouseout"/>
                        </use>
                        <path d="M-4,0h8M0,-4v8" fill="none" stroke="white" stroke-width="1.5" pointer-events="none"/>
                </g>
                <g id="zoomMin">
                        <use xlink:href="#rim" fill="#404040">
                                <set attributeName="fill" to="#808080" begin="zoomminus.mouseover" end="zoomminus.mouseout"/>
                        </use>
                        <path d="M-4,0h8" fill="none" stroke="white" stroke-width="1.5" pointer-events="none"/>
                </g>
                <g id="dirArrow">
                        <path fill="none" stroke="white" stroke-width="1.5" d="M0,-3.0v7 M-2.5,-0.5L0,-3.0L2.5,-0.5"/>
                </g>
               <g id="resetDef">
                       <use xlink:href="#rim2" fill="#404040">
                               <set attributeName="fill" to="#808080" begin="reset.mouseover" end="reset.mouseout"/>
                       </use>
               </g>
        </defs>

<script type="text/javascript">
var viewWidth = 1152;
var viewHeight = 123;
var sectionId = 'dynsection-31';
</script>
<script xlink:href="svgpan.js"/>
<svg id="graph" class="graph">
<g id="viewport">
<title>MapNode::updateTexture</title>
<!-- Node354 -->
<g id="node1" class="node">
<title>Node354</title>
<polygon fill="#bfbfbf" stroke="#000000" points="0,-57.5 0,-76.5 138,-76.5 138,-57.5 0,-57.5"/>
<text text-anchor="middle" x="69" y="-64.5" font-family="Helvetica,sans-Serif" font-size="10.00" fill="#000000">MapNode::updateTexture</text>
</g>
<!-- Node355 -->
<g id="node2" class="node">
<title>Node355</title>
<g id="a_node2"><a xlink:href="classMapNode.html#ae515fc96b543bf97237bfb1ca53fe571" target="_top" xlink:title="MapNode::MapNode">
<polygon fill="none" stroke="#000000" points="353.5,-95.5 353.5,-114.5 467.5,-114.5 467.5,-95.5 353.5,-95.5"/>
<text text-anchor="middle" x="410.5" y="-102.5" font-family="Helvetica,sans-Serif" font-size="10.00" fill="#000000">MapNode::MapNode</text>
</a>
</g>
</g>
<!-- Node354&#45;&gt;Node355 -->
<g id="edge1" class="edge">
<title>Node354&#45;&gt;Node355</title>
<path fill="none" stroke="#191970" d="M98.1224,-80.6421C118.7885,-89.5438 147.4605,-100.3453 174,-105 234.4604,-115.6039 304.9604,-113.8228 353.1547,-110.5056"/>
<polygon fill="#191970" stroke="#191970" points="99.5078,-77.4278 88.9464,-76.5876 96.6787,-83.8307 99.5078,-77.4278"/>
</g>
<!-- Node356 -->
<g id="node3" class="node">
<title>Node356</title>
<g id="a_node3"><a xlink:href="classMapNode.html#a92b521fa20e0a75d81523a52ba1d8250" target="_top" xlink:title="MapNode::setBitmask">
<polygon fill="none" stroke="#000000" points="181.5,-76.5 181.5,-95.5 305.5,-95.5 305.5,-76.5 181.5,-76.5"/>
<text text-anchor="middle" x="243.5" y="-83.5" font-family="Helvetica,sans-Serif" font-size="10.00" fill="#000000">MapNode::setBitmask</text>
</a>
</g>
</g>
<!-- Node354&#45;&gt;Node356 -->
<g id="edge2" class="edge">
<title>Node354&#45;&gt;Node356</title>
<path fill="none" stroke="#191970" d="M148.3436,-75.6391C159.4451,-76.8479 170.7186,-78.0754 181.4375,-79.2425"/>
<polygon fill="#191970" stroke="#191970" points="148.5378,-72.1397 138.2177,-74.5366 147.78,-79.0985 148.5378,-72.1397"/>
</g>
<!-- Node357 -->
<g id="node4" class="node">
<title>Node357</title>
<g id="a_node4"><a xlink:href="classMapNode.html#a26e55c94192a56990f8a59e7af139a73" target="_top" xlink:title="MapNode::setTileID">
<polygon fill="none" stroke="#000000" points="187.5,-38.5 187.5,-57.5 299.5,-57.5 299.5,-38.5 187.5,-38.5"/>
<text text-anchor="middle" x="243.5" y="-45.5" font-family="Helvetica,sans-Serif" font-size="10.00" fill="#000000">MapNode::setTileID</text>
</a>
</g>
</g>
<!-- Node354&#45;&gt;Node357 -->
<g id="edge3" class="edge">
<title>Node354&#45;&gt;Node357</title>
<path fill="none" stroke="#191970" d="M148.2213,-58.3742C161.392,-56.9401 174.8088,-55.4793 187.2575,-54.1238"/>
<polygon fill="#191970" stroke="#191970" points="147.78,-54.9015 138.2177,-59.4634 148.5378,-61.8603 147.78,-54.9015"/>
</g>
<!-- Node364 -->
<g id="node11" class="node">
<title>Node364</title>
<g id="a_node11"><a xlink:href="classMapNode.html#a002b868485074599fbf087fc4c96b2c9" target="_top" xlink:title="Demolish a node Removes all tiles on a node. This effects all layers where something to demolish is p...">
<polygon fill="none" stroke="#000000" points="174,-.5 174,-19.5 313,-19.5 313,-.5 174,-.5"/>
<text text-anchor="middle" x="243.5" y="-7.5" font-family="Helvetica,sans-Serif" font-size="10.00" fill="#000000">MapNode::demolishNode</text>
</a>
</g>
</g>
<!-- Node354&#45;&gt;Node364 -->
<g id="edge11" class="edge">
<title>Node354&#45;&gt;Node364</title>
<path fill="none" stroke="#191970" d="M103.3286,-53.7868C123.7244,-46.1347 150.1787,-36.5532 174,-29 184.4928,-25.6729 195.9843,-22.3881 206.5479,-19.5096"/>
<polygon fill="#191970" stroke="#191970" points="101.9588,-50.5627 93.8409,-57.3709 104.4326,-57.1111 101.9588,-50.5627"/>
</g>
<!-- Node357&#45;&gt;Node355 -->
<g id="edge4" class="edge">
<title>Node357&#45;&gt;Node355</title>
<path fill="none" stroke="#191970" d="M290.8807,-60.2375C298.322,-62.3649 305.8981,-64.6524 313,-67 339.0465,-75.6098 368.288,-87.2835 387.8935,-95.4112"/>
<polygon fill="#191970" stroke="#191970" points="291.8002,-56.8604 281.2273,-57.5414 289.9172,-63.6024 291.8002,-56.8604"/>
</g>
<!-- Node358 -->
<g id="node5" class="node">
<title>Node358</title>
<g id="a_node5"><a xlink:href="classMap.html#a404c38b33d61f8c63ce2c2efb864d6dd" target="_top" xlink:title="Set the Tile ID Of Node object Also invokes all necessary texture updates (auto&#45;tiling, slopes, ...) ">
<polygon fill="none" stroke="#000000" points="349,-38.5 349,-57.5 472,-57.5 472,-38.5 349,-38.5"/>
<text text-anchor="middle" x="410.5" y="-45.5" font-family="Helvetica,sans-Serif" font-size="10.00" fill="#000000">Map::setTileIDOfNode</text>
</a>
</g>
</g>
<!-- Node357&#45;&gt;Node358 -->
<g id="edge5" class="edge">
<title>Node357&#45;&gt;Node358</title>
<path fill="none" stroke="#191970" d="M309.7595,-48C322.645,-48 336.1033,-48 348.8334,-48"/>
<polygon fill="#191970" stroke="#191970" points="309.5732,-44.5001 299.5732,-48 309.5731,-51.5001 309.5732,-44.5001"/>
</g>
<!-- Node359 -->
<g id="node6" class="node">
<title>Node359</title>
<g id="a_node6"><a xlink:href="classEngine.html#a7a1521fd7fc731f961ebaf3f723127d9" target="_top" xlink:title="Engine::setTileIDOfNode">
<polygon fill="none" stroke="#000000" points="508,-38.5 508,-57.5 644,-57.5 644,-38.5 508,-38.5"/>
<text text-anchor="middle" x="576" y="-45.5" font-family="Helvetica,sans-Serif" font-size="10.00" fill="#000000">Engine::setTileIDOfNode</text>
</a>
</g>
</g>
<!-- Node358&#45;&gt;Node359 -->
<g id="edge6" class="edge">
<title>Node358&#45;&gt;Node359</title>
<path fill="none" stroke="#191970" d="M482.3736,-48C490.858,-48 499.4976,-48 507.9273,-48"/>
<polygon fill="#191970" stroke="#191970" points="482.1261,-44.5001 472.1261,-48 482.1261,-51.5001 482.1261,-44.5001"/>
</g>
<!-- Node360 -->
<g id="node7" class="node">
<title>Node360</title>
<g id="a_node7"><a xlink:href="classEventManager.html#a65ec91fd5016d4f9c4167fb8babed2df" target="_top" xlink:title="EventManager::checkEvents">
<polygon fill="none" stroke="#000000" points="680,-38.5 680,-57.5 834,-57.5 834,-38.5 680,-38.5"/>
<text text-anchor="middle" x="757" y="-45.5" font-family="Helvetica,sans-Serif" font-size="10.00" fill="#000000">EventManager::checkEvents</text>
</a>
</g>
</g>
<!-- Node359&#45;&gt;Node360 -->
<g id="edge7" class="edge">
<title>Node359&#45;&gt;Node360</title>
<path fill="none" stroke="#191970" d="M654.3623,-48C662.7925,-48 671.3658,-48 679.7824,-48"/>
<polygon fill="#191970" stroke="#191970" points="654.1705,-44.5001 644.1704,-48 654.1704,-51.5001 654.1705,-44.5001"/>
</g>
<!-- Node361 -->
<g id="node8" class="node">
<title>Node361</title>
<g id="a_node8"><a xlink:href="classGame.html#a1c2ab25d5216b2f4b2fe41efd2c09114" target="_top" xlink:title="begins the game starts running the game ">
<polygon fill="none" stroke="#000000" points="870,-38.5 870,-57.5 938,-57.5 938,-38.5 870,-38.5"/>
<text text-anchor="middle" x="904" y="-45.5" font-family="Helvetica,sans-Serif" font-size="10.00" fill="#000000">Game::run</text>
</a>
</g>
</g>
<!-- Node360&#45;&gt;Node361 -->
<g id="edge8" class="edge">
<title>Node360&#45;&gt;Node361</title>
<path fill="none" stroke="#191970" d="M844.5248,-48C853.4338,-48 862.0572,-48 869.845,-48"/>
<polygon fill="#191970" stroke="#191970" points="844.3744,-44.5001 834.3744,-48 844.3743,-51.5001 844.3744,-44.5001"/>
</g>
<!-- Node362 -->
<g id="node9" class="node">
<title>Node362</title>
<g id="a_node9"><a xlink:href="main_8cxx.html#af582d708d899e67ead623eac34a22387" target="_top" xlink:title="protected_main">
<polygon fill="none" stroke="#000000" points="974,-38.5 974,-57.5 1067,-57.5 1067,-38.5 974,-38.5"/>
<text text-anchor="middle" x="1020.5" y="-45.5" font-family="Helvetica,sans-Serif" font-size="10.00" fill="#000000">protected_main</text>
</a>
</g>
</g>
<!-- Node361&#45;&gt;Node362 -->
<g id="edge9" class="edge">
<title>Node361&#45;&gt;Node362</title>
<path fill="none" stroke="#191970" d="M948.2653,-48C956.5757,-48 965.2897,-48 973.6749,-48"/>
<polygon fill="#191970" stroke="#191970" points="948.0098,-44.5001 938.0098,-48 948.0098,-51.5001 948.0098,-44.5001"/>
</g>
<!-- Node363 -->
<g id="node10" class="node">
<title>Node363</title>
<g id="a_node10"><a xlink:href="main_8cxx.html#a3c04138a5bfe5d72780bb7e82a18e627" target="_top" xlink:title="main">
<polygon fill="none" stroke="#000000" points="1103,-38.5 1103,-57.5 1144,-57.5 1144,-38.5 1103,-38.5"/>
<text text-anchor="middle" x="1123.5" y="-45.5" font-family="Helvetica,sans-Serif" font-size="10.00" fill="#000000">main</text>
</a>
</g>
</g>
<!-- Node362&#45;&gt;Node363 -->
<g id="edge10" class="edge">
<title>Node362&#45;&gt;Node363</title>
<path fill="none" stroke="#191970" d="M1077.2133,-48C1086.4322,-48 1095.4259,-48 1102.9965,-48"/>
<polygon fill="#191970" stroke="#191970" points="1077.1782,-44.5001 1067.1782,-48 1077.1781,-51.5001 1077.1782,-44.5001"/>
</g>
</g>
</svg>
        <g id="navigator" transform="translate(0 0)" fill="#404254">
                <rect fill="#f2f5e9" fill-opacity="0.5" stroke="#606060" stroke-width=".5" x="0" y="0" width="60" height="60"/>
                <use id="zoomplus" xlink:href="#zoomPlus" x="17" y="9" onmousedown="handleZoom(evt,'in')"/>
                <use id="zoomminus" xlink:href="#zoomMin" x="42" y="9" onmousedown="handleZoom(evt,'out')"/>
                <use id="reset" xlink:href="#resetDef" x="30" y="36" onmousedown="handleReset()"/>
                <g id="arrowUp" xlink:href="#dirArrow" transform="translate(30 24)" onmousedown="handlePan(0,-1)">
                  <use xlink:href="#rim" fill="#404040">
                        <set attributeName="fill" to="#808080" begin="arrowUp.mouseover" end="arrowUp.mouseout"/>
                  </use>
                  <path fill="none" stroke="white" stroke-width="1.5" d="M0,-3.0v7 M-2.5,-0.5L0,-3.0L2.5,-0.5"/>
                </g>
                <g id="arrowRight" xlink:href="#dirArrow" transform="rotate(90) translate(36 -43)" onmousedown="handlePan(1,0)">
                  <use xlink:href="#rim" fill="#404040">
                        <set attributeName="fill" to="#808080" begin="arrowRight.mouseover" end="arrowRight.mouseout"/>
                  </use>
                  <path fill="none" stroke="white" stroke-width="1.5" d="M0,-3.0v7 M-2.5,-0.5L0,-3.0L2.5,-0.5"/>
                </g>
                <g id="arrowDown" xlink:href="#dirArrow" transform="rotate(180) translate(-30 -48)" onmousedown="handlePan(0,1)">
                  <use xlink:href="#rim" fill="#404040">
                        <set attributeName="fill" to="#808080" begin="arrowDown.mouseover" end="arrowDown.mouseout"/>
                  </use>
                  <path fill="none" stroke="white" stroke-width="1.5" d="M0,-3.0v7 M-2.5,-0.5L0,-3.0L2.5,-0.5"/>
                </g>
                <g id="arrowLeft" xlink:href="#dirArrow" transform="rotate(270) translate(-36 17)" onmousedown="handlePan(-1,0)">
                  <use xlink:href="#rim" fill="#404040">
                        <set attributeName="fill" to="#808080" begin="arrowLeft.mouseover" end="arrowLeft.mouseout"/>
                  </use>
                  <path fill="none" stroke="white" stroke-width="1.5" d="M0,-3.0v7 M-2.5,-0.5L0,-3.0L2.5,-0.5"/>
                </g>
        </g>
        <svg viewBox="0 0 15 15" width="100%" height="30px" preserveAspectRatio="xMaxYMin meet">
         <g id="arrow_out" transform="scale(0.3 0.3)">
          <a xlink:href="classMapNode_aabbb10c19ddd79e9c519eb4af5e995e0_icgraph_org.svg" target="_base">
           <rect id="button" ry="5" rx="5" y="6" x="6" height="38" width="38"
                fill="#f2f5e9" fill-opacity="0.5" stroke="#606060" stroke-width="1.0"/>
           <path id="arrow"
             d="M 11.500037,31.436501 C 11.940474,20.09759 22.043105,11.32322 32.158766,21.979434 L 37.068811,17.246167 C 37.068811,17.246167 37.088388,32 37.088388,32 L 22.160133,31.978069 C 22.160133,31.978069 26.997745,27.140456 26.997745,27.140456 C 18.528582,18.264221 13.291696,25.230495 11.500037,31.436501 z"
             style="fill:#404040;"/>
          </a>
         </g>
        </svg>
</svg>
