<?xml version="1.0" encoding="UTF-8" standalone="no"?>
<!DOCTYPE svg PUBLIC "-//W3C//DTD SVG 1.1//EN"
 "http://www.w3.org/Graphics/SVG/1.1/DTD/svg11.dtd">
<!-- Generated by graphviz version 2.40.1 (20161225.0304)
 -->
<!-- Title: TileManager::calculateSlopeOrientation Pages: 1 -->
<svg width="1342pt" height="123pt"
 viewBox="0.00 0.00 1342.00 123.00" xmlns="http://www.w3.org/2000/svg" xmlns:xlink="http://www.w3.org/1999/xlink">
<g id="graph0" class="graph" transform="scale(1 1) rotate(0) translate(4 119)">
<title>TileManager::calculateSlopeOrientation</title>
<!-- Node30 -->
<g id="node1" class="node">
<title>Node30</title>
<polygon fill="#bfbfbf" stroke="#000000" points="0,-52 0,-82 154,-82 154,-52 0,-52"/>
<text text-anchor="start" x="8" y="-70" font-family="Helvetica,sans-Serif" font-size="10.00" fill="#000000">TileManager::calculateSlope</text>
<text text-anchor="middle" x="77" y="-59" font-family="Helvetica,sans-Serif" font-size="10.00" fill="#000000">Orientation</text>
</g>
<!-- Node31 -->
<g id="node2" class="node">
<title>Node31</title>
<g id="a_node2"><a xlink:href="classMapNode.html#aabbb10c19ddd79e9c519eb4af5e995e0" target="_top" xlink:title="Update texture. ">
<polygon fill="none" stroke="#000000" points="190,-57.5 190,-76.5 328,-76.5 328,-57.5 190,-57.5"/>
<text text-anchor="middle" x="259" y="-64.5" font-family="Helvetica,sans-Serif" font-size="10.00" fill="#000000">MapNode::updateTexture</text>
</a>
</g>
</g>
<!-- Node30&#45;&gt;Node31 -->
<g id="edge1" class="edge">
<title>Node30&#45;&gt;Node31</title>
<path fill="none" stroke="#191970" d="M164.2145,-67C172.7919,-67 181.4142,-67 189.7759,-67"/>
<polygon fill="#191970" stroke="#191970" points="164.1844,-63.5001 154.1844,-67 164.1844,-70.5001 164.1844,-63.5001"/>
</g>
<!-- Node32 -->
<g id="node3" class="node">
<title>Node32</title>
<g id="a_node3"><a xlink:href="classMapNode.html#ae515fc96b543bf97237bfb1ca53fe571" target="_top" xlink:title="MapNode::MapNode">
<polygon fill="none" stroke="#000000" points="543.5,-95.5 543.5,-114.5 657.5,-114.5 657.5,-95.5 543.5,-95.5"/>
<text text-anchor="middle" x="600.5" y="-102.5" font-family="Helvetica,sans-Serif" font-size="10.00" fill="#000000">MapNode::MapNode</text>
</a>
</g>
</g>
<!-- Node31&#45;&gt;Node32 -->
<g id="edge2" class="edge">
<title>Node31&#45;&gt;Node32</title>
<path fill="none" stroke="#191970" d="M288.1224,-80.6421C308.7885,-89.5438 337.4605,-100.3453 364,-105 424.4604,-115.6039 494.9604,-113.8228 543.1547,-110.5056"/>
<polygon fill="#191970" stroke="#191970" points="289.5078,-77.4278 278.9464,-76.5876 286.6787,-83.8307 289.5078,-77.4278"/>
</g>
<!-- Node33 -->
<g id="node4" class="node">
<title>Node33</title>
<g id="a_node4"><a xlink:href="classMapNode.html#a92b521fa20e0a75d81523a52ba1d8250" target="_top" xlink:title="MapNode::setBitmask">
<polygon fill="none" stroke="#000000" points="371.5,-76.5 371.5,-95.5 495.5,-95.5 495.5,-76.5 371.5,-76.5"/>
<text text-anchor="middle" x="433.5" y="-83.5" font-family="Helvetica,sans-Serif" font-size="10.00" fill="#000000">MapNode::setBitmask</text>
</a>
</g>
</g>
<!-- Node31&#45;&gt;Node33 -->
<g id="edge3" class="edge">
<title>Node31&#45;&gt;Node33</title>
<path fill="none" stroke="#191970" d="M338.3436,-75.6391C349.4451,-76.8479 360.7186,-78.0754 371.4375,-79.2425"/>
<polygon fill="#191970" stroke="#191970" points="338.5378,-72.1397 328.2177,-74.5366 337.78,-79.0985 338.5378,-72.1397"/>
</g>
<!-- Node34 -->
<g id="node5" class="node">
<title>Node34</title>
<g id="a_node5"><a xlink:href="classMapNode.html#a26e55c94192a56990f8a59e7af139a73" target="_top" xlink:title="MapNode::setTileID">
<polygon fill="none" stroke="#000000" points="377.5,-38.5 377.5,-57.5 489.5,-57.5 489.5,-38.5 377.5,-38.5"/>
<text text-anchor="middle" x="433.5" y="-45.5" font-family="Helvetica,sans-Serif" font-size="10.00" fill="#000000">MapNode::setTileID</text>
</a>
</g>
</g>
<!-- Node31&#45;&gt;Node34 -->
<g id="edge4" class="edge">
<title>Node31&#45;&gt;Node34</title>
<path fill="none" stroke="#191970" d="M338.2213,-58.3742C351.392,-56.9401 364.8088,-55.4793 377.2575,-54.1238"/>
<polygon fill="#191970" stroke="#191970" points="337.78,-54.9015 328.2177,-59.4634 338.5378,-61.8603 337.78,-54.9015"/>
</g>
<!-- Node41 -->
<g id="node12" class="node">
<title>Node41</title>
<g id="a_node12"><a xlink:href="classMapNode.html#a002b868485074599fbf087fc4c96b2c9" target="_top" xlink:title="Demolish a node Removes all tiles on a node. This effects all layers where something to demolish is p...">
<polygon fill="none" stroke="#000000" points="364,-.5 364,-19.5 503,-19.5 503,-.5 364,-.5"/>
<text text-anchor="middle" x="433.5" y="-7.5" font-family="Helvetica,sans-Serif" font-size="10.00" fill="#000000">MapNode::demolishNode</text>
</a>
</g>
</g>
<!-- Node31&#45;&gt;Node41 -->
<g id="edge12" class="edge">
<title>Node31&#45;&gt;Node41</title>
<path fill="none" stroke="#191970" d="M293.3286,-53.7868C313.7244,-46.1347 340.1787,-36.5532 364,-29 374.4928,-25.6729 385.9843,-22.3881 396.5479,-19.5096"/>
<polygon fill="#191970" stroke="#191970" points="291.9588,-50.5627 283.8409,-57.3709 294.4326,-57.1111 291.9588,-50.5627"/>
</g>
<!-- Node34&#45;&gt;Node32 -->
<g id="edge5" class="edge">
<title>Node34&#45;&gt;Node32</title>
<path fill="none" stroke="#191970" d="M480.8807,-60.2375C488.322,-62.3649 495.8981,-64.6524 503,-67 529.0465,-75.6098 558.288,-87.2835 577.8935,-95.4112"/>
<polygon fill="#191970" stroke="#191970" points="481.8002,-56.8604 471.2273,-57.5414 479.9172,-63.6024 481.8002,-56.8604"/>
</g>
<!-- Node35 -->
<g id="node6" class="node">
<title>Node35</title>
<g id="a_node6"><a xlink:href="classMap.html#a404c38b33d61f8c63ce2c2efb864d6dd" target="_top" xlink:title="Set the Tile ID Of Node object Also invokes all necessary texture updates (auto&#45;tiling, slopes, ...) ">
<polygon fill="none" stroke="#000000" points="539,-38.5 539,-57.5 662,-57.5 662,-38.5 539,-38.5"/>
<text text-anchor="middle" x="600.5" y="-45.5" font-family="Helvetica,sans-Serif" font-size="10.00" fill="#000000">Map::setTileIDOfNode</text>
</a>
</g>
</g>
<!-- Node34&#45;&gt;Node35 -->
<g id="edge6" class="edge">
<title>Node34&#45;&gt;Node35</title>
<path fill="none" stroke="#191970" d="M499.7595,-48C512.645,-48 526.1033,-48 538.8334,-48"/>
<polygon fill="#191970" stroke="#191970" points="499.5732,-44.5001 489.5732,-48 499.5731,-51.5001 499.5732,-44.5001"/>
</g>
<!-- Node36 -->
<g id="node7" class="node">
<title>Node36</title>
<g id="a_node7"><a xlink:href="classEngine.html#a7a1521fd7fc731f961ebaf3f723127d9" target="_top" xlink:title="Engine::setTileIDOfNode">
<polygon fill="none" stroke="#000000" points="698,-38.5 698,-57.5 834,-57.5 834,-38.5 698,-38.5"/>
<text text-anchor="middle" x="766" y="-45.5" font-family="Helvetica,sans-Serif" font-size="10.00" fill="#000000">Engine::setTileIDOfNode</text>
</a>
</g>
</g>
<!-- Node35&#45;&gt;Node36 -->
<g id="edge7" class="edge">
<title>Node35&#45;&gt;Node36</title>
<path fill="none" stroke="#191970" d="M672.3736,-48C680.858,-48 689.4976,-48 697.9273,-48"/>
<polygon fill="#191970" stroke="#191970" points="672.1261,-44.5001 662.1261,-48 672.1261,-51.5001 672.1261,-44.5001"/>
</g>
<!-- Node37 -->
<g id="node8" class="node">
<title>Node37</title>
<g id="a_node8"><a xlink:href="classEventManager.html#a65ec91fd5016d4f9c4167fb8babed2df" target="_top" xlink:title="EventManager::checkEvents">
<polygon fill="none" stroke="#000000" points="870,-38.5 870,-57.5 1024,-57.5 1024,-38.5 870,-38.5"/>
<text text-anchor="middle" x="947" y="-45.5" font-family="Helvetica,sans-Serif" font-size="10.00" fill="#000000">EventManager::checkEvents</text>
</a>
</g>
</g>
<!-- Node36&#45;&gt;Node37 -->
<g id="edge8" class="edge">
<title>Node36&#45;&gt;Node37</title>
<path fill="none" stroke="#191970" d="M844.3623,-48C852.7925,-48 861.3658,-48 869.7824,-48"/>
<polygon fill="#191970" stroke="#191970" points="844.1705,-44.5001 834.1704,-48 844.1704,-51.5001 844.1705,-44.5001"/>
</g>
<!-- Node38 -->
<g id="node9" class="node">
<title>Node38</title>
<g id="a_node9"><a xlink:href="classGame.html#a1c2ab25d5216b2f4b2fe41efd2c09114" target="_top" xlink:title="begins the game starts running the game ">
<polygon fill="none" stroke="#000000" points="1060,-38.5 1060,-57.5 1128,-57.5 1128,-38.5 1060,-38.5"/>
<text text-anchor="middle" x="1094" y="-45.5" font-family="Helvetica,sans-Serif" font-size="10.00" fill="#000000">Game::run</text>
</a>
</g>
</g>
<!-- Node37&#45;&gt;Node38 -->
<g id="edge9" class="edge">
<title>Node37&#45;&gt;Node38</title>
<path fill="none" stroke="#191970" d="M1034.5248,-48C1043.4338,-48 1052.0572,-48 1059.845,-48"/>
<polygon fill="#191970" stroke="#191970" points="1034.3744,-44.5001 1024.3744,-48 1034.3743,-51.5001 1034.3744,-44.5001"/>
</g>
<!-- Node39 -->
<g id="node10" class="node">
<title>Node39</title>
<g id="a_node10"><a xlink:href="main_8cxx.html#af582d708d899e67ead623eac34a22387" target="_top" xlink:title="protected_main">
<polygon fill="none" stroke="#000000" points="1164,-38.5 1164,-57.5 1257,-57.5 1257,-38.5 1164,-38.5"/>
<text text-anchor="middle" x="1210.5" y="-45.5" font-family="Helvetica,sans-Serif" font-size="10.00" fill="#000000">protected_main</text>
</a>
</g>
</g>
<!-- Node38&#45;&gt;Node39 -->
<g id="edge10" class="edge">
<title>Node38&#45;&gt;Node39</title>
<path fill="none" stroke="#191970" d="M1138.2653,-48C1146.5757,-48 1155.2897,-48 1163.6749,-48"/>
<polygon fill="#191970" stroke="#191970" points="1138.0098,-44.5001 1128.0098,-48 1138.0098,-51.5001 1138.0098,-44.5001"/>
</g>
<!-- Node40 -->
<g id="node11" class="node">
<title>Node40</title>
<g id="a_node11"><a xlink:href="main_8cxx.html#a3c04138a5bfe5d72780bb7e82a18e627" target="_top" xlink:title="main">
<polygon fill="none" stroke="#000000" points="1293,-38.5 1293,-57.5 1334,-57.5 1334,-38.5 1293,-38.5"/>
<text text-anchor="middle" x="1313.5" y="-45.5" font-family="Helvetica,sans-Serif" font-size="10.00" fill="#000000">main</text>
</a>
</g>
</g>
<!-- Node39&#45;&gt;Node40 -->
<g id="edge11" class="edge">
<title>Node39&#45;&gt;Node40</title>
<path fill="none" stroke="#191970" d="M1267.2133,-48C1276.4322,-48 1285.4259,-48 1292.9965,-48"/>
<polygon fill="#191970" stroke="#191970" points="1267.1782,-44.5001 1257.1782,-48 1267.1781,-51.5001 1267.1782,-44.5001"/>
</g>
</g>
</svg>
