<?xml version="1.0" encoding="UTF-8" standalone="no"?>
<!DOCTYPE svg PUBLIC "-//W3C//DTD SVG 1.1//EN"
 "http://www.w3.org/Graphics/SVG/1.1/DTD/svg11.dtd">
<!-- Generated by graphviz version 2.40.1 (20161225.0304)
 -->
<!-- Title: Engine::saveGame Pages: 1 -->
<svg width="414pt" height="116pt"
 viewBox="0.00 0.00 414.00 115.50" xmlns="http://www.w3.org/2000/svg" xmlns:xlink="http://www.w3.org/1999/xlink">
<g id="graph0" class="graph" transform="scale(1 1) rotate(0) translate(4 111.5)">
<title>Engine::saveGame</title>
<!-- Node142 -->
<g id="node1" class="node">
<title>Node142</title>
<polygon fill="#bfbfbf" stroke="#000000" points="0,-28 0,-47 108,-47 108,-28 0,-28"/>
<text text-anchor="middle" x="54" y="-35" font-family="Helvetica,sans-Serif" font-size="10.00" fill="#000000">Engine::saveGame</text>
</g>
<!-- Node143 -->
<g id="node2" class="node">
<title>Node143</title>
<g id="a_node2"><a xlink:href="classMap.html#ae48ef4fa6a6f73d886211bca59123151" target="_top" xlink:title="Map::saveMapToFile">
<polygon fill="none" stroke="#000000" points="144,-50 144,-69 257,-69 257,-50 144,-50"/>
<text text-anchor="middle" x="200.5" y="-57" font-family="Helvetica,sans-Serif" font-size="10.00" fill="#000000">Map::saveMapToFile</text>
</a>
</g>
</g>
<!-- Node142&#45;&gt;Node143 -->
<g id="edge1" class="edge">
<title>Node142&#45;&gt;Node143</title>
<path fill="none" stroke="#191970" d="M108.135,-45.6295C116.4539,-46.8787 125.1266,-48.1811 133.6813,-49.4658"/>
<polygon fill="#191970" stroke="#191970" points="133.2325,-52.9376 143.6414,-50.9615 134.2721,-46.0152 133.2325,-52.9376"/>
</g>
<!-- Node146 -->
<g id="node5" class="node">
<title>Node146</title>
<g id="a_node5"><a xlink:href="classEngine.html#a260d4834150eae6eec2bde34df6dc827" target="_top" xlink:title="Creates a new game Creates a new game. ">
<polygon fill="none" stroke="#000000" points="148,-9 148,-28 253,-28 253,-9 148,-9"/>
<text text-anchor="middle" x="200.5" y="-16" font-family="Helvetica,sans-Serif" font-size="10.00" fill="#000000">Engine::newGame</text>
</a>
</g>
</g>
<!-- Node142&#45;&gt;Node146 -->
<g id="edge4" class="edge">
<title>Node142&#45;&gt;Node146</title>
<path fill="none" stroke="#191970" d="M108.135,-30.4791C117.6931,-29.2395 127.7181,-27.9393 137.4948,-26.6713"/>
<polygon fill="#191970" stroke="#191970" points="138.0965,-30.1227 147.5632,-25.3655 137.1961,-23.1808 138.0965,-30.1227"/>
</g>
<!-- Node144 -->
<g id="node3" class="node">
<title>Node144</title>
<g id="a_node3"><a xlink:href="namespacefs.html#a9ce6574c55b8154911dfa170003ef14e" target="_top" xlink:title="fs::writeStringToFile">
<polygon fill="none" stroke="#000000" points="293.5,-88 293.5,-107 405.5,-107 405.5,-88 293.5,-88"/>
<text text-anchor="middle" x="349.5" y="-95" font-family="Helvetica,sans-Serif" font-size="10.00" fill="#000000">fs::writeStringToFile</text>
</a>
</g>
</g>
<!-- Node143&#45;&gt;Node144 -->
<g id="edge2" class="edge">
<title>Node143&#45;&gt;Node144</title>
<path fill="none" stroke="#191970" d="M238.099,-69.089C257.584,-74.0583 281.5745,-80.1767 302.2958,-85.4613"/>
<polygon fill="#191970" stroke="#191970" points="301.6166,-88.9001 312.1714,-87.9799 303.3465,-82.1172 301.6166,-88.9001"/>
</g>
<!-- Node145 -->
<g id="node4" class="node">
<title>Node145</title>
<g id="a_node4"><a xlink:href="compression_8hxx.html#a2b136078ca5d23222e9c24092a9918fa" target="_top" xlink:title="Compress a given string with zlib Compress the given string. Returns an empty string if something wen...">
<polygon fill="none" stroke="#000000" points="303.5,-50 303.5,-69 395.5,-69 395.5,-50 303.5,-50"/>
<text text-anchor="middle" x="349.5" y="-57" font-family="Helvetica,sans-Serif" font-size="10.00" fill="#000000">compressString</text>
</a>
</g>
</g>
<!-- Node143&#45;&gt;Node145 -->
<g id="edge3" class="edge">
<title>Node143&#45;&gt;Node145</title>
<path fill="none" stroke="#191970" d="M257.2556,-59.5C268.9595,-59.5 281.2837,-59.5 292.9793,-59.5"/>
<polygon fill="#191970" stroke="#191970" points="293.064,-63.0001 303.064,-59.5 293.0639,-56.0001 293.064,-63.0001"/>
</g>
<!-- Node147 -->
<g id="node6" class="node">
<title>Node147</title>
<g id="a_node6"><a xlink:href="classSingleton.html#af5cb1e5749949e2b68416cfb8d378044" target="_top" xlink:title="Get an instance of the singleton. ">
<polygon fill="none" stroke="#000000" points="293,-.5 293,-30.5 406,-30.5 406,-.5 293,-.5"/>
<text text-anchor="start" x="301" y="-18.5" font-family="Helvetica,sans-Serif" font-size="10.00" fill="#000000">Singleton&lt; Settings</text>
<text text-anchor="middle" x="349.5" y="-7.5" font-family="Helvetica,sans-Serif" font-size="10.00" fill="#000000"> &gt;::instance</text>
</a>
</g>
</g>
<!-- Node146&#45;&gt;Node147 -->
<g id="edge5" class="edge">
<title>Node146&#45;&gt;Node147</title>
<path fill="none" stroke="#191970" d="M253.0318,-17.4423C262.6082,-17.2495 272.7164,-17.046 282.6418,-16.8461"/>
<polygon fill="#191970" stroke="#191970" points="282.9615,-20.3405 292.889,-16.6398 282.8205,-13.3419 282.9615,-20.3405"/>
</g>
</g>
</svg>
