<?xml version="1.0" encoding="UTF-8" standalone="no"?>
<!DOCTYPE svg PUBLIC "-//W3C//DTD SVG 1.1//EN"
 "http://www.w3.org/Graphics/SVG/1.1/DTD/svg11.dtd">
<!-- Generated by graphviz version 2.40.1 (20161225.0304)
 -->
<!-- Title: Engine::decreaseHeight Pages: 1 -->
<svg width="1369pt" height="436pt"
 viewBox="0.00 0.00 1369.00 435.60" xmlns="http://www.w3.org/2000/svg" xmlns:xlink="http://www.w3.org/1999/xlink">
<g id="graph0" class="graph" transform="scale(1 1) rotate(0) translate(4 431.5952)">
<title>Engine::decreaseHeight</title>
<!-- Node6 -->
<g id="node1" class="node">
<title>Node6</title>
<polygon fill="#bfbfbf" stroke="#000000" points="0,-158.9874 0,-177.9874 132,-177.9874 132,-158.9874 0,-158.9874"/>
<text text-anchor="middle" x="66" y="-165.9874" font-family="Helvetica,sans-Serif" font-size="10.00" fill="#000000">Engine::decreaseHeight</text>
</g>
<!-- Node7 -->
<g id="node2" class="node">
<title>Node7</title>
<g id="a_node2"><a xlink:href="classMap.html#afb8cc864df90d273a5074872d635dc40" target="_top" xlink:title="Decrease Height Decreases the height of the node and checks the surrounding tiles. Either draw a slope sprite or lower the tile if necessary. ">
<polygon fill="none" stroke="#000000" points="168,-158.9874 168,-177.9874 287,-177.9874 287,-158.9874 168,-158.9874"/>
<text text-anchor="middle" x="227.5" y="-165.9874" font-family="Helvetica,sans-Serif" font-size="10.00" fill="#000000">Map::decreaseHeight</text>
</a>
</g>
</g>
<!-- Node6&#45;&gt;Node7 -->
<g id="edge1" class="edge">
<title>Node6&#45;&gt;Node7</title>
<path fill="none" stroke="#191970" d="M132.1542,-168.4874C140.5767,-168.4874 149.2183,-168.4874 157.6959,-168.4874"/>
<polygon fill="#191970" stroke="#191970" points="157.9297,-171.9875 167.9297,-168.4874 157.9296,-164.9875 157.9297,-171.9875"/>
</g>
<!-- Node8 -->
<g id="node3" class="node">
<title>Node8</title>
<g id="a_node3"><a xlink:href="classMap.html#ade1eeabf4e539f9dbfe2a96c97fda4e3" target="_top" xlink:title="Map::changeHeight">
<polygon fill="none" stroke="#000000" points="323,-158.9874 323,-177.9874 433,-177.9874 433,-158.9874 323,-158.9874"/>
<text text-anchor="middle" x="378" y="-165.9874" font-family="Helvetica,sans-Serif" font-size="10.00" fill="#000000">Map::changeHeight</text>
</a>
</g>
</g>
<!-- Node7&#45;&gt;Node8 -->
<g id="edge2" class="edge">
<title>Node7&#45;&gt;Node8</title>
<path fill="none" stroke="#191970" d="M287.414,-168.4874C295.6893,-168.4874 304.2231,-168.4874 312.5916,-168.4874"/>
<polygon fill="#191970" stroke="#191970" points="312.6889,-171.9875 322.6889,-168.4874 312.6889,-164.9875 312.6889,-171.9875"/>
</g>
<!-- Node9 -->
<g id="node4" class="node">
<title>Node9</title>
<g id="a_node4"><a xlink:href="classMap.html#a1676db3d125b2c1764adfcb64d6332a2" target="_top" xlink:title="Map::nodeIdx">
<polygon fill="none" stroke="#000000" points="1060,-405.9874 1060,-424.9874 1142,-424.9874 1142,-405.9874 1060,-405.9874"/>
<text text-anchor="middle" x="1101" y="-412.9874" font-family="Helvetica,sans-Serif" font-size="10.00" fill="#000000">Map::nodeIdx</text>
</a>
</g>
</g>
<!-- Node8&#45;&gt;Node9 -->
<g id="edge3" class="edge">
<title>Node8&#45;&gt;Node9</title>
<path fill="none" stroke="#191970" d="M383.8025,-178.2148C396.8775,-199.5297 430.5224,-251.1105 469,-284.4874 526.7589,-334.5896 547.4414,-341.0288 618,-370.4874 768.517,-433.3291 818.0056,-430.5911 981,-424.4874 1003.6061,-423.6409 1028.5574,-421.9003 1049.8257,-420.1734"/>
<polygon fill="#191970" stroke="#191970" points="1050.2692,-423.6487 1059.9442,-419.3308 1049.6882,-416.6729 1050.2692,-423.6487"/>
</g>
<!-- Node10 -->
<g id="node5" class="node">
<title>Node10</title>
<g id="a_node5"><a xlink:href="classMap.html#ad360682917f0061dbba995d645c56212" target="_top" xlink:title="Map::getNeighborNodes">
<polygon fill="none" stroke="#000000" points="831,-367.9874 831,-386.9874 965,-386.9874 965,-367.9874 831,-367.9874"/>
<text text-anchor="middle" x="898" y="-374.9874" font-family="Helvetica,sans-Serif" font-size="10.00" fill="#000000">Map::getNeighborNodes</text>
</a>
</g>
</g>
<!-- Node8&#45;&gt;Node10 -->
<g id="edge4" class="edge">
<title>Node8&#45;&gt;Node10</title>
<path fill="none" stroke="#191970" d="M389.629,-178.084C422.924,-205.0426 522.3774,-281.995 618,-320.4874 683.7706,-346.963 763.3733,-361.6426 820.8649,-369.4452"/>
<polygon fill="#191970" stroke="#191970" points="820.602,-372.9408 830.9736,-370.7774 821.5166,-366.0008 820.602,-372.9408"/>
</g>
<!-- Node13 -->
<g id="node8" class="node">
<title>Node13</title>
<g id="a_node8"><a xlink:href="classMap.html#a9751d8dc0c6b2b127400b05994118aba" target="_top" xlink:title="Map::updateHeight">
<polygon fill="none" stroke="#000000" points="843.5,-13.9874 843.5,-32.9874 952.5,-32.9874 952.5,-13.9874 843.5,-13.9874"/>
<text text-anchor="middle" x="898" y="-20.9874" font-family="Helvetica,sans-Serif" font-size="10.00" fill="#000000">Map::updateHeight</text>
</a>
</g>
</g>
<!-- Node8&#45;&gt;Node13 -->
<g id="edge8" class="edge">
<title>Node8&#45;&gt;Node13</title>
<path fill="none" stroke="#191970" d="M381.8853,-158.6674C392.0034,-134.5933 421.712,-72.7668 469,-47.4874 588.6358,16.4679 754.7885,1.6694 840.9956,-12.2671"/>
<polygon fill="#191970" stroke="#191970" points="840.6636,-15.76 851.1039,-13.957 841.8179,-8.8559 840.6636,-15.76"/>
</g>
<!-- Node15 -->
<g id="node10" class="node">
<title>Node15</title>
<g id="a_node10"><a xlink:href="classMap.html#aa8cc2ed983007621bce12dd9d1b8ec5b" target="_top" xlink:title="Demolish a node This function gathers all tiles that should be demolished and invokes the nodes demol...">
<polygon fill="none" stroke="#000000" points="469,-196.9874 469,-215.9874 582,-215.9874 582,-196.9874 469,-196.9874"/>
<text text-anchor="middle" x="525.5" y="-203.9874" font-family="Helvetica,sans-Serif" font-size="10.00" fill="#000000">Map::demolishNode</text>
</a>
</g>
</g>
<!-- Node8&#45;&gt;Node15 -->
<g id="edge10" class="edge">
<title>Node8&#45;&gt;Node15</title>
<path fill="none" stroke="#191970" d="M415.2205,-178.0764C434.5093,-183.0457 458.2584,-189.1641 478.771,-194.4488"/>
<polygon fill="#191970" stroke="#191970" points="477.9902,-197.8618 488.5472,-196.9674 479.7366,-191.0831 477.9902,-197.8618"/>
</g>
<!-- Node20 -->
<g id="node15" class="node">
<title>Node20</title>
<g id="a_node15"><a xlink:href="classMap.html#af1e496c421981fe707890b0ba60cc20f" target="_top" xlink:title="Map::updateNodeNeighbors">
<polygon fill="none" stroke="#000000" points="622.5,-139.9874 622.5,-158.9874 774.5,-158.9874 774.5,-139.9874 622.5,-139.9874"/>
<text text-anchor="middle" x="698.5" y="-146.9874" font-family="Helvetica,sans-Serif" font-size="10.00" fill="#000000">Map::updateNodeNeighbors</text>
</a>
</g>
</g>
<!-- Node8&#45;&gt;Node20 -->
<g id="edge30" class="edge">
<title>Node8&#45;&gt;Node20</title>
<path fill="none" stroke="#191970" d="M433.0959,-165.2212C482.3124,-162.3035 555.2212,-157.9813 612.1754,-154.6049"/>
<polygon fill="#191970" stroke="#191970" points="612.4777,-158.0933 622.2531,-154.0075 612.0634,-151.1055 612.4777,-158.0933"/>
</g>
<!-- Node21 -->
<g id="node16" class="node">
<title>Node21</title>
<g id="a_node16"><a xlink:href="classMapNode.html#a67296a58e167356efbabeaac3226b5d3" target="_top" xlink:title="get iso coordinates of this node gets the iso coordinates of this node ">
<polygon fill="none" stroke="#000000" points="1029.5,-95.9874 1029.5,-114.9874 1172.5,-114.9874 1172.5,-95.9874 1029.5,-95.9874"/>
<text text-anchor="middle" x="1101" y="-102.9874" font-family="Helvetica,sans-Serif" font-size="10.00" fill="#000000">MapNode::getCoordinates</text>
</a>
</g>
</g>
<!-- Node8&#45;&gt;Node21 -->
<g id="edge29" class="edge">
<title>Node8&#45;&gt;Node21</title>
<path fill="none" stroke="#191970" d="M407.3804,-158.9723C494.5529,-131.8704 759.4719,-57.6567 981,-80.4874 1005.7821,-83.0415 1032.9936,-88.4878 1055.2299,-93.6469"/>
<polygon fill="#191970" stroke="#191970" points="1054.5316,-97.0784 1065.0699,-95.9857 1056.1503,-90.2681 1054.5316,-97.0784"/>
</g>
<!-- Node10&#45;&gt;Node9 -->
<g id="edge7" class="edge">
<title>Node10&#45;&gt;Node9</title>
<path fill="none" stroke="#191970" d="M948.9634,-387.0274C979.7748,-392.795 1018.9275,-400.1241 1049.7842,-405.9002"/>
<polygon fill="#191970" stroke="#191970" points="1049.4333,-409.3952 1059.9066,-407.795 1050.7213,-402.5148 1049.4333,-409.3952"/>
</g>
<!-- Node11 -->
<g id="node6" class="node">
<title>Node11</title>
<g id="a_node6"><a xlink:href="isoMath_8cxx.html#a7fa61c3d8ef446fb1c48dc4838023649" target="_top" xlink:title="Check if given coordinates are within map boundaries Checks if coordinates are within map boundaries...">
<polygon fill="none" stroke="#000000" points="1023,-329.9874 1023,-348.9874 1179,-348.9874 1179,-329.9874 1023,-329.9874"/>
<text text-anchor="middle" x="1101" y="-336.9874" font-family="Helvetica,sans-Serif" font-size="10.00" fill="#000000">isPointWithinMapBoundaries</text>
</a>
</g>
</g>
<!-- Node10&#45;&gt;Node11 -->
<g id="edge5" class="edge">
<title>Node10&#45;&gt;Node11</title>
<path fill="none" stroke="#191970" d="M948.9634,-367.9475C976.5941,-362.7752 1010.9328,-356.3473 1039.9811,-350.9097"/>
<polygon fill="#191970" stroke="#191970" points="1040.8303,-354.3116 1050.0156,-349.0313 1039.5423,-347.4311 1040.8303,-354.3116"/>
</g>
<!-- Node12 -->
<g id="node7" class="node">
<title>Node12</title>
<g id="a_node7"><a xlink:href="classSingleton.html#af5cb1e5749949e2b68416cfb8d378044" target="_top" xlink:title="Get an instance of the singleton. ">
<polygon fill="none" stroke="#000000" points="1234.5,-286.4874 1234.5,-316.4874 1347.5,-316.4874 1347.5,-286.4874 1234.5,-286.4874"/>
<text text-anchor="start" x="1242.5" y="-304.4874" font-family="Helvetica,sans-Serif" font-size="10.00" fill="#000000">Singleton&lt; Settings</text>
<text text-anchor="middle" x="1291" y="-293.4874" font-family="Helvetica,sans-Serif" font-size="10.00" fill="#000000"> &gt;::instance</text>
</a>
</g>
</g>
<!-- Node11&#45;&gt;Node12 -->
<g id="edge6" class="edge">
<title>Node11&#45;&gt;Node12</title>
<path fill="none" stroke="#191970" d="M1148.945,-329.8984C1171.7476,-325.3379 1199.3891,-319.8096 1224.2063,-314.8461"/>
<polygon fill="#191970" stroke="#191970" points="1225.1639,-318.224 1234.2832,-312.8308 1223.791,-311.36 1225.1639,-318.224"/>
</g>
<!-- Node14 -->
<g id="node9" class="node">
<title>Node14</title>
<g id="a_node9"><a xlink:href="classMapNode.html#a10dded7848621ba007c3d3fc85392e32" target="_top" xlink:title="Change Height Increases or decrease the height of the node and its sprite This function should not be...">
<polygon fill="none" stroke="#000000" points="1033,-13.9874 1033,-32.9874 1169,-32.9874 1169,-13.9874 1033,-13.9874"/>
<text text-anchor="middle" x="1101" y="-20.9874" font-family="Helvetica,sans-Serif" font-size="10.00" fill="#000000">MapNode::changeHeight</text>
</a>
</g>
</g>
<!-- Node13&#45;&gt;Node14 -->
<g id="edge9" class="edge">
<title>Node13&#45;&gt;Node14</title>
<path fill="none" stroke="#191970" d="M952.6673,-23.4874C974.1492,-23.4874 999.2159,-23.4874 1022.5634,-23.4874"/>
<polygon fill="#191970" stroke="#191970" points="1022.7984,-26.9875 1032.7984,-23.4874 1022.7983,-19.9875 1022.7984,-26.9875"/>
</g>
<!-- Node15&#45;&gt;Node9 -->
<g id="edge12" class="edge">
<title>Node15&#45;&gt;Node9</title>
<path fill="none" stroke="#191970" d="M530.9237,-216.1628C543.5049,-237.7926 576.7711,-290.5109 618,-320.4874 750.4155,-416.7634 955.122,-422.1475 1049.7773,-418.7591"/>
<polygon fill="#191970" stroke="#191970" points="1050.0994,-422.249 1059.9488,-418.3454 1049.8148,-415.2548 1050.0994,-422.249"/>
</g>
<!-- Node15&#45;&gt;Node11 -->
<g id="edge11" class="edge">
<title>Node15&#45;&gt;Node11</title>
<path fill="none" stroke="#191970" d="M534.1263,-216.2089C549.3257,-232.6739 582.6335,-265.8734 618,-282.4874 745.6381,-342.4475 912.3109,-348.4324 1012.7601,-345.3483"/>
<polygon fill="#191970" stroke="#191970" points="1012.9972,-348.8423 1022.8708,-345.0003 1012.7563,-341.8465 1012.9972,-348.8423"/>
</g>
<!-- Node16 -->
<g id="node11" class="node">
<title>Node16</title>
<g id="a_node11"><a xlink:href="classMapNode.html#a6b57e4355d0780fb37c34d63bbcdfdf9" target="_top" xlink:title="MapNode::getMapNodeDataFor\lLayer">
<polygon fill="none" stroke="#000000" points="1017,-204.4874 1017,-234.4874 1185,-234.4874 1185,-204.4874 1017,-204.4874"/>
<text text-anchor="start" x="1025" y="-222.4874" font-family="Helvetica,sans-Serif" font-size="10.00" fill="#000000">MapNode::getMapNodeDataFor</text>
<text text-anchor="middle" x="1101" y="-211.4874" font-family="Helvetica,sans-Serif" font-size="10.00" fill="#000000">Layer</text>
</a>
</g>
</g>
<!-- Node15&#45;&gt;Node16 -->
<g id="edge13" class="edge">
<title>Node15&#45;&gt;Node16</title>
<path fill="none" stroke="#191970" d="M582.2562,-207.7695C681.1761,-210.004 886.1003,-214.633 1006.6667,-217.3565"/>
<polygon fill="#191970" stroke="#191970" points="1006.9124,-220.8629 1016.9889,-217.5897 1007.0706,-213.8646 1006.9124,-220.8629"/>
</g>
<!-- Node17 -->
<g id="node12" class="node">
<title>Node17</title>
<g id="a_node12"><a xlink:href="classMapNode.html#ad74bb8fd5b519f5e909f0e807960a918" target="_top" xlink:title="MapNode::getOrigCornerPoint">
<polygon fill="none" stroke="#000000" points="618,-177.9874 618,-196.9874 779,-196.9874 779,-177.9874 618,-177.9874"/>
<text text-anchor="middle" x="698.5" y="-184.9874" font-family="Helvetica,sans-Serif" font-size="10.00" fill="#000000">MapNode::getOrigCornerPoint</text>
</a>
</g>
</g>
<!-- Node15&#45;&gt;Node17 -->
<g id="edge14" class="edge">
<title>Node15&#45;&gt;Node17</title>
<path fill="none" stroke="#191970" d="M582.1467,-200.2661C590.3627,-199.3638 598.9883,-198.4164 607.6722,-197.4627"/>
<polygon fill="#191970" stroke="#191970" points="608.314,-200.9134 617.8721,-196.3425 607.5498,-193.9552 608.314,-200.9134"/>
</g>
<!-- Node18 -->
<g id="node13" class="node">
<title>Node18</title>
<g id="a_node13"><a xlink:href="classMap.html#a3952b445c55efce61c1ccac6f362fe89" target="_top" xlink:title="Return vector of Points of an Object Tiles selection. ">
<polygon fill="none" stroke="#000000" points="636.5,-253.9874 636.5,-272.9874 760.5,-272.9874 760.5,-253.9874 636.5,-253.9874"/>
<text text-anchor="middle" x="698.5" y="-260.9874" font-family="Helvetica,sans-Serif" font-size="10.00" fill="#000000">Map::getObjectCoords</text>
</a>
</g>
</g>
<!-- Node15&#45;&gt;Node18 -->
<g id="edge15" class="edge">
<title>Node15&#45;&gt;Node18</title>
<path fill="none" stroke="#191970" d="M551.2907,-216.1016C569.7757,-222.8909 595.313,-232.0644 618,-239.4874 630.0197,-243.4202 643.1334,-247.4425 655.2207,-251.0424"/>
<polygon fill="#191970" stroke="#191970" points="654.5042,-254.4802 665.086,-253.9557 656.4868,-247.7668 654.5042,-254.4802"/>
</g>
<!-- Node15&#45;&gt;Node20 -->
<g id="edge18" class="edge">
<title>Node15&#45;&gt;Node20</title>
<path fill="none" stroke="#191970" d="M534.512,-196.9034C549.3851,-186.6345 580.3282,-172.4197 612.5734,-161.3622"/>
<polygon fill="#191970" stroke="#191970" points="613.7568,-164.6573 622.1463,-158.1868 611.5528,-158.0132 613.7568,-164.6573"/>
</g>
<!-- Node18&#45;&gt;Node12 -->
<g id="edge16" class="edge">
<title>Node18&#45;&gt;Node12</title>
<path fill="none" stroke="#191970" d="M760.5093,-267.4644C872.709,-274.6603 1108.4847,-289.7818 1224.1416,-297.1994"/>
<polygon fill="#191970" stroke="#191970" points="1224.075,-300.7023 1234.2786,-297.8496 1224.5231,-293.7166 1224.075,-300.7023"/>
</g>
<!-- Node19 -->
<g id="node14" class="node">
<title>Node19</title>
<g id="a_node14"><a xlink:href="classTileManager.html#a8ee071ff8b24926288437d310f9bc714" target="_top" xlink:title="TileManager::getTileData">
<polygon fill="none" stroke="#000000" points="828,-291.9874 828,-310.9874 968,-310.9874 968,-291.9874 828,-291.9874"/>
<text text-anchor="middle" x="898" y="-298.9874" font-family="Helvetica,sans-Serif" font-size="10.00" fill="#000000">TileManager::getTileData</text>
</a>
</g>
</g>
<!-- Node18&#45;&gt;Node19 -->
<g id="edge17" class="edge">
<title>Node18&#45;&gt;Node19</title>
<path fill="none" stroke="#191970" d="M748.5848,-273.0274C775.739,-278.1996 809.4857,-284.6275 838.0332,-290.0652"/>
<polygon fill="#191970" stroke="#191970" points="837.4163,-293.5105 847.8946,-291.9435 838.7262,-286.6341 837.4163,-293.5105"/>
</g>
<!-- Node20&#45;&gt;Node10 -->
<g id="edge19" class="edge">
<title>Node20&#45;&gt;Node10</title>
<path fill="none" stroke="#191970" d="M766.1899,-159.1664C770.8881,-161.6651 775.2416,-164.7319 779,-168.4874 828.1095,-217.5589 775.7548,-263.2199 815,-320.4874 827.8746,-339.2744 849.1432,-353.7027 866.9268,-363.3426"/>
<polygon fill="#191970" stroke="#191970" points="865.3543,-366.4697 875.8459,-367.945 868.5643,-360.249 865.3543,-366.4697"/>
</g>
<!-- Node20&#45;&gt;Node13 -->
<g id="edge20" class="edge">
<title>Node20&#45;&gt;Node13</title>
<path fill="none" stroke="#191970" d="M713.8232,-139.8096C748.432,-117.9514 832.8469,-64.6367 874.2757,-38.4712"/>
<polygon fill="#191970" stroke="#191970" points="876.3118,-41.3249 882.8977,-33.0257 872.5738,-35.4065 876.3118,-41.3249"/>
</g>
<!-- Node20&#45;&gt;Node15 -->
<g id="edge24" class="edge">
<title>Node20&#45;&gt;Node15</title>
<path fill="none" stroke="#191970" d="M683.1704,-159.0309C666.827,-164.584 640.285,-170.3296 618,-177.4874 603.6296,-182.1031 588.3517,-187.9663 574.44,-193.3449"/>
<polygon fill="#191970" stroke="#191970" points="573.1223,-190.1018 565.0551,-196.9698 575.6445,-196.6316 573.1223,-190.1018"/>
</g>
<!-- Node20&#45;&gt;Node21 -->
<g id="edge21" class="edge">
<title>Node20&#45;&gt;Node21</title>
<path fill="none" stroke="#191970" d="M774.605,-146.7151C831.6181,-144.0048 911.4424,-138.8669 981,-129.4874 1003.9026,-126.3991 1029.0072,-121.6023 1050.3077,-117.1065"/>
<polygon fill="#191970" stroke="#191970" points="1051.0749,-120.5216 1060.1178,-115.0011 1049.606,-113.6775 1051.0749,-120.5216"/>
</g>
<!-- Node22 -->
<g id="node17" class="node">
<title>Node22</title>
<g id="a_node17"><a xlink:href="classMap.html#a769a53961d4a0dd34ee080d2da8c171e" target="_top" xlink:title="Map::getElevatedNeighbor\lBitmask">
<polygon fill="none" stroke="#000000" points="825,-90.4874 825,-120.4874 971,-120.4874 971,-90.4874 825,-90.4874"/>
<text text-anchor="start" x="833" y="-108.4874" font-family="Helvetica,sans-Serif" font-size="10.00" fill="#000000">Map::getElevatedNeighbor</text>
<text text-anchor="middle" x="898" y="-97.4874" font-family="Helvetica,sans-Serif" font-size="10.00" fill="#000000">Bitmask</text>
</a>
</g>
</g>
<!-- Node20&#45;&gt;Node22 -->
<g id="edge22" class="edge">
<title>Node20&#45;&gt;Node22</title>
<path fill="none" stroke="#191970" d="M741.7885,-139.9401C764.5507,-134.9198 793.1615,-128.6097 819.6576,-122.7659"/>
<polygon fill="#191970" stroke="#191970" points="820.6808,-126.1245 829.6923,-120.5528 819.1731,-119.2887 820.6808,-126.1245"/>
</g>
<!-- Node23 -->
<g id="node18" class="node">
<title>Node23</title>
<g id="a_node18"><a xlink:href="classMap.html#af192be95053d30ea6c6d9327106bf6d8" target="_top" xlink:title="Get a bitmask that represents same&#45;tile neighbors Checks all neighboring tiles and returns the elevat...">
<polygon fill="none" stroke="#000000" points="815,-177.9874 815,-196.9874 981,-196.9874 981,-177.9874 815,-177.9874"/>
<text text-anchor="middle" x="898" y="-184.9874" font-family="Helvetica,sans-Serif" font-size="10.00" fill="#000000">Map::calculateAutotileBitmask</text>
</a>
</g>
</g>
<!-- Node20&#45;&gt;Node23 -->
<g id="edge25" class="edge">
<title>Node20&#45;&gt;Node23</title>
<path fill="none" stroke="#191970" d="M748.5848,-159.0274C775.739,-164.1996 809.4857,-170.6275 838.0332,-176.0652"/>
<polygon fill="#191970" stroke="#191970" points="837.4163,-179.5105 847.8946,-177.9435 838.7262,-172.6341 837.4163,-179.5105"/>
</g>
<!-- Node22&#45;&gt;Node21 -->
<g id="edge23" class="edge">
<title>Node22&#45;&gt;Node21</title>
<path fill="none" stroke="#191970" d="M971.0009,-105.4874C986.5725,-105.4874 1003.118,-105.4874 1019.0014,-105.4874"/>
<polygon fill="#191970" stroke="#191970" points="1019.3266,-108.9875 1029.3266,-105.4874 1019.3266,-101.9875 1019.3266,-108.9875"/>
</g>
<!-- Node23&#45;&gt;Node16 -->
<g id="edge26" class="edge">
<title>Node23&#45;&gt;Node16</title>
<path fill="none" stroke="#191970" d="M958.3571,-197.0018C973.5524,-199.3971 990.2285,-202.0259 1006.6536,-204.6151"/>
<polygon fill="#191970" stroke="#191970" points="1006.4096,-208.1198 1016.8327,-206.2197 1007.4997,-201.2051 1006.4096,-208.1198"/>
</g>
<!-- Node24 -->
<g id="node19" class="node">
<title>Node24</title>
<g id="a_node19"><a xlink:href="classMapNode.html#afb1cbc0f9e987b7befced46220dd9277" target="_top" xlink:title="check if specific layer can be autotiled. ">
<polygon fill="none" stroke="#000000" points="1029,-165.9874 1029,-184.9874 1173,-184.9874 1173,-165.9874 1029,-165.9874"/>
<text text-anchor="middle" x="1101" y="-172.9874" font-family="Helvetica,sans-Serif" font-size="10.00" fill="#000000">MapNode::isLayerAutoTile</text>
</a>
</g>
</g>
<!-- Node23&#45;&gt;Node24 -->
<g id="edge27" class="edge">
<title>Node23&#45;&gt;Node24</title>
<path fill="none" stroke="#191970" d="M981.1536,-182.5719C993.4717,-181.8438 1006.1628,-181.0936 1018.4681,-180.3661"/>
<polygon fill="#191970" stroke="#191970" points="1018.9213,-183.8456 1028.6973,-179.7615 1018.5081,-176.8578 1018.9213,-183.8456"/>
</g>
<!-- Node25 -->
<g id="node20" class="node">
<title>Node25</title>
<g id="a_node20"><a xlink:href="classMapNode.html#a64cb9a4523c9e78f256fde42f1dee43d" target="_top" xlink:title="check if specific Tile Data is autotile category. ">
<polygon fill="none" stroke="#000000" points="1221,-165.9874 1221,-184.9874 1361,-184.9874 1361,-165.9874 1221,-165.9874"/>
<text text-anchor="middle" x="1291" y="-172.9874" font-family="Helvetica,sans-Serif" font-size="10.00" fill="#000000">MapNode::isDataAutoTile</text>
</a>
</g>
</g>
<!-- Node24&#45;&gt;Node25 -->
<g id="edge28" class="edge">
<title>Node24&#45;&gt;Node25</title>
<path fill="none" stroke="#191970" d="M1173.1018,-175.4874C1185.3221,-175.4874 1198.0799,-175.4874 1210.4991,-175.4874"/>
<polygon fill="#191970" stroke="#191970" points="1210.8325,-178.9875 1220.8324,-175.4874 1210.8324,-171.9875 1210.8325,-178.9875"/>
</g>
</g>
</svg>
