<?xml version="1.0" encoding="UTF-8" standalone="no"?>
<!DOCTYPE svg PUBLIC "-//W3C//DTD SVG 1.1//EN"
 "http://www.w3.org/Graphics/SVG/1.1/DTD/svg11.dtd">
<!-- Generated by graphviz version 2.40.1 (20161225.0304)
 -->
<!-- Title: TerrainGenerator::loadTerrainDataFromJSON Pages: 1 -->
<svg width="1451pt" height="132pt"
 viewBox="0.00 0.00 1451.00 131.91" xmlns="http://www.w3.org/2000/svg" xmlns:xlink="http://www.w3.org/1999/xlink">
<g id="graph0" class="graph" transform="scale(1 1) rotate(0) translate(4 127.9066)">
<title>TerrainGenerator::loadTerrainDataFromJSON</title>
<!-- Node22 -->
<g id="node1" class="node">
<title>Node22</title>
<polygon fill="#bfbfbf" stroke="#000000" points="0,-22.9066 0,-52.9066 158,-52.9066 158,-22.9066 0,-22.9066"/>
<text text-anchor="start" x="8" y="-40.9066" font-family="Helvetica,sans-Serif" font-size="10.00" fill="#000000">TerrainGenerator::loadTerrain</text>
<text text-anchor="middle" x="79" y="-29.9066" font-family="Helvetica,sans-Serif" font-size="10.00" fill="#000000">DataFromJSON</text>
</g>
<!-- Node23 -->
<g id="node2" class="node">
<title>Node23</title>
<g id="a_node2"><a xlink:href="classTerrainGenerator.html#afd2668a80a6f5043d2b8d6c7a5044ede" target="_top" xlink:title="TerrainGenerator::generate\lTerrain">
<polygon fill="none" stroke="#000000" points="194,-22.9066 194,-52.9066 342,-52.9066 342,-22.9066 194,-22.9066"/>
<text text-anchor="start" x="202" y="-40.9066" font-family="Helvetica,sans-Serif" font-size="10.00" fill="#000000">TerrainGenerator::generate</text>
<text text-anchor="middle" x="268" y="-29.9066" font-family="Helvetica,sans-Serif" font-size="10.00" fill="#000000">Terrain</text>
</a>
</g>
</g>
<!-- Node22&#45;&gt;Node23 -->
<g id="edge1" class="edge">
<title>Node22&#45;&gt;Node23</title>
<path fill="none" stroke="#191970" d="M168.1054,-37.9066C176.7024,-37.9066 185.359,-37.9066 193.7896,-37.9066"/>
<polygon fill="#191970" stroke="#191970" points="168.058,-34.4067 158.0579,-37.9066 168.0579,-41.4067 168.058,-34.4067"/>
</g>
<!-- Node24 -->
<g id="node3" class="node">
<title>Node24</title>
<g id="a_node3"><a xlink:href="classMap.html#a26eceeccd7b6ed693909b1927a25c67a" target="_top" xlink:title="Map::Map">
<polygon fill="none" stroke="#000000" points="378,-28.4066 378,-47.4066 441,-47.4066 441,-28.4066 378,-28.4066"/>
<text text-anchor="middle" x="409.5" y="-35.4066" font-family="Helvetica,sans-Serif" font-size="10.00" fill="#000000">Map::Map</text>
</a>
</g>
</g>
<!-- Node23&#45;&gt;Node24 -->
<g id="edge2" class="edge">
<title>Node23&#45;&gt;Node24</title>
<path fill="none" stroke="#191970" d="M352.3136,-37.9066C361.3052,-37.9066 369.9931,-37.9066 377.7667,-37.9066"/>
<polygon fill="#191970" stroke="#191970" points="352.0654,-34.4067 342.0653,-37.9066 352.0653,-41.4067 352.0654,-34.4067"/>
</g>
<!-- Node25 -->
<g id="node4" class="node">
<title>Node25</title>
<g id="a_node4"><a xlink:href="classMap.html#afefe996cc1f62b61ec60d0ae415953bf" target="_top" xlink:title="Map::loadMapFromFile">
<polygon fill="none" stroke="#000000" points="477,-28.4066 477,-47.4066 602,-47.4066 602,-28.4066 477,-28.4066"/>
<text text-anchor="middle" x="539.5" y="-35.4066" font-family="Helvetica,sans-Serif" font-size="10.00" fill="#000000">Map::loadMapFromFile</text>
</a>
</g>
</g>
<!-- Node24&#45;&gt;Node25 -->
<g id="edge3" class="edge">
<title>Node24&#45;&gt;Node25</title>
<path fill="none" stroke="#191970" d="M451.5382,-37.9066C459.5999,-37.9066 468.2024,-37.9066 476.7528,-37.9066"/>
<polygon fill="#191970" stroke="#191970" points="451.3016,-34.4067 441.3016,-37.9066 451.3015,-41.4067 451.3016,-34.4067"/>
</g>
<!-- Node26 -->
<g id="node5" class="node">
<title>Node26</title>
<g id="a_node5"><a xlink:href="classEngine.html#a83b7dbeee899b36a13d5b07c7ad87ebc" target="_top" xlink:title="Loads a saved game Loads a saved Game. ">
<polygon fill="none" stroke="#000000" points="638,-28.4066 638,-47.4066 744,-47.4066 744,-28.4066 638,-28.4066"/>
<text text-anchor="middle" x="691" y="-35.4066" font-family="Helvetica,sans-Serif" font-size="10.00" fill="#000000">Engine::loadGame</text>
</a>
</g>
</g>
<!-- Node25&#45;&gt;Node26 -->
<g id="edge4" class="edge">
<title>Node25&#45;&gt;Node26</title>
<path fill="none" stroke="#191970" d="M612.6629,-37.9066C621.0896,-37.9066 629.559,-37.9066 637.6534,-37.9066"/>
<polygon fill="#191970" stroke="#191970" points="612.4335,-34.4067 602.4335,-37.9066 612.4334,-41.4067 612.4335,-34.4067"/>
</g>
<!-- Node27 -->
<g id="node6" class="node">
<title>Node27</title>
<g id="a_node6"><a xlink:href="classEngine.html#a0ba57971ffb5173ecc425461f65a4cd8" target="_top" xlink:title="Quits the game Sets m_running to false and quitting the game. ">
<polygon fill="none" stroke="#000000" points="780,-66.4066 780,-85.4066 884,-85.4066 884,-66.4066 780,-66.4066"/>
<text text-anchor="middle" x="832" y="-73.4066" font-family="Helvetica,sans-Serif" font-size="10.00" fill="#000000">Engine::quitGame</text>
</a>
</g>
</g>
<!-- Node26&#45;&gt;Node27 -->
<g id="edge5" class="edge">
<title>Node26&#45;&gt;Node27</title>
<path fill="none" stroke="#191970" d="M736.4398,-50.1528C755.875,-55.3906 778.2311,-61.4157 796.4311,-66.3207"/>
<polygon fill="#191970" stroke="#191970" points="737.1465,-46.7184 726.5803,-47.4956 735.325,-53.4773 737.1465,-46.7184"/>
</g>
<!-- Node32 -->
<g id="node11" class="node">
<title>Node32</title>
<g id="a_node11"><a xlink:href="classUIManager.html#aa78e356fc3b356d790c848319d1c387e" target="_top" xlink:title="UIManager::setCallbackFunctions">
<polygon fill="none" stroke="#000000" points="920,-28.4066 920,-47.4066 1098,-47.4066 1098,-28.4066 920,-28.4066"/>
<text text-anchor="middle" x="1009" y="-35.4066" font-family="Helvetica,sans-Serif" font-size="10.00" fill="#000000">UIManager::setCallbackFunctions</text>
</a>
</g>
</g>
<!-- Node26&#45;&gt;Node32 -->
<g id="edge14" class="edge">
<title>Node26&#45;&gt;Node32</title>
<path fill="none" stroke="#191970" d="M754.3498,-37.9066C801.7184,-37.9066 867.1124,-37.9066 919.7707,-37.9066"/>
<polygon fill="#191970" stroke="#191970" points="754.2261,-34.4067 744.2261,-37.9066 754.226,-41.4067 754.2261,-34.4067"/>
</g>
<!-- Node34 -->
<g id="node13" class="node">
<title>Node34</title>
<g id="a_node13"><a xlink:href="classGame.html#a560299f0291c281f7b44e7ef0dd7b264" target="_top" xlink:title="initializes and displays the main menu initializes and displays the main menu ">
<polygon fill="none" stroke="#000000" points="1134,-66.4066 1134,-85.4066 1237,-85.4066 1237,-66.4066 1134,-66.4066"/>
<text text-anchor="middle" x="1185.5" y="-73.4066" font-family="Helvetica,sans-Serif" font-size="10.00" fill="#000000">Game::mainMenu</text>
</a>
</g>
</g>
<!-- Node26&#45;&gt;Node34 -->
<g id="edge15" class="edge">
<title>Node26&#45;&gt;Node34</title>
<path fill="none" stroke="#191970" d="M737.1831,-26.0602C813.9308,-8.4934 971.7778,18.5797 1098,-18.9066 1129.2834,-28.1973 1159.8332,-52.6029 1175.215,-66.2749"/>
<polygon fill="#191970" stroke="#191970" points="736.2857,-22.6756 727.3463,-28.3621 737.8808,-29.4914 736.2857,-22.6756"/>
</g>
<!-- Node28 -->
<g id="node7" class="node">
<title>Node28</title>
<g id="a_node7"><a xlink:href="classEventManager.html#a65ec91fd5016d4f9c4167fb8babed2df" target="_top" xlink:title="EventManager::checkEvents">
<polygon fill="none" stroke="#000000" points="932,-104.4066 932,-123.4066 1086,-123.4066 1086,-104.4066 932,-104.4066"/>
<text text-anchor="middle" x="1009" y="-111.4066" font-family="Helvetica,sans-Serif" font-size="10.00" fill="#000000">EventManager::checkEvents</text>
</a>
</g>
</g>
<!-- Node27&#45;&gt;Node28 -->
<g id="edge6" class="edge">
<title>Node27&#45;&gt;Node28</title>
<path fill="none" stroke="#191970" d="M886.3541,-87.6628C897.4832,-90.0641 909.119,-92.5705 920,-94.9066 934.3662,-97.991 950.0401,-101.3418 964.1756,-104.3585"/>
<polygon fill="#191970" stroke="#191970" points="886.8256,-84.184 876.3121,-85.495 885.3484,-91.0264 886.8256,-84.184"/>
</g>
<!-- Node27&#45;&gt;Node32 -->
<g id="edge10" class="edge">
<title>Node27&#45;&gt;Node32</title>
<path fill="none" stroke="#191970" d="M886.3541,-64.1504C897.4832,-61.7491 909.119,-59.2427 920,-56.9066 934.3662,-53.8222 950.0401,-50.4713 964.1756,-47.4547"/>
<polygon fill="#191970" stroke="#191970" points="885.3484,-60.7868 876.3121,-66.3182 886.8256,-67.6292 885.3484,-60.7868"/>
</g>
<!-- Node33 -->
<g id="node12" class="node">
<title>Node33</title>
<g id="a_node12"><a xlink:href="classGame.html#a8272be134d16c277bb014ad6a22fc357" target="_top" xlink:title="Game::quit">
<polygon fill="none" stroke="#000000" points="973.5,-66.4066 973.5,-85.4066 1044.5,-85.4066 1044.5,-66.4066 973.5,-66.4066"/>
<text text-anchor="middle" x="1009" y="-73.4066" font-family="Helvetica,sans-Serif" font-size="10.00" fill="#000000">Game::quit</text>
</a>
</g>
</g>
<!-- Node27&#45;&gt;Node33 -->
<g id="edge11" class="edge">
<title>Node27&#45;&gt;Node33</title>
<path fill="none" stroke="#191970" d="M894.4886,-75.9066C920.9691,-75.9066 950.8596,-75.9066 973.4608,-75.9066"/>
<polygon fill="#191970" stroke="#191970" points="894.1485,-72.4067 884.1485,-75.9066 894.1485,-79.4067 894.1485,-72.4067"/>
</g>
<!-- Node29 -->
<g id="node8" class="node">
<title>Node29</title>
<g id="a_node8"><a xlink:href="classGame.html#a1c2ab25d5216b2f4b2fe41efd2c09114" target="_top" xlink:title="begins the game starts running the game ">
<polygon fill="none" stroke="#000000" points="1151.5,-104.4066 1151.5,-123.4066 1219.5,-123.4066 1219.5,-104.4066 1151.5,-104.4066"/>
<text text-anchor="middle" x="1185.5" y="-111.4066" font-family="Helvetica,sans-Serif" font-size="10.00" fill="#000000">Game::run</text>
</a>
</g>
</g>
<!-- Node28&#45;&gt;Node29 -->
<g id="edge7" class="edge">
<title>Node28&#45;&gt;Node29</title>
<path fill="none" stroke="#191970" d="M1096.3664,-113.9066C1115.9355,-113.9066 1135.5625,-113.9066 1151.398,-113.9066"/>
<polygon fill="#191970" stroke="#191970" points="1096.1587,-110.4067 1086.1587,-113.9066 1096.1587,-117.4067 1096.1587,-110.4067"/>
</g>
<!-- Node30 -->
<g id="node9" class="node">
<title>Node30</title>
<g id="a_node9"><a xlink:href="main_8cxx.html#af582d708d899e67ead623eac34a22387" target="_top" xlink:title="protected_main">
<polygon fill="none" stroke="#000000" points="1273,-85.4066 1273,-104.4066 1366,-104.4066 1366,-85.4066 1273,-85.4066"/>
<text text-anchor="middle" x="1319.5" y="-92.4066" font-family="Helvetica,sans-Serif" font-size="10.00" fill="#000000">protected_main</text>
</a>
</g>
</g>
<!-- Node29&#45;&gt;Node30 -->
<g id="edge8" class="edge">
<title>Node29&#45;&gt;Node30</title>
<path fill="none" stroke="#191970" d="M1229.8611,-107.6166C1243.6278,-105.6646 1258.8396,-103.5077 1272.7626,-101.5335"/>
<polygon fill="#191970" stroke="#191970" points="1229.0702,-104.1936 1219.6606,-109.0629 1230.0529,-111.1243 1229.0702,-104.1936"/>
</g>
<!-- Node31 -->
<g id="node10" class="node">
<title>Node31</title>
<g id="a_node10"><a xlink:href="main_8cxx.html#a3c04138a5bfe5d72780bb7e82a18e627" target="_top" xlink:title="main">
<polygon fill="none" stroke="#000000" points="1402,-85.4066 1402,-104.4066 1443,-104.4066 1443,-85.4066 1402,-85.4066"/>
<text text-anchor="middle" x="1422.5" y="-92.4066" font-family="Helvetica,sans-Serif" font-size="10.00" fill="#000000">main</text>
</a>
</g>
</g>
<!-- Node30&#45;&gt;Node31 -->
<g id="edge9" class="edge">
<title>Node30&#45;&gt;Node31</title>
<path fill="none" stroke="#191970" d="M1376.2133,-94.9066C1385.4322,-94.9066 1394.4259,-94.9066 1401.9965,-94.9066"/>
<polygon fill="#191970" stroke="#191970" points="1376.1782,-91.4067 1366.1782,-94.9066 1376.1781,-98.4067 1376.1782,-91.4067"/>
</g>
<!-- Node33&#45;&gt;Node34 -->
<g id="edge12" class="edge">
<title>Node33&#45;&gt;Node34</title>
<path fill="none" stroke="#191970" d="M1055.0403,-75.9066C1079.1836,-75.9066 1108.8403,-75.9066 1133.7739,-75.9066"/>
<polygon fill="#191970" stroke="#191970" points="1054.7174,-72.4067 1044.7174,-75.9066 1054.7174,-79.4067 1054.7174,-72.4067"/>
</g>
<!-- Node34&#45;&gt;Node30 -->
<g id="edge13" class="edge">
<title>Node34&#45;&gt;Node30</title>
<path fill="none" stroke="#191970" d="M1247.2457,-84.6616C1255.7846,-85.8723 1264.438,-87.0993 1272.6465,-88.2632"/>
<polygon fill="#191970" stroke="#191970" points="1247.7003,-81.1911 1237.3079,-83.2525 1246.7175,-88.1218 1247.7003,-81.1911"/>
</g>
</g>
</svg>
