<?xml version="1.0" encoding="UTF-8" standalone="no"?>
<!DOCTYPE svg PUBLIC "-//W3C//DTD SVG 1.1//EN"
 "http://www.w3.org/Graphics/SVG/1.1/DTD/svg11.dtd">
<!-- Generated by graphviz version 2.40.1 (20161225.0304)
 -->
<!-- Title: MapNode::getActiveMapNodeData Pages: 1 -->
<svg width="869pt" height="28pt"
 viewBox="0.00 0.00 869.00 28.00" xmlns="http://www.w3.org/2000/svg" xmlns:xlink="http://www.w3.org/1999/xlink">
<g id="graph0" class="graph" transform="scale(1 1) rotate(0) translate(4 24)">
<title>MapNode::getActiveMapNodeData</title>
<!-- Node80 -->
<g id="node1" class="node">
<title>Node80</title>
<polygon fill="#bfbfbf" stroke="#000000" points="0,-.5 0,-19.5 184,-19.5 184,-.5 0,-.5"/>
<text text-anchor="middle" x="92" y="-7.5" font-family="Helvetica,sans-Serif" font-size="10.00" fill="#000000">MapNode::getActiveMapNodeData</text>
</g>
<!-- Node81 -->
<g id="node2" class="node">
<title>Node81</title>
<g id="a_node2"><a xlink:href="classMap.html#a0241b997090783e5d13667114731a592" target="_top" xlink:title="Debug MapNodeData to Console Used as Tile&#45;Inspector until we implement a GUI variant. ">
<polygon fill="none" stroke="#000000" points="220,-.5 220,-19.5 361,-19.5 361,-.5 220,-.5"/>
<text text-anchor="middle" x="290.5" y="-7.5" font-family="Helvetica,sans-Serif" font-size="10.00" fill="#000000">Map::getNodeInformation</text>
</a>
</g>
</g>
<!-- Node80&#45;&gt;Node81 -->
<g id="edge1" class="edge">
<title>Node80&#45;&gt;Node81</title>
<path fill="none" stroke="#191970" d="M194.3733,-10C202.9752,-10 211.5458,-10 219.8263,-10"/>
<polygon fill="#191970" stroke="#191970" points="194.2766,-6.5001 184.2766,-10 194.2766,-13.5001 194.2766,-6.5001"/>
</g>
<!-- Node82 -->
<g id="node3" class="node">
<title>Node82</title>
<g id="a_node3"><a xlink:href="classEventManager.html#a65ec91fd5016d4f9c4167fb8babed2df" target="_top" xlink:title="EventManager::checkEvents">
<polygon fill="none" stroke="#000000" points="397,-.5 397,-19.5 551,-19.5 551,-.5 397,-.5"/>
<text text-anchor="middle" x="474" y="-7.5" font-family="Helvetica,sans-Serif" font-size="10.00" fill="#000000">EventManager::checkEvents</text>
</a>
</g>
</g>
<!-- Node81&#45;&gt;Node82 -->
<g id="edge2" class="edge">
<title>Node81&#45;&gt;Node82</title>
<path fill="none" stroke="#191970" d="M371.4411,-10C379.9176,-10 388.5189,-10 396.9501,-10"/>
<polygon fill="#191970" stroke="#191970" points="371.1834,-6.5001 361.1834,-10 371.1834,-13.5001 371.1834,-6.5001"/>
</g>
<!-- Node83 -->
<g id="node4" class="node">
<title>Node83</title>
<g id="a_node4"><a xlink:href="classGame.html#a1c2ab25d5216b2f4b2fe41efd2c09114" target="_top" xlink:title="begins the game starts running the game ">
<polygon fill="none" stroke="#000000" points="587,-.5 587,-19.5 655,-19.5 655,-.5 587,-.5"/>
<text text-anchor="middle" x="621" y="-7.5" font-family="Helvetica,sans-Serif" font-size="10.00" fill="#000000">Game::run</text>
</a>
</g>
</g>
<!-- Node82&#45;&gt;Node83 -->
<g id="edge3" class="edge">
<title>Node82&#45;&gt;Node83</title>
<path fill="none" stroke="#191970" d="M561.5248,-10C570.4338,-10 579.0572,-10 586.845,-10"/>
<polygon fill="#191970" stroke="#191970" points="561.3744,-6.5001 551.3744,-10 561.3743,-13.5001 561.3744,-6.5001"/>
</g>
<!-- Node84 -->
<g id="node5" class="node">
<title>Node84</title>
<g id="a_node5"><a xlink:href="main_8cxx.html#af582d708d899e67ead623eac34a22387" target="_top" xlink:title="protected_main">
<polygon fill="none" stroke="#000000" points="691,-.5 691,-19.5 784,-19.5 784,-.5 691,-.5"/>
<text text-anchor="middle" x="737.5" y="-7.5" font-family="Helvetica,sans-Serif" font-size="10.00" fill="#000000">protected_main</text>
</a>
</g>
</g>
<!-- Node83&#45;&gt;Node84 -->
<g id="edge4" class="edge">
<title>Node83&#45;&gt;Node84</title>
<path fill="none" stroke="#191970" d="M665.2653,-10C673.5757,-10 682.2897,-10 690.6749,-10"/>
<polygon fill="#191970" stroke="#191970" points="665.0098,-6.5001 655.0098,-10 665.0098,-13.5001 665.0098,-6.5001"/>
</g>
<!-- Node85 -->
<g id="node6" class="node">
<title>Node85</title>
<g id="a_node6"><a xlink:href="main_8cxx.html#a3c04138a5bfe5d72780bb7e82a18e627" target="_top" xlink:title="main">
<polygon fill="none" stroke="#000000" points="820,-.5 820,-19.5 861,-19.5 861,-.5 820,-.5"/>
<text text-anchor="middle" x="840.5" y="-7.5" font-family="Helvetica,sans-Serif" font-size="10.00" fill="#000000">main</text>
</a>
</g>
</g>
<!-- Node84&#45;&gt;Node85 -->
<g id="edge5" class="edge">
<title>Node84&#45;&gt;Node85</title>
<path fill="none" stroke="#191970" d="M794.2133,-10C803.4322,-10 812.4259,-10 819.9965,-10"/>
<polygon fill="#191970" stroke="#191970" points="794.1782,-6.5001 784.1782,-10 794.1781,-13.5001 794.1782,-6.5001"/>
</g>
</g>
</svg>
