<?xml version="1.0" encoding="UTF-8" standalone="no"?>
<!DOCTYPE svg PUBLIC "-//W3C//DTD SVG 1.1//EN"
 "http://www.w3.org/Graphics/SVG/1.1/DTD/svg11.dtd">
<!-- Generated by graphviz version 2.40.1 (20161225.0304)
 -->
<!-- Title: Map::changeHeight Pages: 1 -->
<!--zoomable 436 -->
<svg id="main" version="1.1" xmlns="http://www.w3.org/2000/svg" xmlns:xlink="http://www.w3.org/1999/xlink" xml:space="preserve" onload="init(evt)">
<style type="text/css"><![CDATA[
.edge:hover path { stroke: red; }
.edge:hover polygon { stroke: red; fill: red; }
]]></style>
<script type="text/javascript"><![CDATA[
var edges = document.getElementsByTagName('g');
if (edges && edges.length) {
  for (var i=0;i<edges.length;i++) {
    if (edges[i].id.substr(0,4)=='edge') {
      edges[i].setAttribute('class','edge');
    }
  }
}
]]></script>
        <defs>
                <circle id="rim" cx="0" cy="0" r="7"/>
                <circle id="rim2" cx="0" cy="0" r="3.5"/>
                <g id="zoomPlus">
                        <use xlink:href="#rim" fill="#404040">
                                <set attributeName="fill" to="#808080" begin="zoomplus.mouseover" end="zoomplus.mouseout"/>
                        </use>
                        <path d="M-4,0h8M0,-4v8" fill="none" stroke="white" stroke-width="1.5" pointer-events="none"/>
                </g>
                <g id="zoomMin">
                        <use xlink:href="#rim" fill="#404040">
                                <set attributeName="fill" to="#808080" begin="zoomminus.mouseover" end="zoomminus.mouseout"/>
                        </use>
                        <path d="M-4,0h8" fill="none" stroke="white" stroke-width="1.5" pointer-events="none"/>
                </g>
                <g id="dirArrow">
                        <path fill="none" stroke="white" stroke-width="1.5" d="M0,-3.0v7 M-2.5,-0.5L0,-3.0L2.5,-0.5"/>
                </g>
               <g id="resetDef">
                       <use xlink:href="#rim2" fill="#404040">
                               <set attributeName="fill" to="#808080" begin="reset.mouseover" end="reset.mouseout"/>
                       </use>
               </g>
        </defs>

<script type="text/javascript">
var viewWidth = 1046;
var viewHeight = 436;
var sectionId = 'dynsection-7';
</script>
<script xlink:href="svgpan.js"/>
<svg id="graph" class="graph">
<g id="viewport">
<title>Map::changeHeight</title>
<!-- Node83 -->
<g id="node1" class="node">
<title>Node83</title>
<polygon fill="#bfbfbf" stroke="#000000" points="0,-158.9874 0,-177.9874 110,-177.9874 110,-158.9874 0,-158.9874"/>
<text text-anchor="middle" x="55" y="-165.9874" font-family="Helvetica,sans-Serif" font-size="10.00" fill="#000000">Map::changeHeight</text>
</g>
<!-- Node84 -->
<g id="node2" class="node">
<title>Node84</title>
<g id="a_node2"><a xlink:href="classMap.html#a1676db3d125b2c1764adfcb64d6332a2" target="_top" xlink:title="Map::nodeIdx">
<polygon fill="none" stroke="#000000" points="737,-405.9874 737,-424.9874 819,-424.9874 819,-405.9874 737,-405.9874"/>
<text text-anchor="middle" x="778" y="-412.9874" font-family="Helvetica,sans-Serif" font-size="10.00" fill="#000000">Map::nodeIdx</text>
</a>
</g>
</g>
<!-- Node83&#45;&gt;Node84 -->
<g id="edge1" class="edge">
<title>Node83&#45;&gt;Node84</title>
<path fill="none" stroke="#191970" d="M60.8025,-178.2148C73.8775,-199.5297 107.5224,-251.1105 146,-284.4874 203.7589,-334.5896 224.4414,-341.0288 295,-370.4874 445.517,-433.3291 495.0056,-430.5911 658,-424.4874 680.6061,-423.6409 705.5574,-421.9003 726.8257,-420.1734"/>
<polygon fill="#191970" stroke="#191970" points="727.2692,-423.6487 736.9442,-419.3308 726.6882,-416.6729 727.2692,-423.6487"/>
</g>
<!-- Node85 -->
<g id="node3" class="node">
<title>Node85</title>
<g id="a_node3"><a xlink:href="classMap.html#ad360682917f0061dbba995d645c56212" target="_top" xlink:title="Map::getNeighborNodes">
<polygon fill="none" stroke="#000000" points="508,-367.9874 508,-386.9874 642,-386.9874 642,-367.9874 508,-367.9874"/>
<text text-anchor="middle" x="575" y="-374.9874" font-family="Helvetica,sans-Serif" font-size="10.00" fill="#000000">Map::getNeighborNodes</text>
</a>
</g>
</g>
<!-- Node83&#45;&gt;Node85 -->
<g id="edge2" class="edge">
<title>Node83&#45;&gt;Node85</title>
<path fill="none" stroke="#191970" d="M66.629,-178.084C99.924,-205.0426 199.3774,-281.995 295,-320.4874 360.7706,-346.963 440.3733,-361.6426 497.8649,-369.4452"/>
<polygon fill="#191970" stroke="#191970" points="497.602,-372.9408 507.9736,-370.7774 498.5166,-366.0008 497.602,-372.9408"/>
</g>
<!-- Node88 -->
<g id="node6" class="node">
<title>Node88</title>
<g id="a_node6"><a xlink:href="classMap.html#a9751d8dc0c6b2b127400b05994118aba" target="_top" xlink:title="Map::updateHeight">
<polygon fill="none" stroke="#000000" points="520.5,-13.9874 520.5,-32.9874 629.5,-32.9874 629.5,-13.9874 520.5,-13.9874"/>
<text text-anchor="middle" x="575" y="-20.9874" font-family="Helvetica,sans-Serif" font-size="10.00" fill="#000000">Map::updateHeight</text>
</a>
</g>
</g>
<!-- Node83&#45;&gt;Node88 -->
<g id="edge6" class="edge">
<title>Node83&#45;&gt;Node88</title>
<path fill="none" stroke="#191970" d="M58.8853,-158.6674C69.0034,-134.5933 98.712,-72.7668 146,-47.4874 265.6358,16.4679 431.7885,1.6694 517.9956,-12.2671"/>
<polygon fill="#191970" stroke="#191970" points="517.6636,-15.76 528.1039,-13.957 518.8179,-8.8559 517.6636,-15.76"/>
</g>
<!-- Node90 -->
<g id="node8" class="node">
<title>Node90</title>
<g id="a_node8"><a xlink:href="classMap.html#aa8cc2ed983007621bce12dd9d1b8ec5b" target="_top" xlink:title="Demolish a node This function gathers all tiles that should be demolished and invokes the nodes demol...">
<polygon fill="none" stroke="#000000" points="146,-196.9874 146,-215.9874 259,-215.9874 259,-196.9874 146,-196.9874"/>
<text text-anchor="middle" x="202.5" y="-203.9874" font-family="Helvetica,sans-Serif" font-size="10.00" fill="#000000">Map::demolishNode</text>
</a>
</g>
</g>
<!-- Node83&#45;&gt;Node90 -->
<g id="edge8" class="edge">
<title>Node83&#45;&gt;Node90</title>
<path fill="none" stroke="#191970" d="M92.2205,-178.0764C111.5093,-183.0457 135.2584,-189.1641 155.771,-194.4488"/>
<polygon fill="#191970" stroke="#191970" points="154.9902,-197.8618 165.5472,-196.9674 156.7366,-191.0831 154.9902,-197.8618"/>
</g>
<!-- Node95 -->
<g id="node13" class="node">
<title>Node95</title>
<g id="a_node13"><a xlink:href="classMap.html#af1e496c421981fe707890b0ba60cc20f" target="_top" xlink:title="Map::updateNodeNeighbors">
<polygon fill="none" stroke="#000000" points="299.5,-139.9874 299.5,-158.9874 451.5,-158.9874 451.5,-139.9874 299.5,-139.9874"/>
<text text-anchor="middle" x="375.5" y="-146.9874" font-family="Helvetica,sans-Serif" font-size="10.00" fill="#000000">Map::updateNodeNeighbors</text>
</a>
</g>
</g>
<!-- Node83&#45;&gt;Node95 -->
<g id="edge28" class="edge">
<title>Node83&#45;&gt;Node95</title>
<path fill="none" stroke="#191970" d="M110.0959,-165.2212C159.3124,-162.3035 232.2212,-157.9813 289.1754,-154.6049"/>
<polygon fill="#191970" stroke="#191970" points="289.4777,-158.0933 299.2531,-154.0075 289.0634,-151.1055 289.4777,-158.0933"/>
</g>
<!-- Node96 -->
<g id="node14" class="node">
<title>Node96</title>
<g id="a_node14"><a xlink:href="classMapNode.html#a67296a58e167356efbabeaac3226b5d3" target="_top" xlink:title="get iso coordinates of this node gets the iso coordinates of this node ">
<polygon fill="none" stroke="#000000" points="706.5,-95.9874 706.5,-114.9874 849.5,-114.9874 849.5,-95.9874 706.5,-95.9874"/>
<text text-anchor="middle" x="778" y="-102.9874" font-family="Helvetica,sans-Serif" font-size="10.00" fill="#000000">MapNode::getCoordinates</text>
</a>
</g>
</g>
<!-- Node83&#45;&gt;Node96 -->
<g id="edge27" class="edge">
<title>Node83&#45;&gt;Node96</title>
<path fill="none" stroke="#191970" d="M84.3804,-158.9723C171.5529,-131.8704 436.4719,-57.6567 658,-80.4874 682.7821,-83.0415 709.9936,-88.4878 732.2299,-93.6469"/>
<polygon fill="#191970" stroke="#191970" points="731.5316,-97.0784 742.0699,-95.9857 733.1503,-90.2681 731.5316,-97.0784"/>
</g>
<!-- Node85&#45;&gt;Node84 -->
<g id="edge5" class="edge">
<title>Node85&#45;&gt;Node84</title>
<path fill="none" stroke="#191970" d="M625.9634,-387.0274C656.7748,-392.795 695.9275,-400.1241 726.7842,-405.9002"/>
<polygon fill="#191970" stroke="#191970" points="726.4333,-409.3952 736.9066,-407.795 727.7213,-402.5148 726.4333,-409.3952"/>
</g>
<!-- Node86 -->
<g id="node4" class="node">
<title>Node86</title>
<g id="a_node4"><a xlink:href="isoMath_8cxx.html#a7fa61c3d8ef446fb1c48dc4838023649" target="_top" xlink:title="Check if given coordinates are within map boundaries Checks if coordinates are within map boundaries...">
<polygon fill="none" stroke="#000000" points="700,-329.9874 700,-348.9874 856,-348.9874 856,-329.9874 700,-329.9874"/>
<text text-anchor="middle" x="778" y="-336.9874" font-family="Helvetica,sans-Serif" font-size="10.00" fill="#000000">isPointWithinMapBoundaries</text>
</a>
</g>
</g>
<!-- Node85&#45;&gt;Node86 -->
<g id="edge3" class="edge">
<title>Node85&#45;&gt;Node86</title>
<path fill="none" stroke="#191970" d="M625.9634,-367.9475C653.5941,-362.7752 687.9328,-356.3473 716.9811,-350.9097"/>
<polygon fill="#191970" stroke="#191970" points="717.8303,-354.3116 727.0156,-349.0313 716.5423,-347.4311 717.8303,-354.3116"/>
</g>
<!-- Node87 -->
<g id="node5" class="node">
<title>Node87</title>
<g id="a_node5"><a xlink:href="classSingleton.html#af5cb1e5749949e2b68416cfb8d378044" target="_top" xlink:title="Get an instance of the singleton. ">
<polygon fill="none" stroke="#000000" points="911.5,-286.4874 911.5,-316.4874 1024.5,-316.4874 1024.5,-286.4874 911.5,-286.4874"/>
<text text-anchor="start" x="919.5" y="-304.4874" font-family="Helvetica,sans-Serif" font-size="10.00" fill="#000000">Singleton&lt; Settings</text>
<text text-anchor="middle" x="968" y="-293.4874" font-family="Helvetica,sans-Serif" font-size="10.00" fill="#000000"> &gt;::instance</text>
</a>
</g>
</g>
<!-- Node86&#45;&gt;Node87 -->
<g id="edge4" class="edge">
<title>Node86&#45;&gt;Node87</title>
<path fill="none" stroke="#191970" d="M825.945,-329.8984C848.7476,-325.3379 876.3891,-319.8096 901.2063,-314.8461"/>
<polygon fill="#191970" stroke="#191970" points="902.1639,-318.224 911.2832,-312.8308 900.791,-311.36 902.1639,-318.224"/>
</g>
<!-- Node89 -->
<g id="node7" class="node">
<title>Node89</title>
<g id="a_node7"><a xlink:href="classMapNode.html#a10dded7848621ba007c3d3fc85392e32" target="_top" xlink:title="Change Height Increases or decrease the height of the node and its sprite This function should not be...">
<polygon fill="none" stroke="#000000" points="710,-13.9874 710,-32.9874 846,-32.9874 846,-13.9874 710,-13.9874"/>
<text text-anchor="middle" x="778" y="-20.9874" font-family="Helvetica,sans-Serif" font-size="10.00" fill="#000000">MapNode::changeHeight</text>
</a>
</g>
</g>
<!-- Node88&#45;&gt;Node89 -->
<g id="edge7" class="edge">
<title>Node88&#45;&gt;Node89</title>
<path fill="none" stroke="#191970" d="M629.6673,-23.4874C651.1492,-23.4874 676.2159,-23.4874 699.5634,-23.4874"/>
<polygon fill="#191970" stroke="#191970" points="699.7984,-26.9875 709.7984,-23.4874 699.7983,-19.9875 699.7984,-26.9875"/>
</g>
<!-- Node90&#45;&gt;Node84 -->
<g id="edge10" class="edge">
<title>Node90&#45;&gt;Node84</title>
<path fill="none" stroke="#191970" d="M207.9237,-216.1628C220.5049,-237.7926 253.7711,-290.5109 295,-320.4874 427.4155,-416.7634 632.122,-422.1475 726.7773,-418.7591"/>
<polygon fill="#191970" stroke="#191970" points="727.0994,-422.249 736.9488,-418.3454 726.8148,-415.2548 727.0994,-422.249"/>
</g>
<!-- Node90&#45;&gt;Node86 -->
<g id="edge9" class="edge">
<title>Node90&#45;&gt;Node86</title>
<path fill="none" stroke="#191970" d="M211.1263,-216.2089C226.3257,-232.6739 259.6335,-265.8734 295,-282.4874 422.6381,-342.4475 589.3109,-348.4324 689.7601,-345.3483"/>
<polygon fill="#191970" stroke="#191970" points="689.9972,-348.8423 699.8708,-345.0003 689.7563,-341.8465 689.9972,-348.8423"/>
</g>
<!-- Node91 -->
<g id="node9" class="node">
<title>Node91</title>
<g id="a_node9"><a xlink:href="classMapNode.html#a6b57e4355d0780fb37c34d63bbcdfdf9" target="_top" xlink:title="MapNode::getMapNodeDataFor\lLayer">
<polygon fill="none" stroke="#000000" points="694,-204.4874 694,-234.4874 862,-234.4874 862,-204.4874 694,-204.4874"/>
<text text-anchor="start" x="702" y="-222.4874" font-family="Helvetica,sans-Serif" font-size="10.00" fill="#000000">MapNode::getMapNodeDataFor</text>
<text text-anchor="middle" x="778" y="-211.4874" font-family="Helvetica,sans-Serif" font-size="10.00" fill="#000000">Layer</text>
</a>
</g>
</g>
<!-- Node90&#45;&gt;Node91 -->
<g id="edge11" class="edge">
<title>Node90&#45;&gt;Node91</title>
<path fill="none" stroke="#191970" d="M259.2562,-207.7695C358.1761,-210.004 563.1003,-214.633 683.6667,-217.3565"/>
<polygon fill="#191970" stroke="#191970" points="683.9124,-220.8629 693.9889,-217.5897 684.0706,-213.8646 683.9124,-220.8629"/>
</g>
<!-- Node92 -->
<g id="node10" class="node">
<title>Node92</title>
<g id="a_node10"><a xlink:href="classMapNode.html#ad74bb8fd5b519f5e909f0e807960a918" target="_top" xlink:title="MapNode::getOrigCornerPoint">
<polygon fill="none" stroke="#000000" points="295,-177.9874 295,-196.9874 456,-196.9874 456,-177.9874 295,-177.9874"/>
<text text-anchor="middle" x="375.5" y="-184.9874" font-family="Helvetica,sans-Serif" font-size="10.00" fill="#000000">MapNode::getOrigCornerPoint</text>
</a>
</g>
</g>
<!-- Node90&#45;&gt;Node92 -->
<g id="edge12" class="edge">
<title>Node90&#45;&gt;Node92</title>
<path fill="none" stroke="#191970" d="M259.1467,-200.2661C267.3627,-199.3638 275.9883,-198.4164 284.6722,-197.4627"/>
<polygon fill="#191970" stroke="#191970" points="285.314,-200.9134 294.8721,-196.3425 284.5498,-193.9552 285.314,-200.9134"/>
</g>
<!-- Node93 -->
<g id="node11" class="node">
<title>Node93</title>
<g id="a_node11"><a xlink:href="classMap.html#a3952b445c55efce61c1ccac6f362fe89" target="_top" xlink:title="Return vector of Points of an Object Tiles selection. ">
<polygon fill="none" stroke="#000000" points="313.5,-253.9874 313.5,-272.9874 437.5,-272.9874 437.5,-253.9874 313.5,-253.9874"/>
<text text-anchor="middle" x="375.5" y="-260.9874" font-family="Helvetica,sans-Serif" font-size="10.00" fill="#000000">Map::getObjectCoords</text>
</a>
</g>
</g>
<!-- Node90&#45;&gt;Node93 -->
<g id="edge13" class="edge">
<title>Node90&#45;&gt;Node93</title>
<path fill="none" stroke="#191970" d="M228.2907,-216.1016C246.7757,-222.8909 272.313,-232.0644 295,-239.4874 307.0197,-243.4202 320.1334,-247.4425 332.2207,-251.0424"/>
<polygon fill="#191970" stroke="#191970" points="331.5042,-254.4802 342.086,-253.9557 333.4868,-247.7668 331.5042,-254.4802"/>
</g>
<!-- Node90&#45;&gt;Node95 -->
<g id="edge16" class="edge">
<title>Node90&#45;&gt;Node95</title>
<path fill="none" stroke="#191970" d="M211.512,-196.9034C226.3851,-186.6345 257.3282,-172.4197 289.5734,-161.3622"/>
<polygon fill="#191970" stroke="#191970" points="290.7568,-164.6573 299.1463,-158.1868 288.5528,-158.0132 290.7568,-164.6573"/>
</g>
<!-- Node93&#45;&gt;Node87 -->
<g id="edge14" class="edge">
<title>Node93&#45;&gt;Node87</title>
<path fill="none" stroke="#191970" d="M437.5093,-267.4644C549.709,-274.6603 785.4847,-289.7818 901.1416,-297.1994"/>
<polygon fill="#191970" stroke="#191970" points="901.075,-300.7023 911.2786,-297.8496 901.5231,-293.7166 901.075,-300.7023"/>
</g>
<!-- Node94 -->
<g id="node12" class="node">
<title>Node94</title>
<g id="a_node12"><a xlink:href="classTileManager.html#a8ee071ff8b24926288437d310f9bc714" target="_top" xlink:title="TileManager::getTileData">
<polygon fill="none" stroke="#000000" points="505,-291.9874 505,-310.9874 645,-310.9874 645,-291.9874 505,-291.9874"/>
<text text-anchor="middle" x="575" y="-298.9874" font-family="Helvetica,sans-Serif" font-size="10.00" fill="#000000">TileManager::getTileData</text>
</a>
</g>
</g>
<!-- Node93&#45;&gt;Node94 -->
<g id="edge15" class="edge">
<title>Node93&#45;&gt;Node94</title>
<path fill="none" stroke="#191970" d="M425.5848,-273.0274C452.739,-278.1996 486.4857,-284.6275 515.0332,-290.0652"/>
<polygon fill="#191970" stroke="#191970" points="514.4163,-293.5105 524.8946,-291.9435 515.7262,-286.6341 514.4163,-293.5105"/>
</g>
<!-- Node95&#45;&gt;Node85 -->
<g id="edge17" class="edge">
<title>Node95&#45;&gt;Node85</title>
<path fill="none" stroke="#191970" d="M443.1899,-159.1664C447.8881,-161.6651 452.2416,-164.7319 456,-168.4874 505.1095,-217.5589 452.7548,-263.2199 492,-320.4874 504.8746,-339.2744 526.1432,-353.7027 543.9268,-363.3426"/>
<polygon fill="#191970" stroke="#191970" points="542.3543,-366.4697 552.8459,-367.945 545.5643,-360.249 542.3543,-366.4697"/>
</g>
<!-- Node95&#45;&gt;Node88 -->
<g id="edge18" class="edge">
<title>Node95&#45;&gt;Node88</title>
<path fill="none" stroke="#191970" d="M390.8232,-139.8096C425.432,-117.9514 509.8469,-64.6367 551.2757,-38.4712"/>
<polygon fill="#191970" stroke="#191970" points="553.3118,-41.3249 559.8977,-33.0257 549.5738,-35.4065 553.3118,-41.3249"/>
</g>
<!-- Node95&#45;&gt;Node90 -->
<g id="edge22" class="edge">
<title>Node95&#45;&gt;Node90</title>
<path fill="none" stroke="#191970" d="M360.1704,-159.0309C343.827,-164.584 317.285,-170.3296 295,-177.4874 280.6296,-182.1031 265.3517,-187.9663 251.44,-193.3449"/>
<polygon fill="#191970" stroke="#191970" points="250.1223,-190.1018 242.0551,-196.9698 252.6445,-196.6316 250.1223,-190.1018"/>
</g>
<!-- Node95&#45;&gt;Node96 -->
<g id="edge19" class="edge">
<title>Node95&#45;&gt;Node96</title>
<path fill="none" stroke="#191970" d="M451.605,-146.7151C508.6181,-144.0048 588.4424,-138.8669 658,-129.4874 680.9026,-126.3991 706.0072,-121.6023 727.3077,-117.1065"/>
<polygon fill="#191970" stroke="#191970" points="728.0749,-120.5216 737.1178,-115.0011 726.606,-113.6775 728.0749,-120.5216"/>
</g>
<!-- Node97 -->
<g id="node15" class="node">
<title>Node97</title>
<g id="a_node15"><a xlink:href="classMap.html#a769a53961d4a0dd34ee080d2da8c171e" target="_top" xlink:title="Map::getElevatedNeighbor\lBitmask">
<polygon fill="none" stroke="#000000" points="502,-90.4874 502,-120.4874 648,-120.4874 648,-90.4874 502,-90.4874"/>
<text text-anchor="start" x="510" y="-108.4874" font-family="Helvetica,sans-Serif" font-size="10.00" fill="#000000">Map::getElevatedNeighbor</text>
<text text-anchor="middle" x="575" y="-97.4874" font-family="Helvetica,sans-Serif" font-size="10.00" fill="#000000">Bitmask</text>
</a>
</g>
</g>
<!-- Node95&#45;&gt;Node97 -->
<g id="edge20" class="edge">
<title>Node95&#45;&gt;Node97</title>
<path fill="none" stroke="#191970" d="M418.7885,-139.9401C441.5507,-134.9198 470.1615,-128.6097 496.6576,-122.7659"/>
<polygon fill="#191970" stroke="#191970" points="497.6808,-126.1245 506.6923,-120.5528 496.1731,-119.2887 497.6808,-126.1245"/>
</g>
<!-- Node98 -->
<g id="node16" class="node">
<title>Node98</title>
<g id="a_node16"><a xlink:href="classMap.html#af192be95053d30ea6c6d9327106bf6d8" target="_top" xlink:title="Get a bitmask that represents same&#45;tile neighbors Checks all neighboring tiles and returns the elevat...">
<polygon fill="none" stroke="#000000" points="492,-177.9874 492,-196.9874 658,-196.9874 658,-177.9874 492,-177.9874"/>
<text text-anchor="middle" x="575" y="-184.9874" font-family="Helvetica,sans-Serif" font-size="10.00" fill="#000000">Map::calculateAutotileBitmask</text>
</a>
</g>
</g>
<!-- Node95&#45;&gt;Node98 -->
<g id="edge23" class="edge">
<title>Node95&#45;&gt;Node98</title>
<path fill="none" stroke="#191970" d="M425.5848,-159.0274C452.739,-164.1996 486.4857,-170.6275 515.0332,-176.0652"/>
<polygon fill="#191970" stroke="#191970" points="514.4163,-179.5105 524.8946,-177.9435 515.7262,-172.6341 514.4163,-179.5105"/>
</g>
<!-- Node97&#45;&gt;Node96 -->
<g id="edge21" class="edge">
<title>Node97&#45;&gt;Node96</title>
<path fill="none" stroke="#191970" d="M648.0009,-105.4874C663.5725,-105.4874 680.118,-105.4874 696.0014,-105.4874"/>
<polygon fill="#191970" stroke="#191970" points="696.3266,-108.9875 706.3266,-105.4874 696.3266,-101.9875 696.3266,-108.9875"/>
</g>
<!-- Node98&#45;&gt;Node91 -->
<g id="edge24" class="edge">
<title>Node98&#45;&gt;Node91</title>
<path fill="none" stroke="#191970" d="M635.3571,-197.0018C650.5524,-199.3971 667.2285,-202.0259 683.6536,-204.6151"/>
<polygon fill="#191970" stroke="#191970" points="683.4096,-208.1198 693.8327,-206.2197 684.4997,-201.2051 683.4096,-208.1198"/>
</g>
<!-- Node99 -->
<g id="node17" class="node">
<title>Node99</title>
<g id="a_node17"><a xlink:href="classMapNode.html#afb1cbc0f9e987b7befced46220dd9277" target="_top" xlink:title="check if specific layer can be autotiled. ">
<polygon fill="none" stroke="#000000" points="706,-165.9874 706,-184.9874 850,-184.9874 850,-165.9874 706,-165.9874"/>
<text text-anchor="middle" x="778" y="-172.9874" font-family="Helvetica,sans-Serif" font-size="10.00" fill="#000000">MapNode::isLayerAutoTile</text>
</a>
</g>
</g>
<!-- Node98&#45;&gt;Node99 -->
<g id="edge25" class="edge">
<title>Node98&#45;&gt;Node99</title>
<path fill="none" stroke="#191970" d="M658.1536,-182.5719C670.4717,-181.8438 683.1628,-181.0936 695.4681,-180.3661"/>
<polygon fill="#191970" stroke="#191970" points="695.9213,-183.8456 705.6973,-179.7615 695.5081,-176.8578 695.9213,-183.8456"/>
</g>
<!-- Node100 -->
<g id="node18" class="node">
<title>Node100</title>
<g id="a_node18"><a xlink:href="classMapNode.html#a64cb9a4523c9e78f256fde42f1dee43d" target="_top" xlink:title="check if specific Tile Data is autotile category. ">
<polygon fill="none" stroke="#000000" points="898,-165.9874 898,-184.9874 1038,-184.9874 1038,-165.9874 898,-165.9874"/>
<text text-anchor="middle" x="968" y="-172.9874" font-family="Helvetica,sans-Serif" font-size="10.00" fill="#000000">MapNode::isDataAutoTile</text>
</a>
</g>
</g>
<!-- Node99&#45;&gt;Node100 -->
<g id="edge26" class="edge">
<title>Node99&#45;&gt;Node100</title>
<path fill="none" stroke="#191970" d="M850.1018,-175.4874C862.3221,-175.4874 875.0799,-175.4874 887.4991,-175.4874"/>
<polygon fill="#191970" stroke="#191970" points="887.8325,-178.9875 897.8324,-175.4874 887.8324,-171.9875 887.8325,-178.9875"/>
</g>
</g>
</svg>
        <g id="navigator" transform="translate(0 0)" fill="#404254">
                <rect fill="#f2f5e9" fill-opacity="0.5" stroke="#606060" stroke-width=".5" x="0" y="0" width="60" height="60"/>
                <use id="zoomplus" xlink:href="#zoomPlus" x="17" y="9" onmousedown="handleZoom(evt,'in')"/>
                <use id="zoomminus" xlink:href="#zoomMin" x="42" y="9" onmousedown="handleZoom(evt,'out')"/>
                <use id="reset" xlink:href="#resetDef" x="30" y="36" onmousedown="handleReset()"/>
                <g id="arrowUp" xlink:href="#dirArrow" transform="translate(30 24)" onmousedown="handlePan(0,-1)">
                  <use xlink:href="#rim" fill="#404040">
                        <set attributeName="fill" to="#808080" begin="arrowUp.mouseover" end="arrowUp.mouseout"/>
                  </use>
                  <path fill="none" stroke="white" stroke-width="1.5" d="M0,-3.0v7 M-2.5,-0.5L0,-3.0L2.5,-0.5"/>
                </g>
                <g id="arrowRight" xlink:href="#dirArrow" transform="rotate(90) translate(36 -43)" onmousedown="handlePan(1,0)">
                  <use xlink:href="#rim" fill="#404040">
                        <set attributeName="fill" to="#808080" begin="arrowRight.mouseover" end="arrowRight.mouseout"/>
                  </use>
                  <path fill="none" stroke="white" stroke-width="1.5" d="M0,-3.0v7 M-2.5,-0.5L0,-3.0L2.5,-0.5"/>
                </g>
                <g id="arrowDown" xlink:href="#dirArrow" transform="rotate(180) translate(-30 -48)" onmousedown="handlePan(0,1)">
                  <use xlink:href="#rim" fill="#404040">
                        <set attributeName="fill" to="#808080" begin="arrowDown.mouseover" end="arrowDown.mouseout"/>
                  </use>
                  <path fill="none" stroke="white" stroke-width="1.5" d="M0,-3.0v7 M-2.5,-0.5L0,-3.0L2.5,-0.5"/>
                </g>
                <g id="arrowLeft" xlink:href="#dirArrow" transform="rotate(270) translate(-36 17)" onmousedown="handlePan(-1,0)">
                  <use xlink:href="#rim" fill="#404040">
                        <set attributeName="fill" to="#808080" begin="arrowLeft.mouseover" end="arrowLeft.mouseout"/>
                  </use>
                  <path fill="none" stroke="white" stroke-width="1.5" d="M0,-3.0v7 M-2.5,-0.5L0,-3.0L2.5,-0.5"/>
                </g>
        </g>
        <svg viewBox="0 0 15 15" width="100%" height="30px" preserveAspectRatio="xMaxYMin meet">
         <g id="arrow_out" transform="scale(0.3 0.3)">
          <a xlink:href="classMap_ade1eeabf4e539f9dbfe2a96c97fda4e3_cgraph_org.svg" target="_base">
           <rect id="button" ry="5" rx="5" y="6" x="6" height="38" width="38"
                fill="#f2f5e9" fill-opacity="0.5" stroke="#606060" stroke-width="1.0"/>
           <path id="arrow"
             d="M 11.500037,31.436501 C 11.940474,20.09759 22.043105,11.32322 32.158766,21.979434 L 37.068811,17.246167 C 37.068811,17.246167 37.088388,32 37.088388,32 L 22.160133,31.978069 C 22.160133,31.978069 26.997745,27.140456 26.997745,27.140456 C 18.528582,18.264221 13.291696,25.230495 11.500037,31.436501 z"
             style="fill:#404040;"/>
          </a>
         </g>
        </svg>
</svg>
