<?xml version="1.0" encoding="UTF-8" standalone="no"?>
<!DOCTYPE svg PUBLIC "-//W3C//DTD SVG 1.1//EN"
 "http://www.w3.org/Graphics/SVG/1.1/DTD/svg11.dtd">
<!-- Generated by graphviz version 2.40.1 (20161225.0304)
 -->
<!-- Title: MapNode::getTopMostActiveLayer Pages: 1 -->
<svg width="1060pt" height="39pt"
 viewBox="0.00 0.00 1060.00 39.00" xmlns="http://www.w3.org/2000/svg" xmlns:xlink="http://www.w3.org/1999/xlink">
<g id="graph0" class="graph" transform="scale(1 1) rotate(0) translate(4 35)">
<title>MapNode::getTopMostActiveLayer</title>
<!-- Node197 -->
<g id="node1" class="node">
<title>Node197</title>
<polygon fill="#bfbfbf" stroke="#000000" points="0,-.5 0,-30.5 155,-30.5 155,-.5 0,-.5"/>
<text text-anchor="start" x="8" y="-18.5" font-family="Helvetica,sans-Serif" font-size="10.00" fill="#000000">MapNode::getTopMostActive</text>
<text text-anchor="middle" x="77.5" y="-7.5" font-family="Helvetica,sans-Serif" font-size="10.00" fill="#000000">Layer</text>
</g>
<!-- Node198 -->
<g id="node2" class="node">
<title>Node198</title>
<g id="a_node2"><a xlink:href="classMapNode.html#a0b089ef93b46bbfed8ccf71dc516c4ef" target="_top" xlink:title="MapNode::getActiveMapNodeData">
<polygon fill="none" stroke="#000000" points="191,-6 191,-25 375,-25 375,-6 191,-6"/>
<text text-anchor="middle" x="283" y="-13" font-family="Helvetica,sans-Serif" font-size="10.00" fill="#000000">MapNode::getActiveMapNodeData</text>
</a>
</g>
</g>
<!-- Node197&#45;&gt;Node198 -->
<g id="edge1" class="edge">
<title>Node197&#45;&gt;Node198</title>
<path fill="none" stroke="#191970" d="M165.3425,-15.5C173.7329,-15.5 182.2587,-15.5 190.6899,-15.5"/>
<polygon fill="#191970" stroke="#191970" points="165.1908,-12.0001 155.1907,-15.5 165.1907,-19.0001 165.1908,-12.0001"/>
</g>
<!-- Node199 -->
<g id="node3" class="node">
<title>Node199</title>
<g id="a_node3"><a xlink:href="classMap.html#a0241b997090783e5d13667114731a592" target="_top" xlink:title="Debug MapNodeData to Console Used as Tile&#45;Inspector until we implement a GUI variant. ">
<polygon fill="none" stroke="#000000" points="411,-6 411,-25 552,-25 552,-6 411,-6"/>
<text text-anchor="middle" x="481.5" y="-13" font-family="Helvetica,sans-Serif" font-size="10.00" fill="#000000">Map::getNodeInformation</text>
</a>
</g>
</g>
<!-- Node198&#45;&gt;Node199 -->
<g id="edge2" class="edge">
<title>Node198&#45;&gt;Node199</title>
<path fill="none" stroke="#191970" d="M385.3733,-15.5C393.9752,-15.5 402.5458,-15.5 410.8263,-15.5"/>
<polygon fill="#191970" stroke="#191970" points="385.2766,-12.0001 375.2766,-15.5 385.2766,-19.0001 385.2766,-12.0001"/>
</g>
<!-- Node200 -->
<g id="node4" class="node">
<title>Node200</title>
<g id="a_node4"><a xlink:href="classEventManager.html#a65ec91fd5016d4f9c4167fb8babed2df" target="_top" xlink:title="EventManager::checkEvents">
<polygon fill="none" stroke="#000000" points="588,-6 588,-25 742,-25 742,-6 588,-6"/>
<text text-anchor="middle" x="665" y="-13" font-family="Helvetica,sans-Serif" font-size="10.00" fill="#000000">EventManager::checkEvents</text>
</a>
</g>
</g>
<!-- Node199&#45;&gt;Node200 -->
<g id="edge3" class="edge">
<title>Node199&#45;&gt;Node200</title>
<path fill="none" stroke="#191970" d="M562.4411,-15.5C570.9176,-15.5 579.5189,-15.5 587.9501,-15.5"/>
<polygon fill="#191970" stroke="#191970" points="562.1834,-12.0001 552.1834,-15.5 562.1834,-19.0001 562.1834,-12.0001"/>
</g>
<!-- Node201 -->
<g id="node5" class="node">
<title>Node201</title>
<g id="a_node5"><a xlink:href="classGame.html#a1c2ab25d5216b2f4b2fe41efd2c09114" target="_top" xlink:title="begins the game starts running the game ">
<polygon fill="none" stroke="#000000" points="778,-6 778,-25 846,-25 846,-6 778,-6"/>
<text text-anchor="middle" x="812" y="-13" font-family="Helvetica,sans-Serif" font-size="10.00" fill="#000000">Game::run</text>
</a>
</g>
</g>
<!-- Node200&#45;&gt;Node201 -->
<g id="edge4" class="edge">
<title>Node200&#45;&gt;Node201</title>
<path fill="none" stroke="#191970" d="M752.5248,-15.5C761.4338,-15.5 770.0572,-15.5 777.845,-15.5"/>
<polygon fill="#191970" stroke="#191970" points="752.3744,-12.0001 742.3744,-15.5 752.3743,-19.0001 752.3744,-12.0001"/>
</g>
<!-- Node202 -->
<g id="node6" class="node">
<title>Node202</title>
<g id="a_node6"><a xlink:href="main_8cxx.html#af582d708d899e67ead623eac34a22387" target="_top" xlink:title="protected_main">
<polygon fill="none" stroke="#000000" points="882,-6 882,-25 975,-25 975,-6 882,-6"/>
<text text-anchor="middle" x="928.5" y="-13" font-family="Helvetica,sans-Serif" font-size="10.00" fill="#000000">protected_main</text>
</a>
</g>
</g>
<!-- Node201&#45;&gt;Node202 -->
<g id="edge5" class="edge">
<title>Node201&#45;&gt;Node202</title>
<path fill="none" stroke="#191970" d="M856.2653,-15.5C864.5757,-15.5 873.2897,-15.5 881.6749,-15.5"/>
<polygon fill="#191970" stroke="#191970" points="856.0098,-12.0001 846.0098,-15.5 856.0098,-19.0001 856.0098,-12.0001"/>
</g>
<!-- Node203 -->
<g id="node7" class="node">
<title>Node203</title>
<g id="a_node7"><a xlink:href="main_8cxx.html#a3c04138a5bfe5d72780bb7e82a18e627" target="_top" xlink:title="main">
<polygon fill="none" stroke="#000000" points="1011,-6 1011,-25 1052,-25 1052,-6 1011,-6"/>
<text text-anchor="middle" x="1031.5" y="-13" font-family="Helvetica,sans-Serif" font-size="10.00" fill="#000000">main</text>
</a>
</g>
</g>
<!-- Node202&#45;&gt;Node203 -->
<g id="edge6" class="edge">
<title>Node202&#45;&gt;Node203</title>
<path fill="none" stroke="#191970" d="M985.2133,-15.5C994.4322,-15.5 1003.4259,-15.5 1010.9965,-15.5"/>
<polygon fill="#191970" stroke="#191970" points="985.1782,-12.0001 975.1782,-15.5 985.1781,-19.0001 985.1782,-12.0001"/>
</g>
</g>
</svg>
