<?xml version="1.0" encoding="UTF-8" standalone="no"?>
<!DOCTYPE svg PUBLIC "-//W3C//DTD SVG 1.1//EN"
 "http://www.w3.org/Graphics/SVG/1.1/DTD/svg11.dtd">
<!-- Generated by graphviz version 2.40.1 (20161225.0304)
 -->
<!-- Title: Map::updateAllNodes Pages: 1 -->
<!--zoomable 132 -->
<svg id="main" version="1.1" xmlns="http://www.w3.org/2000/svg" xmlns:xlink="http://www.w3.org/1999/xlink" xml:space="preserve" onload="init(evt)">
<style type="text/css"><![CDATA[
.edge:hover path { stroke: red; }
.edge:hover polygon { stroke: red; fill: red; }
]]></style>
<script type="text/javascript"><![CDATA[
var edges = document.getElementsByTagName('g');
if (edges && edges.length) {
  for (var i=0;i<edges.length;i++) {
    if (edges[i].id.substr(0,4)=='edge') {
      edges[i].setAttribute('class','edge');
    }
  }
}
]]></script>
        <defs>
                <circle id="rim" cx="0" cy="0" r="7"/>
                <circle id="rim2" cx="0" cy="0" r="3.5"/>
                <g id="zoomPlus">
                        <use xlink:href="#rim" fill="#404040">
                                <set attributeName="fill" to="#808080" begin="zoomplus.mouseover" end="zoomplus.mouseout"/>
                        </use>
                        <path d="M-4,0h8M0,-4v8" fill="none" stroke="white" stroke-width="1.5" pointer-events="none"/>
                </g>
                <g id="zoomMin">
                        <use xlink:href="#rim" fill="#404040">
                                <set attributeName="fill" to="#808080" begin="zoomminus.mouseover" end="zoomminus.mouseout"/>
                        </use>
                        <path d="M-4,0h8" fill="none" stroke="white" stroke-width="1.5" pointer-events="none"/>
                </g>
                <g id="dirArrow">
                        <path fill="none" stroke="white" stroke-width="1.5" d="M0,-3.0v7 M-2.5,-0.5L0,-3.0L2.5,-0.5"/>
                </g>
               <g id="resetDef">
                       <use xlink:href="#rim2" fill="#404040">
                               <set attributeName="fill" to="#808080" begin="reset.mouseover" end="reset.mouseout"/>
                       </use>
               </g>
        </defs>

<script type="text/javascript">
var viewWidth = 1229;
var viewHeight = 132;
var sectionId = 'dynsection-52';
</script>
<script xlink:href="svgpan.js"/>
<svg id="graph" class="graph">
<g id="viewport">
<title>Map::updateAllNodes</title>
<!-- Node543 -->
<g id="node1" class="node">
<title>Node543</title>
<polygon fill="#bfbfbf" stroke="#000000" points="0,-28.4066 0,-47.4066 120,-47.4066 120,-28.4066 0,-28.4066"/>
<text text-anchor="middle" x="60" y="-35.4066" font-family="Helvetica,sans-Serif" font-size="10.00" fill="#000000">Map::updateAllNodes</text>
</g>
<!-- Node544 -->
<g id="node2" class="node">
<title>Node544</title>
<g id="a_node2"><a xlink:href="classMap.html#a26eceeccd7b6ed693909b1927a25c67a" target="_top" xlink:title="Map::Map">
<polygon fill="none" stroke="#000000" points="156,-47.4066 156,-66.4066 219,-66.4066 219,-47.4066 156,-47.4066"/>
<text text-anchor="middle" x="187.5" y="-54.4066" font-family="Helvetica,sans-Serif" font-size="10.00" fill="#000000">Map::Map</text>
</a>
</g>
</g>
<!-- Node543&#45;&gt;Node544 -->
<g id="edge1" class="edge">
<title>Node543&#45;&gt;Node544</title>
<path fill="none" stroke="#191970" d="M130.1932,-48.3667C139.176,-49.7054 147.9865,-51.0183 155.9013,-52.1978"/>
<polygon fill="#191970" stroke="#191970" points="130.4232,-44.8625 120.0165,-46.8502 129.3914,-51.786 130.4232,-44.8625"/>
</g>
<!-- Node545 -->
<g id="node3" class="node">
<title>Node545</title>
<g id="a_node3"><a xlink:href="classMap.html#afefe996cc1f62b61ec60d0ae415953bf" target="_top" xlink:title="Map::loadMapFromFile">
<polygon fill="none" stroke="#000000" points="255,-28.4066 255,-47.4066 380,-47.4066 380,-28.4066 255,-28.4066"/>
<text text-anchor="middle" x="317.5" y="-35.4066" font-family="Helvetica,sans-Serif" font-size="10.00" fill="#000000">Map::loadMapFromFile</text>
</a>
</g>
</g>
<!-- Node543&#45;&gt;Node545 -->
<g id="edge15" class="edge">
<title>Node543&#45;&gt;Node545</title>
<path fill="none" stroke="#191970" d="M130.2392,-37.9066C169.1157,-37.9066 217.0324,-37.9066 254.6628,-37.9066"/>
<polygon fill="#191970" stroke="#191970" points="130.0474,-34.4067 120.0473,-37.9066 130.0473,-41.4067 130.0474,-34.4067"/>
</g>
<!-- Node544&#45;&gt;Node545 -->
<g id="edge2" class="edge">
<title>Node544&#45;&gt;Node545</title>
<path fill="none" stroke="#191970" d="M229.2667,-50.8022C237.4066,-49.6125 246.1063,-48.3411 254.7528,-47.0773"/>
<polygon fill="#191970" stroke="#191970" points="228.6903,-47.3492 219.3016,-52.2587 229.7026,-54.2756 228.6903,-47.3492"/>
</g>
<!-- Node546 -->
<g id="node4" class="node">
<title>Node546</title>
<g id="a_node4"><a xlink:href="classEngine.html#a83b7dbeee899b36a13d5b07c7ad87ebc" target="_top" xlink:title="Loads a saved game Loads a saved Game. ">
<polygon fill="none" stroke="#000000" points="416,-28.4066 416,-47.4066 522,-47.4066 522,-28.4066 416,-28.4066"/>
<text text-anchor="middle" x="469" y="-35.4066" font-family="Helvetica,sans-Serif" font-size="10.00" fill="#000000">Engine::loadGame</text>
</a>
</g>
</g>
<!-- Node545&#45;&gt;Node546 -->
<g id="edge3" class="edge">
<title>Node545&#45;&gt;Node546</title>
<path fill="none" stroke="#191970" d="M390.6629,-37.9066C399.0896,-37.9066 407.559,-37.9066 415.6534,-37.9066"/>
<polygon fill="#191970" stroke="#191970" points="390.4335,-34.4067 380.4335,-37.9066 390.4334,-41.4067 390.4335,-34.4067"/>
</g>
<!-- Node547 -->
<g id="node5" class="node">
<title>Node547</title>
<g id="a_node5"><a xlink:href="classEngine.html#a0ba57971ffb5173ecc425461f65a4cd8" target="_top" xlink:title="Quits the game Sets m_running to false and quitting the game. ">
<polygon fill="none" stroke="#000000" points="558,-66.4066 558,-85.4066 662,-85.4066 662,-66.4066 558,-66.4066"/>
<text text-anchor="middle" x="610" y="-73.4066" font-family="Helvetica,sans-Serif" font-size="10.00" fill="#000000">Engine::quitGame</text>
</a>
</g>
</g>
<!-- Node546&#45;&gt;Node547 -->
<g id="edge4" class="edge">
<title>Node546&#45;&gt;Node547</title>
<path fill="none" stroke="#191970" d="M514.4398,-50.1528C533.875,-55.3906 556.2311,-61.4157 574.4311,-66.3207"/>
<polygon fill="#191970" stroke="#191970" points="515.1465,-46.7184 504.5803,-47.4956 513.325,-53.4773 515.1465,-46.7184"/>
</g>
<!-- Node552 -->
<g id="node10" class="node">
<title>Node552</title>
<g id="a_node10"><a xlink:href="classUIManager.html#aa78e356fc3b356d790c848319d1c387e" target="_top" xlink:title="UIManager::setCallbackFunctions">
<polygon fill="none" stroke="#000000" points="698,-28.4066 698,-47.4066 876,-47.4066 876,-28.4066 698,-28.4066"/>
<text text-anchor="middle" x="787" y="-35.4066" font-family="Helvetica,sans-Serif" font-size="10.00" fill="#000000">UIManager::setCallbackFunctions</text>
</a>
</g>
</g>
<!-- Node546&#45;&gt;Node552 -->
<g id="edge13" class="edge">
<title>Node546&#45;&gt;Node552</title>
<path fill="none" stroke="#191970" d="M532.3498,-37.9066C579.7184,-37.9066 645.1124,-37.9066 697.7707,-37.9066"/>
<polygon fill="#191970" stroke="#191970" points="532.2261,-34.4067 522.2261,-37.9066 532.226,-41.4067 532.2261,-34.4067"/>
</g>
<!-- Node554 -->
<g id="node12" class="node">
<title>Node554</title>
<g id="a_node12"><a xlink:href="classGame.html#a560299f0291c281f7b44e7ef0dd7b264" target="_top" xlink:title="initializes and displays the main menu initializes and displays the main menu ">
<polygon fill="none" stroke="#000000" points="912,-66.4066 912,-85.4066 1015,-85.4066 1015,-66.4066 912,-66.4066"/>
<text text-anchor="middle" x="963.5" y="-73.4066" font-family="Helvetica,sans-Serif" font-size="10.00" fill="#000000">Game::mainMenu</text>
</a>
</g>
</g>
<!-- Node546&#45;&gt;Node554 -->
<g id="edge14" class="edge">
<title>Node546&#45;&gt;Node554</title>
<path fill="none" stroke="#191970" d="M515.1831,-26.0602C591.9308,-8.4934 749.7778,18.5797 876,-18.9066 907.2834,-28.1973 937.8332,-52.6029 953.215,-66.2749"/>
<polygon fill="#191970" stroke="#191970" points="514.2857,-22.6756 505.3463,-28.3621 515.8808,-29.4914 514.2857,-22.6756"/>
</g>
<!-- Node548 -->
<g id="node6" class="node">
<title>Node548</title>
<g id="a_node6"><a xlink:href="classEventManager.html#a65ec91fd5016d4f9c4167fb8babed2df" target="_top" xlink:title="EventManager::checkEvents">
<polygon fill="none" stroke="#000000" points="710,-104.4066 710,-123.4066 864,-123.4066 864,-104.4066 710,-104.4066"/>
<text text-anchor="middle" x="787" y="-111.4066" font-family="Helvetica,sans-Serif" font-size="10.00" fill="#000000">EventManager::checkEvents</text>
</a>
</g>
</g>
<!-- Node547&#45;&gt;Node548 -->
<g id="edge5" class="edge">
<title>Node547&#45;&gt;Node548</title>
<path fill="none" stroke="#191970" d="M664.3541,-87.6628C675.4832,-90.0641 687.119,-92.5705 698,-94.9066 712.3662,-97.991 728.0401,-101.3418 742.1756,-104.3585"/>
<polygon fill="#191970" stroke="#191970" points="664.8256,-84.184 654.3121,-85.495 663.3484,-91.0264 664.8256,-84.184"/>
</g>
<!-- Node547&#45;&gt;Node552 -->
<g id="edge9" class="edge">
<title>Node547&#45;&gt;Node552</title>
<path fill="none" stroke="#191970" d="M664.3541,-64.1504C675.4832,-61.7491 687.119,-59.2427 698,-56.9066 712.3662,-53.8222 728.0401,-50.4713 742.1756,-47.4547"/>
<polygon fill="#191970" stroke="#191970" points="663.3484,-60.7868 654.3121,-66.3182 664.8256,-67.6292 663.3484,-60.7868"/>
</g>
<!-- Node553 -->
<g id="node11" class="node">
<title>Node553</title>
<g id="a_node11"><a xlink:href="classGame.html#a8272be134d16c277bb014ad6a22fc357" target="_top" xlink:title="Game::quit">
<polygon fill="none" stroke="#000000" points="751.5,-66.4066 751.5,-85.4066 822.5,-85.4066 822.5,-66.4066 751.5,-66.4066"/>
<text text-anchor="middle" x="787" y="-73.4066" font-family="Helvetica,sans-Serif" font-size="10.00" fill="#000000">Game::quit</text>
</a>
</g>
</g>
<!-- Node547&#45;&gt;Node553 -->
<g id="edge10" class="edge">
<title>Node547&#45;&gt;Node553</title>
<path fill="none" stroke="#191970" d="M672.4886,-75.9066C698.9691,-75.9066 728.8596,-75.9066 751.4608,-75.9066"/>
<polygon fill="#191970" stroke="#191970" points="672.1485,-72.4067 662.1485,-75.9066 672.1485,-79.4067 672.1485,-72.4067"/>
</g>
<!-- Node549 -->
<g id="node7" class="node">
<title>Node549</title>
<g id="a_node7"><a xlink:href="classGame.html#a1c2ab25d5216b2f4b2fe41efd2c09114" target="_top" xlink:title="begins the game starts running the game ">
<polygon fill="none" stroke="#000000" points="929.5,-104.4066 929.5,-123.4066 997.5,-123.4066 997.5,-104.4066 929.5,-104.4066"/>
<text text-anchor="middle" x="963.5" y="-111.4066" font-family="Helvetica,sans-Serif" font-size="10.00" fill="#000000">Game::run</text>
</a>
</g>
</g>
<!-- Node548&#45;&gt;Node549 -->
<g id="edge6" class="edge">
<title>Node548&#45;&gt;Node549</title>
<path fill="none" stroke="#191970" d="M874.3664,-113.9066C893.9355,-113.9066 913.5625,-113.9066 929.398,-113.9066"/>
<polygon fill="#191970" stroke="#191970" points="874.1587,-110.4067 864.1587,-113.9066 874.1587,-117.4067 874.1587,-110.4067"/>
</g>
<!-- Node550 -->
<g id="node8" class="node">
<title>Node550</title>
<g id="a_node8"><a xlink:href="main_8cxx.html#af582d708d899e67ead623eac34a22387" target="_top" xlink:title="protected_main">
<polygon fill="none" stroke="#000000" points="1051,-85.4066 1051,-104.4066 1144,-104.4066 1144,-85.4066 1051,-85.4066"/>
<text text-anchor="middle" x="1097.5" y="-92.4066" font-family="Helvetica,sans-Serif" font-size="10.00" fill="#000000">protected_main</text>
</a>
</g>
</g>
<!-- Node549&#45;&gt;Node550 -->
<g id="edge7" class="edge">
<title>Node549&#45;&gt;Node550</title>
<path fill="none" stroke="#191970" d="M1007.8611,-107.6166C1021.6278,-105.6646 1036.8396,-103.5077 1050.7626,-101.5335"/>
<polygon fill="#191970" stroke="#191970" points="1007.0702,-104.1936 997.6606,-109.0629 1008.0529,-111.1243 1007.0702,-104.1936"/>
</g>
<!-- Node551 -->
<g id="node9" class="node">
<title>Node551</title>
<g id="a_node9"><a xlink:href="main_8cxx.html#a3c04138a5bfe5d72780bb7e82a18e627" target="_top" xlink:title="main">
<polygon fill="none" stroke="#000000" points="1180,-85.4066 1180,-104.4066 1221,-104.4066 1221,-85.4066 1180,-85.4066"/>
<text text-anchor="middle" x="1200.5" y="-92.4066" font-family="Helvetica,sans-Serif" font-size="10.00" fill="#000000">main</text>
</a>
</g>
</g>
<!-- Node550&#45;&gt;Node551 -->
<g id="edge8" class="edge">
<title>Node550&#45;&gt;Node551</title>
<path fill="none" stroke="#191970" d="M1154.2133,-94.9066C1163.4322,-94.9066 1172.4259,-94.9066 1179.9965,-94.9066"/>
<polygon fill="#191970" stroke="#191970" points="1154.1782,-91.4067 1144.1782,-94.9066 1154.1781,-98.4067 1154.1782,-91.4067"/>
</g>
<!-- Node553&#45;&gt;Node554 -->
<g id="edge11" class="edge">
<title>Node553&#45;&gt;Node554</title>
<path fill="none" stroke="#191970" d="M833.0403,-75.9066C857.1836,-75.9066 886.8403,-75.9066 911.7739,-75.9066"/>
<polygon fill="#191970" stroke="#191970" points="832.7174,-72.4067 822.7174,-75.9066 832.7174,-79.4067 832.7174,-72.4067"/>
</g>
<!-- Node554&#45;&gt;Node550 -->
<g id="edge12" class="edge">
<title>Node554&#45;&gt;Node550</title>
<path fill="none" stroke="#191970" d="M1025.2457,-84.6616C1033.7846,-85.8723 1042.438,-87.0993 1050.6465,-88.2632"/>
<polygon fill="#191970" stroke="#191970" points="1025.7003,-81.1911 1015.3079,-83.2525 1024.7175,-88.1218 1025.7003,-81.1911"/>
</g>
</g>
</svg>
        <g id="navigator" transform="translate(0 0)" fill="#404254">
                <rect fill="#f2f5e9" fill-opacity="0.5" stroke="#606060" stroke-width=".5" x="0" y="0" width="60" height="60"/>
                <use id="zoomplus" xlink:href="#zoomPlus" x="17" y="9" onmousedown="handleZoom(evt,'in')"/>
                <use id="zoomminus" xlink:href="#zoomMin" x="42" y="9" onmousedown="handleZoom(evt,'out')"/>
                <use id="reset" xlink:href="#resetDef" x="30" y="36" onmousedown="handleReset()"/>
                <g id="arrowUp" xlink:href="#dirArrow" transform="translate(30 24)" onmousedown="handlePan(0,-1)">
                  <use xlink:href="#rim" fill="#404040">
                        <set attributeName="fill" to="#808080" begin="arrowUp.mouseover" end="arrowUp.mouseout"/>
                  </use>
                  <path fill="none" stroke="white" stroke-width="1.5" d="M0,-3.0v7 M-2.5,-0.5L0,-3.0L2.5,-0.5"/>
                </g>
                <g id="arrowRight" xlink:href="#dirArrow" transform="rotate(90) translate(36 -43)" onmousedown="handlePan(1,0)">
                  <use xlink:href="#rim" fill="#404040">
                        <set attributeName="fill" to="#808080" begin="arrowRight.mouseover" end="arrowRight.mouseout"/>
                  </use>
                  <path fill="none" stroke="white" stroke-width="1.5" d="M0,-3.0v7 M-2.5,-0.5L0,-3.0L2.5,-0.5"/>
                </g>
                <g id="arrowDown" xlink:href="#dirArrow" transform="rotate(180) translate(-30 -48)" onmousedown="handlePan(0,1)">
                  <use xlink:href="#rim" fill="#404040">
                        <set attributeName="fill" to="#808080" begin="arrowDown.mouseover" end="arrowDown.mouseout"/>
                  </use>
                  <path fill="none" stroke="white" stroke-width="1.5" d="M0,-3.0v7 M-2.5,-0.5L0,-3.0L2.5,-0.5"/>
                </g>
                <g id="arrowLeft" xlink:href="#dirArrow" transform="rotate(270) translate(-36 17)" onmousedown="handlePan(-1,0)">
                  <use xlink:href="#rim" fill="#404040">
                        <set attributeName="fill" to="#808080" begin="arrowLeft.mouseover" end="arrowLeft.mouseout"/>
                  </use>
                  <path fill="none" stroke="white" stroke-width="1.5" d="M0,-3.0v7 M-2.5,-0.5L0,-3.0L2.5,-0.5"/>
                </g>
        </g>
        <svg viewBox="0 0 15 15" width="100%" height="30px" preserveAspectRatio="xMaxYMin meet">
         <g id="arrow_out" transform="scale(0.3 0.3)">
          <a xlink:href="classMap_a481b37ba71ef0e51e836fc42805762dd_icgraph_org.svg" target="_base">
           <rect id="button" ry="5" rx="5" y="6" x="6" height="38" width="38"
                fill="#f2f5e9" fill-opacity="0.5" stroke="#606060" stroke-width="1.0"/>
           <path id="arrow"
             d="M 11.500037,31.436501 C 11.940474,20.09759 22.043105,11.32322 32.158766,21.979434 L 37.068811,17.246167 C 37.068811,17.246167 37.088388,32 37.088388,32 L 22.160133,31.978069 C 22.160133,31.978069 26.997745,27.140456 26.997745,27.140456 C 18.528582,18.264221 13.291696,25.230495 11.500037,31.436501 z"
             style="fill:#404040;"/>
          </a>
         </g>
        </svg>
</svg>
