<?xml version="1.0" encoding="UTF-8" standalone="no"?>
<!DOCTYPE svg PUBLIC "-//W3C//DTD SVG 1.1//EN"
 "http://www.w3.org/Graphics/SVG/1.1/DTD/svg11.dtd">
<!-- Generated by graphviz version 2.40.1 (20161225.0304)
 -->
<!-- Title: decompressString Pages: 1 -->
<!--zoomable 132 -->
<svg id="main" version="1.1" xmlns="http://www.w3.org/2000/svg" xmlns:xlink="http://www.w3.org/1999/xlink" xml:space="preserve" onload="init(evt)">
<style type="text/css"><![CDATA[
.edge:hover path { stroke: red; }
.edge:hover polygon { stroke: red; fill: red; }
]]></style>
<script type="text/javascript"><![CDATA[
var edges = document.getElementsByTagName('g');
if (edges && edges.length) {
  for (var i=0;i<edges.length;i++) {
    if (edges[i].id.substr(0,4)=='edge') {
      edges[i].setAttribute('class','edge');
    }
  }
}
]]></script>
        <defs>
                <circle id="rim" cx="0" cy="0" r="7"/>
                <circle id="rim2" cx="0" cy="0" r="3.5"/>
                <g id="zoomPlus">
                        <use xlink:href="#rim" fill="#404040">
                                <set attributeName="fill" to="#808080" begin="zoomplus.mouseover" end="zoomplus.mouseout"/>
                        </use>
                        <path d="M-4,0h8M0,-4v8" fill="none" stroke="white" stroke-width="1.5" pointer-events="none"/>
                </g>
                <g id="zoomMin">
                        <use xlink:href="#rim" fill="#404040">
                                <set attributeName="fill" to="#808080" begin="zoomminus.mouseover" end="zoomminus.mouseout"/>
                        </use>
                        <path d="M-4,0h8" fill="none" stroke="white" stroke-width="1.5" pointer-events="none"/>
                </g>
                <g id="dirArrow">
                        <path fill="none" stroke="white" stroke-width="1.5" d="M0,-3.0v7 M-2.5,-0.5L0,-3.0L2.5,-0.5"/>
                </g>
               <g id="resetDef">
                       <use xlink:href="#rim2" fill="#404040">
                               <set attributeName="fill" to="#808080" begin="reset.mouseover" end="reset.mouseout"/>
                       </use>
               </g>
        </defs>

<script type="text/javascript">
var viewWidth = 1114;
var viewHeight = 132;
var sectionId = 'dynsection-3';
</script>
<script xlink:href="svgpan.js"/>
<svg id="graph" class="graph">
<g id="viewport">
<title>decompressString</title>
<!-- Node6 -->
<g id="node1" class="node">
<title>Node6</title>
<polygon fill="#bfbfbf" stroke="#000000" points="0,-28.4066 0,-47.4066 104,-47.4066 104,-28.4066 0,-28.4066"/>
<text text-anchor="middle" x="52" y="-35.4066" font-family="Helvetica,sans-Serif" font-size="10.00" fill="#000000">decompressString</text>
</g>
<!-- Node7 -->
<g id="node2" class="node">
<title>Node7</title>
<g id="a_node2"><a xlink:href="classMap.html#afefe996cc1f62b61ec60d0ae415953bf" target="_top" xlink:title="Map::loadMapFromFile">
<polygon fill="none" stroke="#000000" points="140,-28.4066 140,-47.4066 265,-47.4066 265,-28.4066 140,-28.4066"/>
<text text-anchor="middle" x="202.5" y="-35.4066" font-family="Helvetica,sans-Serif" font-size="10.00" fill="#000000">Map::loadMapFromFile</text>
</a>
</g>
</g>
<!-- Node6&#45;&gt;Node7 -->
<g id="edge1" class="edge">
<title>Node6&#45;&gt;Node7</title>
<path fill="none" stroke="#191970" d="M114.3228,-37.9066C122.7233,-37.9066 131.3454,-37.9066 139.7532,-37.9066"/>
<polygon fill="#191970" stroke="#191970" points="114.2153,-34.4067 104.2152,-37.9066 114.2152,-41.4067 114.2153,-34.4067"/>
</g>
<!-- Node8 -->
<g id="node3" class="node">
<title>Node8</title>
<g id="a_node3"><a xlink:href="classEngine.html#a83b7dbeee899b36a13d5b07c7ad87ebc" target="_top" xlink:title="Loads a saved game Loads a saved Game. ">
<polygon fill="none" stroke="#000000" points="301,-28.4066 301,-47.4066 407,-47.4066 407,-28.4066 301,-28.4066"/>
<text text-anchor="middle" x="354" y="-35.4066" font-family="Helvetica,sans-Serif" font-size="10.00" fill="#000000">Engine::loadGame</text>
</a>
</g>
</g>
<!-- Node7&#45;&gt;Node8 -->
<g id="edge2" class="edge">
<title>Node7&#45;&gt;Node8</title>
<path fill="none" stroke="#191970" d="M275.6629,-37.9066C284.0896,-37.9066 292.559,-37.9066 300.6534,-37.9066"/>
<polygon fill="#191970" stroke="#191970" points="275.4335,-34.4067 265.4335,-37.9066 275.4334,-41.4067 275.4335,-34.4067"/>
</g>
<!-- Node9 -->
<g id="node4" class="node">
<title>Node9</title>
<g id="a_node4"><a xlink:href="classEngine.html#a0ba57971ffb5173ecc425461f65a4cd8" target="_top" xlink:title="Quits the game Sets m_running to false and quitting the game. ">
<polygon fill="none" stroke="#000000" points="443,-66.4066 443,-85.4066 547,-85.4066 547,-66.4066 443,-66.4066"/>
<text text-anchor="middle" x="495" y="-73.4066" font-family="Helvetica,sans-Serif" font-size="10.00" fill="#000000">Engine::quitGame</text>
</a>
</g>
</g>
<!-- Node8&#45;&gt;Node9 -->
<g id="edge3" class="edge">
<title>Node8&#45;&gt;Node9</title>
<path fill="none" stroke="#191970" d="M399.4398,-50.1528C418.875,-55.3906 441.2311,-61.4157 459.4311,-66.3207"/>
<polygon fill="#191970" stroke="#191970" points="400.1465,-46.7184 389.5803,-47.4956 398.325,-53.4773 400.1465,-46.7184"/>
</g>
<!-- Node14 -->
<g id="node9" class="node">
<title>Node14</title>
<g id="a_node9"><a xlink:href="classUIManager.html#aa78e356fc3b356d790c848319d1c387e" target="_top" xlink:title="UIManager::setCallbackFunctions">
<polygon fill="none" stroke="#000000" points="583,-28.4066 583,-47.4066 761,-47.4066 761,-28.4066 583,-28.4066"/>
<text text-anchor="middle" x="672" y="-35.4066" font-family="Helvetica,sans-Serif" font-size="10.00" fill="#000000">UIManager::setCallbackFunctions</text>
</a>
</g>
</g>
<!-- Node8&#45;&gt;Node14 -->
<g id="edge12" class="edge">
<title>Node8&#45;&gt;Node14</title>
<path fill="none" stroke="#191970" d="M417.3498,-37.9066C464.7184,-37.9066 530.1124,-37.9066 582.7707,-37.9066"/>
<polygon fill="#191970" stroke="#191970" points="417.2261,-34.4067 407.2261,-37.9066 417.226,-41.4067 417.2261,-34.4067"/>
</g>
<!-- Node16 -->
<g id="node11" class="node">
<title>Node16</title>
<g id="a_node11"><a xlink:href="classGame.html#a560299f0291c281f7b44e7ef0dd7b264" target="_top" xlink:title="initializes and displays the main menu initializes and displays the main menu ">
<polygon fill="none" stroke="#000000" points="797,-66.4066 797,-85.4066 900,-85.4066 900,-66.4066 797,-66.4066"/>
<text text-anchor="middle" x="848.5" y="-73.4066" font-family="Helvetica,sans-Serif" font-size="10.00" fill="#000000">Game::mainMenu</text>
</a>
</g>
</g>
<!-- Node8&#45;&gt;Node16 -->
<g id="edge13" class="edge">
<title>Node8&#45;&gt;Node16</title>
<path fill="none" stroke="#191970" d="M400.1831,-26.0602C476.9308,-8.4934 634.7778,18.5797 761,-18.9066 792.2834,-28.1973 822.8332,-52.6029 838.215,-66.2749"/>
<polygon fill="#191970" stroke="#191970" points="399.2857,-22.6756 390.3463,-28.3621 400.8808,-29.4914 399.2857,-22.6756"/>
</g>
<!-- Node10 -->
<g id="node5" class="node">
<title>Node10</title>
<g id="a_node5"><a xlink:href="classEventManager.html#a65ec91fd5016d4f9c4167fb8babed2df" target="_top" xlink:title="EventManager::checkEvents">
<polygon fill="none" stroke="#000000" points="595,-104.4066 595,-123.4066 749,-123.4066 749,-104.4066 595,-104.4066"/>
<text text-anchor="middle" x="672" y="-111.4066" font-family="Helvetica,sans-Serif" font-size="10.00" fill="#000000">EventManager::checkEvents</text>
</a>
</g>
</g>
<!-- Node9&#45;&gt;Node10 -->
<g id="edge4" class="edge">
<title>Node9&#45;&gt;Node10</title>
<path fill="none" stroke="#191970" d="M549.3541,-87.6628C560.4832,-90.0641 572.119,-92.5705 583,-94.9066 597.3662,-97.991 613.0401,-101.3418 627.1756,-104.3585"/>
<polygon fill="#191970" stroke="#191970" points="549.8256,-84.184 539.3121,-85.495 548.3484,-91.0264 549.8256,-84.184"/>
</g>
<!-- Node9&#45;&gt;Node14 -->
<g id="edge8" class="edge">
<title>Node9&#45;&gt;Node14</title>
<path fill="none" stroke="#191970" d="M549.3541,-64.1504C560.4832,-61.7491 572.119,-59.2427 583,-56.9066 597.3662,-53.8222 613.0401,-50.4713 627.1756,-47.4547"/>
<polygon fill="#191970" stroke="#191970" points="548.3484,-60.7868 539.3121,-66.3182 549.8256,-67.6292 548.3484,-60.7868"/>
</g>
<!-- Node15 -->
<g id="node10" class="node">
<title>Node15</title>
<g id="a_node10"><a xlink:href="classGame.html#a8272be134d16c277bb014ad6a22fc357" target="_top" xlink:title="Game::quit">
<polygon fill="none" stroke="#000000" points="636.5,-66.4066 636.5,-85.4066 707.5,-85.4066 707.5,-66.4066 636.5,-66.4066"/>
<text text-anchor="middle" x="672" y="-73.4066" font-family="Helvetica,sans-Serif" font-size="10.00" fill="#000000">Game::quit</text>
</a>
</g>
</g>
<!-- Node9&#45;&gt;Node15 -->
<g id="edge9" class="edge">
<title>Node9&#45;&gt;Node15</title>
<path fill="none" stroke="#191970" d="M557.4886,-75.9066C583.9691,-75.9066 613.8596,-75.9066 636.4608,-75.9066"/>
<polygon fill="#191970" stroke="#191970" points="557.1485,-72.4067 547.1485,-75.9066 557.1485,-79.4067 557.1485,-72.4067"/>
</g>
<!-- Node11 -->
<g id="node6" class="node">
<title>Node11</title>
<g id="a_node6"><a xlink:href="classGame.html#a1c2ab25d5216b2f4b2fe41efd2c09114" target="_top" xlink:title="begins the game starts running the game ">
<polygon fill="none" stroke="#000000" points="814.5,-104.4066 814.5,-123.4066 882.5,-123.4066 882.5,-104.4066 814.5,-104.4066"/>
<text text-anchor="middle" x="848.5" y="-111.4066" font-family="Helvetica,sans-Serif" font-size="10.00" fill="#000000">Game::run</text>
</a>
</g>
</g>
<!-- Node10&#45;&gt;Node11 -->
<g id="edge5" class="edge">
<title>Node10&#45;&gt;Node11</title>
<path fill="none" stroke="#191970" d="M759.3664,-113.9066C778.9355,-113.9066 798.5625,-113.9066 814.398,-113.9066"/>
<polygon fill="#191970" stroke="#191970" points="759.1587,-110.4067 749.1587,-113.9066 759.1587,-117.4067 759.1587,-110.4067"/>
</g>
<!-- Node12 -->
<g id="node7" class="node">
<title>Node12</title>
<g id="a_node7"><a xlink:href="main_8cxx.html#af582d708d899e67ead623eac34a22387" target="_top" xlink:title="protected_main">
<polygon fill="none" stroke="#000000" points="936,-85.4066 936,-104.4066 1029,-104.4066 1029,-85.4066 936,-85.4066"/>
<text text-anchor="middle" x="982.5" y="-92.4066" font-family="Helvetica,sans-Serif" font-size="10.00" fill="#000000">protected_main</text>
</a>
</g>
</g>
<!-- Node11&#45;&gt;Node12 -->
<g id="edge6" class="edge">
<title>Node11&#45;&gt;Node12</title>
<path fill="none" stroke="#191970" d="M892.8611,-107.6166C906.6278,-105.6646 921.8396,-103.5077 935.7626,-101.5335"/>
<polygon fill="#191970" stroke="#191970" points="892.0702,-104.1936 882.6606,-109.0629 893.0529,-111.1243 892.0702,-104.1936"/>
</g>
<!-- Node13 -->
<g id="node8" class="node">
<title>Node13</title>
<g id="a_node8"><a xlink:href="main_8cxx.html#a3c04138a5bfe5d72780bb7e82a18e627" target="_top" xlink:title="main">
<polygon fill="none" stroke="#000000" points="1065,-85.4066 1065,-104.4066 1106,-104.4066 1106,-85.4066 1065,-85.4066"/>
<text text-anchor="middle" x="1085.5" y="-92.4066" font-family="Helvetica,sans-Serif" font-size="10.00" fill="#000000">main</text>
</a>
</g>
</g>
<!-- Node12&#45;&gt;Node13 -->
<g id="edge7" class="edge">
<title>Node12&#45;&gt;Node13</title>
<path fill="none" stroke="#191970" d="M1039.2133,-94.9066C1048.4322,-94.9066 1057.4259,-94.9066 1064.9965,-94.9066"/>
<polygon fill="#191970" stroke="#191970" points="1039.1782,-91.4067 1029.1782,-94.9066 1039.1781,-98.4067 1039.1782,-91.4067"/>
</g>
<!-- Node15&#45;&gt;Node16 -->
<g id="edge10" class="edge">
<title>Node15&#45;&gt;Node16</title>
<path fill="none" stroke="#191970" d="M718.0403,-75.9066C742.1836,-75.9066 771.8403,-75.9066 796.7739,-75.9066"/>
<polygon fill="#191970" stroke="#191970" points="717.7174,-72.4067 707.7174,-75.9066 717.7174,-79.4067 717.7174,-72.4067"/>
</g>
<!-- Node16&#45;&gt;Node12 -->
<g id="edge11" class="edge">
<title>Node16&#45;&gt;Node12</title>
<path fill="none" stroke="#191970" d="M910.2457,-84.6616C918.7846,-85.8723 927.438,-87.0993 935.6465,-88.2632"/>
<polygon fill="#191970" stroke="#191970" points="910.7003,-81.1911 900.3079,-83.2525 909.7175,-88.1218 910.7003,-81.1911"/>
</g>
</g>
</svg>
        <g id="navigator" transform="translate(0 0)" fill="#404254">
                <rect fill="#f2f5e9" fill-opacity="0.5" stroke="#606060" stroke-width=".5" x="0" y="0" width="60" height="60"/>
                <use id="zoomplus" xlink:href="#zoomPlus" x="17" y="9" onmousedown="handleZoom(evt,'in')"/>
                <use id="zoomminus" xlink:href="#zoomMin" x="42" y="9" onmousedown="handleZoom(evt,'out')"/>
                <use id="reset" xlink:href="#resetDef" x="30" y="36" onmousedown="handleReset()"/>
                <g id="arrowUp" xlink:href="#dirArrow" transform="translate(30 24)" onmousedown="handlePan(0,-1)">
                  <use xlink:href="#rim" fill="#404040">
                        <set attributeName="fill" to="#808080" begin="arrowUp.mouseover" end="arrowUp.mouseout"/>
                  </use>
                  <path fill="none" stroke="white" stroke-width="1.5" d="M0,-3.0v7 M-2.5,-0.5L0,-3.0L2.5,-0.5"/>
                </g>
                <g id="arrowRight" xlink:href="#dirArrow" transform="rotate(90) translate(36 -43)" onmousedown="handlePan(1,0)">
                  <use xlink:href="#rim" fill="#404040">
                        <set attributeName="fill" to="#808080" begin="arrowRight.mouseover" end="arrowRight.mouseout"/>
                  </use>
                  <path fill="none" stroke="white" stroke-width="1.5" d="M0,-3.0v7 M-2.5,-0.5L0,-3.0L2.5,-0.5"/>
                </g>
                <g id="arrowDown" xlink:href="#dirArrow" transform="rotate(180) translate(-30 -48)" onmousedown="handlePan(0,1)">
                  <use xlink:href="#rim" fill="#404040">
                        <set attributeName="fill" to="#808080" begin="arrowDown.mouseover" end="arrowDown.mouseout"/>
                  </use>
                  <path fill="none" stroke="white" stroke-width="1.5" d="M0,-3.0v7 M-2.5,-0.5L0,-3.0L2.5,-0.5"/>
                </g>
                <g id="arrowLeft" xlink:href="#dirArrow" transform="rotate(270) translate(-36 17)" onmousedown="handlePan(-1,0)">
                  <use xlink:href="#rim" fill="#404040">
                        <set attributeName="fill" to="#808080" begin="arrowLeft.mouseover" end="arrowLeft.mouseout"/>
                  </use>
                  <path fill="none" stroke="white" stroke-width="1.5" d="M0,-3.0v7 M-2.5,-0.5L0,-3.0L2.5,-0.5"/>
                </g>
        </g>
        <svg viewBox="0 0 15 15" width="100%" height="30px" preserveAspectRatio="xMaxYMin meet">
         <g id="arrow_out" transform="scale(0.3 0.3)">
          <a xlink:href="compression_8hxx_a25f341059256700f2f3ffd62d8113956_icgraph_org.svg" target="_base">
           <rect id="button" ry="5" rx="5" y="6" x="6" height="38" width="38"
                fill="#f2f5e9" fill-opacity="0.5" stroke="#606060" stroke-width="1.0"/>
           <path id="arrow"
             d="M 11.500037,31.436501 C 11.940474,20.09759 22.043105,11.32322 32.158766,21.979434 L 37.068811,17.246167 C 37.068811,17.246167 37.088388,32 37.088388,32 L 22.160133,31.978069 C 22.160133,31.978069 26.997745,27.140456 26.997745,27.140456 C 18.528582,18.264221 13.291696,25.230495 11.500037,31.436501 z"
             style="fill:#404040;"/>
          </a>
         </g>
        </svg>
</svg>
