<?xml version="1.0" encoding="UTF-8" standalone="no"?>
<!DOCTYPE svg PUBLIC "-//W3C//DTD SVG 1.1//EN"
 "http://www.w3.org/Graphics/SVG/1.1/DTD/svg11.dtd">
<!-- Generated by graphviz version 2.40.1 (20161225.0304)
 -->
<!-- Title: src Pages: 1 -->
<svg width="246pt" height="292pt"
 viewBox="0.00 0.00 246.00 292.00" xmlns="http://www.w3.org/2000/svg" xmlns:xlink="http://www.w3.org/1999/xlink">
<g id="graph0" class="graph" transform="scale(1 1) rotate(0) translate(4 288)">
<title>src</title>
<g id="clust1" class="cluster">
<title>clusterdir_68267d1309a1af8e8297ef4c3efbcdba</title>
<g id="a_clust1"><a xlink:href="dir_68267d1309a1af8e8297ef4c3efbcdba.html" target="_top">
<polygon fill="#eeeeff" stroke="#000000" points="8,-8 8,-276 230,-276 230,-8 8,-8"/>
</a>
</g>
</g>
<!-- dir_68267d1309a1af8e8297ef4c3efbcdba -->
<g id="node1" class="node">
<title>dir_68267d1309a1af8e8297ef4c3efbcdba</title>
<text text-anchor="middle" x="195" y="-247.5" font-family="Helvetica,sans-Serif" font-size="10.00" fill="#000000">src</text>
</g>
<!-- dir_6e232b759d489f630412e22c99aac6d0 -->
<g id="node5" class="node">
<title>dir_6e232b759d489f630412e22c99aac6d0</title>
<g id="a_node5"><a xlink:href="dir_6e232b759d489f630412e22c99aac6d0.html" target="_top" xlink:title="Scripting">
<polygon fill="#ffffff" stroke="#000000" points="135.5,-196 76.5,-196 76.5,-160 135.5,-160 135.5,-196"/>
<text text-anchor="middle" x="106" y="-175.5" font-family="Helvetica,sans-Serif" font-size="10.00" fill="#000000">Scripting</text>
</a>
</g>
</g>
<!-- dir_68267d1309a1af8e8297ef4c3efbcdba&#45;&gt;dir_6e232b759d489f630412e22c99aac6d0 -->
<g id="edge2" class="edge">
<title>dir_68267d1309a1af8e8297ef4c3efbcdba&#45;&gt;dir_6e232b759d489f630412e22c99aac6d0</title>
<path fill="none" stroke="#000000" d="M172.5415,-231.8314C161.5795,-222.9632 148.2301,-212.1637 136.3735,-202.5718"/>
<polygon fill="#000000" stroke="#000000" points="138.4271,-199.7313 128.4513,-196.1628 134.0245,-205.1734 138.4271,-199.7313"/>
<g id="a_edge2&#45;headlabel"><a xlink:href="dir_000000_000013.html" target="_top" xlink:title="1">
<text text-anchor="middle" x="143.0075" y="-197.2847" font-family="Helvetica,sans-Serif" font-size="10.00" fill="#000000">1</text>
</a>
</g>
</g>
<!-- dir_1826a32a9d780ddbaf96ec88be56c4cd -->
<g id="node6" class="node">
<title>dir_1826a32a9d780ddbaf96ec88be56c4cd</title>
<g id="a_node6"><a xlink:href="dir_1826a32a9d780ddbaf96ec88be56c4cd.html" target="_top" xlink:title="services">
<polygon fill="#ffffff" stroke="#000000" points="217.5,-196 160.5,-196 160.5,-160 217.5,-160 217.5,-196"/>
<text text-anchor="middle" x="189" y="-175.5" font-family="Helvetica,sans-Serif" font-size="10.00" fill="#000000">services</text>
</a>
</g>
</g>
<!-- dir_68267d1309a1af8e8297ef4c3efbcdba&#45;&gt;dir_1826a32a9d780ddbaf96ec88be56c4cd -->
<g id="edge3" class="edge">
<title>dir_68267d1309a1af8e8297ef4c3efbcdba&#45;&gt;dir_1826a32a9d780ddbaf96ec88be56c4cd</title>
<path fill="none" stroke="#000000" d="M193.4859,-231.8314C192.8442,-224.131 192.0812,-214.9743 191.3681,-206.4166"/>
<polygon fill="#000000" stroke="#000000" points="194.8529,-206.088 190.5344,-196.4133 187.8771,-206.6694 194.8529,-206.088"/>
<g id="a_edge3&#45;headlabel"><a xlink:href="dir_000000_000014.html" target="_top" xlink:title="3">
<text text-anchor="middle" x="197.9808" y="-206.9345" font-family="Helvetica,sans-Serif" font-size="10.00" fill="#000000">3</text>
</a>
</g>
</g>
<!-- dir_659facb5ea1bf65b3deecf95a0be0132 -->
<g id="node2" class="node">
<title>dir_659facb5ea1bf65b3deecf95a0be0132</title>
<g id="a_node2"><a xlink:href="dir_659facb5ea1bf65b3deecf95a0be0132.html" target="_top" xlink:title="doc">
<polygon fill="#ffffff" stroke="#000000" points="150,-268 96,-268 96,-232 150,-232 150,-268"/>
<text text-anchor="middle" x="123" y="-247.5" font-family="Helvetica,sans-Serif" font-size="10.00" fill="#000000">doc</text>
</a>
</g>
</g>
<!-- dir_2052808828190f934b76e979ee65af8a -->
<g id="node3" class="node">
<title>dir_2052808828190f934b76e979ee65af8a</title>
<g id="a_node3"><a xlink:href="dir_2052808828190f934b76e979ee65af8a.html" target="_top" xlink:title="engine">
<polygon fill="#ffffff" stroke="#ff0000" points="153,-52 99,-52 99,-16 153,-16 153,-52"/>
<text text-anchor="middle" x="126" y="-31.5" font-family="Helvetica,sans-Serif" font-size="10.00" fill="#000000">engine</text>
</a>
</g>
</g>
<!-- dir_b7878ad5ecbf2506f4125b9d34c97e45 -->
<g id="node7" class="node">
<title>dir_b7878ad5ecbf2506f4125b9d34c97e45</title>
<g id="a_node7"><a xlink:href="dir_b7878ad5ecbf2506f4125b9d34c97e45.html" target="_top" xlink:title="util">
<polygon fill="#ffffff" stroke="#ff0000" points="130,-124 76,-124 76,-88 130,-88 130,-124"/>
<text text-anchor="middle" x="103" y="-103.5" font-family="Helvetica,sans-Serif" font-size="10.00" fill="#000000">util</text>
</a>
</g>
</g>
<!-- dir_2052808828190f934b76e979ee65af8a&#45;&gt;dir_b7878ad5ecbf2506f4125b9d34c97e45 -->
<g id="edge1" class="edge">
<title>dir_2052808828190f934b76e979ee65af8a&#45;&gt;dir_b7878ad5ecbf2506f4125b9d34c97e45</title>
<path fill="none" stroke="#000000" d="M126.094,-52.4133C124.3256,-60.3141 121.5255,-69.7132 118.3945,-78.417"/>
<polygon fill="#000000" stroke="#000000" points="115.0964,-77.242 114.7563,-87.8314 121.6258,-79.7653 115.0964,-77.242"/>
<g id="a_edge1&#45;headlabel"><a xlink:href="dir_000002_000015.html" target="_top" xlink:title="45">
<text text-anchor="middle" x="113.7437" y="-70.3656" font-family="Helvetica,sans-Serif" font-size="10.00" fill="#000000">45</text>
</a>
</g>
</g>
<!-- dir_14e1e259e8275dc0c459acef3bbf05ae -->
<g id="node4" class="node">
<title>dir_14e1e259e8275dc0c459acef3bbf05ae</title>
<g id="a_node4"><a xlink:href="dir_14e1e259e8275dc0c459acef3bbf05ae.html" target="_top" xlink:title="events">
<polygon fill="#ffffff" stroke="#000000" points="222,-124 168,-124 168,-88 222,-88 222,-124"/>
<text text-anchor="middle" x="195" y="-103.5" font-family="Helvetica,sans-Serif" font-size="10.00" fill="#000000">events</text>
</a>
</g>
</g>
<!-- dir_14e1e259e8275dc0c459acef3bbf05ae&#45;&gt;dir_2052808828190f934b76e979ee65af8a -->
<g id="edge9" class="edge">
<title>dir_14e1e259e8275dc0c459acef3bbf05ae&#45;&gt;dir_2052808828190f934b76e979ee65af8a</title>
<path fill="none" stroke="#000000" d="M177.5884,-87.8314C169.479,-79.3694 159.6844,-69.1489 150.818,-59.8971"/>
<polygon fill="#000000" stroke="#000000" points="153.0921,-57.2115 143.646,-52.4133 148.0382,-62.0549 153.0921,-57.2115"/>
<g id="a_edge9&#45;headlabel"><a xlink:href="dir_000012_000002.html" target="_top" xlink:title="2">
<text text-anchor="middle" x="157.6291" y="-55.3422" font-family="Helvetica,sans-Serif" font-size="10.00" fill="#000000">2</text>
</a>
</g>
</g>
<!-- dir_6e232b759d489f630412e22c99aac6d0&#45;&gt;dir_b7878ad5ecbf2506f4125b9d34c97e45 -->
<g id="edge5" class="edge">
<title>dir_6e232b759d489f630412e22c99aac6d0&#45;&gt;dir_b7878ad5ecbf2506f4125b9d34c97e45</title>
<path fill="none" stroke="#000000" d="M105.243,-159.8314C104.9221,-152.131 104.5406,-142.9743 104.184,-134.4166"/>
<polygon fill="#000000" stroke="#000000" points="107.6806,-134.2589 103.7672,-124.4133 100.6867,-134.5503 107.6806,-134.2589"/>
<g id="a_edge5&#45;headlabel"><a xlink:href="dir_000013_000015.html" target="_top" xlink:title="1">
<text text-anchor="middle" x="110.6669" y="-135.2322" font-family="Helvetica,sans-Serif" font-size="10.00" fill="#000000">1</text>
</a>
</g>
</g>
<!-- dir_1826a32a9d780ddbaf96ec88be56c4cd&#45;&gt;dir_2052808828190f934b76e979ee65af8a -->
<g id="edge6" class="edge">
<title>dir_1826a32a9d780ddbaf96ec88be56c4cd&#45;&gt;dir_2052808828190f934b76e979ee65af8a</title>
<path fill="none" stroke="#000000" d="M177.9995,-159.8727C171.9796,-149.5604 164.6242,-136.287 159,-124 149.6923,-103.666 141.0636,-79.8817 134.9656,-61.8717"/>
<polygon fill="#000000" stroke="#000000" points="138.246,-60.6444 131.7659,-52.2623 131.6045,-62.8559 138.246,-60.6444"/>
<g id="a_edge6&#45;headlabel"><a xlink:href="dir_000014_000002.html" target="_top" xlink:title="6">
<text text-anchor="middle" x="142.0754" y="-60.6579" font-family="Helvetica,sans-Serif" font-size="10.00" fill="#000000">6</text>
</a>
</g>
</g>
<!-- dir_1826a32a9d780ddbaf96ec88be56c4cd&#45;&gt;dir_14e1e259e8275dc0c459acef3bbf05ae -->
<g id="edge8" class="edge">
<title>dir_1826a32a9d780ddbaf96ec88be56c4cd&#45;&gt;dir_14e1e259e8275dc0c459acef3bbf05ae</title>
<path fill="none" stroke="#000000" d="M190.5141,-159.8314C191.1558,-152.131 191.9188,-142.9743 192.6319,-134.4166"/>
<polygon fill="#000000" stroke="#000000" points="196.1229,-134.6694 193.4656,-124.4133 189.1471,-134.088 196.1229,-134.6694"/>
<g id="a_edge8&#45;headlabel"><a xlink:href="dir_000014_000012.html" target="_top" xlink:title="1">
<text text-anchor="middle" x="198.654" y="-135.9874" font-family="Helvetica,sans-Serif" font-size="10.00" fill="#000000">1</text>
</a>
</g>
</g>
<!-- dir_1826a32a9d780ddbaf96ec88be56c4cd&#45;&gt;dir_b7878ad5ecbf2506f4125b9d34c97e45 -->
<g id="edge7" class="edge">
<title>dir_1826a32a9d780ddbaf96ec88be56c4cd&#45;&gt;dir_b7878ad5ecbf2506f4125b9d34c97e45</title>
<path fill="none" stroke="#000000" d="M167.2986,-159.8314C156.8079,-151.0485 144.0545,-140.3712 132.6806,-130.8489"/>
<polygon fill="#000000" stroke="#000000" points="134.6089,-127.8986 124.6945,-124.1628 130.1153,-133.2659 134.6089,-127.8986"/>
<g id="a_edge7&#45;headlabel"><a xlink:href="dir_000014_000015.html" target="_top" xlink:title="10">
<text text-anchor="middle" x="139.1877" y="-125.529" font-family="Helvetica,sans-Serif" font-size="10.00" fill="#000000">10</text>
</a>
</g>
</g>
<!-- dir_b7878ad5ecbf2506f4125b9d34c97e45&#45;&gt;dir_2052808828190f934b76e979ee65af8a -->
<g id="edge4" class="edge">
<title>dir_b7878ad5ecbf2506f4125b9d34c97e45&#45;&gt;dir_2052808828190f934b76e979ee65af8a</title>
<path fill="none" stroke="#000000" d="M102.8515,-87.8314C104.5985,-79.9617 107.3844,-70.5712 110.5085,-61.8533"/>
<polygon fill="#000000" stroke="#000000" points="113.8161,-63.0031 114.142,-52.4133 107.2834,-60.4885 113.8161,-63.0031"/>
<g id="a_edge4&#45;headlabel"><a xlink:href="dir_000015_000002.html" target="_top" xlink:title="3">
<text text-anchor="middle" x="115.1747" y="-64.8777" font-family="Helvetica,sans-Serif" font-size="10.00" fill="#000000">3</text>
</a>
</g>
</g>
<!-- dir_85ebecfd8b3c6e060c2257c3b57eaa6c -->
<g id="node8" class="node">
<title>dir_85ebecfd8b3c6e060c2257c3b57eaa6c</title>
<g id="a_node8"><a xlink:href="dir_85ebecfd8b3c6e060c2257c3b57eaa6c.html" target="_top" xlink:title="Windows">
<polygon fill="#ffffff" stroke="#000000" points="77.5,-268 16.5,-268 16.5,-232 77.5,-232 77.5,-268"/>
<text text-anchor="middle" x="47" y="-247.5" font-family="Helvetica,sans-Serif" font-size="10.00" fill="#000000">Windows</text>
</a>
</g>
</g>
</g>
</svg>
