<?xml version="1.0" encoding="UTF-8" standalone="no"?>
<!DOCTYPE svg PUBLIC "-//W3C//DTD SVG 1.1//EN"
 "http://www.w3.org/Graphics/SVG/1.1/DTD/svg11.dtd">
<!-- Generated by graphviz version 2.40.1 (20161225.0304)
 -->
<!-- Title: src/services Pages: 1 -->
<svg width="99pt" height="295pt"
 viewBox="0.00 0.00 99.43 295.00" xmlns="http://www.w3.org/2000/svg" xmlns:xlink="http://www.w3.org/1999/xlink">
<g id="graph0" class="graph" transform="scale(1 1) rotate(0) translate(4 291)">
<title>src/services</title>
<g id="clust1" class="cluster">
<title>clusterdir_68267d1309a1af8e8297ef4c3efbcdba</title>
<g id="a_clust1"><a xlink:href="dir_68267d1309a1af8e8297ef4c3efbcdba.html" target="_top" xlink:title="src">
<polygon fill="#ddddee" stroke="#000000" points="8,-208 8,-279 82,-279 82,-208 8,-208"/>
<text text-anchor="middle" x="45" y="-267" font-family="Helvetica,sans-Serif" font-size="10.00" fill="#000000">src</text>
</a>
</g>
</g>
<!-- dir_1826a32a9d780ddbaf96ec88be56c4cd -->
<g id="node1" class="node">
<title>dir_1826a32a9d780ddbaf96ec88be56c4cd</title>
<g id="a_node1"><a xlink:href="dir_1826a32a9d780ddbaf96ec88be56c4cd.html" target="_top" xlink:title="services">
<polygon fill="#eeeeff" stroke="#000000" points="73.5,-252 16.5,-252 16.5,-216 73.5,-216 73.5,-252"/>
<text text-anchor="middle" x="45" y="-231.5" font-family="Helvetica,sans-Serif" font-size="10.00" fill="#000000">services</text>
</a>
</g>
</g>
<!-- dir_2052808828190f934b76e979ee65af8a -->
<g id="node2" class="node">
<title>dir_2052808828190f934b76e979ee65af8a</title>
<g id="a_node2"><a xlink:href="dir_2052808828190f934b76e979ee65af8a.html" target="_top" xlink:title="engine">
<polygon fill="none" stroke="#ff0000" points="72,-108 18,-108 18,-72 72,-72 72,-108"/>
<text text-anchor="middle" x="45" y="-87.5" font-family="Helvetica,sans-Serif" font-size="10.00" fill="#000000">engine</text>
</a>
</g>
</g>
<!-- dir_1826a32a9d780ddbaf96ec88be56c4cd&#45;&gt;dir_2052808828190f934b76e979ee65af8a -->
<g id="edge3" class="edge">
<title>dir_1826a32a9d780ddbaf96ec88be56c4cd&#45;&gt;dir_2052808828190f934b76e979ee65af8a</title>
<path fill="none" stroke="#000000" d="M29.0095,-215.9169C21.3462,-206.0371 12.9834,-193.1563 9,-180 4.3635,-164.6865 4.3635,-159.3135 9,-144 11.9564,-134.2355 17.3252,-124.6229 23.03,-116.2762"/>
<polygon fill="#000000" stroke="#000000" points="25.9414,-118.2239 29.0095,-108.0831 20.2871,-114.0973 25.9414,-118.2239"/>
<g id="a_edge3&#45;headlabel"><a xlink:href="dir_000014_000002.html" target="_top" xlink:title="6">
<text text-anchor="middle" x="26.1158" y="-120.3013" font-family="Helvetica,sans-Serif" font-size="10.00" fill="#000000">6</text>
</a>
</g>
</g>
<!-- dir_b7878ad5ecbf2506f4125b9d34c97e45 -->
<g id="node3" class="node">
<title>dir_b7878ad5ecbf2506f4125b9d34c97e45</title>
<g id="a_node3"><a xlink:href="dir_b7878ad5ecbf2506f4125b9d34c97e45.html" target="_top" xlink:title="util">
<polygon fill="none" stroke="#ff0000" points="72,-36 18,-36 18,0 72,0 72,-36"/>
<text text-anchor="middle" x="45" y="-15.5" font-family="Helvetica,sans-Serif" font-size="10.00" fill="#000000">util</text>
</a>
</g>
</g>
<!-- dir_1826a32a9d780ddbaf96ec88be56c4cd&#45;&gt;dir_b7878ad5ecbf2506f4125b9d34c97e45 -->
<g id="edge4" class="edge">
<title>dir_1826a32a9d780ddbaf96ec88be56c4cd&#45;&gt;dir_b7878ad5ecbf2506f4125b9d34c97e45</title>
<path fill="none" stroke="#000000" d="M60.9905,-215.9169C68.6538,-206.0371 77.0166,-193.1563 81,-180 94.9096,-134.0596 94.9096,-117.9404 81,-72 78.0436,-62.2355 72.6748,-52.6229 66.97,-44.2762"/>
<polygon fill="#000000" stroke="#000000" points="69.7129,-42.0973 60.9905,-36.0831 64.0586,-46.2239 69.7129,-42.0973"/>
<g id="a_edge4&#45;headlabel"><a xlink:href="dir_000014_000015.html" target="_top" xlink:title="10">
<text text-anchor="middle" x="74.1253" y="-40.827" font-family="Helvetica,sans-Serif" font-size="10.00" fill="#000000">10</text>
</a>
</g>
</g>
<!-- dir_14e1e259e8275dc0c459acef3bbf05ae -->
<g id="node4" class="node">
<title>dir_14e1e259e8275dc0c459acef3bbf05ae</title>
<g id="a_node4"><a xlink:href="dir_14e1e259e8275dc0c459acef3bbf05ae.html" target="_top" xlink:title="events">
<polygon fill="none" stroke="#000000" points="72,-180 18,-180 18,-144 72,-144 72,-180"/>
<text text-anchor="middle" x="45" y="-159.5" font-family="Helvetica,sans-Serif" font-size="10.00" fill="#000000">events</text>
</a>
</g>
</g>
<!-- dir_1826a32a9d780ddbaf96ec88be56c4cd&#45;&gt;dir_14e1e259e8275dc0c459acef3bbf05ae -->
<g id="edge5" class="edge">
<title>dir_1826a32a9d780ddbaf96ec88be56c4cd&#45;&gt;dir_14e1e259e8275dc0c459acef3bbf05ae</title>
<path fill="none" stroke="#000000" d="M45,-215.8314C45,-208.131 45,-198.9743 45,-190.4166"/>
<polygon fill="#000000" stroke="#000000" points="48.5001,-190.4132 45,-180.4133 41.5001,-190.4133 48.5001,-190.4132"/>
<g id="a_edge5&#45;headlabel"><a xlink:href="dir_000014_000012.html" target="_top" xlink:title="1">
<text text-anchor="middle" x="51.3393" y="-191.5079" font-family="Helvetica,sans-Serif" font-size="10.00" fill="#000000">1</text>
</a>
</g>
</g>
<!-- dir_2052808828190f934b76e979ee65af8a&#45;&gt;dir_b7878ad5ecbf2506f4125b9d34c97e45 -->
<g id="edge1" class="edge">
<title>dir_2052808828190f934b76e979ee65af8a&#45;&gt;dir_b7878ad5ecbf2506f4125b9d34c97e45</title>
<path fill="none" stroke="#000000" d="M39.0476,-71.8314C38.2972,-64.131 38.0763,-54.9743 38.3849,-46.4166"/>
<polygon fill="#000000" stroke="#000000" points="41.8792,-46.6161 39.024,-36.4133 34.8935,-46.1697 41.8792,-46.6161"/>
<g id="a_edge1&#45;headlabel"><a xlink:href="dir_000002_000015.html" target="_top" xlink:title="45">
<text text-anchor="middle" x="44.4836" y="-47.8844" font-family="Helvetica,sans-Serif" font-size="10.00" fill="#000000">45</text>
</a>
</g>
</g>
<!-- dir_b7878ad5ecbf2506f4125b9d34c97e45&#45;&gt;dir_2052808828190f934b76e979ee65af8a -->
<g id="edge2" class="edge">
<title>dir_b7878ad5ecbf2506f4125b9d34c97e45&#45;&gt;dir_2052808828190f934b76e979ee65af8a</title>
<path fill="none" stroke="#000000" d="M50.976,-36.4133C51.7071,-44.0593 51.9203,-53.1084 51.6155,-61.5726"/>
<polygon fill="#000000" stroke="#000000" points="48.1048,-61.6264 50.9524,-71.8314 55.0902,-62.078 48.1048,-61.6264"/>
<g id="a_edge2&#45;headlabel"><a xlink:href="dir_000015_000002.html" target="_top" xlink:title="3">
<text text-anchor="middle" x="45.5032" y="-55.3562" font-family="Helvetica,sans-Serif" font-size="10.00" fill="#000000">3</text>
</a>
</g>
</g>
<!-- dir_14e1e259e8275dc0c459acef3bbf05ae&#45;&gt;dir_2052808828190f934b76e979ee65af8a -->
<g id="edge6" class="edge">
<title>dir_14e1e259e8275dc0c459acef3bbf05ae&#45;&gt;dir_2052808828190f934b76e979ee65af8a</title>
<path fill="none" stroke="#000000" d="M45,-143.8314C45,-136.131 45,-126.9743 45,-118.4166"/>
<polygon fill="#000000" stroke="#000000" points="48.5001,-118.4132 45,-108.4133 41.5001,-118.4133 48.5001,-118.4132"/>
<g id="a_edge6&#45;headlabel"><a xlink:href="dir_000012_000002.html" target="_top" xlink:title="2">
<text text-anchor="middle" x="51.3393" y="-119.5079" font-family="Helvetica,sans-Serif" font-size="10.00" fill="#000000">2</text>
</a>
</g>
</g>
</g>
</svg>
