<?xml version="1.0" encoding="UTF-8" standalone="no"?>
<!DOCTYPE svg PUBLIC "-//W3C//DTD SVG 1.1//EN"
 "http://www.w3.org/Graphics/SVG/1.1/DTD/svg11.dtd">
<!-- Generated by graphviz version 2.40.1 (20161225.0304)
 -->
<!-- Title: src/util/Exception.hxx Pages: 1 -->
<svg width="4390pt" height="263pt"
 viewBox="0.00 0.00 4390.39 263.00" xmlns="http://www.w3.org/2000/svg" xmlns:xlink="http://www.w3.org/1999/xlink">
<g id="graph0" class="graph" transform="scale(1 1) rotate(0) translate(4 259)">
<title>src/util/Exception.hxx</title>
<!-- Node3 -->
<g id="node1" class="node">
<title>Node3</title>
<polygon fill="#bfbfbf" stroke="#000000" points="1288,-235.5 1288,-254.5 1410,-254.5 1410,-235.5 1288,-235.5"/>
<text text-anchor="middle" x="1349" y="-242.5" font-family="Helvetica,sans-Serif" font-size="10.00" fill="#000000">src/util/Exception.hxx</text>
</g>
<!-- Node4 -->
<g id="node2" class="node">
<title>Node4</title>
<g id="a_node2"><a xlink:href="compression_8hxx.html" target="_top" xlink:title="src/engine/basics/compression.hxx">
<polygon fill="none" stroke="#000000" points="1517.5,-118 1517.5,-137 1704.5,-137 1704.5,-118 1517.5,-118"/>
<text text-anchor="middle" x="1611" y="-125" font-family="Helvetica,sans-Serif" font-size="10.00" fill="#000000">src/engine/basics/compression.hxx</text>
</a>
</g>
</g>
<!-- Node3&#45;&gt;Node4 -->
<g id="edge1" class="edge">
<title>Node3&#45;&gt;Node4</title>
<path fill="none" stroke="#191970" d="M1379.8058,-231.1844C1433.5978,-207.0601 1543.3294,-157.8484 1589.6306,-137.0836"/>
<polygon fill="#191970" stroke="#191970" points="1378.1327,-228.0988 1370.4406,-235.3845 1380.9972,-234.4859 1378.1327,-228.0988"/>
</g>
<!-- Node6 -->
<g id="node4" class="node">
<title>Node6</title>
<g id="a_node4"><a xlink:href="Settings_8cxx.html" target="_top" xlink:title="src/engine/basics/Settings.cxx">
<polygon fill="none" stroke="#000000" points="0,-118 0,-137 164,-137 164,-118 0,-118"/>
<text text-anchor="middle" x="82" y="-125" font-family="Helvetica,sans-Serif" font-size="10.00" fill="#000000">src/engine/basics/Settings.cxx</text>
</a>
</g>
</g>
<!-- Node3&#45;&gt;Node6 -->
<g id="edge3" class="edge">
<title>Node3&#45;&gt;Node6</title>
<path fill="none" stroke="#191970" d="M1277.5708,-241.9706C1146.7457,-236.0948 859.9571,-221.6971 619,-199 420.1018,-180.2646 370.6296,-172.224 173,-143 160.9511,-141.2183 148.036,-139.1284 135.8309,-137.0703"/>
<polygon fill="#191970" stroke="#191970" points="1277.7063,-245.48 1287.8524,-242.4292 1278.0183,-238.487 1277.7063,-245.48"/>
</g>
<!-- Node7 -->
<g id="node5" class="node">
<title>Node7</title>
<g id="a_node5"><a xlink:href="TerrainGenerator_8cxx.html" target="_top" xlink:title="src/engine/map/TerrainGenerator.cxx">
<polygon fill="none" stroke="#000000" points="182,-118 182,-137 378,-137 378,-118 182,-118"/>
<text text-anchor="middle" x="280" y="-125" font-family="Helvetica,sans-Serif" font-size="10.00" fill="#000000">src/engine/map/TerrainGenerator.cxx</text>
</a>
</g>
</g>
<!-- Node3&#45;&gt;Node7 -->
<g id="edge4" class="edge">
<title>Node3&#45;&gt;Node7</title>
<path fill="none" stroke="#191970" d="M1277.7204,-240.6358C1169.8262,-233.714 958.6701,-218.9331 780,-199 604.6568,-179.438 561.6377,-168.0913 387,-143 373.6228,-141.078 359.3064,-139.0111 345.6372,-137.0327"/>
<polygon fill="#191970" stroke="#191970" points="1277.6323,-244.1372 1287.8348,-241.2811 1278.078,-237.1514 1277.6323,-244.1372"/>
</g>
<!-- Node8 -->
<g id="node6" class="node">
<title>Node8</title>
<g id="a_node6"><a xlink:href="ResourcesManager_8cxx.html" target="_top" xlink:title="src/engine/ResourcesManager.cxx">
<polygon fill="none" stroke="#000000" points="396.5,-118 396.5,-137 577.5,-137 577.5,-118 396.5,-118"/>
<text text-anchor="middle" x="487" y="-125" font-family="Helvetica,sans-Serif" font-size="10.00" fill="#000000">src/engine/ResourcesManager.cxx</text>
</a>
</g>
</g>
<!-- Node3&#45;&gt;Node8 -->
<g id="edge5" class="edge">
<title>Node3&#45;&gt;Node8</title>
<path fill="none" stroke="#191970" d="M1277.7148,-238.8598C1191.0726,-231.0826 1040.5085,-216.5564 912,-199 776.1513,-180.4409 617.0197,-151.8152 537.5466,-137.0444"/>
<polygon fill="#191970" stroke="#191970" points="1277.4286,-242.3481 1287.7004,-239.7517 1278.0514,-235.3759 1277.4286,-242.3481"/>
</g>
<!-- Node9 -->
<g id="node7" class="node">
<title>Node9</title>
<g id="a_node7"><a xlink:href="Sprite_8cxx.html" target="_top" xlink:title="src/engine/Sprite.cxx">
<polygon fill="none" stroke="#000000" points="595.5,-118 595.5,-137 714.5,-137 714.5,-118 595.5,-118"/>
<text text-anchor="middle" x="655" y="-125" font-family="Helvetica,sans-Serif" font-size="10.00" fill="#000000">src/engine/Sprite.cxx</text>
</a>
</g>
</g>
<!-- Node3&#45;&gt;Node9 -->
<g id="edge6" class="edge">
<title>Node3&#45;&gt;Node9</title>
<path fill="none" stroke="#191970" d="M1277.9606,-235.3112C1214.0492,-226.4315 1117.6209,-212.6304 1034,-199 895.3843,-176.4054 860.6139,-171.0582 723,-143 714.1018,-141.1857 704.5809,-139.1041 695.5659,-137.0676"/>
<polygon fill="#191970" stroke="#191970" points="1277.546,-238.7871 1287.9318,-236.6933 1278.5071,-231.8534 1277.546,-238.7871"/>
</g>
<!-- Node10 -->
<g id="node8" class="node">
<title>Node10</title>
<g id="a_node8"><a xlink:href="TileManager_8cxx.html" target="_top" xlink:title="src/engine/TileManager.cxx">
<polygon fill="none" stroke="#000000" points="732.5,-118 732.5,-137 881.5,-137 881.5,-118 732.5,-118"/>
<text text-anchor="middle" x="807" y="-125" font-family="Helvetica,sans-Serif" font-size="10.00" fill="#000000">src/engine/TileManager.cxx</text>
</a>
</g>
</g>
<!-- Node3&#45;&gt;Node10 -->
<g id="edge7" class="edge">
<title>Node3&#45;&gt;Node10</title>
<path fill="none" stroke="#191970" d="M1291.3869,-233.4757C1246.1076,-224.3443 1181.4712,-211.1458 1125,-199 1025.4213,-177.5826 908.6608,-150.9349 848.1106,-137.0004"/>
<polygon fill="#191970" stroke="#191970" points="1290.822,-236.9321 1301.3163,-235.4755 1292.2042,-230.0699 1290.822,-236.9321"/>
</g>
<!-- Node11 -->
<g id="node9" class="node">
<title>Node11</title>
<g id="a_node9"><a xlink:href="UIElement_8cxx.html" target="_top" xlink:title="src/engine/ui/basics\l/UIElement.cxx">
<polygon fill="none" stroke="#000000" points="899.5,-112.5 899.5,-142.5 1012.5,-142.5 1012.5,-112.5 899.5,-112.5"/>
<text text-anchor="start" x="907.5" y="-130.5" font-family="Helvetica,sans-Serif" font-size="10.00" fill="#000000">src/engine/ui/basics</text>
<text text-anchor="middle" x="956" y="-119.5" font-family="Helvetica,sans-Serif" font-size="10.00" fill="#000000">/UIElement.cxx</text>
</a>
</g>
</g>
<!-- Node3&#45;&gt;Node11 -->
<g id="edge8" class="edge">
<title>Node3&#45;&gt;Node11</title>
<path fill="none" stroke="#191970" d="M1307.4427,-232.5751C1234.7474,-210.8405 1084.7868,-166.005 1006.3346,-142.5492"/>
<polygon fill="#191970" stroke="#191970" points="1306.5885,-235.9727 1317.1721,-235.484 1308.5937,-229.2661 1306.5885,-235.9727"/>
</g>
<!-- Node12 -->
<g id="node10" class="node">
<title>Node12</title>
<g id="a_node10"><a xlink:href="Text_8cxx.html" target="_top" xlink:title="src/engine/ui/widgets\l/Text.cxx">
<polygon fill="none" stroke="#000000" points="1031,-112.5 1031,-142.5 1151,-142.5 1151,-112.5 1031,-112.5"/>
<text text-anchor="start" x="1039" y="-130.5" font-family="Helvetica,sans-Serif" font-size="10.00" fill="#000000">src/engine/ui/widgets</text>
<text text-anchor="middle" x="1091" y="-119.5" font-family="Helvetica,sans-Serif" font-size="10.00" fill="#000000">/Text.cxx</text>
</a>
</g>
</g>
<!-- Node3&#45;&gt;Node12 -->
<g id="edge9" class="edge">
<title>Node3&#45;&gt;Node12</title>
<path fill="none" stroke="#191970" d="M1318.4851,-231.1027C1269.6486,-208.8613 1174.3204,-165.4463 1123.9728,-142.5167"/>
<polygon fill="#191970" stroke="#191970" points="1317.3355,-234.425 1327.8868,-235.3845 1320.2368,-228.0545 1317.3355,-234.425"/>
</g>
<!-- Node13 -->
<g id="node11" class="node">
<title>Node13</title>
<g id="a_node11"><a xlink:href="UIManager_8cxx.html" target="_top" xlink:title="src/engine/UIManager.cxx">
<polygon fill="none" stroke="#000000" points="1169,-118 1169,-137 1311,-137 1311,-118 1169,-118"/>
<text text-anchor="middle" x="1240" y="-125" font-family="Helvetica,sans-Serif" font-size="10.00" fill="#000000">src/engine/UIManager.cxx</text>
</a>
</g>
</g>
<!-- Node3&#45;&gt;Node13 -->
<g id="edge10" class="edge">
<title>Node3&#45;&gt;Node13</title>
<path fill="none" stroke="#191970" d="M1332.9983,-227.7505C1309.7804,-202.722 1267.5132,-157.1587 1249.0432,-137.2484"/>
<polygon fill="#191970" stroke="#191970" points="1330.7132,-230.4335 1340.0801,-235.3845 1335.8451,-225.6729 1330.7132,-230.4335"/>
</g>
<!-- Node14 -->
<g id="node12" class="node">
<title>Node14</title>
<g id="a_node12"><a xlink:href="WindowManager_8cxx.html" target="_top" xlink:title="src/engine/WindowManager.cxx">
<polygon fill="none" stroke="#000000" points="1329,-118 1329,-137 1499,-137 1499,-118 1329,-118"/>
<text text-anchor="middle" x="1414" y="-125" font-family="Helvetica,sans-Serif" font-size="10.00" fill="#000000">src/engine/WindowManager.cxx</text>
</a>
</g>
</g>
<!-- Node3&#45;&gt;Node14 -->
<g id="edge11" class="edge">
<title>Node3&#45;&gt;Node14</title>
<path fill="none" stroke="#191970" d="M1359.2748,-226.4263C1373.2602,-201.1449 1397.7846,-156.8124 1408.6073,-137.2484"/>
<polygon fill="#191970" stroke="#191970" points="1356.0973,-224.9399 1354.3192,-235.3845 1362.2225,-228.3284 1356.0973,-224.9399"/>
</g>
<!-- Node15 -->
<g id="node13" class="node">
<title>Node15</title>
<g id="a_node13"><a xlink:href="Game_8hxx.html" target="_top" xlink:title="src/Game.hxx">
<polygon fill="none" stroke="#000000" points="3870,-56.5 3870,-75.5 3954,-75.5 3954,-56.5 3870,-56.5"/>
<text text-anchor="middle" x="3912" y="-63.5" font-family="Helvetica,sans-Serif" font-size="10.00" fill="#000000">src/Game.hxx</text>
</a>
</g>
</g>
<!-- Node3&#45;&gt;Node15 -->
<g id="edge12" class="edge">
<title>Node3&#45;&gt;Node15</title>
<path fill="none" stroke="#191970" d="M1420.2735,-244.7931C1782.104,-243.5803 3418.2512,-236.104 3925,-199 4118.9687,-184.7977 4230.5769,-289.0585 4359,-143 4368.0977,-132.653 4368.2302,-122.2289 4359,-112 4332.1491,-82.2441 4060.3675,-70.6188 3954.1861,-67.1901"/>
<polygon fill="#191970" stroke="#191970" points="1420.1824,-241.2933 1410.1941,-244.8264 1420.2056,-248.2933 1420.1824,-241.2933"/>
</g>
<!-- Node17 -->
<g id="node15" class="node">
<title>Node17</title>
<g id="a_node15"><a xlink:href="main_8cxx.html" target="_top" xlink:title="src/main.cxx">
<polygon fill="none" stroke="#000000" points="3942.5,-.5 3942.5,-19.5 4021.5,-19.5 4021.5,-.5 3942.5,-.5"/>
<text text-anchor="middle" x="3982" y="-7.5" font-family="Helvetica,sans-Serif" font-size="10.00" fill="#000000">src/main.cxx</text>
</a>
</g>
</g>
<!-- Node3&#45;&gt;Node17 -->
<g id="edge15" class="edge">
<title>Node3&#45;&gt;Node17</title>
<path fill="none" stroke="#191970" d="M1420.434,-244.7299C1828.8633,-243.0647 3859.7481,-233.1143 4136,-199 4244.7062,-185.5759 4307.9151,-228.8002 4376,-143 4384.5643,-132.2074 4384.4336,-122.895 4376,-112 4332.3706,-55.6373 4112.8033,-24.7618 4021.7038,-14.207"/>
<polygon fill="#191970" stroke="#191970" points="1420.2233,-241.2307 1410.2375,-244.7712 1420.2516,-248.2306 1420.2233,-241.2307"/>
</g>
<!-- Node18 -->
<g id="node16" class="node">
<title>Node18</title>
<g id="a_node16"><a xlink:href="AudioMixer_8cxx.html" target="_top" xlink:title="src/services/AudioMixer.cxx">
<polygon fill="none" stroke="#000000" points="2279,-56.5 2279,-75.5 2431,-75.5 2431,-56.5 2279,-56.5"/>
<text text-anchor="middle" x="2355" y="-63.5" font-family="Helvetica,sans-Serif" font-size="10.00" fill="#000000">src/services/AudioMixer.cxx</text>
</a>
</g>
</g>
<!-- Node3&#45;&gt;Node18 -->
<g id="edge16" class="edge">
<title>Node3&#45;&gt;Node18</title>
<path fill="none" stroke="#191970" d="M1420.5624,-244.751C1694.7902,-243.5304 2704.929,-236.5891 3536,-199 3715.3595,-190.8876 4219.5228,-274.2821 4342,-143 4351.3987,-132.9257 4351.6497,-121.8341 4342,-112 4304.9897,-74.2826 2492.7206,-79.5914 2440,-76 2437.1834,-75.8081 2434.3166,-75.5896 2431.4227,-75.3496"/>
<polygon fill="#191970" stroke="#191970" points="1420.3355,-241.2519 1410.3508,-244.7953 1420.366,-248.2518 1420.3355,-241.2519"/>
</g>
<!-- Node19 -->
<g id="node17" class="node">
<title>Node19</title>
<g id="a_node17"><a xlink:href="LOG_8hxx.html" target="_top" xlink:title="src/util/LOG.hxx">
<polygon fill="none" stroke="#000000" points="2144,-179.5 2144,-198.5 2238,-198.5 2238,-179.5 2144,-179.5"/>
<text text-anchor="middle" x="2191" y="-186.5" font-family="Helvetica,sans-Serif" font-size="10.00" fill="#000000">src/util/LOG.hxx</text>
</a>
</g>
</g>
<!-- Node3&#45;&gt;Node19 -->
<g id="edge17" class="edge">
<title>Node3&#45;&gt;Node19</title>
<path fill="none" stroke="#191970" d="M1420.4401,-240.2486C1588.2111,-229.0905 2003.7679,-201.4525 2143.9546,-192.1289"/>
<polygon fill="#191970" stroke="#191970" points="1419.9785,-236.7715 1410.2328,-240.9275 1420.4431,-243.7561 1419.9785,-236.7715"/>
</g>
<!-- Node30 -->
<g id="node28" class="node">
<title>Node30</title>
<g id="a_node28"><a xlink:href="ResourceManager_8cxx.html" target="_top" xlink:title="src/services/ResourceManager.cxx">
<polygon fill="none" stroke="#000000" points="4010.5,-118 4010.5,-137 4193.5,-137 4193.5,-118 4010.5,-118"/>
<text text-anchor="middle" x="4102" y="-125" font-family="Helvetica,sans-Serif" font-size="10.00" fill="#000000">src/services/ResourceManager.cxx</text>
</a>
</g>
</g>
<!-- Node3&#45;&gt;Node30 -->
<g id="edge51" class="edge">
<title>Node3&#45;&gt;Node30</title>
<path fill="none" stroke="#191970" d="M1420.4436,-243.2805C1788.6531,-234.2611 3474.9379,-190.9979 3996,-143 4011.8347,-141.5414 4028.9161,-139.3281 4044.6452,-137.027"/>
<polygon fill="#191970" stroke="#191970" points="1420.1039,-239.7877 1410.1924,-243.5311 1420.275,-246.7856 1420.1039,-239.7877"/>
</g>
<!-- Node33 -->
<g id="node31" class="node">
<title>Node33</title>
<g id="a_node31"><a xlink:href="Exception_8cxx.html" target="_top" xlink:title="src/util/Exception.cxx">
<polygon fill="none" stroke="#000000" points="4211.5,-118 4211.5,-137 4332.5,-137 4332.5,-118 4211.5,-118"/>
<text text-anchor="middle" x="4272" y="-125" font-family="Helvetica,sans-Serif" font-size="10.00" fill="#000000">src/util/Exception.cxx</text>
</a>
</g>
</g>
<!-- Node3&#45;&gt;Node33 -->
<g id="edge52" class="edge">
<title>Node3&#45;&gt;Node33</title>
<path fill="none" stroke="#191970" d="M1420.3131,-243.9559C1664.95,-240.2137 2492.6937,-226.2258 3176,-199 3632.7601,-180.8007 3750.2058,-205.7569 4203,-143 4213.4588,-141.5504 4224.6776,-139.3255 4234.9653,-137.0098"/>
<polygon fill="#191970" stroke="#191970" points="1420.0801,-240.4589 1410.1346,-244.1108 1420.1867,-247.4581 1420.0801,-240.4589"/>
</g>
<!-- Node5 -->
<g id="node3" class="node">
<title>Node5</title>
<g id="a_node3"><a xlink:href="Map_8cxx.html" target="_top" xlink:title="src/engine/Map.cxx">
<polygon fill="none" stroke="#000000" points="1617,-56.5 1617,-75.5 1727,-75.5 1727,-56.5 1617,-56.5"/>
<text text-anchor="middle" x="1672" y="-63.5" font-family="Helvetica,sans-Serif" font-size="10.00" fill="#000000">src/engine/Map.cxx</text>
</a>
</g>
</g>
<!-- Node4&#45;&gt;Node5 -->
<g id="edge2" class="edge">
<title>Node4&#45;&gt;Node5</title>
<path fill="none" stroke="#191970" d="M1627.6383,-110.7253C1638.7696,-99.5028 1653.0297,-85.1258 1662.3344,-75.7449"/>
<polygon fill="#191970" stroke="#191970" points="1625.0885,-108.326 1620.5313,-117.8906 1630.0584,-113.2555 1625.0885,-108.326"/>
</g>
<!-- Node16 -->
<g id="node14" class="node">
<title>Node16</title>
<g id="a_node14"><a xlink:href="Game_8cxx.html" target="_top" xlink:title="src/Game.cxx">
<polygon fill="none" stroke="#000000" points="2940.5,-.5 2940.5,-19.5 3023.5,-19.5 3023.5,-.5 2940.5,-.5"/>
<text text-anchor="middle" x="2982" y="-7.5" font-family="Helvetica,sans-Serif" font-size="10.00" fill="#000000">src/Game.cxx</text>
</a>
</g>
</g>
<!-- Node15&#45;&gt;Node16 -->
<g id="edge13" class="edge">
<title>Node15&#45;&gt;Node16</title>
<path fill="none" stroke="#191970" d="M3859.9246,-62.8643C3693.1804,-52.8238 3174.5501,-21.5944 3023.6073,-12.5054"/>
<polygon fill="#191970" stroke="#191970" points="3859.7363,-66.3592 3869.9287,-63.4667 3860.1571,-59.3718 3859.7363,-66.3592"/>
</g>
<!-- Node15&#45;&gt;Node17 -->
<g id="edge14" class="edge">
<title>Node15&#45;&gt;Node17</title>
<path fill="none" stroke="#191970" d="M3932.09,-49.928C3944.3253,-40.1397 3959.5507,-27.9595 3969.9467,-19.6427"/>
<polygon fill="#191970" stroke="#191970" points="3929.8153,-47.2655 3924.1931,-56.2455 3934.1882,-52.7316 3929.8153,-47.2655"/>
</g>
<!-- Node19&#45;&gt;Node4 -->
<g id="edge18" class="edge">
<title>Node19&#45;&gt;Node4</title>
<path fill="none" stroke="#191970" d="M2133.7704,-184.3068C2044.7311,-176.8082 1867.6984,-161.1117 1718,-143 1703.4652,-141.2415 1687.8542,-139.1156 1673.1722,-137.0095"/>
<polygon fill="#191970" stroke="#191970" points="2133.6681,-187.8104 2143.9257,-185.1585 2134.2532,-180.8349 2133.6681,-187.8104"/>
</g>
<!-- Node19&#45;&gt;Node5 -->
<g id="edge25" class="edge">
<title>Node19&#45;&gt;Node5</title>
<path fill="none" stroke="#191970" d="M2133.45,-187.6401C2030.0634,-184.4363 1817.4774,-174.1642 1751,-143 1734.0921,-135.0737 1697.1053,-94.546 1680.4388,-75.6821"/>
<polygon fill="#191970" stroke="#191970" points="2133.6054,-191.1462 2143.7052,-187.9457 2133.814,-184.1493 2133.6054,-191.1462"/>
</g>
<!-- Node19&#45;&gt;Node6 -->
<g id="edge20" class="edge">
<title>Node19&#45;&gt;Node6</title>
<path fill="none" stroke="#191970" d="M2133.7481,-188.8243C1847.387,-187.7732 568.6149,-180.9966 173,-143 158.9616,-141.6517 143.8217,-139.3988 129.9963,-137.0225"/>
<polygon fill="#191970" stroke="#191970" points="2133.8939,-192.3248 2143.9064,-188.8607 2133.919,-185.3248 2133.8939,-192.3248"/>
</g>
<!-- Node19&#45;&gt;Node7 -->
<g id="edge24" class="edge">
<title>Node19&#45;&gt;Node7</title>
<path fill="none" stroke="#191970" d="M2133.4753,-188.4509C1865.5435,-185.7526 738.1863,-172.8084 387,-143 370.6348,-141.6109 352.9565,-139.3606 336.7746,-137.0001"/>
<polygon fill="#191970" stroke="#191970" points="2133.7152,-191.9534 2143.7497,-188.5536 2133.7852,-184.9537 2133.7152,-191.9534"/>
</g>
<!-- Node19&#45;&gt;Node8 -->
<g id="edge26" class="edge">
<title>Node19&#45;&gt;Node8</title>
<path fill="none" stroke="#191970" d="M2133.45,-188.329C1884.0849,-185.2708 895.568,-171.5542 586,-143 570.9287,-141.6098 554.6673,-139.3744 539.7653,-137.0288"/>
<polygon fill="#191970" stroke="#191970" points="2133.6918,-191.8321 2143.7337,-188.4542 2133.777,-184.8326 2133.6918,-191.8321"/>
</g>
<!-- Node19&#45;&gt;Node9 -->
<g id="edge27" class="edge">
<title>Node19&#45;&gt;Node9</title>
<path fill="none" stroke="#191970" d="M2133.7212,-188.6803C1898.1382,-187.1378 1003.1995,-178.9825 723,-143 712.4314,-141.6428 701.0936,-139.3871 690.7642,-137.0111"/>
<polygon fill="#191970" stroke="#191970" points="2133.7643,-192.1806 2143.7866,-188.7448 2133.8092,-185.1807 2133.7643,-192.1806"/>
</g>
<!-- Node19&#45;&gt;Node10 -->
<g id="edge28" class="edge">
<title>Node19&#45;&gt;Node10</title>
<path fill="none" stroke="#191970" d="M2133.5908,-188.1112C1915.2266,-184.5531 1136.3035,-170.1986 890,-143 877.3239,-141.6002 863.6776,-139.3617 851.1845,-137.0162"/>
<polygon fill="#191970" stroke="#191970" points="2133.8082,-191.6151 2143.8635,-188.2773 2133.9215,-184.616 2133.8082,-191.6151"/>
</g>
<!-- Node19&#45;&gt;Node11 -->
<g id="edge30" class="edge">
<title>Node19&#45;&gt;Node11</title>
<path fill="none" stroke="#191970" d="M2133.7075,-188.1971C1929.9008,-185.1145 1240.5922,-172.6903 1022,-143 1018.9676,-142.5881 1015.8704,-142.1 1012.7528,-141.5555"/>
<polygon fill="#191970" stroke="#191970" points="2133.8416,-191.6994 2143.8929,-188.3495 2133.9464,-184.7002 2133.8416,-191.6994"/>
</g>
<!-- Node19&#45;&gt;Node12 -->
<g id="edge33" class="edge">
<title>Node19&#45;&gt;Node12</title>
<path fill="none" stroke="#191970" d="M2133.6983,-187.7751C1945.9584,-183.5525 1350.5304,-168.4481 1160,-143 1157.0793,-142.6099 1154.0998,-142.1567 1151.0981,-141.6557"/>
<polygon fill="#191970" stroke="#191970" points="2133.8279,-191.2787 2143.9036,-188.0029 2133.9842,-184.2805 2133.8279,-191.2787"/>
</g>
<!-- Node19&#45;&gt;Node13 -->
<g id="edge34" class="edge">
<title>Node19&#45;&gt;Node13</title>
<path fill="none" stroke="#191970" d="M2133.7385,-187.0145C1966.1197,-181.0378 1478.3502,-162.4266 1320,-143 1308.0644,-141.5357 1295.2352,-139.335 1283.4216,-137.0484"/>
<polygon fill="#191970" stroke="#191970" points="2133.7219,-190.5161 2143.8399,-187.3732 2133.9704,-183.5205 2133.7219,-190.5161"/>
</g>
<!-- Node19&#45;&gt;Node14 -->
<g id="edge35" class="edge">
<title>Node19&#45;&gt;Node14</title>
<path fill="none" stroke="#191970" d="M2133.4371,-186.9936C2015.6839,-182.4774 1738.9125,-169.7512 1508,-143 1494.3632,-141.4202 1479.6879,-139.2354 1466.081,-137.0041"/>
<polygon fill="#191970" stroke="#191970" points="2133.5335,-190.4997 2143.6586,-187.3803 2133.7981,-183.5047 2133.5335,-190.4997"/>
</g>
<!-- Node19&#45;&gt;Node15 -->
<g id="edge40" class="edge">
<title>Node19&#45;&gt;Node15</title>
<path fill="none" stroke="#191970" d="M2248.4032,-188.5666C2545.4045,-186.1911 3895.087,-173.717 3925,-143 3942.7819,-124.7401 3927.4356,-91.7728 3918.0283,-75.5473"/>
<polygon fill="#191970" stroke="#191970" points="2248.2578,-185.0675 2238.2859,-188.6469 2248.3134,-192.0673 2248.2578,-185.0675"/>
</g>
<!-- Node19&#45;&gt;Node16 -->
<g id="edge41" class="edge">
<title>Node19&#45;&gt;Node16</title>
<path fill="none" stroke="#191970" d="M2141.1612,-175.7345C2124.8505,-168.7694 2108.4961,-158.3649 2099,-143 2091.7566,-131.2799 2090.9146,-123.1558 2099,-112 2145.9311,-47.2472 2191.4751,-71.1424 2270,-56 2399.8379,-30.9626 2808.3276,-15.6924 2940.3804,-11.3123"/>
<polygon fill="#191970" stroke="#191970" points="2140.1189,-179.0845 2150.7075,-179.4495 2142.6576,-172.5611 2140.1189,-179.0845"/>
</g>
<!-- Node19&#45;&gt;Node17 -->
<g id="edge42" class="edge">
<title>Node19&#45;&gt;Node17</title>
<path fill="none" stroke="#191970" d="M2248.3612,-188.4123C2546.6884,-185.2432 3908.5861,-169.3511 3943,-143 3982.3563,-112.8645 3983.6269,-45.1079 3982.6219,-19.7901"/>
<polygon fill="#191970" stroke="#191970" points="2248.1638,-184.9141 2238.2014,-188.5197 2248.2378,-191.9137 2248.1638,-184.9141"/>
</g>
<!-- Node19&#45;&gt;Node18 -->
<g id="edge43" class="edge">
<title>Node19&#45;&gt;Node18</title>
<path fill="none" stroke="#191970" d="M2224.9418,-175.2197C2242.7801,-167.1651 2264.5092,-156.0239 2282,-143 2309.481,-122.5372 2335.5649,-91.1617 2347.7748,-75.5331"/>
<polygon fill="#191970" stroke="#191970" points="2223.2347,-172.1466 2215.4835,-179.3694 2226.0471,-178.5568 2223.2347,-172.1466"/>
</g>
<!-- Node20 -->
<g id="node18" class="node">
<title>Node20</title>
<g id="a_node18"><a xlink:href="isoMath_8cxx.html" target="_top" xlink:title="src/engine/basics/isoMath.cxx">
<polygon fill="none" stroke="#000000" points="2982,-118 2982,-137 3144,-137 3144,-118 2982,-118"/>
<text text-anchor="middle" x="3063" y="-125" font-family="Helvetica,sans-Serif" font-size="10.00" fill="#000000">src/engine/basics/isoMath.cxx</text>
</a>
</g>
</g>
<!-- Node19&#45;&gt;Node20 -->
<g id="edge19" class="edge">
<title>Node19&#45;&gt;Node20</title>
<path fill="none" stroke="#191970" d="M2248.3355,-187.7788C2377.7625,-184.551 2702.3241,-173.8143 2972,-143 2985.3749,-141.4717 2999.7702,-139.2776 3013.0761,-137.019"/>
<polygon fill="#191970" stroke="#191970" points="2248.1662,-184.2818 2238.2546,-188.0248 2248.337,-191.2797 2248.1662,-184.2818"/>
</g>
<!-- Node21 -->
<g id="node19" class="node">
<title>Node21</title>
<g id="a_node19"><a xlink:href="Timer_8cxx.html" target="_top" xlink:title="src/engine/basics/Timer.cxx">
<polygon fill="none" stroke="#000000" points="3162,-118 3162,-137 3314,-137 3314,-118 3162,-118"/>
<text text-anchor="middle" x="3238" y="-125" font-family="Helvetica,sans-Serif" font-size="10.00" fill="#000000">src/engine/basics/Timer.cxx</text>
</a>
</g>
</g>
<!-- Node19&#45;&gt;Node21 -->
<g id="edge21" class="edge">
<title>Node19&#45;&gt;Node21</title>
<path fill="none" stroke="#191970" d="M2248.0473,-187.2671C2427.0163,-181.6736 2975.9906,-163.2806 3153,-143 3165.6674,-141.5487 3179.2936,-139.3523 3191.8455,-137.0657"/>
<polygon fill="#191970" stroke="#191970" points="2247.9345,-183.7688 2238.0483,-187.5783 2248.1524,-190.7654 2247.9345,-183.7688"/>
</g>
<!-- Node22 -->
<g id="node20" class="node">
<title>Node22</title>
<g id="a_node20"><a xlink:href="EventManager_8cxx.html" target="_top" xlink:title="src/engine/EventManager.cxx">
<polygon fill="none" stroke="#000000" points="3332.5,-118 3332.5,-137 3491.5,-137 3491.5,-118 3332.5,-118"/>
<text text-anchor="middle" x="3412" y="-125" font-family="Helvetica,sans-Serif" font-size="10.00" fill="#000000">src/engine/EventManager.cxx</text>
</a>
</g>
</g>
<!-- Node19&#45;&gt;Node22 -->
<g id="edge22" class="edge">
<title>Node19&#45;&gt;Node22</title>
<path fill="none" stroke="#191970" d="M2248.4095,-187.6694C2448.0381,-182.8857 3111.2887,-165.6373 3323,-143 3336.4118,-141.5659 3350.8565,-139.3462 3364.1266,-137.0304"/>
<polygon fill="#191970" stroke="#191970" points="2248.058,-184.1767 2238.1443,-187.9142 2248.225,-191.1747 2248.058,-184.1767"/>
</g>
<!-- Node23 -->
<g id="node21" class="node">
<title>Node23</title>
<g id="a_node21"><a xlink:href="MapNode_8cxx.html" target="_top" xlink:title="src/engine/GameObjects\l/MapNode.cxx">
<polygon fill="none" stroke="#000000" points="3510,-112.5 3510,-142.5 3646,-142.5 3646,-112.5 3510,-112.5"/>
<text text-anchor="start" x="3518" y="-130.5" font-family="Helvetica,sans-Serif" font-size="10.00" fill="#000000">src/engine/GameObjects</text>
<text text-anchor="middle" x="3578" y="-119.5" font-family="Helvetica,sans-Serif" font-size="10.00" fill="#000000">/MapNode.cxx</text>
</a>
</g>
</g>
<!-- Node19&#45;&gt;Node23 -->
<g id="edge23" class="edge">
<title>Node19&#45;&gt;Node23</title>
<path fill="none" stroke="#191970" d="M2248.4029,-188.2134C2467.6359,-185.0183 3252.2038,-171.7847 3500,-143 3503.1543,-142.6336 3506.3714,-142.2079 3509.6145,-141.7366"/>
<polygon fill="#191970" stroke="#191970" points="2248.0398,-184.7182 2238.0914,-188.3624 2248.1409,-191.7175 2248.0398,-184.7182"/>
</g>
<!-- Node24 -->
<g id="node22" class="node">
<title>Node24</title>
<g id="a_node22"><a xlink:href="Layout_8cxx.html" target="_top" xlink:title="src/engine/ui/basics\l/Layout.cxx">
<polygon fill="none" stroke="#000000" points="3664.5,-112.5 3664.5,-142.5 3777.5,-142.5 3777.5,-112.5 3664.5,-112.5"/>
<text text-anchor="start" x="3672.5" y="-130.5" font-family="Helvetica,sans-Serif" font-size="10.00" fill="#000000">src/engine/ui/basics</text>
<text text-anchor="middle" x="3721" y="-119.5" font-family="Helvetica,sans-Serif" font-size="10.00" fill="#000000">/Layout.cxx</text>
</a>
</g>
</g>
<!-- Node19&#45;&gt;Node24 -->
<g id="edge29" class="edge">
<title>Node19&#45;&gt;Node24</title>
<path fill="none" stroke="#191970" d="M2248.1292,-188.7254C2483.0961,-187.361 3375.684,-179.8124 3655,-143 3658.034,-142.6001 3661.1325,-142.1216 3664.2511,-141.5845"/>
<polygon fill="#191970" stroke="#191970" points="2248.0702,-185.2255 2238.0902,-188.7822 2248.1099,-192.2254 2248.0702,-185.2255"/>
</g>
<!-- Node25 -->
<g id="node23" class="node">
<title>Node25</title>
<g id="a_node23"><a xlink:href="Button_8cxx.html" target="_top" xlink:title="src/engine/ui/widgets\l/Button.cxx">
<polygon fill="none" stroke="#000000" points="3796,-112.5 3796,-142.5 3916,-142.5 3916,-112.5 3796,-112.5"/>
<text text-anchor="start" x="3804" y="-130.5" font-family="Helvetica,sans-Serif" font-size="10.00" fill="#000000">src/engine/ui/widgets</text>
<text text-anchor="middle" x="3856" y="-119.5" font-family="Helvetica,sans-Serif" font-size="10.00" fill="#000000">/Button.cxx</text>
</a>
</g>
</g>
<!-- Node19&#45;&gt;Node25 -->
<g id="edge31" class="edge">
<title>Node19&#45;&gt;Node25</title>
<path fill="none" stroke="#191970" d="M2248.2819,-188.8238C2496.4771,-187.8336 3480.2675,-181.5088 3787,-143 3789.9237,-142.6329 3792.9056,-142.1985 3795.9092,-141.7125"/>
<polygon fill="#191970" stroke="#191970" points="2248.0329,-185.3247 2238.0465,-188.8633 2248.0599,-192.3246 2248.0329,-185.3247"/>
</g>
<!-- Node26 -->
<g id="node24" class="node">
<title>Node26</title>
<g id="a_node24"><a xlink:href="Combobox_8cxx.html" target="_top" xlink:title="src/engine/ui/widgets\l/Combobox.cxx">
<polygon fill="none" stroke="#000000" points="1760,-112.5 1760,-142.5 1880,-142.5 1880,-112.5 1760,-112.5"/>
<text text-anchor="start" x="1768" y="-130.5" font-family="Helvetica,sans-Serif" font-size="10.00" fill="#000000">src/engine/ui/widgets</text>
<text text-anchor="middle" x="1820" y="-119.5" font-family="Helvetica,sans-Serif" font-size="10.00" fill="#000000">/Combobox.cxx</text>
</a>
</g>
</g>
<!-- Node19&#45;&gt;Node26 -->
<g id="edge32" class="edge">
<title>Node19&#45;&gt;Node26</title>
<path fill="none" stroke="#191970" d="M2133.5698,-181.4682C2072.6651,-173.1969 1973.7437,-158.9522 1889,-143 1886.1042,-142.4549 1883.1449,-141.8758 1880.1595,-141.2738"/>
<polygon fill="#191970" stroke="#191970" points="2133.3697,-184.9728 2143.7482,-182.8429 2134.3067,-178.0358 2133.3697,-184.9728"/>
</g>
<!-- Node27 -->
<g id="node25" class="node">
<title>Node27</title>
<g id="a_node25"><a xlink:href="Randomizer_8hxx.html" target="_top" xlink:title="src/services/Randomizer.hxx">
<polygon fill="none" stroke="#000000" points="2330,-118 2330,-137 2486,-137 2486,-118 2330,-118"/>
<text text-anchor="middle" x="2408" y="-125" font-family="Helvetica,sans-Serif" font-size="10.00" fill="#000000">src/services/Randomizer.hxx</text>
</a>
</g>
</g>
<!-- Node19&#45;&gt;Node27 -->
<g id="edge36" class="edge">
<title>Node19&#45;&gt;Node27</title>
<path fill="none" stroke="#191970" d="M2234.672,-176.6229C2275.8737,-164.9459 2336.7684,-147.6877 2374.3318,-137.0419"/>
<polygon fill="#191970" stroke="#191970" points="2233.573,-173.2965 2224.9063,-179.3906 2235.4817,-180.0312 2233.573,-173.2965"/>
</g>
<!-- Node29 -->
<g id="node27" class="node">
<title>Node29</title>
<g id="a_node27"><a xlink:href="GameClock_8cxx.html" target="_top" xlink:title="src/services/GameClock.cxx">
<polygon fill="none" stroke="#000000" points="1898,-118 1898,-137 2052,-137 2052,-118 1898,-118"/>
<text text-anchor="middle" x="1975" y="-125" font-family="Helvetica,sans-Serif" font-size="10.00" fill="#000000">src/services/GameClock.cxx</text>
</a>
</g>
</g>
<!-- Node19&#45;&gt;Node29 -->
<g id="edge44" class="edge">
<title>Node19&#45;&gt;Node29</title>
<path fill="none" stroke="#191970" d="M2147.5292,-176.6229C2106.5174,-164.9459 2045.9033,-147.6877 2008.513,-137.0419"/>
<polygon fill="#191970" stroke="#191970" points="2146.6738,-180.0184 2157.25,-179.3906 2148.5907,-173.2859 2146.6738,-180.0184"/>
</g>
<!-- Node19&#45;&gt;Node30 -->
<g id="edge45" class="edge">
<title>Node19&#45;&gt;Node30</title>
<path fill="none" stroke="#191970" d="M2248.5575,-188.4619C2516.6418,-185.813 3644.639,-173.0576 3996,-143 4012.2145,-141.6129 4029.7283,-139.3632 4045.759,-137.0027"/>
<polygon fill="#191970" stroke="#191970" points="2248.2424,-184.9647 2238.2772,-188.5626 2248.3111,-191.9644 2248.2424,-184.9647"/>
</g>
<!-- Node31 -->
<g id="node29" class="node">
<title>Node31</title>
<g id="a_node29"><a xlink:href="android_2Filesystem_8cxx.html" target="_top" xlink:title="src/util/android/Filesystem.cxx">
<polygon fill="none" stroke="#000000" points="2108.5,-118 2108.5,-137 2273.5,-137 2273.5,-118 2108.5,-118"/>
<text text-anchor="middle" x="2191" y="-125" font-family="Helvetica,sans-Serif" font-size="10.00" fill="#000000">src/util/android/Filesystem.cxx</text>
</a>
</g>
</g>
<!-- Node19&#45;&gt;Node31 -->
<g id="edge46" class="edge">
<title>Node19&#45;&gt;Node31</title>
<path fill="none" stroke="#191970" d="M2191,-169.2462C2191,-158.5519 2191,-145.814 2191,-137.2449"/>
<polygon fill="#191970" stroke="#191970" points="2187.5001,-169.3906 2191,-179.3906 2194.5001,-169.3907 2187.5001,-169.3906"/>
</g>
<!-- Node32 -->
<g id="node30" class="node">
<title>Node32</title>
<g id="a_node30"><a xlink:href="desktop_2Filesystem_8cxx.html" target="_top" xlink:title="src/util/desktop/Filesystem.cxx">
<polygon fill="none" stroke="#000000" points="2504.5,-118 2504.5,-137 2671.5,-137 2671.5,-118 2504.5,-118"/>
<text text-anchor="middle" x="2588" y="-125" font-family="Helvetica,sans-Serif" font-size="10.00" fill="#000000">src/util/desktop/Filesystem.cxx</text>
</a>
</g>
</g>
<!-- Node19&#45;&gt;Node32 -->
<g id="edge47" class="edge">
<title>Node19&#45;&gt;Node32</title>
<path fill="none" stroke="#191970" d="M2248.3808,-180.5789C2309.5311,-171.5434 2409.1617,-156.6468 2495,-143 2506.8008,-141.1239 2519.4337,-139.0574 2531.4645,-137.0616"/>
<polygon fill="#191970" stroke="#191970" points="2247.5461,-177.1641 2238.1644,-182.0868 2248.5683,-184.089 2247.5461,-177.1641"/>
</g>
<!-- Node19&#45;&gt;Node33 -->
<g id="edge48" class="edge">
<title>Node19&#45;&gt;Node33</title>
<path fill="none" stroke="#191970" d="M2248.1874,-188.3689C2555.5469,-184.8864 4004.7559,-167.2892 4203,-143 4213.7242,-141.6861 4225.2288,-139.4439 4235.7101,-137.0669"/>
<polygon fill="#191970" stroke="#191970" points="2248.1197,-184.8693 2238.1599,-188.4821 2248.1988,-191.8689 2248.1197,-184.8693"/>
</g>
<!-- Node34 -->
<g id="node32" class="node">
<title>Node34</title>
<g id="a_node32"><a xlink:href="LOG_8cxx.html" target="_top" xlink:title="src/util/LOG.cxx">
<polygon fill="none" stroke="#000000" points="2689.5,-118 2689.5,-137 2782.5,-137 2782.5,-118 2689.5,-118"/>
<text text-anchor="middle" x="2736" y="-125" font-family="Helvetica,sans-Serif" font-size="10.00" fill="#000000">src/util/LOG.cxx</text>
</a>
</g>
</g>
<!-- Node19&#45;&gt;Node34 -->
<g id="edge49" class="edge">
<title>Node19&#45;&gt;Node34</title>
<path fill="none" stroke="#191970" d="M2248.437,-186.8767C2340.2754,-182.7486 2525.5627,-171.4077 2680,-143 2688.3339,-141.467 2697.228,-139.2713 2705.4173,-137.0127"/>
<polygon fill="#191970" stroke="#191970" points="2248.0798,-183.3889 2238.2423,-187.3224 2248.3856,-190.3822 2248.0798,-183.3889"/>
</g>
<!-- Node35 -->
<g id="node33" class="node">
<title>Node35</title>
<g id="a_node33"><a xlink:href="macOS_2Filesystem_8cxx.html" target="_top" xlink:title="src/util/macOS/Filesystem.cxx">
<polygon fill="none" stroke="#000000" points="2800.5,-118 2800.5,-137 2963.5,-137 2963.5,-118 2800.5,-118"/>
<text text-anchor="middle" x="2882" y="-125" font-family="Helvetica,sans-Serif" font-size="10.00" fill="#000000">src/util/macOS/Filesystem.cxx</text>
</a>
</g>
</g>
<!-- Node19&#45;&gt;Node35 -->
<g id="edge50" class="edge">
<title>Node19&#45;&gt;Node35</title>
<path fill="none" stroke="#191970" d="M2248.4632,-186.3609C2355.5029,-181.0532 2592.5648,-167.4536 2791,-143 2804.0428,-141.3927 2818.0666,-139.2248 2831.1049,-137.0203"/>
<polygon fill="#191970" stroke="#191970" points="2248.0254,-182.8781 2238.2088,-186.8637 2248.3682,-189.8697 2248.0254,-182.8781"/>
</g>
<!-- Node27&#45;&gt;Node15 -->
<g id="edge37" class="edge">
<title>Node27&#45;&gt;Node15</title>
<path fill="none" stroke="#191970" d="M2464.3423,-116.2448C2474.511,-114.5613 2485.0438,-113.043 2495,-112 2771.7735,-83.0046 3665.1706,-69.3424 3869.9188,-66.5485"/>
<polygon fill="#191970" stroke="#191970" points="2463.5892,-112.823 2454.3297,-117.9719 2464.7792,-119.7211 2463.5892,-112.823"/>
</g>
<!-- Node27&#45;&gt;Node18 -->
<g id="edge38" class="edge">
<title>Node27&#45;&gt;Node18</title>
<path fill="none" stroke="#191970" d="M2392.9828,-110.0744C2383.3974,-98.9517 2371.3269,-84.9454 2363.398,-75.7449"/>
<polygon fill="#191970" stroke="#191970" points="2390.5392,-112.6003 2399.7188,-117.8906 2395.8418,-108.0306 2390.5392,-112.6003"/>
</g>
<!-- Node28 -->
<g id="node26" class="node">
<title>Node28</title>
<g id="a_node26"><a xlink:href="Randomizer_8cxx.html" target="_top" xlink:title="src/services/Randomizer.cxx">
<polygon fill="none" stroke="#000000" points="2449.5,-56.5 2449.5,-75.5 2604.5,-75.5 2604.5,-56.5 2449.5,-56.5"/>
<text text-anchor="middle" x="2527" y="-63.5" font-family="Helvetica,sans-Serif" font-size="10.00" fill="#000000">src/services/Randomizer.cxx</text>
</a>
</g>
</g>
<!-- Node27&#45;&gt;Node28 -->
<g id="edge39" class="edge">
<title>Node27&#45;&gt;Node28</title>
<path fill="none" stroke="#191970" d="M2435.6188,-113.2264C2458.0379,-101.6401 2489.0263,-85.6251 2508.5368,-75.5419"/>
<polygon fill="#191970" stroke="#191970" points="2433.8706,-110.1901 2426.5938,-117.8906 2437.0844,-116.4087 2433.8706,-110.1901"/>
</g>
</g>
</svg>
