<?xml version="1.0" encoding="UTF-8" standalone="no"?>
<!DOCTYPE svg PUBLIC "-//W3C//DTD SVG 1.1//EN"
 "http://www.w3.org/Graphics/SVG/1.1/DTD/svg11.dtd">
<!-- Generated by graphviz version 2.40.1 (20161225.0304)
 -->
<!-- Title: src/util/Filesystem.hxx Pages: 1 -->
<svg width="2679pt" height="95pt"
 viewBox="0.00 0.00 2678.50 95.00" xmlns="http://www.w3.org/2000/svg" xmlns:xlink="http://www.w3.org/1999/xlink">
<g id="graph0" class="graph" transform="scale(1 1) rotate(0) translate(4 91)">
<title>src/util/Filesystem.hxx</title>
<!-- Node4 -->
<g id="node1" class="node">
<title>Node4</title>
<polygon fill="#bfbfbf" stroke="#000000" points="1282,-67.5 1282,-86.5 1408,-86.5 1408,-67.5 1282,-67.5"/>
<text text-anchor="middle" x="1345" y="-74.5" font-family="Helvetica,sans-Serif" font-size="10.00" fill="#000000">src/util/Filesystem.hxx</text>
</g>
<!-- Node5 -->
<g id="node2" class="node">
<title>Node5</title>
<g id="a_node2"><a xlink:href="Settings_8cxx.html" target="_top" xlink:title="src/engine/basics/Settings.cxx">
<polygon fill="none" stroke="#000000" points="0,-6 0,-25 164,-25 164,-6 0,-6"/>
<text text-anchor="middle" x="82" y="-13" font-family="Helvetica,sans-Serif" font-size="10.00" fill="#000000">src/engine/basics/Settings.cxx</text>
</a>
</g>
</g>
<!-- Node4&#45;&gt;Node5 -->
<g id="edge1" class="edge">
<title>Node4&#45;&gt;Node5</title>
<path fill="none" stroke="#191970" d="M1271.7053,-75.3675C1049.8354,-70.2288 387.5663,-53.3891 173,-31 159.2919,-29.5696 144.5243,-27.351 130.9559,-25.0353"/>
<polygon fill="#191970" stroke="#191970" points="1271.8561,-78.8718 1281.9341,-75.6033 1272.0175,-71.8737 1271.8561,-78.8718"/>
</g>
<!-- Node6 -->
<g id="node3" class="node">
<title>Node6</title>
<g id="a_node3"><a xlink:href="TerrainGenerator_8cxx.html" target="_top" xlink:title="src/engine/map/TerrainGenerator.cxx">
<polygon fill="none" stroke="#000000" points="182,-6 182,-25 378,-25 378,-6 182,-6"/>
<text text-anchor="middle" x="280" y="-13" font-family="Helvetica,sans-Serif" font-size="10.00" fill="#000000">src/engine/map/TerrainGenerator.cxx</text>
</a>
</g>
</g>
<!-- Node4&#45;&gt;Node6 -->
<g id="edge2" class="edge">
<title>Node4&#45;&gt;Node6</title>
<path fill="none" stroke="#191970" d="M1271.5535,-75.8722C1110.8393,-72.8784 716.0322,-62.6578 387,-31 371.212,-29.481 354.1888,-27.276 338.4658,-25.0034"/>
<polygon fill="#191970" stroke="#191970" points="1271.7355,-79.376 1281.7978,-76.0591 1271.8633,-72.3771 1271.7355,-79.376"/>
</g>
<!-- Node7 -->
<g id="node4" class="node">
<title>Node7</title>
<g id="a_node4"><a xlink:href="Map_8cxx.html" target="_top" xlink:title="src/engine/Map.cxx">
<polygon fill="none" stroke="#000000" points="396,-6 396,-25 506,-25 506,-6 396,-6"/>
<text text-anchor="middle" x="451" y="-13" font-family="Helvetica,sans-Serif" font-size="10.00" fill="#000000">src/engine/Map.cxx</text>
</a>
</g>
</g>
<!-- Node4&#45;&gt;Node7 -->
<g id="edge3" class="edge">
<title>Node4&#45;&gt;Node7</title>
<path fill="none" stroke="#191970" d="M1271.8435,-74.6577C1097.2498,-68.7909 659.9711,-52.3898 515,-31 505.2735,-29.5649 494.8593,-27.3448 485.3172,-25.029"/>
<polygon fill="#191970" stroke="#191970" points="1271.849,-78.1597 1281.9603,-74.9957 1272.0828,-71.1636 1271.849,-78.1597"/>
</g>
<!-- Node8 -->
<g id="node5" class="node">
<title>Node8</title>
<g id="a_node5"><a xlink:href="ResourcesManager_8cxx.html" target="_top" xlink:title="src/engine/ResourcesManager.cxx">
<polygon fill="none" stroke="#000000" points="524.5,-6 524.5,-25 705.5,-25 705.5,-6 524.5,-6"/>
<text text-anchor="middle" x="615" y="-13" font-family="Helvetica,sans-Serif" font-size="10.00" fill="#000000">src/engine/ResourcesManager.cxx</text>
</a>
</g>
</g>
<!-- Node4&#45;&gt;Node8 -->
<g id="edge4" class="edge">
<title>Node4&#45;&gt;Node8</title>
<path fill="none" stroke="#191970" d="M1271.7084,-73.6242C1153.8948,-67.7559 915.2022,-54.0447 714,-31 699.9136,-29.3866 684.7624,-27.2295 670.652,-25.0385"/>
<polygon fill="#191970" stroke="#191970" points="1271.5372,-77.1199 1281.6977,-74.1174 1271.8824,-70.1285 1271.5372,-77.1199"/>
</g>
<!-- Node9 -->
<g id="node6" class="node">
<title>Node9</title>
<g id="a_node6"><a xlink:href="TileManager_8cxx.html" target="_top" xlink:title="src/engine/TileManager.cxx">
<polygon fill="none" stroke="#000000" points="723.5,-6 723.5,-25 872.5,-25 872.5,-6 723.5,-6"/>
<text text-anchor="middle" x="798" y="-13" font-family="Helvetica,sans-Serif" font-size="10.00" fill="#000000">src/engine/TileManager.cxx</text>
</a>
</g>
</g>
<!-- Node4&#45;&gt;Node9 -->
<g id="edge5" class="edge">
<title>Node4&#45;&gt;Node9</title>
<path fill="none" stroke="#191970" d="M1271.7446,-71.691C1180.1005,-64.6007 1018.493,-50.6167 881,-31 869.3905,-29.3436 856.9315,-27.2088 845.2876,-25.0563"/>
<polygon fill="#191970" stroke="#191970" points="1271.5125,-75.1834 1281.7511,-72.4592 1272.0484,-68.2039 1271.5125,-75.1834"/>
</g>
<!-- Node10 -->
<g id="node7" class="node">
<title>Node10</title>
<g id="a_node7"><a xlink:href="Text_8cxx.html" target="_top" xlink:title="src/engine/ui/widgets\l/Text.cxx">
<polygon fill="none" stroke="#000000" points="890,-.5 890,-30.5 1010,-30.5 1010,-.5 890,-.5"/>
<text text-anchor="start" x="898" y="-18.5" font-family="Helvetica,sans-Serif" font-size="10.00" fill="#000000">src/engine/ui/widgets</text>
<text text-anchor="middle" x="950" y="-7.5" font-family="Helvetica,sans-Serif" font-size="10.00" fill="#000000">/Text.cxx</text>
</a>
</g>
</g>
<!-- Node4&#45;&gt;Node10 -->
<g id="edge6" class="edge">
<title>Node4&#45;&gt;Node10</title>
<path fill="none" stroke="#191970" d="M1272.03,-68.4167C1205.7821,-60.2179 1105.5088,-46.7933 1019,-31 1016.1013,-30.4708 1013.1396,-29.9046 1010.1523,-29.313"/>
<polygon fill="#191970" stroke="#191970" points="1271.6045,-71.8906 1281.957,-69.6376 1272.4591,-64.943 1271.6045,-71.8906"/>
</g>
<!-- Node11 -->
<g id="node8" class="node">
<title>Node11</title>
<g id="a_node8"><a xlink:href="UIManager_8cxx.html" target="_top" xlink:title="src/engine/UIManager.cxx">
<polygon fill="none" stroke="#000000" points="1028,-6 1028,-25 1170,-25 1170,-6 1028,-6"/>
<text text-anchor="middle" x="1099" y="-13" font-family="Helvetica,sans-Serif" font-size="10.00" fill="#000000">src/engine/UIManager.cxx</text>
</a>
</g>
</g>
<!-- Node4&#45;&gt;Node11 -->
<g id="edge7" class="edge">
<title>Node4&#45;&gt;Node11</title>
<path fill="none" stroke="#191970" d="M1296.9514,-64.9878C1250.2646,-53.3162 1180.294,-35.8235 1137.2571,-25.0643"/>
<polygon fill="#191970" stroke="#191970" points="1296.2821,-68.4282 1306.8324,-67.4581 1297.9799,-61.6372 1296.2821,-68.4282"/>
</g>
<!-- Node12 -->
<g id="node9" class="node">
<title>Node12</title>
<g id="a_node9"><a xlink:href="WindowManager_8cxx.html" target="_top" xlink:title="src/engine/WindowManager.cxx">
<polygon fill="none" stroke="#000000" points="1188,-6 1188,-25 1358,-25 1358,-6 1188,-6"/>
<text text-anchor="middle" x="1273" y="-13" font-family="Helvetica,sans-Serif" font-size="10.00" fill="#000000">src/engine/WindowManager.cxx</text>
</a>
</g>
</g>
<!-- Node4&#45;&gt;Node12 -->
<g id="edge8" class="edge">
<title>Node4&#45;&gt;Node12</title>
<path fill="none" stroke="#191970" d="M1326.1152,-60.8692C1312.8723,-49.5576 1295.6024,-34.8062 1284.4086,-25.2449"/>
<polygon fill="#191970" stroke="#191970" points="1323.873,-63.557 1333.75,-67.3906 1328.4195,-58.2344 1323.873,-63.557"/>
</g>
<!-- Node13 -->
<g id="node10" class="node">
<title>Node13</title>
<g id="a_node10"><a xlink:href="Game_8cxx.html" target="_top" xlink:title="src/Game.cxx">
<polygon fill="none" stroke="#000000" points="1376.5,-6 1376.5,-25 1459.5,-25 1459.5,-6 1376.5,-6"/>
<text text-anchor="middle" x="1418" y="-13" font-family="Helvetica,sans-Serif" font-size="10.00" fill="#000000">src/Game.cxx</text>
</a>
</g>
</g>
<!-- Node4&#45;&gt;Node13 -->
<g id="edge9" class="edge">
<title>Node4&#45;&gt;Node13</title>
<path fill="none" stroke="#191970" d="M1364.1471,-60.8692C1377.5739,-49.5576 1395.0837,-34.8062 1406.4329,-25.2449"/>
<polygon fill="#191970" stroke="#191970" points="1361.799,-58.2709 1356.4063,-67.3906 1366.3091,-63.6243 1361.799,-58.2709"/>
</g>
<!-- Node14 -->
<g id="node11" class="node">
<title>Node14</title>
<g id="a_node11"><a xlink:href="ScriptEngine_8cxx.html" target="_top" xlink:title="src/Scripting/ScriptEngine.cxx">
<polygon fill="none" stroke="#000000" points="1477.5,-6 1477.5,-25 1638.5,-25 1638.5,-6 1477.5,-6"/>
<text text-anchor="middle" x="1558" y="-13" font-family="Helvetica,sans-Serif" font-size="10.00" fill="#000000">src/Scripting/ScriptEngine.cxx</text>
</a>
</g>
</g>
<!-- Node4&#45;&gt;Node14 -->
<g id="edge10" class="edge">
<title>Node4&#45;&gt;Node14</title>
<path fill="none" stroke="#191970" d="M1388.1238,-64.5488C1428.5618,-52.873 1488.1594,-35.6652 1524.9525,-25.0419"/>
<polygon fill="#191970" stroke="#191970" points="1386.9179,-61.2539 1378.2813,-67.3906 1388.8597,-67.9792 1386.9179,-61.2539"/>
</g>
<!-- Node15 -->
<g id="node12" class="node">
<title>Node15</title>
<g id="a_node12"><a xlink:href="AudioMixer_8cxx.html" target="_top" xlink:title="src/services/AudioMixer.cxx">
<polygon fill="none" stroke="#000000" points="1657,-6 1657,-25 1809,-25 1809,-6 1657,-6"/>
<text text-anchor="middle" x="1733" y="-13" font-family="Helvetica,sans-Serif" font-size="10.00" fill="#000000">src/services/AudioMixer.cxx</text>
</a>
</g>
</g>
<!-- Node4&#45;&gt;Node15 -->
<g id="edge11" class="edge">
<title>Node4&#45;&gt;Node15</title>
<path fill="none" stroke="#191970" d="M1418.0374,-66.5328C1479.4697,-57.5799 1569.5789,-44.0999 1648,-31 1659.0965,-29.1464 1670.9867,-27.0485 1682.2532,-25.0086"/>
<polygon fill="#191970" stroke="#191970" points="1417.4434,-63.0823 1408.0512,-67.9851 1418.4508,-70.0094 1417.4434,-63.0823"/>
</g>
<!-- Node16 -->
<g id="node13" class="node">
<title>Node16</title>
<g id="a_node13"><a xlink:href="ResourceManager_8cxx.html" target="_top" xlink:title="src/services/ResourceManager.cxx">
<polygon fill="none" stroke="#000000" points="1827.5,-6 1827.5,-25 2010.5,-25 2010.5,-6 1827.5,-6"/>
<text text-anchor="middle" x="1919" y="-13" font-family="Helvetica,sans-Serif" font-size="10.00" fill="#000000">src/services/ResourceManager.cxx</text>
</a>
</g>
</g>
<!-- Node4&#45;&gt;Node16 -->
<g id="edge12" class="edge">
<title>Node4&#45;&gt;Node16</title>
<path fill="none" stroke="#191970" d="M1418.404,-71.1286C1511.515,-63.3898 1676.9525,-48.6678 1818,-31 1831.8179,-29.2692 1846.6584,-27.1424 1860.5952,-25.0252"/>
<polygon fill="#191970" stroke="#191970" points="1417.9199,-67.6566 1408.2426,-71.9692 1418.4971,-74.6327 1417.9199,-67.6566"/>
</g>
<!-- Node17 -->
<g id="node14" class="node">
<title>Node17</title>
<g id="a_node14"><a xlink:href="android_2Filesystem_8cxx.html" target="_top" xlink:title="src/util/android/Filesystem.cxx">
<polygon fill="none" stroke="#000000" points="2028.5,-6 2028.5,-25 2193.5,-25 2193.5,-6 2028.5,-6"/>
<text text-anchor="middle" x="2111" y="-13" font-family="Helvetica,sans-Serif" font-size="10.00" fill="#000000">src/util/android/Filesystem.cxx</text>
</a>
</g>
</g>
<!-- Node4&#45;&gt;Node17 -->
<g id="edge13" class="edge">
<title>Node4&#45;&gt;Node17</title>
<path fill="none" stroke="#191970" d="M1418.1545,-74.4291C1542.2735,-69.5276 1801.8963,-56.9397 2020,-31 2033.2086,-29.4291 2047.418,-27.2475 2060.5907,-25.0163"/>
<polygon fill="#191970" stroke="#191970" points="1417.868,-70.9375 1408.0119,-74.8244 1418.1406,-77.9322 1417.868,-70.9375"/>
</g>
<!-- Node18 -->
<g id="node15" class="node">
<title>Node18</title>
<g id="a_node15"><a xlink:href="desktop_2Filesystem_8cxx.html" target="_top" xlink:title="src/util/desktop/Filesystem.cxx">
<polygon fill="none" stroke="#000000" points="2211.5,-6 2211.5,-25 2378.5,-25 2378.5,-6 2211.5,-6"/>
<text text-anchor="middle" x="2295" y="-13" font-family="Helvetica,sans-Serif" font-size="10.00" fill="#000000">src/util/desktop/Filesystem.cxx</text>
</a>
</g>
</g>
<!-- Node4&#45;&gt;Node18 -->
<g id="edge14" class="edge">
<title>Node4&#45;&gt;Node18</title>
<path fill="none" stroke="#191970" d="M1418.5272,-75.8633C1567.1483,-72.9475 1913.7784,-63.0125 2203,-31 2216.5232,-29.5032 2231.077,-27.3198 2244.5292,-25.0616"/>
<polygon fill="#191970" stroke="#191970" points="1418.1034,-72.3707 1408.1722,-76.0613 1418.2373,-79.3694 1418.1034,-72.3707"/>
</g>
<!-- Node19 -->
<g id="node16" class="node">
<title>Node19</title>
<g id="a_node16"><a xlink:href="LOG_8cxx.html" target="_top" xlink:title="src/util/LOG.cxx">
<polygon fill="none" stroke="#000000" points="2396.5,-6 2396.5,-25 2489.5,-25 2489.5,-6 2396.5,-6"/>
<text text-anchor="middle" x="2443" y="-13" font-family="Helvetica,sans-Serif" font-size="10.00" fill="#000000">src/util/LOG.cxx</text>
</a>
</g>
</g>
<!-- Node4&#45;&gt;Node19 -->
<g id="edge15" class="edge">
<title>Node4&#45;&gt;Node19</title>
<path fill="none" stroke="#191970" d="M1418.3688,-75.962C1623.6285,-72.7085 2200.9069,-61.0748 2388,-31 2396.5215,-29.6302 2405.6032,-27.4013 2413.8801,-25.0554"/>
<polygon fill="#191970" stroke="#191970" points="1418.239,-72.4635 1408.295,-76.1197 1418.3486,-79.4627 1418.239,-72.4635"/>
</g>
<!-- Node20 -->
<g id="node17" class="node">
<title>Node20</title>
<g id="a_node17"><a xlink:href="macOS_2Filesystem_8cxx.html" target="_top" xlink:title="src/util/macOS/Filesystem.cxx">
<polygon fill="none" stroke="#000000" points="2507.5,-6 2507.5,-25 2670.5,-25 2670.5,-6 2507.5,-6"/>
<text text-anchor="middle" x="2589" y="-13" font-family="Helvetica,sans-Serif" font-size="10.00" fill="#000000">src/util/macOS/Filesystem.cxx</text>
</a>
</g>
</g>
<!-- Node4&#45;&gt;Node20 -->
<g id="edge16" class="edge">
<title>Node4&#45;&gt;Node20</title>
<path fill="none" stroke="#191970" d="M1418.3167,-75.3329C1637.9098,-70.1407 2288.1191,-53.2657 2499,-31 2512.56,-29.5683 2527.1662,-27.3493 2540.5854,-25.0335"/>
<polygon fill="#191970" stroke="#191970" points="1418.1037,-71.8368 1408.1889,-75.5713 1418.2685,-78.8349 1418.1037,-71.8368"/>
</g>
</g>
</svg>
