<?xml version="1.0" encoding="UTF-8" standalone="no"?>
<!DOCTYPE svg PUBLIC "-//W3C//DTD SVG 1.1//EN"
 "http://www.w3.org/Graphics/SVG/1.1/DTD/svg11.dtd">
<!-- Generated by graphviz version 2.40.1 (20161225.0304)
 -->
<!-- Title: src/services/GameClock.cxx Pages: 1 -->
<!--zoomable 308 -->
<svg id="main" version="1.1" xmlns="http://www.w3.org/2000/svg" xmlns:xlink="http://www.w3.org/1999/xlink" xml:space="preserve" onload="init(evt)">
<style type="text/css"><![CDATA[
.edge:hover path { stroke: red; }
.edge:hover polygon { stroke: red; fill: red; }
]]></style>
<script type="text/javascript"><![CDATA[
var edges = document.getElementsByTagName('g');
if (edges && edges.length) {
  for (var i=0;i<edges.length;i++) {
    if (edges[i].id.substr(0,4)=='edge') {
      edges[i].setAttribute('class','edge');
    }
  }
}
]]></script>
        <defs>
                <circle id="rim" cx="0" cy="0" r="7"/>
                <circle id="rim2" cx="0" cy="0" r="3.5"/>
                <g id="zoomPlus">
                        <use xlink:href="#rim" fill="#404040">
                                <set attributeName="fill" to="#808080" begin="zoomplus.mouseover" end="zoomplus.mouseout"/>
                        </use>
                        <path d="M-4,0h8M0,-4v8" fill="none" stroke="white" stroke-width="1.5" pointer-events="none"/>
                </g>
                <g id="zoomMin">
                        <use xlink:href="#rim" fill="#404040">
                                <set attributeName="fill" to="#808080" begin="zoomminus.mouseover" end="zoomminus.mouseout"/>
                        </use>
                        <path d="M-4,0h8" fill="none" stroke="white" stroke-width="1.5" pointer-events="none"/>
                </g>
                <g id="dirArrow">
                        <path fill="none" stroke="white" stroke-width="1.5" d="M0,-3.0v7 M-2.5,-0.5L0,-3.0L2.5,-0.5"/>
                </g>
               <g id="resetDef">
                       <use xlink:href="#rim2" fill="#404040">
                               <set attributeName="fill" to="#808080" begin="reset.mouseover" end="reset.mouseout"/>
                       </use>
               </g>
        </defs>

<script type="text/javascript">
var viewWidth = 1246;
var viewHeight = 308;
var sectionId = 'dynsection-0';
</script>
<script xlink:href="svgpan.js"/>
<svg id="graph" class="graph">
<g id="viewport">
<title>src/services/GameClock.cxx</title>
<!-- Node0 -->
<g id="node1" class="node">
<title>Node0</title>
<polygon fill="#bfbfbf" stroke="#000000" points="494,-280.5 494,-299.5 648,-299.5 648,-280.5 494,-280.5"/>
<text text-anchor="middle" x="571" y="-287.5" font-family="Helvetica,sans-Serif" font-size="10.00" fill="#000000">src/services/GameClock.cxx</text>
</g>
<!-- Node1 -->
<g id="node2" class="node">
<title>Node1</title>
<g id="a_node2"><a xlink:href="GameClock_8hxx.html" target="_top" xlink:title="GameClock.hxx">
<polygon fill="none" stroke="#000000" points="287,-224.5 287,-243.5 381,-243.5 381,-224.5 287,-224.5"/>
<text text-anchor="middle" x="334" y="-231.5" font-family="Helvetica,sans-Serif" font-size="10.00" fill="#000000">GameClock.hxx</text>
</a>
</g>
</g>
<!-- Node0&#45;&gt;Node1 -->
<g id="edge1" class="edge">
<title>Node0&#45;&gt;Node1</title>
<path fill="none" stroke="#191970" d="M530.5275,-280.4369C490.052,-270.8731 427.7133,-256.1432 384.1297,-245.845"/>
<polygon fill="#191970" stroke="#191970" points="384.8424,-242.4171 374.3055,-243.5237 383.2327,-249.2295 384.8424,-242.4171"/>
</g>
<!-- Node19 -->
<g id="node20" class="node">
<title>Node19</title>
<g id="a_node20"><a xlink:href="LOG_8hxx.html" target="_top" xlink:title="../util/LOG.hxx">
<polygon fill="none" stroke="#000000" points="765,-224.5 765,-243.5 851,-243.5 851,-224.5 765,-224.5"/>
<text text-anchor="middle" x="808" y="-231.5" font-family="Helvetica,sans-Serif" font-size="10.00" fill="#000000">../util/LOG.hxx</text>
</a>
</g>
</g>
<!-- Node0&#45;&gt;Node19 -->
<g id="edge20" class="edge">
<title>Node0&#45;&gt;Node19</title>
<path fill="none" stroke="#191970" d="M611.4725,-280.4369C651.948,-270.8731 714.2867,-256.1432 757.8703,-245.845"/>
<polygon fill="#191970" stroke="#191970" points="758.7673,-249.2295 767.6945,-243.5237 757.1576,-242.4171 758.7673,-249.2295"/>
</g>
<!-- Node2 -->
<g id="node3" class="node">
<title>Node2</title>
<polygon fill="none" stroke="#bfbfbf" points="406.5,-168.5 406.5,-187.5 453.5,-187.5 453.5,-168.5 406.5,-168.5"/>
<text text-anchor="middle" x="430" y="-175.5" font-family="Helvetica,sans-Serif" font-size="10.00" fill="#000000">queue</text>
</g>
<!-- Node1&#45;&gt;Node2 -->
<g id="edge2" class="edge">
<title>Node1&#45;&gt;Node2</title>
<path fill="none" stroke="#191970" d="M350.7219,-224.2455C365.5889,-215.5731 387.5466,-202.7645 404.5858,-192.825"/>
<polygon fill="#191970" stroke="#191970" points="406.5955,-195.7047 413.4697,-187.6427 403.0683,-189.6582 406.5955,-195.7047"/>
</g>
<!-- Node3 -->
<g id="node4" class="node">
<title>Node3</title>
<polygon fill="none" stroke="#bfbfbf" points="0,-168.5 0,-187.5 48,-187.5 48,-168.5 0,-168.5"/>
<text text-anchor="middle" x="24" y="-175.5" font-family="Helvetica,sans-Serif" font-size="10.00" fill="#000000">thread</text>
</g>
<!-- Node1&#45;&gt;Node3 -->
<g id="edge3" class="edge">
<title>Node1&#45;&gt;Node3</title>
<path fill="none" stroke="#191970" d="M286.5802,-228.032C233.1818,-220.8891 143.7032,-207.6523 57.9489,-187.985"/>
<polygon fill="#191970" stroke="#191970" points="58.586,-184.5398 48.053,-185.6824 56.9996,-191.3577 58.586,-184.5398"/>
</g>
<!-- Node4 -->
<g id="node5" class="node">
<title>Node4</title>
<polygon fill="none" stroke="#bfbfbf" points="538,-168.5 538,-187.5 588,-187.5 588,-168.5 538,-168.5"/>
<text text-anchor="middle" x="563" y="-175.5" font-family="Helvetica,sans-Serif" font-size="10.00" fill="#000000">chrono</text>
</g>
<!-- Node1&#45;&gt;Node4 -->
<g id="edge4" class="edge">
<title>Node1&#45;&gt;Node4</title>
<path fill="none" stroke="#191970" d="M377.5401,-224.4417C415.0031,-216.0579 470.7116,-203.2128 527.8619,-188.2057"/>
<polygon fill="#191970" stroke="#191970" points="529.0189,-191.5202 537.7918,-185.5799 527.2293,-184.7528 529.0189,-191.5202"/>
</g>
<!-- Node5 -->
<g id="node6" class="node">
<title>Node5</title>
<polygon fill="none" stroke="#bfbfbf" points="472,-168.5 472,-187.5 520,-187.5 520,-168.5 472,-168.5"/>
<text text-anchor="middle" x="496" y="-175.5" font-family="Helvetica,sans-Serif" font-size="10.00" fill="#000000">mutex</text>
</g>
<!-- Node1&#45;&gt;Node5 -->
<g id="edge5" class="edge">
<title>Node1&#45;&gt;Node5</title>
<path fill="none" stroke="#191970" d="M361.8488,-224.3733C389.7269,-214.7364 432.6443,-199.9007 462.398,-189.6155"/>
<polygon fill="#191970" stroke="#191970" points="463.6353,-192.8911 471.943,-186.316 461.3483,-186.2752 463.6353,-192.8911"/>
</g>
<!-- Node6 -->
<g id="node7" class="node">
<title>Node6</title>
<polygon fill="none" stroke="#bfbfbf" points="196.5,-168.5 196.5,-187.5 261.5,-187.5 261.5,-168.5 196.5,-168.5"/>
<text text-anchor="middle" x="229" y="-175.5" font-family="Helvetica,sans-Serif" font-size="10.00" fill="#000000">functional</text>
</g>
<!-- Node1&#45;&gt;Node6 -->
<g id="edge6" class="edge">
<title>Node1&#45;&gt;Node6</title>
<path fill="none" stroke="#191970" d="M315.7104,-224.2455C299.2238,-215.4527 274.7648,-202.4079 256.0235,-192.4125"/>
<polygon fill="#191970" stroke="#191970" points="257.5506,-189.2604 247.08,-187.6427 254.2565,-195.4368 257.5506,-189.2604"/>
</g>
<!-- Node7 -->
<g id="node8" class="node">
<title>Node7</title>
<g id="a_node8"><a xlink:href="GameService_8hxx.html" target="_top" xlink:title="../GameService.hxx">
<polygon fill="none" stroke="#000000" points="66,-168.5 66,-187.5 178,-187.5 178,-168.5 66,-168.5"/>
<text text-anchor="middle" x="122" y="-175.5" font-family="Helvetica,sans-Serif" font-size="10.00" fill="#000000">../GameService.hxx</text>
</a>
</g>
</g>
<!-- Node1&#45;&gt;Node7 -->
<g id="edge7" class="edge">
<title>Node1&#45;&gt;Node7</title>
<path fill="none" stroke="#191970" d="M297.5559,-224.3733C261.6931,-214.9001 206.8122,-200.4032 167.9718,-190.1435"/>
<polygon fill="#191970" stroke="#191970" points="168.5308,-186.6712 157.9685,-187.5011 166.743,-193.439 168.5308,-186.6712"/>
</g>
<!-- Node18 -->
<g id="node19" class="node">
<title>Node18</title>
<g id="a_node19"><a xlink:href="GameClock_8inl_8hxx.html" target="_top" xlink:title="GameClock.inl.hxx">
<polygon fill="none" stroke="#000000" points="279.5,-168.5 279.5,-187.5 388.5,-187.5 388.5,-168.5 279.5,-168.5"/>
<text text-anchor="middle" x="334" y="-175.5" font-family="Helvetica,sans-Serif" font-size="10.00" fill="#000000">GameClock.inl.hxx</text>
</a>
</g>
</g>
<!-- Node1&#45;&gt;Node18 -->
<g id="edge18" class="edge">
<title>Node1&#45;&gt;Node18</title>
<path fill="none" stroke="#191970" d="M328.7332,-224.2455C327.3221,-216.9382 326.9179,-206.6944 327.5205,-197.7046"/>
<polygon fill="#191970" stroke="#191970" points="331.0111,-197.9945 328.7549,-187.6427 324.0632,-197.1421 331.0111,-197.9945"/>
</g>
<!-- Node8 -->
<g id="node9" class="node">
<title>Node8</title>
<g id="a_node9"><a xlink:href="Events_8hxx.html" target="_top" xlink:title="Events.hxx">
<polygon fill="none" stroke="#000000" points="327.5,-112.5 327.5,-131.5 398.5,-131.5 398.5,-112.5 327.5,-112.5"/>
<text text-anchor="middle" x="363" y="-119.5" font-family="Helvetica,sans-Serif" font-size="10.00" fill="#000000">Events.hxx</text>
</a>
</g>
</g>
<!-- Node7&#45;&gt;Node8 -->
<g id="edge8" class="edge">
<title>Node7&#45;&gt;Node8</title>
<path fill="none" stroke="#191970" d="M163.1555,-168.4369C205.9356,-158.4963 272.734,-142.9747 317.1706,-132.6492"/>
<polygon fill="#191970" stroke="#191970" points="318.1775,-136.0085 327.1258,-130.3359 316.5931,-129.1902 318.1775,-136.0085"/>
</g>
<!-- Node17 -->
<g id="node18" class="node">
<title>Node17</title>
<g id="a_node18"><a xlink:href="GameService_8inl_8hxx.html" target="_top" xlink:title="GameService.inl.hxx">
<polygon fill="none" stroke="#000000" points="417,-112.5 417,-131.5 535,-131.5 535,-112.5 417,-112.5"/>
<text text-anchor="middle" x="476" y="-119.5" font-family="Helvetica,sans-Serif" font-size="10.00" fill="#000000">GameService.inl.hxx</text>
</a>
</g>
</g>
<!-- Node7&#45;&gt;Node17 -->
<g id="edge17" class="edge">
<title>Node7&#45;&gt;Node17</title>
<path fill="none" stroke="#191970" d="M178.0924,-169.1266C240.1215,-159.3141 340.0992,-143.4984 406.9081,-132.9298"/>
<polygon fill="#191970" stroke="#191970" points="407.5948,-136.3648 416.9251,-131.3452 406.501,-129.4507 407.5948,-136.3648"/>
</g>
<!-- Node9 -->
<g id="node10" class="node">
<title>Node9</title>
<polygon fill="none" stroke="#bfbfbf" points="632,-56.5 632,-75.5 676,-75.5 676,-56.5 632,-56.5"/>
<text text-anchor="middle" x="654" y="-63.5" font-family="Helvetica,sans-Serif" font-size="10.00" fill="#000000">string</text>
</g>
<!-- Node8&#45;&gt;Node9 -->
<g id="edge9" class="edge">
<title>Node8&#45;&gt;Node9</title>
<path fill="none" stroke="#191970" d="M398.8258,-113.8599C401.9245,-113.2102 405.0149,-112.5812 408,-112 499.9426,-94.0996 527.08,-98.5979 621.7609,-76.0271"/>
<polygon fill="#191970" stroke="#191970" points="622.866,-79.3607 631.7603,-73.6038 621.2173,-72.5576 622.866,-79.3607"/>
</g>
<!-- Node10 -->
<g id="node11" class="node">
<title>Node10</title>
<polygon fill="none" stroke="#bfbfbf" points="260,-56.5 260,-75.5 360,-75.5 360,-56.5 260,-56.5"/>
<text text-anchor="middle" x="310" y="-63.5" font-family="Helvetica,sans-Serif" font-size="10.00" fill="#000000">betterEnums.hxx</text>
</g>
<!-- Node8&#45;&gt;Node10 -->
<g id="edge10" class="edge">
<title>Node8&#45;&gt;Node10</title>
<path fill="none" stroke="#191970" d="M353.7681,-112.2455C346.1683,-104.2155 335.2123,-92.6394 326.1632,-83.0781"/>
<polygon fill="#191970" stroke="#191970" points="328.542,-80.4998 319.1261,-75.6427 323.4579,-85.3115 328.542,-80.4998"/>
</g>
<!-- Node11 -->
<g id="node12" class="node">
<title>Node11</title>
<g id="a_node12"><a xlink:href="Meta_8hxx.html" target="_top" xlink:title="util/Meta.hxx">
<polygon fill="none" stroke="#000000" points="534,-56.5 534,-75.5 614,-75.5 614,-56.5 534,-56.5"/>
<text text-anchor="middle" x="574" y="-63.5" font-family="Helvetica,sans-Serif" font-size="10.00" fill="#000000">util/Meta.hxx</text>
</a>
</g>
</g>
<!-- Node8&#45;&gt;Node11 -->
<g id="edge11" class="edge">
<title>Node8&#45;&gt;Node11</title>
<path fill="none" stroke="#191970" d="M398.7933,-112.5004C434.4107,-103.0474 489.2144,-88.5023 528.0326,-78.1999"/>
<polygon fill="#191970" stroke="#191970" points="529.2636,-81.4944 538.0311,-75.5462 527.4679,-74.7286 529.2636,-81.4944"/>
</g>
<!-- Node16 -->
<g id="node17" class="node">
<title>Node16</title>
<g id="a_node17"><a xlink:href="UIEvents_8hxx.html" target="_top" xlink:title="events/UIEvents.hxx">
<polygon fill="none" stroke="#000000" points="378.5,-56.5 378.5,-75.5 495.5,-75.5 495.5,-56.5 378.5,-56.5"/>
<text text-anchor="middle" x="437" y="-63.5" font-family="Helvetica,sans-Serif" font-size="10.00" fill="#000000">events/UIEvents.hxx</text>
</a>
</g>
</g>
<!-- Node8&#45;&gt;Node16 -->
<g id="edge16" class="edge">
<title>Node8&#45;&gt;Node16</title>
<path fill="none" stroke="#191970" d="M375.8898,-112.2455C386.9254,-103.8943 403.0292,-91.7076 415.9353,-81.9408"/>
<polygon fill="#191970" stroke="#191970" points="418.3959,-84.4681 424.2579,-75.6427 414.1717,-78.8862 418.3959,-84.4681"/>
</g>
<!-- Node12 -->
<g id="node13" class="node">
<title>Node12</title>
<polygon fill="none" stroke="#bfbfbf" points="954,-.5 954,-19.5 1014,-19.5 1014,-.5 954,-.5"/>
<text text-anchor="middle" x="984" y="-7.5" font-family="Helvetica,sans-Serif" font-size="10.00" fill="#000000">iostream</text>
</g>
<!-- Node11&#45;&gt;Node12 -->
<g id="edge12" class="edge">
<title>Node11&#45;&gt;Node12</title>
<path fill="none" stroke="#191970" d="M614.0662,-57.5698C617.0846,-57.0124 620.0876,-56.482 623,-56 738.9673,-36.8055 877.0426,-21.2147 943.843,-14.1274"/>
<polygon fill="#191970" stroke="#191970" points="944.3596,-17.5925 953.9377,-13.0637 943.626,-10.631 944.3596,-17.5925"/>
</g>
<!-- Node13 -->
<g id="node14" class="node">
<title>Node13</title>
<polygon fill="none" stroke="#bfbfbf" points="539.5,-.5 539.5,-19.5 608.5,-19.5 608.5,-.5 539.5,-.5"/>
<text text-anchor="middle" x="574" y="-7.5" font-family="Helvetica,sans-Serif" font-size="10.00" fill="#000000">type_traits</text>
</g>
<!-- Node11&#45;&gt;Node13 -->
<g id="edge13" class="edge">
<title>Node11&#45;&gt;Node13</title>
<path fill="none" stroke="#191970" d="M574,-56.2455C574,-48.9382 574,-38.6944 574,-29.7046"/>
<polygon fill="#191970" stroke="#191970" points="577.5001,-29.6426 574,-19.6427 570.5001,-29.6427 577.5001,-29.6426"/>
</g>
<!-- Node14 -->
<g id="node15" class="node">
<title>Node14</title>
<polygon fill="none" stroke="#bfbfbf" points="626.5,-.5 626.5,-19.5 677.5,-19.5 677.5,-.5 626.5,-.5"/>
<text text-anchor="middle" x="652" y="-7.5" font-family="Helvetica,sans-Serif" font-size="10.00" fill="#000000">variant</text>
</g>
<!-- Node11&#45;&gt;Node14 -->
<g id="edge14" class="edge">
<title>Node11&#45;&gt;Node14</title>
<path fill="none" stroke="#191970" d="M587.5866,-56.2455C599.3305,-47.814 616.5199,-35.4729 630.1882,-25.6598"/>
<polygon fill="#191970" stroke="#191970" points="632.4871,-28.3179 638.5691,-19.6427 628.4046,-22.6316 632.4871,-28.3179"/>
</g>
<!-- Node15 -->
<g id="node16" class="node">
<title>Node15</title>
<polygon fill="none" stroke="#bfbfbf" points="480.5,-.5 480.5,-19.5 521.5,-19.5 521.5,-.5 480.5,-.5"/>
<text text-anchor="middle" x="501" y="-7.5" font-family="Helvetica,sans-Serif" font-size="10.00" fill="#000000">tuple</text>
</g>
<!-- Node11&#45;&gt;Node15 -->
<g id="edge15" class="edge">
<title>Node11&#45;&gt;Node15</title>
<path fill="none" stroke="#191970" d="M561.2844,-56.2455C550.398,-47.8943 534.5117,-35.7076 521.78,-25.9408"/>
<polygon fill="#191970" stroke="#191970" points="523.6346,-22.9523 513.5699,-19.6427 519.3739,-28.5063 523.6346,-22.9523"/>
</g>
<!-- Node18&#45;&gt;Node1 -->
<g id="edge19" class="edge">
<title>Node18&#45;&gt;Node1</title>
<path fill="none" stroke="#191970" d="M339.2451,-187.6427C340.6665,-194.9199 341.081,-205.155 340.4887,-214.1575"/>
<polygon fill="#191970" stroke="#191970" points="336.9947,-213.8972 339.2668,-224.2455 343.9439,-214.739 336.9947,-213.8972"/>
</g>
<!-- Node19&#45;&gt;Node4 -->
<g id="edge26" class="edge">
<title>Node19&#45;&gt;Node4</title>
<path fill="none" stroke="#191970" d="M764.9037,-224.7877C723.1632,-215.7682 658.1243,-201.4583 602,-188 600.7383,-187.6974 599.4545,-187.3862 598.1584,-187.0691"/>
<polygon fill="#191970" stroke="#191970" points="598.6964,-183.5961 588.1465,-184.571 597.0017,-190.3879 598.6964,-183.5961"/>
</g>
<!-- Node19&#45;&gt;Node5 -->
<g id="edge32" class="edge">
<title>Node19&#45;&gt;Node5</title>
<path fill="none" stroke="#191970" d="M764.6394,-228.6416C711.4738,-221.6776 618.5019,-208.2261 529.9858,-187.9901"/>
<polygon fill="#191970" stroke="#191970" points="530.5845,-184.5361 520.0522,-185.6857 529.0026,-191.355 530.5845,-184.5361"/>
</g>
<!-- Node19&#45;&gt;Node9 -->
<g id="edge21" class="edge">
<title>Node19&#45;&gt;Node9</title>
<path fill="none" stroke="#191970" d="M764.9091,-224.4434C730.1267,-215.8374 685.0608,-202.3643 673,-188 648.7458,-159.1134 648.8572,-112.2986 651.2978,-85.8487"/>
<polygon fill="#191970" stroke="#191970" points="654.8144,-85.899 652.4629,-75.5684 647.859,-85.1107 654.8144,-85.899"/>
</g>
<!-- Node19&#45;&gt;Node11 -->
<g id="edge33" class="edge">
<title>Node19&#45;&gt;Node11</title>
<path fill="none" stroke="#191970" d="M764.8479,-228.8981C732.338,-223.2821 688.0398,-211.6784 656,-188 619.2192,-160.8178 593.7498,-111.9057 581.7796,-85.0083"/>
<polygon fill="#191970" stroke="#191970" points="584.8878,-83.3757 577.7314,-75.5631 578.4539,-86.1332 584.8878,-83.3757"/>
</g>
<!-- Node19&#45;&gt;Node12 -->
<g id="edge25" class="edge">
<title>Node19&#45;&gt;Node12</title>
<path fill="none" stroke="#191970" d="M851.2165,-232.4105C952.4947,-228.2421 1198.4915,-215.3752 1223,-188 1291.8095,-111.142 1108.4375,-46.0253 1023.9806,-20.9865"/>
<polygon fill="#191970" stroke="#191970" points="1024.7749,-17.5724 1014.195,-18.1335 1022.8156,-24.2926 1024.7749,-17.5724"/>
</g>
<!-- Node20 -->
<g id="node21" class="node">
<title>Node20</title>
<g id="a_node21"><a xlink:href="Exception_8hxx.html" target="_top" xlink:title="Exception.hxx">
<polygon fill="none" stroke="#000000" points="682,-168.5 682,-187.5 768,-187.5 768,-168.5 682,-168.5"/>
<text text-anchor="middle" x="725" y="-175.5" font-family="Helvetica,sans-Serif" font-size="10.00" fill="#000000">Exception.hxx</text>
</a>
</g>
</g>
<!-- Node19&#45;&gt;Node20 -->
<g id="edge22" class="edge">
<title>Node19&#45;&gt;Node20</title>
<path fill="none" stroke="#191970" d="M793.5425,-224.2455C780.9268,-215.7337 762.4056,-203.2375 747.7955,-193.3801"/>
<polygon fill="#191970" stroke="#191970" points="749.5391,-190.3343 739.2918,-187.6427 745.6239,-196.1371 749.5391,-190.3343"/>
</g>
<!-- Node23 -->
<g id="node24" class="node">
<title>Node23</title>
<polygon fill="none" stroke="#bfbfbf" points="786,-168.5 786,-187.5 830,-187.5 830,-168.5 786,-168.5"/>
<text text-anchor="middle" x="808" y="-175.5" font-family="Helvetica,sans-Serif" font-size="10.00" fill="#000000">ctime</text>
</g>
<!-- Node19&#45;&gt;Node23 -->
<g id="edge27" class="edge">
<title>Node19&#45;&gt;Node23</title>
<path fill="none" stroke="#191970" d="M808,-224.2455C808,-216.9382 808,-206.6944 808,-197.7046"/>
<polygon fill="#191970" stroke="#191970" points="811.5001,-197.6426 808,-187.6427 804.5001,-197.6427 811.5001,-197.6426"/>
</g>
<!-- Node24 -->
<g id="node25" class="node">
<title>Node24</title>
<polygon fill="none" stroke="#bfbfbf" points="848.5,-168.5 848.5,-187.5 903.5,-187.5 903.5,-168.5 848.5,-168.5"/>
<text text-anchor="middle" x="876" y="-175.5" font-family="Helvetica,sans-Serif" font-size="10.00" fill="#000000">fstream</text>
</g>
<!-- Node19&#45;&gt;Node24 -->
<g id="edge28" class="edge">
<title>Node19&#45;&gt;Node24</title>
<path fill="none" stroke="#191970" d="M819.8447,-224.2455C829.888,-215.9746 844.4995,-203.9416 856.3004,-194.2232"/>
<polygon fill="#191970" stroke="#191970" points="858.7967,-196.7015 864.291,-187.6427 854.3467,-191.298 858.7967,-196.7015"/>
</g>
<!-- Node25 -->
<g id="node26" class="node">
<title>Node25</title>
<polygon fill="none" stroke="#bfbfbf" points="922,-168.5 922,-187.5 978,-187.5 978,-168.5 922,-168.5"/>
<text text-anchor="middle" x="950" y="-175.5" font-family="Helvetica,sans-Serif" font-size="10.00" fill="#000000">sstream</text>
</g>
<!-- Node19&#45;&gt;Node25 -->
<g id="edge29" class="edge">
<title>Node19&#45;&gt;Node25</title>
<path fill="none" stroke="#191970" d="M832.4107,-224.3733C855.6142,-215.2226 890.7038,-201.3844 916.5142,-191.2057"/>
<polygon fill="#191970" stroke="#191970" points="917.8892,-194.4258 925.9079,-187.5011 915.3211,-187.9139 917.8892,-194.4258"/>
</g>
<!-- Node26 -->
<g id="node27" class="node">
<title>Node26</title>
<polygon fill="none" stroke="#bfbfbf" points="996,-168.5 996,-187.5 1040,-187.5 1040,-168.5 996,-168.5"/>
<text text-anchor="middle" x="1018" y="-175.5" font-family="Helvetica,sans-Serif" font-size="10.00" fill="#000000">SDL.h</text>
</g>
<!-- Node19&#45;&gt;Node26 -->
<g id="edge30" class="edge">
<title>Node19&#45;&gt;Node26</title>
<path fill="none" stroke="#191970" d="M848.0006,-224.4554C882.2684,-216.1149 933.1394,-203.347 985.8404,-188.2229"/>
<polygon fill="#191970" stroke="#191970" points="987.0645,-191.5124 995.6986,-185.372 985.1198,-184.788 987.0645,-191.5124"/>
</g>
<!-- Node27 -->
<g id="node28" class="node">
<title>Node27</title>
<polygon fill="none" stroke="#bfbfbf" points="1058,-168.5 1058,-187.5 1122,-187.5 1122,-168.5 1058,-168.5"/>
<text text-anchor="middle" x="1090" y="-175.5" font-family="Helvetica,sans-Serif" font-size="10.00" fill="#000000">algorithm</text>
</g>
<!-- Node19&#45;&gt;Node27 -->
<g id="edge31" class="edge">
<title>Node19&#45;&gt;Node27</title>
<path fill="none" stroke="#191970" d="M851.2331,-226.4291C897.4924,-218.1769 973.249,-204.2294 1047.7782,-188.1881"/>
<polygon fill="#191970" stroke="#191970" points="1048.7747,-191.5535 1057.8066,-186.0151 1047.2922,-184.7123 1048.7747,-191.5535"/>
</g>
<!-- Node28 -->
<g id="node29" class="node">
<title>Node28</title>
<g id="a_node29"><a xlink:href="LOG_8inl_8hxx.html" target="_top" xlink:title="LOG.inl.hxx">
<polygon fill="none" stroke="#000000" points="1140.5,-168.5 1140.5,-187.5 1213.5,-187.5 1213.5,-168.5 1140.5,-168.5"/>
<text text-anchor="middle" x="1177" y="-175.5" font-family="Helvetica,sans-Serif" font-size="10.00" fill="#000000">LOG.inl.hxx</text>
</a>
</g>
</g>
<!-- Node19&#45;&gt;Node28 -->
<g id="edge34" class="edge">
<title>Node19&#45;&gt;Node28</title>
<path fill="none" stroke="#191970" d="M851.0019,-228.8846C911.1736,-221.5052 1024.1056,-206.8505 1130.4507,-187.9885"/>
<polygon fill="#191970" stroke="#191970" points="1131.1625,-191.4168 1140.3895,-186.2097 1129.9292,-184.5263 1131.1625,-191.4168"/>
</g>
<!-- Node21 -->
<g id="node22" class="node">
<title>Node21</title>
<polygon fill="none" stroke="#bfbfbf" points="687.5,-112.5 687.5,-131.5 752.5,-131.5 752.5,-112.5 687.5,-112.5"/>
<text text-anchor="middle" x="720" y="-119.5" font-family="Helvetica,sans-Serif" font-size="10.00" fill="#000000">stdexcept</text>
</g>
<!-- Node20&#45;&gt;Node21 -->
<g id="edge23" class="edge">
<title>Node20&#45;&gt;Node21</title>
<path fill="none" stroke="#191970" d="M724.1291,-168.2455C723.4766,-160.9382 722.562,-150.6944 721.7593,-141.7046"/>
<polygon fill="#191970" stroke="#191970" points="725.2365,-141.2918 720.861,-131.6427 718.2642,-141.9143 725.2365,-141.2918"/>
</g>
<!-- Node22 -->
<g id="node23" class="node">
<title>Node22</title>
<polygon fill="none" stroke="#bfbfbf" points="770.5,-112.5 770.5,-131.5 835.5,-131.5 835.5,-112.5 770.5,-112.5"/>
<text text-anchor="middle" x="803" y="-119.5" font-family="Helvetica,sans-Serif" font-size="10.00" fill="#000000">exception</text>
</g>
<!-- Node20&#45;&gt;Node22 -->
<g id="edge24" class="edge">
<title>Node20&#45;&gt;Node22</title>
<path fill="none" stroke="#191970" d="M738.5866,-168.2455C750.3305,-159.814 767.5199,-147.4729 781.1882,-137.6598"/>
<polygon fill="#191970" stroke="#191970" points="783.4871,-140.3179 789.5691,-131.6427 779.4046,-134.6316 783.4871,-140.3179"/>
</g>
</g>
</svg>
        <g id="navigator" transform="translate(0 0)" fill="#404254">
                <rect fill="#f2f5e9" fill-opacity="0.5" stroke="#606060" stroke-width=".5" x="0" y="0" width="60" height="60"/>
                <use id="zoomplus" xlink:href="#zoomPlus" x="17" y="9" onmousedown="handleZoom(evt,'in')"/>
                <use id="zoomminus" xlink:href="#zoomMin" x="42" y="9" onmousedown="handleZoom(evt,'out')"/>
                <use id="reset" xlink:href="#resetDef" x="30" y="36" onmousedown="handleReset()"/>
                <g id="arrowUp" xlink:href="#dirArrow" transform="translate(30 24)" onmousedown="handlePan(0,-1)">
                  <use xlink:href="#rim" fill="#404040">
                        <set attributeName="fill" to="#808080" begin="arrowUp.mouseover" end="arrowUp.mouseout"/>
                  </use>
                  <path fill="none" stroke="white" stroke-width="1.5" d="M0,-3.0v7 M-2.5,-0.5L0,-3.0L2.5,-0.5"/>
                </g>
                <g id="arrowRight" xlink:href="#dirArrow" transform="rotate(90) translate(36 -43)" onmousedown="handlePan(1,0)">
                  <use xlink:href="#rim" fill="#404040">
                        <set attributeName="fill" to="#808080" begin="arrowRight.mouseover" end="arrowRight.mouseout"/>
                  </use>
                  <path fill="none" stroke="white" stroke-width="1.5" d="M0,-3.0v7 M-2.5,-0.5L0,-3.0L2.5,-0.5"/>
                </g>
                <g id="arrowDown" xlink:href="#dirArrow" transform="rotate(180) translate(-30 -48)" onmousedown="handlePan(0,1)">
                  <use xlink:href="#rim" fill="#404040">
                        <set attributeName="fill" to="#808080" begin="arrowDown.mouseover" end="arrowDown.mouseout"/>
                  </use>
                  <path fill="none" stroke="white" stroke-width="1.5" d="M0,-3.0v7 M-2.5,-0.5L0,-3.0L2.5,-0.5"/>
                </g>
                <g id="arrowLeft" xlink:href="#dirArrow" transform="rotate(270) translate(-36 17)" onmousedown="handlePan(-1,0)">
                  <use xlink:href="#rim" fill="#404040">
                        <set attributeName="fill" to="#808080" begin="arrowLeft.mouseover" end="arrowLeft.mouseout"/>
                  </use>
                  <path fill="none" stroke="white" stroke-width="1.5" d="M0,-3.0v7 M-2.5,-0.5L0,-3.0L2.5,-0.5"/>
                </g>
        </g>
        <svg viewBox="0 0 15 15" width="100%" height="30px" preserveAspectRatio="xMaxYMin meet">
         <g id="arrow_out" transform="scale(0.3 0.3)">
          <a xlink:href="GameClock_8cxx__incl_org.svg" target="_base">
           <rect id="button" ry="5" rx="5" y="6" x="6" height="38" width="38"
                fill="#f2f5e9" fill-opacity="0.5" stroke="#606060" stroke-width="1.0"/>
           <path id="arrow"
             d="M 11.500037,31.436501 C 11.940474,20.09759 22.043105,11.32322 32.158766,21.979434 L 37.068811,17.246167 C 37.068811,17.246167 37.088388,32 37.088388,32 L 22.160133,31.978069 C 22.160133,31.978069 26.997745,27.140456 26.997745,27.140456 C 18.528582,18.264221 13.291696,25.230495 11.500037,31.436501 z"
             style="fill:#404040;"/>
          </a>
         </g>
        </svg>
</svg>
