<?xml version="1.0" encoding="UTF-8" standalone="no"?>
<!DOCTYPE svg PUBLIC "-//W3C//DTD SVG 1.1//EN"
 "http://www.w3.org/Graphics/SVG/1.1/DTD/svg11.dtd">
<!-- Generated by graphviz version 2.40.1 (20161225.0304)
 -->
<!-- Title: src/Game.hxx Pages: 1 -->
<!--zoomable 308 -->
<svg id="main" version="1.1" xmlns="http://www.w3.org/2000/svg" xmlns:xlink="http://www.w3.org/1999/xlink" xml:space="preserve" onload="init(evt)">
<style type="text/css"><![CDATA[
.edge:hover path { stroke: red; }
.edge:hover polygon { stroke: red; fill: red; }
]]></style>
<script type="text/javascript"><![CDATA[
var edges = document.getElementsByTagName('g');
if (edges && edges.length) {
  for (var i=0;i<edges.length;i++) {
    if (edges[i].id.substr(0,4)=='edge') {
      edges[i].setAttribute('class','edge');
    }
  }
}
]]></script>
        <defs>
                <circle id="rim" cx="0" cy="0" r="7"/>
                <circle id="rim2" cx="0" cy="0" r="3.5"/>
                <g id="zoomPlus">
                        <use xlink:href="#rim" fill="#404040">
                                <set attributeName="fill" to="#808080" begin="zoomplus.mouseover" end="zoomplus.mouseout"/>
                        </use>
                        <path d="M-4,0h8M0,-4v8" fill="none" stroke="white" stroke-width="1.5" pointer-events="none"/>
                </g>
                <g id="zoomMin">
                        <use xlink:href="#rim" fill="#404040">
                                <set attributeName="fill" to="#808080" begin="zoomminus.mouseover" end="zoomminus.mouseout"/>
                        </use>
                        <path d="M-4,0h8" fill="none" stroke="white" stroke-width="1.5" pointer-events="none"/>
                </g>
                <g id="dirArrow">
                        <path fill="none" stroke="white" stroke-width="1.5" d="M0,-3.0v7 M-2.5,-0.5L0,-3.0L2.5,-0.5"/>
                </g>
               <g id="resetDef">
                       <use xlink:href="#rim2" fill="#404040">
                               <set attributeName="fill" to="#808080" begin="reset.mouseover" end="reset.mouseout"/>
                       </use>
               </g>
        </defs>

<script type="text/javascript">
var viewWidth = 1953;
var viewHeight = 308;
var sectionId = 'dynsection-0';
</script>
<script xlink:href="svgpan.js"/>
<svg id="graph" class="graph">
<g id="viewport">
<title>src/Game.hxx</title>
<!-- Node0 -->
<g id="node1" class="node">
<title>Node0</title>
<polygon fill="#bfbfbf" stroke="#000000" points="542,-280.5 542,-299.5 626,-299.5 626,-280.5 542,-280.5"/>
<text text-anchor="middle" x="584" y="-287.5" font-family="Helvetica,sans-Serif" font-size="10.00" fill="#000000">src/Game.hxx</text>
</g>
<!-- Node1 -->
<g id="node2" class="node">
<title>Node1</title>
<g id="a_node2"><a xlink:href="ScriptEngine_8hxx.html" target="_top" xlink:title="Scripting/ScriptEngine.hxx">
<polygon fill="none" stroke="#000000" points="0,-224.5 0,-243.5 144,-243.5 144,-224.5 0,-224.5"/>
<text text-anchor="middle" x="72" y="-231.5" font-family="Helvetica,sans-Serif" font-size="10.00" fill="#000000">Scripting/ScriptEngine.hxx</text>
</a>
</g>
</g>
<!-- Node0&#45;&gt;Node1 -->
<g id="edge1" class="edge">
<title>Node0&#45;&gt;Node1</title>
<path fill="none" stroke="#191970" d="M541.9641,-285.5763C465.5207,-277.5061 298.6423,-259.77 158,-244 156.8797,-243.8744 155.7512,-243.7475 154.616,-243.6197"/>
<polygon fill="#191970" stroke="#191970" points="154.5868,-240.094 144.2562,-242.4454 153.7983,-247.0495 154.5868,-240.094"/>
</g>
<!-- Node2 -->
<g id="node3" class="node">
<title>Node2</title>
<g id="a_node3"><a xlink:href="MessageQueue_8hxx.html" target="_top" xlink:title="engine/MessageQueue.hxx">
<polygon fill="none" stroke="#000000" points="1432,-224.5 1432,-243.5 1580,-243.5 1580,-224.5 1432,-224.5"/>
<text text-anchor="middle" x="1506" y="-231.5" font-family="Helvetica,sans-Serif" font-size="10.00" fill="#000000">engine/MessageQueue.hxx</text>
</a>
</g>
</g>
<!-- Node0&#45;&gt;Node2 -->
<g id="edge2" class="edge">
<title>Node0&#45;&gt;Node2</title>
<path fill="none" stroke="#191970" d="M626.0123,-287.4483C767.8238,-278.835 1230.6084,-250.7266 1421.9908,-239.1025"/>
<polygon fill="#191970" stroke="#191970" points="1422.2304,-242.5945 1431.9998,-238.4946 1421.806,-235.6074 1422.2304,-242.5945"/>
</g>
<!-- Node12 -->
<g id="node13" class="node">
<title>Node12</title>
<g id="a_node13"><a xlink:href="Meta_8hxx.html" target="_top" xlink:title="util/Meta.hxx">
<polygon fill="none" stroke="#000000" points="330,-56.5 330,-75.5 410,-75.5 410,-56.5 330,-56.5"/>
<text text-anchor="middle" x="370" y="-63.5" font-family="Helvetica,sans-Serif" font-size="10.00" fill="#000000">util/Meta.hxx</text>
</a>
</g>
</g>
<!-- Node0&#45;&gt;Node12 -->
<g id="edge19" class="edge">
<title>Node0&#45;&gt;Node12</title>
<path fill="none" stroke="#191970" d="M541.9473,-286.7161C497.414,-281.95 425.9567,-270.5649 370,-244 334.0083,-226.9133 318.528,-223.2714 300,-188 284.2702,-158.0555 279.567,-141.5644 296,-112 303.9578,-97.6832 318.4229,-87.2479 332.4666,-79.972"/>
<polygon fill="#191970" stroke="#191970" points="334.0401,-83.0993 341.5619,-75.6379 331.0288,-76.7801 334.0401,-83.0993"/>
</g>
<!-- Node19 -->
<g id="node20" class="node">
<title>Node19</title>
<g id="a_node20"><a xlink:href="GameService_8hxx.html" target="_top" xlink:title="GameService.hxx">
<polygon fill="none" stroke="#000000" points="863.5,-168.5 863.5,-187.5 966.5,-187.5 966.5,-168.5 863.5,-168.5"/>
<text text-anchor="middle" x="915" y="-175.5" font-family="Helvetica,sans-Serif" font-size="10.00" fill="#000000">GameService.hxx</text>
</a>
</g>
</g>
<!-- Node0&#45;&gt;Node19 -->
<g id="edge20" class="edge">
<title>Node0&#45;&gt;Node19</title>
<path fill="none" stroke="#191970" d="M626.0058,-284.187C668.7167,-277.4779 736.3439,-264.6363 792,-244 828.5086,-230.4632 867.6411,-207.9202 891.7226,-193.0084"/>
<polygon fill="#191970" stroke="#191970" points="893.8679,-195.7942 900.4756,-187.5124 890.1455,-189.8659 893.8679,-195.7942"/>
</g>
<!-- Node21 -->
<g id="node22" class="node">
<title>Node21</title>
<g id="a_node22"><a xlink:href="Randomizer_8hxx.html" target="_top" xlink:title="services/Randomizer.hxx">
<polygon fill="none" stroke="#000000" points="378.5,-224.5 378.5,-243.5 517.5,-243.5 517.5,-224.5 378.5,-224.5"/>
<text text-anchor="middle" x="448" y="-231.5" font-family="Helvetica,sans-Serif" font-size="10.00" fill="#000000">services/Randomizer.hxx</text>
</a>
</g>
</g>
<!-- Node0&#45;&gt;Node21 -->
<g id="edge23" class="edge">
<title>Node0&#45;&gt;Node21</title>
<path fill="none" stroke="#191970" d="M560.6208,-280.3733C538.4955,-271.2629 505.0866,-257.5062 480.3981,-247.3404"/>
<polygon fill="#191970" stroke="#191970" points="481.6536,-244.0723 471.0742,-243.5011 478.9883,-250.5451 481.6536,-244.0723"/>
</g>
<!-- Node24 -->
<g id="node25" class="node">
<title>Node24</title>
<g id="a_node25"><a xlink:href="LOG_8hxx.html" target="_top" xlink:title="LOG.hxx">
<polygon fill="none" stroke="#000000" points="452,-168.5 452,-187.5 510,-187.5 510,-168.5 452,-168.5"/>
<text text-anchor="middle" x="481" y="-175.5" font-family="Helvetica,sans-Serif" font-size="10.00" fill="#000000">LOG.hxx</text>
</a>
</g>
</g>
<!-- Node0&#45;&gt;Node24 -->
<g id="edge57" class="edge">
<title>Node0&#45;&gt;Node24</title>
<path fill="none" stroke="#191970" d="M576.0946,-280.4103C565.2798,-267.3936 545.1414,-243.5173 527,-224 517.8162,-214.1197 507.189,-203.4459 498.4642,-194.8696"/>
<polygon fill="#191970" stroke="#191970" points="500.684,-192.1454 491.0826,-187.6661 495.795,-197.1552 500.684,-192.1454"/>
</g>
<!-- Node25 -->
<g id="node26" class="node">
<title>Node25</title>
<g id="a_node26"><a xlink:href="Exception_8hxx.html" target="_top" xlink:title="Exception.hxx">
<polygon fill="none" stroke="#000000" points="96,-112.5 96,-131.5 182,-131.5 182,-112.5 96,-112.5"/>
<text text-anchor="middle" x="139" y="-119.5" font-family="Helvetica,sans-Serif" font-size="10.00" fill="#000000">Exception.hxx</text>
</a>
</g>
</g>
<!-- Node0&#45;&gt;Node25 -->
<g id="edge58" class="edge">
<title>Node0&#45;&gt;Node25</title>
<path fill="none" stroke="#191970" d="M541.793,-287.3075C447.0607,-280.9374 223.6253,-263.9675 196,-244 162.0284,-219.4454 147.6826,-169.4412 142.1356,-141.6808"/>
<polygon fill="#191970" stroke="#191970" points="145.5364,-140.8173 140.3157,-131.598 138.6477,-142.0607 145.5364,-140.8173"/>
</g>
<!-- Node35 -->
<g id="node36" class="node">
<title>Node35</title>
<g id="a_node36"><a xlink:href="GameClock_8hxx.html" target="_top" xlink:title="services/GameClock.hxx">
<polygon fill="none" stroke="#000000" points="645.5,-224.5 645.5,-243.5 782.5,-243.5 782.5,-224.5 645.5,-224.5"/>
<text text-anchor="middle" x="714" y="-231.5" font-family="Helvetica,sans-Serif" font-size="10.00" fill="#000000">services/GameClock.hxx</text>
</a>
</g>
</g>
<!-- Node0&#45;&gt;Node35 -->
<g id="edge42" class="edge">
<title>Node0&#45;&gt;Node35</title>
<path fill="none" stroke="#191970" d="M606.3478,-280.3733C627.4033,-271.3032 659.1495,-257.6279 682.7175,-247.4755"/>
<polygon fill="#191970" stroke="#191970" points="684.1444,-250.6719 691.9438,-243.5011 681.375,-244.243 684.1444,-250.6719"/>
</g>
<!-- Node37 -->
<g id="node38" class="node">
<title>Node37</title>
<polygon fill="none" stroke="#bfbfbf" points="528,-168.5 528,-187.5 576,-187.5 576,-168.5 528,-168.5"/>
<text text-anchor="middle" x="552" y="-175.5" font-family="Helvetica,sans-Serif" font-size="10.00" fill="#000000">thread</text>
</g>
<!-- Node0&#45;&gt;Node37 -->
<g id="edge59" class="edge">
<title>Node0&#45;&gt;Node37</title>
<path fill="none" stroke="#191970" d="M581.2717,-280.4509C576.0289,-262.1013 564.4545,-221.5908 557.5341,-197.3693"/>
<polygon fill="#191970" stroke="#191970" points="560.834,-196.1786 554.7214,-187.5249 554.1033,-198.1017 560.834,-196.1786"/>
</g>
<!-- Node39 -->
<g id="node40" class="node">
<title>Node39</title>
<g id="a_node40"><a xlink:href="ResourceManager_8hxx.html" target="_top" xlink:title="services/ResourceManager.hxx">
<polygon fill="none" stroke="#000000" points="1013.5,-224.5 1013.5,-243.5 1180.5,-243.5 1180.5,-224.5 1013.5,-224.5"/>
<text text-anchor="middle" x="1097" y="-231.5" font-family="Helvetica,sans-Serif" font-size="10.00" fill="#000000">services/ResourceManager.hxx</text>
</a>
</g>
</g>
<!-- Node0&#45;&gt;Node39 -->
<g id="edge51" class="edge">
<title>Node0&#45;&gt;Node39</title>
<path fill="none" stroke="#191970" d="M626.4174,-285.3696C708.5578,-276.403 891.0862,-256.4779 1003.1361,-244.2464"/>
<polygon fill="#191970" stroke="#191970" points="1003.523,-247.725 1013.0841,-243.1604 1002.7633,-240.7663 1003.523,-247.725"/>
</g>
<!-- Node42 -->
<g id="node43" class="node">
<title>Node42</title>
<g id="a_node43"><a xlink:href="Game_8inl_8hxx.html" target="_top" xlink:title="Game.inl.hxx">
<polygon fill="none" stroke="#000000" points="1598,-224.5 1598,-243.5 1680,-243.5 1680,-224.5 1598,-224.5"/>
<text text-anchor="middle" x="1639" y="-231.5" font-family="Helvetica,sans-Serif" font-size="10.00" fill="#000000">Game.inl.hxx</text>
</a>
</g>
</g>
<!-- Node0&#45;&gt;Node42 -->
<g id="edge60" class="edge">
<title>Node0&#45;&gt;Node42</title>
<path fill="none" stroke="#191970" d="M626.1534,-288.924C789.1003,-284.6344 1378.6485,-267.8777 1587.9077,-243.9207"/>
<polygon fill="#191970" stroke="#191970" points="1588.3613,-247.3915 1597.8794,-242.7379 1587.5367,-240.4403 1588.3613,-247.3915"/>
</g>
<!-- Node3 -->
<g id="node4" class="node">
<title>Node3</title>
<polygon fill="none" stroke="#bfbfbf" points="1837.5,-168.5 1837.5,-187.5 1944.5,-187.5 1944.5,-168.5 1837.5,-168.5"/>
<text text-anchor="middle" x="1891" y="-175.5" font-family="Helvetica,sans-Serif" font-size="10.00" fill="#000000">condition_variable</text>
</g>
<!-- Node2&#45;&gt;Node3 -->
<g id="edge3" class="edge">
<title>Node2&#45;&gt;Node3</title>
<path fill="none" stroke="#191970" d="M1571.879,-224.4776C1636.0003,-215.2005 1736.1948,-200.6809 1823,-188 1824.2951,-187.8108 1825.6041,-187.6195 1826.9233,-187.4265"/>
<polygon fill="#191970" stroke="#191970" points="1827.7924,-190.8366 1837.1797,-185.9244 1826.778,-183.9105 1827.7924,-190.8366"/>
</g>
<!-- Node4 -->
<g id="node5" class="node">
<title>Node4</title>
<polygon fill="none" stroke="#bfbfbf" points="866,-112.5 866,-131.5 914,-131.5 914,-112.5 866,-112.5"/>
<text text-anchor="middle" x="890" y="-119.5" font-family="Helvetica,sans-Serif" font-size="10.00" fill="#000000">mutex</text>
</g>
<!-- Node2&#45;&gt;Node4 -->
<g id="edge4" class="edge">
<title>Node2&#45;&gt;Node4</title>
<path fill="none" stroke="#191970" d="M1492.8076,-224.376C1469.6042,-207.6515 1422.1369,-174.392 1403,-168 1203.1586,-101.2504 1135.3529,-169.1383 924.1989,-131.8286"/>
<polygon fill="#191970" stroke="#191970" points="924.8263,-128.3853 914.3604,-130.0329 923.5694,-135.2716 924.8263,-128.3853"/>
</g>
<!-- Node5 -->
<g id="node6" class="node">
<title>Node5</title>
<polygon fill="none" stroke="#bfbfbf" points="1450.5,-168.5 1450.5,-187.5 1497.5,-187.5 1497.5,-168.5 1450.5,-168.5"/>
<text text-anchor="middle" x="1474" y="-175.5" font-family="Helvetica,sans-Serif" font-size="10.00" fill="#000000">deque</text>
</g>
<!-- Node2&#45;&gt;Node5 -->
<g id="edge5" class="edge">
<title>Node2&#45;&gt;Node5</title>
<path fill="none" stroke="#191970" d="M1500.426,-224.2455C1496.0669,-216.617 1489.8789,-205.7881 1484.5867,-196.5267"/>
<polygon fill="#191970" stroke="#191970" points="1487.5104,-194.5886 1479.5101,-187.6427 1481.4327,-198.0616 1487.5104,-194.5886"/>
</g>
<!-- Node6 -->
<g id="node7" class="node">
<title>Node6</title>
<polygon fill="none" stroke="#bfbfbf" points="1515.5,-168.5 1515.5,-187.5 1562.5,-187.5 1562.5,-168.5 1515.5,-168.5"/>
<text text-anchor="middle" x="1539" y="-175.5" font-family="Helvetica,sans-Serif" font-size="10.00" fill="#000000">vector</text>
</g>
<!-- Node2&#45;&gt;Node6 -->
<g id="edge6" class="edge">
<title>Node2&#45;&gt;Node6</title>
<path fill="none" stroke="#191970" d="M1511.7482,-224.2455C1516.2435,-216.617 1522.6248,-205.7881 1528.0825,-196.5267"/>
<polygon fill="#191970" stroke="#191970" points="1531.2561,-198.035 1533.3177,-187.6427 1525.2253,-194.4811 1531.2561,-198.035"/>
</g>
<!-- Node7 -->
<g id="node8" class="node">
<title>Node7</title>
<polygon fill="none" stroke="#bfbfbf" points="984.5,-168.5 984.5,-187.5 1049.5,-187.5 1049.5,-168.5 984.5,-168.5"/>
<text text-anchor="middle" x="1017" y="-175.5" font-family="Helvetica,sans-Serif" font-size="10.00" fill="#000000">functional</text>
</g>
<!-- Node2&#45;&gt;Node7 -->
<g id="edge7" class="edge">
<title>Node2&#45;&gt;Node7</title>
<path fill="none" stroke="#191970" d="M1431.997,-225.5252C1328.299,-213.6498 1143.1236,-192.4436 1059.7548,-182.8962"/>
<polygon fill="#191970" stroke="#191970" points="1059.9641,-179.3974 1049.6308,-181.7369 1059.1676,-186.352 1059.9641,-179.3974"/>
</g>
<!-- Node8 -->
<g id="node9" class="node">
<title>Node8</title>
<polygon fill="none" stroke="#bfbfbf" points="1581,-168.5 1581,-187.5 1635,-187.5 1635,-168.5 1581,-168.5"/>
<text text-anchor="middle" x="1608" y="-175.5" font-family="Helvetica,sans-Serif" font-size="10.00" fill="#000000">ciso646</text>
</g>
<!-- Node2&#45;&gt;Node8 -->
<g id="edge8" class="edge">
<title>Node2&#45;&gt;Node8</title>
<path fill="none" stroke="#191970" d="M1523.767,-224.2455C1539.7095,-215.4928 1563.3259,-202.527 1581.4989,-192.5496"/>
<polygon fill="#191970" stroke="#191970" points="1583.3552,-195.5233 1590.4366,-187.6427 1579.9863,-189.3873 1583.3552,-195.5233"/>
</g>
<!-- Node9 -->
<g id="node10" class="node">
<title>Node9</title>
<g id="a_node10"><a xlink:href="Events_8hxx.html" target="_top" xlink:title="../Events.hxx">
<polygon fill="none" stroke="#000000" points="1144,-112.5 1144,-131.5 1224,-131.5 1224,-112.5 1144,-112.5"/>
<text text-anchor="middle" x="1184" y="-119.5" font-family="Helvetica,sans-Serif" font-size="10.00" fill="#000000">../Events.hxx</text>
</a>
</g>
</g>
<!-- Node2&#45;&gt;Node9 -->
<g id="edge9" class="edge">
<title>Node2&#45;&gt;Node9</title>
<path fill="none" stroke="#191970" d="M1579.7373,-224.457C1661.5829,-213.5087 1783.1614,-196.0354 1790,-188 1795.761,-181.2308 1796.0428,-174.5189 1790,-168 1771.1936,-147.712 1376.3864,-129.7889 1234.3482,-123.9751"/>
<polygon fill="#191970" stroke="#191970" points="1234.3033,-120.4705 1224.1695,-123.5615 1234.0191,-127.4647 1234.3033,-120.4705"/>
</g>
<!-- Node18 -->
<g id="node19" class="node">
<title>Node18</title>
<g id="a_node19"><a xlink:href="MessageQueue_8inl_8hxx.html" target="_top" xlink:title="MessageQueue.inl.hxx">
<polygon fill="none" stroke="#000000" points="1653.5,-168.5 1653.5,-187.5 1780.5,-187.5 1780.5,-168.5 1653.5,-168.5"/>
<text text-anchor="middle" x="1717" y="-175.5" font-family="Helvetica,sans-Serif" font-size="10.00" fill="#000000">MessageQueue.inl.hxx</text>
</a>
</g>
</g>
<!-- Node2&#45;&gt;Node18 -->
<g id="edge18" class="edge">
<title>Node2&#45;&gt;Node18</title>
<path fill="none" stroke="#191970" d="M1542.2722,-224.3733C1577.9658,-214.9001 1632.5879,-200.4032 1671.2451,-190.1435"/>
<polygon fill="#191970" stroke="#191970" points="1672.4336,-193.4493 1681.2011,-187.5011 1670.6379,-186.6835 1672.4336,-193.4493"/>
</g>
<!-- Node10 -->
<g id="node11" class="node">
<title>Node10</title>
<polygon fill="none" stroke="#bfbfbf" points="1063,-56.5 1063,-75.5 1107,-75.5 1107,-56.5 1063,-56.5"/>
<text text-anchor="middle" x="1085" y="-63.5" font-family="Helvetica,sans-Serif" font-size="10.00" fill="#000000">string</text>
</g>
<!-- Node9&#45;&gt;Node10 -->
<g id="edge10" class="edge">
<title>Node9&#45;&gt;Node10</title>
<path fill="none" stroke="#191970" d="M1166.7555,-112.2455C1151.4239,-103.5731 1128.7801,-90.7645 1111.2084,-80.825"/>
<polygon fill="#191970" stroke="#191970" points="1112.4741,-77.5198 1102.0469,-75.6427 1109.0276,-83.6126 1112.4741,-77.5198"/>
</g>
<!-- Node11 -->
<g id="node12" class="node">
<title>Node11</title>
<polygon fill="none" stroke="#bfbfbf" points="1261,-56.5 1261,-75.5 1361,-75.5 1361,-56.5 1261,-56.5"/>
<text text-anchor="middle" x="1311" y="-63.5" font-family="Helvetica,sans-Serif" font-size="10.00" fill="#000000">betterEnums.hxx</text>
</g>
<!-- Node9&#45;&gt;Node11 -->
<g id="edge11" class="edge">
<title>Node9&#45;&gt;Node11</title>
<path fill="none" stroke="#191970" d="M1205.8321,-112.3733C1226.3103,-103.3435 1257.1399,-89.7494 1280.1319,-79.6111"/>
<polygon fill="#191970" stroke="#191970" points="1281.715,-82.7383 1289.4528,-75.5011 1278.8907,-76.3333 1281.715,-82.7383"/>
</g>
<!-- Node9&#45;&gt;Node12 -->
<g id="edge12" class="edge">
<title>Node9&#45;&gt;Node12</title>
<path fill="none" stroke="#191970" d="M1143.7333,-117.2294C1127.6569,-115.4277 1108.9674,-113.4619 1092,-112 840.2501,-90.3091 538.2955,-74.3019 420.5149,-68.4409"/>
<polygon fill="#191970" stroke="#191970" points="420.5212,-64.937 410.3604,-67.9381 420.175,-71.9284 420.5212,-64.937"/>
</g>
<!-- Node17 -->
<g id="node18" class="node">
<title>Node17</title>
<g id="a_node18"><a xlink:href="UIEvents_8hxx.html" target="_top" xlink:title="events/UIEvents.hxx">
<polygon fill="none" stroke="#000000" points="1125.5,-56.5 1125.5,-75.5 1242.5,-75.5 1242.5,-56.5 1125.5,-56.5"/>
<text text-anchor="middle" x="1184" y="-63.5" font-family="Helvetica,sans-Serif" font-size="10.00" fill="#000000">events/UIEvents.hxx</text>
</a>
</g>
</g>
<!-- Node9&#45;&gt;Node17 -->
<g id="edge17" class="edge">
<title>Node9&#45;&gt;Node17</title>
<path fill="none" stroke="#191970" d="M1184,-112.2455C1184,-104.9382 1184,-94.6944 1184,-85.7046"/>
<polygon fill="#191970" stroke="#191970" points="1187.5001,-85.6426 1184,-75.6427 1180.5001,-85.6427 1187.5001,-85.6426"/>
</g>
<!-- Node13 -->
<g id="node14" class="node">
<title>Node13</title>
<polygon fill="none" stroke="#bfbfbf" points="218,-.5 218,-19.5 278,-19.5 278,-.5 218,-.5"/>
<text text-anchor="middle" x="248" y="-7.5" font-family="Helvetica,sans-Serif" font-size="10.00" fill="#000000">iostream</text>
</g>
<!-- Node12&#45;&gt;Node13 -->
<g id="edge13" class="edge">
<title>Node12&#45;&gt;Node13</title>
<path fill="none" stroke="#191970" d="M349.0275,-56.3733C329.4433,-47.3838 300.0039,-33.8706 277.949,-23.7471"/>
<polygon fill="#191970" stroke="#191970" points="279.2473,-20.4919 268.6989,-19.5011 276.3271,-26.8538 279.2473,-20.4919"/>
</g>
<!-- Node14 -->
<g id="node15" class="node">
<title>Node14</title>
<polygon fill="none" stroke="#bfbfbf" points="296.5,-.5 296.5,-19.5 365.5,-19.5 365.5,-.5 296.5,-.5"/>
<text text-anchor="middle" x="331" y="-7.5" font-family="Helvetica,sans-Serif" font-size="10.00" fill="#000000">type_traits</text>
</g>
<!-- Node12&#45;&gt;Node14 -->
<g id="edge14" class="edge">
<title>Node12&#45;&gt;Node14</title>
<path fill="none" stroke="#191970" d="M363.2067,-56.2455C357.7822,-48.4564 350.0339,-37.3308 343.4967,-27.9439"/>
<polygon fill="#191970" stroke="#191970" points="346.3025,-25.8485 337.7154,-19.6427 340.5583,-29.849 346.3025,-25.8485"/>
</g>
<!-- Node15 -->
<g id="node16" class="node">
<title>Node15</title>
<polygon fill="none" stroke="#bfbfbf" points="383.5,-.5 383.5,-19.5 434.5,-19.5 434.5,-.5 383.5,-.5"/>
<text text-anchor="middle" x="409" y="-7.5" font-family="Helvetica,sans-Serif" font-size="10.00" fill="#000000">variant</text>
</g>
<!-- Node12&#45;&gt;Node15 -->
<g id="edge15" class="edge">
<title>Node12&#45;&gt;Node15</title>
<path fill="none" stroke="#191970" d="M376.7933,-56.2455C382.2178,-48.4564 389.9661,-37.3308 396.5033,-27.9439"/>
<polygon fill="#191970" stroke="#191970" points="399.4417,-29.849 402.2846,-19.6427 393.6975,-25.8485 399.4417,-29.849"/>
</g>
<!-- Node16 -->
<g id="node17" class="node">
<title>Node16</title>
<polygon fill="none" stroke="#bfbfbf" points="452.5,-.5 452.5,-19.5 493.5,-19.5 493.5,-.5 452.5,-.5"/>
<text text-anchor="middle" x="473" y="-7.5" font-family="Helvetica,sans-Serif" font-size="10.00" fill="#000000">tuple</text>
</g>
<!-- Node12&#45;&gt;Node16 -->
<g id="edge16" class="edge">
<title>Node12&#45;&gt;Node16</title>
<path fill="none" stroke="#191970" d="M387.9412,-56.2455C404.04,-47.4928 427.8879,-34.527 446.2391,-24.5496"/>
<polygon fill="#191970" stroke="#191970" points="448.1507,-27.4942 455.2644,-19.6427 444.8071,-21.3444 448.1507,-27.4942"/>
</g>
<!-- Node19&#45;&gt;Node9 -->
<g id="edge21" class="edge">
<title>Node19&#45;&gt;Node9</title>
<path fill="none" stroke="#191970" d="M960.9371,-168.4369C1009.0895,-158.4126 1084.5043,-142.7129 1134.0937,-132.3894"/>
<polygon fill="#191970" stroke="#191970" points="1134.8811,-135.8006 1143.9578,-130.3359 1133.4543,-128.9476 1134.8811,-135.8006"/>
</g>
<!-- Node20 -->
<g id="node21" class="node">
<title>Node20</title>
<g id="a_node21"><a xlink:href="GameService_8inl_8hxx.html" target="_top" xlink:title="GameService.inl.hxx">
<polygon fill="none" stroke="#000000" points="932,-112.5 932,-131.5 1050,-131.5 1050,-112.5 932,-112.5"/>
<text text-anchor="middle" x="991" y="-119.5" font-family="Helvetica,sans-Serif" font-size="10.00" fill="#000000">GameService.inl.hxx</text>
</a>
</g>
</g>
<!-- Node19&#45;&gt;Node20 -->
<g id="edge22" class="edge">
<title>Node19&#45;&gt;Node20</title>
<path fill="none" stroke="#191970" d="M928.2382,-168.2455C939.681,-159.814 956.4296,-147.4729 969.7475,-137.6598"/>
<polygon fill="#191970" stroke="#191970" points="971.9391,-140.3924 977.9135,-131.6427 967.7867,-134.757 971.9391,-140.3924"/>
</g>
<!-- Node21&#45;&gt;Node19 -->
<g id="edge26" class="edge">
<title>Node21&#45;&gt;Node19</title>
<path fill="none" stroke="#191970" d="M517.6623,-225.6465C608.6473,-214.7361 766.534,-195.8032 853.3671,-185.3907"/>
<polygon fill="#191970" stroke="#191970" points="853.8264,-188.8608 863.3385,-184.195 852.9929,-181.9106 853.8264,-188.8608"/>
</g>
<!-- Node22 -->
<g id="node23" class="node">
<title>Node22</title>
<polygon fill="none" stroke="#bfbfbf" points="380,-168.5 380,-187.5 434,-187.5 434,-168.5 380,-168.5"/>
<text text-anchor="middle" x="407" y="-175.5" font-family="Helvetica,sans-Serif" font-size="10.00" fill="#000000">random</text>
</g>
<!-- Node21&#45;&gt;Node22 -->
<g id="edge24" class="edge">
<title>Node21&#45;&gt;Node22</title>
<path fill="none" stroke="#191970" d="M440.8583,-224.2455C435.1556,-216.4564 427.01,-205.3308 420.1375,-195.9439"/>
<polygon fill="#191970" stroke="#191970" points="422.7913,-193.6437 414.0598,-187.6427 417.1432,-197.7789 422.7913,-193.6437"/>
</g>
<!-- Node23 -->
<g id="node24" class="node">
<title>Node23</title>
<polygon fill="none" stroke="#bfbfbf" points="308.5,-168.5 308.5,-187.5 361.5,-187.5 361.5,-168.5 308.5,-168.5"/>
<text text-anchor="middle" x="335" y="-175.5" font-family="Helvetica,sans-Serif" font-size="10.00" fill="#000000">iterator</text>
</g>
<!-- Node21&#45;&gt;Node23 -->
<g id="edge25" class="edge">
<title>Node21&#45;&gt;Node23</title>
<path fill="none" stroke="#191970" d="M428.5746,-224.3733C410.5979,-215.4644 383.6559,-202.1127 363.291,-192.0203"/>
<polygon fill="#191970" stroke="#191970" points="364.6861,-188.8055 354.1719,-187.5011 361.5778,-195.0776 364.6861,-188.8055"/>
</g>
<!-- Node21&#45;&gt;Node24 -->
<g id="edge27" class="edge">
<title>Node21&#45;&gt;Node24</title>
<path fill="none" stroke="#191970" d="M453.7482,-224.2455C458.2435,-216.617 464.6248,-205.7881 470.0825,-196.5267"/>
<polygon fill="#191970" stroke="#191970" points="473.2561,-198.035 475.3177,-187.6427 467.2253,-194.4811 473.2561,-198.035"/>
</g>
<!-- Node24&#45;&gt;Node4 -->
<g id="edge39" class="edge">
<title>Node24&#45;&gt;Node4</title>
<path fill="none" stroke="#191970" d="M510.3596,-169.8047C513.2658,-169.1348 516.182,-168.5178 519,-168 664.3922,-141.2852 707.118,-161.1443 856.0196,-131.8501"/>
<polygon fill="#191970" stroke="#191970" points="856.8685,-135.2496 865.9832,-129.8485 855.4897,-128.3867 856.8685,-135.2496"/>
</g>
<!-- Node24&#45;&gt;Node10 -->
<g id="edge28" class="edge">
<title>Node24&#45;&gt;Node10</title>
<path fill="none" stroke="#191970" d="M510.3872,-169.9456C513.2879,-169.2473 516.1952,-168.585 519,-168 621.1467,-146.694 651.9261,-164.7454 751,-132 769.1211,-126.0107 770.8796,-117.9914 789,-112 881.5813,-81.3889 997.3323,-70.9419 1052.6484,-67.5429"/>
<polygon fill="#191970" stroke="#191970" points="1053.0991,-71.0228 1062.8811,-66.9532 1052.6963,-64.0344 1053.0991,-71.0228"/>
</g>
<!-- Node24&#45;&gt;Node12 -->
<g id="edge40" class="edge">
<title>Node24&#45;&gt;Node12</title>
<path fill="none" stroke="#191970" d="M451.9556,-170.3499C448.9316,-169.5555 445.9036,-168.7608 443,-168 381.6838,-151.9343 343.7531,-182.1595 305,-132 290.0701,-112.6757 315.7192,-93.0557 339.0618,-80.2893"/>
<polygon fill="#191970" stroke="#191970" points="340.869,-83.2948 348.1353,-75.5843 337.6466,-77.0806 340.869,-83.2948"/>
</g>
<!-- Node24&#45;&gt;Node13 -->
<g id="edge32" class="edge">
<title>Node24&#45;&gt;Node13</title>
<path fill="none" stroke="#191970" d="M451.9672,-170.305C448.941,-169.5193 445.9092,-168.739 443,-168 377.8063,-151.4403 346.6553,-176.2548 296,-132 265.5536,-105.4006 254.2491,-56.9792 250.1811,-29.8238"/>
<polygon fill="#191970" stroke="#191970" points="253.6131,-29.0751 248.846,-19.6133 246.6722,-29.9828 253.6131,-29.0751"/>
</g>
<!-- Node24&#45;&gt;Node25 -->
<g id="edge29" class="edge">
<title>Node24&#45;&gt;Node25</title>
<path fill="none" stroke="#191970" d="M451.6151,-169.9345C448.7139,-169.2384 445.8059,-168.5797 443,-168 355.7814,-149.9791 253.12,-135.9087 192.1938,-128.2942"/>
<polygon fill="#191970" stroke="#191970" points="192.4044,-124.7936 182.05,-127.0379 191.544,-131.7405 192.4044,-124.7936"/>
</g>
<!-- Node28 -->
<g id="node29" class="node">
<title>Node28</title>
<polygon fill="none" stroke="#bfbfbf" points="798,-112.5 798,-131.5 848,-131.5 848,-112.5 798,-112.5"/>
<text text-anchor="middle" x="823" y="-119.5" font-family="Helvetica,sans-Serif" font-size="10.00" fill="#000000">chrono</text>
</g>
<!-- Node24&#45;&gt;Node28 -->
<g id="edge33" class="edge">
<title>Node24&#45;&gt;Node28</title>
<path fill="none" stroke="#191970" d="M510.3759,-169.8899C513.2788,-169.2029 516.1898,-168.5585 519,-168 635.5798,-144.8322 667.3475,-154.7992 784,-132 785.2734,-131.7511 786.5672,-131.4858 787.8717,-131.2076"/>
<polygon fill="#191970" stroke="#191970" points="788.9663,-134.547 797.9221,-128.8864 787.391,-127.7266 788.9663,-134.547"/>
</g>
<!-- Node29 -->
<g id="node30" class="node">
<title>Node29</title>
<polygon fill="none" stroke="#bfbfbf" points="314,-112.5 314,-131.5 358,-131.5 358,-112.5 314,-112.5"/>
<text text-anchor="middle" x="336" y="-119.5" font-family="Helvetica,sans-Serif" font-size="10.00" fill="#000000">ctime</text>
</g>
<!-- Node24&#45;&gt;Node29 -->
<g id="edge34" class="edge">
<title>Node24&#45;&gt;Node29</title>
<path fill="none" stroke="#191970" d="M456.0736,-168.3733C431.6618,-158.9453 394.3662,-144.5414 367.8239,-134.2906"/>
<polygon fill="#191970" stroke="#191970" points="368.8166,-130.9221 358.2272,-130.5843 366.2947,-137.452 368.8166,-130.9221"/>
</g>
<!-- Node30 -->
<g id="node31" class="node">
<title>Node30</title>
<polygon fill="none" stroke="#bfbfbf" points="376.5,-112.5 376.5,-131.5 431.5,-131.5 431.5,-112.5 376.5,-112.5"/>
<text text-anchor="middle" x="404" y="-119.5" font-family="Helvetica,sans-Serif" font-size="10.00" fill="#000000">fstream</text>
</g>
<!-- Node24&#45;&gt;Node30 -->
<g id="edge35" class="edge">
<title>Node24&#45;&gt;Node30</title>
<path fill="none" stroke="#191970" d="M467.5876,-168.2455C455.9943,-159.814 439.0252,-147.4729 425.5322,-137.6598"/>
<polygon fill="#191970" stroke="#191970" points="427.4047,-134.6938 417.2587,-131.6427 423.2874,-140.355 427.4047,-134.6938"/>
</g>
<!-- Node31 -->
<g id="node32" class="node">
<title>Node31</title>
<polygon fill="none" stroke="#bfbfbf" points="450,-112.5 450,-131.5 506,-131.5 506,-112.5 450,-112.5"/>
<text text-anchor="middle" x="478" y="-119.5" font-family="Helvetica,sans-Serif" font-size="10.00" fill="#000000">sstream</text>
</g>
<!-- Node24&#45;&gt;Node31 -->
<g id="edge36" class="edge">
<title>Node24&#45;&gt;Node31</title>
<path fill="none" stroke="#191970" d="M480.4774,-168.2455C480.086,-160.9382 479.5372,-150.6944 479.0556,-141.7046"/>
<polygon fill="#191970" stroke="#191970" points="482.5466,-141.4411 478.5166,-131.6427 475.5566,-141.8156 482.5466,-141.4411"/>
</g>
<!-- Node32 -->
<g id="node33" class="node">
<title>Node32</title>
<polygon fill="none" stroke="#bfbfbf" points="524,-112.5 524,-131.5 568,-131.5 568,-112.5 524,-112.5"/>
<text text-anchor="middle" x="546" y="-119.5" font-family="Helvetica,sans-Serif" font-size="10.00" fill="#000000">SDL.h</text>
</g>
<!-- Node24&#45;&gt;Node32 -->
<g id="edge37" class="edge">
<title>Node24&#45;&gt;Node32</title>
<path fill="none" stroke="#191970" d="M492.3221,-168.2455C501.9223,-159.9746 515.8892,-147.9416 527.1695,-138.2232"/>
<polygon fill="#191970" stroke="#191970" points="529.516,-140.8214 534.8076,-131.6427 524.947,-135.5182 529.516,-140.8214"/>
</g>
<!-- Node33 -->
<g id="node34" class="node">
<title>Node33</title>
<polygon fill="none" stroke="#bfbfbf" points="586,-112.5 586,-131.5 650,-131.5 650,-112.5 586,-112.5"/>
<text text-anchor="middle" x="618" y="-119.5" font-family="Helvetica,sans-Serif" font-size="10.00" fill="#000000">algorithm</text>
</g>
<!-- Node24&#45;&gt;Node33 -->
<g id="edge38" class="edge">
<title>Node24&#45;&gt;Node33</title>
<path fill="none" stroke="#191970" d="M504.5511,-168.3733C526.8391,-159.2629 560.4937,-145.5062 585.3637,-135.3404"/>
<polygon fill="#191970" stroke="#191970" points="586.8239,-138.5247 594.7562,-131.5011 584.1753,-132.0451 586.8239,-138.5247"/>
</g>
<!-- Node34 -->
<g id="node35" class="node">
<title>Node34</title>
<g id="a_node35"><a xlink:href="LOG_8inl_8hxx.html" target="_top" xlink:title="LOG.inl.hxx">
<polygon fill="none" stroke="#000000" points="668.5,-112.5 668.5,-131.5 741.5,-131.5 741.5,-112.5 668.5,-112.5"/>
<text text-anchor="middle" x="705" y="-119.5" font-family="Helvetica,sans-Serif" font-size="10.00" fill="#000000">LOG.inl.hxx</text>
</a>
</g>
</g>
<!-- Node24&#45;&gt;Node34 -->
<g id="edge41" class="edge">
<title>Node24&#45;&gt;Node34</title>
<path fill="none" stroke="#191970" d="M510.0346,-170.3118C513.0604,-169.5248 516.0916,-168.7423 519,-168 566.2857,-155.9318 620.46,-142.5885 658.0982,-133.3949"/>
<polygon fill="#191970" stroke="#191970" points="659.3709,-136.6871 668.2562,-130.9164 657.7115,-129.8866 659.3709,-136.6871"/>
</g>
<!-- Node26 -->
<g id="node27" class="node">
<title>Node26</title>
<polygon fill="none" stroke="#bfbfbf" points="130.5,-56.5 130.5,-75.5 195.5,-75.5 195.5,-56.5 130.5,-56.5"/>
<text text-anchor="middle" x="163" y="-63.5" font-family="Helvetica,sans-Serif" font-size="10.00" fill="#000000">stdexcept</text>
</g>
<!-- Node25&#45;&gt;Node26 -->
<g id="edge30" class="edge">
<title>Node25&#45;&gt;Node26</title>
<path fill="none" stroke="#191970" d="M143.1805,-112.2455C146.381,-104.7776 150.896,-94.2427 154.8084,-85.1137"/>
<polygon fill="#191970" stroke="#191970" points="158.1452,-86.2129 158.8674,-75.6427 151.7112,-83.4554 158.1452,-86.2129"/>
</g>
<!-- Node27 -->
<g id="node28" class="node">
<title>Node27</title>
<polygon fill="none" stroke="#bfbfbf" points="47.5,-56.5 47.5,-75.5 112.5,-75.5 112.5,-56.5 47.5,-56.5"/>
<text text-anchor="middle" x="80" y="-63.5" font-family="Helvetica,sans-Serif" font-size="10.00" fill="#000000">exception</text>
</g>
<!-- Node25&#45;&gt;Node27 -->
<g id="edge31" class="edge">
<title>Node25&#45;&gt;Node27</title>
<path fill="none" stroke="#191970" d="M128.723,-112.2455C120.1782,-104.1352 107.8222,-92.4075 97.6915,-82.7919"/>
<polygon fill="#191970" stroke="#191970" points="99.8218,-79.9884 90.1592,-75.6427 95.0028,-85.0655 99.8218,-79.9884"/>
</g>
<!-- Node35&#45;&gt;Node4 -->
<g id="edge46" class="edge">
<title>Node35&#45;&gt;Node4</title>
<path fill="none" stroke="#191970" d="M733.3136,-224.4669C750.8136,-215.615 777.1311,-201.7646 799,-188 824.1239,-172.1867 851.519,-151.8641 869.6163,-137.9737"/>
<polygon fill="#191970" stroke="#191970" points="871.9339,-140.6059 877.7029,-131.7194 867.6514,-135.0688 871.9339,-140.6059"/>
</g>
<!-- Node35&#45;&gt;Node7 -->
<g id="edge47" class="edge">
<title>Node35&#45;&gt;Node7</title>
<path fill="none" stroke="#191970" d="M774.834,-224.4771C825.7859,-216.2373 900.6385,-203.5211 974.4383,-188.2365"/>
<polygon fill="#191970" stroke="#191970" points="975.2968,-191.6328 984.3701,-186.1624 973.8658,-184.7807 975.2968,-191.6328"/>
</g>
<!-- Node35&#45;&gt;Node19 -->
<g id="edge48" class="edge">
<title>Node35&#45;&gt;Node19</title>
<path fill="none" stroke="#191970" d="M748.5531,-224.3733C782.4104,-214.9404 834.146,-200.5265 870.9426,-190.2747"/>
<polygon fill="#191970" stroke="#191970" points="872.204,-193.5566 880.8978,-187.5011 870.3253,-186.8135 872.204,-193.5566"/>
</g>
<!-- Node35&#45;&gt;Node28 -->
<g id="edge45" class="edge">
<title>Node35&#45;&gt;Node28</title>
<path fill="none" stroke="#191970" d="M730.4594,-224.4281C744.1583,-215.9598 763.6675,-202.6921 778,-188 792.0056,-173.643 804.5487,-154.4432 812.8117,-140.4546"/>
<polygon fill="#191970" stroke="#191970" points="815.8782,-142.1429 817.8138,-131.7263 809.8048,-138.6622 815.8782,-142.1429"/>
</g>
<!-- Node36 -->
<g id="node37" class="node">
<title>Node36</title>
<polygon fill="none" stroke="#bfbfbf" points="594.5,-168.5 594.5,-187.5 641.5,-187.5 641.5,-168.5 594.5,-168.5"/>
<text text-anchor="middle" x="618" y="-175.5" font-family="Helvetica,sans-Serif" font-size="10.00" fill="#000000">queue</text>
</g>
<!-- Node35&#45;&gt;Node36 -->
<g id="edge43" class="edge">
<title>Node35&#45;&gt;Node36</title>
<path fill="none" stroke="#191970" d="M697.2781,-224.2455C682.4111,-215.5731 660.4534,-202.7645 643.4142,-192.825"/>
<polygon fill="#191970" stroke="#191970" points="644.9317,-189.6582 634.5303,-187.6427 641.4045,-195.7047 644.9317,-189.6582"/>
</g>
<!-- Node35&#45;&gt;Node37 -->
<g id="edge44" class="edge">
<title>Node35&#45;&gt;Node37</title>
<path fill="none" stroke="#191970" d="M686.1512,-224.3733C658.2731,-214.7364 615.3557,-199.9007 585.602,-189.6155"/>
<polygon fill="#191970" stroke="#191970" points="586.6517,-186.2752 576.057,-186.316 584.3647,-192.8911 586.6517,-186.2752"/>
</g>
<!-- Node38 -->
<g id="node39" class="node">
<title>Node38</title>
<g id="a_node39"><a xlink:href="GameClock_8inl_8hxx.html" target="_top" xlink:title="GameClock.inl.hxx">
<polygon fill="none" stroke="#000000" points="659.5,-168.5 659.5,-187.5 768.5,-187.5 768.5,-168.5 659.5,-168.5"/>
<text text-anchor="middle" x="714" y="-175.5" font-family="Helvetica,sans-Serif" font-size="10.00" fill="#000000">GameClock.inl.hxx</text>
</a>
</g>
</g>
<!-- Node35&#45;&gt;Node38 -->
<g id="edge49" class="edge">
<title>Node35&#45;&gt;Node38</title>
<path fill="none" stroke="#191970" d="M708.7332,-224.2455C707.3221,-216.9382 706.9179,-206.6944 707.5205,-197.7046"/>
<polygon fill="#191970" stroke="#191970" points="711.0111,-197.9945 708.7549,-187.6427 704.0632,-197.1421 711.0111,-197.9945"/>
</g>
<!-- Node38&#45;&gt;Node35 -->
<g id="edge50" class="edge">
<title>Node38&#45;&gt;Node35</title>
<path fill="none" stroke="#191970" d="M719.2451,-187.6427C720.6665,-194.9199 721.081,-205.155 720.4887,-214.1575"/>
<polygon fill="#191970" stroke="#191970" points="716.9947,-213.8972 719.2668,-224.2455 723.9439,-214.739 716.9947,-213.8972"/>
</g>
<!-- Node39&#45;&gt;Node10 -->
<g id="edge53" class="edge">
<title>Node39&#45;&gt;Node10</title>
<path fill="none" stroke="#191970" d="M1096.9658,-224.4843C1096.8138,-203.9124 1096.0227,-153.7795 1092,-112 1091.1697,-103.3762 1089.8065,-93.9045 1088.5026,-85.8089"/>
<polygon fill="#191970" stroke="#191970" points="1091.934,-85.1087 1086.817,-75.8314 1085.0318,-86.2748 1091.934,-85.1087"/>
</g>
<!-- Node39&#45;&gt;Node12 -->
<g id="edge55" class="edge">
<title>Node39&#45;&gt;Node12</title>
<path fill="none" stroke="#191970" d="M1095.4038,-224.248C1090.8795,-197.8965 1077.1161,-126.2865 1059,-112 1033.9819,-92.2706 575.2659,-73.5832 420.5039,-67.8158"/>
<polygon fill="#191970" stroke="#191970" points="420.4491,-64.3114 410.3263,-67.4388 420.1899,-71.3066 420.4491,-64.3114"/>
</g>
<!-- Node39&#45;&gt;Node19 -->
<g id="edge54" class="edge">
<title>Node39&#45;&gt;Node19</title>
<path fill="none" stroke="#191970" d="M1065.7131,-224.3733C1035.3182,-215.021 989.0107,-200.7725 955.75,-190.5385"/>
<polygon fill="#191970" stroke="#191970" points="956.4658,-187.0968 945.8786,-187.5011 954.4071,-193.7873 956.4658,-187.0968"/>
</g>
<!-- Node40 -->
<g id="node41" class="node">
<title>Node40</title>
<polygon fill="none" stroke="#bfbfbf" points="1144.5,-168.5 1144.5,-187.5 1237.5,-187.5 1237.5,-168.5 1144.5,-168.5"/>
<text text-anchor="middle" x="1191" y="-175.5" font-family="Helvetica,sans-Serif" font-size="10.00" fill="#000000">unordered_map</text>
</g>
<!-- Node39&#45;&gt;Node40 -->
<g id="edge52" class="edge">
<title>Node39&#45;&gt;Node40</title>
<path fill="none" stroke="#191970" d="M1113.3736,-224.2455C1127.9308,-215.5731 1149.431,-202.7645 1166.1152,-192.825"/>
<polygon fill="#191970" stroke="#191970" points="1168.0144,-195.7676 1174.8141,-187.6427 1164.4317,-189.7539 1168.0144,-195.7676"/>
</g>
<!-- Node41 -->
<g id="node42" class="node">
<title>Node41</title>
<g id="a_node42"><a xlink:href="ResourceManager_8inl_8hxx.html" target="_top" xlink:title="ResourceManager.inl.hxx">
<polygon fill="none" stroke="#000000" points="1256,-168.5 1256,-187.5 1394,-187.5 1394,-168.5 1256,-168.5"/>
<text text-anchor="middle" x="1325" y="-175.5" font-family="Helvetica,sans-Serif" font-size="10.00" fill="#000000">ResourceManager.inl.hxx</text>
</a>
</g>
</g>
<!-- Node39&#45;&gt;Node41 -->
<g id="edge56" class="edge">
<title>Node39&#45;&gt;Node41</title>
<path fill="none" stroke="#191970" d="M1135.9355,-224.4369C1174.792,-214.8932 1234.593,-200.2052 1276.5089,-189.9101"/>
<polygon fill="#191970" stroke="#191970" points="1277.3486,-193.308 1286.2251,-187.5237 1275.6788,-186.51 1277.3486,-193.308"/>
</g>
</g>
</svg>
        <g id="navigator" transform="translate(0 0)" fill="#404254">
                <rect fill="#f2f5e9" fill-opacity="0.5" stroke="#606060" stroke-width=".5" x="0" y="0" width="60" height="60"/>
                <use id="zoomplus" xlink:href="#zoomPlus" x="17" y="9" onmousedown="handleZoom(evt,'in')"/>
                <use id="zoomminus" xlink:href="#zoomMin" x="42" y="9" onmousedown="handleZoom(evt,'out')"/>
                <use id="reset" xlink:href="#resetDef" x="30" y="36" onmousedown="handleReset()"/>
                <g id="arrowUp" xlink:href="#dirArrow" transform="translate(30 24)" onmousedown="handlePan(0,-1)">
                  <use xlink:href="#rim" fill="#404040">
                        <set attributeName="fill" to="#808080" begin="arrowUp.mouseover" end="arrowUp.mouseout"/>
                  </use>
                  <path fill="none" stroke="white" stroke-width="1.5" d="M0,-3.0v7 M-2.5,-0.5L0,-3.0L2.5,-0.5"/>
                </g>
                <g id="arrowRight" xlink:href="#dirArrow" transform="rotate(90) translate(36 -43)" onmousedown="handlePan(1,0)">
                  <use xlink:href="#rim" fill="#404040">
                        <set attributeName="fill" to="#808080" begin="arrowRight.mouseover" end="arrowRight.mouseout"/>
                  </use>
                  <path fill="none" stroke="white" stroke-width="1.5" d="M0,-3.0v7 M-2.5,-0.5L0,-3.0L2.5,-0.5"/>
                </g>
                <g id="arrowDown" xlink:href="#dirArrow" transform="rotate(180) translate(-30 -48)" onmousedown="handlePan(0,1)">
                  <use xlink:href="#rim" fill="#404040">
                        <set attributeName="fill" to="#808080" begin="arrowDown.mouseover" end="arrowDown.mouseout"/>
                  </use>
                  <path fill="none" stroke="white" stroke-width="1.5" d="M0,-3.0v7 M-2.5,-0.5L0,-3.0L2.5,-0.5"/>
                </g>
                <g id="arrowLeft" xlink:href="#dirArrow" transform="rotate(270) translate(-36 17)" onmousedown="handlePan(-1,0)">
                  <use xlink:href="#rim" fill="#404040">
                        <set attributeName="fill" to="#808080" begin="arrowLeft.mouseover" end="arrowLeft.mouseout"/>
                  </use>
                  <path fill="none" stroke="white" stroke-width="1.5" d="M0,-3.0v7 M-2.5,-0.5L0,-3.0L2.5,-0.5"/>
                </g>
        </g>
        <svg viewBox="0 0 15 15" width="100%" height="30px" preserveAspectRatio="xMaxYMin meet">
         <g id="arrow_out" transform="scale(0.3 0.3)">
          <a xlink:href="Game_8hxx__incl_org.svg" target="_base">
           <rect id="button" ry="5" rx="5" y="6" x="6" height="38" width="38"
                fill="#f2f5e9" fill-opacity="0.5" stroke="#606060" stroke-width="1.0"/>
           <path id="arrow"
             d="M 11.500037,31.436501 C 11.940474,20.09759 22.043105,11.32322 32.158766,21.979434 L 37.068811,17.246167 C 37.068811,17.246167 37.088388,32 37.088388,32 L 22.160133,31.978069 C 22.160133,31.978069 26.997745,27.140456 26.997745,27.140456 C 18.528582,18.264221 13.291696,25.230495 11.500037,31.436501 z"
             style="fill:#404040;"/>
          </a>
         </g>
        </svg>
</svg>
