<?xml version="1.0" encoding="UTF-8" standalone="no"?>
<!DOCTYPE svg PUBLIC "-//W3C//DTD SVG 1.1//EN"
 "http://www.w3.org/Graphics/SVG/1.1/DTD/svg11.dtd">
<!-- Generated by graphviz version 2.40.1 (20161225.0304)
 -->
<!-- Title: calculateIsoCoordinates Pages: 1 -->
<svg width="1654pt" height="399pt"
 viewBox="0.00 0.00 1654.00 398.87" xmlns="http://www.w3.org/2000/svg" xmlns:xlink="http://www.w3.org/1999/xlink">
<g id="graph0" class="graph" transform="scale(1 1) rotate(0) translate(4 394.8721)">
<title>calculateIsoCoordinates</title>
<!-- Node1 -->
<g id="node1" class="node">
<title>Node1</title>
<polygon fill="#bfbfbf" stroke="#000000" points="0,-290 0,-309 134,-309 134,-290 0,-290"/>
<text text-anchor="middle" x="67" y="-297" font-family="Helvetica,sans-Serif" font-size="10.00" fill="#000000">calculateIsoCoordinates</text>
</g>
<!-- Node2 -->
<g id="node2" class="node">
<title>Node2</title>
<g id="a_node2"><a xlink:href="isoMath_8hxx.html#ad3c5f070c4a876bc6e8978635d02ce52" target="_top" xlink:title="converts screen space coordinates to isometric space coordinates. To convert screen coordinates in to...">
<polygon fill="none" stroke="#000000" points="346,-328 346,-347 516,-347 516,-328 346,-328"/>
<text text-anchor="middle" x="431" y="-335" font-family="Helvetica,sans-Serif" font-size="10.00" fill="#000000">convertScreenToIsoCoordinates</text>
</a>
</g>
</g>
<!-- Node1&#45;&gt;Node2 -->
<g id="edge1" class="edge">
<title>Node1&#45;&gt;Node2</title>
<path fill="none" stroke="#191970" d="M122.5666,-310.904C137.8834,-313.732 154.5391,-316.5173 170,-318.5 228.4697,-325.9981 294.7167,-330.7763 345.8375,-333.6656"/>
<polygon fill="#191970" stroke="#191970" points="123.1961,-307.4611 112.7207,-309.0474 121.8989,-314.3398 123.1961,-307.4611"/>
</g>
<!-- Node7 -->
<g id="node7" class="node">
<title>Node7</title>
<g id="a_node7"><a xlink:href="classMap.html#a64e71e521c539cf28828be9978c34889" target="_top" xlink:title="Returns the node at given screencoordinates. ">
<polygon fill="none" stroke="#000000" points="182,-290 182,-309 298,-309 298,-290 182,-290"/>
<text text-anchor="middle" x="240" y="-297" font-family="Helvetica,sans-Serif" font-size="10.00" fill="#000000">Map::findNodeInMap</text>
</a>
</g>
</g>
<!-- Node1&#45;&gt;Node7 -->
<g id="edge6" class="edge">
<title>Node1&#45;&gt;Node7</title>
<path fill="none" stroke="#191970" d="M144.3847,-299.5C156.9526,-299.5 169.78,-299.5 181.7899,-299.5"/>
<polygon fill="#191970" stroke="#191970" points="144.3817,-296.0001 134.3817,-299.5 144.3817,-303.0001 144.3817,-296.0001"/>
</g>
<!-- Node8 -->
<g id="node8" class="node">
<title>Node8</title>
<g id="a_node8"><a xlink:href="classMap.html#af654ddecf0d25b836d7c9c27ee5c2150" target="_top" xlink:title="Map::calculateVisibleMap">
<polygon fill="none" stroke="#000000" points="170,-208 170,-227 310,-227 310,-208 170,-208"/>
<text text-anchor="middle" x="240" y="-215" font-family="Helvetica,sans-Serif" font-size="10.00" fill="#000000">Map::calculateVisibleMap</text>
</a>
</g>
</g>
<!-- Node1&#45;&gt;Node8 -->
<g id="edge9" class="edge">
<title>Node1&#45;&gt;Node8</title>
<path fill="none" stroke="#191970" d="M96.464,-285.5344C131.6498,-268.8567 189.5515,-241.412 219.9447,-227.006"/>
<polygon fill="#191970" stroke="#191970" points="94.7211,-282.4872 87.1839,-289.9331 97.7193,-288.8126 94.7211,-282.4872"/>
</g>
<!-- Node3 -->
<g id="node3" class="node">
<title>Node3</title>
<g id="a_node3"><a xlink:href="classEventManager.html#a65ec91fd5016d4f9c4167fb8babed2df" target="_top" xlink:title="EventManager::checkEvents">
<polygon fill="none" stroke="#000000" points="1182,-126 1182,-145 1336,-145 1336,-126 1182,-126"/>
<text text-anchor="middle" x="1259" y="-133" font-family="Helvetica,sans-Serif" font-size="10.00" fill="#000000">EventManager::checkEvents</text>
</a>
</g>
</g>
<!-- Node2&#45;&gt;Node3 -->
<g id="edge2" class="edge">
<title>Node2&#45;&gt;Node3</title>
<path fill="none" stroke="#191970" d="M475.9162,-349.4405C594.7233,-378.3543 923.362,-440.7838 1146,-313.5 1214.0035,-274.6219 1247.2771,-176.3582 1256.3646,-145.1619"/>
<polygon fill="#191970" stroke="#191970" points="476.6186,-346.0088 466.0706,-347.0033 474.9365,-352.8037 476.6186,-346.0088"/>
</g>
<!-- Node4 -->
<g id="node4" class="node">
<title>Node4</title>
<g id="a_node4"><a xlink:href="classGame.html#a1c2ab25d5216b2f4b2fe41efd2c09114" target="_top" xlink:title="begins the game starts running the game ">
<polygon fill="none" stroke="#000000" points="1372,-66 1372,-85 1440,-85 1440,-66 1372,-66"/>
<text text-anchor="middle" x="1406" y="-73" font-family="Helvetica,sans-Serif" font-size="10.00" fill="#000000">Game::run</text>
</a>
</g>
</g>
<!-- Node3&#45;&gt;Node4 -->
<g id="edge3" class="edge">
<title>Node3&#45;&gt;Node4</title>
<path fill="none" stroke="#191970" d="M1291.8632,-122.0865C1319.3213,-110.8791 1357.8143,-95.1676 1382.3296,-85.1614"/>
<polygon fill="#191970" stroke="#191970" points="1290.2284,-118.9733 1282.2926,-125.9928 1292.8737,-125.4543 1290.2284,-118.9733"/>
</g>
<!-- Node5 -->
<g id="node5" class="node">
<title>Node5</title>
<g id="a_node5"><a xlink:href="main_8cxx.html#af582d708d899e67ead623eac34a22387" target="_top" xlink:title="protected_main">
<polygon fill="none" stroke="#000000" points="1476,-66 1476,-85 1569,-85 1569,-66 1476,-66"/>
<text text-anchor="middle" x="1522.5" y="-73" font-family="Helvetica,sans-Serif" font-size="10.00" fill="#000000">protected_main</text>
</a>
</g>
</g>
<!-- Node4&#45;&gt;Node5 -->
<g id="edge4" class="edge">
<title>Node4&#45;&gt;Node5</title>
<path fill="none" stroke="#191970" d="M1450.2653,-75.5C1458.5757,-75.5 1467.2897,-75.5 1475.6749,-75.5"/>
<polygon fill="#191970" stroke="#191970" points="1450.0098,-72.0001 1440.0098,-75.5 1450.0098,-79.0001 1450.0098,-72.0001"/>
</g>
<!-- Node6 -->
<g id="node6" class="node">
<title>Node6</title>
<g id="a_node6"><a xlink:href="main_8cxx.html#a3c04138a5bfe5d72780bb7e82a18e627" target="_top" xlink:title="main">
<polygon fill="none" stroke="#000000" points="1605,-66 1605,-85 1646,-85 1646,-66 1605,-66"/>
<text text-anchor="middle" x="1625.5" y="-73" font-family="Helvetica,sans-Serif" font-size="10.00" fill="#000000">main</text>
</a>
</g>
</g>
<!-- Node5&#45;&gt;Node6 -->
<g id="edge5" class="edge">
<title>Node5&#45;&gt;Node6</title>
<path fill="none" stroke="#191970" d="M1579.2133,-75.5C1588.4322,-75.5 1597.4259,-75.5 1604.9965,-75.5"/>
<polygon fill="#191970" stroke="#191970" points="1579.1782,-72.0001 1569.1782,-75.5 1579.1781,-79.0001 1579.1782,-72.0001"/>
</g>
<!-- Node7&#45;&gt;Node2 -->
<g id="edge7" class="edge">
<title>Node7&#45;&gt;Node2</title>
<path fill="none" stroke="#191970" d="M298.3531,-311.1095C325.5176,-316.514 357.4324,-322.8635 383.1492,-327.9799"/>
<polygon fill="#191970" stroke="#191970" points="298.6881,-307.6076 288.1974,-309.089 297.3222,-314.4731 298.6881,-307.6076"/>
</g>
<!-- Node7&#45;&gt;Node3 -->
<g id="edge8" class="edge">
<title>Node7&#45;&gt;Node3</title>
<path fill="none" stroke="#191970" d="M308.0163,-299.5C388.4835,-299.5 526.4943,-299.5 645,-299.5 645,-299.5 645,-299.5 863,-299.5 1025.5915,-299.5 1199.1158,-180.0278 1246.4642,-145.0262"/>
<polygon fill="#191970" stroke="#191970" points="308.0134,-296.0001 298.0134,-299.5 308.0133,-303.0001 308.0134,-296.0001"/>
</g>
<!-- Node9 -->
<g id="node9" class="node">
<title>Node9</title>
<g id="a_node9"><a xlink:href="classMap.html#ab69938ac0e56eb0da1d1701221f3d185" target="_top" xlink:title="Refresh all the map tile textures. ">
<polygon fill="none" stroke="#000000" points="392.5,-164 392.5,-183 469.5,-183 469.5,-164 392.5,-164"/>
<text text-anchor="middle" x="431" y="-171" font-family="Helvetica,sans-Serif" font-size="10.00" fill="#000000">Map::refresh</text>
</a>
</g>
</g>
<!-- Node8&#45;&gt;Node9 -->
<g id="edge10" class="edge">
<title>Node8&#45;&gt;Node9</title>
<path fill="none" stroke="#191970" d="M291.4282,-205.6527C323.1538,-198.3441 363.1915,-189.1208 392.2404,-182.4289"/>
<polygon fill="#191970" stroke="#191970" points="290.4032,-202.297 281.4442,-207.9527 291.9747,-209.1184 290.4032,-202.297"/>
</g>
<!-- Node9&#45;&gt;Node3 -->
<g id="edge24" class="edge">
<title>Node9&#45;&gt;Node3</title>
<path fill="none" stroke="#191970" d="M480.1442,-173.3673C596.1923,-172.723 896.2507,-169.123 1146,-149.5 1160.3863,-148.3697 1175.7565,-146.7456 1190.3795,-145.0012"/>
<polygon fill="#191970" stroke="#191970" points="479.803,-169.8689 469.8208,-173.4194 479.8384,-176.8688 479.803,-169.8689"/>
</g>
<!-- Node10 -->
<g id="node10" class="node">
<title>Node10</title>
<g id="a_node10"><a xlink:href="classCamera.html#a0a8ee04ccb4f4cc9af52a964cf225f66" target="_top" xlink:title="Increases the zoom level of the camera Increases the zoom level of the camera. ">
<polygon fill="none" stroke="#000000" points="784.5,-126 784.5,-145 941.5,-145 941.5,-126 784.5,-126"/>
<text text-anchor="middle" x="863" y="-133" font-family="Helvetica,sans-Serif" font-size="10.00" fill="#000000">Camera::increaseZoomLevel</text>
</a>
</g>
</g>
<!-- Node9&#45;&gt;Node10 -->
<g id="edge11" class="edge">
<title>Node9&#45;&gt;Node10</title>
<path fill="none" stroke="#191970" d="M479.768,-167.4279C501.8091,-164.7942 528.1951,-161.7948 552,-159.5 630.9689,-151.8873 721.4042,-145.1279 784.3209,-140.7382"/>
<polygon fill="#191970" stroke="#191970" points="479.1596,-163.9758 469.6504,-168.6474 479.9974,-170.9255 479.1596,-163.9758"/>
</g>
<!-- Node12 -->
<g id="node12" class="node">
<title>Node12</title>
<g id="a_node12"><a xlink:href="classCamera.html#aeea39f352d5873495dea6f376cf3207e" target="_top" xlink:title="Decreases the zoom level of the camera Decreases the zoom level of the camera. ">
<polygon fill="none" stroke="#000000" points="783,-50 783,-69 943,-69 943,-50 783,-50"/>
<text text-anchor="middle" x="863" y="-57" font-family="Helvetica,sans-Serif" font-size="10.00" fill="#000000">Camera::decreaseZoomLevel</text>
</a>
</g>
</g>
<!-- Node9&#45;&gt;Node12 -->
<g id="edge15" class="edge">
<title>Node9&#45;&gt;Node12</title>
<path fill="none" stroke="#191970" d="M446.0679,-156.492C467.1885,-133.9937 507.9766,-95.2372 552,-78.5 626.5801,-50.1456 718.4622,-48.1577 782.9498,-51.566"/>
<polygon fill="#191970" stroke="#191970" points="443.3856,-154.2384 439.2069,-163.9743 448.545,-158.9693 443.3856,-154.2384"/>
</g>
<!-- Node13 -->
<g id="node13" class="node">
<title>Node13</title>
<g id="a_node13"><a xlink:href="classCamera.html#adfb240823ff20b97b69459490dbd8dc3" target="_top" xlink:title="Centers camera on given isometric coordinates Centers the camera on the given isometric coordinates...">
<polygon fill="none" stroke="#000000" points="563.5,-88 563.5,-107 726.5,-107 726.5,-88 563.5,-88"/>
<text text-anchor="middle" x="645" y="-95" font-family="Helvetica,sans-Serif" font-size="10.00" fill="#000000">Camera::centerScreenOnPoint</text>
</a>
</g>
</g>
<!-- Node9&#45;&gt;Node13 -->
<g id="edge18" class="edge">
<title>Node9&#45;&gt;Node13</title>
<path fill="none" stroke="#191970" d="M460.0758,-159.5079C484.2832,-148.2244 519.8619,-132.4802 552,-121.5 568.2526,-115.9472 586.4819,-110.9775 602.4662,-107.0207"/>
<polygon fill="#191970" stroke="#191970" points="458.3142,-156.4686 450.7563,-163.8935 461.2948,-162.8023 458.3142,-156.4686"/>
</g>
<!-- Node15 -->
<g id="node15" class="node">
<title>Node15</title>
<g id="a_node15"><a xlink:href="classUIManager.html#ac927e1cd3dea979202ea9dbf1195b583" target="_top" xlink:title="UIManager::changeResolution">
<polygon fill="none" stroke="#000000" points="564.5,-240 564.5,-259 725.5,-259 725.5,-240 564.5,-240"/>
<text text-anchor="middle" x="645" y="-247" font-family="Helvetica,sans-Serif" font-size="10.00" fill="#000000">UIManager::changeResolution</text>
</a>
</g>
</g>
<!-- Node9&#45;&gt;Node15 -->
<g id="edge25" class="edge">
<title>Node9&#45;&gt;Node15</title>
<path fill="none" stroke="#191970" d="M456.9282,-187.9413C480.9349,-200.7677 517.9564,-219.1849 552,-230.5 563.2595,-234.2423 575.542,-237.3825 587.3814,-239.9633"/>
<polygon fill="#191970" stroke="#191970" points="458.5538,-184.8414 448.0934,-183.1587 455.2213,-190.9973 458.5538,-184.8414"/>
</g>
<!-- Node18 -->
<g id="node18" class="node">
<title>Node18</title>
<g id="a_node18"><a xlink:href="classUIManager.html#af2ffb4ee45e57152164643ef6cddda37" target="_top" xlink:title="UIManager::changeFullScreenMode">
<polygon fill="none" stroke="#000000" points="552,-202 552,-221 738,-221 738,-202 552,-202"/>
<text text-anchor="middle" x="645" y="-209" font-family="Helvetica,sans-Serif" font-size="10.00" fill="#000000">UIManager::changeFullScreenMode</text>
</a>
</g>
</g>
<!-- Node9&#45;&gt;Node18 -->
<g id="edge28" class="edge">
<title>Node9&#45;&gt;Node18</title>
<path fill="none" stroke="#191970" d="M479.6992,-182.1475C512.9364,-188.0495 556.9775,-195.8698 591.2426,-201.9543"/>
<polygon fill="#191970" stroke="#191970" points="480.2117,-178.6839 469.7538,-180.3815 478.9878,-185.576 480.2117,-178.6839"/>
</g>
<!-- Node10&#45;&gt;Node3 -->
<g id="edge14" class="edge">
<title>Node10&#45;&gt;Node3</title>
<path fill="none" stroke="#191970" d="M951.7122,-135.5C1020.8192,-135.5 1115.7906,-135.5 1181.7872,-135.5"/>
<polygon fill="#191970" stroke="#191970" points="951.7104,-132.0001 941.7103,-135.5 951.7103,-139.0001 951.7104,-132.0001"/>
</g>
<!-- Node11 -->
<g id="node11" class="node">
<title>Node11</title>
<g id="a_node11"><a xlink:href="classCamera.html#a1f8ecd427814c5a4970223c2d13b9310" target="_top" xlink:title="Camera::setPinchDistance">
<polygon fill="none" stroke="#000000" points="994.5,-88 994.5,-107 1139.5,-107 1139.5,-88 994.5,-88"/>
<text text-anchor="middle" x="1067" y="-95" font-family="Helvetica,sans-Serif" font-size="10.00" fill="#000000">Camera::setPinchDistance</text>
</a>
</g>
</g>
<!-- Node10&#45;&gt;Node11 -->
<g id="edge12" class="edge">
<title>Node10&#45;&gt;Node11</title>
<path fill="none" stroke="#191970" d="M924.2973,-124.0819C953.486,-118.6448 987.9943,-112.2168 1015.7644,-107.0439"/>
<polygon fill="#191970" stroke="#191970" points="923.4044,-120.6879 914.2145,-125.96 924.6864,-127.5695 923.4044,-120.6879"/>
</g>
<!-- Node11&#45;&gt;Node3 -->
<g id="edge13" class="edge">
<title>Node11&#45;&gt;Node3</title>
<path fill="none" stroke="#191970" d="M1125.298,-109.0381C1152.6826,-114.458 1184.9334,-120.841 1210.8987,-125.9799"/>
<polygon fill="#191970" stroke="#191970" points="1125.939,-105.5972 1115.4497,-107.089 1124.5799,-112.464 1125.939,-105.5972"/>
</g>
<!-- Node12&#45;&gt;Node3 -->
<g id="edge17" class="edge">
<title>Node12&#45;&gt;Node3</title>
<path fill="none" stroke="#191970" d="M953.3989,-56.4771C1009.726,-56.81 1083.1778,-61.3088 1146,-78.5 1183.9362,-88.8812 1224.0675,-112.6126 1244.7769,-125.9494"/>
<polygon fill="#191970" stroke="#191970" points="953.0924,-52.9767 943.0871,-56.4613 953.0816,-59.9767 953.0924,-52.9767"/>
</g>
<!-- Node12&#45;&gt;Node11 -->
<g id="edge16" class="edge">
<title>Node12&#45;&gt;Node11</title>
<path fill="none" stroke="#191970" d="M924.2973,-70.9181C953.486,-76.3552 987.9943,-82.7832 1015.7644,-87.9561"/>
<polygon fill="#191970" stroke="#191970" points="924.6864,-67.4305 914.2145,-69.04 923.4044,-74.3121 924.6864,-67.4305"/>
</g>
<!-- Node13&#45;&gt;Node10 -->
<g id="edge19" class="edge">
<title>Node13&#45;&gt;Node10</title>
<path fill="none" stroke="#191970" d="M709.688,-108.7759C741.0512,-114.2429 778.3131,-120.7381 808.2483,-125.9561"/>
<polygon fill="#191970" stroke="#191970" points="710.1817,-105.3093 699.7292,-107.04 708.9796,-112.2053 710.1817,-105.3093"/>
</g>
<!-- Node13&#45;&gt;Node11 -->
<g id="edge21" class="edge">
<title>Node13&#45;&gt;Node11</title>
<path fill="none" stroke="#191970" d="M736.8274,-97.5C814.1115,-97.5 923.1335,-97.5 994.4237,-97.5"/>
<polygon fill="#191970" stroke="#191970" points="736.6159,-94.0001 726.6159,-97.5 736.6159,-101.0001 736.6159,-94.0001"/>
</g>
<!-- Node13&#45;&gt;Node12 -->
<g id="edge20" class="edge">
<title>Node13&#45;&gt;Node12</title>
<path fill="none" stroke="#191970" d="M709.688,-86.2241C741.0512,-80.7571 778.3131,-74.2619 808.2483,-69.0439"/>
<polygon fill="#191970" stroke="#191970" points="708.9796,-82.7947 699.7292,-87.96 710.1817,-89.6907 708.9796,-82.7947"/>
</g>
<!-- Node14 -->
<g id="node14" class="node">
<title>Node14</title>
<g id="a_node14"><a xlink:href="classCamera.html#af29da768f8948f3afbf0a9b43530eb1d" target="_top" xlink:title="Centers camera on the middle of the map Centers the camera on the middle of the map. ">
<polygon fill="none" stroke="#000000" points="988,-.5 988,-30.5 1146,-30.5 1146,-.5 988,-.5"/>
<text text-anchor="start" x="996" y="-18.5" font-family="Helvetica,sans-Serif" font-size="10.00" fill="#000000">Camera::centerScreenOnMap</text>
<text text-anchor="middle" x="1067" y="-7.5" font-family="Helvetica,sans-Serif" font-size="10.00" fill="#000000">Center</text>
</a>
</g>
</g>
<!-- Node13&#45;&gt;Node14 -->
<g id="edge22" class="edge">
<title>Node13&#45;&gt;Node14</title>
<path fill="none" stroke="#191970" d="M670.8421,-83.0115C696.2513,-69.5168 736.5614,-50.0832 774,-40.5 844.849,-22.3646 928.1519,-16.6973 987.7868,-15.2231"/>
<polygon fill="#191970" stroke="#191970" points="669.0041,-80.0264 661.8704,-87.8598 672.332,-86.1847 669.0041,-80.0264"/>
</g>
<!-- Node14&#45;&gt;Node4 -->
<g id="edge23" class="edge">
<title>Node14&#45;&gt;Node4</title>
<path fill="none" stroke="#191970" d="M1156.2863,-31.3029C1226.8907,-43.7992 1321.6287,-60.567 1371.6803,-69.4257"/>
<polygon fill="#191970" stroke="#191970" points="1156.5096,-27.7881 1146.0526,-29.4916 1155.2895,-34.681 1156.5096,-27.7881"/>
</g>
<!-- Node16 -->
<g id="node16" class="node">
<title>Node16</title>
<g id="a_node16"><a xlink:href="classUIManager.html#aa78e356fc3b356d790c848319d1c387e" target="_top" xlink:title="UIManager::setCallbackFunctions">
<polygon fill="none" stroke="#000000" points="774,-252 774,-271 952,-271 952,-252 774,-252"/>
<text text-anchor="middle" x="863" y="-259" font-family="Helvetica,sans-Serif" font-size="10.00" fill="#000000">UIManager::setCallbackFunctions</text>
</a>
</g>
</g>
<!-- Node15&#45;&gt;Node16 -->
<g id="edge26" class="edge">
<title>Node15&#45;&gt;Node16</title>
<path fill="none" stroke="#191970" d="M735.6341,-254.489C748.309,-255.1867 761.3251,-255.9032 773.9699,-256.5993"/>
<polygon fill="#191970" stroke="#191970" points="735.7331,-250.9893 725.5558,-253.9343 735.3483,-257.9787 735.7331,-250.9893"/>
</g>
<!-- Node17 -->
<g id="node17" class="node">
<title>Node17</title>
<g id="a_node17"><a xlink:href="classUIManager.html#a5c4cb8e02504ffa0d3faf45181feab9d" target="_top" xlink:title="Fill UI Widgets whose ID start with a $ with data Used for filling widgets with data, like BuildMenu Position combobox, Screen Resolution ComboBox and so on. ">
<polygon fill="none" stroke="#000000" points="790,-202.5 790,-232.5 936,-232.5 936,-202.5 790,-202.5"/>
<text text-anchor="start" x="798" y="-220.5" font-family="Helvetica,sans-Serif" font-size="10.00" fill="#000000">UIManager::initializeDollar</text>
<text text-anchor="middle" x="863" y="-209.5" font-family="Helvetica,sans-Serif" font-size="10.00" fill="#000000">Variables</text>
</a>
</g>
</g>
<!-- Node15&#45;&gt;Node17 -->
<g id="edge27" class="edge">
<title>Node15&#45;&gt;Node17</title>
<path fill="none" stroke="#191970" d="M720.0017,-238.4906C742.5329,-235.1832 767.2178,-231.5598 789.6414,-228.2682"/>
<polygon fill="#191970" stroke="#191970" points="719.2026,-235.0703 709.817,-239.9856 720.2193,-241.9961 719.2026,-235.0703"/>
</g>
<!-- Node18&#45;&gt;Node17 -->
<g id="edge29" class="edge">
<title>Node18&#45;&gt;Node17</title>
<path fill="none" stroke="#191970" d="M748.3047,-214.3432C762.3906,-214.7309 776.6036,-215.1221 789.9995,-215.4908"/>
<polygon fill="#191970" stroke="#191970" points="748.1765,-210.8385 738.084,-214.0619 747.9838,-217.8358 748.1765,-210.8385"/>
</g>
</g>
</svg>
