<?xml version="1.0" encoding="UTF-8" standalone="no"?>
<!DOCTYPE svg PUBLIC "-//W3C//DTD SVG 1.1//EN"
 "http://www.w3.org/Graphics/SVG/1.1/DTD/svg11.dtd">
<!-- Generated by graphviz version 2.40.1 (20161225.0304)
 -->
<!-- Title: isPointWithinMapBoundaries Pages: 1 -->
<!--zoomable 506 -->
<svg id="main" version="1.1" xmlns="http://www.w3.org/2000/svg" xmlns:xlink="http://www.w3.org/1999/xlink" xml:space="preserve" onload="init(evt)">
<style type="text/css"><![CDATA[
.edge:hover path { stroke: red; }
.edge:hover polygon { stroke: red; fill: red; }
]]></style>
<script type="text/javascript"><![CDATA[
var edges = document.getElementsByTagName('g');
if (edges && edges.length) {
  for (var i=0;i<edges.length;i++) {
    if (edges[i].id.substr(0,4)=='edge') {
      edges[i].setAttribute('class','edge');
    }
  }
}
]]></script>
        <defs>
                <circle id="rim" cx="0" cy="0" r="7"/>
                <circle id="rim2" cx="0" cy="0" r="3.5"/>
                <g id="zoomPlus">
                        <use xlink:href="#rim" fill="#404040">
                                <set attributeName="fill" to="#808080" begin="zoomplus.mouseover" end="zoomplus.mouseout"/>
                        </use>
                        <path d="M-4,0h8M0,-4v8" fill="none" stroke="white" stroke-width="1.5" pointer-events="none"/>
                </g>
                <g id="zoomMin">
                        <use xlink:href="#rim" fill="#404040">
                                <set attributeName="fill" to="#808080" begin="zoomminus.mouseover" end="zoomminus.mouseout"/>
                        </use>
                        <path d="M-4,0h8" fill="none" stroke="white" stroke-width="1.5" pointer-events="none"/>
                </g>
                <g id="dirArrow">
                        <path fill="none" stroke="white" stroke-width="1.5" d="M0,-3.0v7 M-2.5,-0.5L0,-3.0L2.5,-0.5"/>
                </g>
               <g id="resetDef">
                       <use xlink:href="#rim2" fill="#404040">
                               <set attributeName="fill" to="#808080" begin="reset.mouseover" end="reset.mouseout"/>
                       </use>
               </g>
        </defs>

<script type="text/javascript">
var viewWidth = 2015;
var viewHeight = 506;
var sectionId = 'dynsection-9';
</script>
<script xlink:href="svgpan.js"/>
<svg id="graph" class="graph">
<g id="viewport">
<title>isPointWithinMapBoundaries</title>
<!-- Node78 -->
<g id="node1" class="node">
<title>Node78</title>
<polygon fill="#bfbfbf" stroke="#000000" points="0,-330.9604 0,-349.9604 156,-349.9604 156,-330.9604 0,-330.9604"/>
<text text-anchor="middle" x="78" y="-337.9604" font-family="Helvetica,sans-Serif" font-size="10.00" fill="#000000">isPointWithinMapBoundaries</text>
</g>
<!-- Node79 -->
<g id="node2" class="node">
<title>Node79</title>
<g id="a_node2"><a xlink:href="classCamera.html#adfb240823ff20b97b69459490dbd8dc3" target="_top" xlink:title="Centers camera on given isometric coordinates Centers the camera on the given isometric coordinates...">
<polygon fill="none" stroke="#000000" points="883,-178.9604 883,-197.9604 1046,-197.9604 1046,-178.9604 883,-178.9604"/>
<text text-anchor="middle" x="964.5" y="-185.9604" font-family="Helvetica,sans-Serif" font-size="10.00" fill="#000000">Camera::centerScreenOnPoint</text>
</a>
</g>
</g>
<!-- Node78&#45;&gt;Node79 -->
<g id="edge1" class="edge">
<title>Node78&#45;&gt;Node79</title>
<path fill="none" stroke="#191970" d="M102.9298,-325.6396C125.4944,-312.8049 159.9996,-294.5977 192,-283.4604 308.8571,-242.7899 340.7677,-226.4604 464.5,-226.4604 464.5,-226.4604 464.5,-226.4604 641,-226.4604 738.4062,-226.4604 851.1905,-209.2567 914.5599,-198.0004"/>
<polygon fill="#191970" stroke="#191970" points="100.9437,-322.7447 94.0324,-330.775 104.443,-328.8074 100.9437,-322.7447"/>
</g>
<!-- Node82 -->
<g id="node5" class="node">
<title>Node82</title>
<g id="a_node5"><a xlink:href="classEventManager.html#a65ec91fd5016d4f9c4167fb8babed2df" target="_top" xlink:title="EventManager::checkEvents">
<polygon fill="none" stroke="#000000" points="1496,-273.9604 1496,-292.9604 1650,-292.9604 1650,-273.9604 1496,-273.9604"/>
<text text-anchor="middle" x="1573" y="-280.9604" font-family="Helvetica,sans-Serif" font-size="10.00" fill="#000000">EventManager::checkEvents</text>
</a>
</g>
</g>
<!-- Node78&#45;&gt;Node82 -->
<g id="edge16" class="edge">
<title>Node78&#45;&gt;Node82</title>
<path fill="none" stroke="#191970" d="M94.12,-357.1199C114.8498,-377.5459 152.8657,-411.749 192,-430.4604 304.0563,-484.0383 340.2937,-492.4604 464.5,-492.4604 464.5,-492.4604 464.5,-492.4604 1162,-492.4604 1290.3483,-492.4604 1337.6815,-518.0584 1448,-452.4604 1514.4989,-412.9186 1556.5829,-322.9692 1569.0848,-293.2172"/>
<polygon fill="#191970" stroke="#191970" points="96.592,-354.6421 87.0551,-350.027 91.6324,-359.5821 96.592,-354.6421"/>
</g>
<!-- Node88 -->
<g id="node11" class="node">
<title>Node88</title>
<g id="a_node11"><a xlink:href="isoMath_8hxx.html#aaaee008d05e747ab820bebea19db8506" target="_top" xlink:title="isPointWithinMapBoundaries">
<polygon fill="none" stroke="#000000" points="192,-178.9604 192,-197.9604 348,-197.9604 348,-178.9604 192,-178.9604"/>
<text text-anchor="middle" x="270" y="-185.9604" font-family="Helvetica,sans-Serif" font-size="10.00" fill="#000000">isPointWithinMapBoundaries</text>
</a>
</g>
</g>
<!-- Node78&#45;&gt;Node88 -->
<g id="edge15" class="edge">
<title>Node78&#45;&gt;Node88</title>
<path fill="none" stroke="#191970" d="M89.4995,-322.1151C107.8299,-294.3531 146.3064,-241.8029 192,-212.4604 201.6566,-206.2593 213.0112,-201.5796 224.0226,-198.0794"/>
<polygon fill="#191970" stroke="#191970" points="86.3614,-320.5229 83.8772,-330.8224 92.2421,-324.32 86.3614,-320.5229"/>
</g>
<!-- Node89 -->
<g id="node12" class="node">
<title>Node89</title>
<g id="a_node12"><a xlink:href="classMap.html#ad360682917f0061dbba995d645c56212" target="_top" xlink:title="Map::getNeighborNodes">
<polygon fill="none" stroke="#000000" points="203,-292.9604 203,-311.9604 337,-311.9604 337,-292.9604 203,-292.9604"/>
<text text-anchor="middle" x="270" y="-299.9604" font-family="Helvetica,sans-Serif" font-size="10.00" fill="#000000">Map::getNeighborNodes</text>
</a>
</g>
</g>
<!-- Node78&#45;&gt;Node89 -->
<g id="edge17" class="edge">
<title>Node78&#45;&gt;Node89</title>
<path fill="none" stroke="#191970" d="M136.298,-328.9223C163.6826,-323.5024 195.9334,-317.1194 221.8987,-311.9804"/>
<polygon fill="#191970" stroke="#191970" points="135.5799,-325.4964 126.4497,-330.8714 136.939,-332.3632 135.5799,-325.4964"/>
</g>
<!-- Node104 -->
<g id="node27" class="node">
<title>Node104</title>
<g id="a_node27"><a xlink:href="classMap.html#aa8cc2ed983007621bce12dd9d1b8ec5b" target="_top" xlink:title="Demolish a node This function gathers all tiles that should be demolished and invokes the nodes demol...">
<polygon fill="none" stroke="#000000" points="584.5,-330.9604 584.5,-349.9604 697.5,-349.9604 697.5,-330.9604 584.5,-330.9604"/>
<text text-anchor="middle" x="641" y="-337.9604" font-family="Helvetica,sans-Serif" font-size="10.00" fill="#000000">Map::demolishNode</text>
</a>
</g>
</g>
<!-- Node78&#45;&gt;Node104 -->
<g id="edge46" class="edge">
<title>Node78&#45;&gt;Node104</title>
<path fill="none" stroke="#191970" d="M166.6312,-340.4604C283.5629,-340.4604 486.0081,-340.4604 584.2525,-340.4604"/>
<polygon fill="#191970" stroke="#191970" points="166.2828,-336.9605 156.2827,-340.4604 166.2827,-343.9605 166.2828,-336.9605"/>
</g>
<!-- Node105 -->
<g id="node28" class="node">
<title>Node105</title>
<g id="a_node28"><a xlink:href="classMap.html#a2dda1bb4e2785396a974c950a55aa679" target="_top" xlink:title="Get original corner point of given point within building borders. ">
<polygon fill="none" stroke="#000000" points="384,-444.9604 384,-463.9604 545,-463.9604 545,-444.9604 384,-444.9604"/>
<text text-anchor="middle" x="464.5" y="-451.9604" font-family="Helvetica,sans-Serif" font-size="10.00" fill="#000000">Map::getNodeOrigCornerPoint</text>
</a>
</g>
</g>
<!-- Node78&#45;&gt;Node105 -->
<g id="edge44" class="edge">
<title>Node78&#45;&gt;Node105</title>
<path fill="none" stroke="#191970" d="M102.9298,-355.2812C125.4944,-368.1159 159.9996,-386.3231 192,-397.4604 258.9874,-420.7745 338.7201,-436.0899 394.5733,-444.9158"/>
<polygon fill="#191970" stroke="#191970" points="104.443,-352.1134 94.0324,-350.1458 100.9437,-358.1761 104.443,-352.1134"/>
</g>
<!-- Node106 -->
<g id="node29" class="node">
<title>Node106</title>
<g id="a_node29"><a xlink:href="classMap.html#a352929ea8cc2efc4f415c7ec795e1538" target="_top" xlink:title="Map::isClickWithinTile">
<polygon fill="none" stroke="#000000" points="207.5,-368.9604 207.5,-387.9604 332.5,-387.9604 332.5,-368.9604 207.5,-368.9604"/>
<text text-anchor="middle" x="270" y="-375.9604" font-family="Helvetica,sans-Serif" font-size="10.00" fill="#000000">Map::isClickWithinTile</text>
</a>
</g>
</g>
<!-- Node78&#45;&gt;Node106 -->
<g id="edge47" class="edge">
<title>Node78&#45;&gt;Node106</title>
<path fill="none" stroke="#191970" d="M136.298,-351.9985C163.6826,-357.4184 195.9334,-363.8014 221.8987,-368.9403"/>
<polygon fill="#191970" stroke="#191970" points="136.939,-348.5576 126.4497,-350.0494 135.5799,-355.4244 136.939,-348.5576"/>
</g>
<!-- Node80 -->
<g id="node3" class="node">
<title>Node80</title>
<g id="a_node3"><a xlink:href="classCamera.html#a0a8ee04ccb4f4cc9af52a964cf225f66" target="_top" xlink:title="Increases the zoom level of the camera Increases the zoom level of the camera. ">
<polygon fill="none" stroke="#000000" points="1083.5,-216.9604 1083.5,-235.9604 1240.5,-235.9604 1240.5,-216.9604 1083.5,-216.9604"/>
<text text-anchor="middle" x="1162" y="-223.9604" font-family="Helvetica,sans-Serif" font-size="10.00" fill="#000000">Camera::increaseZoomLevel</text>
</a>
</g>
</g>
<!-- Node79&#45;&gt;Node80 -->
<g id="edge2" class="edge">
<title>Node79&#45;&gt;Node80</title>
<path fill="none" stroke="#191970" d="M1024.2147,-199.9498C1052.3946,-205.3718 1085.629,-211.7662 1112.3969,-216.9165"/>
<polygon fill="#191970" stroke="#191970" points="1024.5639,-196.4529 1014.0827,-198.0004 1023.2412,-203.3268 1024.5639,-196.4529"/>
</g>
<!-- Node81 -->
<g id="node4" class="node">
<title>Node81</title>
<g id="a_node4"><a xlink:href="classCamera.html#a1f8ecd427814c5a4970223c2d13b9310" target="_top" xlink:title="Camera::setPinchDistance">
<polygon fill="none" stroke="#000000" points="1290.5,-178.9604 1290.5,-197.9604 1435.5,-197.9604 1435.5,-178.9604 1290.5,-178.9604"/>
<text text-anchor="middle" x="1363" y="-185.9604" font-family="Helvetica,sans-Serif" font-size="10.00" fill="#000000">Camera::setPinchDistance</text>
</a>
</g>
</g>
<!-- Node79&#45;&gt;Node81 -->
<g id="edge12" class="edge">
<title>Node79&#45;&gt;Node81</title>
<path fill="none" stroke="#191970" d="M1056.3929,-188.4604C1127.4518,-188.4604 1224.483,-188.4604 1290.215,-188.4604"/>
<polygon fill="#191970" stroke="#191970" points="1056.1041,-184.9605 1046.104,-188.4604 1056.104,-191.9605 1056.1041,-184.9605"/>
</g>
<!-- Node86 -->
<g id="node9" class="node">
<title>Node86</title>
<g id="a_node9"><a xlink:href="classCamera.html#aeea39f352d5873495dea6f376cf3207e" target="_top" xlink:title="Decreases the zoom level of the camera Decreases the zoom level of the camera. ">
<polygon fill="none" stroke="#000000" points="1082,-140.9604 1082,-159.9604 1242,-159.9604 1242,-140.9604 1082,-140.9604"/>
<text text-anchor="middle" x="1162" y="-147.9604" font-family="Helvetica,sans-Serif" font-size="10.00" fill="#000000">Camera::decreaseZoomLevel</text>
</a>
</g>
</g>
<!-- Node79&#45;&gt;Node86 -->
<g id="edge9" class="edge">
<title>Node79&#45;&gt;Node86</title>
<path fill="none" stroke="#191970" d="M1024.2147,-176.971C1052.3946,-171.549 1085.629,-165.1546 1112.3969,-160.0043"/>
<polygon fill="#191970" stroke="#191970" points="1023.2412,-173.594 1014.0827,-178.9204 1024.5639,-180.4679 1023.2412,-173.594"/>
</g>
<!-- Node87 -->
<g id="node10" class="node">
<title>Node87</title>
<g id="a_node10"><a xlink:href="classCamera.html#af29da768f8948f3afbf0a9b43530eb1d" target="_top" xlink:title="Centers camera on the middle of the map Centers the camera on the middle of the map. ">
<polygon fill="none" stroke="#000000" points="1494,-103.4604 1494,-133.4604 1652,-133.4604 1652,-103.4604 1494,-103.4604"/>
<text text-anchor="start" x="1502" y="-121.4604" font-family="Helvetica,sans-Serif" font-size="10.00" fill="#000000">Camera::centerScreenOnMap</text>
<text text-anchor="middle" x="1573" y="-110.4604" font-family="Helvetica,sans-Serif" font-size="10.00" fill="#000000">Center</text>
</a>
</g>
</g>
<!-- Node79&#45;&gt;Node87 -->
<g id="edge13" class="edge">
<title>Node79&#45;&gt;Node87</title>
<path fill="none" stroke="#191970" d="M987.5843,-173.5792C1010.5007,-159.7182 1047.1509,-139.9541 1082,-131.4604 1223.8767,-96.8812 1395.6544,-102.7478 1493.8408,-110.422"/>
<polygon fill="#191970" stroke="#191970" points="985.5997,-170.6913 978.935,-178.9273 989.2811,-176.6451 985.5997,-170.6913"/>
</g>
<!-- Node80&#45;&gt;Node81 -->
<g id="edge3" class="edge">
<title>Node80&#45;&gt;Node81</title>
<path fill="none" stroke="#191970" d="M1222.3959,-215.0423C1251.1554,-209.6052 1285.1561,-203.1771 1312.5179,-198.0043"/>
<polygon fill="#191970" stroke="#191970" points="1221.6371,-211.6236 1212.4613,-216.9204 1222.9375,-218.5018 1221.6371,-211.6236"/>
</g>
<!-- Node80&#45;&gt;Node82 -->
<g id="edge8" class="edge">
<title>Node80&#45;&gt;Node82</title>
<path fill="none" stroke="#191970" d="M1250.6154,-227.1373C1307.4325,-228.8501 1382.5411,-233.4996 1448,-245.4604 1483.2539,-251.9021 1522.6063,-264.8673 1547.5692,-273.8498"/>
<polygon fill="#191970" stroke="#191970" points="1250.6782,-223.6378 1240.5851,-226.8596 1250.4844,-230.6351 1250.6782,-223.6378"/>
</g>
<!-- Node81&#45;&gt;Node82 -->
<g id="edge4" class="edge">
<title>Node81&#45;&gt;Node82</title>
<path fill="none" stroke="#191970" d="M1414.1172,-200.7322C1425.4513,-204.0467 1437.2763,-207.9786 1448,-212.4604 1490.1404,-230.0724 1535.9084,-258.7859 1558.5838,-273.7294"/>
<polygon fill="#191970" stroke="#191970" points="1414.8974,-197.3159 1404.3234,-197.9799 1413.0036,-204.0549 1414.8974,-197.3159"/>
</g>
<!-- Node83 -->
<g id="node6" class="node">
<title>Node83</title>
<g id="a_node6"><a xlink:href="classGame.html#a1c2ab25d5216b2f4b2fe41efd2c09114" target="_top" xlink:title="begins the game starts running the game ">
<polygon fill="none" stroke="#000000" points="1715.5,-108.9604 1715.5,-127.9604 1783.5,-127.9604 1783.5,-108.9604 1715.5,-108.9604"/>
<text text-anchor="middle" x="1749.5" y="-115.9604" font-family="Helvetica,sans-Serif" font-size="10.00" fill="#000000">Game::run</text>
</a>
</g>
</g>
<!-- Node82&#45;&gt;Node83 -->
<g id="edge5" class="edge">
<title>Node82&#45;&gt;Node83</title>
<path fill="none" stroke="#191970" d="M1590.7138,-266.9007C1627.2932,-232.7047 1710.1828,-155.2159 1739.2194,-128.0711"/>
<polygon fill="#191970" stroke="#191970" points="1588.1672,-264.4902 1583.2523,-273.8761 1592.9475,-269.6038 1588.1672,-264.4902"/>
</g>
<!-- Node84 -->
<g id="node7" class="node">
<title>Node84</title>
<g id="a_node7"><a xlink:href="main_8cxx.html#af582d708d899e67ead623eac34a22387" target="_top" xlink:title="protected_main">
<polygon fill="none" stroke="#000000" points="1837,-67.9604 1837,-86.9604 1930,-86.9604 1930,-67.9604 1837,-67.9604"/>
<text text-anchor="middle" x="1883.5" y="-74.9604" font-family="Helvetica,sans-Serif" font-size="10.00" fill="#000000">protected_main</text>
</a>
</g>
</g>
<!-- Node83&#45;&gt;Node84 -->
<g id="edge6" class="edge">
<title>Node83&#45;&gt;Node84</title>
<path fill="none" stroke="#191970" d="M1790.2952,-105.9783C1810.1646,-99.8989 1833.6837,-92.7027 1852.1253,-87.0601"/>
<polygon fill="#191970" stroke="#191970" points="1789.1175,-102.6784 1780.5791,-108.9511 1791.1656,-109.3721 1789.1175,-102.6784"/>
</g>
<!-- Node85 -->
<g id="node8" class="node">
<title>Node85</title>
<g id="a_node8"><a xlink:href="main_8cxx.html#a3c04138a5bfe5d72780bb7e82a18e627" target="_top" xlink:title="main">
<polygon fill="none" stroke="#000000" points="1966,-67.9604 1966,-86.9604 2007,-86.9604 2007,-67.9604 1966,-67.9604"/>
<text text-anchor="middle" x="1986.5" y="-74.9604" font-family="Helvetica,sans-Serif" font-size="10.00" fill="#000000">main</text>
</a>
</g>
</g>
<!-- Node84&#45;&gt;Node85 -->
<g id="edge7" class="edge">
<title>Node84&#45;&gt;Node85</title>
<path fill="none" stroke="#191970" d="M1940.2133,-77.4604C1949.4322,-77.4604 1958.4259,-77.4604 1965.9965,-77.4604"/>
<polygon fill="#191970" stroke="#191970" points="1940.1782,-73.9605 1930.1782,-77.4604 1940.1781,-80.9605 1940.1782,-73.9605"/>
</g>
<!-- Node86&#45;&gt;Node81 -->
<g id="edge10" class="edge">
<title>Node86&#45;&gt;Node81</title>
<path fill="none" stroke="#191970" d="M1222.3959,-161.8785C1251.1554,-167.3156 1285.1561,-173.7436 1312.5179,-178.9165"/>
<polygon fill="#191970" stroke="#191970" points="1222.9375,-158.419 1212.4613,-160.0004 1221.6371,-165.2972 1222.9375,-158.419"/>
</g>
<!-- Node86&#45;&gt;Node82 -->
<g id="edge11" class="edge">
<title>Node86&#45;&gt;Node82</title>
<path fill="none" stroke="#191970" d="M1252.2958,-141.513C1310.4233,-139.298 1386.353,-143.1876 1448,-169.4604 1502.8498,-192.8364 1549.3112,-250.8226 1566.1981,-273.8307"/>
<polygon fill="#191970" stroke="#191970" points="1251.8579,-138.029 1242.0251,-141.9745 1252.1721,-145.022 1251.8579,-138.029"/>
</g>
<!-- Node87&#45;&gt;Node83 -->
<g id="edge14" class="edge">
<title>Node87&#45;&gt;Node83</title>
<path fill="none" stroke="#191970" d="M1662.3843,-118.4604C1681.2701,-118.4604 1700.0866,-118.4604 1715.3734,-118.4604"/>
<polygon fill="#191970" stroke="#191970" points="1662.2151,-114.9605 1652.215,-118.4604 1662.215,-121.9605 1662.2151,-114.9605"/>
</g>
<!-- Node90 -->
<g id="node13" class="node">
<title>Node90</title>
<g id="a_node13"><a xlink:href="classMap.html#ade1eeabf4e539f9dbfe2a96c97fda4e3" target="_top" xlink:title="Map::changeHeight">
<polygon fill="none" stroke="#000000" points="737,-292.9604 737,-311.9604 847,-311.9604 847,-292.9604 737,-292.9604"/>
<text text-anchor="middle" x="792" y="-299.9604" font-family="Helvetica,sans-Serif" font-size="10.00" fill="#000000">Map::changeHeight</text>
</a>
</g>
</g>
<!-- Node89&#45;&gt;Node90 -->
<g id="edge18" class="edge">
<title>Node89&#45;&gt;Node90</title>
<path fill="none" stroke="#191970" d="M326.3045,-291.1833C344.6237,-288.0227 365.1035,-285.0243 384,-283.4604 509.9666,-273.0351 658.3208,-286.3394 736.8152,-295.3823"/>
<polygon fill="#191970" stroke="#191970" points="325.6068,-287.7524 316.3733,-292.9478 326.8314,-294.6444 325.6068,-287.7524"/>
</g>
<!-- Node95 -->
<g id="node18" class="node">
<title>Node95</title>
<g id="a_node18"><a xlink:href="classMap.html#af1e496c421981fe707890b0ba60cc20f" target="_top" xlink:title="Map::updateNodeNeighbors">
<polygon fill="none" stroke="#000000" points="388.5,-292.9604 388.5,-311.9604 540.5,-311.9604 540.5,-292.9604 388.5,-292.9604"/>
<text text-anchor="middle" x="464.5" y="-299.9604" font-family="Helvetica,sans-Serif" font-size="10.00" fill="#000000">Map::updateNodeNeighbors</text>
</a>
</g>
</g>
<!-- Node89&#45;&gt;Node95 -->
<g id="edge25" class="edge">
<title>Node89&#45;&gt;Node95</title>
<path fill="none" stroke="#191970" d="M347.3846,-302.4604C360.8512,-302.4604 374.8487,-302.4604 388.2837,-302.4604"/>
<polygon fill="#191970" stroke="#191970" points="347.2083,-298.9605 337.2082,-302.4604 347.2082,-305.9605 347.2083,-298.9605"/>
</g>
<!-- Node91 -->
<g id="node14" class="node">
<title>Node91</title>
<g id="a_node14"><a xlink:href="classMap.html#aba5154a4d917900679a3c0f7ec701561" target="_top" xlink:title="Increase Height Increases the height of the node and checks the surrounding tiles. Either draw a slope sprite or elevate the tile if necessary. ">
<polygon fill="none" stroke="#000000" points="906.5,-254.9604 906.5,-273.9604 1022.5,-273.9604 1022.5,-254.9604 906.5,-254.9604"/>
<text text-anchor="middle" x="964.5" y="-261.9604" font-family="Helvetica,sans-Serif" font-size="10.00" fill="#000000">Map::increaseHeight</text>
</a>
</g>
</g>
<!-- Node90&#45;&gt;Node91 -->
<g id="edge19" class="edge">
<title>Node90&#45;&gt;Node91</title>
<path fill="none" stroke="#191970" d="M845.3505,-290.7078C869.742,-285.3346 898.2627,-279.0518 921.284,-273.9804"/>
<polygon fill="#191970" stroke="#191970" points="844.5419,-287.302 835.529,-292.8714 846.0479,-294.138 844.5419,-287.302"/>
</g>
<!-- Node93 -->
<g id="node16" class="node">
<title>Node93</title>
<g id="a_node16"><a xlink:href="classMap.html#afb8cc864df90d273a5074872d635dc40" target="_top" xlink:title="Decrease Height Decreases the height of the node and checks the surrounding tiles. Either draw a slope sprite or lower the tile if necessary. ">
<polygon fill="none" stroke="#000000" points="905,-292.9604 905,-311.9604 1024,-311.9604 1024,-292.9604 905,-292.9604"/>
<text text-anchor="middle" x="964.5" y="-299.9604" font-family="Helvetica,sans-Serif" font-size="10.00" fill="#000000">Map::decreaseHeight</text>
</a>
</g>
</g>
<!-- Node90&#45;&gt;Node93 -->
<g id="edge22" class="edge">
<title>Node90&#45;&gt;Node93</title>
<path fill="none" stroke="#191970" d="M857.1831,-302.4604C872.8485,-302.4604 889.5017,-302.4604 904.8985,-302.4604"/>
<polygon fill="#191970" stroke="#191970" points="857.0544,-298.9605 847.0544,-302.4604 857.0543,-305.9605 857.0544,-298.9605"/>
</g>
<!-- Node92 -->
<g id="node15" class="node">
<title>Node92</title>
<g id="a_node15"><a xlink:href="classEngine.html#a4851ae1ff696c893741167fc0194fd77" target="_top" xlink:title="Increase Height Increases the height of the given map node Calls the according function of the Map ob...">
<polygon fill="none" stroke="#000000" points="1298.5,-254.9604 1298.5,-273.9604 1427.5,-273.9604 1427.5,-254.9604 1298.5,-254.9604"/>
<text text-anchor="middle" x="1363" y="-261.9604" font-family="Helvetica,sans-Serif" font-size="10.00" fill="#000000">Engine::increaseHeight</text>
</a>
</g>
</g>
<!-- Node91&#45;&gt;Node92 -->
<g id="edge20" class="edge">
<title>Node91&#45;&gt;Node92</title>
<path fill="none" stroke="#191970" d="M1033.0701,-264.4604C1107.4529,-264.4604 1225.3041,-264.4604 1298.184,-264.4604"/>
<polygon fill="#191970" stroke="#191970" points="1032.8721,-260.9605 1022.8721,-264.4604 1032.8721,-267.9605 1032.8721,-260.9605"/>
</g>
<!-- Node92&#45;&gt;Node82 -->
<g id="edge21" class="edge">
<title>Node92&#45;&gt;Node82</title>
<path fill="none" stroke="#191970" d="M1437.7497,-271.2235C1456.6372,-272.9323 1476.9524,-274.7704 1495.9508,-276.4893"/>
<polygon fill="#191970" stroke="#191970" points="1437.9952,-267.7315 1427.7205,-270.3161 1437.3644,-274.703 1437.9952,-267.7315"/>
</g>
<!-- Node94 -->
<g id="node17" class="node">
<title>Node94</title>
<g id="a_node17"><a xlink:href="classEngine.html#a13572fdd7f6470dca48a14497f58980e" target="_top" xlink:title="Decrease Height Decreases the height of the given map node Calls the according function of the Map ob...">
<polygon fill="none" stroke="#000000" points="1297,-292.9604 1297,-311.9604 1429,-311.9604 1429,-292.9604 1297,-292.9604"/>
<text text-anchor="middle" x="1363" y="-299.9604" font-family="Helvetica,sans-Serif" font-size="10.00" fill="#000000">Engine::decreaseHeight</text>
</a>
</g>
</g>
<!-- Node93&#45;&gt;Node94 -->
<g id="edge23" class="edge">
<title>Node93&#45;&gt;Node94</title>
<path fill="none" stroke="#191970" d="M1034.3171,-302.4604C1108.3432,-302.4604 1224.3881,-302.4604 1296.9496,-302.4604"/>
<polygon fill="#191970" stroke="#191970" points="1034.1595,-298.9605 1024.1595,-302.4604 1034.1594,-305.9605 1034.1595,-298.9605"/>
</g>
<!-- Node94&#45;&gt;Node82 -->
<g id="edge24" class="edge">
<title>Node94&#45;&gt;Node82</title>
<path fill="none" stroke="#191970" d="M1439.2391,-295.5626C1457.6522,-293.8966 1477.344,-292.115 1495.8008,-290.4451"/>
<polygon fill="#191970" stroke="#191970" points="1438.801,-292.0878 1429.1571,-296.4748 1439.4318,-299.0593 1438.801,-292.0878"/>
</g>
<!-- Node95&#45;&gt;Node90 -->
<g id="edge26" class="edge">
<title>Node95&#45;&gt;Node90</title>
<path fill="none" stroke="#191970" d="M550.9068,-302.4604C609.7825,-302.4604 685.9756,-302.4604 736.7931,-302.4604"/>
<polygon fill="#191970" stroke="#191970" points="550.8709,-298.9605 540.8709,-302.4604 550.8708,-305.9605 550.8709,-298.9605"/>
</g>
<!-- Node96 -->
<g id="node19" class="node">
<title>Node96</title>
<g id="a_node19"><a xlink:href="classMap.html#a481b37ba71ef0e51e836fc42805762dd" target="_top" xlink:title="Update all mapNodes Updates all mapNode and its adjacent tiles regarding height information, draws slopes for adjacent tiles and sets tiling for mapNode sprite if applicable. ">
<polygon fill="none" stroke="#000000" points="581,-140.9604 581,-159.9604 701,-159.9604 701,-140.9604 581,-140.9604"/>
<text text-anchor="middle" x="641" y="-147.9604" font-family="Helvetica,sans-Serif" font-size="10.00" fill="#000000">Map::updateAllNodes</text>
</a>
</g>
</g>
<!-- Node95&#45;&gt;Node96 -->
<g id="edge27" class="edge">
<title>Node95&#45;&gt;Node96</title>
<path fill="none" stroke="#191970" d="M483.5304,-286.0716C520.4238,-254.2994 600.6236,-185.2321 629.9633,-159.9651"/>
<polygon fill="#191970" stroke="#191970" points="480.8343,-283.7744 475.5409,-292.9521 485.4022,-289.0786 480.8343,-283.7744"/>
</g>
<!-- Node95&#45;&gt;Node104 -->
<g id="edge40" class="edge">
<title>Node95&#45;&gt;Node104</title>
<path fill="none" stroke="#191970" d="M549.9333,-314.107C575.3095,-319.5154 600.9966,-325.7355 618.5902,-330.9579"/>
<polygon fill="#191970" stroke="#191970" points="550.3687,-310.6224 539.8638,-312.0004 548.9352,-317.4741 550.3687,-310.6224"/>
</g>
<!-- Node97 -->
<g id="node20" class="node">
<title>Node97</title>
<g id="a_node20"><a xlink:href="classMap.html#a26eceeccd7b6ed693909b1927a25c67a" target="_top" xlink:title="Map::Map">
<polygon fill="none" stroke="#000000" points="760.5,-140.9604 760.5,-159.9604 823.5,-159.9604 823.5,-140.9604 760.5,-140.9604"/>
<text text-anchor="middle" x="792" y="-147.9604" font-family="Helvetica,sans-Serif" font-size="10.00" fill="#000000">Map::Map</text>
</a>
</g>
</g>
<!-- Node96&#45;&gt;Node97 -->
<g id="edge28" class="edge">
<title>Node96&#45;&gt;Node97</title>
<path fill="none" stroke="#191970" d="M711.1682,-150.4604C728.3649,-150.4604 745.9322,-150.4604 760.2779,-150.4604"/>
<polygon fill="#191970" stroke="#191970" points="711.1131,-146.9605 701.1131,-150.4604 711.113,-153.9605 711.1131,-146.9605"/>
</g>
<!-- Node98 -->
<g id="node21" class="node">
<title>Node98</title>
<g id="a_node21"><a xlink:href="classMap.html#afefe996cc1f62b61ec60d0ae415953bf" target="_top" xlink:title="Map::loadMapFromFile">
<polygon fill="none" stroke="#000000" points="902,-102.9604 902,-121.9604 1027,-121.9604 1027,-102.9604 902,-102.9604"/>
<text text-anchor="middle" x="964.5" y="-109.9604" font-family="Helvetica,sans-Serif" font-size="10.00" fill="#000000">Map::loadMapFromFile</text>
</a>
</g>
</g>
<!-- Node96&#45;&gt;Node98 -->
<g id="edge39" class="edge">
<title>Node96&#45;&gt;Node98</title>
<path fill="none" stroke="#191970" d="M693.792,-138.9087C707.7856,-136.1496 722.9194,-133.4354 737,-131.4604 792.3422,-123.6977 855.7359,-118.7223 901.5233,-115.8187"/>
<polygon fill="#191970" stroke="#191970" points="692.9465,-135.5086 683.8353,-140.9157 694.3298,-142.3706 692.9465,-135.5086"/>
</g>
<!-- Node97&#45;&gt;Node98 -->
<g id="edge29" class="edge">
<title>Node97&#45;&gt;Node98</title>
<path fill="none" stroke="#191970" d="M833.4103,-141.3381C859.9948,-135.4818 894.452,-127.8913 921.3673,-121.9621"/>
<polygon fill="#191970" stroke="#191970" points="832.652,-137.9212 823.6392,-143.4906 834.158,-144.7573 832.652,-137.9212"/>
</g>
<!-- Node99 -->
<g id="node22" class="node">
<title>Node99</title>
<g id="a_node22"><a xlink:href="classEngine.html#a83b7dbeee899b36a13d5b07c7ad87ebc" target="_top" xlink:title="Loads a saved game Loads a saved Game. ">
<polygon fill="none" stroke="#000000" points="1109,-45.9604 1109,-64.9604 1215,-64.9604 1215,-45.9604 1109,-45.9604"/>
<text text-anchor="middle" x="1162" y="-52.9604" font-family="Helvetica,sans-Serif" font-size="10.00" fill="#000000">Engine::loadGame</text>
</a>
</g>
</g>
<!-- Node98&#45;&gt;Node99 -->
<g id="edge30" class="edge">
<title>Node98&#45;&gt;Node99</title>
<path fill="none" stroke="#191970" d="M1007.4129,-100.0754C1043.8771,-89.5516 1095.4714,-74.6611 1128.8351,-65.032"/>
<polygon fill="#191970" stroke="#191970" points="1006.1944,-96.7842 997.5571,-102.9199 1008.1355,-103.5097 1006.1944,-96.7842"/>
</g>
<!-- Node100 -->
<g id="node23" class="node">
<title>Node100</title>
<g id="a_node23"><a xlink:href="classEngine.html#a0ba57971ffb5173ecc425461f65a4cd8" target="_top" xlink:title="Quits the game Sets m_running to false and quitting the game. ">
<polygon fill="none" stroke="#000000" points="1311,-26.9604 1311,-45.9604 1415,-45.9604 1415,-26.9604 1311,-26.9604"/>
<text text-anchor="middle" x="1363" y="-33.9604" font-family="Helvetica,sans-Serif" font-size="10.00" fill="#000000">Engine::quitGame</text>
</a>
</g>
</g>
<!-- Node99&#45;&gt;Node100 -->
<g id="edge31" class="edge">
<title>Node99&#45;&gt;Node100</title>
<path fill="none" stroke="#191970" d="M1225.3655,-49.4706C1252.8239,-46.8751 1284.5857,-43.8727 1310.6744,-41.4066"/>
<polygon fill="#191970" stroke="#191970" points="1224.6995,-46.0179 1215.0733,-50.4435 1225.3583,-52.9868 1224.6995,-46.0179"/>
</g>
<!-- Node101 -->
<g id="node24" class="node">
<title>Node101</title>
<g id="a_node24"><a xlink:href="classUIManager.html#aa78e356fc3b356d790c848319d1c387e" target="_top" xlink:title="UIManager::setCallbackFunctions">
<polygon fill="none" stroke="#000000" points="1484,-64.9604 1484,-83.9604 1662,-83.9604 1662,-64.9604 1484,-64.9604"/>
<text text-anchor="middle" x="1573" y="-71.9604" font-family="Helvetica,sans-Serif" font-size="10.00" fill="#000000">UIManager::setCallbackFunctions</text>
</a>
</g>
</g>
<!-- Node99&#45;&gt;Node101 -->
<g id="edge37" class="edge">
<title>Node99&#45;&gt;Node101</title>
<path fill="none" stroke="#191970" d="M1225.6197,-58.4015C1294.7821,-61.5987 1405.831,-66.7324 1483.7093,-70.3326"/>
<polygon fill="#191970" stroke="#191970" points="1225.4607,-54.8905 1215.3097,-57.9248 1225.1374,-61.883 1225.4607,-54.8905"/>
</g>
<!-- Node103 -->
<g id="node26" class="node">
<title>Node103</title>
<g id="a_node26"><a xlink:href="classGame.html#a560299f0291c281f7b44e7ef0dd7b264" target="_top" xlink:title="initializes and displays the main menu initializes and displays the main menu ">
<polygon fill="none" stroke="#000000" points="1698,-26.9604 1698,-45.9604 1801,-45.9604 1801,-26.9604 1698,-26.9604"/>
<text text-anchor="middle" x="1749.5" y="-33.9604" font-family="Helvetica,sans-Serif" font-size="10.00" fill="#000000">Game::mainMenu</text>
</a>
</g>
</g>
<!-- Node99&#45;&gt;Node103 -->
<g id="edge38" class="edge">
<title>Node99&#45;&gt;Node103</title>
<path fill="none" stroke="#191970" d="M1193.7003,-42.0522C1216.6441,-33.1017 1248.6507,-22.1451 1278,-17.4604 1446.5332,9.4409 1492.3078,.7511 1662,-17.4604 1679.311,-19.3182 1698.2229,-23.1872 1714.0215,-26.9519"/>
<polygon fill="#191970" stroke="#191970" points="1192.1365,-38.9078 1184.1478,-45.8671 1194.7327,-45.4086 1192.1365,-38.9078"/>
</g>
<!-- Node100&#45;&gt;Node82 -->
<g id="edge32" class="edge">
<title>Node100&#45;&gt;Node82</title>
<path fill="none" stroke="#191970" d="M1377.801,-53.8692C1418.8586,-102.1608 1533.2331,-236.6869 1564.8247,-273.8446"/>
<polygon fill="#191970" stroke="#191970" points="1380.3762,-51.4947 1371.2322,-46.1431 1375.0431,-56.0288 1380.3762,-51.4947"/>
</g>
<!-- Node100&#45;&gt;Node101 -->
<g id="edge33" class="edge">
<title>Node100&#45;&gt;Node101</title>
<path fill="none" stroke="#191970" d="M1425.2074,-47.717C1455.4775,-53.1944 1491.4717,-59.7077 1520.3596,-64.935"/>
<polygon fill="#191970" stroke="#191970" points="1425.6434,-44.2391 1415.1799,-45.9025 1424.3969,-51.1272 1425.6434,-44.2391"/>
</g>
<!-- Node102 -->
<g id="node25" class="node">
<title>Node102</title>
<g id="a_node25"><a xlink:href="classGame.html#a8272be134d16c277bb014ad6a22fc357" target="_top" xlink:title="Game::quit">
<polygon fill="none" stroke="#000000" points="1537.5,-26.9604 1537.5,-45.9604 1608.5,-45.9604 1608.5,-26.9604 1537.5,-26.9604"/>
<text text-anchor="middle" x="1573" y="-33.9604" font-family="Helvetica,sans-Serif" font-size="10.00" fill="#000000">Game::quit</text>
</a>
</g>
</g>
<!-- Node100&#45;&gt;Node102 -->
<g id="edge34" class="edge">
<title>Node100&#45;&gt;Node102</title>
<path fill="none" stroke="#191970" d="M1425.2403,-36.4604C1461.7578,-36.4604 1506.5972,-36.4604 1537.2402,-36.4604"/>
<polygon fill="#191970" stroke="#191970" points="1425.18,-32.9605 1415.1799,-36.4604 1425.1799,-39.9605 1425.18,-32.9605"/>
</g>
<!-- Node102&#45;&gt;Node103 -->
<g id="edge35" class="edge">
<title>Node102&#45;&gt;Node103</title>
<path fill="none" stroke="#191970" d="M1619.0403,-36.4604C1643.1836,-36.4604 1672.8403,-36.4604 1697.7739,-36.4604"/>
<polygon fill="#191970" stroke="#191970" points="1618.7174,-32.9605 1608.7174,-36.4604 1618.7174,-39.9605 1618.7174,-32.9605"/>
</g>
<!-- Node103&#45;&gt;Node84 -->
<g id="edge36" class="edge">
<title>Node103&#45;&gt;Node84</title>
<path fill="none" stroke="#191970" d="M1790.2952,-48.9425C1810.1646,-55.0219 1833.6837,-62.2181 1852.1253,-67.8607"/>
<polygon fill="#191970" stroke="#191970" points="1791.1656,-45.5487 1780.5791,-45.9697 1789.1175,-52.2424 1791.1656,-45.5487"/>
</g>
<!-- Node104&#45;&gt;Node82 -->
<g id="edge41" class="edge">
<title>Node104&#45;&gt;Node82</title>
<path fill="none" stroke="#191970" d="M707.8578,-340.4604C773.2741,-340.4604 875.7369,-340.4604 964.5,-340.4604 964.5,-340.4604 964.5,-340.4604 1162,-340.4604 1289.3913,-340.4604 1322.6835,-344.3586 1448,-321.4604 1483.2539,-315.0187 1522.6063,-302.0535 1547.5692,-293.071"/>
<polygon fill="#191970" stroke="#191970" points="707.6848,-336.9605 697.6848,-340.4604 707.6848,-343.9605 707.6848,-336.9605"/>
</g>
<!-- Node104&#45;&gt;Node90 -->
<g id="edge42" class="edge">
<title>Node104&#45;&gt;Node90</title>
<path fill="none" stroke="#191970" d="M688.8431,-328.4204C709.9386,-323.1116 734.3766,-316.9616 754.1703,-311.9804"/>
<polygon fill="#191970" stroke="#191970" points="687.9471,-325.0367 679.1037,-330.8714 689.6555,-331.825 687.9471,-325.0367"/>
</g>
<!-- Node104&#45;&gt;Node95 -->
<g id="edge43" class="edge">
<title>Node104&#45;&gt;Node95</title>
<path fill="none" stroke="#191970" d="M574.4305,-332.6937C543.6972,-326.6096 509.2243,-318.5665 487.213,-312.0528"/>
<polygon fill="#191970" stroke="#191970" points="573.774,-336.1316 584.2569,-334.5959 575.1043,-329.2591 573.774,-336.1316"/>
</g>
<!-- Node105&#45;&gt;Node82 -->
<g id="edge45" class="edge">
<title>Node105&#45;&gt;Node82</title>
<path fill="none" stroke="#191970" d="M555.5781,-454.4604C621.2895,-454.4604 712.1239,-454.4604 792,-454.4604 792,-454.4604 792,-454.4604 1162,-454.4604 1290.0594,-454.4604 1334.097,-477.9865 1448,-419.4604 1507.0449,-389.1217 1552.3311,-318.9263 1567.504,-293.1662"/>
<polygon fill="#191970" stroke="#191970" points="555.2532,-450.9605 545.2531,-454.4604 555.2531,-457.9605 555.2532,-450.9605"/>
</g>
<!-- Node107 -->
<g id="node30" class="node">
<title>Node107</title>
<g id="a_node30"><a xlink:href="classMap.html#a64e71e521c539cf28828be9978c34889" target="_top" xlink:title="Returns the node at given screencoordinates. ">
<polygon fill="none" stroke="#000000" points="1104,-368.9604 1104,-387.9604 1220,-387.9604 1220,-368.9604 1104,-368.9604"/>
<text text-anchor="middle" x="1162" y="-375.9604" font-family="Helvetica,sans-Serif" font-size="10.00" fill="#000000">Map::findNodeInMap</text>
</a>
</g>
</g>
<!-- Node106&#45;&gt;Node107 -->
<g id="edge48" class="edge">
<title>Node106&#45;&gt;Node107</title>
<path fill="none" stroke="#191970" d="M342.9413,-378.4604C417.7556,-378.4604 537.4988,-378.4604 641,-378.4604 641,-378.4604 641,-378.4604 792,-378.4604 902.1649,-378.4604 1030.7803,-378.4604 1103.684,-378.4604"/>
<polygon fill="#191970" stroke="#191970" points="342.6892,-374.9605 332.6892,-378.4604 342.6892,-381.9605 342.6892,-374.9605"/>
</g>
<!-- Node107&#45;&gt;Node82 -->
<g id="edge51" class="edge">
<title>Node107&#45;&gt;Node82</title>
<path fill="none" stroke="#191970" d="M1200.3078,-390.9719C1256.6824,-407.2142 1364.3503,-429.8764 1448,-397.4604 1503.8687,-375.8101 1550.0729,-316.2738 1566.5382,-292.9805"/>
<polygon fill="#191970" stroke="#191970" points="1200.9783,-387.52 1190.3957,-388.0286 1198.9857,-394.2305 1200.9783,-387.52"/>
</g>
<!-- Node108 -->
<g id="node31" class="node">
<title>Node108</title>
<g id="a_node31"><a xlink:href="isoMath_8hxx.html#ad3c5f070c4a876bc6e8978635d02ce52" target="_top" xlink:title="converts screen space coordinates to isometric space coordinates. To convert screen coordinates in to...">
<polygon fill="none" stroke="#000000" points="1278,-368.9604 1278,-387.9604 1448,-387.9604 1448,-368.9604 1278,-368.9604"/>
<text text-anchor="middle" x="1363" y="-375.9604" font-family="Helvetica,sans-Serif" font-size="10.00" fill="#000000">convertScreenToIsoCoordinates</text>
</a>
</g>
</g>
<!-- Node107&#45;&gt;Node108 -->
<g id="edge49" class="edge">
<title>Node107&#45;&gt;Node108</title>
<path fill="none" stroke="#191970" d="M1230.4599,-378.4604C1245.6502,-378.4604 1261.9312,-378.4604 1277.701,-378.4604"/>
<polygon fill="#191970" stroke="#191970" points="1230.1376,-374.9605 1220.1375,-378.4604 1230.1375,-381.9605 1230.1376,-374.9605"/>
</g>
<!-- Node108&#45;&gt;Node82 -->
<g id="edge50" class="edge">
<title>Node108&#45;&gt;Node82</title>
<path fill="none" stroke="#191970" d="M1414.1172,-366.1886C1425.4513,-362.8741 1437.2763,-358.9422 1448,-354.4604 1490.1404,-336.8483 1535.9084,-308.1349 1558.5838,-293.1914"/>
<polygon fill="#191970" stroke="#191970" points="1413.0036,-362.8659 1404.3234,-368.9409 1414.8974,-369.6049 1413.0036,-362.8659"/>
</g>
</g>
</svg>
        <g id="navigator" transform="translate(0 0)" fill="#404254">
                <rect fill="#f2f5e9" fill-opacity="0.5" stroke="#606060" stroke-width=".5" x="0" y="0" width="60" height="60"/>
                <use id="zoomplus" xlink:href="#zoomPlus" x="17" y="9" onmousedown="handleZoom(evt,'in')"/>
                <use id="zoomminus" xlink:href="#zoomMin" x="42" y="9" onmousedown="handleZoom(evt,'out')"/>
                <use id="reset" xlink:href="#resetDef" x="30" y="36" onmousedown="handleReset()"/>
                <g id="arrowUp" xlink:href="#dirArrow" transform="translate(30 24)" onmousedown="handlePan(0,-1)">
                  <use xlink:href="#rim" fill="#404040">
                        <set attributeName="fill" to="#808080" begin="arrowUp.mouseover" end="arrowUp.mouseout"/>
                  </use>
                  <path fill="none" stroke="white" stroke-width="1.5" d="M0,-3.0v7 M-2.5,-0.5L0,-3.0L2.5,-0.5"/>
                </g>
                <g id="arrowRight" xlink:href="#dirArrow" transform="rotate(90) translate(36 -43)" onmousedown="handlePan(1,0)">
                  <use xlink:href="#rim" fill="#404040">
                        <set attributeName="fill" to="#808080" begin="arrowRight.mouseover" end="arrowRight.mouseout"/>
                  </use>
                  <path fill="none" stroke="white" stroke-width="1.5" d="M0,-3.0v7 M-2.5,-0.5L0,-3.0L2.5,-0.5"/>
                </g>
                <g id="arrowDown" xlink:href="#dirArrow" transform="rotate(180) translate(-30 -48)" onmousedown="handlePan(0,1)">
                  <use xlink:href="#rim" fill="#404040">
                        <set attributeName="fill" to="#808080" begin="arrowDown.mouseover" end="arrowDown.mouseout"/>
                  </use>
                  <path fill="none" stroke="white" stroke-width="1.5" d="M0,-3.0v7 M-2.5,-0.5L0,-3.0L2.5,-0.5"/>
                </g>
                <g id="arrowLeft" xlink:href="#dirArrow" transform="rotate(270) translate(-36 17)" onmousedown="handlePan(-1,0)">
                  <use xlink:href="#rim" fill="#404040">
                        <set attributeName="fill" to="#808080" begin="arrowLeft.mouseover" end="arrowLeft.mouseout"/>
                  </use>
                  <path fill="none" stroke="white" stroke-width="1.5" d="M0,-3.0v7 M-2.5,-0.5L0,-3.0L2.5,-0.5"/>
                </g>
        </g>
        <svg viewBox="0 0 15 15" width="100%" height="30px" preserveAspectRatio="xMaxYMin meet">
         <g id="arrow_out" transform="scale(0.3 0.3)">
          <a xlink:href="isoMath_8cxx_a7fa61c3d8ef446fb1c48dc4838023649_icgraph_org.svg" target="_base">
           <rect id="button" ry="5" rx="5" y="6" x="6" height="38" width="38"
                fill="#f2f5e9" fill-opacity="0.5" stroke="#606060" stroke-width="1.0"/>
           <path id="arrow"
             d="M 11.500037,31.436501 C 11.940474,20.09759 22.043105,11.32322 32.158766,21.979434 L 37.068811,17.246167 C 37.068811,17.246167 37.088388,32 37.088388,32 L 22.160133,31.978069 C 22.160133,31.978069 26.997745,27.140456 26.997745,27.140456 C 18.528582,18.264221 13.291696,25.230495 11.500037,31.436501 z"
             style="fill:#404040;"/>
          </a>
         </g>
        </svg>
</svg>
