<?xml version="1.0" encoding="UTF-8" standalone="no"?>
<!DOCTYPE svg PUBLIC "-//W3C//DTD SVG 1.1//EN"
 "http://www.w3.org/Graphics/SVG/1.1/DTD/svg11.dtd">
<!-- Generated by graphviz version 2.40.1 (20161225.0304)
 -->
<!-- Title: convertIsoToScreenCoordinates Pages: 1 -->
<!--zoomable 294 -->
<svg id="main" version="1.1" xmlns="http://www.w3.org/2000/svg" xmlns:xlink="http://www.w3.org/1999/xlink" xml:space="preserve" onload="init(evt)">
<style type="text/css"><![CDATA[
.edge:hover path { stroke: red; }
.edge:hover polygon { stroke: red; fill: red; }
]]></style>
<script type="text/javascript"><![CDATA[
var edges = document.getElementsByTagName('g');
if (edges && edges.length) {
  for (var i=0;i<edges.length;i++) {
    if (edges[i].id.substr(0,4)=='edge') {
      edges[i].setAttribute('class','edge');
    }
  }
}
]]></script>
        <defs>
                <circle id="rim" cx="0" cy="0" r="7"/>
                <circle id="rim2" cx="0" cy="0" r="3.5"/>
                <g id="zoomPlus">
                        <use xlink:href="#rim" fill="#404040">
                                <set attributeName="fill" to="#808080" begin="zoomplus.mouseover" end="zoomplus.mouseout"/>
                        </use>
                        <path d="M-4,0h8M0,-4v8" fill="none" stroke="white" stroke-width="1.5" pointer-events="none"/>
                </g>
                <g id="zoomMin">
                        <use xlink:href="#rim" fill="#404040">
                                <set attributeName="fill" to="#808080" begin="zoomminus.mouseover" end="zoomminus.mouseout"/>
                        </use>
                        <path d="M-4,0h8" fill="none" stroke="white" stroke-width="1.5" pointer-events="none"/>
                </g>
                <g id="dirArrow">
                        <path fill="none" stroke="white" stroke-width="1.5" d="M0,-3.0v7 M-2.5,-0.5L0,-3.0L2.5,-0.5"/>
                </g>
               <g id="resetDef">
                       <use xlink:href="#rim2" fill="#404040">
                               <set attributeName="fill" to="#808080" begin="reset.mouseover" end="reset.mouseout"/>
                       </use>
               </g>
        </defs>

<script type="text/javascript">
var viewWidth = 1568;
var viewHeight = 294;
var sectionId = 'dynsection-3';
</script>
<script xlink:href="svgpan.js"/>
<svg id="graph" class="graph">
<g id="viewport">
<title>convertIsoToScreenCoordinates</title>
<!-- Node22 -->
<g id="node1" class="node">
<title>Node22</title>
<polygon fill="#bfbfbf" stroke="#000000" points="0,-118 0,-137 170,-137 170,-118 0,-118"/>
<text text-anchor="middle" x="85" y="-125" font-family="Helvetica,sans-Serif" font-size="10.00" fill="#000000">convertIsoToScreenCoordinates</text>
</g>
<!-- Node23 -->
<g id="node2" class="node">
<title>Node23</title>
<g id="a_node2"><a xlink:href="classCamera.html#adfb240823ff20b97b69459490dbd8dc3" target="_top" xlink:title="Centers camera on given isometric coordinates Centers the camera on the given isometric coordinates...">
<polygon fill="none" stroke="#000000" points="477.5,-42 477.5,-61 640.5,-61 640.5,-42 477.5,-42"/>
<text text-anchor="middle" x="559" y="-49" font-family="Helvetica,sans-Serif" font-size="10.00" fill="#000000">Camera::centerScreenOnPoint</text>
</a>
</g>
</g>
<!-- Node22&#45;&gt;Node23 -->
<g id="edge1" class="edge">
<title>Node22&#45;&gt;Node23</title>
<path fill="none" stroke="#191970" d="M120.2499,-114.404C144.1315,-106.0366 176.5787,-95.6408 206,-89.5 297.8654,-70.3259 405.3172,-60.5179 477.3233,-55.7173"/>
<polygon fill="#191970" stroke="#191970" points="118.8209,-111.1974 110.5731,-117.8475 121.1678,-117.7923 118.8209,-111.1974"/>
</g>
<!-- Node26 -->
<g id="node5" class="node">
<title>Node26</title>
<g id="a_node5"><a xlink:href="classEventManager.html#a65ec91fd5016d4f9c4167fb8babed2df" target="_top" xlink:title="EventManager::checkEvents">
<polygon fill="none" stroke="#000000" points="1096,-115 1096,-134 1250,-134 1250,-115 1096,-115"/>
<text text-anchor="middle" x="1173" y="-122" font-family="Helvetica,sans-Serif" font-size="10.00" fill="#000000">EventManager::checkEvents</text>
</a>
</g>
</g>
<!-- Node22&#45;&gt;Node26 -->
<g id="edge15" class="edge">
<title>Node22&#45;&gt;Node26</title>
<path fill="none" stroke="#191970" d="M101.918,-144.492C144.4431,-185.3048 260.8714,-285.5 379,-285.5 379,-285.5 379,-285.5 777,-285.5 907.1198,-285.5 943.1072,-267.6597 1060,-210.5 1102.5228,-189.7067 1144.8239,-151.7283 1163.3168,-134.0387"/>
<polygon fill="#191970" stroke="#191970" points="104.2368,-141.8644 94.6361,-137.3836 99.3471,-146.8735 104.2368,-141.8644"/>
</g>
<!-- Node32 -->
<g id="node11" class="node">
<title>Node32</title>
<g id="a_node11"><a xlink:href="classSprite.html#abcd3ca18d49d4eef5cfd5955b9975518" target="_top" xlink:title="Sprite::Sprite">
<polygon fill="none" stroke="#000000" points="209,-99 209,-118 289,-118 289,-99 209,-99"/>
<text text-anchor="middle" x="249" y="-106" font-family="Helvetica,sans-Serif" font-size="10.00" fill="#000000">Sprite::Sprite</text>
</a>
</g>
</g>
<!-- Node22&#45;&gt;Node32 -->
<g id="edge16" class="edge">
<title>Node22&#45;&gt;Node32</title>
<path fill="none" stroke="#191970" d="M177.5497,-116.7778C188.4611,-115.5137 199.1191,-114.2789 208.7334,-113.165"/>
<polygon fill="#191970" stroke="#191970" points="177.0112,-113.3167 167.4805,-117.9443 177.8168,-120.2702 177.0112,-113.3167"/>
</g>
<!-- Node33 -->
<g id="node12" class="node">
<title>Node33</title>
<g id="a_node12"><a xlink:href="classSprite.html#ababb7913a4d642b0d20a2c48c2a7e77a" target="_top" xlink:title="Sprite::refresh">
<polygon fill="none" stroke="#000000" points="206,-137 206,-156 292,-156 292,-137 206,-137"/>
<text text-anchor="middle" x="249" y="-144" font-family="Helvetica,sans-Serif" font-size="10.00" fill="#000000">Sprite::refresh</text>
</a>
</g>
</g>
<!-- Node22&#45;&gt;Node33 -->
<g id="edge17" class="edge">
<title>Node22&#45;&gt;Node33</title>
<path fill="none" stroke="#191970" d="M177.6944,-138.239C187.4471,-139.3689 196.9944,-140.475 205.7719,-141.4919"/>
<polygon fill="#191970" stroke="#191970" points="177.8168,-134.7298 167.4805,-137.0557 177.0112,-141.6833 177.8168,-134.7298"/>
</g>
<!-- Node24 -->
<g id="node3" class="node">
<title>Node24</title>
<g id="a_node3"><a xlink:href="classCamera.html#a0a8ee04ccb4f4cc9af52a964cf225f66" target="_top" xlink:title="Increases the zoom level of the camera Increases the zoom level of the camera. ">
<polygon fill="none" stroke="#000000" points="698.5,-112 698.5,-131 855.5,-131 855.5,-112 698.5,-112"/>
<text text-anchor="middle" x="777" y="-119" font-family="Helvetica,sans-Serif" font-size="10.00" fill="#000000">Camera::increaseZoomLevel</text>
</a>
</g>
</g>
<!-- Node23&#45;&gt;Node24 -->
<g id="edge2" class="edge">
<title>Node23&#45;&gt;Node24</title>
<path fill="none" stroke="#191970" d="M589.3235,-65.1493C615.1487,-76.3689 653.4533,-92.0625 688,-102.5 699.9482,-106.1099 712.9977,-109.3012 725.3308,-111.9885"/>
<polygon fill="#191970" stroke="#191970" points="590.6342,-61.9024 580.0707,-61.0886 587.8211,-68.3123 590.6342,-61.9024"/>
</g>
<!-- Node25 -->
<g id="node4" class="node">
<title>Node25</title>
<g id="a_node4"><a xlink:href="classCamera.html#a1f8ecd427814c5a4970223c2d13b9310" target="_top" xlink:title="Camera::setPinchDistance">
<polygon fill="none" stroke="#000000" points="908.5,-58 908.5,-77 1053.5,-77 1053.5,-58 908.5,-58"/>
<text text-anchor="middle" x="981" y="-65" font-family="Helvetica,sans-Serif" font-size="10.00" fill="#000000">Camera::setPinchDistance</text>
</a>
</g>
</g>
<!-- Node23&#45;&gt;Node25 -->
<g id="edge12" class="edge">
<title>Node23&#45;&gt;Node25</title>
<path fill="none" stroke="#191970" d="M650.8274,-54.9816C728.1115,-57.9118 837.1335,-62.0453 908.4237,-64.7483"/>
<polygon fill="#191970" stroke="#191970" points="650.7414,-51.4759 640.6159,-54.5944 650.4761,-58.4709 650.7414,-51.4759"/>
</g>
<!-- Node30 -->
<g id="node9" class="node">
<title>Node30</title>
<g id="a_node9"><a xlink:href="classCamera.html#aeea39f352d5873495dea6f376cf3207e" target="_top" xlink:title="Decreases the zoom level of the camera Decreases the zoom level of the camera. ">
<polygon fill="none" stroke="#000000" points="697,-74 697,-93 857,-93 857,-74 697,-74"/>
<text text-anchor="middle" x="777" y="-81" font-family="Helvetica,sans-Serif" font-size="10.00" fill="#000000">Camera::decreaseZoomLevel</text>
</a>
</g>
</g>
<!-- Node23&#45;&gt;Node30 -->
<g id="edge9" class="edge">
<title>Node23&#45;&gt;Node30</title>
<path fill="none" stroke="#191970" d="M633.7886,-62.4781C659.2335,-66.2132 687.4462,-70.3545 712.0564,-73.967"/>
<polygon fill="#191970" stroke="#191970" points="634.2193,-59.0039 623.817,-61.0144 633.2026,-65.9297 634.2193,-59.0039"/>
</g>
<!-- Node31 -->
<g id="node10" class="node">
<title>Node31</title>
<g id="a_node10"><a xlink:href="classCamera.html#af29da768f8948f3afbf0a9b43530eb1d" target="_top" xlink:title="Centers camera on the middle of the map Centers the camera on the middle of the map. ">
<polygon fill="none" stroke="#000000" points="902,-.5 902,-30.5 1060,-30.5 1060,-.5 902,-.5"/>
<text text-anchor="start" x="910" y="-18.5" font-family="Helvetica,sans-Serif" font-size="10.00" fill="#000000">Camera::centerScreenOnMap</text>
<text text-anchor="middle" x="981" y="-7.5" font-family="Helvetica,sans-Serif" font-size="10.00" fill="#000000">Center</text>
</a>
</g>
</g>
<!-- Node23&#45;&gt;Node31 -->
<g id="edge13" class="edge">
<title>Node23&#45;&gt;Node31</title>
<path fill="none" stroke="#191970" d="M650.9815,-43.6532C725.8873,-37.2632 830.5318,-28.3361 901.767,-22.2592"/>
<polygon fill="#191970" stroke="#191970" points="650.2822,-40.2001 640.6159,-44.5375 650.8772,-47.1748 650.2822,-40.2001"/>
</g>
<!-- Node24&#45;&gt;Node25 -->
<g id="edge3" class="edge">
<title>Node24&#45;&gt;Node25</title>
<path fill="none" stroke="#191970" d="M835.014,-109.8617C845.3691,-107.5722 856.0306,-105.0762 866,-102.5 895.5003,-94.8767 928.7563,-84.5647 951.889,-77.1104"/>
<polygon fill="#191970" stroke="#191970" points="834.2423,-106.4476 825.2124,-111.9895 835.7274,-113.2883 834.2423,-106.4476"/>
</g>
<!-- Node24&#45;&gt;Node26 -->
<g id="edge8" class="edge">
<title>Node24&#45;&gt;Node26</title>
<path fill="none" stroke="#191970" d="M865.7122,-122.1721C934.8192,-122.6956 1029.7906,-123.4151 1095.7872,-123.9151"/>
<polygon fill="#191970" stroke="#191970" points="865.7366,-118.6722 855.7103,-122.0963 865.6835,-125.672 865.7366,-118.6722"/>
</g>
<!-- Node25&#45;&gt;Node26 -->
<g id="edge4" class="edge">
<title>Node25&#45;&gt;Node26</title>
<path fill="none" stroke="#191970" d="M1023.1731,-80.0201C1058.595,-90.536 1108.4627,-105.3405 1140.7587,-114.9284"/>
<polygon fill="#191970" stroke="#191970" points="1023.7191,-76.5313 1013.1365,-77.0405 1021.7268,-83.2418 1023.7191,-76.5313"/>
</g>
<!-- Node27 -->
<g id="node6" class="node">
<title>Node27</title>
<g id="a_node6"><a xlink:href="classGame.html#a1c2ab25d5216b2f4b2fe41efd2c09114" target="_top" xlink:title="begins the game starts running the game ">
<polygon fill="none" stroke="#000000" points="1286,-74 1286,-93 1354,-93 1354,-74 1286,-74"/>
<text text-anchor="middle" x="1320" y="-81" font-family="Helvetica,sans-Serif" font-size="10.00" fill="#000000">Game::run</text>
</a>
</g>
</g>
<!-- Node26&#45;&gt;Node27 -->
<g id="edge5" class="edge">
<title>Node26&#45;&gt;Node27</title>
<path fill="none" stroke="#191970" d="M1216.8958,-112.2569C1238.9621,-106.1024 1265.3026,-98.7557 1285.8363,-93.0286"/>
<polygon fill="#191970" stroke="#191970" points="1215.7863,-108.9327 1207.0942,-114.9907 1217.6669,-115.6754 1215.7863,-108.9327"/>
</g>
<!-- Node28 -->
<g id="node7" class="node">
<title>Node28</title>
<g id="a_node7"><a xlink:href="main_8cxx.html#af582d708d899e67ead623eac34a22387" target="_top" xlink:title="protected_main">
<polygon fill="none" stroke="#000000" points="1390,-74 1390,-93 1483,-93 1483,-74 1390,-74"/>
<text text-anchor="middle" x="1436.5" y="-81" font-family="Helvetica,sans-Serif" font-size="10.00" fill="#000000">protected_main</text>
</a>
</g>
</g>
<!-- Node27&#45;&gt;Node28 -->
<g id="edge6" class="edge">
<title>Node27&#45;&gt;Node28</title>
<path fill="none" stroke="#191970" d="M1364.2653,-83.5C1372.5757,-83.5 1381.2897,-83.5 1389.6749,-83.5"/>
<polygon fill="#191970" stroke="#191970" points="1364.0098,-80.0001 1354.0098,-83.5 1364.0098,-87.0001 1364.0098,-80.0001"/>
</g>
<!-- Node29 -->
<g id="node8" class="node">
<title>Node29</title>
<g id="a_node8"><a xlink:href="main_8cxx.html#a3c04138a5bfe5d72780bb7e82a18e627" target="_top" xlink:title="main">
<polygon fill="none" stroke="#000000" points="1519,-74 1519,-93 1560,-93 1560,-74 1519,-74"/>
<text text-anchor="middle" x="1539.5" y="-81" font-family="Helvetica,sans-Serif" font-size="10.00" fill="#000000">main</text>
</a>
</g>
</g>
<!-- Node28&#45;&gt;Node29 -->
<g id="edge7" class="edge">
<title>Node28&#45;&gt;Node29</title>
<path fill="none" stroke="#191970" d="M1493.2133,-83.5C1502.4322,-83.5 1511.4259,-83.5 1518.9965,-83.5"/>
<polygon fill="#191970" stroke="#191970" points="1493.1782,-80.0001 1483.1782,-83.5 1493.1781,-87.0001 1493.1782,-80.0001"/>
</g>
<!-- Node30&#45;&gt;Node25 -->
<g id="edge10" class="edge">
<title>Node30&#45;&gt;Node25</title>
<path fill="none" stroke="#191970" d="M867.0647,-76.4361C880.9239,-75.3491 895.0811,-74.2387 908.4939,-73.1868"/>
<polygon fill="#191970" stroke="#191970" points="866.7364,-72.951 857.0407,-77.2223 867.2838,-79.9296 866.7364,-72.951"/>
</g>
<!-- Node30&#45;&gt;Node26 -->
<g id="edge11" class="edge">
<title>Node30&#45;&gt;Node26</title>
<path fill="none" stroke="#191970" d="M867.1202,-92.8306C936.0662,-99.969 1030.1329,-109.7082 1095.6777,-116.4944"/>
<polygon fill="#191970" stroke="#191970" points="867.4438,-89.3455 857.1365,-91.797 866.7229,-96.3083 867.4438,-89.3455"/>
</g>
<!-- Node31&#45;&gt;Node27 -->
<g id="edge14" class="edge">
<title>Node31&#45;&gt;Node27</title>
<path fill="none" stroke="#191970" d="M1065.6514,-32.4802C1136.6782,-46.7275 1234.4905,-66.3477 1285.6533,-76.6104"/>
<polygon fill="#191970" stroke="#191970" points="1066.3077,-29.0422 1055.8147,-30.5071 1064.931,-35.9055 1066.3077,-29.0422"/>
</g>
<!-- Node34 -->
<g id="node13" class="node">
<title>Node34</title>
<g id="a_node13"><a xlink:href="classMap.html#ab69938ac0e56eb0da1d1701221f3d185" target="_top" xlink:title="Refresh all the map tile textures. ">
<polygon fill="none" stroke="#000000" points="340.5,-137 340.5,-156 417.5,-156 417.5,-137 340.5,-137"/>
<text text-anchor="middle" x="379" y="-144" font-family="Helvetica,sans-Serif" font-size="10.00" fill="#000000">Map::refresh</text>
</a>
</g>
</g>
<!-- Node33&#45;&gt;Node34 -->
<g id="edge18" class="edge">
<title>Node33&#45;&gt;Node34</title>
<path fill="none" stroke="#191970" d="M302.3135,-146.5C315.0277,-146.5 328.3587,-146.5 340.2735,-146.5"/>
<polygon fill="#191970" stroke="#191970" points="302.2882,-143.0001 292.2881,-146.5 302.2881,-150.0001 302.2882,-143.0001"/>
</g>
<!-- Node39 -->
<g id="node18" class="node">
<title>Node39</title>
<g id="a_node18"><a xlink:href="classSprite.html#afe62071332bb38f2e262b63c3ee37736" target="_top" xlink:title="Sprite::setTexture">
<polygon fill="none" stroke="#000000" points="328,-99 328,-118 430,-118 430,-99 328,-99"/>
<text text-anchor="middle" x="379" y="-106" font-family="Helvetica,sans-Serif" font-size="10.00" fill="#000000">Sprite::setTexture</text>
</a>
</g>
</g>
<!-- Node33&#45;&gt;Node39 -->
<g id="edge28" class="edge">
<title>Node33&#45;&gt;Node39</title>
<path fill="none" stroke="#191970" d="M291.8839,-133.9647C309.5689,-128.7952 329.7337,-122.9009 346.206,-118.0859"/>
<polygon fill="#191970" stroke="#191970" points="290.4208,-130.7458 281.8045,-136.911 292.3848,-137.4647 290.4208,-130.7458"/>
</g>
<!-- Node34&#45;&gt;Node23 -->
<g id="edge21" class="edge">
<title>Node34&#45;&gt;Node23</title>
<path fill="none" stroke="#191970" d="M422.5948,-132.4261C425.1977,-130.9326 427.6924,-129.2944 430,-127.5 452.1899,-110.245 442.9428,-91.5775 466,-75.5 475.0274,-69.2053 485.5816,-64.5611 496.2751,-61.1347"/>
<polygon fill="#191970" stroke="#191970" points="420.8478,-129.3857 413.4432,-136.9635 423.9572,-135.6572 420.8478,-129.3857"/>
</g>
<!-- Node34&#45;&gt;Node24 -->
<g id="edge19" class="edge">
<title>Node34&#45;&gt;Node24</title>
<path fill="none" stroke="#191970" d="M427.8623,-143.4308C495.3136,-139.1939 617.7239,-131.5048 698.198,-126.4499"/>
<polygon fill="#191970" stroke="#191970" points="427.2844,-139.9601 417.5235,-144.0802 427.7233,-146.9463 427.2844,-139.9601"/>
</g>
<!-- Node34&#45;&gt;Node26 -->
<g id="edge22" class="edge">
<title>Node34&#45;&gt;Node26</title>
<path fill="none" stroke="#191970" d="M392.512,-163.9547C407.9832,-182.404 435.199,-210.4641 466,-222.5 631.6033,-287.2116 690.568,-257.408 866,-228.5 977.883,-210.0637 1103.8368,-156.2179 1152.3948,-134.1269"/>
<polygon fill="#191970" stroke="#191970" points="395.0927,-161.5801 386.0775,-156.0143 389.6541,-165.9872 395.0927,-161.5801"/>
</g>
<!-- Node34&#45;&gt;Node30 -->
<g id="edge20" class="edge">
<title>Node34&#45;&gt;Node30</title>
<path fill="none" stroke="#191970" d="M424.6601,-134.5469C437.9323,-131.3259 452.4921,-128.0355 466,-125.5 543.9124,-110.8757 633.7234,-99.3078 696.7394,-92.0461"/>
<polygon fill="#191970" stroke="#191970" points="423.6691,-131.1864 414.8005,-136.9828 425.3481,-137.982 423.6691,-131.1864"/>
</g>
<!-- Node35 -->
<g id="node14" class="node">
<title>Node35</title>
<g id="a_node14"><a xlink:href="classUIManager.html#ac927e1cd3dea979202ea9dbf1195b583" target="_top" xlink:title="UIManager::changeResolution">
<polygon fill="none" stroke="#000000" points="478.5,-194 478.5,-213 639.5,-213 639.5,-194 478.5,-194"/>
<text text-anchor="middle" x="559" y="-201" font-family="Helvetica,sans-Serif" font-size="10.00" fill="#000000">UIManager::changeResolution</text>
</a>
</g>
</g>
<!-- Node34&#45;&gt;Node35 -->
<g id="edge23" class="edge">
<title>Node34&#45;&gt;Node35</title>
<path fill="none" stroke="#191970" d="M407.1281,-160.5874C423.8876,-168.522 445.7718,-178.0946 466,-184.5 477.6258,-188.1814 490.3012,-191.322 502.448,-193.927"/>
<polygon fill="#191970" stroke="#191970" points="408.4317,-157.3304 397.9038,-156.1412 405.3923,-163.6361 408.4317,-157.3304"/>
</g>
<!-- Node38 -->
<g id="node17" class="node">
<title>Node38</title>
<g id="a_node17"><a xlink:href="classUIManager.html#af2ffb4ee45e57152164643ef6cddda37" target="_top" xlink:title="UIManager::changeFullScreenMode">
<polygon fill="none" stroke="#000000" points="466,-156 466,-175 652,-175 652,-156 466,-156"/>
<text text-anchor="middle" x="559" y="-163" font-family="Helvetica,sans-Serif" font-size="10.00" fill="#000000">UIManager::changeFullScreenMode</text>
</a>
</g>
</g>
<!-- Node34&#45;&gt;Node38 -->
<g id="edge26" class="edge">
<title>Node34&#45;&gt;Node38</title>
<path fill="none" stroke="#191970" d="M427.8975,-151.6614C440.5622,-152.9982 454.6099,-154.481 468.6684,-155.965"/>
<polygon fill="#191970" stroke="#191970" points="427.9267,-148.1451 417.6145,-150.576 427.1918,-155.1065 427.9267,-148.1451"/>
</g>
<!-- Node36 -->
<g id="node15" class="node">
<title>Node36</title>
<g id="a_node15"><a xlink:href="classUIManager.html#aa78e356fc3b356d790c848319d1c387e" target="_top" xlink:title="UIManager::setCallbackFunctions">
<polygon fill="none" stroke="#000000" points="688,-200 688,-219 866,-219 866,-200 688,-200"/>
<text text-anchor="middle" x="777" y="-207" font-family="Helvetica,sans-Serif" font-size="10.00" fill="#000000">UIManager::setCallbackFunctions</text>
</a>
</g>
</g>
<!-- Node35&#45;&gt;Node36 -->
<g id="edge24" class="edge">
<title>Node35&#45;&gt;Node36</title>
<path fill="none" stroke="#191970" d="M649.6341,-205.9945C662.309,-206.3434 675.3251,-206.7016 687.9699,-207.0496"/>
<polygon fill="#191970" stroke="#191970" points="649.6483,-202.4937 639.5558,-205.7171 649.4557,-209.491 649.6483,-202.4937"/>
</g>
<!-- Node37 -->
<g id="node16" class="node">
<title>Node37</title>
<g id="a_node16"><a xlink:href="classUIManager.html#a5c4cb8e02504ffa0d3faf45181feab9d" target="_top" xlink:title="Fill UI Widgets whose ID start with a $ with data Used for filling widgets with data, like BuildMenu Position combobox, Screen Resolution ComboBox and so on. ">
<polygon fill="none" stroke="#000000" points="704,-150.5 704,-180.5 850,-180.5 850,-150.5 704,-150.5"/>
<text text-anchor="start" x="712" y="-168.5" font-family="Helvetica,sans-Serif" font-size="10.00" fill="#000000">UIManager::initializeDollar</text>
<text text-anchor="middle" x="777" y="-157.5" font-family="Helvetica,sans-Serif" font-size="10.00" fill="#000000">Variables</text>
</a>
</g>
</g>
<!-- Node35&#45;&gt;Node37 -->
<g id="edge25" class="edge">
<title>Node35&#45;&gt;Node37</title>
<path fill="none" stroke="#191970" d="M623.8755,-192.1914C648.9835,-187.8148 677.8496,-182.7831 703.7031,-178.2765"/>
<polygon fill="#191970" stroke="#191970" points="622.9796,-188.7947 613.7292,-193.96 624.1817,-195.6907 622.9796,-188.7947"/>
</g>
<!-- Node38&#45;&gt;Node37 -->
<g id="edge27" class="edge">
<title>Node38&#45;&gt;Node37</title>
<path fill="none" stroke="#191970" d="M662.3047,-165.5C676.3906,-165.5 690.6036,-165.5 703.9995,-165.5"/>
<polygon fill="#191970" stroke="#191970" points="662.084,-162.0001 652.084,-165.5 662.0839,-169.0001 662.084,-162.0001"/>
</g>
</g>
</svg>
        <g id="navigator" transform="translate(0 0)" fill="#404254">
                <rect fill="#f2f5e9" fill-opacity="0.5" stroke="#606060" stroke-width=".5" x="0" y="0" width="60" height="60"/>
                <use id="zoomplus" xlink:href="#zoomPlus" x="17" y="9" onmousedown="handleZoom(evt,'in')"/>
                <use id="zoomminus" xlink:href="#zoomMin" x="42" y="9" onmousedown="handleZoom(evt,'out')"/>
                <use id="reset" xlink:href="#resetDef" x="30" y="36" onmousedown="handleReset()"/>
                <g id="arrowUp" xlink:href="#dirArrow" transform="translate(30 24)" onmousedown="handlePan(0,-1)">
                  <use xlink:href="#rim" fill="#404040">
                        <set attributeName="fill" to="#808080" begin="arrowUp.mouseover" end="arrowUp.mouseout"/>
                  </use>
                  <path fill="none" stroke="white" stroke-width="1.5" d="M0,-3.0v7 M-2.5,-0.5L0,-3.0L2.5,-0.5"/>
                </g>
                <g id="arrowRight" xlink:href="#dirArrow" transform="rotate(90) translate(36 -43)" onmousedown="handlePan(1,0)">
                  <use xlink:href="#rim" fill="#404040">
                        <set attributeName="fill" to="#808080" begin="arrowRight.mouseover" end="arrowRight.mouseout"/>
                  </use>
                  <path fill="none" stroke="white" stroke-width="1.5" d="M0,-3.0v7 M-2.5,-0.5L0,-3.0L2.5,-0.5"/>
                </g>
                <g id="arrowDown" xlink:href="#dirArrow" transform="rotate(180) translate(-30 -48)" onmousedown="handlePan(0,1)">
                  <use xlink:href="#rim" fill="#404040">
                        <set attributeName="fill" to="#808080" begin="arrowDown.mouseover" end="arrowDown.mouseout"/>
                  </use>
                  <path fill="none" stroke="white" stroke-width="1.5" d="M0,-3.0v7 M-2.5,-0.5L0,-3.0L2.5,-0.5"/>
                </g>
                <g id="arrowLeft" xlink:href="#dirArrow" transform="rotate(270) translate(-36 17)" onmousedown="handlePan(-1,0)">
                  <use xlink:href="#rim" fill="#404040">
                        <set attributeName="fill" to="#808080" begin="arrowLeft.mouseover" end="arrowLeft.mouseout"/>
                  </use>
                  <path fill="none" stroke="white" stroke-width="1.5" d="M0,-3.0v7 M-2.5,-0.5L0,-3.0L2.5,-0.5"/>
                </g>
        </g>
        <svg viewBox="0 0 15 15" width="100%" height="30px" preserveAspectRatio="xMaxYMin meet">
         <g id="arrow_out" transform="scale(0.3 0.3)">
          <a xlink:href="isoMath_8hxx_a391008ab09b55454e07562478b3f4103_icgraph_org.svg" target="_base">
           <rect id="button" ry="5" rx="5" y="6" x="6" height="38" width="38"
                fill="#f2f5e9" fill-opacity="0.5" stroke="#606060" stroke-width="1.0"/>
           <path id="arrow"
             d="M 11.500037,31.436501 C 11.940474,20.09759 22.043105,11.32322 32.158766,21.979434 L 37.068811,17.246167 C 37.068811,17.246167 37.088388,32 37.088388,32 L 22.160133,31.978069 C 22.160133,31.978069 26.997745,27.140456 26.997745,27.140456 C 18.528582,18.264221 13.291696,25.230495 11.500037,31.436501 z"
             style="fill:#404040;"/>
          </a>
         </g>
        </svg>
</svg>
