<?xml version="1.0" encoding="UTF-8" standalone="no"?>
<!DOCTYPE svg PUBLIC "-//W3C//DTD SVG 1.1//EN"
 "http://www.w3.org/Graphics/SVG/1.1/DTD/svg11.dtd">
<!-- Generated by graphviz version 2.40.1 (20161225.0304)
 -->
<!-- Title: convertScreenToIsoCoordinates Pages: 1 -->
<svg width="1248pt" height="280pt"
 viewBox="0.00 0.00 1248.00 279.76" xmlns="http://www.w3.org/2000/svg" xmlns:xlink="http://www.w3.org/1999/xlink">
<g id="graph0" class="graph" transform="scale(1 1) rotate(0) translate(4 275.7579)">
<title>convertScreenToIsoCoordinates</title>
<!-- Node40 -->
<g id="node1" class="node">
<title>Node40</title>
<polygon fill="#bfbfbf" stroke="#000000" points="0,-251.5 0,-270.5 170,-270.5 170,-251.5 0,-251.5"/>
<text text-anchor="middle" x="85" y="-258.5" font-family="Helvetica,sans-Serif" font-size="10.00" fill="#000000">convertScreenToIsoCoordinates</text>
</g>
<!-- Node41 -->
<g id="node2" class="node">
<title>Node41</title>
<g id="a_node2"><a xlink:href="classSingleton.html#af5cb1e5749949e2b68416cfb8d378044" target="_top" xlink:title="Get an instance of the singleton. ">
<polygon fill="none" stroke="#000000" points="751,-185 751,-215 869,-215 869,-185 751,-185"/>
<text text-anchor="start" x="759" y="-203" font-family="Helvetica,sans-Serif" font-size="10.00" fill="#000000">Singleton&lt; Engine &gt;</text>
<text text-anchor="middle" x="810" y="-192" font-family="Helvetica,sans-Serif" font-size="10.00" fill="#000000">::instance</text>
</a>
</g>
</g>
<!-- Node40&#45;&gt;Node41 -->
<g id="edge1" class="edge">
<title>Node40&#45;&gt;Node41</title>
<path fill="none" stroke="#191970" d="M170.2762,-252.8823C182.2713,-252.8789 194.4459,-252.9523 206,-253 257.5551,-253.213 270.45,-253.7579 322,-253 397.5801,-251.8888 416.8154,-255.8006 492,-248 578.4502,-239.0306 676.7578,-220.0348 740.8924,-208.4333"/>
<polygon fill="#191970" stroke="#191970" points="741.6619,-211.8512 750.8851,-206.6375 740.4237,-204.9616 741.6619,-211.8512"/>
</g>
<!-- Node40&#45;&gt;Node41 -->
<g id="edge20" class="edge">
<title>Node40&#45;&gt;Node41</title>
<path fill="none" stroke="#191970" d="M158.9067,-270.5034C174.4611,-270.8296 190.7696,-270.9371 206,-271 257.5551,-271.213 270.45,-271.7579 322,-271 397.5801,-269.8888 416.8154,-273.8006 492,-266 587.3884,-256.1032 697.2129,-233.9996 759.6384,-217.7283"/>
<polygon fill="#191970" stroke="#191970" points="760.8524,-221.027 769.6128,-215.0682 759.0485,-214.2634 760.8524,-221.027"/>
</g>
<!-- Node42 -->
<g id="node3" class="node">
<title>Node42</title>
<g id="a_node3"><a xlink:href="classMap.html#a64e71e521c539cf28828be9978c34889" target="_top" xlink:title="Returns the node at given screencoordinates. ">
<polygon fill="none" stroke="#000000" points="206,-190.5 206,-209.5 322,-209.5 322,-190.5 206,-190.5"/>
<text text-anchor="middle" x="264" y="-197.5" font-family="Helvetica,sans-Serif" font-size="10.00" fill="#000000">Map::findNodeInMap</text>
</a>
</g>
</g>
<!-- Node40&#45;&gt;Node42 -->
<g id="edge2" class="edge">
<title>Node40&#45;&gt;Node42</title>
<path fill="none" stroke="#191970" d="M112.9688,-251.4688C143.486,-241.069 192.5022,-224.3652 226.3764,-212.8214"/>
<polygon fill="#191970" stroke="#191970" points="227.5964,-216.1034 235.9329,-209.5648 225.3384,-209.4776 227.5964,-216.1034"/>
</g>
<!-- Node43 -->
<g id="node4" class="node">
<title>Node43</title>
<g id="a_node4"><a xlink:href="isoMath_8cxx.html#a0a076d973bc64ffa7859b894793c8000" target="_top" xlink:title="Calculates screen space coordinates to isometric space coordinates. A formula is used to calculate th...">
<polygon fill="none" stroke="#000000" points="358,-228.5 358,-247.5 492,-247.5 492,-228.5 358,-228.5"/>
<text text-anchor="middle" x="425" y="-235.5" font-family="Helvetica,sans-Serif" font-size="10.00" fill="#000000">calculateIsoCoordinates</text>
</a>
</g>
</g>
<!-- Node40&#45;&gt;Node43 -->
<g id="edge19" class="edge">
<title>Node40&#45;&gt;Node43</title>
<path fill="none" stroke="#191970" d="M170.3575,-255.2258C224.8729,-251.538 294.9794,-246.7955 347.8259,-243.2206"/>
<polygon fill="#191970" stroke="#191970" points="348.0789,-246.7116 357.8198,-242.5445 347.6063,-239.7275 348.0789,-246.7116"/>
</g>
<!-- Node42&#45;&gt;Node41 -->
<g id="edge4" class="edge">
<title>Node42&#45;&gt;Node41</title>
<path fill="none" stroke="#191970" d="M322.1729,-200C423.4589,-200 631.7527,-200 740.478,-200"/>
<polygon fill="#191970" stroke="#191970" points="740.6821,-203.5001 750.682,-200 740.682,-196.5001 740.6821,-203.5001"/>
</g>
<!-- Node42&#45;&gt;Node43 -->
<g id="edge3" class="edge">
<title>Node42&#45;&gt;Node43</title>
<path fill="none" stroke="#191970" d="M304.6271,-209.589C325.9685,-214.6261 352.3119,-220.8438 374.9081,-226.1771"/>
<polygon fill="#191970" stroke="#191970" points="374.1284,-229.5891 384.665,-228.4799 375.7365,-222.7763 374.1284,-229.5891"/>
</g>
<!-- Node44 -->
<g id="node5" class="node">
<title>Node44</title>
<g id="a_node5"><a xlink:href="classMap.html#a1676db3d125b2c1764adfcb64d6332a2" target="_top" xlink:title="Map::nodeIdx">
<polygon fill="none" stroke="#000000" points="569.5,-152.5 569.5,-171.5 651.5,-171.5 651.5,-152.5 569.5,-152.5"/>
<text text-anchor="middle" x="610.5" y="-159.5" font-family="Helvetica,sans-Serif" font-size="10.00" fill="#000000">Map::nodeIdx</text>
</a>
</g>
</g>
<!-- Node42&#45;&gt;Node44 -->
<g id="edge5" class="edge">
<title>Node42&#45;&gt;Node44</title>
<path fill="none" stroke="#191970" d="M322.101,-190.8542C333.9627,-189.1257 346.3715,-187.4176 358,-186 427.5189,-177.5253 508.1154,-170.3174 559.1933,-166.0732"/>
<polygon fill="#191970" stroke="#191970" points="559.6379,-169.5486 569.3166,-165.2388 559.0628,-162.5722 559.6379,-169.5486"/>
</g>
<!-- Node45 -->
<g id="node6" class="node">
<title>Node45</title>
<g id="a_node6"><a xlink:href="classMap.html#a352929ea8cc2efc4f415c7ec795e1538" target="_top" xlink:title="Map::isClickWithinTile">
<polygon fill="none" stroke="#000000" points="362.5,-95.5 362.5,-114.5 487.5,-114.5 487.5,-95.5 362.5,-95.5"/>
<text text-anchor="middle" x="425" y="-102.5" font-family="Helvetica,sans-Serif" font-size="10.00" fill="#000000">Map::isClickWithinTile</text>
</a>
</g>
</g>
<!-- Node42&#45;&gt;Node45 -->
<g id="edge6" class="edge">
<title>Node42&#45;&gt;Node45</title>
<path fill="none" stroke="#191970" d="M280.3235,-190.3681C308.5297,-173.7247 366.5655,-139.48 399.9241,-119.7963"/>
<polygon fill="#191970" stroke="#191970" points="401.7995,-122.7537 408.6332,-114.6574 398.2421,-116.725 401.7995,-122.7537"/>
</g>
<!-- Node45&#45;&gt;Node41 -->
<g id="edge18" class="edge">
<title>Node45&#45;&gt;Node41</title>
<path fill="none" stroke="#191970" d="M487.6659,-108.3448C542.7568,-112.5825 624.5873,-122.055 693,-143 722.2426,-151.9528 753.2695,-167.3725 776.0193,-179.9181"/>
<polygon fill="#191970" stroke="#191970" points="774.4913,-183.074 784.9249,-184.9155 777.917,-176.9695 774.4913,-183.074"/>
</g>
<!-- Node45&#45;&gt;Node44 -->
<g id="edge9" class="edge">
<title>Node45&#45;&gt;Node44</title>
<path fill="none" stroke="#191970" d="M454.2363,-114.5985C474.8181,-121.2988 503.039,-130.3722 528,-138 540.6071,-141.8526 554.3417,-145.9054 566.9229,-149.561"/>
<polygon fill="#191970" stroke="#191970" points="566.1431,-152.9789 576.7219,-152.3963 568.0887,-146.2547 566.1431,-152.9789"/>
</g>
<!-- Node46 -->
<g id="node7" class="node">
<title>Node46</title>
<g id="a_node7"><a xlink:href="isoMath_8cxx.html#a7fa61c3d8ef446fb1c48dc4838023649" target="_top" xlink:title="Check if given coordinates are within map boundaries Checks if coordinates are within map boundaries...">
<polygon fill="none" stroke="#000000" points="532.5,-76.5 532.5,-95.5 688.5,-95.5 688.5,-76.5 532.5,-76.5"/>
<text text-anchor="middle" x="610.5" y="-83.5" font-family="Helvetica,sans-Serif" font-size="10.00" fill="#000000">isPointWithinMapBoundaries</text>
</a>
</g>
</g>
<!-- Node45&#45;&gt;Node46 -->
<g id="edge7" class="edge">
<title>Node45&#45;&gt;Node46</title>
<path fill="none" stroke="#191970" d="M487.5432,-98.594C498.6883,-97.4524 510.4866,-96.244 522.1904,-95.0452"/>
<polygon fill="#191970" stroke="#191970" points="522.8411,-98.4969 532.4324,-93.9961 522.1278,-91.5334 522.8411,-98.4969"/>
</g>
<!-- Node47 -->
<g id="node8" class="node">
<title>Node47</title>
<g id="a_node8"><a xlink:href="classMapLayers.html#a1d810628821913c499b8348107b66891" target="_top" xlink:title="Check if given Layer is being drawn. ">
<polygon fill="none" stroke="#000000" points="540,-38.5 540,-57.5 681,-57.5 681,-38.5 540,-38.5"/>
<text text-anchor="middle" x="610.5" y="-45.5" font-family="Helvetica,sans-Serif" font-size="10.00" fill="#000000">MapLayers::isLayerActive</text>
</a>
</g>
</g>
<!-- Node45&#45;&gt;Node47 -->
<g id="edge10" class="edge">
<title>Node45&#45;&gt;Node47</title>
<path fill="none" stroke="#191970" d="M448.4397,-95.3815C469.1315,-87.1253 500.2375,-75.2816 528,-67 536.4936,-64.4663 545.5637,-62.072 554.4672,-59.892"/>
<polygon fill="#191970" stroke="#191970" points="555.4914,-63.2461 564.4093,-57.5258 553.8706,-56.4363 555.4914,-63.2461"/>
</g>
<!-- Node54 -->
<g id="node15" class="node">
<title>Node54</title>
<g id="a_node15"><a xlink:href="classMap.html#a60c25a64389c3007bb118d3041ac86c9" target="_top" xlink:title="Map::getColorOfPixelInSurface">
<polygon fill="none" stroke="#000000" points="528,-.5 528,-19.5 693,-19.5 693,-.5 528,-.5"/>
<text text-anchor="middle" x="610.5" y="-7.5" font-family="Helvetica,sans-Serif" font-size="10.00" fill="#000000">Map::getColorOfPixelInSurface</text>
</a>
</g>
</g>
<!-- Node45&#45;&gt;Node54 -->
<g id="edge17" class="edge">
<title>Node45&#45;&gt;Node54</title>
<path fill="none" stroke="#191970" d="M434.9067,-95.4566C452.2863,-79.2604 490.0421,-46.4553 528,-29 533.3894,-26.5216 539.13,-24.3525 544.9771,-22.4566"/>
<polygon fill="#191970" stroke="#191970" points="546.2847,-25.7195 554.8748,-19.5177 544.2921,-19.009 546.2847,-25.7195"/>
</g>
<!-- Node46&#45;&gt;Node41 -->
<g id="edge8" class="edge">
<title>Node46&#45;&gt;Node41</title>
<path fill="none" stroke="#191970" d="M654.4766,-95.5265C667.2759,-99.1581 681.027,-103.9272 693,-110 728.6219,-128.0676 764.237,-157.4954 786.6496,-177.7535"/>
<polygon fill="#191970" stroke="#191970" points="784.5519,-180.579 794.2851,-184.7641 789.2862,-175.4227 784.5519,-180.579"/>
</g>
<!-- Node48 -->
<g id="node9" class="node">
<title>Node48</title>
<g id="a_node9"><a xlink:href="classMapLayers.html#ab663dfc9e4c144f904ad85543b66ac8f" target="_top" xlink:title="Toggle Drawing Layer Toggle Drawing Layer (use bitwise XOR to toggle layer) ">
<polygon fill="none" stroke="#000000" points="729,-76.5 729,-95.5 891,-95.5 891,-76.5 729,-76.5"/>
<text text-anchor="middle" x="810" y="-83.5" font-family="Helvetica,sans-Serif" font-size="10.00" fill="#000000">MapLayers::setLayerEditMode</text>
</a>
</g>
</g>
<!-- Node47&#45;&gt;Node48 -->
<g id="edge11" class="edge">
<title>Node47&#45;&gt;Node48</title>
<path fill="none" stroke="#191970" d="M660.5848,-57.54C687.739,-62.7122 721.4857,-69.1401 750.0332,-74.5778"/>
<polygon fill="#191970" stroke="#191970" points="749.4163,-78.0231 759.8946,-76.4561 750.7262,-71.1467 749.4163,-78.0231"/>
</g>
<!-- Node52 -->
<g id="node13" class="node">
<title>Node52</title>
<g id="a_node13"><a xlink:href="classMapLayers.html#a53d7fcd90e70eaf36239d7a75c0c5dda" target="_top" xlink:title="MapLayers::MapLayers">
<polygon fill="none" stroke="#000000" points="746,-38.5 746,-57.5 874,-57.5 874,-38.5 746,-38.5"/>
<text text-anchor="middle" x="810" y="-45.5" font-family="Helvetica,sans-Serif" font-size="10.00" fill="#000000">MapLayers::MapLayers</text>
</a>
</g>
</g>
<!-- Node47&#45;&gt;Node52 -->
<g id="edge15" class="edge">
<title>Node47&#45;&gt;Node52</title>
<path fill="none" stroke="#191970" d="M681.117,-48C698.7326,-48 717.6769,-48 735.4746,-48"/>
<polygon fill="#191970" stroke="#191970" points="735.8025,-51.5001 745.8024,-48 735.8024,-44.5001 735.8025,-51.5001"/>
</g>
<!-- Node53 -->
<g id="node14" class="node">
<title>Node53</title>
<g id="a_node14"><a xlink:href="classMapLayers.html#aa7fa21110e27ec69f131692b0a510d66" target="_top" xlink:title="MapLayers::~MapLayers">
<polygon fill="none" stroke="#000000" points="742,-.5 742,-19.5 878,-19.5 878,-.5 742,-.5"/>
<text text-anchor="middle" x="810" y="-7.5" font-family="Helvetica,sans-Serif" font-size="10.00" fill="#000000">MapLayers::~MapLayers</text>
</a>
</g>
</g>
<!-- Node47&#45;&gt;Node53 -->
<g id="edge16" class="edge">
<title>Node47&#45;&gt;Node53</title>
<path fill="none" stroke="#191970" d="M660.5848,-38.46C687.739,-33.2878 721.4857,-26.8599 750.0332,-21.4222"/>
<polygon fill="#191970" stroke="#191970" points="750.7262,-24.8533 759.8946,-19.5439 749.4163,-17.9769 750.7262,-24.8533"/>
</g>
<!-- Node49 -->
<g id="node10" class="node">
<title>Node49</title>
<g id="a_node10"><a xlink:href="classMapLayers.html#a0a64d01a42e8864b78e1bc54007cb7d9" target="_top" xlink:title="Toggle Drawing Layer Toggle Drawing Layer (use bitwise XOR to toggle layer) ">
<polygon fill="none" stroke="#000000" points="927,-93 927,-123 1067,-123 1067,-93 927,-93"/>
<text text-anchor="start" x="935" y="-111" font-family="Helvetica,sans-Serif" font-size="10.00" fill="#000000">MapLayers::deactivateAll</text>
<text text-anchor="middle" x="997" y="-100" font-family="Helvetica,sans-Serif" font-size="10.00" fill="#000000">Layers</text>
</a>
</g>
</g>
<!-- Node48&#45;&gt;Node49 -->
<g id="edge12" class="edge">
<title>Node48&#45;&gt;Node49</title>
<path fill="none" stroke="#191970" d="M890.9333,-95.5216C899.5179,-96.5315 908.2464,-97.5584 916.8223,-98.5673"/>
<polygon fill="#191970" stroke="#191970" points="916.4613,-102.0489 926.8018,-99.7414 917.2792,-95.0969 916.4613,-102.0489"/>
</g>
<!-- Node51 -->
<g id="node12" class="node">
<title>Node51</title>
<g id="a_node12"><a xlink:href="classMapLayers.html#a5db6ba7e194ada6a4d0334d0428ff89b" target="_top" xlink:title="Enable drawing layers. ">
<polygon fill="none" stroke="#000000" points="927,-54.5 927,-73.5 1067,-73.5 1067,-54.5 927,-54.5"/>
<text text-anchor="middle" x="997" y="-61.5" font-family="Helvetica,sans-Serif" font-size="10.00" fill="#000000">MapLayers::enableLayers</text>
</a>
</g>
</g>
<!-- Node48&#45;&gt;Node51 -->
<g id="edge14" class="edge">
<title>Node48&#45;&gt;Node51</title>
<path fill="none" stroke="#191970" d="M890.9333,-76.4784C899.5179,-75.4685 908.2464,-74.4416 916.8223,-73.4327"/>
<polygon fill="#191970" stroke="#191970" points="917.2792,-76.9031 926.8018,-72.2586 916.4613,-69.9511 917.2792,-76.9031"/>
</g>
<!-- Node50 -->
<g id="node11" class="node">
<title>Node50</title>
<g id="a_node11"><a xlink:href="classMapLayers.html#a3b1b1f10dd431fa83e098a20e4c836b9" target="_top" xlink:title="Disable Drawing Layer Disable Drawing Layer ( Turned off by using bitwise AND with inversed pattern) ...">
<polygon fill="none" stroke="#000000" points="1103,-98.5 1103,-117.5 1240,-117.5 1240,-98.5 1103,-98.5"/>
<text text-anchor="middle" x="1171.5" y="-105.5" font-family="Helvetica,sans-Serif" font-size="10.00" fill="#000000">MapLayers::disableLayer</text>
</a>
</g>
</g>
<!-- Node49&#45;&gt;Node50 -->
<g id="edge13" class="edge">
<title>Node49&#45;&gt;Node50</title>
<path fill="none" stroke="#191970" d="M1067.2215,-108C1075.5704,-108 1084.1356,-108 1092.5953,-108"/>
<polygon fill="#191970" stroke="#191970" points="1092.8402,-111.5001 1102.8402,-108 1092.8402,-104.5001 1092.8402,-111.5001"/>
</g>
</g>
</svg>
