<?xml version="1.0" encoding="UTF-8" standalone="no"?>
<!DOCTYPE svg PUBLIC "-//W3C//DTD SVG 1.1//EN"
 "http://www.w3.org/Graphics/SVG/1.1/DTD/svg11.dtd">
<!-- Generated by graphviz version 2.40.1 (20161225.0304)
 -->
<!-- Title: src/util/LOG.inl.hxx Pages: 1 -->
<!--zoomable 263 -->
<svg id="main" version="1.1" xmlns="http://www.w3.org/2000/svg" xmlns:xlink="http://www.w3.org/1999/xlink" xml:space="preserve" onload="init(evt)">
<style type="text/css"><![CDATA[
.edge:hover path { stroke: red; }
.edge:hover polygon { stroke: red; fill: red; }
]]></style>
<script type="text/javascript"><![CDATA[
var edges = document.getElementsByTagName('g');
if (edges && edges.length) {
  for (var i=0;i<edges.length;i++) {
    if (edges[i].id.substr(0,4)=='edge') {
      edges[i].setAttribute('class','edge');
    }
  }
}
]]></script>
        <defs>
                <circle id="rim" cx="0" cy="0" r="7"/>
                <circle id="rim2" cx="0" cy="0" r="3.5"/>
                <g id="zoomPlus">
                        <use xlink:href="#rim" fill="#404040">
                                <set attributeName="fill" to="#808080" begin="zoomplus.mouseover" end="zoomplus.mouseout"/>
                        </use>
                        <path d="M-4,0h8M0,-4v8" fill="none" stroke="white" stroke-width="1.5" pointer-events="none"/>
                </g>
                <g id="zoomMin">
                        <use xlink:href="#rim" fill="#404040">
                                <set attributeName="fill" to="#808080" begin="zoomminus.mouseover" end="zoomminus.mouseout"/>
                        </use>
                        <path d="M-4,0h8" fill="none" stroke="white" stroke-width="1.5" pointer-events="none"/>
                </g>
                <g id="dirArrow">
                        <path fill="none" stroke="white" stroke-width="1.5" d="M0,-3.0v7 M-2.5,-0.5L0,-3.0L2.5,-0.5"/>
                </g>
               <g id="resetDef">
                       <use xlink:href="#rim2" fill="#404040">
                               <set attributeName="fill" to="#808080" begin="reset.mouseover" end="reset.mouseout"/>
                       </use>
               </g>
        </defs>

<script type="text/javascript">
var viewWidth = 4337;
var viewHeight = 263;
var sectionId = 'dynsection-0';
</script>
<script xlink:href="svgpan.js"/>
<svg id="graph" class="graph">
<g id="viewport">
<title>src/util/LOG.inl.hxx</title>
<!-- Node1 -->
<g id="node1" class="node">
<title>Node1</title>
<polygon fill="#bfbfbf" stroke="#000000" points="2299,-235.5 2299,-254.5 2408,-254.5 2408,-235.5 2299,-235.5"/>
<text text-anchor="middle" x="2353.5" y="-242.5" font-family="Helvetica,sans-Serif" font-size="10.00" fill="#000000">src/util/LOG.inl.hxx</text>
</g>
<!-- Node2 -->
<g id="node2" class="node">
<title>Node2</title>
<g id="a_node2"><a xlink:href="LOG_8hxx.html" target="_top" xlink:title="src/util/LOG.hxx">
<polygon fill="none" stroke="#000000" points="2306.5,-179.5 2306.5,-198.5 2400.5,-198.5 2400.5,-179.5 2306.5,-179.5"/>
<text text-anchor="middle" x="2353.5" y="-186.5" font-family="Helvetica,sans-Serif" font-size="10.00" fill="#000000">src/util/LOG.hxx</text>
</a>
</g>
</g>
<!-- Node1&#45;&gt;Node2 -->
<g id="edge1" class="edge">
<title>Node1&#45;&gt;Node2</title>
<path fill="none" stroke="#191970" d="M2353.5,-225.1575C2353.5,-216.155 2353.5,-205.9199 2353.5,-198.6427"/>
<polygon fill="#191970" stroke="#191970" points="2350.0001,-225.2455 2353.5,-235.2455 2357.0001,-225.2456 2350.0001,-225.2455"/>
</g>
<!-- Node3 -->
<g id="node3" class="node">
<title>Node3</title>
<g id="a_node3"><a xlink:href="compression_8hxx.html" target="_top" xlink:title="src/engine/basics/compression.hxx">
<polygon fill="none" stroke="#000000" points="0,-118 0,-137 187,-137 187,-118 0,-118"/>
<text text-anchor="middle" x="93.5" y="-125" font-family="Helvetica,sans-Serif" font-size="10.00" fill="#000000">src/engine/basics/compression.hxx</text>
</a>
</g>
</g>
<!-- Node2&#45;&gt;Node3 -->
<g id="edge2" class="edge">
<title>Node2&#45;&gt;Node3</title>
<path fill="none" stroke="#191970" d="M2296.3241,-188.7276C1998.7759,-187.1652 624.8835,-178.1386 200.5,-143 184.0385,-141.637 166.2507,-139.3795 149.9936,-137.0036"/>
<polygon fill="#191970" stroke="#191970" points="2296.4334,-192.2281 2306.4514,-188.78 2296.4697,-185.2282 2296.4334,-192.2281"/>
</g>
<!-- Node4 -->
<g id="node4" class="node">
<title>Node4</title>
<g id="a_node4"><a xlink:href="Map_8cxx.html" target="_top" xlink:title="src/engine/Map.cxx">
<polygon fill="none" stroke="#000000" points="99.5,-56.5 99.5,-75.5 209.5,-75.5 209.5,-56.5 99.5,-56.5"/>
<text text-anchor="middle" x="154.5" y="-63.5" font-family="Helvetica,sans-Serif" font-size="10.00" fill="#000000">src/engine/Map.cxx</text>
</a>
</g>
</g>
<!-- Node2&#45;&gt;Node4 -->
<g id="edge10" class="edge">
<title>Node2&#45;&gt;Node4</title>
<path fill="none" stroke="#191970" d="M2295.9021,-188.9405C1966.36,-188.451 331.157,-183.9595 233.5,-143 216.1914,-135.7404 179.0783,-94.4611 162.6322,-75.5102"/>
<polygon fill="#191970" stroke="#191970" points="2296.1669,-192.4408 2306.1719,-188.9551 2296.1769,-185.4408 2296.1669,-192.4408"/>
</g>
<!-- Node5 -->
<g id="node5" class="node">
<title>Node5</title>
<g id="a_node5"><a xlink:href="isoMath_8cxx.html" target="_top" xlink:title="src/engine/basics/isoMath.cxx">
<polygon fill="none" stroke="#000000" points="242.5,-118 242.5,-137 404.5,-137 404.5,-118 242.5,-118"/>
<text text-anchor="middle" x="323.5" y="-125" font-family="Helvetica,sans-Serif" font-size="10.00" fill="#000000">src/engine/basics/isoMath.cxx</text>
</a>
</g>
</g>
<!-- Node2&#45;&gt;Node5 -->
<g id="edge4" class="edge">
<title>Node2&#45;&gt;Node5</title>
<path fill="none" stroke="#191970" d="M2295.7748,-188.7755C2015.263,-187.5094 792.5585,-179.9334 413.5,-143 399.6133,-141.647 384.639,-139.3926 370.9656,-137.0164"/>
<polygon fill="#191970" stroke="#191970" points="2296.1091,-192.2769 2306.1245,-188.8212 2296.1401,-185.2769 2296.1091,-192.2769"/>
</g>
<!-- Node6 -->
<g id="node6" class="node">
<title>Node6</title>
<g id="a_node6"><a xlink:href="Settings_8cxx.html" target="_top" xlink:title="src/engine/basics/Settings.cxx">
<polygon fill="none" stroke="#000000" points="422.5,-118 422.5,-137 586.5,-137 586.5,-118 422.5,-118"/>
<text text-anchor="middle" x="504.5" y="-125" font-family="Helvetica,sans-Serif" font-size="10.00" fill="#000000">src/engine/basics/Settings.cxx</text>
</a>
</g>
</g>
<!-- Node2&#45;&gt;Node6 -->
<g id="edge5" class="edge">
<title>Node2&#45;&gt;Node6</title>
<path fill="none" stroke="#191970" d="M2296.1293,-188.5997C2032.6344,-186.5921 936.7766,-176.358 595.5,-143 581.6234,-141.6436 566.6686,-139.419 552.9711,-137.0729"/>
<polygon fill="#191970" stroke="#191970" points="2296.2144,-192.1003 2306.2405,-188.6758 2296.2672,-185.1005 2296.2144,-192.1003"/>
</g>
<!-- Node7 -->
<g id="node7" class="node">
<title>Node7</title>
<g id="a_node7"><a xlink:href="Timer_8cxx.html" target="_top" xlink:title="src/engine/basics/Timer.cxx">
<polygon fill="none" stroke="#000000" points="604.5,-118 604.5,-137 756.5,-137 756.5,-118 604.5,-118"/>
<text text-anchor="middle" x="680.5" y="-125" font-family="Helvetica,sans-Serif" font-size="10.00" fill="#000000">src/engine/basics/Timer.cxx</text>
</a>
</g>
</g>
<!-- Node2&#45;&gt;Node7 -->
<g id="edge6" class="edge">
<title>Node2&#45;&gt;Node7</title>
<path fill="none" stroke="#191970" d="M2296.131,-188.5032C2048.657,-186.1806 1071.2398,-175.1177 765.5,-143 752.5212,-141.6366 738.5469,-139.4097 725.7528,-137.0637"/>
<polygon fill="#191970" stroke="#191970" points="2296.3068,-192.0049 2306.3388,-188.5979 2296.3718,-185.0052 2296.3068,-192.0049"/>
</g>
<!-- Node8 -->
<g id="node8" class="node">
<title>Node8</title>
<g id="a_node8"><a xlink:href="EventManager_8cxx.html" target="_top" xlink:title="src/engine/EventManager.cxx">
<polygon fill="none" stroke="#000000" points="775,-118 775,-137 934,-137 934,-118 775,-118"/>
<text text-anchor="middle" x="854.5" y="-125" font-family="Helvetica,sans-Serif" font-size="10.00" fill="#000000">src/engine/EventManager.cxx</text>
</a>
</g>
</g>
<!-- Node2&#45;&gt;Node8 -->
<g id="edge7" class="edge">
<title>Node2&#45;&gt;Node8</title>
<path fill="none" stroke="#191970" d="M2296.2867,-188.2022C2066.8057,-184.8367 1212.5418,-170.6793 943.5,-143 929.9266,-141.6036 915.2999,-139.3661 901.9035,-137.0205"/>
<polygon fill="#191970" stroke="#191970" points="2296.3706,-191.7037 2306.4205,-188.3497 2296.4726,-184.7044 2296.3706,-191.7037"/>
</g>
<!-- Node9 -->
<g id="node9" class="node">
<title>Node9</title>
<g id="a_node9"><a xlink:href="MapNode_8cxx.html" target="_top" xlink:title="src/engine/GameObjects\l/MapNode.cxx">
<polygon fill="none" stroke="#000000" points="952.5,-112.5 952.5,-142.5 1088.5,-142.5 1088.5,-112.5 952.5,-112.5"/>
<text text-anchor="start" x="960.5" y="-130.5" font-family="Helvetica,sans-Serif" font-size="10.00" fill="#000000">src/engine/GameObjects</text>
<text text-anchor="middle" x="1020.5" y="-119.5" font-family="Helvetica,sans-Serif" font-size="10.00" fill="#000000">/MapNode.cxx</text>
</a>
</g>
</g>
<!-- Node2&#45;&gt;Node9 -->
<g id="edge8" class="edge">
<title>Node2&#45;&gt;Node9</title>
<path fill="none" stroke="#191970" d="M2296.2777,-188.1368C2082.9945,-184.7277 1334.4211,-170.9973 1097.5,-143 1094.6562,-142.6639 1091.7608,-142.2787 1088.8414,-141.8547"/>
<polygon fill="#191970" stroke="#191970" points="2296.2671,-191.637 2306.3214,-188.296 2296.3781,-184.6379 2296.2671,-191.637"/>
</g>
<!-- Node10 -->
<g id="node10" class="node">
<title>Node10</title>
<g id="a_node10"><a xlink:href="TerrainGenerator_8cxx.html" target="_top" xlink:title="src/engine/map/TerrainGenerator.cxx">
<polygon fill="none" stroke="#000000" points="1106.5,-118 1106.5,-137 1302.5,-137 1302.5,-118 1106.5,-118"/>
<text text-anchor="middle" x="1204.5" y="-125" font-family="Helvetica,sans-Serif" font-size="10.00" fill="#000000">src/engine/map/TerrainGenerator.cxx</text>
</a>
</g>
</g>
<!-- Node2&#45;&gt;Node10 -->
<g id="edge9" class="edge">
<title>Node2&#45;&gt;Node10</title>
<path fill="none" stroke="#191970" d="M2295.9904,-188.4723C2138.2782,-186.5912 1685.7695,-178.2809 1311.5,-143 1295.6157,-141.5026 1278.4833,-139.2908 1262.6829,-137.0041"/>
<polygon fill="#191970" stroke="#191970" points="2296.3506,-191.9766 2306.3902,-188.5921 2296.4312,-184.9771 2296.3506,-191.9766"/>
</g>
<!-- Node11 -->
<g id="node11" class="node">
<title>Node11</title>
<g id="a_node11"><a xlink:href="ResourcesManager_8cxx.html" target="_top" xlink:title="src/engine/ResourcesManager.cxx">
<polygon fill="none" stroke="#000000" points="1321,-118 1321,-137 1502,-137 1502,-118 1321,-118"/>
<text text-anchor="middle" x="1411.5" y="-125" font-family="Helvetica,sans-Serif" font-size="10.00" fill="#000000">src/engine/ResourcesManager.cxx</text>
</a>
</g>
</g>
<!-- Node2&#45;&gt;Node11 -->
<g id="edge11" class="edge">
<title>Node2&#45;&gt;Node11</title>
<path fill="none" stroke="#191970" d="M2296.0764,-187.8612C2159.5455,-184.719 1804.9296,-174.0021 1510.5,-143 1495.967,-141.4697 1480.3123,-139.2749 1465.8368,-137.0163"/>
<polygon fill="#191970" stroke="#191970" points="2296.2218,-191.3652 2306.2982,-188.0916 2296.3796,-184.367 2296.2218,-191.3652"/>
</g>
<!-- Node12 -->
<g id="node12" class="node">
<title>Node12</title>
<g id="a_node12"><a xlink:href="Sprite_8cxx.html" target="_top" xlink:title="src/engine/Sprite.cxx">
<polygon fill="none" stroke="#000000" points="1520,-118 1520,-137 1639,-137 1639,-118 1520,-118"/>
<text text-anchor="middle" x="1579.5" y="-125" font-family="Helvetica,sans-Serif" font-size="10.00" fill="#000000">src/engine/Sprite.cxx</text>
</a>
</g>
</g>
<!-- Node2&#45;&gt;Node12 -->
<g id="edge12" class="edge">
<title>Node2&#45;&gt;Node12</title>
<path fill="none" stroke="#191970" d="M2296.0096,-188.3445C2175.2599,-186.2905 1886.6634,-177.8232 1647.5,-143 1637.3153,-141.5171 1626.3972,-139.3101 1616.3556,-137.0234"/>
<polygon fill="#191970" stroke="#191970" points="2296.0792,-191.846 2306.1345,-188.5083 2296.1925,-184.8469 2296.0792,-191.846"/>
</g>
<!-- Node13 -->
<g id="node13" class="node">
<title>Node13</title>
<g id="a_node13"><a xlink:href="TileManager_8cxx.html" target="_top" xlink:title="src/engine/TileManager.cxx">
<polygon fill="none" stroke="#000000" points="1657,-118 1657,-137 1806,-137 1806,-118 1657,-118"/>
<text text-anchor="middle" x="1731.5" y="-125" font-family="Helvetica,sans-Serif" font-size="10.00" fill="#000000">src/engine/TileManager.cxx</text>
</a>
</g>
</g>
<!-- Node2&#45;&gt;Node13 -->
<g id="edge13" class="edge">
<title>Node2&#45;&gt;Node13</title>
<path fill="none" stroke="#191970" d="M2296.4142,-185.9998C2197.8051,-180.3998 1989.3218,-166.7238 1814.5,-143 1802.5889,-141.3836 1789.7926,-139.2125 1777.9002,-137.0077"/>
<polygon fill="#191970" stroke="#191970" points="2296.2837,-189.4978 2306.4642,-186.564 2296.6762,-182.5089 2296.2837,-189.4978"/>
</g>
<!-- Node14 -->
<g id="node14" class="node">
<title>Node14</title>
<g id="a_node14"><a xlink:href="Layout_8cxx.html" target="_top" xlink:title="src/engine/ui/basics\l/Layout.cxx">
<polygon fill="none" stroke="#000000" points="1824,-112.5 1824,-142.5 1937,-142.5 1937,-112.5 1824,-112.5"/>
<text text-anchor="start" x="1832" y="-130.5" font-family="Helvetica,sans-Serif" font-size="10.00" fill="#000000">src/engine/ui/basics</text>
<text text-anchor="middle" x="1880.5" y="-119.5" font-family="Helvetica,sans-Serif" font-size="10.00" fill="#000000">/Layout.cxx</text>
</a>
</g>
</g>
<!-- Node2&#45;&gt;Node14 -->
<g id="edge14" class="edge">
<title>Node2&#45;&gt;Node14</title>
<path fill="none" stroke="#191970" d="M2296.1715,-184.7527C2216.9327,-178.3791 2069.6497,-164.7178 1945.5,-143 1942.7574,-142.5202 1939.9577,-141.9942 1937.1358,-141.4348"/>
<polygon fill="#191970" stroke="#191970" points="2296.1789,-188.2643 2306.4247,-185.5672 2296.7333,-181.2862 2296.1789,-188.2643"/>
</g>
<!-- Node15 -->
<g id="node15" class="node">
<title>Node15</title>
<g id="a_node15"><a xlink:href="UIElement_8cxx.html" target="_top" xlink:title="src/engine/ui/basics\l/UIElement.cxx">
<polygon fill="none" stroke="#000000" points="1955,-112.5 1955,-142.5 2068,-142.5 2068,-112.5 1955,-112.5"/>
<text text-anchor="start" x="1963" y="-130.5" font-family="Helvetica,sans-Serif" font-size="10.00" fill="#000000">src/engine/ui/basics</text>
<text text-anchor="middle" x="2011.5" y="-119.5" font-family="Helvetica,sans-Serif" font-size="10.00" fill="#000000">/UIElement.cxx</text>
</a>
</g>
</g>
<!-- Node2&#45;&gt;Node15 -->
<g id="edge15" class="edge">
<title>Node2&#45;&gt;Node15</title>
<path fill="none" stroke="#191970" d="M2296.3778,-180.5976C2240.4238,-172.1041 2152.8288,-158.106 2077.5,-143 2074.4995,-142.3983 2071.4277,-141.7589 2068.33,-141.0958"/>
<polygon fill="#191970" stroke="#191970" points="2296.0367,-184.0857 2306.4473,-182.1185 2297.0822,-177.1642 2296.0367,-184.0857"/>
</g>
<!-- Node16 -->
<g id="node16" class="node">
<title>Node16</title>
<g id="a_node16"><a xlink:href="Button_8cxx.html" target="_top" xlink:title="src/engine/ui/widgets\l/Button.cxx">
<polygon fill="none" stroke="#000000" points="2086.5,-112.5 2086.5,-142.5 2206.5,-142.5 2206.5,-112.5 2086.5,-112.5"/>
<text text-anchor="start" x="2094.5" y="-130.5" font-family="Helvetica,sans-Serif" font-size="10.00" fill="#000000">src/engine/ui/widgets</text>
<text text-anchor="middle" x="2146.5" y="-119.5" font-family="Helvetica,sans-Serif" font-size="10.00" fill="#000000">/Button.cxx</text>
</a>
</g>
</g>
<!-- Node2&#45;&gt;Node16 -->
<g id="edge16" class="edge">
<title>Node2&#45;&gt;Node16</title>
<path fill="none" stroke="#191970" d="M2311.3453,-176.4758C2278.2956,-166.6567 2232.1885,-152.9582 2197.1379,-142.5446"/>
<polygon fill="#191970" stroke="#191970" points="2310.5736,-179.8976 2321.1563,-179.3906 2312.5672,-173.1875 2310.5736,-179.8976"/>
</g>
<!-- Node17 -->
<g id="node17" class="node">
<title>Node17</title>
<g id="a_node17"><a xlink:href="Combobox_8cxx.html" target="_top" xlink:title="src/engine/ui/widgets\l/Combobox.cxx">
<polygon fill="none" stroke="#000000" points="2224.5,-112.5 2224.5,-142.5 2344.5,-142.5 2344.5,-112.5 2224.5,-112.5"/>
<text text-anchor="start" x="2232.5" y="-130.5" font-family="Helvetica,sans-Serif" font-size="10.00" fill="#000000">src/engine/ui/widgets</text>
<text text-anchor="middle" x="2284.5" y="-119.5" font-family="Helvetica,sans-Serif" font-size="10.00" fill="#000000">/Combobox.cxx</text>
</a>
</g>
</g>
<!-- Node2&#45;&gt;Node17 -->
<g id="edge17" class="edge">
<title>Node2&#45;&gt;Node17</title>
<path fill="none" stroke="#191970" d="M2334.9738,-172.4875C2324.5188,-163.1689 2311.552,-151.6116 2301.3793,-142.5446"/>
<polygon fill="#191970" stroke="#191970" points="2332.9248,-175.3497 2342.7188,-179.3906 2337.5824,-170.1241 2332.9248,-175.3497"/>
</g>
<!-- Node18 -->
<g id="node18" class="node">
<title>Node18</title>
<g id="a_node18"><a xlink:href="Text_8cxx.html" target="_top" xlink:title="src/engine/ui/widgets\l/Text.cxx">
<polygon fill="none" stroke="#000000" points="2362.5,-112.5 2362.5,-142.5 2482.5,-142.5 2482.5,-112.5 2362.5,-112.5"/>
<text text-anchor="start" x="2370.5" y="-130.5" font-family="Helvetica,sans-Serif" font-size="10.00" fill="#000000">src/engine/ui/widgets</text>
<text text-anchor="middle" x="2422.5" y="-119.5" font-family="Helvetica,sans-Serif" font-size="10.00" fill="#000000">/Text.cxx</text>
</a>
</g>
</g>
<!-- Node2&#45;&gt;Node18 -->
<g id="edge18" class="edge">
<title>Node2&#45;&gt;Node18</title>
<path fill="none" stroke="#191970" d="M2372.0262,-172.4875C2382.4812,-163.1689 2395.448,-151.6116 2405.6207,-142.5446"/>
<polygon fill="#191970" stroke="#191970" points="2369.4176,-170.1241 2364.2813,-179.3906 2374.0752,-175.3497 2369.4176,-170.1241"/>
</g>
<!-- Node19 -->
<g id="node19" class="node">
<title>Node19</title>
<g id="a_node19"><a xlink:href="UIManager_8cxx.html" target="_top" xlink:title="src/engine/UIManager.cxx">
<polygon fill="none" stroke="#000000" points="2500.5,-118 2500.5,-137 2642.5,-137 2642.5,-118 2500.5,-118"/>
<text text-anchor="middle" x="2571.5" y="-125" font-family="Helvetica,sans-Serif" font-size="10.00" fill="#000000">src/engine/UIManager.cxx</text>
</a>
</g>
</g>
<!-- Node2&#45;&gt;Node19 -->
<g id="edge19" class="edge">
<title>Node2&#45;&gt;Node19</title>
<path fill="none" stroke="#191970" d="M2397.3733,-176.6229C2438.7648,-164.9459 2499.9402,-147.6877 2537.6767,-137.0419"/>
<polygon fill="#191970" stroke="#191970" points="2396.2365,-173.3069 2387.5625,-179.3906 2398.1372,-180.044 2396.2365,-173.3069"/>
</g>
<!-- Node20 -->
<g id="node20" class="node">
<title>Node20</title>
<g id="a_node20"><a xlink:href="WindowManager_8cxx.html" target="_top" xlink:title="src/engine/WindowManager.cxx">
<polygon fill="none" stroke="#000000" points="2660.5,-118 2660.5,-137 2830.5,-137 2830.5,-118 2660.5,-118"/>
<text text-anchor="middle" x="2745.5" y="-125" font-family="Helvetica,sans-Serif" font-size="10.00" fill="#000000">src/engine/WindowManager.cxx</text>
</a>
</g>
</g>
<!-- Node2&#45;&gt;Node20 -->
<g id="edge20" class="edge">
<title>Node2&#45;&gt;Node20</title>
<path fill="none" stroke="#191970" d="M2410.784,-180.336C2470.8033,-171.2165 2567.8146,-156.3582 2651.5,-143 2663.4231,-141.0968 2676.1899,-139.0186 2688.3496,-137.0201"/>
<polygon fill="#191970" stroke="#191970" points="2410.1099,-176.8982 2400.7486,-181.8597 2411.1607,-183.8189 2410.1099,-176.8982"/>
</g>
<!-- Node21 -->
<g id="node21" class="node">
<title>Node21</title>
<g id="a_node21"><a xlink:href="Randomizer_8hxx.html" target="_top" xlink:title="src/services/Randomizer.hxx">
<polygon fill="none" stroke="#000000" points="2924.5,-118 2924.5,-137 3080.5,-137 3080.5,-118 2924.5,-118"/>
<text text-anchor="middle" x="3002.5" y="-125" font-family="Helvetica,sans-Serif" font-size="10.00" fill="#000000">src/services/Randomizer.hxx</text>
</a>
</g>
</g>
<!-- Node2&#45;&gt;Node21 -->
<g id="edge21" class="edge">
<title>Node2&#45;&gt;Node21</title>
<path fill="none" stroke="#191970" d="M2410.5814,-185.8829C2511.6346,-180.0089 2728.5267,-165.802 2910.5,-143 2923.518,-141.3688 2937.5085,-139.2181 2950.5527,-137.0399"/>
<polygon fill="#191970" stroke="#191970" points="2410.368,-182.3893 2400.5858,-186.4586 2410.7706,-189.3777 2410.368,-182.3893"/>
</g>
<!-- Node22 -->
<g id="node22" class="node">
<title>Node22</title>
<g id="a_node22"><a xlink:href="Game_8hxx.html" target="_top" xlink:title="src/Game.hxx">
<polygon fill="none" stroke="#000000" points="3098.5,-56.5 3098.5,-75.5 3182.5,-75.5 3182.5,-56.5 3098.5,-56.5"/>
<text text-anchor="middle" x="3140.5" y="-63.5" font-family="Helvetica,sans-Serif" font-size="10.00" fill="#000000">src/Game.hxx</text>
</a>
</g>
</g>
<!-- Node2&#45;&gt;Node22 -->
<g id="edge27" class="edge">
<title>Node2&#45;&gt;Node22</title>
<path fill="none" stroke="#191970" d="M2410.8665,-188.3327C2573.7962,-186.0325 3031.3379,-176.6194 3089.5,-143 3115.876,-127.7539 3131.1931,-92.7239 3137.3378,-75.6749"/>
<polygon fill="#191970" stroke="#191970" points="2410.519,-184.837 2400.568,-188.4741 2410.6152,-191.8363 2410.519,-184.837"/>
</g>
<!-- Node23 -->
<g id="node23" class="node">
<title>Node23</title>
<g id="a_node23"><a xlink:href="Game_8cxx.html" target="_top" xlink:title="src/Game.cxx">
<polygon fill="none" stroke="#000000" points="2878,-.5 2878,-19.5 2961,-19.5 2961,-.5 2878,-.5"/>
<text text-anchor="middle" x="2919.5" y="-7.5" font-family="Helvetica,sans-Serif" font-size="10.00" fill="#000000">src/Game.cxx</text>
</a>
</g>
</g>
<!-- Node2&#45;&gt;Node23 -->
<g id="edge28" class="edge">
<title>Node2&#45;&gt;Node23</title>
<path fill="none" stroke="#191970" d="M2410.9217,-187.8102C2533.3279,-184.6792 2811.1318,-174.18 2839.5,-143 2848.772,-132.809 2847.3082,-123.3516 2839.5,-112 2811.9404,-71.9337 2715.8317,-94.5309 2745.5,-56 2761.5128,-35.2038 2831.4444,-21.8921 2877.6302,-15.1976"/>
<polygon fill="#191970" stroke="#191970" points="2410.535,-184.3187 2400.6249,-188.0656 2410.7086,-191.3165 2410.535,-184.3187"/>
</g>
<!-- Node24 -->
<g id="node24" class="node">
<title>Node24</title>
<g id="a_node24"><a xlink:href="main_8cxx.html" target="_top" xlink:title="src/main.cxx">
<polygon fill="none" stroke="#000000" points="3136,-.5 3136,-19.5 3215,-19.5 3215,-.5 3136,-.5"/>
<text text-anchor="middle" x="3175.5" y="-7.5" font-family="Helvetica,sans-Serif" font-size="10.00" fill="#000000">src/main.cxx</text>
</a>
</g>
</g>
<!-- Node2&#45;&gt;Node24 -->
<g id="edge29" class="edge">
<title>Node2&#45;&gt;Node24</title>
<path fill="none" stroke="#191970" d="M2410.7925,-187.7611C2577.3914,-183.8514 3053.9789,-170.379 3118.5,-143 3138.7696,-134.3988 3182.64,-96.1579 3191.5,-76 3199.8497,-57.0032 3189.1561,-32.9317 3181.6571,-19.7421"/>
<polygon fill="#191970" stroke="#191970" points="2410.6586,-184.2632 2400.7425,-187.9942 2410.821,-191.2613 2410.6586,-184.2632"/>
</g>
<!-- Node25 -->
<g id="node25" class="node">
<title>Node25</title>
<g id="a_node25"><a xlink:href="AudioMixer_8cxx.html" target="_top" xlink:title="src/services/AudioMixer.cxx">
<polygon fill="none" stroke="#000000" points="2754.5,-56.5 2754.5,-75.5 2906.5,-75.5 2906.5,-56.5 2754.5,-56.5"/>
<text text-anchor="middle" x="2830.5" y="-63.5" font-family="Helvetica,sans-Serif" font-size="10.00" fill="#000000">src/services/AudioMixer.cxx</text>
</a>
</g>
</g>
<!-- Node2&#45;&gt;Node25 -->
<g id="edge30" class="edge">
<title>Node2&#45;&gt;Node25</title>
<path fill="none" stroke="#191970" d="M2410.7186,-188.1876C2539.1988,-185.7702 2841.8017,-176.5394 2872.5,-143 2891.52,-122.2196 2861.1164,-91.2615 2842.7889,-75.6879"/>
<polygon fill="#191970" stroke="#191970" points="2410.6074,-184.6889 2400.6724,-188.3694 2410.7341,-191.6878 2410.6074,-184.6889"/>
</g>
<!-- Node27 -->
<g id="node27" class="node">
<title>Node27</title>
<g id="a_node27"><a xlink:href="GameClock_8cxx.html" target="_top" xlink:title="src/services/GameClock.cxx">
<polygon fill="none" stroke="#000000" points="3174.5,-118 3174.5,-137 3328.5,-137 3328.5,-118 3174.5,-118"/>
<text text-anchor="middle" x="3251.5" y="-125" font-family="Helvetica,sans-Serif" font-size="10.00" fill="#000000">src/services/GameClock.cxx</text>
</a>
</g>
</g>
<!-- Node2&#45;&gt;Node27 -->
<g id="edge31" class="edge">
<title>Node2&#45;&gt;Node27</title>
<path fill="none" stroke="#191970" d="M2410.8039,-187.9317C2543.2109,-184.9839 2880.4894,-174.727 3160.5,-143 3173.8764,-141.4844 3188.2721,-139.2946 3201.5781,-137.0362"/>
<polygon fill="#191970" stroke="#191970" points="2410.4243,-184.4391 2400.5026,-188.1554 2410.5763,-191.4374 2410.4243,-184.4391"/>
</g>
<!-- Node28 -->
<g id="node28" class="node">
<title>Node28</title>
<g id="a_node28"><a xlink:href="ResourceManager_8cxx.html" target="_top" xlink:title="src/services/ResourceManager.cxx">
<polygon fill="none" stroke="#000000" points="3347,-118 3347,-137 3530,-137 3530,-118 3347,-118"/>
<text text-anchor="middle" x="3438.5" y="-125" font-family="Helvetica,sans-Serif" font-size="10.00" fill="#000000">src/services/ResourceManager.cxx</text>
</a>
</g>
</g>
<!-- Node2&#45;&gt;Node28 -->
<g id="edge32" class="edge">
<title>Node2&#45;&gt;Node28</title>
<path fill="none" stroke="#191970" d="M2410.7527,-188.4334C2562.3291,-186.4772 2986.4976,-178.0389 3337.5,-143 3352.5044,-141.5022 3368.6797,-139.2902 3383.5941,-137.0035"/>
<polygon fill="#191970" stroke="#191970" points="2410.6959,-184.9338 2400.7403,-188.5583 2410.7832,-191.9332 2410.6959,-184.9338"/>
</g>
<!-- Node29 -->
<g id="node29" class="node">
<title>Node29</title>
<g id="a_node29"><a xlink:href="android_2Filesystem_8cxx.html" target="_top" xlink:title="src/util/android/Filesystem.cxx">
<polygon fill="none" stroke="#000000" points="3548,-118 3548,-137 3713,-137 3713,-118 3548,-118"/>
<text text-anchor="middle" x="3630.5" y="-125" font-family="Helvetica,sans-Serif" font-size="10.00" fill="#000000">src/util/android/Filesystem.cxx</text>
</a>
</g>
</g>
<!-- Node2&#45;&gt;Node29 -->
<g id="edge33" class="edge">
<title>Node2&#45;&gt;Node29</title>
<path fill="none" stroke="#191970" d="M2410.8695,-187.7643C2616.5638,-183.1792 3316.649,-166.2015 3539.5,-143 3553.2084,-141.5728 3567.9762,-139.3552 3581.5445,-137.0394"/>
<polygon fill="#191970" stroke="#191970" points="2410.5137,-184.2712 2400.5938,-187.9922 2410.669,-191.2695 2410.5137,-184.2712"/>
</g>
<!-- Node30 -->
<g id="node30" class="node">
<title>Node30</title>
<g id="a_node30"><a xlink:href="desktop_2Filesystem_8cxx.html" target="_top" xlink:title="src/util/desktop/Filesystem.cxx">
<polygon fill="none" stroke="#000000" points="3731,-118 3731,-137 3898,-137 3898,-118 3731,-118"/>
<text text-anchor="middle" x="3814.5" y="-125" font-family="Helvetica,sans-Serif" font-size="10.00" fill="#000000">src/util/desktop/Filesystem.cxx</text>
</a>
</g>
</g>
<!-- Node2&#45;&gt;Node30 -->
<g id="edge34" class="edge">
<title>Node2&#45;&gt;Node30</title>
<path fill="none" stroke="#191970" d="M2410.8801,-188.0929C2636.3537,-184.3703 3461.9245,-169.2105 3722.5,-143 3736.5209,-141.5897 3751.6374,-139.3478 3765.4855,-137.0024"/>
<polygon fill="#191970" stroke="#191970" points="2410.5427,-184.5979 2400.6015,-188.2616 2410.6576,-191.597 2410.5427,-184.5979"/>
</g>
<!-- Node31 -->
<g id="node31" class="node">
<title>Node31</title>
<g id="a_node31"><a xlink:href="Exception_8cxx.html" target="_top" xlink:title="src/util/Exception.cxx">
<polygon fill="none" stroke="#000000" points="3916,-118 3916,-137 4037,-137 4037,-118 3916,-118"/>
<text text-anchor="middle" x="3976.5" y="-125" font-family="Helvetica,sans-Serif" font-size="10.00" fill="#000000">src/util/Exception.cxx</text>
</a>
</g>
</g>
<!-- Node2&#45;&gt;Node31 -->
<g id="edge35" class="edge">
<title>Node2&#45;&gt;Node31</title>
<path fill="none" stroke="#191970" d="M2410.8876,-188.7714C2655.1709,-187.5718 3609.5073,-180.5294 3907.5,-143 3918.2197,-141.65 3929.7229,-139.3965 3940.2043,-137.0203"/>
<polygon fill="#191970" stroke="#191970" points="2410.7879,-185.2717 2400.8048,-188.8196 2410.8214,-192.2717 2410.7879,-185.2717"/>
</g>
<!-- Node32 -->
<g id="node32" class="node">
<title>Node32</title>
<g id="a_node32"><a xlink:href="LOG_8cxx.html" target="_top" xlink:title="src/util/LOG.cxx">
<polygon fill="none" stroke="#000000" points="4055,-118 4055,-137 4148,-137 4148,-118 4055,-118"/>
<text text-anchor="middle" x="4101.5" y="-125" font-family="Helvetica,sans-Serif" font-size="10.00" fill="#000000">src/util/LOG.cxx</text>
</a>
</g>
</g>
<!-- Node2&#45;&gt;Node32 -->
<g id="edge36" class="edge">
<title>Node2&#45;&gt;Node32</title>
<path fill="none" stroke="#191970" d="M2411.1467,-188.2805C2688.8771,-184.7003 3882.2827,-167.9751 4046.5,-143 4055.1308,-141.6874 4064.327,-139.4456 4072.68,-137.0687"/>
<polygon fill="#191970" stroke="#191970" points="2410.8457,-184.784 2400.8914,-188.4121 2410.9356,-191.7834 2410.8457,-184.784"/>
</g>
<!-- Node33 -->
<g id="node33" class="node">
<title>Node33</title>
<g id="a_node33"><a xlink:href="macOS_2Filesystem_8cxx.html" target="_top" xlink:title="src/util/macOS/Filesystem.cxx">
<polygon fill="none" stroke="#000000" points="4166,-118 4166,-137 4329,-137 4329,-118 4166,-118"/>
<text text-anchor="middle" x="4247.5" y="-125" font-family="Helvetica,sans-Serif" font-size="10.00" fill="#000000">src/util/macOS/Filesystem.cxx</text>
</a>
</g>
</g>
<!-- Node2&#45;&gt;Node33 -->
<g id="edge37" class="edge">
<title>Node2&#45;&gt;Node33</title>
<path fill="none" stroke="#191970" d="M2411.0436,-188.657C2679.0604,-186.8872 3806.7427,-177.4922 4157.5,-143 4171.3855,-141.6346 4186.3594,-139.3763 4200.0328,-137.0004"/>
<polygon fill="#191970" stroke="#191970" points="2410.7429,-185.1588 2400.7659,-188.7239 2410.7885,-192.1587 2410.7429,-185.1588"/>
</g>
<!-- Node3&#45;&gt;Node4 -->
<g id="edge3" class="edge">
<title>Node3&#45;&gt;Node4</title>
<path fill="none" stroke="#191970" d="M110.1383,-110.7253C121.2696,-99.5028 135.5297,-85.1258 144.8344,-75.7449"/>
<polygon fill="#191970" stroke="#191970" points="107.5885,-108.326 103.0313,-117.8906 112.5584,-113.2555 107.5885,-108.326"/>
</g>
<!-- Node21&#45;&gt;Node22 -->
<g id="edge22" class="edge">
<title>Node21&#45;&gt;Node22</title>
<path fill="none" stroke="#191970" d="M3033.4894,-113.6895C3059.5622,-102.0701 3096.1602,-85.7601 3119.0889,-75.5419"/>
<polygon fill="#191970" stroke="#191970" points="3031.7718,-110.6231 3024.0625,-117.8906 3034.6213,-117.0169 3031.7718,-110.6231"/>
</g>
<!-- Node21&#45;&gt;Node25 -->
<g id="edge25" class="edge">
<title>Node21&#45;&gt;Node25</title>
<path fill="none" stroke="#191970" d="M2966.0035,-114.4504C2933.3968,-102.7916 2886.3935,-85.9852 2857.1863,-75.5419"/>
<polygon fill="#191970" stroke="#191970" points="2965.0304,-117.8194 2975.625,-117.8906 2967.3872,-111.2281 2965.0304,-117.8194"/>
</g>
<!-- Node26 -->
<g id="node26" class="node">
<title>Node26</title>
<g id="a_node26"><a xlink:href="Randomizer_8cxx.html" target="_top" xlink:title="src/services/Randomizer.cxx">
<polygon fill="none" stroke="#000000" points="2925,-56.5 2925,-75.5 3080,-75.5 3080,-56.5 2925,-56.5"/>
<text text-anchor="middle" x="3002.5" y="-63.5" font-family="Helvetica,sans-Serif" font-size="10.00" fill="#000000">src/services/Randomizer.cxx</text>
</a>
</g>
</g>
<!-- Node21&#45;&gt;Node26 -->
<g id="edge26" class="edge">
<title>Node21&#45;&gt;Node26</title>
<path fill="none" stroke="#191970" d="M3002.5,-107.7462C3002.5,-97.0519 3002.5,-84.314 3002.5,-75.7449"/>
<polygon fill="#191970" stroke="#191970" points="2999.0001,-107.8906 3002.5,-117.8906 3006.0001,-107.8907 2999.0001,-107.8906"/>
</g>
<!-- Node22&#45;&gt;Node23 -->
<g id="edge23" class="edge">
<title>Node22&#45;&gt;Node23</title>
<path fill="none" stroke="#191970" d="M3092.8137,-53.9166C3052.164,-43.6162 2994.5333,-29.013 2957.0845,-19.5237"/>
<polygon fill="#191970" stroke="#191970" points="3092.2065,-57.3733 3102.7599,-56.4369 3093.9259,-50.5877 3092.2065,-57.3733"/>
</g>
<!-- Node22&#45;&gt;Node24 -->
<g id="edge24" class="edge">
<title>Node22&#45;&gt;Node24</title>
<path fill="none" stroke="#191970" d="M3151.9815,-47.6296C3157.8196,-38.2887 3164.6752,-27.3197 3169.4733,-19.6427"/>
<polygon fill="#191970" stroke="#191970" points="3148.9286,-45.9105 3146.5965,-56.2455 3154.8646,-49.6206 3148.9286,-45.9105"/>
</g>
</g>
</svg>
        <g id="navigator" transform="translate(0 0)" fill="#404254">
                <rect fill="#f2f5e9" fill-opacity="0.5" stroke="#606060" stroke-width=".5" x="0" y="0" width="60" height="60"/>
                <use id="zoomplus" xlink:href="#zoomPlus" x="17" y="9" onmousedown="handleZoom(evt,'in')"/>
                <use id="zoomminus" xlink:href="#zoomMin" x="42" y="9" onmousedown="handleZoom(evt,'out')"/>
                <use id="reset" xlink:href="#resetDef" x="30" y="36" onmousedown="handleReset()"/>
                <g id="arrowUp" xlink:href="#dirArrow" transform="translate(30 24)" onmousedown="handlePan(0,-1)">
                  <use xlink:href="#rim" fill="#404040">
                        <set attributeName="fill" to="#808080" begin="arrowUp.mouseover" end="arrowUp.mouseout"/>
                  </use>
                  <path fill="none" stroke="white" stroke-width="1.5" d="M0,-3.0v7 M-2.5,-0.5L0,-3.0L2.5,-0.5"/>
                </g>
                <g id="arrowRight" xlink:href="#dirArrow" transform="rotate(90) translate(36 -43)" onmousedown="handlePan(1,0)">
                  <use xlink:href="#rim" fill="#404040">
                        <set attributeName="fill" to="#808080" begin="arrowRight.mouseover" end="arrowRight.mouseout"/>
                  </use>
                  <path fill="none" stroke="white" stroke-width="1.5" d="M0,-3.0v7 M-2.5,-0.5L0,-3.0L2.5,-0.5"/>
                </g>
                <g id="arrowDown" xlink:href="#dirArrow" transform="rotate(180) translate(-30 -48)" onmousedown="handlePan(0,1)">
                  <use xlink:href="#rim" fill="#404040">
                        <set attributeName="fill" to="#808080" begin="arrowDown.mouseover" end="arrowDown.mouseout"/>
                  </use>
                  <path fill="none" stroke="white" stroke-width="1.5" d="M0,-3.0v7 M-2.5,-0.5L0,-3.0L2.5,-0.5"/>
                </g>
                <g id="arrowLeft" xlink:href="#dirArrow" transform="rotate(270) translate(-36 17)" onmousedown="handlePan(-1,0)">
                  <use xlink:href="#rim" fill="#404040">
                        <set attributeName="fill" to="#808080" begin="arrowLeft.mouseover" end="arrowLeft.mouseout"/>
                  </use>
                  <path fill="none" stroke="white" stroke-width="1.5" d="M0,-3.0v7 M-2.5,-0.5L0,-3.0L2.5,-0.5"/>
                </g>
        </g>
        <svg viewBox="0 0 15 15" width="100%" height="30px" preserveAspectRatio="xMaxYMin meet">
         <g id="arrow_out" transform="scale(0.3 0.3)">
          <a xlink:href="LOG_8inl_8hxx__dep__incl_org.svg" target="_base">
           <rect id="button" ry="5" rx="5" y="6" x="6" height="38" width="38"
                fill="#f2f5e9" fill-opacity="0.5" stroke="#606060" stroke-width="1.0"/>
           <path id="arrow"
             d="M 11.500037,31.436501 C 11.940474,20.09759 22.043105,11.32322 32.158766,21.979434 L 37.068811,17.246167 C 37.068811,17.246167 37.088388,32 37.088388,32 L 22.160133,31.978069 C 22.160133,31.978069 26.997745,27.140456 26.997745,27.140456 C 18.528582,18.264221 13.291696,25.230495 11.500037,31.436501 z"
             style="fill:#404040;"/>
          </a>
         </g>
        </svg>
</svg>
