<?xml version="1.0" encoding="UTF-8" standalone="no"?>
<!DOCTYPE svg PUBLIC "-//W3C//DTD SVG 1.1//EN"
 "http://www.w3.org/Graphics/SVG/1.1/DTD/svg11.dtd">
<!-- Generated by graphviz version 2.40.1 (20161225.0304)
 -->
<!-- Title: src/util/LOG.cxx Pages: 1 -->
<svg width="1022pt" height="196pt"
 viewBox="0.00 0.00 1022.00 196.00" xmlns="http://www.w3.org/2000/svg" xmlns:xlink="http://www.w3.org/1999/xlink">
<g id="graph0" class="graph" transform="scale(1 1) rotate(0) translate(4 192)">
<title>src/util/LOG.cxx</title>
<!-- Node0 -->
<g id="node1" class="node">
<title>Node0</title>
<polygon fill="#bfbfbf" stroke="#000000" points="617,-168.5 617,-187.5 710,-187.5 710,-168.5 617,-168.5"/>
<text text-anchor="middle" x="663.5" y="-175.5" font-family="Helvetica,sans-Serif" font-size="10.00" fill="#000000">src/util/LOG.cxx</text>
</g>
<!-- Node1 -->
<g id="node2" class="node">
<title>Node1</title>
<g id="a_node2"><a xlink:href="LOG_8hxx.html" target="_top" xlink:title="LOG.hxx">
<polygon fill="none" stroke="#000000" points="443.5,-112.5 443.5,-131.5 501.5,-131.5 501.5,-112.5 443.5,-112.5"/>
<text text-anchor="middle" x="472.5" y="-119.5" font-family="Helvetica,sans-Serif" font-size="10.00" fill="#000000">LOG.hxx</text>
</a>
</g>
</g>
<!-- Node0&#45;&gt;Node1 -->
<g id="edge1" class="edge">
<title>Node0&#45;&gt;Node1</title>
<path fill="none" stroke="#191970" d="M630.6659,-168.3733C597.6598,-158.6961 546.7735,-143.7765 511.6777,-133.4867"/>
<polygon fill="#191970" stroke="#191970" points="512.3593,-130.0392 501.7785,-130.5843 510.3898,-136.7565 512.3593,-130.0392"/>
</g>
<!-- Node19 -->
<g id="node20" class="node">
<title>Node19</title>
<g id="a_node20"><a xlink:href="Filesystem_8hxx.html" target="_top" xlink:title="Filesystem.hxx">
<polygon fill="none" stroke="#000000" points="842.5,-112.5 842.5,-131.5 932.5,-131.5 932.5,-112.5 842.5,-112.5"/>
<text text-anchor="middle" x="887.5" y="-119.5" font-family="Helvetica,sans-Serif" font-size="10.00" fill="#000000">Filesystem.hxx</text>
</a>
</g>
</g>
<!-- Node0&#45;&gt;Node19 -->
<g id="edge20" class="edge">
<title>Node0&#45;&gt;Node19</title>
<path fill="none" stroke="#191970" d="M701.7525,-168.4369C739.8467,-158.9133 798.4313,-144.2672 839.5987,-133.9753"/>
<polygon fill="#191970" stroke="#191970" points="840.5528,-137.3446 849.4053,-131.5237 838.855,-130.5536 840.5528,-137.3446"/>
</g>
<!-- Node2 -->
<g id="node3" class="node">
<title>Node2</title>
<polygon fill="none" stroke="#bfbfbf" points="832.5,-56.5 832.5,-75.5 876.5,-75.5 876.5,-56.5 832.5,-56.5"/>
<text text-anchor="middle" x="854.5" y="-63.5" font-family="Helvetica,sans-Serif" font-size="10.00" fill="#000000">string</text>
</g>
<!-- Node1&#45;&gt;Node2 -->
<g id="edge2" class="edge">
<title>Node1&#45;&gt;Node2</title>
<path fill="none" stroke="#191970" d="M501.9376,-119.9588C561.0596,-115.473 698.4754,-103.1018 822.2583,-75.9403"/>
<polygon fill="#191970" stroke="#191970" points="823.2866,-79.2969 832.283,-73.7009 821.7605,-72.4653 823.2866,-79.2969"/>
</g>
<!-- Node3 -->
<g id="node4" class="node">
<title>Node3</title>
<g id="a_node4"><a xlink:href="Exception_8hxx.html" target="_top" xlink:title="Exception.hxx">
<polygon fill="none" stroke="#000000" points="30.5,-56.5 30.5,-75.5 116.5,-75.5 116.5,-56.5 30.5,-56.5"/>
<text text-anchor="middle" x="73.5" y="-63.5" font-family="Helvetica,sans-Serif" font-size="10.00" fill="#000000">Exception.hxx</text>
</a>
</g>
</g>
<!-- Node1&#45;&gt;Node3 -->
<g id="edge3" class="edge">
<title>Node1&#45;&gt;Node3</title>
<path fill="none" stroke="#191970" d="M443.1643,-118.4555C383.9514,-111.2126 245.9469,-93.8836 130.5,-76 129.2434,-75.8053 127.9718,-75.6055 126.6896,-75.4014"/>
<polygon fill="#191970" stroke="#191970" points="127.164,-71.9326 116.7299,-73.7711 126.0332,-78.8407 127.164,-71.9326"/>
</g>
<!-- Node6 -->
<g id="node7" class="node">
<title>Node6</title>
<polygon fill="none" stroke="#bfbfbf" points="333.5,-.5 333.5,-19.5 393.5,-19.5 393.5,-.5 333.5,-.5"/>
<text text-anchor="middle" x="363.5" y="-7.5" font-family="Helvetica,sans-Serif" font-size="10.00" fill="#000000">iostream</text>
</g>
<!-- Node1&#45;&gt;Node6 -->
<g id="edge6" class="edge">
<title>Node1&#45;&gt;Node6</title>
<path fill="none" stroke="#191970" d="M443.295,-119.7998C369.7926,-113.9677 181.6947,-97.1038 163.5,-76 157.6958,-69.2677 157.9637,-62.9542 163.5,-56 183.1078,-31.3705 270.9497,-18.8247 323.477,-13.4163"/>
<polygon fill="#191970" stroke="#191970" points="323.8734,-16.8942 333.481,-12.4283 323.1854,-9.9281 323.8734,-16.8942"/>
</g>
<!-- Node7 -->
<g id="node8" class="node">
<title>Node7</title>
<polygon fill="none" stroke="#bfbfbf" points="172.5,-56.5 172.5,-75.5 222.5,-75.5 222.5,-56.5 172.5,-56.5"/>
<text text-anchor="middle" x="197.5" y="-63.5" font-family="Helvetica,sans-Serif" font-size="10.00" fill="#000000">chrono</text>
</g>
<!-- Node1&#45;&gt;Node7 -->
<g id="edge7" class="edge">
<title>Node1&#45;&gt;Node7</title>
<path fill="none" stroke="#191970" d="M443.3684,-117.3825C399.6388,-110.2479 314.2741,-95.5352 232.6143,-76.0959"/>
<polygon fill="#191970" stroke="#191970" points="233.2189,-72.6415 222.6773,-73.702 231.5794,-79.4468 233.2189,-72.6415"/>
</g>
<!-- Node8 -->
<g id="node9" class="node">
<title>Node8</title>
<polygon fill="none" stroke="#bfbfbf" points="240.5,-56.5 240.5,-75.5 284.5,-75.5 284.5,-56.5 240.5,-56.5"/>
<text text-anchor="middle" x="262.5" y="-63.5" font-family="Helvetica,sans-Serif" font-size="10.00" fill="#000000">ctime</text>
</g>
<!-- Node1&#45;&gt;Node8 -->
<g id="edge8" class="edge">
<title>Node1&#45;&gt;Node8</title>
<path fill="none" stroke="#191970" d="M443.2088,-115.0494C409.514,-106.9282 352.3342,-92.7639 294.4681,-76.1661"/>
<polygon fill="#191970" stroke="#191970" points="295.3801,-72.7864 284.8014,-73.372 293.4363,-79.5112 295.3801,-72.7864"/>
</g>
<!-- Node9 -->
<g id="node10" class="node">
<title>Node9</title>
<polygon fill="none" stroke="#bfbfbf" points="303,-56.5 303,-75.5 358,-75.5 358,-56.5 303,-56.5"/>
<text text-anchor="middle" x="330.5" y="-63.5" font-family="Helvetica,sans-Serif" font-size="10.00" fill="#000000">fstream</text>
</g>
<!-- Node1&#45;&gt;Node9 -->
<g id="edge9" class="edge">
<title>Node1&#45;&gt;Node9</title>
<path fill="none" stroke="#191970" d="M448.0893,-112.3733C424.8858,-103.2226 389.7962,-89.3844 363.9858,-79.2057"/>
<polygon fill="#191970" stroke="#191970" points="365.1789,-75.9139 354.5921,-75.5011 362.6108,-82.4258 365.1789,-75.9139"/>
</g>
<!-- Node10 -->
<g id="node11" class="node">
<title>Node10</title>
<polygon fill="none" stroke="#bfbfbf" points="376.5,-56.5 376.5,-75.5 432.5,-75.5 432.5,-56.5 376.5,-56.5"/>
<text text-anchor="middle" x="404.5" y="-63.5" font-family="Helvetica,sans-Serif" font-size="10.00" fill="#000000">sstream</text>
</g>
<!-- Node1&#45;&gt;Node10 -->
<g id="edge10" class="edge">
<title>Node1&#45;&gt;Node10</title>
<path fill="none" stroke="#191970" d="M460.6553,-112.2455C450.612,-103.9746 436.0005,-91.9416 424.1996,-82.2232"/>
<polygon fill="#191970" stroke="#191970" points="426.1533,-79.298 416.209,-75.6427 421.7033,-84.7015 426.1533,-79.298"/>
</g>
<!-- Node11 -->
<g id="node12" class="node">
<title>Node11</title>
<polygon fill="none" stroke="#bfbfbf" points="450.5,-56.5 450.5,-75.5 494.5,-75.5 494.5,-56.5 450.5,-56.5"/>
<text text-anchor="middle" x="472.5" y="-63.5" font-family="Helvetica,sans-Serif" font-size="10.00" fill="#000000">SDL.h</text>
</g>
<!-- Node1&#45;&gt;Node11 -->
<g id="edge11" class="edge">
<title>Node1&#45;&gt;Node11</title>
<path fill="none" stroke="#191970" d="M472.5,-112.2455C472.5,-104.9382 472.5,-94.6944 472.5,-85.7046"/>
<polygon fill="#191970" stroke="#191970" points="476.0001,-85.6426 472.5,-75.6427 469.0001,-85.6427 476.0001,-85.6426"/>
</g>
<!-- Node12 -->
<g id="node13" class="node">
<title>Node12</title>
<polygon fill="none" stroke="#bfbfbf" points="512.5,-56.5 512.5,-75.5 576.5,-75.5 576.5,-56.5 512.5,-56.5"/>
<text text-anchor="middle" x="544.5" y="-63.5" font-family="Helvetica,sans-Serif" font-size="10.00" fill="#000000">algorithm</text>
</g>
<!-- Node1&#45;&gt;Node12 -->
<g id="edge12" class="edge">
<title>Node1&#45;&gt;Node12</title>
<path fill="none" stroke="#191970" d="M485.0414,-112.2455C495.7787,-103.8943 511.4473,-91.7076 524.0047,-81.9408"/>
<polygon fill="#191970" stroke="#191970" points="526.3575,-84.5449 532.1023,-75.6427 522.0599,-79.0194 526.3575,-84.5449"/>
</g>
<!-- Node13 -->
<g id="node14" class="node">
<title>Node13</title>
<polygon fill="none" stroke="#bfbfbf" points="594.5,-56.5 594.5,-75.5 642.5,-75.5 642.5,-56.5 594.5,-56.5"/>
<text text-anchor="middle" x="618.5" y="-63.5" font-family="Helvetica,sans-Serif" font-size="10.00" fill="#000000">mutex</text>
</g>
<!-- Node1&#45;&gt;Node13 -->
<g id="edge13" class="edge">
<title>Node1&#45;&gt;Node13</title>
<path fill="none" stroke="#191970" d="M497.5983,-112.3733C521.6001,-103.1671 557.9713,-89.2165 584.5524,-79.021"/>
<polygon fill="#191970" stroke="#191970" points="586.131,-82.1642 594.2144,-75.315 583.6242,-75.6285 586.131,-82.1642"/>
</g>
<!-- Node14 -->
<g id="node15" class="node">
<title>Node14</title>
<g id="a_node15"><a xlink:href="Meta_8hxx.html" target="_top" xlink:title="Meta.hxx">
<polygon fill="none" stroke="#000000" points="660.5,-56.5 660.5,-75.5 722.5,-75.5 722.5,-56.5 660.5,-56.5"/>
<text text-anchor="middle" x="691.5" y="-63.5" font-family="Helvetica,sans-Serif" font-size="10.00" fill="#000000">Meta.hxx</text>
</a>
</g>
</g>
<!-- Node1&#45;&gt;Node14 -->
<g id="edge14" class="edge">
<title>Node1&#45;&gt;Node14</title>
<path fill="none" stroke="#191970" d="M501.5815,-114.5636C539.7132,-104.8131 606.8421,-87.6477 650.2233,-76.5548"/>
<polygon fill="#191970" stroke="#191970" points="651.3506,-79.8792 660.1718,-74.0109 649.6164,-73.0974 651.3506,-79.8792"/>
</g>
<!-- Node18 -->
<g id="node19" class="node">
<title>Node18</title>
<g id="a_node19"><a xlink:href="LOG_8inl_8hxx.html" target="_top" xlink:title="LOG.inl.hxx">
<polygon fill="none" stroke="#000000" points="741,-56.5 741,-75.5 814,-75.5 814,-56.5 741,-56.5"/>
<text text-anchor="middle" x="777.5" y="-63.5" font-family="Helvetica,sans-Serif" font-size="10.00" fill="#000000">LOG.inl.hxx</text>
</a>
</g>
</g>
<!-- Node1&#45;&gt;Node18 -->
<g id="edge19" class="edge">
<title>Node1&#45;&gt;Node18</title>
<path fill="none" stroke="#191970" d="M501.6993,-117.1888C547.9978,-109.4791 641.325,-93.6095 730.8218,-76.0745"/>
<polygon fill="#191970" stroke="#191970" points="731.7329,-79.4624 740.868,-74.0958 730.3801,-72.5944 731.7329,-79.4624"/>
</g>
<!-- Node4 -->
<g id="node5" class="node">
<title>Node4</title>
<polygon fill="none" stroke="#bfbfbf" points="0,-.5 0,-19.5 65,-19.5 65,-.5 0,-.5"/>
<text text-anchor="middle" x="32.5" y="-7.5" font-family="Helvetica,sans-Serif" font-size="10.00" fill="#000000">stdexcept</text>
</g>
<!-- Node3&#45;&gt;Node4 -->
<g id="edge4" class="edge">
<title>Node3&#45;&gt;Node4</title>
<path fill="none" stroke="#191970" d="M66.3583,-56.2455C60.6556,-48.4564 52.51,-37.3308 45.6375,-27.9439"/>
<polygon fill="#191970" stroke="#191970" points="48.2913,-25.6437 39.5598,-19.6427 42.6432,-29.7789 48.2913,-25.6437"/>
</g>
<!-- Node5 -->
<g id="node6" class="node">
<title>Node5</title>
<polygon fill="none" stroke="#bfbfbf" points="83,-.5 83,-19.5 148,-19.5 148,-.5 83,-.5"/>
<text text-anchor="middle" x="115.5" y="-7.5" font-family="Helvetica,sans-Serif" font-size="10.00" fill="#000000">exception</text>
</g>
<!-- Node3&#45;&gt;Node5 -->
<g id="edge5" class="edge">
<title>Node3&#45;&gt;Node5</title>
<path fill="none" stroke="#191970" d="M80.8158,-56.2455C86.7179,-48.3761 95.1742,-37.101 102.2594,-27.6542"/>
<polygon fill="#191970" stroke="#191970" points="105.068,-29.7427 108.268,-19.6427 99.4679,-25.5427 105.068,-29.7427"/>
</g>
<!-- Node14&#45;&gt;Node6 -->
<g id="edge15" class="edge">
<title>Node14&#45;&gt;Node6</title>
<path fill="none" stroke="#191970" d="M660.1158,-57.8811C657.2104,-57.212 654.3052,-56.5736 651.5,-56 563.6517,-38.0384 459.5292,-22.915 403.6843,-15.298"/>
<polygon fill="#191970" stroke="#191970" points="403.8849,-11.7933 393.5057,-13.92 402.9457,-18.73 403.8849,-11.7933"/>
</g>
<!-- Node15 -->
<g id="node16" class="node">
<title>Node15</title>
<polygon fill="none" stroke="#bfbfbf" points="579,-.5 579,-19.5 648,-19.5 648,-.5 579,-.5"/>
<text text-anchor="middle" x="613.5" y="-7.5" font-family="Helvetica,sans-Serif" font-size="10.00" fill="#000000">type_traits</text>
</g>
<!-- Node14&#45;&gt;Node15 -->
<g id="edge16" class="edge">
<title>Node14&#45;&gt;Node15</title>
<path fill="none" stroke="#191970" d="M677.9134,-56.2455C666.1695,-47.814 648.9801,-35.4729 635.3118,-25.6598"/>
<polygon fill="#191970" stroke="#191970" points="637.0954,-22.6316 626.9309,-19.6427 633.0129,-28.3179 637.0954,-22.6316"/>
</g>
<!-- Node16 -->
<g id="node17" class="node">
<title>Node16</title>
<polygon fill="none" stroke="#bfbfbf" points="666,-.5 666,-19.5 717,-19.5 717,-.5 666,-.5"/>
<text text-anchor="middle" x="691.5" y="-7.5" font-family="Helvetica,sans-Serif" font-size="10.00" fill="#000000">variant</text>
</g>
<!-- Node14&#45;&gt;Node16 -->
<g id="edge17" class="edge">
<title>Node14&#45;&gt;Node16</title>
<path fill="none" stroke="#191970" d="M691.5,-56.2455C691.5,-48.9382 691.5,-38.6944 691.5,-29.7046"/>
<polygon fill="#191970" stroke="#191970" points="695.0001,-29.6426 691.5,-19.6427 688.0001,-29.6427 695.0001,-29.6426"/>
</g>
<!-- Node17 -->
<g id="node18" class="node">
<title>Node17</title>
<polygon fill="none" stroke="#bfbfbf" points="735,-.5 735,-19.5 776,-19.5 776,-.5 735,-.5"/>
<text text-anchor="middle" x="755.5" y="-7.5" font-family="Helvetica,sans-Serif" font-size="10.00" fill="#000000">tuple</text>
</g>
<!-- Node14&#45;&gt;Node17 -->
<g id="edge18" class="edge">
<title>Node14&#45;&gt;Node17</title>
<path fill="none" stroke="#191970" d="M702.6479,-56.2455C712.0087,-48.0549 725.5858,-36.1749 736.6349,-26.5069"/>
<polygon fill="#191970" stroke="#191970" points="739.2588,-28.8618 744.4798,-19.6427 734.6492,-23.5937 739.2588,-28.8618"/>
</g>
<!-- Node19&#45;&gt;Node2 -->
<g id="edge22" class="edge">
<title>Node19&#45;&gt;Node2</title>
<path fill="none" stroke="#191970" d="M881.7518,-112.2455C877.2565,-104.617 870.8752,-93.7881 865.4175,-84.5267"/>
<polygon fill="#191970" stroke="#191970" points="868.2747,-82.4811 860.1823,-75.6427 862.2439,-86.035 868.2747,-82.4811"/>
</g>
<!-- Node20 -->
<g id="node21" class="node">
<title>Node20</title>
<polygon fill="none" stroke="#bfbfbf" points="894.5,-56.5 894.5,-75.5 948.5,-75.5 948.5,-56.5 894.5,-56.5"/>
<text text-anchor="middle" x="921.5" y="-63.5" font-family="Helvetica,sans-Serif" font-size="10.00" fill="#000000">ciso646</text>
</g>
<!-- Node19&#45;&gt;Node20 -->
<g id="edge21" class="edge">
<title>Node19&#45;&gt;Node20</title>
<path fill="none" stroke="#191970" d="M893.4223,-112.2455C898.1027,-104.5367 904.7673,-93.5598 910.4289,-84.2348"/>
<polygon fill="#191970" stroke="#191970" points="913.4475,-86.007 915.6455,-75.6427 907.4639,-82.3741 913.4475,-86.007"/>
</g>
<!-- Node21 -->
<g id="node22" class="node">
<title>Node21</title>
<polygon fill="none" stroke="#bfbfbf" points="967,-56.5 967,-75.5 1014,-75.5 1014,-56.5 967,-56.5"/>
<text text-anchor="middle" x="990.5" y="-63.5" font-family="Helvetica,sans-Serif" font-size="10.00" fill="#000000">vector</text>
</g>
<!-- Node19&#45;&gt;Node21 -->
<g id="edge23" class="edge">
<title>Node19&#45;&gt;Node21</title>
<path fill="none" stroke="#191970" d="M905.4412,-112.2455C921.54,-103.4928 945.3879,-90.527 963.7391,-80.5496"/>
<polygon fill="#191970" stroke="#191970" points="965.6507,-83.4942 972.7644,-75.6427 962.3071,-77.3444 965.6507,-83.4942"/>
</g>
</g>
</svg>
