<?xml version="1.0" encoding="UTF-8" standalone="no"?>
<!DOCTYPE svg PUBLIC "-//W3C//DTD SVG 1.1//EN"
 "http://www.w3.org/Graphics/SVG/1.1/DTD/svg11.dtd">
<!-- Generated by graphviz version 2.40.1 (20161225.0304)
 -->
<!-- Title: src/main.cxx Pages: 1 -->
<!--zoomable 364 -->
<svg id="main" version="1.1" xmlns="http://www.w3.org/2000/svg" xmlns:xlink="http://www.w3.org/1999/xlink" xml:space="preserve" onload="init(evt)">
<style type="text/css"><![CDATA[
.edge:hover path { stroke: red; }
.edge:hover polygon { stroke: red; fill: red; }
]]></style>
<script type="text/javascript"><![CDATA[
var edges = document.getElementsByTagName('g');
if (edges && edges.length) {
  for (var i=0;i<edges.length;i++) {
    if (edges[i].id.substr(0,4)=='edge') {
      edges[i].setAttribute('class','edge');
    }
  }
}
]]></script>
        <defs>
                <circle id="rim" cx="0" cy="0" r="7"/>
                <circle id="rim2" cx="0" cy="0" r="3.5"/>
                <g id="zoomPlus">
                        <use xlink:href="#rim" fill="#404040">
                                <set attributeName="fill" to="#808080" begin="zoomplus.mouseover" end="zoomplus.mouseout"/>
                        </use>
                        <path d="M-4,0h8M0,-4v8" fill="none" stroke="white" stroke-width="1.5" pointer-events="none"/>
                </g>
                <g id="zoomMin">
                        <use xlink:href="#rim" fill="#404040">
                                <set attributeName="fill" to="#808080" begin="zoomminus.mouseover" end="zoomminus.mouseout"/>
                        </use>
                        <path d="M-4,0h8" fill="none" stroke="white" stroke-width="1.5" pointer-events="none"/>
                </g>
                <g id="dirArrow">
                        <path fill="none" stroke="white" stroke-width="1.5" d="M0,-3.0v7 M-2.5,-0.5L0,-3.0L2.5,-0.5"/>
                </g>
               <g id="resetDef">
                       <use xlink:href="#rim2" fill="#404040">
                               <set attributeName="fill" to="#808080" begin="reset.mouseover" end="reset.mouseout"/>
                       </use>
               </g>
        </defs>

<script type="text/javascript">
var viewWidth = 2160;
var viewHeight = 364;
var sectionId = 'dynsection-0';
</script>
<script xlink:href="svgpan.js"/>
<svg id="graph" class="graph">
<g id="viewport">
<title>src/main.cxx</title>
<!-- Node0 -->
<g id="node1" class="node">
<title>Node0</title>
<polygon fill="#bfbfbf" stroke="#000000" points="1073.5,-336.5 1073.5,-355.5 1152.5,-355.5 1152.5,-336.5 1073.5,-336.5"/>
<text text-anchor="middle" x="1113" y="-343.5" font-family="Helvetica,sans-Serif" font-size="10.00" fill="#000000">src/main.cxx</text>
</g>
<!-- Node1 -->
<g id="node2" class="node">
<title>Node1</title>
<polygon fill="none" stroke="#bfbfbf" points="392,-.5 392,-19.5 452,-19.5 452,-.5 392,-.5"/>
<text text-anchor="middle" x="422" y="-7.5" font-family="Helvetica,sans-Serif" font-size="10.00" fill="#000000">iostream</text>
</g>
<!-- Node0&#45;&gt;Node1 -->
<g id="edge1" class="edge">
<title>Node0&#45;&gt;Node1</title>
<path fill="none" stroke="#191970" d="M1073.3877,-344.1353C875.1187,-334.5471 0,-289.1057 0,-234 0,-234 0,-234 0,-122 0,-43.4951 276.277,-18.7062 381.7452,-12.1033"/>
<polygon fill="#191970" stroke="#191970" points="382.2178,-15.5812 391.9891,-11.4859 381.7966,-8.5939 382.2178,-15.5812"/>
</g>
<!-- Node2 -->
<g id="node3" class="node">
<title>Node2</title>
<g id="a_node3"><a xlink:href="Game_8hxx.html" target="_top" xlink:title="Game.hxx">
<polygon fill="none" stroke="#000000" points="1079.5,-280.5 1079.5,-299.5 1146.5,-299.5 1146.5,-280.5 1079.5,-280.5"/>
<text text-anchor="middle" x="1113" y="-287.5" font-family="Helvetica,sans-Serif" font-size="10.00" fill="#000000">Game.hxx</text>
</a>
</g>
</g>
<!-- Node0&#45;&gt;Node2 -->
<g id="edge2" class="edge">
<title>Node0&#45;&gt;Node2</title>
<path fill="none" stroke="#191970" d="M1113,-336.2455C1113,-328.9382 1113,-318.6944 1113,-309.7046"/>
<polygon fill="#191970" stroke="#191970" points="1116.5001,-309.6426 1113,-299.6427 1109.5001,-309.6427 1116.5001,-309.6426"/>
</g>
<!-- Node25 -->
<g id="node26" class="node">
<title>Node25</title>
<g id="a_node26"><a xlink:href="LOG_8hxx.html" target="_top" xlink:title="LOG.hxx">
<polygon fill="none" stroke="#000000" points="328,-168.5 328,-187.5 386,-187.5 386,-168.5 328,-168.5"/>
<text text-anchor="middle" x="357" y="-175.5" font-family="Helvetica,sans-Serif" font-size="10.00" fill="#000000">LOG.hxx</text>
</a>
</g>
</g>
<!-- Node0&#45;&gt;Node25 -->
<g id="edge64" class="edge">
<title>Node0&#45;&gt;Node25</title>
<path fill="none" stroke="#191970" d="M1073.2988,-343.0583C927.6017,-331.922 428.0435,-290.6113 375,-244 362.0608,-232.6298 358.0052,-212.9597 356.9206,-198.0433"/>
<polygon fill="#191970" stroke="#191970" points="360.4095,-197.6549 356.5723,-187.7794 353.4135,-197.8924 360.4095,-197.6549"/>
</g>
<!-- Node26 -->
<g id="node27" class="node">
<title>Node26</title>
<g id="a_node27"><a xlink:href="Exception_8hxx.html" target="_top" xlink:title="Exception.hxx">
<polygon fill="none" stroke="#000000" points="1987,-112.5 1987,-131.5 2073,-131.5 2073,-112.5 1987,-112.5"/>
<text text-anchor="middle" x="2030" y="-119.5" font-family="Helvetica,sans-Serif" font-size="10.00" fill="#000000">Exception.hxx</text>
</a>
</g>
</g>
<!-- Node0&#45;&gt;Node26 -->
<g id="edge63" class="edge">
<title>Node0&#45;&gt;Node26</title>
<path fill="none" stroke="#191970" d="M1152.7326,-340.7269C1254.5603,-327.0046 1533.0348,-288.1651 1763,-244 1873.118,-222.8517 1926.4441,-263.8799 2009,-188 2021.8395,-176.1988 2026.8712,-156.586 2028.8208,-141.8003"/>
<polygon fill="#191970" stroke="#191970" points="2032.3242,-141.9309 2029.7892,-131.6438 2025.3558,-141.2664 2032.3242,-141.9309"/>
</g>
<!-- Node44 -->
<g id="node45" class="node">
<title>Node44</title>
<polygon fill="none" stroke="#bfbfbf" points="2096.5,-280.5 2096.5,-299.5 2151.5,-299.5 2151.5,-280.5 2096.5,-280.5"/>
<text text-anchor="middle" x="2124" y="-287.5" font-family="Helvetica,sans-Serif" font-size="10.00" fill="#000000">signal.h</text>
</g>
<!-- Node0&#45;&gt;Node44 -->
<g id="edge65" class="edge">
<title>Node0&#45;&gt;Node44</title>
<path fill="none" stroke="#191970" d="M1152.588,-345.1053C1310.7934,-341.3777 1897.942,-326.0485 2082,-300 2083.2941,-299.8169 2084.6068,-299.6123 2085.9296,-299.39"/>
<polygon fill="#191970" stroke="#191970" points="2086.9791,-302.7514 2096.1246,-297.4026 2085.6397,-295.8807 2086.9791,-302.7514"/>
</g>
<!-- Node3 -->
<g id="node4" class="node">
<title>Node3</title>
<g id="a_node4"><a xlink:href="ScriptEngine_8hxx.html" target="_top" xlink:title="Scripting/ScriptEngine.hxx">
<polygon fill="none" stroke="#000000" points="941,-224.5 941,-243.5 1085,-243.5 1085,-224.5 941,-224.5"/>
<text text-anchor="middle" x="1013" y="-231.5" font-family="Helvetica,sans-Serif" font-size="10.00" fill="#000000">Scripting/ScriptEngine.hxx</text>
</a>
</g>
</g>
<!-- Node2&#45;&gt;Node3 -->
<g id="edge3" class="edge">
<title>Node2&#45;&gt;Node3</title>
<path fill="none" stroke="#191970" d="M1095.5813,-280.2455C1079.9515,-271.4928 1056.7981,-258.527 1038.9815,-248.5496"/>
<polygon fill="#191970" stroke="#191970" points="1040.6543,-245.475 1030.2191,-243.6427 1037.234,-251.5825 1040.6543,-245.475"/>
</g>
<!-- Node4 -->
<g id="node5" class="node">
<title>Node4</title>
<g id="a_node5"><a xlink:href="MessageQueue_8hxx.html" target="_top" xlink:title="engine/MessageQueue.hxx">
<polygon fill="none" stroke="#000000" points="1387,-224.5 1387,-243.5 1535,-243.5 1535,-224.5 1387,-224.5"/>
<text text-anchor="middle" x="1461" y="-231.5" font-family="Helvetica,sans-Serif" font-size="10.00" fill="#000000">engine/MessageQueue.hxx</text>
</a>
</g>
</g>
<!-- Node2&#45;&gt;Node4 -->
<g id="edge4" class="edge">
<title>Node2&#45;&gt;Node4</title>
<path fill="none" stroke="#191970" d="M1146.6839,-284.5796C1203.0518,-275.5089 1317.5926,-257.0771 1391.7327,-245.1465"/>
<polygon fill="#191970" stroke="#191970" points="1392.5989,-248.5522 1401.9157,-243.5078 1391.4867,-241.6411 1392.5989,-248.5522"/>
</g>
<!-- Node14 -->
<g id="node15" class="node">
<title>Node14</title>
<g id="a_node15"><a xlink:href="Meta_8hxx.html" target="_top" xlink:title="util/Meta.hxx">
<polygon fill="none" stroke="#000000" points="558,-56.5 558,-75.5 638,-75.5 638,-56.5 558,-56.5"/>
<text text-anchor="middle" x="598" y="-63.5" font-family="Helvetica,sans-Serif" font-size="10.00" fill="#000000">util/Meta.hxx</text>
</a>
</g>
</g>
<!-- Node2&#45;&gt;Node14 -->
<g id="edge21" class="edge">
<title>Node2&#45;&gt;Node14</title>
<path fill="none" stroke="#191970" d="M1079.2495,-289.2955C971.0459,-286.2222 636.4092,-270.1197 577,-188 554.6465,-157.1014 573.3709,-110.4222 586.9671,-84.6842"/>
<polygon fill="#191970" stroke="#191970" points="590.2021,-86.0683 592.0023,-75.6275 584.0841,-82.6668 590.2021,-86.0683"/>
</g>
<!-- Node20 -->
<g id="node21" class="node">
<title>Node20</title>
<g id="a_node21"><a xlink:href="GameService_8hxx.html" target="_top" xlink:title="GameService.hxx">
<polygon fill="none" stroke="#000000" points="930.5,-168.5 930.5,-187.5 1033.5,-187.5 1033.5,-168.5 930.5,-168.5"/>
<text text-anchor="middle" x="982" y="-175.5" font-family="Helvetica,sans-Serif" font-size="10.00" fill="#000000">GameService.hxx</text>
</a>
</g>
</g>
<!-- Node2&#45;&gt;Node20 -->
<g id="edge22" class="edge">
<title>Node2&#45;&gt;Node20</title>
<path fill="none" stroke="#191970" d="M1112.7579,-280.2292C1111.8981,-266.1196 1108.3239,-239.9835 1094,-224 1079.7136,-208.0583 1059.0702,-197.5206 1039.3882,-190.6101"/>
<polygon fill="#191970" stroke="#191970" points="1040.4276,-187.2678 1029.8354,-187.5013 1038.2614,-193.9242 1040.4276,-187.2678"/>
</g>
<!-- Node22 -->
<g id="node23" class="node">
<title>Node22</title>
<g id="a_node23"><a xlink:href="Randomizer_8hxx.html" target="_top" xlink:title="services/Randomizer.hxx">
<polygon fill="none" stroke="#000000" points="407.5,-224.5 407.5,-243.5 546.5,-243.5 546.5,-224.5 407.5,-224.5"/>
<text text-anchor="middle" x="477" y="-231.5" font-family="Helvetica,sans-Serif" font-size="10.00" fill="#000000">services/Randomizer.hxx</text>
</a>
</g>
</g>
<!-- Node2&#45;&gt;Node22 -->
<g id="edge25" class="edge">
<title>Node2&#45;&gt;Node22</title>
<path fill="none" stroke="#191970" d="M1079.3585,-287.6128C993.1192,-281.403 757.1383,-263.8411 561,-244 559.6849,-243.867 558.3585,-243.7309 557.0232,-243.5923"/>
<polygon fill="#191970" stroke="#191970" points="556.9663,-240.0663 546.651,-242.4839 556.2225,-247.0267 556.9663,-240.0663"/>
</g>
<!-- Node2&#45;&gt;Node25 -->
<g id="edge59" class="edge">
<title>Node2&#45;&gt;Node25</title>
<path fill="none" stroke="#191970" d="M1079.4717,-289.609C946.1567,-287.8162 458.0004,-278.9032 399,-244 381.5243,-233.6618 370.1361,-212.8898 363.6853,-197.3961"/>
<polygon fill="#191970" stroke="#191970" points="366.8246,-195.805 359.994,-187.706 360.2831,-198.2969 366.8246,-195.805"/>
</g>
<!-- Node2&#45;&gt;Node26 -->
<g id="edge60" class="edge">
<title>Node2&#45;&gt;Node26</title>
<path fill="none" stroke="#191970" d="M1146.5958,-287.8161C1298.0593,-277.7376 1913.1401,-234.2389 1985,-188 2002.2459,-176.903 2014.583,-156.6042 2021.9279,-141.4369"/>
<polygon fill="#191970" stroke="#191970" points="2025.2936,-142.4872 2026.2143,-131.9324 2018.9125,-139.6094 2025.2936,-142.4872"/>
</g>
<!-- Node36 -->
<g id="node37" class="node">
<title>Node36</title>
<g id="a_node37"><a xlink:href="GameClock_8hxx.html" target="_top" xlink:title="services/GameClock.hxx">
<polygon fill="none" stroke="#000000" points="1141.5,-224.5 1141.5,-243.5 1278.5,-243.5 1278.5,-224.5 1141.5,-224.5"/>
<text text-anchor="middle" x="1210" y="-231.5" font-family="Helvetica,sans-Serif" font-size="10.00" fill="#000000">services/GameClock.hxx</text>
</a>
</g>
</g>
<!-- Node2&#45;&gt;Node36 -->
<g id="edge44" class="edge">
<title>Node2&#45;&gt;Node36</title>
<path fill="none" stroke="#191970" d="M1129.8961,-280.2455C1144.918,-271.5731 1167.1043,-258.7645 1184.321,-248.825"/>
<polygon fill="#191970" stroke="#191970" points="1186.3871,-251.6737 1193.2975,-243.6427 1182.8872,-245.6114 1186.3871,-251.6737"/>
</g>
<!-- Node38 -->
<g id="node39" class="node">
<title>Node38</title>
<polygon fill="none" stroke="#bfbfbf" points="1607,-168.5 1607,-187.5 1655,-187.5 1655,-168.5 1607,-168.5"/>
<text text-anchor="middle" x="1631" y="-175.5" font-family="Helvetica,sans-Serif" font-size="10.00" fill="#000000">thread</text>
</g>
<!-- Node2&#45;&gt;Node38 -->
<g id="edge61" class="edge">
<title>Node2&#45;&gt;Node38</title>
<path fill="none" stroke="#191970" d="M1146.522,-289.664C1257.8795,-288.2041 1610.3439,-280.6978 1644,-244 1655.5443,-231.4124 1649.6555,-211.6666 1642.4846,-197.0497"/>
<polygon fill="#191970" stroke="#191970" points="1645.3632,-195.0165 1637.5137,-187.9006 1639.2124,-198.3584 1645.3632,-195.0165"/>
</g>
<!-- Node40 -->
<g id="node41" class="node">
<title>Node40</title>
<g id="a_node41"><a xlink:href="ResourceManager_8hxx.html" target="_top" xlink:title="services/ResourceManager.hxx">
<polygon fill="none" stroke="#000000" points="755.5,-224.5 755.5,-243.5 922.5,-243.5 922.5,-224.5 755.5,-224.5"/>
<text text-anchor="middle" x="839" y="-231.5" font-family="Helvetica,sans-Serif" font-size="10.00" fill="#000000">services/ResourceManager.hxx</text>
</a>
</g>
</g>
<!-- Node2&#45;&gt;Node40 -->
<g id="edge53" class="edge">
<title>Node2&#45;&gt;Node40</title>
<path fill="none" stroke="#191970" d="M1079.4022,-283.1333C1033.6624,-273.785 951.1583,-256.9229 895.7324,-245.5949"/>
<polygon fill="#191970" stroke="#191970" points="896.2116,-242.1206 885.7132,-243.5472 894.8098,-248.9788 896.2116,-242.1206"/>
</g>
<!-- Node43 -->
<g id="node44" class="node">
<title>Node43</title>
<g id="a_node44"><a xlink:href="Game_8inl_8hxx.html" target="_top" xlink:title="Game.inl.hxx">
<polygon fill="none" stroke="#000000" points="1553,-224.5 1553,-243.5 1635,-243.5 1635,-224.5 1553,-224.5"/>
<text text-anchor="middle" x="1594" y="-231.5" font-family="Helvetica,sans-Serif" font-size="10.00" fill="#000000">Game.inl.hxx</text>
</a>
</g>
</g>
<!-- Node2&#45;&gt;Node43 -->
<g id="edge62" class="edge">
<title>Node2&#45;&gt;Node43</title>
<path fill="none" stroke="#191970" d="M1146.6654,-287.4573C1217.8724,-281.8539 1389.1478,-267.1884 1542.7605,-244.0731"/>
<polygon fill="#191970" stroke="#191970" points="1543.4919,-247.5022 1552.8519,-242.5383 1542.4393,-240.5818 1543.4919,-247.5022"/>
</g>
<!-- Node5 -->
<g id="node6" class="node">
<title>Node5</title>
<polygon fill="none" stroke="#bfbfbf" points="1818.5,-168.5 1818.5,-187.5 1925.5,-187.5 1925.5,-168.5 1818.5,-168.5"/>
<text text-anchor="middle" x="1872" y="-175.5" font-family="Helvetica,sans-Serif" font-size="10.00" fill="#000000">condition_variable</text>
</g>
<!-- Node4&#45;&gt;Node5 -->
<g id="edge5" class="edge">
<title>Node4&#45;&gt;Node5</title>
<path fill="none" stroke="#191970" d="M1535.2951,-224.8385C1603.7294,-216.2552 1708.3581,-202.769 1808.2811,-188.2237"/>
<polygon fill="#191970" stroke="#191970" points="1808.8574,-191.6768 1818.2461,-186.7673 1807.8451,-184.7504 1808.8574,-191.6768"/>
</g>
<!-- Node6 -->
<g id="node7" class="node">
<title>Node6</title>
<polygon fill="none" stroke="#bfbfbf" points="1134,-112.5 1134,-131.5 1182,-131.5 1182,-112.5 1134,-112.5"/>
<text text-anchor="middle" x="1158" y="-119.5" font-family="Helvetica,sans-Serif" font-size="10.00" fill="#000000">mutex</text>
</g>
<!-- Node4&#45;&gt;Node6 -->
<g id="edge6" class="edge">
<title>Node4&#45;&gt;Node6</title>
<path fill="none" stroke="#191970" d="M1535.2,-224.9555C1538.1714,-224.6265 1541.1135,-224.3067 1544,-224 1631.2842,-214.7256 1995.5482,-231.5488 1935,-168 1879.6933,-109.9524 1309.8516,-143.8264 1192.2805,-131.4535"/>
<polygon fill="#191970" stroke="#191970" points="1192.7265,-127.982 1182.347,-130.1071 1191.7863,-134.9186 1192.7265,-127.982"/>
</g>
<!-- Node7 -->
<g id="node8" class="node">
<title>Node7</title>
<polygon fill="none" stroke="#bfbfbf" points="1404.5,-168.5 1404.5,-187.5 1451.5,-187.5 1451.5,-168.5 1404.5,-168.5"/>
<text text-anchor="middle" x="1428" y="-175.5" font-family="Helvetica,sans-Serif" font-size="10.00" fill="#000000">deque</text>
</g>
<!-- Node4&#45;&gt;Node7 -->
<g id="edge7" class="edge">
<title>Node4&#45;&gt;Node7</title>
<path fill="none" stroke="#191970" d="M1455.2518,-224.2455C1450.7565,-216.617 1444.3752,-205.7881 1438.9175,-196.5267"/>
<polygon fill="#191970" stroke="#191970" points="1441.7747,-194.4811 1433.6823,-187.6427 1435.7439,-198.035 1441.7747,-194.4811"/>
</g>
<!-- Node8 -->
<g id="node9" class="node">
<title>Node8</title>
<polygon fill="none" stroke="#bfbfbf" points="1469.5,-168.5 1469.5,-187.5 1516.5,-187.5 1516.5,-168.5 1469.5,-168.5"/>
<text text-anchor="middle" x="1493" y="-175.5" font-family="Helvetica,sans-Serif" font-size="10.00" fill="#000000">vector</text>
</g>
<!-- Node4&#45;&gt;Node8 -->
<g id="edge8" class="edge">
<title>Node4&#45;&gt;Node8</title>
<path fill="none" stroke="#191970" d="M1466.574,-224.2455C1470.9331,-216.617 1477.1211,-205.7881 1482.4133,-196.5267"/>
<polygon fill="#191970" stroke="#191970" points="1485.5673,-198.0616 1487.4899,-187.6427 1479.4896,-194.5886 1485.5673,-198.0616"/>
</g>
<!-- Node9 -->
<g id="node10" class="node">
<title>Node9</title>
<polygon fill="none" stroke="#bfbfbf" points="1321.5,-168.5 1321.5,-187.5 1386.5,-187.5 1386.5,-168.5 1321.5,-168.5"/>
<text text-anchor="middle" x="1354" y="-175.5" font-family="Helvetica,sans-Serif" font-size="10.00" fill="#000000">functional</text>
</g>
<!-- Node4&#45;&gt;Node9 -->
<g id="edge9" class="edge">
<title>Node4&#45;&gt;Node9</title>
<path fill="none" stroke="#191970" d="M1442.362,-224.2455C1425.5614,-215.4527 1400.6366,-202.4079 1381.5382,-192.4125"/>
<polygon fill="#191970" stroke="#191970" points="1382.9073,-189.1787 1372.4244,-187.6427 1379.6614,-195.3807 1382.9073,-189.1787"/>
</g>
<!-- Node10 -->
<g id="node11" class="node">
<title>Node10</title>
<polygon fill="none" stroke="#bfbfbf" points="1535,-168.5 1535,-187.5 1589,-187.5 1589,-168.5 1535,-168.5"/>
<text text-anchor="middle" x="1562" y="-175.5" font-family="Helvetica,sans-Serif" font-size="10.00" fill="#000000">ciso646</text>
</g>
<!-- Node4&#45;&gt;Node10 -->
<g id="edge10" class="edge">
<title>Node4&#45;&gt;Node10</title>
<path fill="none" stroke="#191970" d="M1478.5929,-224.2455C1494.379,-215.4928 1517.7639,-202.527 1535.7587,-192.5496"/>
<polygon fill="#191970" stroke="#191970" points="1537.5603,-195.5528 1544.6087,-187.6427 1534.1659,-189.4308 1537.5603,-195.5528"/>
</g>
<!-- Node11 -->
<g id="node12" class="node">
<title>Node11</title>
<g id="a_node12"><a xlink:href="Events_8hxx.html" target="_top" xlink:title="../Events.hxx">
<polygon fill="none" stroke="#000000" points="1200,-112.5 1200,-131.5 1280,-131.5 1280,-112.5 1200,-112.5"/>
<text text-anchor="middle" x="1240" y="-119.5" font-family="Helvetica,sans-Serif" font-size="10.00" fill="#000000">../Events.hxx</text>
</a>
</g>
</g>
<!-- Node4&#45;&gt;Node11 -->
<g id="edge11" class="edge">
<title>Node4&#45;&gt;Node11</title>
<path fill="none" stroke="#191970" d="M1535.1972,-224.9294C1538.1694,-224.6076 1541.1124,-224.2964 1544,-224 1638.5436,-214.294 2033.0503,-237.2903 1968,-168 1944.8079,-143.2962 1451.4398,-127.7442 1290.3701,-123.3107"/>
<polygon fill="#191970" stroke="#191970" points="1290.3415,-119.8087 1280.2497,-123.0348 1290.1506,-126.8061 1290.3415,-119.8087"/>
</g>
<!-- Node19 -->
<g id="node20" class="node">
<title>Node19</title>
<g id="a_node20"><a xlink:href="MessageQueue_8inl_8hxx.html" target="_top" xlink:title="MessageQueue.inl.hxx">
<polygon fill="none" stroke="#000000" points="1673.5,-168.5 1673.5,-187.5 1800.5,-187.5 1800.5,-168.5 1673.5,-168.5"/>
<text text-anchor="middle" x="1737" y="-175.5" font-family="Helvetica,sans-Serif" font-size="10.00" fill="#000000">MessageQueue.inl.hxx</text>
</a>
</g>
</g>
<!-- Node4&#45;&gt;Node19 -->
<g id="edge20" class="edge">
<title>Node4&#45;&gt;Node19</title>
<path fill="none" stroke="#191970" d="M1508.1325,-224.4369C1555.7647,-214.7724 1629.3967,-199.8326 1680.2166,-189.5213"/>
<polygon fill="#191970" stroke="#191970" points="1680.9576,-192.9423 1690.0619,-187.5237 1679.5656,-186.0821 1680.9576,-192.9423"/>
</g>
<!-- Node12 -->
<g id="node13" class="node">
<title>Node12</title>
<polygon fill="none" stroke="#bfbfbf" points="880,-56.5 880,-75.5 924,-75.5 924,-56.5 880,-56.5"/>
<text text-anchor="middle" x="902" y="-63.5" font-family="Helvetica,sans-Serif" font-size="10.00" fill="#000000">string</text>
</g>
<!-- Node11&#45;&gt;Node12 -->
<g id="edge12" class="edge">
<title>Node11&#45;&gt;Node12</title>
<path fill="none" stroke="#191970" d="M1199.9161,-113.6719C1196.9018,-113.0909 1193.9045,-112.5273 1191,-112 1097.9751,-95.1125 987.4802,-78.4695 934.0709,-70.6392"/>
<polygon fill="#191970" stroke="#191970" points="934.5732,-67.1756 924.1723,-69.1932 933.5613,-74.102 934.5732,-67.1756"/>
</g>
<!-- Node13 -->
<g id="node14" class="node">
<title>Node13</title>
<polygon fill="none" stroke="#bfbfbf" points="1126,-56.5 1126,-75.5 1226,-75.5 1226,-56.5 1126,-56.5"/>
<text text-anchor="middle" x="1176" y="-63.5" font-family="Helvetica,sans-Serif" font-size="10.00" fill="#000000">betterEnums.hxx</text>
</g>
<!-- Node11&#45;&gt;Node13 -->
<g id="edge13" class="edge">
<title>Node11&#45;&gt;Node13</title>
<path fill="none" stroke="#191970" d="M1228.8521,-112.2455C1219.4913,-104.0549 1205.9142,-92.1749 1194.8651,-82.5069"/>
<polygon fill="#191970" stroke="#191970" points="1196.8508,-79.5937 1187.0202,-75.6427 1192.2412,-84.8618 1196.8508,-79.5937"/>
</g>
<!-- Node11&#45;&gt;Node14 -->
<g id="edge14" class="edge">
<title>Node11&#45;&gt;Node14</title>
<path fill="none" stroke="#191970" d="M1199.9586,-113.4075C1196.9345,-112.8876 1193.9234,-112.4101 1191,-112 991.0473,-83.9514 750.5881,-71.9138 648.1535,-67.7921"/>
<polygon fill="#191970" stroke="#191970" points="648.2255,-64.2923 638.0952,-67.3952 647.9494,-71.2869 648.2255,-64.2923"/>
</g>
<!-- Node18 -->
<g id="node19" class="node">
<title>Node18</title>
<g id="a_node19"><a xlink:href="UIEvents_8hxx.html" target="_top" xlink:title="events/UIEvents.hxx">
<polygon fill="none" stroke="#000000" points="1244.5,-56.5 1244.5,-75.5 1361.5,-75.5 1361.5,-56.5 1244.5,-56.5"/>
<text text-anchor="middle" x="1303" y="-63.5" font-family="Helvetica,sans-Serif" font-size="10.00" fill="#000000">events/UIEvents.hxx</text>
</a>
</g>
</g>
<!-- Node11&#45;&gt;Node18 -->
<g id="edge19" class="edge">
<title>Node11&#45;&gt;Node18</title>
<path fill="none" stroke="#191970" d="M1250.9738,-112.2455C1260.1882,-104.0549 1273.5532,-92.1749 1284.4297,-82.5069"/>
<polygon fill="#191970" stroke="#191970" points="1287.0032,-84.9023 1292.152,-75.6427 1282.3526,-79.6704 1287.0032,-84.9023"/>
</g>
<!-- Node14&#45;&gt;Node1 -->
<g id="edge15" class="edge">
<title>Node14&#45;&gt;Node1</title>
<path fill="none" stroke="#191970" d="M567.7445,-56.3733C538.3517,-47.021 493.5708,-32.7725 461.4066,-22.5385"/>
<polygon fill="#191970" stroke="#191970" points="462.4512,-19.198 451.8607,-19.5011 460.3287,-25.8685 462.4512,-19.198"/>
</g>
<!-- Node15 -->
<g id="node16" class="node">
<title>Node15</title>
<polygon fill="none" stroke="#bfbfbf" points="636.5,-.5 636.5,-19.5 705.5,-19.5 705.5,-.5 636.5,-.5"/>
<text text-anchor="middle" x="671" y="-7.5" font-family="Helvetica,sans-Serif" font-size="10.00" fill="#000000">type_traits</text>
</g>
<!-- Node14&#45;&gt;Node15 -->
<g id="edge16" class="edge">
<title>Node14&#45;&gt;Node15</title>
<path fill="none" stroke="#191970" d="M610.7156,-56.2455C621.602,-47.8943 637.4883,-35.7076 650.22,-25.9408"/>
<polygon fill="#191970" stroke="#191970" points="652.6261,-28.5063 658.4301,-19.6427 648.3654,-22.9523 652.6261,-28.5063"/>
</g>
<!-- Node16 -->
<g id="node17" class="node">
<title>Node16</title>
<polygon fill="none" stroke="#bfbfbf" points="508.5,-.5 508.5,-19.5 559.5,-19.5 559.5,-.5 508.5,-.5"/>
<text text-anchor="middle" x="534" y="-7.5" font-family="Helvetica,sans-Serif" font-size="10.00" fill="#000000">variant</text>
</g>
<!-- Node14&#45;&gt;Node16 -->
<g id="edge17" class="edge">
<title>Node14&#45;&gt;Node16</title>
<path fill="none" stroke="#191970" d="M586.8521,-56.2455C577.4913,-48.0549 563.9142,-36.1749 552.8651,-26.5069"/>
<polygon fill="#191970" stroke="#191970" points="554.8508,-23.5937 545.0202,-19.6427 550.2412,-28.8618 554.8508,-23.5937"/>
</g>
<!-- Node17 -->
<g id="node18" class="node">
<title>Node17</title>
<polygon fill="none" stroke="#bfbfbf" points="577.5,-.5 577.5,-19.5 618.5,-19.5 618.5,-.5 577.5,-.5"/>
<text text-anchor="middle" x="598" y="-7.5" font-family="Helvetica,sans-Serif" font-size="10.00" fill="#000000">tuple</text>
</g>
<!-- Node14&#45;&gt;Node17 -->
<g id="edge18" class="edge">
<title>Node14&#45;&gt;Node17</title>
<path fill="none" stroke="#191970" d="M598,-56.2455C598,-48.9382 598,-38.6944 598,-29.7046"/>
<polygon fill="#191970" stroke="#191970" points="601.5001,-29.6426 598,-19.6427 594.5001,-29.6427 601.5001,-29.6426"/>
</g>
<!-- Node20&#45;&gt;Node11 -->
<g id="edge23" class="edge">
<title>Node20&#45;&gt;Node11</title>
<path fill="none" stroke="#191970" d="M1026.0586,-168.4369C1071.6081,-158.5502 1142.5923,-143.1428 1190.1623,-132.8175"/>
<polygon fill="#191970" stroke="#191970" points="1190.9102,-136.2367 1199.9402,-130.6951 1189.4253,-129.396 1190.9102,-136.2367"/>
</g>
<!-- Node21 -->
<g id="node22" class="node">
<title>Node21</title>
<g id="a_node22"><a xlink:href="GameService_8inl_8hxx.html" target="_top" xlink:title="GameService.inl.hxx">
<polygon fill="none" stroke="#000000" points="998,-112.5 998,-131.5 1116,-131.5 1116,-112.5 998,-112.5"/>
<text text-anchor="middle" x="1057" y="-119.5" font-family="Helvetica,sans-Serif" font-size="10.00" fill="#000000">GameService.inl.hxx</text>
</a>
</g>
</g>
<!-- Node20&#45;&gt;Node21 -->
<g id="edge24" class="edge">
<title>Node20&#45;&gt;Node21</title>
<path fill="none" stroke="#191970" d="M995.064,-168.2455C1006.3562,-159.814 1022.8845,-147.4729 1036.0271,-137.6598"/>
<polygon fill="#191970" stroke="#191970" points="1038.1669,-140.4301 1044.0857,-131.6427 1033.9789,-134.8211 1038.1669,-140.4301"/>
</g>
<!-- Node22&#45;&gt;Node20 -->
<g id="edge28" class="edge">
<title>Node22&#45;&gt;Node20</title>
<path fill="none" stroke="#191970" d="M546.6879,-226.2722C645.7614,-215.2859 825.767,-195.3248 920.2767,-184.8446"/>
<polygon fill="#191970" stroke="#191970" points="920.7058,-188.3185 930.2591,-183.7376 919.9342,-181.3612 920.7058,-188.3185"/>
</g>
<!-- Node23 -->
<g id="node24" class="node">
<title>Node23</title>
<polygon fill="none" stroke="#bfbfbf" points="476,-168.5 476,-187.5 530,-187.5 530,-168.5 476,-168.5"/>
<text text-anchor="middle" x="503" y="-175.5" font-family="Helvetica,sans-Serif" font-size="10.00" fill="#000000">random</text>
</g>
<!-- Node22&#45;&gt;Node23 -->
<g id="edge26" class="edge">
<title>Node22&#45;&gt;Node23</title>
<path fill="none" stroke="#191970" d="M481.5289,-224.2455C485.0334,-216.6973 489.9927,-206.0158 494.2623,-196.8197"/>
<polygon fill="#191970" stroke="#191970" points="497.4864,-198.1867 498.523,-187.6427 491.1373,-195.2389 497.4864,-198.1867"/>
</g>
<!-- Node24 -->
<g id="node25" class="node">
<title>Node24</title>
<polygon fill="none" stroke="#bfbfbf" points="404.5,-168.5 404.5,-187.5 457.5,-187.5 457.5,-168.5 404.5,-168.5"/>
<text text-anchor="middle" x="431" y="-175.5" font-family="Helvetica,sans-Serif" font-size="10.00" fill="#000000">iterator</text>
</g>
<!-- Node22&#45;&gt;Node24 -->
<g id="edge27" class="edge">
<title>Node22&#45;&gt;Node24</title>
<path fill="none" stroke="#191970" d="M468.9874,-224.2455C462.5232,-216.3761 453.2615,-205.101 445.5017,-195.6542"/>
<polygon fill="#191970" stroke="#191970" points="447.9727,-193.1484 438.9208,-187.6427 442.5636,-197.5916 447.9727,-193.1484"/>
</g>
<!-- Node22&#45;&gt;Node25 -->
<g id="edge29" class="edge">
<title>Node22&#45;&gt;Node25</title>
<path fill="none" stroke="#191970" d="M456.3713,-224.3733C437.1081,-215.3838 408.1514,-201.8706 386.4581,-191.7471"/>
<polygon fill="#191970" stroke="#191970" points="387.9015,-188.5584 377.3595,-187.5011 384.9413,-194.9017 387.9015,-188.5584"/>
</g>
<!-- Node25&#45;&gt;Node1 -->
<g id="edge34" class="edge">
<title>Node25&#45;&gt;Node1</title>
<path fill="none" stroke="#191970" d="M370.6117,-168.3041C381.2389,-159.9491 395.4307,-146.9032 403,-132 419.7514,-99.0183 422.5524,-55.0641 422.5988,-29.918"/>
<polygon fill="#191970" stroke="#191970" points="426.097,-29.7482 422.4666,-19.7948 419.0976,-29.8397 426.097,-29.7482"/>
</g>
<!-- Node25&#45;&gt;Node6 -->
<g id="edge41" class="edge">
<title>Node25&#45;&gt;Node6</title>
<path fill="none" stroke="#191970" d="M386.257,-169.8237C389.525,-169.1121 392.8208,-168.481 396,-168 713.455,-119.9653 803.5379,-186.0716 1123.6294,-131.8292"/>
<polygon fill="#191970" stroke="#191970" points="1124.391,-135.2497 1133.6525,-130.1043 1123.2037,-128.3511 1124.391,-135.2497"/>
</g>
<!-- Node25&#45;&gt;Node12 -->
<g id="edge30" class="edge">
<title>Node25&#45;&gt;Node12</title>
<path fill="none" stroke="#191970" d="M386.3475,-170.3005C389.5985,-169.4996 392.8657,-168.7172 396,-168 574.0738,-127.251 789.3896,-86.7229 869.7276,-71.9013"/>
<polygon fill="#191970" stroke="#191970" points="870.5155,-75.3152 879.7167,-70.0627 869.2483,-68.4308 870.5155,-75.3152"/>
</g>
<!-- Node25&#45;&gt;Node14 -->
<g id="edge42" class="edge">
<title>Node25&#45;&gt;Node14</title>
<path fill="none" stroke="#191970" d="M373.2364,-168.3548C396.3011,-154.8537 440.08,-129.9617 479,-112 505.7478,-99.6558 536.8226,-87.722 560.5088,-79.104"/>
<polygon fill="#191970" stroke="#191970" points="561.9518,-82.3045 570.1735,-75.6221 559.5791,-75.7188 561.9518,-82.3045"/>
</g>
<!-- Node25&#45;&gt;Node26 -->
<g id="edge31" class="edge">
<title>Node25&#45;&gt;Node26</title>
<path fill="none" stroke="#191970" d="M386.2471,-169.7556C389.5169,-169.0568 392.8159,-168.4473 396,-168 555.2037,-145.634 1712.7857,-126.8221 1976.5884,-122.7959"/>
<polygon fill="#191970" stroke="#191970" points="1976.7327,-126.2942 1986.6783,-122.6425 1976.6262,-119.295 1976.7327,-126.2942"/>
</g>
<!-- Node29 -->
<g id="node30" class="node">
<title>Node29</title>
<polygon fill="none" stroke="#bfbfbf" points="930,-112.5 930,-131.5 980,-131.5 980,-112.5 930,-112.5"/>
<text text-anchor="middle" x="955" y="-119.5" font-family="Helvetica,sans-Serif" font-size="10.00" fill="#000000">chrono</text>
</g>
<!-- Node25&#45;&gt;Node29 -->
<g id="edge35" class="edge">
<title>Node25&#45;&gt;Node29</title>
<path fill="none" stroke="#191970" d="M386.2738,-169.9287C389.5386,-169.1974 392.8292,-168.5331 396,-168 592.0908,-135.035 831.0208,-125.3917 919.6854,-122.8389"/>
<polygon fill="#191970" stroke="#191970" points="919.8406,-126.3361 929.7403,-122.5616 919.6476,-119.3387 919.8406,-126.3361"/>
</g>
<!-- Node30 -->
<g id="node31" class="node">
<title>Node30</title>
<polygon fill="none" stroke="#bfbfbf" points="488,-112.5 488,-131.5 532,-131.5 532,-112.5 488,-112.5"/>
<text text-anchor="middle" x="510" y="-119.5" font-family="Helvetica,sans-Serif" font-size="10.00" fill="#000000">ctime</text>
</g>
<!-- Node25&#45;&gt;Node30 -->
<g id="edge36" class="edge">
<title>Node25&#45;&gt;Node30</title>
<path fill="none" stroke="#191970" d="M383.3016,-168.3733C409.4781,-158.7923 449.6939,-144.0728 477.7741,-133.7951"/>
<polygon fill="#191970" stroke="#191970" points="479.3342,-136.9512 487.5219,-130.2273 476.9282,-130.3777 479.3342,-136.9512"/>
</g>
<!-- Node31 -->
<g id="node32" class="node">
<title>Node31</title>
<polygon fill="none" stroke="#bfbfbf" points="28.5,-112.5 28.5,-131.5 83.5,-131.5 83.5,-112.5 28.5,-112.5"/>
<text text-anchor="middle" x="56" y="-119.5" font-family="Helvetica,sans-Serif" font-size="10.00" fill="#000000">fstream</text>
</g>
<!-- Node25&#45;&gt;Node31 -->
<g id="edge37" class="edge">
<title>Node25&#45;&gt;Node31</title>
<path fill="none" stroke="#191970" d="M327.9217,-173.8235C280.8245,-166.8674 184.7736,-151.8881 93.7412,-132.0027"/>
<polygon fill="#191970" stroke="#191970" points="94.3324,-128.549 83.8129,-129.8096 92.8225,-135.3842 94.3324,-128.549"/>
</g>
<!-- Node32 -->
<g id="node33" class="node">
<title>Node32</title>
<polygon fill="none" stroke="#bfbfbf" points="102,-112.5 102,-131.5 158,-131.5 158,-112.5 102,-112.5"/>
<text text-anchor="middle" x="130" y="-119.5" font-family="Helvetica,sans-Serif" font-size="10.00" fill="#000000">sstream</text>
</g>
<!-- Node25&#45;&gt;Node32 -->
<g id="edge38" class="edge">
<title>Node25&#45;&gt;Node32</title>
<path fill="none" stroke="#191970" d="M327.9705,-171.2235C292.5465,-162.8996 230.5841,-148.1639 168.2627,-132.2791"/>
<polygon fill="#191970" stroke="#191970" points="168.8169,-128.8083 158.2615,-129.7207 167.0821,-135.5899 168.8169,-128.8083"/>
</g>
<!-- Node33 -->
<g id="node34" class="node">
<title>Node33</title>
<polygon fill="none" stroke="#bfbfbf" points="176,-112.5 176,-131.5 220,-131.5 220,-112.5 176,-112.5"/>
<text text-anchor="middle" x="198" y="-119.5" font-family="Helvetica,sans-Serif" font-size="10.00" fill="#000000">SDL.h</text>
</g>
<!-- Node25&#45;&gt;Node33 -->
<g id="edge39" class="edge">
<title>Node25&#45;&gt;Node33</title>
<path fill="none" stroke="#191970" d="M329.6669,-168.3733C302.0269,-158.6384 259.3244,-143.5985 230.0931,-133.3032"/>
<polygon fill="#191970" stroke="#191970" points="230.957,-129.8968 220.3622,-129.876 228.6316,-136.4993 230.957,-129.8968"/>
</g>
<!-- Node34 -->
<g id="node35" class="node">
<title>Node34</title>
<polygon fill="none" stroke="#bfbfbf" points="238,-112.5 238,-131.5 302,-131.5 302,-112.5 238,-112.5"/>
<text text-anchor="middle" x="270" y="-119.5" font-family="Helvetica,sans-Serif" font-size="10.00" fill="#000000">algorithm</text>
</g>
<!-- Node25&#45;&gt;Node34 -->
<g id="edge40" class="edge">
<title>Node25&#45;&gt;Node34</title>
<path fill="none" stroke="#191970" d="M341.8458,-168.2455C328.4973,-159.6534 308.8414,-147.0014 293.4617,-137.1018"/>
<polygon fill="#191970" stroke="#191970" points="295.2836,-134.1121 284.9806,-131.6427 291.4949,-139.9982 295.2836,-134.1121"/>
</g>
<!-- Node35 -->
<g id="node36" class="node">
<title>Node35</title>
<g id="a_node36"><a xlink:href="LOG_8inl_8hxx.html" target="_top" xlink:title="LOG.inl.hxx">
<polygon fill="none" stroke="#000000" points="320.5,-112.5 320.5,-131.5 393.5,-131.5 393.5,-112.5 320.5,-112.5"/>
<text text-anchor="middle" x="357" y="-119.5" font-family="Helvetica,sans-Serif" font-size="10.00" fill="#000000">LOG.inl.hxx</text>
</a>
</g>
</g>
<!-- Node25&#45;&gt;Node35 -->
<g id="edge43" class="edge">
<title>Node25&#45;&gt;Node35</title>
<path fill="none" stroke="#191970" d="M357,-168.2455C357,-160.9382 357,-150.6944 357,-141.7046"/>
<polygon fill="#191970" stroke="#191970" points="360.5001,-141.6426 357,-131.6427 353.5001,-141.6427 360.5001,-141.6426"/>
</g>
<!-- Node27 -->
<g id="node28" class="node">
<title>Node27</title>
<polygon fill="none" stroke="#bfbfbf" points="1955.5,-56.5 1955.5,-75.5 2020.5,-75.5 2020.5,-56.5 1955.5,-56.5"/>
<text text-anchor="middle" x="1988" y="-63.5" font-family="Helvetica,sans-Serif" font-size="10.00" fill="#000000">stdexcept</text>
</g>
<!-- Node26&#45;&gt;Node27 -->
<g id="edge32" class="edge">
<title>Node26&#45;&gt;Node27</title>
<path fill="none" stroke="#191970" d="M2022.6842,-112.2455C2016.7821,-104.3761 2008.3258,-93.101 2001.2406,-83.6542"/>
<polygon fill="#191970" stroke="#191970" points="2004.0321,-81.5427 1995.232,-75.6427 1998.432,-85.7427 2004.0321,-81.5427"/>
</g>
<!-- Node28 -->
<g id="node29" class="node">
<title>Node28</title>
<polygon fill="none" stroke="#bfbfbf" points="2038.5,-56.5 2038.5,-75.5 2103.5,-75.5 2103.5,-56.5 2038.5,-56.5"/>
<text text-anchor="middle" x="2071" y="-63.5" font-family="Helvetica,sans-Serif" font-size="10.00" fill="#000000">exception</text>
</g>
<!-- Node26&#45;&gt;Node28 -->
<g id="edge33" class="edge">
<title>Node26&#45;&gt;Node28</title>
<path fill="none" stroke="#191970" d="M2037.1417,-112.2455C2042.8444,-104.4564 2050.99,-93.3308 2057.8625,-83.9439"/>
<polygon fill="#191970" stroke="#191970" points="2060.8568,-85.7789 2063.9402,-75.6427 2055.2087,-81.6437 2060.8568,-85.7789"/>
</g>
<!-- Node36&#45;&gt;Node6 -->
<g id="edge48" class="edge">
<title>Node36&#45;&gt;Node6</title>
<path fill="none" stroke="#191970" d="M1231.5534,-224.4706C1255.6277,-212.4411 1289.3349,-190.5778 1274,-168 1269.0911,-160.7726 1224.3097,-144.3888 1191.8544,-133.2577"/>
<polygon fill="#191970" stroke="#191970" points="1192.83,-129.8927 1182.2356,-129.9878 1190.5769,-136.5202 1192.83,-129.8927"/>
</g>
<!-- Node36&#45;&gt;Node9 -->
<g id="edge49" class="edge">
<title>Node36&#45;&gt;Node9</title>
<path fill="none" stroke="#191970" d="M1234.7545,-224.3733C1258.2849,-215.2226 1293.8687,-201.3844 1320.0426,-191.2057"/>
<polygon fill="#191970" stroke="#191970" points="1321.5171,-194.3877 1329.5685,-187.5011 1318.9799,-187.8636 1321.5171,-194.3877"/>
</g>
<!-- Node36&#45;&gt;Node20 -->
<g id="edge50" class="edge">
<title>Node36&#45;&gt;Node20</title>
<path fill="none" stroke="#191970" d="M1171.0645,-224.4369C1132.208,-214.8932 1072.407,-200.2052 1030.4911,-189.9101"/>
<polygon fill="#191970" stroke="#191970" points="1031.3212,-186.51 1020.7749,-187.5237 1029.6514,-193.308 1031.3212,-186.51"/>
</g>
<!-- Node36&#45;&gt;Node29 -->
<g id="edge47" class="edge">
<title>Node36&#45;&gt;Node29</title>
<path fill="none" stroke="#191970" d="M1179.8129,-224.4263C1153.5897,-215.8096 1114.7792,-202.3302 1082,-188 1076.9579,-185.7957 1018.068,-155.0317 982.2773,-136.2939"/>
<polygon fill="#191970" stroke="#191970" points="983.7731,-133.1264 973.2906,-131.5877 980.5256,-139.3276 983.7731,-133.1264"/>
</g>
<!-- Node37 -->
<g id="node38" class="node">
<title>Node37</title>
<polygon fill="none" stroke="#bfbfbf" points="1090.5,-168.5 1090.5,-187.5 1137.5,-187.5 1137.5,-168.5 1090.5,-168.5"/>
<text text-anchor="middle" x="1114" y="-175.5" font-family="Helvetica,sans-Serif" font-size="10.00" fill="#000000">queue</text>
</g>
<!-- Node36&#45;&gt;Node37 -->
<g id="edge45" class="edge">
<title>Node36&#45;&gt;Node37</title>
<path fill="none" stroke="#191970" d="M1193.2781,-224.2455C1178.4111,-215.5731 1156.4534,-202.7645 1139.4142,-192.825"/>
<polygon fill="#191970" stroke="#191970" points="1140.9317,-189.6582 1130.5303,-187.6427 1137.4045,-195.7047 1140.9317,-189.6582"/>
</g>
<!-- Node36&#45;&gt;Node38 -->
<g id="edge46" class="edge">
<title>Node36&#45;&gt;Node38</title>
<path fill="none" stroke="#191970" d="M1278.5753,-229.5399C1354.4408,-223.7827 1480.3313,-211.7941 1597.1471,-187.8614"/>
<polygon fill="#191970" stroke="#191970" points="1597.8999,-191.2799 1606.9763,-185.8146 1596.4727,-184.4269 1597.8999,-191.2799"/>
</g>
<!-- Node39 -->
<g id="node40" class="node">
<title>Node39</title>
<g id="a_node40"><a xlink:href="GameClock_8inl_8hxx.html" target="_top" xlink:title="GameClock.inl.hxx">
<polygon fill="none" stroke="#000000" points="1155.5,-168.5 1155.5,-187.5 1264.5,-187.5 1264.5,-168.5 1155.5,-168.5"/>
<text text-anchor="middle" x="1210" y="-175.5" font-family="Helvetica,sans-Serif" font-size="10.00" fill="#000000">GameClock.inl.hxx</text>
</a>
</g>
</g>
<!-- Node36&#45;&gt;Node39 -->
<g id="edge51" class="edge">
<title>Node36&#45;&gt;Node39</title>
<path fill="none" stroke="#191970" d="M1204.7332,-224.2455C1203.3221,-216.9382 1202.9179,-206.6944 1203.5205,-197.7046"/>
<polygon fill="#191970" stroke="#191970" points="1207.0111,-197.9945 1204.7549,-187.6427 1200.0632,-197.1421 1207.0111,-197.9945"/>
</g>
<!-- Node39&#45;&gt;Node36 -->
<g id="edge52" class="edge">
<title>Node39&#45;&gt;Node36</title>
<path fill="none" stroke="#191970" d="M1215.2451,-187.6427C1216.6665,-194.9199 1217.081,-205.155 1216.4887,-214.1575"/>
<polygon fill="#191970" stroke="#191970" points="1212.9947,-213.8972 1215.2668,-224.2455 1219.9439,-214.739 1212.9947,-213.8972"/>
</g>
<!-- Node40&#45;&gt;Node12 -->
<g id="edge55" class="edge">
<title>Node40&#45;&gt;Node12</title>
<path fill="none" stroke="#191970" d="M849.6615,-224.4924C858.6414,-215.8672 871.0959,-202.3389 878,-188 894.1609,-154.4362 899.4395,-110.6847 901.1637,-85.7325"/>
<polygon fill="#191970" stroke="#191970" points="904.661,-85.8769 901.7321,-75.695 897.6722,-85.4811 904.661,-85.8769"/>
</g>
<!-- Node40&#45;&gt;Node14 -->
<g id="edge57" class="edge">
<title>Node40&#45;&gt;Node14</title>
<path fill="none" stroke="#191970" d="M843.503,-224.0932C849.0383,-210.2813 856.3872,-185.0223 845,-168 801.197,-102.5204 706.8314,-79.0294 648.2513,-70.6338"/>
<polygon fill="#191970" stroke="#191970" points="648.4806,-67.1334 638.1053,-69.279 647.554,-74.0718 648.4806,-67.1334"/>
</g>
<!-- Node40&#45;&gt;Node20 -->
<g id="edge56" class="edge">
<title>Node40&#45;&gt;Node20</title>
<path fill="none" stroke="#191970" d="M863.5826,-224.3733C886.9496,-215.2226 922.2862,-201.3844 948.2784,-191.2057"/>
<polygon fill="#191970" stroke="#191970" points="949.703,-194.4066 957.7382,-187.5011 947.1505,-187.8886 949.703,-194.4066"/>
</g>
<!-- Node41 -->
<g id="node42" class="node">
<title>Node41</title>
<polygon fill="none" stroke="#bfbfbf" points="742.5,-168.5 742.5,-187.5 835.5,-187.5 835.5,-168.5 742.5,-168.5"/>
<text text-anchor="middle" x="789" y="-175.5" font-family="Helvetica,sans-Serif" font-size="10.00" fill="#000000">unordered_map</text>
</g>
<!-- Node40&#45;&gt;Node41 -->
<g id="edge54" class="edge">
<title>Node40&#45;&gt;Node41</title>
<path fill="none" stroke="#191970" d="M830.2907,-224.2455C823.1927,-216.2958 812.9916,-204.8706 804.505,-195.3656"/>
<polygon fill="#191970" stroke="#191970" points="806.8805,-192.771 797.6095,-187.6427 801.6589,-197.4331 806.8805,-192.771"/>
</g>
<!-- Node42 -->
<g id="node43" class="node">
<title>Node42</title>
<g id="a_node43"><a xlink:href="ResourceManager_8inl_8hxx.html" target="_top" xlink:title="ResourceManager.inl.hxx">
<polygon fill="none" stroke="#000000" points="586,-168.5 586,-187.5 724,-187.5 724,-168.5 586,-168.5"/>
<text text-anchor="middle" x="655" y="-175.5" font-family="Helvetica,sans-Serif" font-size="10.00" fill="#000000">ResourceManager.inl.hxx</text>
</a>
</g>
</g>
<!-- Node40&#45;&gt;Node42 -->
<g id="edge58" class="edge">
<title>Node40&#45;&gt;Node42</title>
<path fill="none" stroke="#191970" d="M807.3693,-224.3733C776.6404,-215.021 729.824,-200.7725 696.1978,-190.5385"/>
<polygon fill="#191970" stroke="#191970" points="696.8038,-187.0644 686.218,-187.5011 694.7656,-193.7612 696.8038,-187.0644"/>
</g>
</g>
</svg>
        <g id="navigator" transform="translate(0 0)" fill="#404254">
                <rect fill="#f2f5e9" fill-opacity="0.5" stroke="#606060" stroke-width=".5" x="0" y="0" width="60" height="60"/>
                <use id="zoomplus" xlink:href="#zoomPlus" x="17" y="9" onmousedown="handleZoom(evt,'in')"/>
                <use id="zoomminus" xlink:href="#zoomMin" x="42" y="9" onmousedown="handleZoom(evt,'out')"/>
                <use id="reset" xlink:href="#resetDef" x="30" y="36" onmousedown="handleReset()"/>
                <g id="arrowUp" xlink:href="#dirArrow" transform="translate(30 24)" onmousedown="handlePan(0,-1)">
                  <use xlink:href="#rim" fill="#404040">
                        <set attributeName="fill" to="#808080" begin="arrowUp.mouseover" end="arrowUp.mouseout"/>
                  </use>
                  <path fill="none" stroke="white" stroke-width="1.5" d="M0,-3.0v7 M-2.5,-0.5L0,-3.0L2.5,-0.5"/>
                </g>
                <g id="arrowRight" xlink:href="#dirArrow" transform="rotate(90) translate(36 -43)" onmousedown="handlePan(1,0)">
                  <use xlink:href="#rim" fill="#404040">
                        <set attributeName="fill" to="#808080" begin="arrowRight.mouseover" end="arrowRight.mouseout"/>
                  </use>
                  <path fill="none" stroke="white" stroke-width="1.5" d="M0,-3.0v7 M-2.5,-0.5L0,-3.0L2.5,-0.5"/>
                </g>
                <g id="arrowDown" xlink:href="#dirArrow" transform="rotate(180) translate(-30 -48)" onmousedown="handlePan(0,1)">
                  <use xlink:href="#rim" fill="#404040">
                        <set attributeName="fill" to="#808080" begin="arrowDown.mouseover" end="arrowDown.mouseout"/>
                  </use>
                  <path fill="none" stroke="white" stroke-width="1.5" d="M0,-3.0v7 M-2.5,-0.5L0,-3.0L2.5,-0.5"/>
                </g>
                <g id="arrowLeft" xlink:href="#dirArrow" transform="rotate(270) translate(-36 17)" onmousedown="handlePan(-1,0)">
                  <use xlink:href="#rim" fill="#404040">
                        <set attributeName="fill" to="#808080" begin="arrowLeft.mouseover" end="arrowLeft.mouseout"/>
                  </use>
                  <path fill="none" stroke="white" stroke-width="1.5" d="M0,-3.0v7 M-2.5,-0.5L0,-3.0L2.5,-0.5"/>
                </g>
        </g>
        <svg viewBox="0 0 15 15" width="100%" height="30px" preserveAspectRatio="xMaxYMin meet">
         <g id="arrow_out" transform="scale(0.3 0.3)">
          <a xlink:href="main_8cxx__incl_org.svg" target="_base">
           <rect id="button" ry="5" rx="5" y="6" x="6" height="38" width="38"
                fill="#f2f5e9" fill-opacity="0.5" stroke="#606060" stroke-width="1.0"/>
           <path id="arrow"
             d="M 11.500037,31.436501 C 11.940474,20.09759 22.043105,11.32322 32.158766,21.979434 L 37.068811,17.246167 C 37.068811,17.246167 37.088388,32 37.088388,32 L 22.160133,31.978069 C 22.160133,31.978069 26.997745,27.140456 26.997745,27.140456 C 18.528582,18.264221 13.291696,25.230495 11.500037,31.436501 z"
             style="fill:#404040;"/>
          </a>
         </g>
        </svg>
</svg>
