<?xml version="1.0" encoding="UTF-8" standalone="no"?>
<!DOCTYPE svg PUBLIC "-//W3C//DTD SVG 1.1//EN"
 "http://www.w3.org/Graphics/SVG/1.1/DTD/svg11.dtd">
<!-- Generated by graphviz version 2.40.1 (20161225.0304)
 -->
<!-- Title: src/engine/Map.cxx Pages: 1 -->
<svg width="2151pt" height="364pt"
 viewBox="0.00 0.00 2150.92 364.00" xmlns="http://www.w3.org/2000/svg" xmlns:xlink="http://www.w3.org/1999/xlink">
<g id="graph0" class="graph" transform="scale(1 1) rotate(0) translate(4 360)">
<title>src/engine/Map.cxx</title>
<!-- Node0 -->
<g id="node1" class="node">
<title>Node0</title>
<polygon fill="#bfbfbf" stroke="#000000" points="914.4152,-336.5 914.4152,-355.5 1024.4152,-355.5 1024.4152,-336.5 914.4152,-336.5"/>
<text text-anchor="middle" x="969.4152" y="-343.5" font-family="Helvetica,sans-Serif" font-size="10.00" fill="#000000">src/engine/Map.cxx</text>
</g>
<!-- Node1 -->
<g id="node2" class="node">
<title>Node1</title>
<g id="a_node2"><a xlink:href="Map_8hxx.html" target="_top" xlink:title="Map.hxx">
<polygon fill="none" stroke="#000000" points="208.4152,-280.5 208.4152,-299.5 266.4152,-299.5 266.4152,-280.5 208.4152,-280.5"/>
<text text-anchor="middle" x="237.4152" y="-287.5" font-family="Helvetica,sans-Serif" font-size="10.00" fill="#000000">Map.hxx</text>
</a>
</g>
</g>
<!-- Node0&#45;&gt;Node1 -->
<g id="edge1" class="edge">
<title>Node0&#45;&gt;Node1</title>
<path fill="none" stroke="#191970" d="M914.0423,-342.8932C802.2659,-336.4373 541.7108,-320.4534 323.4152,-300 308.1211,-298.567 291.3327,-296.6845 276.6805,-294.9397"/>
<polygon fill="#191970" stroke="#191970" points="276.7886,-291.4274 266.4408,-293.702 275.9485,-298.3768 276.7886,-291.4274"/>
</g>
<!-- Node7 -->
<g id="node8" class="node">
<title>Node7</title>
<polygon fill="none" stroke="#bfbfbf" points="916.4152,-.5 916.4152,-19.5 960.4152,-19.5 960.4152,-.5 916.4152,-.5"/>
<text text-anchor="middle" x="938.4152" y="-7.5" font-family="Helvetica,sans-Serif" font-size="10.00" fill="#000000">string</text>
</g>
<!-- Node0&#45;&gt;Node7 -->
<g id="edge92" class="edge">
<title>Node0&#45;&gt;Node7</title>
<path fill="none" stroke="#191970" d="M941.7895,-336.402C906.2358,-322.3731 846.0038,-292.527 820.4152,-244 777.6507,-162.9 875.3262,-64.4863 918.8422,-26.2673"/>
<polygon fill="#191970" stroke="#191970" points="921.2348,-28.8259 926.5289,-19.6486 916.6672,-23.5213 921.2348,-28.8259"/>
</g>
<!-- Node17 -->
<g id="node16" class="node">
<title>Node17</title>
<polygon fill="none" stroke="#bfbfbf" points="1931.4152,-56.5 1931.4152,-75.5 1989.4152,-75.5 1989.4152,-56.5 1931.4152,-56.5"/>
<text text-anchor="middle" x="1960.4152" y="-63.5" font-family="Helvetica,sans-Serif" font-size="10.00" fill="#000000">json.hxx</text>
</g>
<!-- Node0&#45;&gt;Node17 -->
<g id="edge90" class="edge">
<title>Node0&#45;&gt;Node17</title>
<path fill="none" stroke="#191970" d="M1024.8531,-343.3136C1153.5995,-336.8273 1469.8087,-319.4057 1574.4152,-300 1659.7176,-284.1754 1678.8687,-270.7017 1761.4152,-244 1833.4983,-220.683 1863.503,-235.6341 1922.4152,-188 1945.057,-169.6928 1947.7245,-159.7898 1956.4152,-132 1961.0793,-117.086 1961.9142,-99.3715 1961.6734,-86.0516"/>
<polygon fill="#191970" stroke="#191970" points="1965.1545,-85.5091 1961.2542,-75.6584 1958.1602,-85.7914 1965.1545,-85.5091"/>
</g>
<!-- Node22 -->
<g id="node21" class="node">
<title>Node22</title>
<g id="a_node21"><a xlink:href="Camera_8hxx.html" target="_top" xlink:title="basics/Camera.hxx">
<polygon fill="none" stroke="#000000" points="206.4152,-112.5 206.4152,-131.5 316.4152,-131.5 316.4152,-112.5 206.4152,-112.5"/>
<text text-anchor="middle" x="261.4152" y="-119.5" font-family="Helvetica,sans-Serif" font-size="10.00" fill="#000000">basics/Camera.hxx</text>
</a>
</g>
</g>
<!-- Node0&#45;&gt;Node22 -->
<g id="edge32" class="edge">
<title>Node0&#45;&gt;Node22</title>
<path fill="none" stroke="#191970" d="M914.0995,-344.5464C805.0237,-341.0528 566.2085,-330.1183 490.4152,-300 397.3143,-263.0041 310.611,-176.0035 276.5923,-139.0663"/>
<polygon fill="#191970" stroke="#191970" points="279.113,-136.6358 269.7979,-131.588 273.932,-141.343 279.113,-136.6358"/>
</g>
<!-- Node23 -->
<g id="node22" class="node">
<title>Node23</title>
<g id="a_node22"><a xlink:href="isoMath_8hxx.html" target="_top" xlink:title="basics/isoMath.hxx">
<polygon fill="none" stroke="#000000" points="365.4152,-168.5 365.4152,-187.5 475.4152,-187.5 475.4152,-168.5 365.4152,-168.5"/>
<text text-anchor="middle" x="420.4152" y="-175.5" font-family="Helvetica,sans-Serif" font-size="10.00" fill="#000000">basics/isoMath.hxx</text>
</a>
</g>
</g>
<!-- Node0&#45;&gt;Node23 -->
<g id="edge35" class="edge">
<title>Node0&#45;&gt;Node23</title>
<path fill="none" stroke="#191970" d="M914.111,-342.6423C802.1326,-335.5071 556.3002,-318.0085 522.4152,-300 478.1218,-276.4598 445.3227,-224.8822 430.0131,-196.9216"/>
<polygon fill="#191970" stroke="#191970" points="432.9477,-194.9843 425.1751,-187.7845 426.7614,-198.2599 432.9477,-194.9843"/>
</g>
<!-- Node24 -->
<g id="node23" class="node">
<title>Node24</title>
<g id="a_node23"><a xlink:href="mapEdit_8hxx.html" target="_top" xlink:title="basics/mapEdit.hxx">
<polygon fill="none" stroke="#000000" points="829.4152,-224.5 829.4152,-243.5 941.4152,-243.5 941.4152,-224.5 829.4152,-224.5"/>
<text text-anchor="middle" x="885.4152" y="-231.5" font-family="Helvetica,sans-Serif" font-size="10.00" fill="#000000">basics/mapEdit.hxx</text>
</a>
</g>
</g>
<!-- Node0&#45;&gt;Node24 -->
<g id="edge40" class="edge">
<title>Node0&#45;&gt;Node24</title>
<path fill="none" stroke="#191970" d="M962.2534,-336.4509C948.1812,-317.688 916.7313,-275.7548 898.7337,-251.758"/>
<polygon fill="#191970" stroke="#191970" points="901.3589,-249.4249 892.5589,-243.5249 895.7589,-253.6249 901.3589,-249.4249"/>
</g>
<!-- Node25 -->
<g id="node24" class="node">
<title>Node25</title>
<g id="a_node24"><a xlink:href="Settings_8hxx.html" target="_top" xlink:title="basics/Settings.hxx">
<polygon fill="none" stroke="#000000" points="1606.9152,-224.5 1606.9152,-243.5 1717.9152,-243.5 1717.9152,-224.5 1606.9152,-224.5"/>
<text text-anchor="middle" x="1662.4152" y="-231.5" font-family="Helvetica,sans-Serif" font-size="10.00" fill="#000000">basics/Settings.hxx</text>
</a>
</g>
</g>
<!-- Node0&#45;&gt;Node25 -->
<g id="edge42" class="edge">
<title>Node0&#45;&gt;Node25</title>
<path fill="none" stroke="#191970" d="M1024.6433,-344.6148C1115.3976,-341.4838 1301.3813,-331.4665 1455.4152,-300 1518.0652,-287.2017 1588.5124,-262.4121 1628.958,-247.1245"/>
<polygon fill="#191970" stroke="#191970" points="1630.2341,-250.3838 1638.3294,-243.5488 1627.7387,-243.8436 1630.2341,-250.3838"/>
</g>
<!-- Node32 -->
<g id="node31" class="node">
<title>Node32</title>
<g id="a_node31"><a xlink:href="LOG_8hxx.html" target="_top" xlink:title="LOG.hxx">
<polygon fill="none" stroke="#000000" points="1276.4152,-224.5 1276.4152,-243.5 1334.4152,-243.5 1334.4152,-224.5 1276.4152,-224.5"/>
<text text-anchor="middle" x="1305.4152" y="-231.5" font-family="Helvetica,sans-Serif" font-size="10.00" fill="#000000">LOG.hxx</text>
</a>
</g>
</g>
<!-- Node0&#45;&gt;Node32 -->
<g id="edge51" class="edge">
<title>Node0&#45;&gt;Node32</title>
<path fill="none" stroke="#191970" d="M974.9249,-336.0214C983.7098,-321.1481 1002.3793,-293.4738 1026.4152,-280 1066.758,-257.3851 1198.8544,-243.141 1265.7859,-237.1965"/>
<polygon fill="#191970" stroke="#191970" points="1266.2851,-240.6664 1275.9445,-236.3137 1265.679,-233.6927 1266.2851,-240.6664"/>
</g>
<!-- Node39 -->
<g id="node38" class="node">
<title>Node39</title>
<polygon fill="none" stroke="#bfbfbf" points="1819.4152,-168.5 1819.4152,-187.5 1875.4152,-187.5 1875.4152,-168.5 1819.4152,-168.5"/>
<text text-anchor="middle" x="1847.4152" y="-175.5" font-family="Helvetica,sans-Serif" font-size="10.00" fill="#000000">sstream</text>
</g>
<!-- Node0&#45;&gt;Node39 -->
<g id="edge91" class="edge">
<title>Node0&#45;&gt;Node39</title>
<path fill="none" stroke="#191970" d="M1024.6738,-344.2307C1122.4343,-340.4428 1332.0216,-329.3637 1506.4152,-300 1606.3352,-283.1759 1633.1489,-281.1609 1727.4152,-244 1762.7602,-230.0666 1800.7337,-207.8137 1824.2841,-193.0553"/>
<polygon fill="#191970" stroke="#191970" points="1826.2934,-195.9255 1832.8603,-187.6112 1822.5419,-190.0157 1826.2934,-195.9255"/>
</g>
<!-- Node42 -->
<g id="node41" class="node">
<title>Node42</title>
<g id="a_node41"><a xlink:href="compression_8hxx.html" target="_top" xlink:title="basics/compression.hxx">
<polygon fill="none" stroke="#000000" points="1312.4152,-280.5 1312.4152,-299.5 1446.4152,-299.5 1446.4152,-280.5 1312.4152,-280.5"/>
<text text-anchor="middle" x="1379.4152" y="-287.5" font-family="Helvetica,sans-Serif" font-size="10.00" fill="#000000">basics/compression.hxx</text>
</a>
</g>
</g>
<!-- Node0&#45;&gt;Node42 -->
<g id="edge66" class="edge">
<title>Node0&#45;&gt;Node42</title>
<path fill="none" stroke="#191970" d="M1024.7096,-338.4476C1096.188,-328.6847 1221.0572,-311.6294 1301.9574,-300.5796"/>
<polygon fill="#191970" stroke="#191970" points="1302.6544,-304.017 1312.0888,-299.1958 1301.7071,-297.0814 1302.6544,-304.017"/>
</g>
<!-- Node44 -->
<g id="node43" class="node">
<title>Node44</title>
<g id="a_node43"><a xlink:href="Constants_8hxx.html" target="_top" xlink:title="common/Constants.hxx">
<polygon fill="none" stroke="#000000" points="1035.4152,-280.5 1035.4152,-299.5 1167.4152,-299.5 1167.4152,-280.5 1035.4152,-280.5"/>
<text text-anchor="middle" x="1101.4152" y="-287.5" font-family="Helvetica,sans-Serif" font-size="10.00" fill="#000000">common/Constants.hxx</text>
</a>
</g>
</g>
<!-- Node0&#45;&gt;Node44 -->
<g id="edge71" class="edge">
<title>Node0&#45;&gt;Node44</title>
<path fill="none" stroke="#191970" d="M992.1068,-336.3733C1013.4863,-327.3032 1045.7209,-313.6279 1069.6514,-303.4755"/>
<polygon fill="#191970" stroke="#191970" points="1071.1808,-306.6287 1079.0197,-299.5011 1068.4469,-300.1846 1071.1808,-306.6287"/>
</g>
<!-- Node45 -->
<g id="node44" class="node">
<title>Node45</title>
<g id="a_node44"><a xlink:href="ResourcesManager_8hxx.html" target="_top" xlink:title="ResourcesManager.hxx">
<polygon fill="none" stroke="#000000" points="905.4152,-168.5 905.4152,-187.5 1033.4152,-187.5 1033.4152,-168.5 905.4152,-168.5"/>
<text text-anchor="middle" x="969.4152" y="-175.5" font-family="Helvetica,sans-Serif" font-size="10.00" fill="#000000">ResourcesManager.hxx</text>
</a>
</g>
</g>
<!-- Node0&#45;&gt;Node45 -->
<g id="edge72" class="edge">
<title>Node0&#45;&gt;Node45</title>
<path fill="none" stroke="#191970" d="M969.4152,-336.4862C969.4152,-309.9293 969.4152,-234.5651 969.4152,-198.1655"/>
<polygon fill="#191970" stroke="#191970" points="972.9153,-197.8278 969.4152,-187.8279 965.9153,-197.8279 972.9153,-197.8278"/>
</g>
<!-- Node46 -->
<g id="node45" class="node">
<title>Node46</title>
<g id="a_node45"><a xlink:href="MapLayers_8hxx.html" target="_top" xlink:title="map/MapLayers.hxx">
<polygon fill="none" stroke="#000000" points="168.9152,-56.5 168.9152,-75.5 283.9152,-75.5 283.9152,-56.5 168.9152,-56.5"/>
<text text-anchor="middle" x="226.4152" y="-63.5" font-family="Helvetica,sans-Serif" font-size="10.00" fill="#000000">map/MapLayers.hxx</text>
</a>
</g>
</g>
<!-- Node0&#45;&gt;Node46 -->
<g id="edge77" class="edge">
<title>Node0&#45;&gt;Node46</title>
<path fill="none" stroke="#191970" d="M914.2233,-345.5002C761.3186,-343.6724 334.6231,-335.4495 199.4152,-300 144.4249,-285.5823 114.5557,-292.2012 84.4152,-244 43.6708,-178.8408 146.6918,-109.9981 198.6294,-80.6405"/>
<polygon fill="#191970" stroke="#191970" points="200.6319,-83.5326 207.6866,-75.6281 197.2424,-77.4079 200.6319,-83.5326"/>
</g>
<!-- Node47 -->
<g id="node46" class="node">
<title>Node47</title>
<g id="a_node46"><a xlink:href="JsonSerialization_8hxx.html" target="_top" xlink:title="common/JsonSerialization.hxx">
<polygon fill="none" stroke="#000000" points="531.4152,-280.5 531.4152,-299.5 695.4152,-299.5 695.4152,-280.5 531.4152,-280.5"/>
<text text-anchor="middle" x="613.4152" y="-287.5" font-family="Helvetica,sans-Serif" font-size="10.00" fill="#000000">common/JsonSerialization.hxx</text>
</a>
</g>
</g>
<!-- Node0&#45;&gt;Node47 -->
<g id="edge80" class="edge">
<title>Node0&#45;&gt;Node47</title>
<path fill="none" stroke="#191970" d="M914.1808,-337.3114C852.2285,-327.5661 751.5917,-311.7356 683.9862,-301.1011"/>
<polygon fill="#191970" stroke="#191970" points="684.268,-297.6024 673.8455,-299.5059 683.1802,-304.5174 684.268,-297.6024"/>
</g>
<!-- Node48 -->
<g id="node47" class="node">
<title>Node48</title>
<g id="a_node47"><a xlink:href="Filesystem_8hxx.html" target="_top" xlink:title="Filesystem.hxx">
<polygon fill="none" stroke="#000000" points="700.4152,-56.5 700.4152,-75.5 790.4152,-75.5 790.4152,-56.5 700.4152,-56.5"/>
<text text-anchor="middle" x="745.4152" y="-63.5" font-family="Helvetica,sans-Serif" font-size="10.00" fill="#000000">Filesystem.hxx</text>
</a>
</g>
</g>
<!-- Node0&#45;&gt;Node48 -->
<g id="edge86" class="edge">
<title>Node0&#45;&gt;Node48</title>
<path fill="none" stroke="#191970" d="M914.0276,-339.4753C866.3799,-332.5881 802.9335,-319.9285 787.4152,-300 751.3708,-253.712 773.9364,-225.0973 787.4152,-168 793.4217,-142.5563 816.9829,-135.4445 805.4152,-112 798.9359,-98.8681 786.709,-88.4457 774.9745,-80.8651"/>
<polygon fill="#191970" stroke="#191970" points="776.5804,-77.7475 766.2004,-75.6244 772.9908,-83.7572 776.5804,-77.7475"/>
</g>
<!-- Node50 -->
<g id="node49" class="node">
<title>Node50</title>
<polygon fill="none" stroke="#bfbfbf" points="2045.4152,-280.5 2045.4152,-299.5 2077.4152,-299.5 2077.4152,-280.5 2045.4152,-280.5"/>
<text text-anchor="middle" x="2061.4152" y="-287.5" font-family="Helvetica,sans-Serif" font-size="10.00" fill="#000000">set</text>
</g>
<!-- Node0&#45;&gt;Node50 -->
<g id="edge93" class="edge">
<title>Node0&#45;&gt;Node50</title>
<path fill="none" stroke="#191970" d="M1024.7405,-345.6315C1214.1122,-344.0532 1835.4142,-336.1765 2031.4152,-300 2032.6907,-299.7646 2033.9863,-299.4874 2035.2873,-299.1783"/>
<polygon fill="#191970" stroke="#191970" points="2036.4871,-302.4751 2045.1271,-296.343 2034.5489,-295.7487 2036.4871,-302.4751"/>
</g>
<!-- Node51 -->
<g id="node50" class="node">
<title>Node51</title>
<polygon fill="none" stroke="#bfbfbf" points="2095.9152,-280.5 2095.9152,-299.5 2142.9152,-299.5 2142.9152,-280.5 2095.9152,-280.5"/>
<text text-anchor="middle" x="2119.4152" y="-287.5" font-family="Helvetica,sans-Serif" font-size="10.00" fill="#000000">queue</text>
</g>
<!-- Node0&#45;&gt;Node51 -->
<g id="edge94" class="edge">
<title>Node0&#45;&gt;Node51</title>
<path fill="none" stroke="#191970" d="M1024.4943,-345.5729C1216.8496,-343.7987 1858.8246,-335.4283 2085.6335,-299.611"/>
<polygon fill="#191970" stroke="#191970" points="2086.4944,-303.0165 2095.7939,-297.94 2085.3584,-296.1093 2086.4944,-303.0165"/>
</g>
<!-- Node2 -->
<g id="node3" class="node">
<title>Node2</title>
<polygon fill="none" stroke="#bfbfbf" points="159.9152,-.5 159.9152,-19.5 206.9152,-19.5 206.9152,-.5 159.9152,-.5"/>
<text text-anchor="middle" x="183.4152" y="-7.5" font-family="Helvetica,sans-Serif" font-size="10.00" fill="#000000">vector</text>
</g>
<!-- Node1&#45;&gt;Node2 -->
<g id="edge2" class="edge">
<title>Node1&#45;&gt;Node2</title>
<path fill="none" stroke="#191970" d="M208.2368,-285.4254C168.1287,-278.4735 99.2279,-263.9211 84.4152,-244 56.7544,-206.7998 -101.8587,-370.1555 104.4152,-56 115.1195,-39.6974 133.7498,-28.4468 150.2307,-21.1544"/>
<polygon fill="#191970" stroke="#191970" points="151.6845,-24.3412 159.6098,-17.3099 149.0295,-17.8642 151.6845,-24.3412"/>
</g>
<!-- Node3 -->
<g id="node4" class="node">
<title>Node3</title>
<polygon fill="none" stroke="#bfbfbf" points="93.4152,-224.5 93.4152,-243.5 147.4152,-243.5 147.4152,-224.5 93.4152,-224.5"/>
<text text-anchor="middle" x="120.4152" y="-231.5" font-family="Helvetica,sans-Serif" font-size="10.00" fill="#000000">random</text>
</g>
<!-- Node1&#45;&gt;Node3 -->
<g id="edge3" class="edge">
<title>Node1&#45;&gt;Node3</title>
<path fill="none" stroke="#191970" d="M217.3022,-280.3733C198.6049,-271.4241 170.5408,-257.9917 149.4218,-247.8835"/>
<polygon fill="#191970" stroke="#191970" points="150.7969,-244.6614 140.2658,-243.5011 147.7748,-250.9755 150.7969,-244.6614"/>
</g>
<!-- Node4 -->
<g id="node5" class="node">
<title>Node4</title>
<g id="a_node5"><a xlink:href="MapNode_8hxx.html" target="_top" xlink:title="GameObjects/MapNode.hxx">
<polygon fill="none" stroke="#000000" points="532.4152,-168.5 532.4152,-187.5 684.4152,-187.5 684.4152,-168.5 532.4152,-168.5"/>
<text text-anchor="middle" x="608.4152" y="-175.5" font-family="Helvetica,sans-Serif" font-size="10.00" fill="#000000">GameObjects/MapNode.hxx</text>
</a>
</g>
</g>
<!-- Node1&#45;&gt;Node4 -->
<g id="edge4" class="edge">
<title>Node1&#45;&gt;Node4</title>
<path fill="none" stroke="#191970" d="M266.527,-281.2115C332.0824,-261.4212 491.4451,-213.3117 567.1579,-190.455"/>
<polygon fill="#191970" stroke="#191970" points="568.2723,-193.7747 576.834,-187.5339 566.2492,-187.0734 568.2723,-193.7747"/>
</g>
<!-- Node20 -->
<g id="node19" class="node">
<title>Node20</title>
<g id="a_node19"><a xlink:href="TerrainGenerator_8hxx.html" target="_top" xlink:title="map/TerrainGenerator.hxx">
<polygon fill="none" stroke="#000000" points="165.9152,-224.5 165.9152,-243.5 308.9152,-243.5 308.9152,-224.5 165.9152,-224.5"/>
<text text-anchor="middle" x="237.4152" y="-231.5" font-family="Helvetica,sans-Serif" font-size="10.00" fill="#000000">map/TerrainGenerator.hxx</text>
</a>
</g>
</g>
<!-- Node1&#45;&gt;Node20 -->
<g id="edge28" class="edge">
<title>Node1&#45;&gt;Node20</title>
<path fill="none" stroke="#191970" d="M237.4152,-280.2455C237.4152,-272.9382 237.4152,-262.6944 237.4152,-253.7046"/>
<polygon fill="#191970" stroke="#191970" points="240.9153,-253.6426 237.4152,-243.6427 233.9153,-253.6427 240.9153,-253.6426"/>
</g>
<!-- Node4&#45;&gt;Node2 -->
<g id="edge9" class="edge">
<title>Node4&#45;&gt;Node2</title>
<path fill="none" stroke="#191970" d="M532.0442,-171.1333C417.1017,-160.5583 211.4816,-140.6085 197.4152,-132 171.9711,-116.4284 169.0007,-104.5686 160.4152,-76 155.5255,-59.7291 162.8647,-41.5133 170.5187,-28.3474"/>
<polygon fill="#191970" stroke="#191970" points="173.5703,-30.0708 175.9772,-19.753 167.6613,-26.3179 173.5703,-30.0708"/>
</g>
<!-- Node5 -->
<g id="node6" class="node">
<title>Node5</title>
<polygon fill="none" stroke="#bfbfbf" points="542.4152,-56.5 542.4152,-75.5 586.4152,-75.5 586.4152,-56.5 542.4152,-56.5"/>
<text text-anchor="middle" x="564.4152" y="-63.5" font-family="Helvetica,sans-Serif" font-size="10.00" fill="#000000">SDL.h</text>
</g>
<!-- Node4&#45;&gt;Node5 -->
<g id="edge5" class="edge">
<title>Node4&#45;&gt;Node5</title>
<path fill="none" stroke="#191970" d="M621.2083,-168.3861C636.6716,-155.5411 659.2372,-132.068 647.4152,-112 641.5053,-101.9677 616.8171,-88.9899 595.8895,-79.378"/>
<polygon fill="#191970" stroke="#191970" points="597.1764,-76.1193 586.6197,-75.2212 594.3122,-82.5065 597.1764,-76.1193"/>
</g>
<!-- Node6 -->
<g id="node7" class="node">
<title>Node6</title>
<polygon fill="none" stroke="#bfbfbf" points="580.4152,-112.5 580.4152,-131.5 638.4152,-131.5 638.4152,-112.5 580.4152,-112.5"/>
<text text-anchor="middle" x="609.4152" y="-119.5" font-family="Helvetica,sans-Serif" font-size="10.00" fill="#000000">memory</text>
</g>
<!-- Node4&#45;&gt;Node6 -->
<g id="edge6" class="edge">
<title>Node4&#45;&gt;Node6</title>
<path fill="none" stroke="#191970" d="M608.5894,-168.2455C608.7199,-160.9382 608.9028,-150.6944 609.0634,-141.7046"/>
<polygon fill="#191970" stroke="#191970" points="612.5638,-141.7036 609.243,-131.6427 605.565,-141.5786 612.5638,-141.7036"/>
</g>
<!-- Node4&#45;&gt;Node7 -->
<g id="edge7" class="edge">
<title>Node4&#45;&gt;Node7</title>
<path fill="none" stroke="#191970" d="M624.1947,-168.4164C646.1546,-155.2011 687.3067,-130.8764 723.4152,-112 756.5379,-94.6845 765.6449,-92.0157 799.4152,-76 837.2004,-58.0803 880.7505,-37.397 908.8862,-24.0307"/>
<polygon fill="#191970" stroke="#191970" points="910.63,-27.0772 918.1605,-19.6245 907.6261,-20.7545 910.63,-27.0772"/>
</g>
<!-- Node8 -->
<g id="node9" class="node">
<title>Node8</title>
<polygon fill="none" stroke="#bfbfbf" points="732.4152,-112.5 732.4152,-131.5 796.4152,-131.5 796.4152,-112.5 732.4152,-112.5"/>
<text text-anchor="middle" x="764.4152" y="-119.5" font-family="Helvetica,sans-Serif" font-size="10.00" fill="#000000">algorithm</text>
</g>
<!-- Node4&#45;&gt;Node8 -->
<g id="edge8" class="edge">
<title>Node4&#45;&gt;Node8</title>
<path fill="none" stroke="#191970" d="M635.2326,-168.3733C660.9484,-159.1419 699.9532,-145.1402 728.3751,-134.9375"/>
<polygon fill="#191970" stroke="#191970" points="729.7184,-138.174 737.9478,-131.5011 727.3533,-131.5857 729.7184,-138.174"/>
</g>
<!-- Node9 -->
<g id="node10" class="node">
<title>Node9</title>
<g id="a_node10"><a xlink:href="Sprite_8hxx.html" target="_top" xlink:title="../Sprite.hxx">
<polygon fill="none" stroke="#000000" points="410.9152,-112.5 410.9152,-131.5 485.9152,-131.5 485.9152,-112.5 410.9152,-112.5"/>
<text text-anchor="middle" x="448.4152" y="-119.5" font-family="Helvetica,sans-Serif" font-size="10.00" fill="#000000">../Sprite.hxx</text>
</a>
</g>
</g>
<!-- Node4&#45;&gt;Node9 -->
<g id="edge10" class="edge">
<title>Node4&#45;&gt;Node9</title>
<path fill="none" stroke="#191970" d="M580.9102,-168.3733C554.535,-159.1419 514.5301,-145.1402 485.3794,-134.9375"/>
<polygon fill="#191970" stroke="#191970" points="486.1561,-131.5012 475.5613,-131.5011 483.8436,-138.1082 486.1561,-131.5012"/>
</g>
<!-- Node10 -->
<g id="node11" class="node">
<title>Node10</title>
<g id="a_node11"><a xlink:href="point_8hxx.html" target="_top" xlink:title="basics/point.hxx">
<polygon fill="none" stroke="#000000" points="302.4152,-56.5 302.4152,-75.5 398.4152,-75.5 398.4152,-56.5 302.4152,-56.5"/>
<text text-anchor="middle" x="350.4152" y="-63.5" font-family="Helvetica,sans-Serif" font-size="10.00" fill="#000000">basics/point.hxx</text>
</a>
</g>
</g>
<!-- Node4&#45;&gt;Node10 -->
<g id="edge16" class="edge">
<title>Node4&#45;&gt;Node10</title>
<path fill="none" stroke="#191970" d="M544.1854,-168.4839C492.8491,-160.0017 425.755,-146.6847 402.4152,-132 383.9816,-120.4021 369.3628,-99.8844 360.3788,-84.7954"/>
<polygon fill="#191970" stroke="#191970" points="363.2705,-82.7981 355.3053,-75.812 357.1754,-86.2405 363.2705,-82.7981"/>
</g>
<!-- Node11 -->
<g id="node12" class="node">
<title>Node11</title>
<g id="a_node12"><a xlink:href="enums_8hxx.html" target="_top" xlink:title="common/enums.hxx">
<polygon fill="none" stroke="#ff0000" points="436.4152,-.5 436.4152,-19.5 552.4152,-19.5 552.4152,-.5 436.4152,-.5"/>
<text text-anchor="middle" x="494.4152" y="-7.5" font-family="Helvetica,sans-Serif" font-size="10.00" fill="#000000">common/enums.hxx</text>
</a>
</g>
</g>
<!-- Node4&#45;&gt;Node11 -->
<g id="edge15" class="edge">
<title>Node4&#45;&gt;Node11</title>
<path fill="none" stroke="#191970" d="M600.2407,-168.3109C592.5821,-159.1243 580.9222,-144.8547 571.4152,-132 553.5302,-107.817 549.5183,-101.4044 533.4152,-76 523.3237,-60.0796 512.4618,-41.5746 504.7704,-28.2173"/>
<polygon fill="#191970" stroke="#191970" points="507.7923,-26.4511 499.7866,-19.5114 501.7173,-29.9288 507.7923,-26.4511"/>
</g>
<!-- Node14 -->
<g id="node13" class="node">
<title>Node14</title>
<g id="a_node13"><a xlink:href="TileManager_8hxx.html" target="_top" xlink:title="../TileManager.hxx">
<polygon fill="none" stroke="#000000" points="1004.4152,-112.5 1004.4152,-131.5 1110.4152,-131.5 1110.4152,-112.5 1004.4152,-112.5"/>
<text text-anchor="middle" x="1057.4152" y="-119.5" font-family="Helvetica,sans-Serif" font-size="10.00" fill="#000000">../TileManager.hxx</text>
</a>
</g>
</g>
<!-- Node4&#45;&gt;Node14 -->
<g id="edge17" class="edge">
<title>Node4&#45;&gt;Node14</title>
<path fill="none" stroke="#191970" d="M684.582,-168.5004C771.6789,-157.6375 912.6905,-140.0503 994.0407,-129.9042"/>
<polygon fill="#191970" stroke="#191970" points="994.6524,-133.3551 1004.1424,-128.6443 993.786,-126.4089 994.6524,-133.3551"/>
</g>
<!-- Node9&#45;&gt;Node2 -->
<g id="edge12" class="edge">
<title>Node9&#45;&gt;Node2</title>
<path fill="none" stroke="#191970" d="M445.1669,-112.163C439.7817,-97.4746 427.5558,-70.0387 407.4152,-56 377.0343,-34.8234 271.9698,-20.0819 217.2096,-13.643"/>
<polygon fill="#191970" stroke="#191970" points="217.2993,-10.1304 206.9653,-12.4664 216.5006,-17.0846 217.2993,-10.1304"/>
</g>
<!-- Node9&#45;&gt;Node5 -->
<g id="edge11" class="edge">
<title>Node9&#45;&gt;Node5</title>
<path fill="none" stroke="#191970" d="M468.3563,-112.3733C486.8939,-103.4241 514.718,-89.9917 535.6566,-79.8835"/>
<polygon fill="#191970" stroke="#191970" points="537.2504,-83.0006 544.7343,-75.5011 534.2072,-76.6967 537.2504,-83.0006"/>
</g>
<!-- Node9&#45;&gt;Node10 -->
<g id="edge13" class="edge">
<title>Node9&#45;&gt;Node10</title>
<path fill="none" stroke="#191970" d="M431.3449,-112.2455C416.1682,-103.5731 393.7531,-90.7645 376.3589,-80.825"/>
<polygon fill="#191970" stroke="#191970" points="377.7089,-77.5653 367.2899,-75.6427 374.2358,-83.643 377.7089,-77.5653"/>
</g>
<!-- Node9&#45;&gt;Node11 -->
<g id="edge14" class="edge">
<title>Node9&#45;&gt;Node11</title>
<path fill="none" stroke="#191970" d="M452.3372,-112.4509C459.9076,-94.0186 476.6619,-53.2254 486.594,-29.043"/>
<polygon fill="#191970" stroke="#191970" points="489.9415,-30.1048 490.5032,-19.5249 483.4664,-27.4454 489.9415,-30.1048"/>
</g>
<!-- Node14&#45;&gt;Node5 -->
<g id="edge18" class="edge">
<title>Node14&#45;&gt;Node5</title>
<path fill="none" stroke="#191970" d="M1004.0587,-113.756C999.4485,-113.1288 994.8524,-112.5334 990.4152,-112 815.8316,-91.0128 768.8547,-110.4172 596.4152,-76 596.3153,-75.9801 596.2153,-75.9599 596.1152,-75.9396"/>
<polygon fill="#191970" stroke="#191970" points="597.1854,-72.5987 586.6385,-73.6056 595.5114,-79.3956 597.1854,-72.5987"/>
</g>
<!-- Node14&#45;&gt;Node7 -->
<g id="edge20" class="edge">
<title>Node14&#45;&gt;Node7</title>
<path fill="none" stroke="#191970" d="M1071.9055,-112.3543C1089.7602,-99.2741 1116.0422,-75.3261 1101.4152,-56 1085.6777,-35.2065 1013.4968,-21.1442 970.6437,-14.4677"/>
<polygon fill="#191970" stroke="#191970" points="971.0999,-10.997 960.6899,-12.9673 970.0564,-17.9188 971.0999,-10.997"/>
</g>
<!-- Node15 -->
<g id="node14" class="node">
<title>Node15</title>
<polygon fill="none" stroke="#bfbfbf" points="1148.9152,-56.5 1148.9152,-75.5 1241.9152,-75.5 1241.9152,-56.5 1148.9152,-56.5"/>
<text text-anchor="middle" x="1195.4152" y="-63.5" font-family="Helvetica,sans-Serif" font-size="10.00" fill="#000000">unordered_map</text>
</g>
<!-- Node14&#45;&gt;Node15 -->
<g id="edge19" class="edge">
<title>Node14&#45;&gt;Node15</title>
<path fill="none" stroke="#191970" d="M1081.1383,-112.3733C1103.5889,-103.2629 1137.4891,-89.5062 1162.5407,-79.3404"/>
<polygon fill="#191970" stroke="#191970" points="1164.0517,-82.5045 1172.0017,-75.5011 1161.4195,-76.0182 1164.0517,-82.5045"/>
</g>
<!-- Node16 -->
<g id="node15" class="node">
<title>Node16</title>
<g id="a_node15"><a xlink:href="tileData_8hxx.html" target="_top" xlink:title="tileData.hxx">
<polygon fill="none" stroke="#000000" points="604.9152,-56.5 604.9152,-75.5 681.9152,-75.5 681.9152,-56.5 604.9152,-56.5"/>
<text text-anchor="middle" x="643.4152" y="-63.5" font-family="Helvetica,sans-Serif" font-size="10.00" fill="#000000">tileData.hxx</text>
</a>
</g>
</g>
<!-- Node14&#45;&gt;Node16 -->
<g id="edge21" class="edge">
<title>Node14&#45;&gt;Node16</title>
<path fill="none" stroke="#191970" d="M1004.4047,-113.9464C999.6764,-113.2709 994.9608,-112.6127 990.4152,-112 861.0048,-94.5555 825.23,-97.5087 692.2999,-76.0229"/>
<polygon fill="#191970" stroke="#191970" points="692.568,-72.5204 682.1347,-74.3632 691.44,-79.4289 692.568,-72.5204"/>
</g>
<!-- Node14&#45;&gt;Node17 -->
<g id="edge25" class="edge">
<title>Node14&#45;&gt;Node17</title>
<path fill="none" stroke="#191970" d="M1110.5308,-118.706C1275.5794,-108.4704 1777.086,-77.3693 1921.263,-68.428"/>
<polygon fill="#191970" stroke="#191970" points="1921.6408,-71.9114 1931.4049,-67.7991 1921.2074,-64.9249 1921.6408,-71.9114"/>
</g>
<!-- Node18 -->
<g id="node17" class="node">
<title>Node18</title>
<g id="a_node17"><a xlink:href="Singleton_8hxx.html" target="_top" xlink:title="Singleton.hxx">
<polygon fill="none" stroke="#000000" points="1456.9152,-56.5 1456.9152,-75.5 1539.9152,-75.5 1539.9152,-56.5 1456.9152,-56.5"/>
<text text-anchor="middle" x="1498.4152" y="-63.5" font-family="Helvetica,sans-Serif" font-size="10.00" fill="#000000">Singleton.hxx</text>
</a>
</g>
</g>
<!-- Node14&#45;&gt;Node18 -->
<g id="edge26" class="edge">
<title>Node14&#45;&gt;Node18</title>
<path fill="none" stroke="#191970" d="M1110.6101,-115.2451C1195.937,-104.4099 1362.3499,-83.2781 1446.7173,-72.5648"/>
<polygon fill="#191970" stroke="#191970" points="1447.3546,-76.0121 1456.834,-71.2802 1446.4727,-69.0679 1447.3546,-76.0121"/>
</g>
<!-- Node19 -->
<g id="node18" class="node">
<title>Node19</title>
<polygon fill="none" stroke="#bfbfbf" points="966.9152,-56.5 966.9152,-75.5 1091.9152,-75.5 1091.9152,-56.5 966.9152,-56.5"/>
<text text-anchor="middle" x="1029.4152" y="-63.5" font-family="Helvetica,sans-Serif" font-size="10.00" fill="#000000">../common/enums.hxx</text>
</g>
<!-- Node14&#45;&gt;Node19 -->
<g id="edge27" class="edge">
<title>Node14&#45;&gt;Node19</title>
<path fill="none" stroke="#191970" d="M1052.538,-112.2455C1048.7639,-104.6973 1043.4231,-94.0158 1038.8251,-84.8197"/>
<polygon fill="#191970" stroke="#191970" points="1041.8392,-83.0217 1034.2366,-75.6427 1035.5783,-86.1522 1041.8392,-83.0217"/>
</g>
<!-- Node16&#45;&gt;Node2 -->
<g id="edge23" class="edge">
<title>Node16&#45;&gt;Node2</title>
<path fill="none" stroke="#191970" d="M604.7005,-57.6079C601.5656,-57.028 598.4413,-56.4831 595.4152,-56 455.8169,-33.7162 287.8978,-18.5478 217.2948,-12.6942"/>
<polygon fill="#191970" stroke="#191970" points="217.4608,-9.1962 207.208,-11.8667 216.8883,-16.1727 217.4608,-9.1962"/>
</g>
<!-- Node16&#45;&gt;Node7 -->
<g id="edge22" class="edge">
<title>Node16&#45;&gt;Node7</title>
<path fill="none" stroke="#191970" d="M682.1735,-57.8516C685.2986,-57.2171 688.4087,-56.5931 691.4152,-56 768.4003,-40.8138 859.1586,-24.2557 906.3171,-15.7527"/>
<polygon fill="#191970" stroke="#191970" points="907.0222,-19.1821 916.244,-13.9658 905.7821,-12.2929 907.0222,-19.1821"/>
</g>
<!-- Node16&#45;&gt;Node11 -->
<g id="edge24" class="edge">
<title>Node16&#45;&gt;Node11</title>
<path fill="none" stroke="#191970" d="M617.8012,-56.3733C593.3465,-47.1822 556.3098,-33.2624 529.1943,-23.0713"/>
<polygon fill="#191970" stroke="#191970" points="530.2871,-19.7431 519.695,-19.5011 527.8243,-26.2956 530.2871,-19.7431"/>
</g>
<!-- Node20&#45;&gt;Node2 -->
<g id="edge31" class="edge">
<title>Node20&#45;&gt;Node2</title>
<path fill="none" stroke="#191970" d="M216.4614,-224.4578C186.6593,-209.5753 133.2284,-177.723 111.4152,-132 105.0267,-118.6088 100.9771,-79.5707 114.4152,-56 122.5263,-41.7729 137.0523,-31.1071 150.691,-23.6466"/>
<polygon fill="#191970" stroke="#191970" points="152.5569,-26.6252 159.9017,-18.9894 149.3983,-20.3783 152.5569,-26.6252"/>
</g>
<!-- Node20&#45;&gt;Node4 -->
<g id="edge29" class="edge">
<title>Node20&#45;&gt;Node4</title>
<path fill="none" stroke="#191970" d="M300.7709,-224.4369C365.7319,-214.6314 466.6688,-199.3957 535.0556,-189.0731"/>
<polygon fill="#191970" stroke="#191970" points="535.9553,-192.4771 545.3209,-187.5237 534.9105,-185.5555 535.9553,-192.4771"/>
</g>
<!-- Node21 -->
<g id="node20" class="node">
<title>Node21</title>
<polygon fill="none" stroke="#bfbfbf" points="218.4152,-168.5 218.4152,-187.5 256.4152,-187.5 256.4152,-168.5 218.4152,-168.5"/>
<text text-anchor="middle" x="237.4152" y="-175.5" font-family="Helvetica,sans-Serif" font-size="10.00" fill="#000000">map</text>
</g>
<!-- Node20&#45;&gt;Node21 -->
<g id="edge30" class="edge">
<title>Node20&#45;&gt;Node21</title>
<path fill="none" stroke="#191970" d="M237.4152,-224.2455C237.4152,-216.9382 237.4152,-206.6944 237.4152,-197.7046"/>
<polygon fill="#191970" stroke="#191970" points="240.9153,-197.6426 237.4152,-187.6427 233.9153,-197.6427 240.9153,-197.6426"/>
</g>
<!-- Node22&#45;&gt;Node5 -->
<g id="edge33" class="edge">
<title>Node22&#45;&gt;Node5</title>
<path fill="none" stroke="#191970" d="M313.1585,-112.4369C375.9361,-100.8344 479.852,-81.6289 532.1863,-71.9565"/>
<polygon fill="#191970" stroke="#191970" points="533.0407,-75.358 542.238,-70.0988 531.7684,-68.4745 533.0407,-75.358"/>
</g>
<!-- Node22&#45;&gt;Node10 -->
<g id="edge34" class="edge">
<title>Node22&#45;&gt;Node10</title>
<path fill="none" stroke="#191970" d="M276.9178,-112.2455C290.5732,-103.6534 310.6809,-91.0014 326.4141,-81.1018"/>
<polygon fill="#191970" stroke="#191970" points="328.4903,-83.9307 335.0903,-75.6427 324.7623,-78.006 328.4903,-83.9307"/>
</g>
<!-- Node23&#45;&gt;Node2 -->
<g id="edge38" class="edge">
<title>Node23&#45;&gt;Node2</title>
<path fill="none" stroke="#191970" d="M365.084,-173.1995C284.2385,-165.6185 141.7192,-149.8847 126.4152,-132 104.4542,-106.3358 111.848,-86.4751 126.4152,-56 132.56,-43.1449 144.2452,-32.7306 155.4437,-25.0832"/>
<polygon fill="#191970" stroke="#191970" points="157.6193,-27.8488 164.2052,-19.5495 153.8813,-21.9304 157.6193,-27.8488"/>
</g>
<!-- Node23&#45;&gt;Node5 -->
<g id="edge37" class="edge">
<title>Node23&#45;&gt;Node5</title>
<path fill="none" stroke="#191970" d="M438.3872,-168.4108C454.0337,-159.7332 477.0261,-146.1741 495.4152,-132 514.9513,-116.9418 535.088,-97.0911 548.527,-83.1063"/>
<polygon fill="#191970" stroke="#191970" points="551.273,-85.297 555.6106,-75.6307 546.1918,-80.4822 551.273,-85.297"/>
</g>
<!-- Node23&#45;&gt;Node8 -->
<g id="edge39" class="edge">
<title>Node23&#45;&gt;Node8</title>
<path fill="none" stroke="#191970" d="M475.6848,-169.0026C544.2679,-157.8379 659.7339,-139.0412 721.8347,-128.9317"/>
<polygon fill="#191970" stroke="#191970" points="722.7497,-132.3289 732.0574,-127.2676 721.6249,-125.4199 722.7497,-132.3289"/>
</g>
<!-- Node23&#45;&gt;Node10 -->
<g id="edge36" class="edge">
<title>Node23&#45;&gt;Node10</title>
<path fill="none" stroke="#191970" d="M365.3261,-174.419C306.2808,-169.2973 218.2024,-157.5127 197.4152,-132 191.8005,-125.1089 192.1113,-119.1331 197.4152,-112 203.793,-103.4227 257.9603,-88.4973 300.0548,-77.9781"/>
<polygon fill="#191970" stroke="#191970" points="301.0484,-81.3379 309.9151,-75.5387 299.3672,-74.5428 301.0484,-81.3379"/>
</g>
<!-- Node24&#45;&gt;Node7 -->
<g id="edge41" class="edge">
<title>Node24&#45;&gt;Node7</title>
<path fill="none" stroke="#191970" d="M886.1142,-224.3885C887.2645,-211.347 890.0928,-187.4427 896.4152,-168 901.9472,-150.9883 908.6364,-148.9294 914.4152,-132 926.3348,-97.0806 933.0367,-54.4027 936.1746,-29.8945"/>
<polygon fill="#191970" stroke="#191970" points="939.679,-30.0681 937.4039,-19.7205 932.7295,-29.2284 939.679,-30.0681"/>
</g>
<!-- Node25&#45;&gt;Node7 -->
<g id="edge43" class="edge">
<title>Node25&#45;&gt;Node7</title>
<path fill="none" stroke="#191970" d="M1718.0562,-230.3121C1776.8317,-225.1204 1863.822,-213.2977 1884.4152,-188 1890.0269,-181.1064 1889.3321,-175.4052 1884.4152,-168 1813.4606,-61.1367 1743.2224,-85.6224 1618.4152,-56 1492.9578,-26.2233 1088.2533,-13.8067 970.7082,-10.7732"/>
<polygon fill="#191970" stroke="#191970" points="970.6417,-7.2705 960.5563,-10.5163 970.4645,-14.2683 970.6417,-7.2705"/>
</g>
<!-- Node25&#45;&gt;Node18 -->
<g id="edge44" class="edge">
<title>Node25&#45;&gt;Node18</title>
<path fill="none" stroke="#191970" d="M1670.7745,-224.3524C1688.939,-202.1862 1728.2254,-146.8552 1700.4152,-112 1681.9228,-88.823 1603.4632,-76.4196 1549.9493,-70.5261"/>
<polygon fill="#191970" stroke="#191970" points="1550.2489,-67.0383 1539.9361,-69.4666 1549.5122,-73.9995 1550.2489,-67.0383"/>
</g>
<!-- Node26 -->
<g id="node25" class="node">
<title>Node26</title>
<g id="a_node25"><a xlink:href="Meta_8hxx.html" target="_top" xlink:title="../../util/Meta.hxx">
<polygon fill="none" stroke="#000000" points="1555.4152,-168.5 1555.4152,-187.5 1653.4152,-187.5 1653.4152,-168.5 1555.4152,-168.5"/>
<text text-anchor="middle" x="1604.4152" y="-175.5" font-family="Helvetica,sans-Serif" font-size="10.00" fill="#000000">../../util/Meta.hxx</text>
</a>
</g>
</g>
<!-- Node25&#45;&gt;Node26 -->
<g id="edge45" class="edge">
<title>Node25&#45;&gt;Node26</title>
<path fill="none" stroke="#191970" d="M1652.3124,-224.2455C1643.9124,-216.1352 1631.7659,-204.4075 1621.8069,-194.7919"/>
<polygon fill="#191970" stroke="#191970" points="1624.0274,-192.0707 1614.4023,-187.6427 1619.1652,-197.1066 1624.0274,-192.0707"/>
</g>
<!-- Node31 -->
<g id="node30" class="node">
<title>Node31</title>
<polygon fill="none" stroke="#bfbfbf" points="1747.9152,-168.5 1747.9152,-187.5 1800.9152,-187.5 1800.9152,-168.5 1747.9152,-168.5"/>
<text text-anchor="middle" x="1774.4152" y="-175.5" font-family="Helvetica,sans-Serif" font-size="10.00" fill="#000000">cstddef</text>
</g>
<!-- Node25&#45;&gt;Node31 -->
<g id="edge50" class="edge">
<title>Node25&#45;&gt;Node31</title>
<path fill="none" stroke="#191970" d="M1681.6687,-224.3733C1699.4864,-215.4644 1726.1899,-202.1127 1746.3746,-192.0203"/>
<polygon fill="#191970" stroke="#191970" points="1748.034,-195.1038 1755.413,-187.5011 1744.9034,-188.8428 1748.034,-195.1038"/>
</g>
<!-- Node27 -->
<g id="node26" class="node">
<title>Node27</title>
<polygon fill="none" stroke="#bfbfbf" points="1415.4152,-112.5 1415.4152,-131.5 1475.4152,-131.5 1475.4152,-112.5 1415.4152,-112.5"/>
<text text-anchor="middle" x="1445.4152" y="-119.5" font-family="Helvetica,sans-Serif" font-size="10.00" fill="#000000">iostream</text>
</g>
<!-- Node26&#45;&gt;Node27 -->
<g id="edge46" class="edge">
<title>Node26&#45;&gt;Node27</title>
<path fill="none" stroke="#191970" d="M1577.0821,-168.3733C1550.8718,-159.1419 1511.1169,-145.1402 1482.1484,-134.9375"/>
<polygon fill="#191970" stroke="#191970" points="1482.9864,-131.5219 1472.3916,-131.5011 1480.661,-138.1244 1482.9864,-131.5219"/>
</g>
<!-- Node28 -->
<g id="node27" class="node">
<title>Node28</title>
<polygon fill="none" stroke="#bfbfbf" points="1621.9152,-112.5 1621.9152,-131.5 1690.9152,-131.5 1690.9152,-112.5 1621.9152,-112.5"/>
<text text-anchor="middle" x="1656.4152" y="-119.5" font-family="Helvetica,sans-Serif" font-size="10.00" fill="#000000">type_traits</text>
</g>
<!-- Node26&#45;&gt;Node28 -->
<g id="edge47" class="edge">
<title>Node26&#45;&gt;Node28</title>
<path fill="none" stroke="#191970" d="M1613.4729,-168.2455C1620.9294,-160.2155 1631.6786,-148.6394 1640.5569,-139.0781"/>
<polygon fill="#191970" stroke="#191970" points="1643.2216,-141.3522 1647.4613,-131.6427 1638.092,-136.589 1643.2216,-141.3522"/>
</g>
<!-- Node29 -->
<g id="node28" class="node">
<title>Node29</title>
<polygon fill="none" stroke="#bfbfbf" points="1493.9152,-112.5 1493.9152,-131.5 1544.9152,-131.5 1544.9152,-112.5 1493.9152,-112.5"/>
<text text-anchor="middle" x="1519.4152" y="-119.5" font-family="Helvetica,sans-Serif" font-size="10.00" fill="#000000">variant</text>
</g>
<!-- Node26&#45;&gt;Node29 -->
<g id="edge48" class="edge">
<title>Node26&#45;&gt;Node29</title>
<path fill="none" stroke="#191970" d="M1589.6094,-168.2455C1576.6896,-159.7337 1557.7221,-147.2375 1542.76,-137.3801"/>
<polygon fill="#191970" stroke="#191970" points="1544.3276,-134.2216 1534.0514,-131.6427 1540.4765,-140.067 1544.3276,-134.2216"/>
</g>
<!-- Node30 -->
<g id="node29" class="node">
<title>Node30</title>
<polygon fill="none" stroke="#bfbfbf" points="1562.9152,-112.5 1562.9152,-131.5 1603.9152,-131.5 1603.9152,-112.5 1562.9152,-112.5"/>
<text text-anchor="middle" x="1583.4152" y="-119.5" font-family="Helvetica,sans-Serif" font-size="10.00" fill="#000000">tuple</text>
</g>
<!-- Node26&#45;&gt;Node30 -->
<g id="edge49" class="edge">
<title>Node26&#45;&gt;Node30</title>
<path fill="none" stroke="#191970" d="M1600.7573,-168.2455C1597.9568,-160.7776 1594.0062,-150.2427 1590.5829,-141.1137"/>
<polygon fill="#191970" stroke="#191970" points="1593.8197,-139.777 1587.0312,-131.6427 1587.2654,-142.2349 1593.8197,-139.777"/>
</g>
<!-- Node32&#45;&gt;Node5 -->
<g id="edge61" class="edge">
<title>Node32&#45;&gt;Node5</title>
<path fill="none" stroke="#191970" d="M1276.3553,-232.8977C1194.7817,-229.4644 965.1589,-217.3816 896.4152,-188 847.9611,-167.2903 853.2421,-134.1197 805.4152,-112 719.8651,-72.4334 688.0432,-98.1056 596.4152,-76 596.3162,-75.9761 596.217,-75.9521 596.1178,-75.9279"/>
<polygon fill="#191970" stroke="#191970" points="597.2568,-72.6104 586.6896,-73.3741 595.4266,-79.3669 597.2568,-72.6104"/>
</g>
<!-- Node32&#45;&gt;Node7 -->
<g id="edge52" class="edge">
<title>Node32&#45;&gt;Node7</title>
<path fill="none" stroke="#191970" d="M1334.6744,-226.8829C1339.5781,-225.8246 1344.6275,-224.8169 1349.4152,-224 1418.4319,-212.2242 1602.5281,-224.2699 1662.4152,-188 1694.7176,-168.4365 1721.9822,-143.0006 1700.4152,-112 1659.5382,-53.2427 1619.3427,-71.2808 1549.4152,-56 1437.274,-31.4946 1079.9791,-15.6148 970.5672,-11.2331"/>
<polygon fill="#191970" stroke="#191970" points="970.6105,-7.7322 960.4799,-10.8338 970.3335,-14.7267 970.6105,-7.7322"/>
</g>
<!-- Node32&#45;&gt;Node8 -->
<g id="edge62" class="edge">
<title>Node32&#45;&gt;Node8</title>
<path fill="none" stroke="#191970" d="M1276.3427,-232.7934C1190.6026,-228.9499 939.9895,-215.5923 863.4152,-188 832.4064,-176.8265 801.5919,-153.9412 782.7762,-138.2847"/>
<polygon fill="#191970" stroke="#191970" points="784.8977,-135.494 775.0179,-131.6678 780.3553,-140.82 784.8977,-135.494"/>
</g>
<!-- Node32&#45;&gt;Node26 -->
<g id="edge64" class="edge">
<title>Node32&#45;&gt;Node26</title>
<path fill="none" stroke="#191970" d="M1334.7237,-227.1459C1339.6214,-226.056 1344.6561,-224.9696 1349.4152,-224 1416.3616,-210.3613 1493.6242,-196.7151 1545.4002,-187.8706"/>
<polygon fill="#191970" stroke="#191970" points="1546.1343,-191.2961 1555.4049,-186.1671 1544.9593,-184.3954 1546.1343,-191.2961"/>
</g>
<!-- Node32&#45;&gt;Node27 -->
<g id="edge56" class="edge">
<title>Node32&#45;&gt;Node27</title>
<path fill="none" stroke="#191970" d="M1334.7626,-227.3267C1339.6556,-226.215 1344.6787,-225.0745 1349.4152,-224 1420.0754,-207.9712 1463.1908,-244.6086 1508.4152,-188 1523.5156,-169.0985 1498.1757,-149.2593 1475.2735,-136.3286"/>
<polygon fill="#191970" stroke="#191970" points="1476.8495,-133.2023 1466.3823,-131.5627 1473.5425,-139.3719 1476.8495,-133.2023"/>
</g>
<!-- Node33 -->
<g id="node32" class="node">
<title>Node33</title>
<g id="a_node32"><a xlink:href="Exception_8hxx.html" target="_top" xlink:title="Exception.hxx">
<polygon fill="none" stroke="#000000" points="1413.4152,-168.5 1413.4152,-187.5 1499.4152,-187.5 1499.4152,-168.5 1413.4152,-168.5"/>
<text text-anchor="middle" x="1456.4152" y="-175.5" font-family="Helvetica,sans-Serif" font-size="10.00" fill="#000000">Exception.hxx</text>
</a>
</g>
</g>
<!-- Node32&#45;&gt;Node33 -->
<g id="edge53" class="edge">
<title>Node32&#45;&gt;Node33</title>
<path fill="none" stroke="#191970" d="M1331.373,-224.3733C1356.156,-215.1822 1393.6898,-201.2624 1421.1693,-191.0713"/>
<polygon fill="#191970" stroke="#191970" points="1422.6372,-194.26 1430.7961,-187.5011 1420.2031,-187.6968 1422.6372,-194.26"/>
</g>
<!-- Node36 -->
<g id="node35" class="node">
<title>Node36</title>
<polygon fill="none" stroke="#bfbfbf" points="1143.4152,-168.5 1143.4152,-187.5 1193.4152,-187.5 1193.4152,-168.5 1143.4152,-168.5"/>
<text text-anchor="middle" x="1168.4152" y="-175.5" font-family="Helvetica,sans-Serif" font-size="10.00" fill="#000000">chrono</text>
</g>
<!-- Node32&#45;&gt;Node36 -->
<g id="edge57" class="edge">
<title>Node32&#45;&gt;Node36</title>
<path fill="none" stroke="#191970" d="M1281.8641,-224.3733C1259.5762,-215.2629 1225.9216,-201.5062 1201.0515,-191.3404"/>
<polygon fill="#191970" stroke="#191970" points="1202.2399,-188.0451 1191.659,-187.5011 1199.5913,-194.5247 1202.2399,-188.0451"/>
</g>
<!-- Node37 -->
<g id="node36" class="node">
<title>Node37</title>
<polygon fill="none" stroke="#bfbfbf" points="1211.4152,-168.5 1211.4152,-187.5 1255.4152,-187.5 1255.4152,-168.5 1211.4152,-168.5"/>
<text text-anchor="middle" x="1233.4152" y="-175.5" font-family="Helvetica,sans-Serif" font-size="10.00" fill="#000000">ctime</text>
</g>
<!-- Node32&#45;&gt;Node37 -->
<g id="edge58" class="edge">
<title>Node32&#45;&gt;Node37</title>
<path fill="none" stroke="#191970" d="M1292.8738,-224.2455C1282.1365,-215.8943 1266.4679,-203.7076 1253.9106,-193.9408"/>
<polygon fill="#191970" stroke="#191970" points="1255.8553,-191.0194 1245.8129,-187.6427 1251.5577,-196.5449 1255.8553,-191.0194"/>
</g>
<!-- Node38 -->
<g id="node37" class="node">
<title>Node38</title>
<polygon fill="none" stroke="#bfbfbf" points="1273.9152,-168.5 1273.9152,-187.5 1328.9152,-187.5 1328.9152,-168.5 1273.9152,-168.5"/>
<text text-anchor="middle" x="1301.4152" y="-175.5" font-family="Helvetica,sans-Serif" font-size="10.00" fill="#000000">fstream</text>
</g>
<!-- Node32&#45;&gt;Node38 -->
<g id="edge59" class="edge">
<title>Node32&#45;&gt;Node38</title>
<path fill="none" stroke="#191970" d="M1304.7185,-224.2455C1304.1965,-216.9382 1303.4648,-206.6944 1302.8227,-197.7046"/>
<polygon fill="#191970" stroke="#191970" points="1306.3077,-197.3679 1302.104,-187.6427 1299.3254,-197.8667 1306.3077,-197.3679"/>
</g>
<!-- Node32&#45;&gt;Node39 -->
<g id="edge60" class="edge">
<title>Node32&#45;&gt;Node39</title>
<path fill="none" stroke="#191970" d="M1334.6501,-226.7318C1339.5566,-225.6917 1344.6134,-224.7292 1349.4152,-224 1549.3246,-193.6425 1606.0776,-222.0161 1809.1577,-187.9168"/>
<polygon fill="#191970" stroke="#191970" points="1809.9872,-191.3258 1819.2543,-186.1906 1808.8075,-184.4259 1809.9872,-191.3258"/>
</g>
<!-- Node40 -->
<g id="node39" class="node">
<title>Node40</title>
<polygon fill="none" stroke="#bfbfbf" points="1347.4152,-168.5 1347.4152,-187.5 1395.4152,-187.5 1395.4152,-168.5 1347.4152,-168.5"/>
<text text-anchor="middle" x="1371.4152" y="-175.5" font-family="Helvetica,sans-Serif" font-size="10.00" fill="#000000">mutex</text>
</g>
<!-- Node32&#45;&gt;Node40 -->
<g id="edge63" class="edge">
<title>Node32&#45;&gt;Node40</title>
<path fill="none" stroke="#191970" d="M1316.9115,-224.2455C1326.6594,-215.9746 1340.8412,-203.9416 1352.295,-194.2232"/>
<polygon fill="#191970" stroke="#191970" points="1354.69,-196.7813 1360.0506,-187.6427 1350.1611,-191.4437 1354.69,-196.7813"/>
</g>
<!-- Node41 -->
<g id="node40" class="node">
<title>Node41</title>
<g id="a_node40"><a xlink:href="LOG_8inl_8hxx.html" target="_top" xlink:title="LOG.inl.hxx">
<polygon fill="none" stroke="#000000" points="1051.9152,-168.5 1051.9152,-187.5 1124.9152,-187.5 1124.9152,-168.5 1051.9152,-168.5"/>
<text text-anchor="middle" x="1088.4152" y="-175.5" font-family="Helvetica,sans-Serif" font-size="10.00" fill="#000000">LOG.inl.hxx</text>
</a>
</g>
</g>
<!-- Node32&#45;&gt;Node41 -->
<g id="edge65" class="edge">
<title>Node32&#45;&gt;Node41</title>
<path fill="none" stroke="#191970" d="M1276.1496,-226.4476C1239.9496,-217.1056 1177.8756,-201.0866 1135.0753,-190.0413"/>
<polygon fill="#191970" stroke="#191970" points="1135.7338,-186.5966 1125.1764,-187.4868 1133.9846,-193.3746 1135.7338,-186.5966"/>
</g>
<!-- Node34 -->
<g id="node33" class="node">
<title>Node34</title>
<polygon fill="none" stroke="#bfbfbf" points="1331.9152,-112.5 1331.9152,-131.5 1396.9152,-131.5 1396.9152,-112.5 1331.9152,-112.5"/>
<text text-anchor="middle" x="1364.4152" y="-119.5" font-family="Helvetica,sans-Serif" font-size="10.00" fill="#000000">stdexcept</text>
</g>
<!-- Node33&#45;&gt;Node34 -->
<g id="edge54" class="edge">
<title>Node33&#45;&gt;Node34</title>
<path fill="none" stroke="#191970" d="M1440.39,-168.2455C1426.2744,-159.6534 1405.4889,-147.0014 1389.2253,-137.1018"/>
<polygon fill="#191970" stroke="#191970" points="1390.6186,-133.8525 1380.2568,-131.6427 1386.9789,-139.8319 1390.6186,-133.8525"/>
</g>
<!-- Node35 -->
<g id="node34" class="node">
<title>Node35</title>
<polygon fill="none" stroke="#bfbfbf" points="1248.9152,-112.5 1248.9152,-131.5 1313.9152,-131.5 1313.9152,-112.5 1248.9152,-112.5"/>
<text text-anchor="middle" x="1281.4152" y="-119.5" font-family="Helvetica,sans-Serif" font-size="10.00" fill="#000000">exception</text>
</g>
<!-- Node33&#45;&gt;Node35 -->
<g id="edge55" class="edge">
<title>Node33&#45;&gt;Node35</title>
<path fill="none" stroke="#191970" d="M1426.3317,-168.3733C1397.2318,-159.0613 1352.9629,-144.8953 1321.0122,-134.671"/>
<polygon fill="#191970" stroke="#191970" points="1321.6972,-131.2155 1311.1062,-131.5011 1319.5637,-137.8824 1321.6972,-131.2155"/>
</g>
<!-- Node42&#45;&gt;Node7 -->
<g id="edge68" class="edge">
<title>Node42&#45;&gt;Node7</title>
<path fill="none" stroke="#191970" d="M1446.6345,-287.0243C1638.726,-276.3573 2165.7721,-230.7771 1998.4152,-56 1961.9944,-17.9643 1144.5896,-11.1752 970.7393,-10.1601"/>
<polygon fill="#191970" stroke="#191970" points="970.6984,-6.6599 960.6789,-10.1037 970.6591,-13.6598 970.6984,-6.6599"/>
</g>
<!-- Node42&#45;&gt;Node32 -->
<g id="edge70" class="edge">
<title>Node42&#45;&gt;Node32</title>
<path fill="none" stroke="#191970" d="M1366.5254,-280.2455C1355.4899,-271.8943 1339.386,-259.7076 1326.4799,-249.9408"/>
<polygon fill="#191970" stroke="#191970" points="1328.2435,-246.8862 1318.1573,-243.6427 1324.0193,-252.4681 1328.2435,-246.8862"/>
</g>
<!-- Node42&#45;&gt;Node33 -->
<g id="edge69" class="edge">
<title>Node42&#45;&gt;Node33</title>
<path fill="none" stroke="#191970" d="M1385.9802,-280.4509C1398.8229,-261.7707 1427.4551,-220.1238 1443.9879,-196.0761"/>
<polygon fill="#191970" stroke="#191970" points="1447.0857,-197.7482 1449.8669,-187.5249 1441.3174,-193.7825 1447.0857,-197.7482"/>
</g>
<!-- Node43 -->
<g id="node42" class="node">
<title>Node43</title>
<polygon fill="none" stroke="#bfbfbf" points="1357.9152,-224.5 1357.9152,-243.5 1400.9152,-243.5 1400.9152,-224.5 1357.9152,-224.5"/>
<text text-anchor="middle" x="1379.4152" y="-231.5" font-family="Helvetica,sans-Serif" font-size="10.00" fill="#000000">zlib.h</text>
</g>
<!-- Node42&#45;&gt;Node43 -->
<g id="edge67" class="edge">
<title>Node42&#45;&gt;Node43</title>
<path fill="none" stroke="#191970" d="M1379.4152,-280.2455C1379.4152,-272.9382 1379.4152,-262.6944 1379.4152,-253.7046"/>
<polygon fill="#191970" stroke="#191970" points="1382.9153,-253.6426 1379.4152,-243.6427 1375.9153,-253.6427 1382.9153,-253.6426"/>
</g>
<!-- Node45&#45;&gt;Node5 -->
<g id="edge75" class="edge">
<title>Node45&#45;&gt;Node5</title>
<path fill="none" stroke="#191970" d="M954.3702,-168.3981C930.6908,-153.7629 882.8372,-126.0919 838.4152,-112 734.7664,-79.1196 702.4067,-100.2902 596.4152,-76 596.3159,-75.9772 596.2165,-75.9543 596.117,-75.9313"/>
<polygon fill="#191970" stroke="#191970" points="597.2359,-72.6068 586.6739,-73.4406 595.4506,-79.3753 597.2359,-72.6068"/>
</g>
<!-- Node45&#45;&gt;Node14 -->
<g id="edge76" class="edge">
<title>Node45&#45;&gt;Node14</title>
<path fill="none" stroke="#191970" d="M984.7437,-168.2455C998.2456,-159.6534 1018.1274,-147.0014 1033.6838,-137.1018"/>
<polygon fill="#191970" stroke="#191970" points="1035.7049,-139.9643 1042.2624,-131.6427 1031.9467,-134.0587 1035.7049,-139.9643"/>
</g>
<!-- Node45&#45;&gt;Node15 -->
<g id="edge74" class="edge">
<title>Node45&#45;&gt;Node15</title>
<path fill="none" stroke="#191970" d="M1018.4247,-168.4329C1048.7788,-161.2106 1087.8523,-149.5031 1119.4152,-132 1142.6259,-119.1286 1165.0455,-98.3001 1179.4434,-83.486"/>
<polygon fill="#191970" stroke="#191970" points="1182.2337,-85.6298 1186.571,-75.9634 1177.1524,-80.8152 1182.2337,-85.6298"/>
</g>
<!-- Node45&#45;&gt;Node27 -->
<g id="edge73" class="edge">
<title>Node45&#45;&gt;Node27</title>
<path fill="none" stroke="#191970" d="M1033.5729,-169.1884C1036.9002,-168.7757 1040.1962,-168.377 1043.4152,-168 1201.1372,-149.5281 1244.9787,-159.7739 1405.0699,-132.0046"/>
<polygon fill="#191970" stroke="#191970" points="1406.0375,-135.3882 1415.2805,-130.2097 1404.8255,-128.4939 1406.0375,-135.3882"/>
</g>
<!-- Node46&#45;&gt;Node2 -->
<g id="edge79" class="edge">
<title>Node46&#45;&gt;Node2</title>
<path fill="none" stroke="#191970" d="M218.9252,-56.2455C212.8826,-48.3761 204.2249,-37.101 196.9711,-27.6542"/>
<polygon fill="#191970" stroke="#191970" points="199.6858,-25.4426 190.8194,-19.6427 194.1337,-29.7058 199.6858,-25.4426"/>
</g>
<!-- Node46&#45;&gt;Node11 -->
<g id="edge78" class="edge">
<title>Node46&#45;&gt;Node11</title>
<path fill="none" stroke="#191970" d="M272.1816,-56.4369C318.3368,-46.7925 389.633,-31.8948 438.969,-21.5858"/>
<polygon fill="#191970" stroke="#191970" points="439.765,-24.9951 448.8377,-19.5237 438.3332,-18.1431 439.765,-24.9951"/>
</g>
<!-- Node47&#45;&gt;Node4 -->
<g id="edge83" class="edge">
<title>Node47&#45;&gt;Node4</title>
<path fill="none" stroke="#191970" d="M612.9889,-280.4509C612.1734,-262.184 610.3775,-221.9553 609.2946,-197.6976"/>
<polygon fill="#191970" stroke="#191970" points="612.783,-197.3588 608.8404,-187.5249 605.79,-197.6711 612.783,-197.3588"/>
</g>
<!-- Node47&#45;&gt;Node10 -->
<g id="edge82" class="edge">
<title>Node47&#45;&gt;Node10</title>
<path fill="none" stroke="#191970" d="M605.7537,-280.2659C587.2876,-257.426 537.8777,-199.9204 484.4152,-168 440.6107,-141.846 412.2594,-167.2898 375.4152,-132 362.7229,-119.8431 356.4052,-100.5893 353.3033,-86.008"/>
<polygon fill="#191970" stroke="#191970" points="356.7126,-85.1903 351.5057,-75.9632 349.8221,-86.4234 356.7126,-85.1903"/>
</g>
<!-- Node47&#45;&gt;Node17 -->
<g id="edge81" class="edge">
<title>Node47&#45;&gt;Node17</title>
<path fill="none" stroke="#191970" d="M695.6902,-287.9004C936.1239,-281.5828 1626.9814,-262.0698 1727.4152,-244 1806.5389,-229.7642 1838.4974,-240.4617 1899.4152,-188 1931.2724,-160.565 1948.2814,-112.506 1955.715,-85.6241"/>
<polygon fill="#191970" stroke="#191970" points="1959.1329,-86.3867 1958.256,-75.8283 1952.3572,-84.6291 1959.1329,-86.3867"/>
</g>
<!-- Node47&#45;&gt;Node20 -->
<g id="edge84" class="edge">
<title>Node47&#45;&gt;Node20</title>
<path fill="none" stroke="#191970" d="M549.2057,-280.4369C483.234,-270.6113 380.6517,-255.3331 311.3369,-245.0096"/>
<polygon fill="#191970" stroke="#191970" points="311.7664,-241.5351 301.3599,-243.5237 310.7352,-248.4587 311.7664,-241.5351"/>
</g>
<!-- Node47&#45;&gt;Node25 -->
<g id="edge85" class="edge">
<title>Node47&#45;&gt;Node25</title>
<path fill="none" stroke="#191970" d="M695.7285,-285.6058C897.5469,-274.8319 1413.8056,-247.2718 1596.8469,-237.5003"/>
<polygon fill="#191970" stroke="#191970" points="1597.0675,-240.9936 1606.8666,-236.9654 1596.6942,-234.0036 1597.0675,-240.9936"/>
</g>
<!-- Node48&#45;&gt;Node2 -->
<g id="edge89" class="edge">
<title>Node48&#45;&gt;Node2</title>
<path fill="none" stroke="#191970" d="M700.3846,-57.3379C697.3541,-56.8547 694.3433,-56.4028 691.4152,-56 513.6311,-31.543 298.9834,-16.9811 217.2419,-11.9741"/>
<polygon fill="#191970" stroke="#191970" points="217.2441,-8.4679 207.051,-11.3574 216.8213,-15.4551 217.2441,-8.4679"/>
</g>
<!-- Node48&#45;&gt;Node7 -->
<g id="edge88" class="edge">
<title>Node48&#45;&gt;Node7</title>
<path fill="none" stroke="#191970" d="M778.5931,-56.3733C814.3972,-45.9845 871.0233,-29.5541 906.3777,-19.2959"/>
<polygon fill="#191970" stroke="#191970" points="907.5566,-22.5982 916.1852,-16.4502 905.6059,-15.8755 907.5566,-22.5982"/>
</g>
<!-- Node49 -->
<g id="node48" class="node">
<title>Node49</title>
<polygon fill="none" stroke="#bfbfbf" points="718.4152,-.5 718.4152,-19.5 772.4152,-19.5 772.4152,-.5 718.4152,-.5"/>
<text text-anchor="middle" x="745.4152" y="-7.5" font-family="Helvetica,sans-Serif" font-size="10.00" fill="#000000">ciso646</text>
</g>
<!-- Node48&#45;&gt;Node49 -->
<g id="edge87" class="edge">
<title>Node48&#45;&gt;Node49</title>
<path fill="none" stroke="#191970" d="M745.4152,-56.2455C745.4152,-48.9382 745.4152,-38.6944 745.4152,-29.7046"/>
<polygon fill="#191970" stroke="#191970" points="748.9153,-29.6426 745.4152,-19.6427 741.9153,-29.6427 748.9153,-29.6426"/>
</g>
</g>
</svg>
