<?xml version="1.0" encoding="UTF-8" standalone="no"?>
<!DOCTYPE svg PUBLIC "-//W3C//DTD SVG 1.1//EN"
 "http://www.w3.org/Graphics/SVG/1.1/DTD/svg11.dtd">
<!-- Generated by graphviz version 2.40.1 (20161225.0304)
 -->
<!-- Title: src/engine/GameObjects/MapNode.cxx Pages: 1 -->
<svg width="1902pt" height="319pt"
 viewBox="0.00 0.00 1902.00 319.00" xmlns="http://www.w3.org/2000/svg" xmlns:xlink="http://www.w3.org/1999/xlink">
<g id="graph0" class="graph" transform="scale(1 1) rotate(0) translate(4 315)">
<title>src/engine/GameObjects/MapNode.cxx</title>
<!-- Node0 -->
<g id="node1" class="node">
<title>Node0</title>
<polygon fill="#bfbfbf" stroke="#000000" points="353.5,-280.5 353.5,-310.5 489.5,-310.5 489.5,-280.5 353.5,-280.5"/>
<text text-anchor="start" x="361.5" y="-298.5" font-family="Helvetica,sans-Serif" font-size="10.00" fill="#000000">src/engine/GameObjects</text>
<text text-anchor="middle" x="421.5" y="-287.5" font-family="Helvetica,sans-Serif" font-size="10.00" fill="#000000">/MapNode.cxx</text>
</g>
<!-- Node1 -->
<g id="node2" class="node">
<title>Node1</title>
<polygon fill="none" stroke="#bfbfbf" points="0,-224.5 0,-243.5 49,-243.5 49,-224.5 0,-224.5"/>
<text text-anchor="middle" x="24.5" y="-231.5" font-family="Helvetica,sans-Serif" font-size="10.00" fill="#000000">cstdlib</text>
</g>
<!-- Node0&#45;&gt;Node1 -->
<g id="edge1" class="edge">
<title>Node0&#45;&gt;Node1</title>
<path fill="none" stroke="#191970" d="M353.4952,-287.938C281.2037,-279.3823 163.7195,-263.9963 63.5,-244 62.0434,-243.7094 60.5598,-243.3981 59.0639,-243.0716"/>
<polygon fill="#191970" stroke="#191970" points="59.6999,-239.6259 49.1652,-240.7534 58.1037,-246.4415 59.6999,-239.6259"/>
</g>
<!-- Node2 -->
<g id="node3" class="node">
<title>Node2</title>
<g id="a_node3"><a xlink:href="MapNode_8hxx.html" target="_top" xlink:title="MapNode.hxx">
<polygon fill="none" stroke="#000000" points="380,-224.5 380,-243.5 463,-243.5 463,-224.5 380,-224.5"/>
<text text-anchor="middle" x="421.5" y="-231.5" font-family="Helvetica,sans-Serif" font-size="10.00" fill="#000000">MapNode.hxx</text>
</a>
</g>
</g>
<!-- Node0&#45;&gt;Node2 -->
<g id="edge2" class="edge">
<title>Node0&#45;&gt;Node2</title>
<path fill="none" stroke="#191970" d="M421.5,-280.2977C421.5,-272.3834 421.5,-262.6043 421.5,-254.0759"/>
<polygon fill="#191970" stroke="#191970" points="425.0001,-253.8469 421.5,-243.8469 418.0001,-253.847 425.0001,-253.8469"/>
</g>
<!-- Node19 -->
<g id="node20" class="node">
<title>Node19</title>
<g id="a_node20"><a xlink:href="LOG_8hxx.html" target="_top" xlink:title="LOG.hxx">
<polygon fill="none" stroke="#000000" points="1398.5,-224.5 1398.5,-243.5 1456.5,-243.5 1456.5,-224.5 1398.5,-224.5"/>
<text text-anchor="middle" x="1427.5" y="-231.5" font-family="Helvetica,sans-Serif" font-size="10.00" fill="#000000">LOG.hxx</text>
</a>
</g>
</g>
<!-- Node0&#45;&gt;Node19 -->
<g id="edge28" class="edge">
<title>Node0&#45;&gt;Node19</title>
<path fill="none" stroke="#191970" d="M489.8556,-291.3212C684.1966,-279.4405 1235.6831,-245.7264 1388.065,-236.4108"/>
<polygon fill="#191970" stroke="#191970" points="1388.5686,-239.8866 1398.3364,-235.7829 1388.1414,-232.8997 1388.5686,-239.8866"/>
</g>
<!-- Node34 -->
<g id="node35" class="node">
<title>Node34</title>
<g id="a_node35"><a xlink:href="MapLayers_8hxx.html" target="_top" xlink:title="../map/MapLayers.hxx">
<polygon fill="none" stroke="#000000" points="79.5,-112.5 79.5,-131.5 203.5,-131.5 203.5,-112.5 79.5,-112.5"/>
<text text-anchor="middle" x="141.5" y="-119.5" font-family="Helvetica,sans-Serif" font-size="10.00" fill="#000000">../map/MapLayers.hxx</text>
</a>
</g>
</g>
<!-- Node0&#45;&gt;Node34 -->
<g id="edge47" class="edge">
<title>Node0&#45;&gt;Node34</title>
<path fill="none" stroke="#191970" d="M397.1417,-280.4065C344.0487,-247.5079 218.4306,-169.6695 165.5864,-136.9249"/>
<polygon fill="#191970" stroke="#191970" points="167.2303,-133.8261 156.8863,-131.534 163.5432,-139.7764 167.2303,-133.8261"/>
</g>
<!-- Node35 -->
<g id="node36" class="node">
<title>Node35</title>
<g id="a_node36"><a xlink:href="GameStates_8hxx.html" target="_top" xlink:title="GameStates.hxx">
<polygon fill="none" stroke="#000000" points="1006.5,-168.5 1006.5,-187.5 1104.5,-187.5 1104.5,-168.5 1006.5,-168.5"/>
<text text-anchor="middle" x="1055.5" y="-175.5" font-family="Helvetica,sans-Serif" font-size="10.00" fill="#000000">GameStates.hxx</text>
</a>
</g>
</g>
<!-- Node0&#45;&gt;Node35 -->
<g id="edge50" class="edge">
<title>Node0&#45;&gt;Node35</title>
<path fill="none" stroke="#191970" d="M489.65,-282.8697C614.576,-259.717 878.2364,-210.8525 996.2317,-188.9843"/>
<polygon fill="#191970" stroke="#191970" points="996.9759,-192.406 1006.1706,-187.1423 995.7003,-185.5232 996.9759,-192.406"/>
</g>
<!-- Node3 -->
<g id="node4" class="node">
<title>Node3</title>
<polygon fill="none" stroke="#bfbfbf" points="449.5,-112.5 449.5,-131.5 493.5,-131.5 493.5,-112.5 449.5,-112.5"/>
<text text-anchor="middle" x="471.5" y="-119.5" font-family="Helvetica,sans-Serif" font-size="10.00" fill="#000000">SDL.h</text>
</g>
<!-- Node2&#45;&gt;Node3 -->
<g id="edge3" class="edge">
<title>Node2&#45;&gt;Node3</title>
<path fill="none" stroke="#191970" d="M435.4899,-224.4851C446.3365,-216.2351 460.639,-203.2422 467.5,-188 473.9788,-173.6068 474.6519,-155.635 473.8869,-142.081"/>
<polygon fill="#191970" stroke="#191970" points="477.3556,-141.5691 473.0018,-131.9102 470.382,-142.176 477.3556,-141.5691"/>
</g>
<!-- Node4 -->
<g id="node5" class="node">
<title>Node4</title>
<polygon fill="none" stroke="#bfbfbf" points="307.5,-168.5 307.5,-187.5 365.5,-187.5 365.5,-168.5 307.5,-168.5"/>
<text text-anchor="middle" x="336.5" y="-175.5" font-family="Helvetica,sans-Serif" font-size="10.00" fill="#000000">memory</text>
</g>
<!-- Node2&#45;&gt;Node4 -->
<g id="edge4" class="edge">
<title>Node2&#45;&gt;Node4</title>
<path fill="none" stroke="#191970" d="M406.6941,-224.2455C393.7744,-215.7337 374.8069,-203.2375 359.8448,-193.3801"/>
<polygon fill="#191970" stroke="#191970" points="361.4124,-190.2216 351.1362,-187.6427 357.5613,-196.067 361.4124,-190.2216"/>
</g>
<!-- Node5 -->
<g id="node6" class="node">
<title>Node5</title>
<polygon fill="none" stroke="#bfbfbf" points="1066.5,-56.5 1066.5,-75.5 1110.5,-75.5 1110.5,-56.5 1066.5,-56.5"/>
<text text-anchor="middle" x="1088.5" y="-63.5" font-family="Helvetica,sans-Serif" font-size="10.00" fill="#000000">string</text>
</g>
<!-- Node2&#45;&gt;Node5 -->
<g id="edge5" class="edge">
<title>Node2&#45;&gt;Node5</title>
<path fill="none" stroke="#191970" d="M463.4095,-230.0292C599.5182,-216.7766 1023.0106,-172.6097 1068.5,-132 1081.4536,-120.436 1086.1491,-100.7916 1087.7859,-85.934"/>
<polygon fill="#191970" stroke="#191970" points="1091.2942,-85.9456 1088.5275,-75.7184 1084.3126,-85.4387 1091.2942,-85.9456"/>
</g>
<!-- Node6 -->
<g id="node7" class="node">
<title>Node6</title>
<polygon fill="none" stroke="#bfbfbf" points="1122.5,-168.5 1122.5,-187.5 1186.5,-187.5 1186.5,-168.5 1122.5,-168.5"/>
<text text-anchor="middle" x="1154.5" y="-175.5" font-family="Helvetica,sans-Serif" font-size="10.00" fill="#000000">algorithm</text>
</g>
<!-- Node2&#45;&gt;Node6 -->
<g id="edge6" class="edge">
<title>Node2&#45;&gt;Node6</title>
<path fill="none" stroke="#191970" d="M463.2411,-232.1741C589.7597,-226.4935 968.5837,-208.372 1112.4321,-187.8712"/>
<polygon fill="#191970" stroke="#191970" points="1113.0006,-191.3252 1122.3764,-186.3912 1111.9701,-184.4015 1113.0006,-191.3252"/>
</g>
<!-- Node7 -->
<g id="node8" class="node">
<title>Node7</title>
<polygon fill="none" stroke="#bfbfbf" points="208,-56.5 208,-75.5 255,-75.5 255,-56.5 208,-56.5"/>
<text text-anchor="middle" x="231.5" y="-63.5" font-family="Helvetica,sans-Serif" font-size="10.00" fill="#000000">vector</text>
</g>
<!-- Node2&#45;&gt;Node7 -->
<g id="edge7" class="edge">
<title>Node2&#45;&gt;Node7</title>
<path fill="none" stroke="#191970" d="M379.7818,-228.1893C295.0654,-215.4413 107.74,-182.1032 70.5,-132 36.387,-86.1038 140.757,-71.9956 197.4595,-67.7595"/>
<polygon fill="#191970" stroke="#191970" points="198.0396,-71.2283 207.779,-67.0576 197.5645,-64.2444 198.0396,-71.2283"/>
</g>
<!-- Node8 -->
<g id="node9" class="node">
<title>Node8</title>
<g id="a_node9"><a xlink:href="Sprite_8hxx.html" target="_top" xlink:title="../Sprite.hxx">
<polygon fill="none" stroke="#000000" points="384,-168.5 384,-187.5 459,-187.5 459,-168.5 384,-168.5"/>
<text text-anchor="middle" x="421.5" y="-175.5" font-family="Helvetica,sans-Serif" font-size="10.00" fill="#000000">../Sprite.hxx</text>
</a>
</g>
</g>
<!-- Node2&#45;&gt;Node8 -->
<g id="edge8" class="edge">
<title>Node2&#45;&gt;Node8</title>
<path fill="none" stroke="#191970" d="M421.5,-224.2455C421.5,-216.9382 421.5,-206.6944 421.5,-197.7046"/>
<polygon fill="#191970" stroke="#191970" points="425.0001,-197.6426 421.5,-187.6427 418.0001,-197.6427 425.0001,-197.6426"/>
</g>
<!-- Node9 -->
<g id="node10" class="node">
<title>Node9</title>
<g id="a_node10"><a xlink:href="point_8hxx.html" target="_top" xlink:title="basics/point.hxx">
<polygon fill="none" stroke="#000000" points="259.5,-112.5 259.5,-131.5 355.5,-131.5 355.5,-112.5 259.5,-112.5"/>
<text text-anchor="middle" x="307.5" y="-119.5" font-family="Helvetica,sans-Serif" font-size="10.00" fill="#000000">basics/point.hxx</text>
</a>
</g>
</g>
<!-- Node2&#45;&gt;Node9 -->
<g id="edge16" class="edge">
<title>Node2&#45;&gt;Node9</title>
<path fill="none" stroke="#191970" d="M381.9838,-224.442C349.8863,-215.7844 308.3757,-202.2371 298.5,-188 289.0591,-174.3897 293.0002,-155.3482 298.3041,-141.2139"/>
<polygon fill="#191970" stroke="#191970" points="301.556,-142.5101 302.2351,-131.937 295.1108,-139.7789 301.556,-142.5101"/>
</g>
<!-- Node10 -->
<g id="node11" class="node">
<title>Node10</title>
<g id="a_node11"><a xlink:href="enums_8hxx.html" target="_top" xlink:title="common/enums.hxx">
<polygon fill="none" stroke="#000000" points="363.5,-56.5 363.5,-75.5 479.5,-75.5 479.5,-56.5 363.5,-56.5"/>
<text text-anchor="middle" x="421.5" y="-63.5" font-family="Helvetica,sans-Serif" font-size="10.00" fill="#000000">common/enums.hxx</text>
</a>
</g>
</g>
<!-- Node2&#45;&gt;Node10 -->
<g id="edge15" class="edge">
<title>Node2&#45;&gt;Node10</title>
<path fill="none" stroke="#191970" d="M383.3814,-224.4066C321.1583,-206.9169 208.6785,-166.5585 250.5,-112 263.3131,-95.2846 311.3948,-83.2849 353.322,-75.7413"/>
<polygon fill="#191970" stroke="#191970" points="354.013,-79.1738 363.2658,-74.0128 352.8141,-72.2772 354.013,-79.1738"/>
</g>
<!-- Node13 -->
<g id="node14" class="node">
<title>Node13</title>
<g id="a_node14"><a xlink:href="TileManager_8hxx.html" target="_top" xlink:title="../TileManager.hxx">
<polygon fill="none" stroke="#000000" points="647.5,-168.5 647.5,-187.5 753.5,-187.5 753.5,-168.5 647.5,-168.5"/>
<text text-anchor="middle" x="700.5" y="-175.5" font-family="Helvetica,sans-Serif" font-size="10.00" fill="#000000">../TileManager.hxx</text>
</a>
</g>
</g>
<!-- Node2&#45;&gt;Node13 -->
<g id="edge17" class="edge">
<title>Node2&#45;&gt;Node13</title>
<path fill="none" stroke="#191970" d="M463.2691,-225.6162C510.968,-216.0423 589.302,-200.3193 642.8072,-189.5799"/>
<polygon fill="#191970" stroke="#191970" points="643.7123,-192.9681 652.828,-187.5686 642.3347,-186.105 643.7123,-192.9681"/>
</g>
<!-- Node8&#45;&gt;Node3 -->
<g id="edge9" class="edge">
<title>Node8&#45;&gt;Node3</title>
<path fill="none" stroke="#191970" d="M430.2093,-168.2455C437.3073,-160.2958 447.5084,-148.8706 455.995,-139.3656"/>
<polygon fill="#191970" stroke="#191970" points="458.8411,-141.4331 462.8905,-131.6427 453.6195,-136.771 458.8411,-141.4331"/>
</g>
<!-- Node8&#45;&gt;Node7 -->
<g id="edge10" class="edge">
<title>Node8&#45;&gt;Node7</title>
<path fill="none" stroke="#191970" d="M415.3762,-168.0461C406.0737,-153.7085 387.0579,-127.2911 364.5,-112 334.06,-91.3659 293.4381,-79.0939 265.1299,-72.4839"/>
<polygon fill="#191970" stroke="#191970" points="265.8205,-69.0521 255.2994,-70.2998 264.3023,-75.8855 265.8205,-69.0521"/>
</g>
<!-- Node8&#45;&gt;Node9 -->
<g id="edge11" class="edge">
<title>Node8&#45;&gt;Node9</title>
<path fill="none" stroke="#191970" d="M401.9027,-168.3733C383.7669,-159.4644 356.5865,-146.1127 336.0413,-136.0203"/>
<polygon fill="#191970" stroke="#191970" points="337.3603,-132.7688 326.8416,-131.5011 334.2739,-139.0517 337.3603,-132.7688"/>
</g>
<!-- Node8&#45;&gt;Node10 -->
<g id="edge12" class="edge">
<title>Node8&#45;&gt;Node10</title>
<path fill="none" stroke="#191970" d="M421.5,-168.4509C421.5,-150.184 421.5,-109.9553 421.5,-85.6976"/>
<polygon fill="#191970" stroke="#191970" points="425.0001,-85.5249 421.5,-75.5249 418.0001,-85.5249 425.0001,-85.5249"/>
</g>
<!-- Node11 -->
<g id="node12" class="node">
<title>Node11</title>
<polygon fill="none" stroke="#bfbfbf" points="345.5,-.5 345.5,-19.5 401.5,-19.5 401.5,-.5 345.5,-.5"/>
<text text-anchor="middle" x="373.5" y="-7.5" font-family="Helvetica,sans-Serif" font-size="10.00" fill="#000000">stddef.h</text>
</g>
<!-- Node10&#45;&gt;Node11 -->
<g id="edge13" class="edge">
<title>Node10&#45;&gt;Node11</title>
<path fill="none" stroke="#191970" d="M413.139,-56.2455C406.325,-48.2958 396.5319,-36.8706 388.3848,-27.3656"/>
<polygon fill="#191970" stroke="#191970" points="390.9305,-24.9575 381.7651,-19.6427 385.6157,-29.513 390.9305,-24.9575"/>
</g>
<!-- Node12 -->
<g id="node13" class="node">
<title>Node12</title>
<polygon fill="none" stroke="#bfbfbf" points="419.5,-.5 419.5,-19.5 519.5,-19.5 519.5,-.5 419.5,-.5"/>
<text text-anchor="middle" x="469.5" y="-7.5" font-family="Helvetica,sans-Serif" font-size="10.00" fill="#000000">betterEnums.hxx</text>
</g>
<!-- Node10&#45;&gt;Node12 -->
<g id="edge14" class="edge">
<title>Node10&#45;&gt;Node12</title>
<path fill="none" stroke="#191970" d="M429.861,-56.2455C436.675,-48.2958 446.4681,-36.8706 454.6152,-27.3656"/>
<polygon fill="#191970" stroke="#191970" points="457.3843,-29.513 461.2349,-19.6427 452.0695,-24.9575 457.3843,-29.513"/>
</g>
<!-- Node13&#45;&gt;Node3 -->
<g id="edge18" class="edge">
<title>Node13&#45;&gt;Node3</title>
<path fill="none" stroke="#191970" d="M654.613,-168.4811C616.51,-160.3207 560.7112,-147.7815 503.6892,-132.174"/>
<polygon fill="#191970" stroke="#191970" points="504.3548,-128.7268 493.7837,-129.4348 502.489,-135.4736 504.3548,-128.7268"/>
</g>
<!-- Node13&#45;&gt;Node5 -->
<g id="edge20" class="edge">
<title>Node13&#45;&gt;Node5</title>
<path fill="none" stroke="#191970" d="M753.6652,-171.4926C800.5896,-164.7633 870.3721,-152.3312 928.5,-132 946.8874,-125.5687 949.702,-119.9176 967.5,-112 997.2777,-98.7531 1032.1475,-85.7529 1056.7845,-76.971"/>
<polygon fill="#191970" stroke="#191970" points="1058.0831,-80.2243 1066.345,-73.5917 1055.7502,-73.6244 1058.0831,-80.2243"/>
</g>
<!-- Node14 -->
<g id="node15" class="node">
<title>Node14</title>
<polygon fill="none" stroke="#bfbfbf" points="607,-112.5 607,-131.5 700,-131.5 700,-112.5 607,-112.5"/>
<text text-anchor="middle" x="653.5" y="-119.5" font-family="Helvetica,sans-Serif" font-size="10.00" fill="#000000">unordered_map</text>
</g>
<!-- Node13&#45;&gt;Node14 -->
<g id="edge19" class="edge">
<title>Node13&#45;&gt;Node14</title>
<path fill="none" stroke="#191970" d="M692.3132,-168.2455C685.6411,-160.2958 676.0521,-148.8706 668.0747,-139.3656"/>
<polygon fill="#191970" stroke="#191970" points="670.7026,-137.0524 661.593,-131.6427 665.3408,-141.5525 670.7026,-137.0524"/>
</g>
<!-- Node15 -->
<g id="node16" class="node">
<title>Node15</title>
<g id="a_node16"><a xlink:href="tileData_8hxx.html" target="_top" xlink:title="tileData.hxx">
<polygon fill="none" stroke="#000000" points="512,-112.5 512,-131.5 589,-131.5 589,-112.5 512,-112.5"/>
<text text-anchor="middle" x="550.5" y="-119.5" font-family="Helvetica,sans-Serif" font-size="10.00" fill="#000000">tileData.hxx</text>
</a>
</g>
</g>
<!-- Node13&#45;&gt;Node15 -->
<g id="edge21" class="edge">
<title>Node13&#45;&gt;Node15</title>
<path fill="none" stroke="#191970" d="M674.7141,-168.3733C650.0953,-159.1822 612.81,-145.2624 585.5125,-135.0713"/>
<polygon fill="#191970" stroke="#191970" points="586.542,-131.7198 575.9494,-131.5011 584.0937,-138.2777 586.542,-131.7198"/>
</g>
<!-- Node16 -->
<g id="node17" class="node">
<title>Node16</title>
<polygon fill="none" stroke="#bfbfbf" points="718.5,-112.5 718.5,-131.5 776.5,-131.5 776.5,-112.5 718.5,-112.5"/>
<text text-anchor="middle" x="747.5" y="-119.5" font-family="Helvetica,sans-Serif" font-size="10.00" fill="#000000">json.hxx</text>
</g>
<!-- Node13&#45;&gt;Node16 -->
<g id="edge25" class="edge">
<title>Node13&#45;&gt;Node16</title>
<path fill="none" stroke="#191970" d="M708.6868,-168.2455C715.3589,-160.2958 724.9479,-148.8706 732.9253,-139.3656"/>
<polygon fill="#191970" stroke="#191970" points="735.6592,-141.5525 739.407,-131.6427 730.2974,-137.0524 735.6592,-141.5525"/>
</g>
<!-- Node17 -->
<g id="node18" class="node">
<title>Node17</title>
<g id="a_node18"><a xlink:href="Singleton_8hxx.html" target="_top" xlink:title="Singleton.hxx">
<polygon fill="none" stroke="#000000" points="977,-112.5 977,-131.5 1060,-131.5 1060,-112.5 977,-112.5"/>
<text text-anchor="middle" x="1018.5" y="-119.5" font-family="Helvetica,sans-Serif" font-size="10.00" fill="#000000">Singleton.hxx</text>
</a>
</g>
</g>
<!-- Node13&#45;&gt;Node17 -->
<g id="edge26" class="edge">
<title>Node13&#45;&gt;Node17</title>
<path fill="none" stroke="#191970" d="M753.6984,-168.7065C806.6384,-159.4472 890.1956,-144.8031 962.5,-132 963.9587,-131.7417 965.4387,-131.4793 966.9326,-131.2143"/>
<polygon fill="#191970" stroke="#191970" points="967.6795,-134.6365 976.9125,-129.4402 966.4543,-127.7445 967.6795,-134.6365"/>
</g>
<!-- Node18 -->
<g id="node19" class="node">
<title>Node18</title>
<polygon fill="none" stroke="#bfbfbf" points="795,-112.5 795,-131.5 920,-131.5 920,-112.5 795,-112.5"/>
<text text-anchor="middle" x="857.5" y="-119.5" font-family="Helvetica,sans-Serif" font-size="10.00" fill="#000000">../common/enums.hxx</text>
</g>
<!-- Node13&#45;&gt;Node18 -->
<g id="edge27" class="edge">
<title>Node13&#45;&gt;Node18</title>
<path fill="none" stroke="#191970" d="M727.4893,-168.3733C753.3699,-159.1419 792.6248,-145.1402 821.2289,-134.9375"/>
<polygon fill="#191970" stroke="#191970" points="822.62,-138.1573 830.8629,-131.5011 820.2683,-131.5642 822.62,-138.1573"/>
</g>
<!-- Node15&#45;&gt;Node5 -->
<g id="edge22" class="edge">
<title>Node15&#45;&gt;Node5</title>
<path fill="none" stroke="#191970" d="M589.1633,-113.4016C591.9778,-112.8901 594.7786,-112.4156 597.5,-112 769.2709,-85.7711 977.2864,-72.2185 1056.1172,-67.7282"/>
<polygon fill="#191970" stroke="#191970" points="1056.5773,-71.208 1066.366,-67.1543 1056.186,-64.2189 1056.5773,-71.208"/>
</g>
<!-- Node15&#45;&gt;Node7 -->
<g id="edge23" class="edge">
<title>Node15&#45;&gt;Node7</title>
<path fill="none" stroke="#191970" d="M511.7521,-113.7983C508.6246,-113.1757 505.5111,-112.569 502.5,-112 417.3522,-95.9097 316.6505,-79.5018 265.3,-71.3222"/>
<polygon fill="#191970" stroke="#191970" points="265.54,-67.8166 255.1148,-69.7048 264.4421,-74.7299 265.54,-67.8166"/>
</g>
<!-- Node15&#45;&gt;Node10 -->
<g id="edge24" class="edge">
<title>Node15&#45;&gt;Node10</title>
<path fill="none" stroke="#191970" d="M528.3241,-112.3733C507.5234,-103.3435 476.2083,-89.7494 452.8542,-79.6111"/>
<polygon fill="#191970" stroke="#191970" points="453.9532,-76.2727 443.3865,-75.5011 451.1657,-82.6938 453.9532,-76.2727"/>
</g>
<!-- Node19&#45;&gt;Node3 -->
<g id="edge38" class="edge">
<title>Node19&#45;&gt;Node3</title>
<path fill="none" stroke="#191970" d="M1398.1606,-233.5337C1273.5262,-231.3619 787.5582,-220.9104 638.5,-188 587.4621,-176.7314 531.6475,-151.9149 499.2031,-136.1289"/>
<polygon fill="#191970" stroke="#191970" points="500.4319,-132.8324 489.9156,-131.5448 497.3336,-139.1094 500.4319,-132.8324"/>
</g>
<!-- Node19&#45;&gt;Node5 -->
<g id="edge29" class="edge">
<title>Node19&#45;&gt;Node5</title>
<path fill="none" stroke="#191970" d="M1398.3279,-230.7515C1361.1385,-225.7086 1295.6554,-213.7562 1245.5,-188 1198.9279,-164.0839 1197.1319,-143.7446 1155.5,-112 1141.3699,-101.2257 1124.9276,-89.9197 1111.8678,-81.2126"/>
<polygon fill="#191970" stroke="#191970" points="1113.7086,-78.2339 1103.4366,-75.6383 1109.848,-84.0731 1113.7086,-78.2339"/>
</g>
<!-- Node19&#45;&gt;Node6 -->
<g id="edge39" class="edge">
<title>Node19&#45;&gt;Node6</title>
<path fill="none" stroke="#191970" d="M1398.448,-228.2493C1355.2469,-219.6669 1271.531,-202.917 1200.5,-188 1199.2403,-187.7355 1197.9615,-187.4656 1196.6706,-187.1921"/>
<polygon fill="#191970" stroke="#191970" points="1197.169,-183.7196 1186.6582,-185.0515 1195.7055,-190.5649 1197.169,-183.7196"/>
</g>
<!-- Node20 -->
<g id="node21" class="node">
<title>Node20</title>
<g id="a_node21"><a xlink:href="Exception_8hxx.html" target="_top" xlink:title="Exception.hxx">
<polygon fill="none" stroke="#000000" points="1254.5,-168.5 1254.5,-187.5 1340.5,-187.5 1340.5,-168.5 1254.5,-168.5"/>
<text text-anchor="middle" x="1297.5" y="-175.5" font-family="Helvetica,sans-Serif" font-size="10.00" fill="#000000">Exception.hxx</text>
</a>
</g>
</g>
<!-- Node19&#45;&gt;Node20 -->
<g id="edge30" class="edge">
<title>Node19&#45;&gt;Node20</title>
<path fill="none" stroke="#191970" d="M1405.1522,-224.3733C1384.0967,-215.3032 1352.3505,-201.6279 1328.7825,-191.4755"/>
<polygon fill="#191970" stroke="#191970" points="1330.125,-188.243 1319.5562,-187.5011 1327.3556,-194.6719 1330.125,-188.243"/>
</g>
<!-- Node23 -->
<g id="node24" class="node">
<title>Node23</title>
<polygon fill="none" stroke="#bfbfbf" points="1397.5,-112.5 1397.5,-131.5 1457.5,-131.5 1457.5,-112.5 1397.5,-112.5"/>
<text text-anchor="middle" x="1427.5" y="-119.5" font-family="Helvetica,sans-Serif" font-size="10.00" fill="#000000">iostream</text>
</g>
<!-- Node19&#45;&gt;Node23 -->
<g id="edge33" class="edge">
<title>Node19&#45;&gt;Node23</title>
<path fill="none" stroke="#191970" d="M1415.0788,-224.18C1405.4984,-215.7529 1392.9865,-202.6707 1387.5,-188 1380.752,-169.956 1394.2018,-151.3613 1407.29,-138.5263"/>
<polygon fill="#191970" stroke="#191970" points="1409.7657,-141.0055 1414.799,-131.6826 1405.0504,-135.8319 1409.7657,-141.0055"/>
</g>
<!-- Node24 -->
<g id="node25" class="node">
<title>Node24</title>
<polygon fill="none" stroke="#bfbfbf" points="1476.5,-168.5 1476.5,-187.5 1526.5,-187.5 1526.5,-168.5 1476.5,-168.5"/>
<text text-anchor="middle" x="1501.5" y="-175.5" font-family="Helvetica,sans-Serif" font-size="10.00" fill="#000000">chrono</text>
</g>
<!-- Node19&#45;&gt;Node24 -->
<g id="edge34" class="edge">
<title>Node19&#45;&gt;Node24</title>
<path fill="none" stroke="#191970" d="M1440.3898,-224.2455C1451.4254,-215.8943 1467.5292,-203.7076 1480.4353,-193.9408"/>
<polygon fill="#191970" stroke="#191970" points="1482.8959,-196.4681 1488.7579,-187.6427 1478.6717,-190.8862 1482.8959,-196.4681"/>
</g>
<!-- Node25 -->
<g id="node26" class="node">
<title>Node25</title>
<polygon fill="none" stroke="#bfbfbf" points="1544.5,-168.5 1544.5,-187.5 1588.5,-187.5 1588.5,-168.5 1544.5,-168.5"/>
<text text-anchor="middle" x="1566.5" y="-175.5" font-family="Helvetica,sans-Serif" font-size="10.00" fill="#000000">ctime</text>
</g>
<!-- Node19&#45;&gt;Node25 -->
<g id="edge35" class="edge">
<title>Node19&#45;&gt;Node25</title>
<path fill="none" stroke="#191970" d="M1451.395,-224.3733C1474.4194,-215.0972 1509.3996,-201.0045 1534.7546,-190.7895"/>
<polygon fill="#191970" stroke="#191970" points="1536.3249,-193.9303 1544.2925,-186.9469 1533.709,-187.4374 1536.3249,-193.9303"/>
</g>
<!-- Node26 -->
<g id="node27" class="node">
<title>Node26</title>
<polygon fill="none" stroke="#bfbfbf" points="1607,-168.5 1607,-187.5 1662,-187.5 1662,-168.5 1607,-168.5"/>
<text text-anchor="middle" x="1634.5" y="-175.5" font-family="Helvetica,sans-Serif" font-size="10.00" fill="#000000">fstream</text>
</g>
<!-- Node19&#45;&gt;Node26 -->
<g id="edge36" class="edge">
<title>Node19&#45;&gt;Node26</title>
<path fill="none" stroke="#191970" d="M1456.719,-226.0953C1493.4992,-216.1451 1556.7308,-199.039 1597.0309,-188.1366"/>
<polygon fill="#191970" stroke="#191970" points="1598.0136,-191.4966 1606.7526,-185.5065 1596.1856,-184.7395 1598.0136,-191.4966"/>
</g>
<!-- Node27 -->
<g id="node28" class="node">
<title>Node27</title>
<polygon fill="none" stroke="#bfbfbf" points="1680.5,-168.5 1680.5,-187.5 1736.5,-187.5 1736.5,-168.5 1680.5,-168.5"/>
<text text-anchor="middle" x="1708.5" y="-175.5" font-family="Helvetica,sans-Serif" font-size="10.00" fill="#000000">sstream</text>
</g>
<!-- Node19&#45;&gt;Node27 -->
<g id="edge37" class="edge">
<title>Node19&#45;&gt;Node27</title>
<path fill="none" stroke="#191970" d="M1456.5724,-229.2707C1500.7127,-221.928 1587.4585,-206.8647 1670.4389,-188.1148"/>
<polygon fill="#191970" stroke="#191970" points="1671.304,-191.5074 1680.2749,-185.8705 1669.7468,-184.6828 1671.304,-191.5074"/>
</g>
<!-- Node28 -->
<g id="node29" class="node">
<title>Node28</title>
<polygon fill="none" stroke="#bfbfbf" points="1754.5,-168.5 1754.5,-187.5 1802.5,-187.5 1802.5,-168.5 1754.5,-168.5"/>
<text text-anchor="middle" x="1778.5" y="-175.5" font-family="Helvetica,sans-Serif" font-size="10.00" fill="#000000">mutex</text>
</g>
<!-- Node19&#45;&gt;Node28 -->
<g id="edge40" class="edge">
<title>Node19&#45;&gt;Node28</title>
<path fill="none" stroke="#191970" d="M1456.7038,-231.2622C1511.3822,-225.8189 1633.0066,-212.2128 1744.4043,-187.9662"/>
<polygon fill="#191970" stroke="#191970" points="1745.4525,-191.319 1754.4605,-185.7417 1743.9406,-184.4842 1745.4525,-191.319"/>
</g>
<!-- Node29 -->
<g id="node30" class="node">
<title>Node29</title>
<g id="a_node30"><a xlink:href="Meta_8hxx.html" target="_top" xlink:title="Meta.hxx">
<polygon fill="none" stroke="#000000" points="1396.5,-168.5 1396.5,-187.5 1458.5,-187.5 1458.5,-168.5 1396.5,-168.5"/>
<text text-anchor="middle" x="1427.5" y="-175.5" font-family="Helvetica,sans-Serif" font-size="10.00" fill="#000000">Meta.hxx</text>
</a>
</g>
</g>
<!-- Node19&#45;&gt;Node29 -->
<g id="edge41" class="edge">
<title>Node19&#45;&gt;Node29</title>
<path fill="none" stroke="#191970" d="M1427.5,-224.2455C1427.5,-216.9382 1427.5,-206.6944 1427.5,-197.7046"/>
<polygon fill="#191970" stroke="#191970" points="1431.0001,-197.6426 1427.5,-187.6427 1424.0001,-197.6427 1431.0001,-197.6426"/>
</g>
<!-- Node33 -->
<g id="node34" class="node">
<title>Node33</title>
<g id="a_node34"><a xlink:href="LOG_8inl_8hxx.html" target="_top" xlink:title="LOG.inl.hxx">
<polygon fill="none" stroke="#000000" points="1821,-168.5 1821,-187.5 1894,-187.5 1894,-168.5 1821,-168.5"/>
<text text-anchor="middle" x="1857.5" y="-175.5" font-family="Helvetica,sans-Serif" font-size="10.00" fill="#000000">LOG.inl.hxx</text>
</a>
</g>
</g>
<!-- Node19&#45;&gt;Node33 -->
<g id="edge46" class="edge">
<title>Node19&#45;&gt;Node33</title>
<path fill="none" stroke="#191970" d="M1456.5369,-231.4703C1519.2808,-225.8016 1672.337,-210.8844 1810.9487,-187.9489"/>
<polygon fill="#191970" stroke="#191970" points="1811.6169,-191.3859 1820.9023,-186.2837 1810.4619,-184.4818 1811.6169,-191.3859"/>
</g>
<!-- Node21 -->
<g id="node22" class="node">
<title>Node21</title>
<polygon fill="none" stroke="#bfbfbf" points="1231,-112.5 1231,-131.5 1296,-131.5 1296,-112.5 1231,-112.5"/>
<text text-anchor="middle" x="1263.5" y="-119.5" font-family="Helvetica,sans-Serif" font-size="10.00" fill="#000000">stdexcept</text>
</g>
<!-- Node20&#45;&gt;Node21 -->
<g id="edge31" class="edge">
<title>Node20&#45;&gt;Node21</title>
<path fill="none" stroke="#191970" d="M1291.5777,-168.2455C1286.8973,-160.5367 1280.2327,-149.5598 1274.5711,-140.2348"/>
<polygon fill="#191970" stroke="#191970" points="1277.5361,-138.3741 1269.3545,-131.6427 1271.5525,-142.007 1277.5361,-138.3741"/>
</g>
<!-- Node22 -->
<g id="node23" class="node">
<title>Node22</title>
<polygon fill="none" stroke="#bfbfbf" points="1314,-112.5 1314,-131.5 1379,-131.5 1379,-112.5 1314,-112.5"/>
<text text-anchor="middle" x="1346.5" y="-119.5" font-family="Helvetica,sans-Serif" font-size="10.00" fill="#000000">exception</text>
</g>
<!-- Node20&#45;&gt;Node22 -->
<g id="edge32" class="edge">
<title>Node20&#45;&gt;Node22</title>
<path fill="none" stroke="#191970" d="M1306.0351,-168.2455C1312.9912,-160.2958 1322.9883,-148.8706 1331.3051,-139.3656"/>
<polygon fill="#191970" stroke="#191970" points="1334.1116,-141.4732 1338.0627,-131.6427 1328.8436,-136.8637 1334.1116,-141.4732"/>
</g>
<!-- Node29&#45;&gt;Node23 -->
<g id="edge42" class="edge">
<title>Node29&#45;&gt;Node23</title>
<path fill="none" stroke="#191970" d="M1427.5,-168.2455C1427.5,-160.9382 1427.5,-150.6944 1427.5,-141.7046"/>
<polygon fill="#191970" stroke="#191970" points="1431.0001,-141.6426 1427.5,-131.6427 1424.0001,-141.6427 1431.0001,-141.6426"/>
</g>
<!-- Node30 -->
<g id="node31" class="node">
<title>Node30</title>
<polygon fill="none" stroke="#bfbfbf" points="1604,-112.5 1604,-131.5 1673,-131.5 1673,-112.5 1604,-112.5"/>
<text text-anchor="middle" x="1638.5" y="-119.5" font-family="Helvetica,sans-Serif" font-size="10.00" fill="#000000">type_traits</text>
</g>
<!-- Node29&#45;&gt;Node30 -->
<g id="edge43" class="edge">
<title>Node29&#45;&gt;Node30</title>
<path fill="none" stroke="#191970" d="M1458.6338,-169.737C1494.3534,-160.2569 1553.2137,-144.6352 1593.8192,-133.8584"/>
<polygon fill="#191970" stroke="#191970" points="1594.9566,-137.1778 1603.7242,-131.2296 1593.1609,-130.412 1594.9566,-137.1778"/>
</g>
<!-- Node31 -->
<g id="node32" class="node">
<title>Node31</title>
<polygon fill="none" stroke="#bfbfbf" points="1476,-112.5 1476,-131.5 1527,-131.5 1527,-112.5 1476,-112.5"/>
<text text-anchor="middle" x="1501.5" y="-119.5" font-family="Helvetica,sans-Serif" font-size="10.00" fill="#000000">variant</text>
</g>
<!-- Node29&#45;&gt;Node31 -->
<g id="edge44" class="edge">
<title>Node29&#45;&gt;Node31</title>
<path fill="none" stroke="#191970" d="M1440.3898,-168.2455C1451.4254,-159.8943 1467.5292,-147.7076 1480.4353,-137.9408"/>
<polygon fill="#191970" stroke="#191970" points="1482.8959,-140.4681 1488.7579,-131.6427 1478.6717,-134.8862 1482.8959,-140.4681"/>
</g>
<!-- Node32 -->
<g id="node33" class="node">
<title>Node32</title>
<polygon fill="none" stroke="#bfbfbf" points="1545,-112.5 1545,-131.5 1586,-131.5 1586,-112.5 1545,-112.5"/>
<text text-anchor="middle" x="1565.5" y="-119.5" font-family="Helvetica,sans-Serif" font-size="10.00" fill="#000000">tuple</text>
</g>
<!-- Node29&#45;&gt;Node32 -->
<g id="edge45" class="edge">
<title>Node29&#45;&gt;Node32</title>
<path fill="none" stroke="#191970" d="M1451.223,-168.3733C1474.49,-158.9316 1510.0545,-144.4996 1535.3223,-134.246"/>
<polygon fill="#191970" stroke="#191970" points="1536.8375,-137.4084 1544.7875,-130.4051 1534.2053,-130.9221 1536.8375,-137.4084"/>
</g>
<!-- Node34&#45;&gt;Node7 -->
<g id="edge49" class="edge">
<title>Node34&#45;&gt;Node7</title>
<path fill="none" stroke="#191970" d="M157.1768,-112.2455C170.9856,-103.6534 191.3193,-91.0014 207.2292,-81.1018"/>
<polygon fill="#191970" stroke="#191970" points="209.3613,-83.8974 216.0028,-75.6427 205.6632,-77.954 209.3613,-83.8974"/>
</g>
<!-- Node34&#45;&gt;Node10 -->
<g id="edge48" class="edge">
<title>Node34&#45;&gt;Node10</title>
<path fill="none" stroke="#191970" d="M189.3156,-112.4369C237.6381,-102.7724 312.3372,-87.8326 363.8936,-77.5213"/>
<polygon fill="#191970" stroke="#191970" points="364.7623,-80.9169 373.8816,-75.5237 363.3894,-74.0529 364.7623,-80.9169"/>
</g>
<!-- Node35&#45;&gt;Node5 -->
<g id="edge51" class="edge">
<title>Node35&#45;&gt;Node5</title>
<path fill="none" stroke="#191970" d="M1091.0598,-168.3459C1109.2465,-161.4075 1129.7637,-150.0179 1140.5,-132 1151.5373,-113.477 1132.493,-94.3408 1114.4253,-81.4749"/>
<polygon fill="#191970" stroke="#191970" points="1116.0296,-78.3375 1105.7702,-75.6927 1112.141,-84.1581 1116.0296,-78.3375"/>
</g>
<!-- Node35&#45;&gt;Node10 -->
<g id="edge53" class="edge">
<title>Node35&#45;&gt;Node10</title>
<path fill="none" stroke="#191970" d="M1062.0452,-168.0703C1070.58,-153.7627 1082.8275,-127.3823 1068.5,-112 1048.9967,-91.0609 652.4852,-74.3703 490.0195,-68.3845"/>
<polygon fill="#191970" stroke="#191970" points="489.7843,-64.8737 479.6631,-68.0058 489.5285,-71.869 489.7843,-64.8737"/>
</g>
<!-- Node35&#45;&gt;Node17 -->
<g id="edge52" class="edge">
<title>Node35&#45;&gt;Node17</title>
<path fill="none" stroke="#191970" d="M1049.0551,-168.2455C1043.9618,-160.5367 1036.7092,-149.5598 1030.548,-140.2348"/>
<polygon fill="#191970" stroke="#191970" points="1033.3038,-138.0566 1024.8711,-131.6427 1027.4635,-141.9155 1033.3038,-138.0566"/>
</g>
</g>
</svg>
