<?xml version="1.0" encoding="UTF-8" standalone="no"?>
<!DOCTYPE svg PUBLIC "-//W3C//DTD SVG 1.1//EN"
 "http://www.w3.org/Graphics/SVG/1.1/DTD/svg11.dtd">
<!-- Generated by graphviz version 2.40.1 (20161225.0304)
 -->
<!-- Title: fs::writeStringToFile Pages: 1 -->
<svg width="627pt" height="104pt"
 viewBox="0.00 0.00 627.00 104.00" xmlns="http://www.w3.org/2000/svg" xmlns:xlink="http://www.w3.org/1999/xlink">
<g id="graph0" class="graph" transform="scale(1 1) rotate(0) translate(4 100)">
<title>fs::writeStringToFile</title>
<!-- Node80 -->
<g id="node1" class="node">
<title>Node80</title>
<polygon fill="#bfbfbf" stroke="#000000" points="0,-38.5 0,-57.5 112,-57.5 112,-38.5 0,-38.5"/>
<text text-anchor="middle" x="56" y="-45.5" font-family="Helvetica,sans-Serif" font-size="10.00" fill="#000000">fs::writeStringToFile</text>
</g>
<!-- Node81 -->
<g id="node2" class="node">
<title>Node81</title>
<g id="a_node2"><a xlink:href="classSettings.html#a53285dd5cbd5bfafe155187c74150dde" target="_top" xlink:title="Save settings to file. ">
<polygon fill="none" stroke="#000000" points="299,-76.5 299,-95.5 403,-95.5 403,-76.5 299,-76.5"/>
<text text-anchor="middle" x="351" y="-83.5" font-family="Helvetica,sans-Serif" font-size="10.00" fill="#000000">Settings::writeFile</text>
</a>
</g>
</g>
<!-- Node80&#45;&gt;Node81 -->
<g id="edge1" class="edge">
<title>Node80&#45;&gt;Node81</title>
<path fill="none" stroke="#191970" d="M107.3608,-59.6507C120.5541,-62.3559 134.761,-65.0195 148,-67 198.936,-74.6196 257.5477,-79.7155 298.6559,-82.695"/>
<polygon fill="#191970" stroke="#191970" points="108.0076,-56.2103 97.5023,-57.5846 106.5717,-63.0615 108.0076,-56.2103"/>
</g>
<!-- Node83 -->
<g id="node4" class="node">
<title>Node83</title>
<g id="a_node4"><a xlink:href="classMap.html#ae48ef4fa6a6f73d886211bca59123151" target="_top" xlink:title="Map::saveMapToFile">
<polygon fill="none" stroke="#000000" points="148,-38.5 148,-57.5 261,-57.5 261,-38.5 148,-38.5"/>
<text text-anchor="middle" x="204.5" y="-45.5" font-family="Helvetica,sans-Serif" font-size="10.00" fill="#000000">Map::saveMapToFile</text>
</a>
</g>
</g>
<!-- Node80&#45;&gt;Node83 -->
<g id="edge3" class="edge">
<title>Node80&#45;&gt;Node83</title>
<path fill="none" stroke="#191970" d="M122.3845,-48C130.8629,-48 139.4796,-48 147.7858,-48"/>
<polygon fill="#191970" stroke="#191970" points="122.1415,-44.5001 112.1415,-48 122.1414,-51.5001 122.1415,-44.5001"/>
</g>
<!-- Node85 -->
<g id="node6" class="node">
<title>Node85</title>
<g id="a_node6"><a xlink:href="desktop_2Filesystem_8cxx.html#a4d36fc93e1ad546bbbd83efa8a1ebba2" target="_top" xlink:title="forEachFileType">
<polygon fill="none" stroke="#000000" points="158.5,-.5 158.5,-19.5 250.5,-19.5 250.5,-.5 158.5,-.5"/>
<text text-anchor="middle" x="204.5" y="-7.5" font-family="Helvetica,sans-Serif" font-size="10.00" fill="#000000">forEachFileType</text>
</a>
</g>
</g>
<!-- Node80&#45;&gt;Node85 -->
<g id="edge6" class="edge">
<title>Node80&#45;&gt;Node85</title>
<path fill="none" stroke="#191970" d="M103.3329,-35.8879C124.0146,-30.5956 147.9188,-24.4787 167.2966,-19.5201"/>
<polygon fill="#191970" stroke="#191970" points="102.293,-32.5411 93.4728,-38.411 104.0284,-39.3226 102.293,-32.5411"/>
</g>
<!-- Node82 -->
<g id="node3" class="node">
<title>Node82</title>
<g id="a_node3"><a xlink:href="classUIManager.html#aa78e356fc3b356d790c848319d1c387e" target="_top" xlink:title="UIManager::setCallbackFunctions">
<polygon fill="none" stroke="#000000" points="441,-57.5 441,-76.5 619,-76.5 619,-57.5 441,-57.5"/>
<text text-anchor="middle" x="530" y="-64.5" font-family="Helvetica,sans-Serif" font-size="10.00" fill="#000000">UIManager::setCallbackFunctions</text>
</a>
</g>
</g>
<!-- Node81&#45;&gt;Node82 -->
<g id="edge2" class="edge">
<title>Node81&#45;&gt;Node82</title>
<path fill="none" stroke="#191970" d="M413.2066,-79.3971C422.1928,-78.4432 431.5849,-77.4463 440.9701,-76.4501"/>
<polygon fill="#191970" stroke="#191970" points="412.8301,-75.9173 403.2554,-80.4533 413.569,-82.8782 412.8301,-75.9173"/>
</g>
<!-- Node84 -->
<g id="node5" class="node">
<title>Node84</title>
<g id="a_node5"><a xlink:href="classEngine.html#ab5a909990be40701ebb4b57c3e716ed4" target="_top" xlink:title="Engine::saveGame">
<polygon fill="none" stroke="#000000" points="297,-38.5 297,-57.5 405,-57.5 405,-38.5 297,-38.5"/>
<text text-anchor="middle" x="351" y="-45.5" font-family="Helvetica,sans-Serif" font-size="10.00" fill="#000000">Engine::saveGame</text>
</a>
</g>
</g>
<!-- Node83&#45;&gt;Node84 -->
<g id="edge4" class="edge">
<title>Node83&#45;&gt;Node84</title>
<path fill="none" stroke="#191970" d="M271.1736,-48C279.7926,-48 288.534,-48 296.9154,-48"/>
<polygon fill="#191970" stroke="#191970" points="271.1408,-44.5001 261.1407,-48 271.1407,-51.5001 271.1408,-44.5001"/>
</g>
<!-- Node84&#45;&gt;Node82 -->
<g id="edge5" class="edge">
<title>Node84&#45;&gt;Node82</title>
<path fill="none" stroke="#191970" d="M415.2103,-54.8156C423.5722,-55.7032 432.2549,-56.6248 440.9322,-57.5459"/>
<polygon fill="#191970" stroke="#191970" points="415.5053,-51.3274 405.1917,-53.7522 414.7663,-58.2882 415.5053,-51.3274"/>
</g>
</g>
</svg>
