<?xml version="1.0" encoding="UTF-8" standalone="no"?>
<!DOCTYPE svg PUBLIC "-//W3C//DTD SVG 1.1//EN"
 "http://www.w3.org/Graphics/SVG/1.1/DTD/svg11.dtd">
<!-- Generated by graphviz version 2.40.1 (20161225.0304)
 -->
<!-- Title: fs::readFileAsString Pages: 1 -->
<svg width="1726pt" height="379pt"
 viewBox="0.00 0.00 1726.00 379.00" xmlns="http://www.w3.org/2000/svg" xmlns:xlink="http://www.w3.org/1999/xlink">
<g id="graph0" class="graph" transform="scale(1 1) rotate(0) translate(4 375)">
<title>fs::readFileAsString</title>
<!-- Node54 -->
<g id="node1" class="node">
<title>Node54</title>
<polygon fill="#bfbfbf" stroke="#000000" points="0,-164.5 0,-183.5 110,-183.5 110,-164.5 0,-164.5"/>
<text text-anchor="middle" x="55" y="-171.5" font-family="Helvetica,sans-Serif" font-size="10.00" fill="#000000">fs::readFileAsString</text>
</g>
<!-- Node55 -->
<g id="node2" class="node">
<title>Node55</title>
<g id="a_node2"><a xlink:href="classSettings.html#adb0042e7d1b48ef2888966b4eaefb751" target="_top" xlink:title="Load settings from file. ">
<polygon fill="none" stroke="#000000" points="186.5,-332.5 186.5,-351.5 287.5,-351.5 287.5,-332.5 186.5,-332.5"/>
<text text-anchor="middle" x="237" y="-339.5" font-family="Helvetica,sans-Serif" font-size="10.00" fill="#000000">Settings::readFile</text>
</a>
</g>
</g>
<!-- Node54&#45;&gt;Node55 -->
<g id="edge1" class="edge">
<title>Node54&#45;&gt;Node55</title>
<path fill="none" stroke="#191970" d="M61.9011,-193.5364C73.9501,-224.7468 101.8339,-285.6256 146,-318 157.7282,-326.5969 172.3003,-332.117 186.3214,-335.6607"/>
<polygon fill="#191970" stroke="#191970" points="65.0595,-191.9871 58.2989,-183.8296 58.4968,-194.4225 65.0595,-191.9871"/>
</g>
<!-- Node57 -->
<g id="node4" class="node">
<title>Node57</title>
<g id="a_node4"><a xlink:href="classMap.html#afefe996cc1f62b61ec60d0ae415953bf" target="_top" xlink:title="Map::loadMapFromFile">
<polygon fill="none" stroke="#000000" points="752,-275.5 752,-294.5 877,-294.5 877,-275.5 752,-275.5"/>
<text text-anchor="middle" x="814.5" y="-282.5" font-family="Helvetica,sans-Serif" font-size="10.00" fill="#000000">Map::loadMapFromFile</text>
</a>
</g>
</g>
<!-- Node54&#45;&gt;Node57 -->
<g id="edge3" class="edge">
<title>Node54&#45;&gt;Node57</title>
<path fill="none" stroke="#191970" d="M64.0749,-192.8184C77.7325,-218.6939 106.2672,-264.1893 146,-283 251.9468,-333.1582 606.9175,-305.4057 751.9567,-291.4659"/>
<polygon fill="#191970" stroke="#191970" points="67.075,-190.9958 59.4311,-183.6595 60.8317,-194.1613 67.075,-190.9958"/>
</g>
<!-- Node67 -->
<g id="node14" class="node">
<title>Node67</title>
<g id="a_node14"><a xlink:href="classTerrainGenerator.html#ac94cfaeb9dc89453018399361da5174a" target="_top" xlink:title="TerrainGenerator::loadTerrain\lDataFromJSON">
<polygon fill="none" stroke="#000000" points="158,-243 158,-273 316,-273 316,-243 158,-243"/>
<text text-anchor="start" x="166" y="-261" font-family="Helvetica,sans-Serif" font-size="10.00" fill="#000000">TerrainGenerator::loadTerrain</text>
<text text-anchor="middle" x="237" y="-250" font-family="Helvetica,sans-Serif" font-size="10.00" fill="#000000">DataFromJSON</text>
</a>
</g>
</g>
<!-- Node54&#45;&gt;Node67 -->
<g id="edge16" class="edge">
<title>Node54&#45;&gt;Node67</title>
<path fill="none" stroke="#191970" d="M76.4336,-189.7702C94.3059,-202.3314 120.8238,-219.6358 146,-231 155.9132,-235.4747 166.7635,-239.4368 177.4087,-242.8531"/>
<polygon fill="#191970" stroke="#191970" points="78.0992,-186.6585 67.9285,-183.6905 74.0284,-192.3532 78.0992,-186.6585"/>
</g>
<!-- Node70 -->
<g id="node17" class="node">
<title>Node70</title>
<g id="a_node17"><a xlink:href="classResourcesManager.html#ac221a499e20ca7aedd00028842c7a101" target="_top" xlink:title="ResourcesManager::loadUITexture">
<polygon fill="none" stroke="#000000" points="146,-202.5 146,-221.5 328,-221.5 328,-202.5 146,-202.5"/>
<text text-anchor="middle" x="237" y="-209.5" font-family="Helvetica,sans-Serif" font-size="10.00" fill="#000000">ResourcesManager::loadUITexture</text>
</a>
</g>
</g>
<!-- Node54&#45;&gt;Node70 -->
<g id="edge20" class="edge">
<title>Node54&#45;&gt;Node70</title>
<path fill="none" stroke="#191970" d="M110.9458,-185.681C136.7558,-191.0699 167.0069,-197.3861 191.404,-202.4799"/>
<polygon fill="#191970" stroke="#191970" points="111.4306,-182.2068 100.9263,-183.589 109.9998,-189.059 111.4306,-182.2068"/>
</g>
<!-- Node72 -->
<g id="node19" class="node">
<title>Node72</title>
<g id="a_node19"><a xlink:href="classTileManager.html#a1575d9a9530e13fe0286b8fece9e47ea" target="_top" xlink:title="TileManager::init">
<polygon fill="none" stroke="#000000" points="188,-164.5 188,-183.5 286,-183.5 286,-164.5 188,-164.5"/>
<text text-anchor="middle" x="237" y="-171.5" font-family="Helvetica,sans-Serif" font-size="10.00" fill="#000000">TileManager::init</text>
</a>
</g>
</g>
<!-- Node54&#45;&gt;Node72 -->
<g id="edge22" class="edge">
<title>Node54&#45;&gt;Node72</title>
<path fill="none" stroke="#191970" d="M120.182,-174C142.5189,-174 167.1184,-174 187.9589,-174"/>
<polygon fill="#191970" stroke="#191970" points="120.0999,-170.5001 110.0999,-174 120.0999,-177.5001 120.0999,-170.5001"/>
</g>
<!-- Node75 -->
<g id="node22" class="node">
<title>Node75</title>
<g id="a_node22"><a xlink:href="UIManager_8cxx.html#a93ebc51d97942bf4e32123b5c61c4141" target="_top" xlink:title="BETTER_ENUM">
<polygon fill="none" stroke="#000000" points="192.5,-126.5 192.5,-145.5 281.5,-145.5 281.5,-126.5 192.5,-126.5"/>
<text text-anchor="middle" x="237" y="-133.5" font-family="Helvetica,sans-Serif" font-size="10.00" fill="#000000">BETTER_ENUM</text>
</a>
</g>
</g>
<!-- Node54&#45;&gt;Node75 -->
<g id="edge26" class="edge">
<title>Node54&#45;&gt;Node75</title>
<path fill="none" stroke="#191970" d="M110.7166,-162.3669C136.9098,-156.898 167.7176,-150.4656 192.3467,-145.3232"/>
<polygon fill="#191970" stroke="#191970" points="109.9998,-158.941 100.9263,-164.411 111.4306,-165.7932 109.9998,-158.941"/>
</g>
<!-- Node76 -->
<g id="node23" class="node">
<title>Node76</title>
<g id="a_node23"><a xlink:href="classAudioMixer.html#add40bb51b99554f0408efe1630bf983d" target="_top" xlink:title="AudioMixer::AudioMixer">
<polygon fill="none" stroke="#000000" points="171,-88.5 171,-107.5 303,-107.5 303,-88.5 171,-88.5"/>
<text text-anchor="middle" x="237" y="-95.5" font-family="Helvetica,sans-Serif" font-size="10.00" fill="#000000">AudioMixer::AudioMixer</text>
</a>
</g>
</g>
<!-- Node54&#45;&gt;Node76 -->
<g id="edge27" class="edge">
<title>Node54&#45;&gt;Node76</title>
<path fill="none" stroke="#191970" d="M75.5873,-158.1139C93.3207,-145.1874 120.0816,-127.4337 146,-117 155.5819,-113.1427 166.0603,-110.0266 176.3882,-107.5221"/>
<polygon fill="#191970" stroke="#191970" points="73.1181,-155.5889 67.1891,-164.3694 77.2996,-161.2027 73.1181,-155.5889"/>
</g>
<!-- Node77 -->
<g id="node24" class="node">
<title>Node77</title>
<g id="a_node24"><a xlink:href="classResourceManager.html#a9825fcd46b3af5c1f1bf22eb8dd23936" target="_top" xlink:title="Creates the ResourceManager. ">
<polygon fill="none" stroke="#000000" points="160.5,-39 160.5,-69 313.5,-69 313.5,-39 160.5,-39"/>
<text text-anchor="start" x="168.5" y="-57" font-family="Helvetica,sans-Serif" font-size="10.00" fill="#000000">ResourceManager::Resource</text>
<text text-anchor="middle" x="237" y="-46" font-family="Helvetica,sans-Serif" font-size="10.00" fill="#000000">Manager</text>
</a>
</g>
</g>
<!-- Node54&#45;&gt;Node77 -->
<g id="edge28" class="edge">
<title>Node54&#45;&gt;Node77</title>
<path fill="none" stroke="#191970" d="M67.4435,-156.0069C83.2485,-134.5094 112.5261,-98.9519 146,-79 152.4739,-75.1413 159.5594,-71.8621 166.8277,-69.0788"/>
<polygon fill="#191970" stroke="#191970" points="64.5004,-154.1052 61.5218,-164.2728 70.1908,-158.1819 64.5004,-154.1052"/>
</g>
<!-- Node78 -->
<g id="node25" class="node">
<title>Node78</title>
<g id="a_node25"><a xlink:href="desktop_2Filesystem_8cxx.html#a4d36fc93e1ad546bbbd83efa8a1ebba2" target="_top" xlink:title="forEachFileType">
<polygon fill="none" stroke="#000000" points="191,-.5 191,-19.5 283,-19.5 283,-.5 191,-.5"/>
<text text-anchor="middle" x="237" y="-7.5" font-family="Helvetica,sans-Serif" font-size="10.00" fill="#000000">forEachFileType</text>
</a>
</g>
</g>
<!-- Node54&#45;&gt;Node78 -->
<g id="edge29" class="edge">
<title>Node54&#45;&gt;Node78</title>
<path fill="none" stroke="#191970" d="M61.5022,-154.5205C73.1312,-122.8574 100.614,-60.592 146,-29 158.9813,-19.9641 175.3594,-15.0619 190.6313,-12.4528"/>
<polygon fill="#191970" stroke="#191970" points="58.0636,-153.7487 58.0468,-164.3435 64.6669,-156.0716 58.0636,-153.7487"/>
</g>
<!-- Node56 -->
<g id="node3" class="node">
<title>Node56</title>
<g id="a_node3"><a xlink:href="classSettings.html#ab7169a6eefce79566dd07db3b1e5e967" target="_top" xlink:title="Settings::Settings">
<polygon fill="none" stroke="#000000" points="395,-332.5 395,-351.5 497,-351.5 497,-332.5 395,-332.5"/>
<text text-anchor="middle" x="446" y="-339.5" font-family="Helvetica,sans-Serif" font-size="10.00" fill="#000000">Settings::Settings</text>
</a>
</g>
</g>
<!-- Node55&#45;&gt;Node56 -->
<g id="edge2" class="edge">
<title>Node55&#45;&gt;Node56</title>
<path fill="none" stroke="#191970" d="M297.7711,-342C328.5397,-342 365.4791,-342 394.7851,-342"/>
<polygon fill="#191970" stroke="#191970" points="297.5931,-338.5001 287.5931,-342 297.593,-345.5001 297.5931,-338.5001"/>
</g>
<!-- Node58 -->
<g id="node5" class="node">
<title>Node58</title>
<g id="a_node5"><a xlink:href="classEngine.html#a83b7dbeee899b36a13d5b07c7ad87ebc" target="_top" xlink:title="Loads a saved game Loads a saved Game. ">
<polygon fill="none" stroke="#000000" points="913,-275.5 913,-294.5 1019,-294.5 1019,-275.5 913,-275.5"/>
<text text-anchor="middle" x="966" y="-282.5" font-family="Helvetica,sans-Serif" font-size="10.00" fill="#000000">Engine::loadGame</text>
</a>
</g>
</g>
<!-- Node57&#45;&gt;Node58 -->
<g id="edge4" class="edge">
<title>Node57&#45;&gt;Node58</title>
<path fill="none" stroke="#191970" d="M887.6629,-285C896.0896,-285 904.559,-285 912.6534,-285"/>
<polygon fill="#191970" stroke="#191970" points="887.4335,-281.5001 877.4335,-285 887.4334,-288.5001 887.4335,-281.5001"/>
</g>
<!-- Node59 -->
<g id="node6" class="node">
<title>Node59</title>
<g id="a_node6"><a xlink:href="classEngine.html#a0ba57971ffb5173ecc425461f65a4cd8" target="_top" xlink:title="Quits the game Sets m_running to false and quitting the game. ">
<polygon fill="none" stroke="#000000" points="1055,-313.5 1055,-332.5 1159,-332.5 1159,-313.5 1055,-313.5"/>
<text text-anchor="middle" x="1107" y="-320.5" font-family="Helvetica,sans-Serif" font-size="10.00" fill="#000000">Engine::quitGame</text>
</a>
</g>
</g>
<!-- Node58&#45;&gt;Node59 -->
<g id="edge5" class="edge">
<title>Node58&#45;&gt;Node59</title>
<path fill="none" stroke="#191970" d="M1011.4398,-297.2462C1030.875,-302.484 1053.2311,-308.5091 1071.4311,-313.4141"/>
<polygon fill="#191970" stroke="#191970" points="1012.1465,-293.8118 1001.5803,-294.589 1010.325,-300.5707 1012.1465,-293.8118"/>
</g>
<!-- Node64 -->
<g id="node11" class="node">
<title>Node64</title>
<g id="a_node11"><a xlink:href="classUIManager.html#aa78e356fc3b356d790c848319d1c387e" target="_top" xlink:title="UIManager::setCallbackFunctions">
<polygon fill="none" stroke="#000000" points="1195,-275.5 1195,-294.5 1373,-294.5 1373,-275.5 1195,-275.5"/>
<text text-anchor="middle" x="1284" y="-282.5" font-family="Helvetica,sans-Serif" font-size="10.00" fill="#000000">UIManager::setCallbackFunctions</text>
</a>
</g>
</g>
<!-- Node58&#45;&gt;Node64 -->
<g id="edge14" class="edge">
<title>Node58&#45;&gt;Node64</title>
<path fill="none" stroke="#191970" d="M1029.3498,-285C1076.7184,-285 1142.1124,-285 1194.7707,-285"/>
<polygon fill="#191970" stroke="#191970" points="1029.2261,-281.5001 1019.2261,-285 1029.226,-288.5001 1029.2261,-281.5001"/>
</g>
<!-- Node66 -->
<g id="node13" class="node">
<title>Node66</title>
<g id="a_node13"><a xlink:href="classGame.html#a560299f0291c281f7b44e7ef0dd7b264" target="_top" xlink:title="initializes and displays the main menu initializes and displays the main menu ">
<polygon fill="none" stroke="#000000" points="1409,-313.5 1409,-332.5 1512,-332.5 1512,-313.5 1409,-313.5"/>
<text text-anchor="middle" x="1460.5" y="-320.5" font-family="Helvetica,sans-Serif" font-size="10.00" fill="#000000">Game::mainMenu</text>
</a>
</g>
</g>
<!-- Node58&#45;&gt;Node66 -->
<g id="edge15" class="edge">
<title>Node58&#45;&gt;Node66</title>
<path fill="none" stroke="#191970" d="M1012.1831,-273.1536C1088.9308,-255.5868 1246.7778,-228.5138 1373,-266 1404.2834,-275.2907 1434.8332,-299.6963 1450.215,-313.3683"/>
<polygon fill="#191970" stroke="#191970" points="1011.2857,-269.769 1002.3463,-275.4556 1012.8808,-276.5848 1011.2857,-269.769"/>
</g>
<!-- Node60 -->
<g id="node7" class="node">
<title>Node60</title>
<g id="a_node7"><a xlink:href="classEventManager.html#a65ec91fd5016d4f9c4167fb8babed2df" target="_top" xlink:title="EventManager::checkEvents">
<polygon fill="none" stroke="#000000" points="1207,-351.5 1207,-370.5 1361,-370.5 1361,-351.5 1207,-351.5"/>
<text text-anchor="middle" x="1284" y="-358.5" font-family="Helvetica,sans-Serif" font-size="10.00" fill="#000000">EventManager::checkEvents</text>
</a>
</g>
</g>
<!-- Node59&#45;&gt;Node60 -->
<g id="edge6" class="edge">
<title>Node59&#45;&gt;Node60</title>
<path fill="none" stroke="#191970" d="M1161.3541,-334.7562C1172.4832,-337.1575 1184.119,-339.6639 1195,-342 1209.3662,-345.0844 1225.0401,-348.4352 1239.1756,-351.4519"/>
<polygon fill="#191970" stroke="#191970" points="1161.8256,-331.2774 1151.3121,-332.5884 1160.3484,-338.1198 1161.8256,-331.2774"/>
</g>
<!-- Node59&#45;&gt;Node64 -->
<g id="edge10" class="edge">
<title>Node59&#45;&gt;Node64</title>
<path fill="none" stroke="#191970" d="M1161.3541,-311.2438C1172.4832,-308.8425 1184.119,-306.3361 1195,-304 1209.3662,-300.9156 1225.0401,-297.5648 1239.1756,-294.5481"/>
<polygon fill="#191970" stroke="#191970" points="1160.3484,-307.8802 1151.3121,-313.4116 1161.8256,-314.7226 1160.3484,-307.8802"/>
</g>
<!-- Node65 -->
<g id="node12" class="node">
<title>Node65</title>
<g id="a_node12"><a xlink:href="classGame.html#a8272be134d16c277bb014ad6a22fc357" target="_top" xlink:title="Game::quit">
<polygon fill="none" stroke="#000000" points="1248.5,-313.5 1248.5,-332.5 1319.5,-332.5 1319.5,-313.5 1248.5,-313.5"/>
<text text-anchor="middle" x="1284" y="-320.5" font-family="Helvetica,sans-Serif" font-size="10.00" fill="#000000">Game::quit</text>
</a>
</g>
</g>
<!-- Node59&#45;&gt;Node65 -->
<g id="edge11" class="edge">
<title>Node59&#45;&gt;Node65</title>
<path fill="none" stroke="#191970" d="M1169.4886,-323C1195.9691,-323 1225.8596,-323 1248.4608,-323"/>
<polygon fill="#191970" stroke="#191970" points="1169.1485,-319.5001 1159.1485,-323 1169.1485,-326.5001 1169.1485,-319.5001"/>
</g>
<!-- Node61 -->
<g id="node8" class="node">
<title>Node61</title>
<g id="a_node8"><a xlink:href="classGame.html#a1c2ab25d5216b2f4b2fe41efd2c09114" target="_top" xlink:title="begins the game starts running the game ">
<polygon fill="none" stroke="#000000" points="1426.5,-351.5 1426.5,-370.5 1494.5,-370.5 1494.5,-351.5 1426.5,-351.5"/>
<text text-anchor="middle" x="1460.5" y="-358.5" font-family="Helvetica,sans-Serif" font-size="10.00" fill="#000000">Game::run</text>
</a>
</g>
</g>
<!-- Node60&#45;&gt;Node61 -->
<g id="edge7" class="edge">
<title>Node60&#45;&gt;Node61</title>
<path fill="none" stroke="#191970" d="M1371.3664,-361C1390.9355,-361 1410.5625,-361 1426.398,-361"/>
<polygon fill="#191970" stroke="#191970" points="1371.1587,-357.5001 1361.1587,-361 1371.1587,-364.5001 1371.1587,-357.5001"/>
</g>
<!-- Node62 -->
<g id="node9" class="node">
<title>Node62</title>
<g id="a_node9"><a xlink:href="main_8cxx.html#af582d708d899e67ead623eac34a22387" target="_top" xlink:title="protected_main">
<polygon fill="none" stroke="#000000" points="1548,-332.5 1548,-351.5 1641,-351.5 1641,-332.5 1548,-332.5"/>
<text text-anchor="middle" x="1594.5" y="-339.5" font-family="Helvetica,sans-Serif" font-size="10.00" fill="#000000">protected_main</text>
</a>
</g>
</g>
<!-- Node61&#45;&gt;Node62 -->
<g id="edge8" class="edge">
<title>Node61&#45;&gt;Node62</title>
<path fill="none" stroke="#191970" d="M1504.8611,-354.71C1518.6278,-352.758 1533.8396,-350.6011 1547.7626,-348.6269"/>
<polygon fill="#191970" stroke="#191970" points="1504.0702,-351.287 1494.6606,-356.1563 1505.0529,-358.2177 1504.0702,-351.287"/>
</g>
<!-- Node63 -->
<g id="node10" class="node">
<title>Node63</title>
<g id="a_node10"><a xlink:href="main_8cxx.html#a3c04138a5bfe5d72780bb7e82a18e627" target="_top" xlink:title="main">
<polygon fill="none" stroke="#000000" points="1677,-332.5 1677,-351.5 1718,-351.5 1718,-332.5 1677,-332.5"/>
<text text-anchor="middle" x="1697.5" y="-339.5" font-family="Helvetica,sans-Serif" font-size="10.00" fill="#000000">main</text>
</a>
</g>
</g>
<!-- Node62&#45;&gt;Node63 -->
<g id="edge9" class="edge">
<title>Node62&#45;&gt;Node63</title>
<path fill="none" stroke="#191970" d="M1651.2133,-342C1660.4322,-342 1669.4259,-342 1676.9965,-342"/>
<polygon fill="#191970" stroke="#191970" points="1651.1782,-338.5001 1641.1782,-342 1651.1781,-345.5001 1651.1782,-338.5001"/>
</g>
<!-- Node65&#45;&gt;Node66 -->
<g id="edge12" class="edge">
<title>Node65&#45;&gt;Node66</title>
<path fill="none" stroke="#191970" d="M1330.0403,-323C1354.1836,-323 1383.8403,-323 1408.7739,-323"/>
<polygon fill="#191970" stroke="#191970" points="1329.7174,-319.5001 1319.7174,-323 1329.7174,-326.5001 1329.7174,-319.5001"/>
</g>
<!-- Node66&#45;&gt;Node62 -->
<g id="edge13" class="edge">
<title>Node66&#45;&gt;Node62</title>
<path fill="none" stroke="#191970" d="M1522.2457,-331.755C1530.7846,-332.9657 1539.438,-334.1927 1547.6465,-335.3566"/>
<polygon fill="#191970" stroke="#191970" points="1522.7003,-328.2845 1512.3079,-330.3459 1521.7175,-335.2152 1522.7003,-328.2845"/>
</g>
<!-- Node68 -->
<g id="node15" class="node">
<title>Node68</title>
<g id="a_node15"><a xlink:href="classTerrainGenerator.html#afd2668a80a6f5043d2b8d6c7a5044ede" target="_top" xlink:title="TerrainGenerator::generate\lTerrain">
<polygon fill="none" stroke="#000000" points="372,-245 372,-275 520,-275 520,-245 372,-245"/>
<text text-anchor="start" x="380" y="-263" font-family="Helvetica,sans-Serif" font-size="10.00" fill="#000000">TerrainGenerator::generate</text>
<text text-anchor="middle" x="446" y="-252" font-family="Helvetica,sans-Serif" font-size="10.00" fill="#000000">Terrain</text>
</a>
</g>
</g>
<!-- Node67&#45;&gt;Node68 -->
<g id="edge17" class="edge">
<title>Node67&#45;&gt;Node68</title>
<path fill="none" stroke="#191970" d="M326.3882,-258.8554C341.4957,-259 357.0337,-259.1486 371.7029,-259.289"/>
<polygon fill="#191970" stroke="#191970" points="326.047,-255.3521 316.0139,-258.7561 325.98,-262.3517 326.047,-255.3521"/>
</g>
<!-- Node69 -->
<g id="node16" class="node">
<title>Node69</title>
<g id="a_node16"><a xlink:href="classMap.html#a26eceeccd7b6ed693909b1927a25c67a" target="_top" xlink:title="Map::Map">
<polygon fill="none" stroke="#000000" points="608.5,-253.5 608.5,-272.5 671.5,-272.5 671.5,-253.5 608.5,-253.5"/>
<text text-anchor="middle" x="640" y="-260.5" font-family="Helvetica,sans-Serif" font-size="10.00" fill="#000000">Map::Map</text>
</a>
</g>
</g>
<!-- Node68&#45;&gt;Node69 -->
<g id="edge18" class="edge">
<title>Node68&#45;&gt;Node69</title>
<path fill="none" stroke="#191970" d="M530.3097,-261.3038C558.0419,-261.7326 587.1821,-262.1832 608.452,-262.5121"/>
<polygon fill="#191970" stroke="#191970" points="530.2264,-257.8021 520.1735,-261.147 530.1181,-264.8013 530.2264,-257.8021"/>
</g>
<!-- Node69&#45;&gt;Node57 -->
<g id="edge19" class="edge">
<title>Node69&#45;&gt;Node57</title>
<path fill="none" stroke="#191970" d="M681.7534,-268.264C702.6732,-270.9015 728.4381,-274.1498 751.6855,-277.0807"/>
<polygon fill="#191970" stroke="#191970" points="681.9599,-264.7625 671.6006,-266.984 681.0843,-271.7075 681.9599,-264.7625"/>
</g>
<!-- Node71 -->
<g id="node18" class="node">
<title>Node71</title>
<g id="a_node18"><a xlink:href="classResourcesManager.html#a7fe5ff24c1df6a60214bea3ca474d155" target="_top" xlink:title="ResourcesManager::Resources\lManager">
<polygon fill="none" stroke="#000000" points="364,-196 364,-226 528,-226 528,-196 364,-196"/>
<text text-anchor="start" x="372" y="-214" font-family="Helvetica,sans-Serif" font-size="10.00" fill="#000000">ResourcesManager::Resources</text>
<text text-anchor="middle" x="446" y="-203" font-family="Helvetica,sans-Serif" font-size="10.00" fill="#000000">Manager</text>
</a>
</g>
</g>
<!-- Node70&#45;&gt;Node71 -->
<g id="edge21" class="edge">
<title>Node70&#45;&gt;Node71</title>
<path fill="none" stroke="#191970" d="M338.1284,-211.5161C346.7268,-211.475 355.3558,-211.4337 363.782,-211.3934"/>
<polygon fill="#191970" stroke="#191970" points="338.0456,-208.0164 328.0625,-211.5643 338.0791,-215.0163 338.0456,-208.0164"/>
</g>
<!-- Node73 -->
<g id="node20" class="node">
<title>Node73</title>
<g id="a_node20"><a xlink:href="classTileManager.html#ac6f5d9eb4db57f9ad597223658574394" target="_top" xlink:title="TileManager::TileManager">
<polygon fill="none" stroke="#000000" points="374.5,-157.5 374.5,-176.5 517.5,-176.5 517.5,-157.5 374.5,-157.5"/>
<text text-anchor="middle" x="446" y="-164.5" font-family="Helvetica,sans-Serif" font-size="10.00" fill="#000000">TileManager::TileManager</text>
</a>
</g>
</g>
<!-- Node72&#45;&gt;Node73 -->
<g id="edge23" class="edge">
<title>Node72&#45;&gt;Node73</title>
<path fill="none" stroke="#191970" d="M296.154,-172.0188C320.4719,-171.2043 348.8542,-170.2537 374.3368,-169.4002"/>
<polygon fill="#191970" stroke="#191970" points="295.8784,-168.5259 286.0012,-172.3588 296.1128,-175.522 295.8784,-168.5259"/>
</g>
<!-- Node74 -->
<g id="node21" class="node">
<title>Node74</title>
<g id="a_node21"><a xlink:href="classTileManager.html#af094937b10637c493557e22b42cf25ed" target="_top" xlink:title="TileManager::getAllTileData">
<polygon fill="none" stroke="#000000" points="564,-138.5 564,-157.5 716,-157.5 716,-138.5 564,-138.5"/>
<text text-anchor="middle" x="640" y="-145.5" font-family="Helvetica,sans-Serif" font-size="10.00" fill="#000000">TileManager::getAllTileData</text>
</a>
</g>
</g>
<!-- Node72&#45;&gt;Node74 -->
<g id="edge25" class="edge">
<title>Node72&#45;&gt;Node74</title>
<path fill="none" stroke="#191970" d="M292.4157,-162.3943C324.8581,-155.6441 360.2079,-148.3842 364,-148 431.3376,-141.1779 508.3916,-141.8841 563.9398,-143.8879"/>
<polygon fill="#191970" stroke="#191970" points="291.5547,-158.9985 282.4789,-164.4647 292.9826,-165.8513 291.5547,-158.9985"/>
</g>
<!-- Node73&#45;&gt;Node74 -->
<g id="edge24" class="edge">
<title>Node73&#45;&gt;Node74</title>
<path fill="none" stroke="#191970" d="M527.6413,-159.0042C539.6004,-157.833 551.8791,-156.6304 563.7252,-155.4702"/>
<polygon fill="#191970" stroke="#191970" points="527.2985,-155.5209 517.6873,-159.9791 527.9808,-162.4876 527.2985,-155.5209"/>
</g>
</g>
</svg>
