<?xml version="1.0" encoding="UTF-8" standalone="no"?>
<!DOCTYPE svg PUBLIC "-//W3C//DTD SVG 1.1//EN"
 "http://www.w3.org/Graphics/SVG/1.1/DTD/svg11.dtd">
<!-- Generated by graphviz version 2.40.1 (20161225.0304)
 -->
<!-- Title: src/services/Randomizer.cxx Pages: 1 -->
<!--zoomable 308 -->
<svg id="main" version="1.1" xmlns="http://www.w3.org/2000/svg" xmlns:xlink="http://www.w3.org/1999/xlink" xml:space="preserve" onload="init(evt)">
<style type="text/css"><![CDATA[
.edge:hover path { stroke: red; }
.edge:hover polygon { stroke: red; fill: red; }
]]></style>
<script type="text/javascript"><![CDATA[
var edges = document.getElementsByTagName('g');
if (edges && edges.length) {
  for (var i=0;i<edges.length;i++) {
    if (edges[i].id.substr(0,4)=='edge') {
      edges[i].setAttribute('class','edge');
    }
  }
}
]]></script>
        <defs>
                <circle id="rim" cx="0" cy="0" r="7"/>
                <circle id="rim2" cx="0" cy="0" r="3.5"/>
                <g id="zoomPlus">
                        <use xlink:href="#rim" fill="#404040">
                                <set attributeName="fill" to="#808080" begin="zoomplus.mouseover" end="zoomplus.mouseout"/>
                        </use>
                        <path d="M-4,0h8M0,-4v8" fill="none" stroke="white" stroke-width="1.5" pointer-events="none"/>
                </g>
                <g id="zoomMin">
                        <use xlink:href="#rim" fill="#404040">
                                <set attributeName="fill" to="#808080" begin="zoomminus.mouseover" end="zoomminus.mouseout"/>
                        </use>
                        <path d="M-4,0h8" fill="none" stroke="white" stroke-width="1.5" pointer-events="none"/>
                </g>
                <g id="dirArrow">
                        <path fill="none" stroke="white" stroke-width="1.5" d="M0,-3.0v7 M-2.5,-0.5L0,-3.0L2.5,-0.5"/>
                </g>
               <g id="resetDef">
                       <use xlink:href="#rim2" fill="#404040">
                               <set attributeName="fill" to="#808080" begin="reset.mouseover" end="reset.mouseout"/>
                       </use>
               </g>
        </defs>

<script type="text/javascript">
var viewWidth = 1156;
var viewHeight = 308;
var sectionId = 'dynsection-0';
</script>
<script xlink:href="svgpan.js"/>
<svg id="graph" class="graph">
<g id="viewport">
<title>src/services/Randomizer.cxx</title>
<!-- Node0 -->
<g id="node1" class="node">
<title>Node0</title>
<polygon fill="#bfbfbf" stroke="#000000" points="418,-280.5 418,-299.5 573,-299.5 573,-280.5 418,-280.5"/>
<text text-anchor="middle" x="495.5" y="-287.5" font-family="Helvetica,sans-Serif" font-size="10.00" fill="#000000">src/services/Randomizer.cxx</text>
</g>
<!-- Node1 -->
<g id="node2" class="node">
<title>Node1</title>
<g id="a_node2"><a xlink:href="Randomizer_8hxx.html" target="_top" xlink:title="Randomizer.hxx">
<polygon fill="none" stroke="#000000" points="448,-224.5 448,-243.5 543,-243.5 543,-224.5 448,-224.5"/>
<text text-anchor="middle" x="495.5" y="-231.5" font-family="Helvetica,sans-Serif" font-size="10.00" fill="#000000">Randomizer.hxx</text>
</a>
</g>
</g>
<!-- Node0&#45;&gt;Node1 -->
<g id="edge1" class="edge">
<title>Node0&#45;&gt;Node1</title>
<path fill="none" stroke="#191970" d="M495.5,-280.2455C495.5,-272.9382 495.5,-262.6944 495.5,-253.7046"/>
<polygon fill="#191970" stroke="#191970" points="499.0001,-253.6426 495.5,-243.6427 492.0001,-253.6427 499.0001,-253.6426"/>
</g>
<!-- Node2 -->
<g id="node3" class="node">
<title>Node2</title>
<polygon fill="none" stroke="#bfbfbf" points="369.5,-168.5 369.5,-187.5 423.5,-187.5 423.5,-168.5 369.5,-168.5"/>
<text text-anchor="middle" x="396.5" y="-175.5" font-family="Helvetica,sans-Serif" font-size="10.00" fill="#000000">random</text>
</g>
<!-- Node1&#45;&gt;Node2 -->
<g id="edge2" class="edge">
<title>Node1&#45;&gt;Node2</title>
<path fill="none" stroke="#191970" d="M478.2555,-224.2455C462.9239,-215.5731 440.2801,-202.7645 422.7084,-192.825"/>
<polygon fill="#191970" stroke="#191970" points="423.9741,-189.5198 413.5469,-187.6427 420.5276,-195.6126 423.9741,-189.5198"/>
</g>
<!-- Node3 -->
<g id="node4" class="node">
<title>Node3</title>
<polygon fill="none" stroke="#bfbfbf" points="442,-168.5 442,-187.5 495,-187.5 495,-168.5 442,-168.5"/>
<text text-anchor="middle" x="468.5" y="-175.5" font-family="Helvetica,sans-Serif" font-size="10.00" fill="#000000">iterator</text>
</g>
<!-- Node1&#45;&gt;Node3 -->
<g id="edge3" class="edge">
<title>Node1&#45;&gt;Node3</title>
<path fill="none" stroke="#191970" d="M490.797,-224.2455C487.1576,-216.6973 482.0076,-206.0158 477.5738,-196.8197"/>
<polygon fill="#191970" stroke="#191970" points="480.6449,-195.1303 473.1491,-187.6427 474.3395,-198.1704 480.6449,-195.1303"/>
</g>
<!-- Node4 -->
<g id="node5" class="node">
<title>Node4</title>
<g id="a_node5"><a xlink:href="GameService_8hxx.html" target="_top" xlink:title="../GameService.hxx">
<polygon fill="none" stroke="#000000" points="603.5,-168.5 603.5,-187.5 715.5,-187.5 715.5,-168.5 603.5,-168.5"/>
<text text-anchor="middle" x="659.5" y="-175.5" font-family="Helvetica,sans-Serif" font-size="10.00" fill="#000000">../GameService.hxx</text>
</a>
</g>
</g>
<!-- Node1&#45;&gt;Node4 -->
<g id="edge4" class="edge">
<title>Node1&#45;&gt;Node4</title>
<path fill="none" stroke="#191970" d="M523.6926,-224.3733C550.8453,-215.1016 592.0907,-201.0178 622.0025,-190.804"/>
<polygon fill="#191970" stroke="#191970" points="623.3428,-194.0449 631.6753,-187.5011 621.0808,-187.4204 623.3428,-194.0449"/>
</g>
<!-- Node15 -->
<g id="node16" class="node">
<title>Node15</title>
<g id="a_node16"><a xlink:href="LOG_8hxx.html" target="_top" xlink:title="LOG.hxx">
<polygon fill="none" stroke="#000000" points="443.5,-112.5 443.5,-131.5 501.5,-131.5 501.5,-112.5 443.5,-112.5"/>
<text text-anchor="middle" x="472.5" y="-119.5" font-family="Helvetica,sans-Serif" font-size="10.00" fill="#000000">LOG.hxx</text>
</a>
</g>
</g>
<!-- Node1&#45;&gt;Node15 -->
<g id="edge15" class="edge">
<title>Node1&#45;&gt;Node15</title>
<path fill="none" stroke="#191970" d="M499.0943,-224.3841C503.4283,-211.3377 509.4353,-187.4279 503.5,-168 500.3591,-157.7192 494.0634,-147.6582 487.9612,-139.5799"/>
<polygon fill="#191970" stroke="#191970" points="490.5816,-137.2539 481.5741,-131.6757 485.137,-141.6535 490.5816,-137.2539"/>
</g>
<!-- Node5 -->
<g id="node6" class="node">
<title>Node5</title>
<g id="a_node6"><a xlink:href="Events_8hxx.html" target="_top" xlink:title="Events.hxx">
<polygon fill="none" stroke="#000000" points="819,-112.5 819,-131.5 890,-131.5 890,-112.5 819,-112.5"/>
<text text-anchor="middle" x="854.5" y="-119.5" font-family="Helvetica,sans-Serif" font-size="10.00" fill="#000000">Events.hxx</text>
</a>
</g>
</g>
<!-- Node4&#45;&gt;Node5 -->
<g id="edge5" class="edge">
<title>Node4&#45;&gt;Node5</title>
<path fill="none" stroke="#191970" d="M693.0217,-168.3733C725.8683,-158.9404 776.0595,-144.5265 811.7578,-134.2747"/>
<polygon fill="#191970" stroke="#191970" points="812.7703,-137.6255 821.4157,-131.5011 810.8381,-130.8974 812.7703,-137.6255"/>
</g>
<!-- Node14 -->
<g id="node15" class="node">
<title>Node14</title>
<g id="a_node15"><a xlink:href="GameService_8inl_8hxx.html" target="_top" xlink:title="GameService.inl.hxx">
<polygon fill="none" stroke="#000000" points="600.5,-112.5 600.5,-131.5 718.5,-131.5 718.5,-112.5 600.5,-112.5"/>
<text text-anchor="middle" x="659.5" y="-119.5" font-family="Helvetica,sans-Serif" font-size="10.00" fill="#000000">GameService.inl.hxx</text>
</a>
</g>
</g>
<!-- Node4&#45;&gt;Node14 -->
<g id="edge14" class="edge">
<title>Node4&#45;&gt;Node14</title>
<path fill="none" stroke="#191970" d="M659.5,-168.2455C659.5,-160.9382 659.5,-150.6944 659.5,-141.7046"/>
<polygon fill="#191970" stroke="#191970" points="663.0001,-141.6426 659.5,-131.6427 656.0001,-141.6427 663.0001,-141.6426"/>
</g>
<!-- Node6 -->
<g id="node7" class="node">
<title>Node6</title>
<polygon fill="none" stroke="#bfbfbf" points="752.5,-56.5 752.5,-75.5 796.5,-75.5 796.5,-56.5 752.5,-56.5"/>
<text text-anchor="middle" x="774.5" y="-63.5" font-family="Helvetica,sans-Serif" font-size="10.00" fill="#000000">string</text>
</g>
<!-- Node5&#45;&gt;Node6 -->
<g id="edge6" class="edge">
<title>Node5&#45;&gt;Node6</title>
<path fill="none" stroke="#191970" d="M840.5651,-112.2455C828.4053,-103.7337 810.5536,-91.2375 796.4715,-81.3801"/>
<polygon fill="#191970" stroke="#191970" points="798.4747,-78.51 788.2752,-75.6427 794.4605,-84.2447 798.4747,-78.51"/>
</g>
<!-- Node7 -->
<g id="node8" class="node">
<title>Node7</title>
<polygon fill="none" stroke="#bfbfbf" points="912.5,-56.5 912.5,-75.5 1012.5,-75.5 1012.5,-56.5 912.5,-56.5"/>
<text text-anchor="middle" x="962.5" y="-63.5" font-family="Helvetica,sans-Serif" font-size="10.00" fill="#000000">betterEnums.hxx</text>
</g>
<!-- Node5&#45;&gt;Node7 -->
<g id="edge7" class="edge">
<title>Node5&#45;&gt;Node7</title>
<path fill="none" stroke="#191970" d="M873.3122,-112.2455C890.3473,-103.4125 915.6575,-90.2887 934.9681,-80.2758"/>
<polygon fill="#191970" stroke="#191970" points="936.637,-83.353 943.9034,-75.6427 933.4147,-77.1388 936.637,-83.353"/>
</g>
<!-- Node8 -->
<g id="node9" class="node">
<title>Node8</title>
<g id="a_node9"><a xlink:href="Meta_8hxx.html" target="_top" xlink:title="util/Meta.hxx">
<polygon fill="none" stroke="#000000" points="814.5,-56.5 814.5,-75.5 894.5,-75.5 894.5,-56.5 814.5,-56.5"/>
<text text-anchor="middle" x="854.5" y="-63.5" font-family="Helvetica,sans-Serif" font-size="10.00" fill="#000000">util/Meta.hxx</text>
</a>
</g>
</g>
<!-- Node5&#45;&gt;Node8 -->
<g id="edge8" class="edge">
<title>Node5&#45;&gt;Node8</title>
<path fill="none" stroke="#191970" d="M854.5,-112.2455C854.5,-104.9382 854.5,-94.6944 854.5,-85.7046"/>
<polygon fill="#191970" stroke="#191970" points="858.0001,-85.6426 854.5,-75.6427 851.0001,-85.6427 858.0001,-85.6426"/>
</g>
<!-- Node13 -->
<g id="node14" class="node">
<title>Node13</title>
<g id="a_node14"><a xlink:href="UIEvents_8hxx.html" target="_top" xlink:title="events/UIEvents.hxx">
<polygon fill="none" stroke="#000000" points="1031,-56.5 1031,-75.5 1148,-75.5 1148,-56.5 1031,-56.5"/>
<text text-anchor="middle" x="1089.5" y="-63.5" font-family="Helvetica,sans-Serif" font-size="10.00" fill="#000000">events/UIEvents.hxx</text>
</a>
</g>
</g>
<!-- Node5&#45;&gt;Node13 -->
<g id="edge13" class="edge">
<title>Node5&#45;&gt;Node13</title>
<path fill="none" stroke="#191970" d="M890.1914,-113.4948C930.0615,-103.9939 994.8794,-88.5479 1039.7198,-77.8625"/>
<polygon fill="#191970" stroke="#191970" points="1040.6152,-81.2472 1049.5315,-75.5244 1038.9925,-74.4379 1040.6152,-81.2472"/>
</g>
<!-- Node9 -->
<g id="node10" class="node">
<title>Node9</title>
<polygon fill="none" stroke="#bfbfbf" points="415.5,-.5 415.5,-19.5 475.5,-19.5 475.5,-.5 415.5,-.5"/>
<text text-anchor="middle" x="445.5" y="-7.5" font-family="Helvetica,sans-Serif" font-size="10.00" fill="#000000">iostream</text>
</g>
<!-- Node8&#45;&gt;Node9 -->
<g id="edge9" class="edge">
<title>Node8&#45;&gt;Node9</title>
<path fill="none" stroke="#191970" d="M814.4336,-57.571C811.4153,-57.0133 808.4123,-56.4825 805.5,-56 690.1471,-36.8866 552.8625,-21.312 486.0566,-14.1891"/>
<polygon fill="#191970" stroke="#191970" points="486.267,-10.6919 475.954,-13.1193 485.5297,-17.653 486.267,-10.6919"/>
</g>
<!-- Node10 -->
<g id="node11" class="node">
<title>Node10</title>
<polygon fill="none" stroke="#bfbfbf" points="742,-.5 742,-19.5 811,-19.5 811,-.5 742,-.5"/>
<text text-anchor="middle" x="776.5" y="-7.5" font-family="Helvetica,sans-Serif" font-size="10.00" fill="#000000">type_traits</text>
</g>
<!-- Node8&#45;&gt;Node10 -->
<g id="edge10" class="edge">
<title>Node8&#45;&gt;Node10</title>
<path fill="none" stroke="#191970" d="M840.9134,-56.2455C829.1695,-47.814 811.9801,-35.4729 798.3118,-25.6598"/>
<polygon fill="#191970" stroke="#191970" points="800.0954,-22.6316 789.9309,-19.6427 796.0129,-28.3179 800.0954,-22.6316"/>
</g>
<!-- Node11 -->
<g id="node12" class="node">
<title>Node11</title>
<polygon fill="none" stroke="#bfbfbf" points="829,-.5 829,-19.5 880,-19.5 880,-.5 829,-.5"/>
<text text-anchor="middle" x="854.5" y="-7.5" font-family="Helvetica,sans-Serif" font-size="10.00" fill="#000000">variant</text>
</g>
<!-- Node8&#45;&gt;Node11 -->
<g id="edge11" class="edge">
<title>Node8&#45;&gt;Node11</title>
<path fill="none" stroke="#191970" d="M854.5,-56.2455C854.5,-48.9382 854.5,-38.6944 854.5,-29.7046"/>
<polygon fill="#191970" stroke="#191970" points="858.0001,-29.6426 854.5,-19.6427 851.0001,-29.6427 858.0001,-29.6426"/>
</g>
<!-- Node12 -->
<g id="node13" class="node">
<title>Node12</title>
<polygon fill="none" stroke="#bfbfbf" points="898,-.5 898,-19.5 939,-19.5 939,-.5 898,-.5"/>
<text text-anchor="middle" x="918.5" y="-7.5" font-family="Helvetica,sans-Serif" font-size="10.00" fill="#000000">tuple</text>
</g>
<!-- Node8&#45;&gt;Node12 -->
<g id="edge12" class="edge">
<title>Node8&#45;&gt;Node12</title>
<path fill="none" stroke="#191970" d="M865.6479,-56.2455C875.0087,-48.0549 888.5858,-36.1749 899.6349,-26.5069"/>
<polygon fill="#191970" stroke="#191970" points="902.2588,-28.8618 907.4798,-19.6427 897.6492,-23.5937 902.2588,-28.8618"/>
</g>
<!-- Node15&#45;&gt;Node6 -->
<g id="edge16" class="edge">
<title>Node15&#45;&gt;Node6</title>
<path fill="none" stroke="#191970" d="M501.6575,-118.4522C549.9056,-112.2812 649.4768,-98.278 742.4188,-75.9946"/>
<polygon fill="#191970" stroke="#191970" points="743.3713,-79.3651 752.2588,-73.5977 741.7145,-72.5639 743.3713,-79.3651"/>
</g>
<!-- Node15&#45;&gt;Node8 -->
<g id="edge28" class="edge">
<title>Node15&#45;&gt;Node8</title>
<path fill="none" stroke="#191970" d="M501.5486,-118.6225C557.9329,-111.9305 686.3335,-96.0268 804.4891,-76.0867"/>
<polygon fill="#191970" stroke="#191970" points="805.1568,-79.5235 814.428,-74.3956 803.9825,-72.6227 805.1568,-79.5235"/>
</g>
<!-- Node15&#45;&gt;Node9 -->
<g id="edge20" class="edge">
<title>Node15&#45;&gt;Node9</title>
<path fill="none" stroke="#191970" d="M443.295,-119.7998C369.7926,-113.9677 181.6947,-97.1038 163.5,-76 157.6958,-69.2677 157.7427,-62.7725 163.5,-56 178.9646,-37.8084 330.6721,-20.9613 404.9457,-13.7259"/>
<polygon fill="#191970" stroke="#191970" points="405.6976,-17.1698 415.3168,-12.7291 405.0278,-10.2019 405.6976,-17.1698"/>
</g>
<!-- Node16 -->
<g id="node17" class="node">
<title>Node16</title>
<g id="a_node17"><a xlink:href="Exception_8hxx.html" target="_top" xlink:title="Exception.hxx">
<polygon fill="none" stroke="#000000" points="30.5,-56.5 30.5,-75.5 116.5,-75.5 116.5,-56.5 30.5,-56.5"/>
<text text-anchor="middle" x="73.5" y="-63.5" font-family="Helvetica,sans-Serif" font-size="10.00" fill="#000000">Exception.hxx</text>
</a>
</g>
</g>
<!-- Node15&#45;&gt;Node16 -->
<g id="edge17" class="edge">
<title>Node15&#45;&gt;Node16</title>
<path fill="none" stroke="#191970" d="M443.1643,-118.4555C383.9514,-111.2126 245.9469,-93.8836 130.5,-76 129.2434,-75.8053 127.9718,-75.6055 126.6896,-75.4014"/>
<polygon fill="#191970" stroke="#191970" points="127.164,-71.9326 116.7299,-73.7711 126.0332,-78.8407 127.164,-71.9326"/>
</g>
<!-- Node19 -->
<g id="node20" class="node">
<title>Node19</title>
<polygon fill="none" stroke="#bfbfbf" points="172.5,-56.5 172.5,-75.5 222.5,-75.5 222.5,-56.5 172.5,-56.5"/>
<text text-anchor="middle" x="197.5" y="-63.5" font-family="Helvetica,sans-Serif" font-size="10.00" fill="#000000">chrono</text>
</g>
<!-- Node15&#45;&gt;Node19 -->
<g id="edge21" class="edge">
<title>Node15&#45;&gt;Node19</title>
<path fill="none" stroke="#191970" d="M443.3684,-117.3825C399.6388,-110.2479 314.2741,-95.5352 232.6143,-76.0959"/>
<polygon fill="#191970" stroke="#191970" points="233.2189,-72.6415 222.6773,-73.702 231.5794,-79.4468 233.2189,-72.6415"/>
</g>
<!-- Node20 -->
<g id="node21" class="node">
<title>Node20</title>
<polygon fill="none" stroke="#bfbfbf" points="240.5,-56.5 240.5,-75.5 284.5,-75.5 284.5,-56.5 240.5,-56.5"/>
<text text-anchor="middle" x="262.5" y="-63.5" font-family="Helvetica,sans-Serif" font-size="10.00" fill="#000000">ctime</text>
</g>
<!-- Node15&#45;&gt;Node20 -->
<g id="edge22" class="edge">
<title>Node15&#45;&gt;Node20</title>
<path fill="none" stroke="#191970" d="M443.2088,-115.0494C409.514,-106.9282 352.3342,-92.7639 294.4681,-76.1661"/>
<polygon fill="#191970" stroke="#191970" points="295.3801,-72.7864 284.8014,-73.372 293.4363,-79.5112 295.3801,-72.7864"/>
</g>
<!-- Node21 -->
<g id="node22" class="node">
<title>Node21</title>
<polygon fill="none" stroke="#bfbfbf" points="303,-56.5 303,-75.5 358,-75.5 358,-56.5 303,-56.5"/>
<text text-anchor="middle" x="330.5" y="-63.5" font-family="Helvetica,sans-Serif" font-size="10.00" fill="#000000">fstream</text>
</g>
<!-- Node15&#45;&gt;Node21 -->
<g id="edge23" class="edge">
<title>Node15&#45;&gt;Node21</title>
<path fill="none" stroke="#191970" d="M448.0893,-112.3733C424.8858,-103.2226 389.7962,-89.3844 363.9858,-79.2057"/>
<polygon fill="#191970" stroke="#191970" points="365.1789,-75.9139 354.5921,-75.5011 362.6108,-82.4258 365.1789,-75.9139"/>
</g>
<!-- Node22 -->
<g id="node23" class="node">
<title>Node22</title>
<polygon fill="none" stroke="#bfbfbf" points="376.5,-56.5 376.5,-75.5 432.5,-75.5 432.5,-56.5 376.5,-56.5"/>
<text text-anchor="middle" x="404.5" y="-63.5" font-family="Helvetica,sans-Serif" font-size="10.00" fill="#000000">sstream</text>
</g>
<!-- Node15&#45;&gt;Node22 -->
<g id="edge24" class="edge">
<title>Node15&#45;&gt;Node22</title>
<path fill="none" stroke="#191970" d="M460.6553,-112.2455C450.612,-103.9746 436.0005,-91.9416 424.1996,-82.2232"/>
<polygon fill="#191970" stroke="#191970" points="426.1533,-79.298 416.209,-75.6427 421.7033,-84.7015 426.1533,-79.298"/>
</g>
<!-- Node23 -->
<g id="node24" class="node">
<title>Node23</title>
<polygon fill="none" stroke="#bfbfbf" points="450.5,-56.5 450.5,-75.5 494.5,-75.5 494.5,-56.5 450.5,-56.5"/>
<text text-anchor="middle" x="472.5" y="-63.5" font-family="Helvetica,sans-Serif" font-size="10.00" fill="#000000">SDL.h</text>
</g>
<!-- Node15&#45;&gt;Node23 -->
<g id="edge25" class="edge">
<title>Node15&#45;&gt;Node23</title>
<path fill="none" stroke="#191970" d="M472.5,-112.2455C472.5,-104.9382 472.5,-94.6944 472.5,-85.7046"/>
<polygon fill="#191970" stroke="#191970" points="476.0001,-85.6426 472.5,-75.6427 469.0001,-85.6427 476.0001,-85.6426"/>
</g>
<!-- Node24 -->
<g id="node25" class="node">
<title>Node24</title>
<polygon fill="none" stroke="#bfbfbf" points="512.5,-56.5 512.5,-75.5 576.5,-75.5 576.5,-56.5 512.5,-56.5"/>
<text text-anchor="middle" x="544.5" y="-63.5" font-family="Helvetica,sans-Serif" font-size="10.00" fill="#000000">algorithm</text>
</g>
<!-- Node15&#45;&gt;Node24 -->
<g id="edge26" class="edge">
<title>Node15&#45;&gt;Node24</title>
<path fill="none" stroke="#191970" d="M485.0414,-112.2455C495.7787,-103.8943 511.4473,-91.7076 524.0047,-81.9408"/>
<polygon fill="#191970" stroke="#191970" points="526.3575,-84.5449 532.1023,-75.6427 522.0599,-79.0194 526.3575,-84.5449"/>
</g>
<!-- Node25 -->
<g id="node26" class="node">
<title>Node25</title>
<polygon fill="none" stroke="#bfbfbf" points="594.5,-56.5 594.5,-75.5 642.5,-75.5 642.5,-56.5 594.5,-56.5"/>
<text text-anchor="middle" x="618.5" y="-63.5" font-family="Helvetica,sans-Serif" font-size="10.00" fill="#000000">mutex</text>
</g>
<!-- Node15&#45;&gt;Node25 -->
<g id="edge27" class="edge">
<title>Node15&#45;&gt;Node25</title>
<path fill="none" stroke="#191970" d="M497.5983,-112.3733C521.6001,-103.1671 557.9713,-89.2165 584.5524,-79.021"/>
<polygon fill="#191970" stroke="#191970" points="586.131,-82.1642 594.2144,-75.315 583.6242,-75.6285 586.131,-82.1642"/>
</g>
<!-- Node26 -->
<g id="node27" class="node">
<title>Node26</title>
<g id="a_node27"><a xlink:href="LOG_8inl_8hxx.html" target="_top" xlink:title="LOG.inl.hxx">
<polygon fill="none" stroke="#000000" points="661,-56.5 661,-75.5 734,-75.5 734,-56.5 661,-56.5"/>
<text text-anchor="middle" x="697.5" y="-63.5" font-family="Helvetica,sans-Serif" font-size="10.00" fill="#000000">LOG.inl.hxx</text>
</a>
</g>
</g>
<!-- Node15&#45;&gt;Node26 -->
<g id="edge29" class="edge">
<title>Node15&#45;&gt;Node26</title>
<path fill="none" stroke="#191970" d="M501.9148,-114.679C539.8998,-105.2249 606.4373,-88.6645 651.2267,-77.5169"/>
<polygon fill="#191970" stroke="#191970" points="652.1355,-80.8976 660.9941,-75.0859 650.4448,-74.1048 652.1355,-80.8976"/>
</g>
<!-- Node17 -->
<g id="node18" class="node">
<title>Node17</title>
<polygon fill="none" stroke="#bfbfbf" points="0,-.5 0,-19.5 65,-19.5 65,-.5 0,-.5"/>
<text text-anchor="middle" x="32.5" y="-7.5" font-family="Helvetica,sans-Serif" font-size="10.00" fill="#000000">stdexcept</text>
</g>
<!-- Node16&#45;&gt;Node17 -->
<g id="edge18" class="edge">
<title>Node16&#45;&gt;Node17</title>
<path fill="none" stroke="#191970" d="M66.3583,-56.2455C60.6556,-48.4564 52.51,-37.3308 45.6375,-27.9439"/>
<polygon fill="#191970" stroke="#191970" points="48.2913,-25.6437 39.5598,-19.6427 42.6432,-29.7789 48.2913,-25.6437"/>
</g>
<!-- Node18 -->
<g id="node19" class="node">
<title>Node18</title>
<polygon fill="none" stroke="#bfbfbf" points="83,-.5 83,-19.5 148,-19.5 148,-.5 83,-.5"/>
<text text-anchor="middle" x="115.5" y="-7.5" font-family="Helvetica,sans-Serif" font-size="10.00" fill="#000000">exception</text>
</g>
<!-- Node16&#45;&gt;Node18 -->
<g id="edge19" class="edge">
<title>Node16&#45;&gt;Node18</title>
<path fill="none" stroke="#191970" d="M80.8158,-56.2455C86.7179,-48.3761 95.1742,-37.101 102.2594,-27.6542"/>
<polygon fill="#191970" stroke="#191970" points="105.068,-29.7427 108.268,-19.6427 99.4679,-25.5427 105.068,-29.7427"/>
</g>
</g>
</svg>
        <g id="navigator" transform="translate(0 0)" fill="#404254">
                <rect fill="#f2f5e9" fill-opacity="0.5" stroke="#606060" stroke-width=".5" x="0" y="0" width="60" height="60"/>
                <use id="zoomplus" xlink:href="#zoomPlus" x="17" y="9" onmousedown="handleZoom(evt,'in')"/>
                <use id="zoomminus" xlink:href="#zoomMin" x="42" y="9" onmousedown="handleZoom(evt,'out')"/>
                <use id="reset" xlink:href="#resetDef" x="30" y="36" onmousedown="handleReset()"/>
                <g id="arrowUp" xlink:href="#dirArrow" transform="translate(30 24)" onmousedown="handlePan(0,-1)">
                  <use xlink:href="#rim" fill="#404040">
                        <set attributeName="fill" to="#808080" begin="arrowUp.mouseover" end="arrowUp.mouseout"/>
                  </use>
                  <path fill="none" stroke="white" stroke-width="1.5" d="M0,-3.0v7 M-2.5,-0.5L0,-3.0L2.5,-0.5"/>
                </g>
                <g id="arrowRight" xlink:href="#dirArrow" transform="rotate(90) translate(36 -43)" onmousedown="handlePan(1,0)">
                  <use xlink:href="#rim" fill="#404040">
                        <set attributeName="fill" to="#808080" begin="arrowRight.mouseover" end="arrowRight.mouseout"/>
                  </use>
                  <path fill="none" stroke="white" stroke-width="1.5" d="M0,-3.0v7 M-2.5,-0.5L0,-3.0L2.5,-0.5"/>
                </g>
                <g id="arrowDown" xlink:href="#dirArrow" transform="rotate(180) translate(-30 -48)" onmousedown="handlePan(0,1)">
                  <use xlink:href="#rim" fill="#404040">
                        <set attributeName="fill" to="#808080" begin="arrowDown.mouseover" end="arrowDown.mouseout"/>
                  </use>
                  <path fill="none" stroke="white" stroke-width="1.5" d="M0,-3.0v7 M-2.5,-0.5L0,-3.0L2.5,-0.5"/>
                </g>
                <g id="arrowLeft" xlink:href="#dirArrow" transform="rotate(270) translate(-36 17)" onmousedown="handlePan(-1,0)">
                  <use xlink:href="#rim" fill="#404040">
                        <set attributeName="fill" to="#808080" begin="arrowLeft.mouseover" end="arrowLeft.mouseout"/>
                  </use>
                  <path fill="none" stroke="white" stroke-width="1.5" d="M0,-3.0v7 M-2.5,-0.5L0,-3.0L2.5,-0.5"/>
                </g>
        </g>
        <svg viewBox="0 0 15 15" width="100%" height="30px" preserveAspectRatio="xMaxYMin meet">
         <g id="arrow_out" transform="scale(0.3 0.3)">
          <a xlink:href="Randomizer_8cxx__incl_org.svg" target="_base">
           <rect id="button" ry="5" rx="5" y="6" x="6" height="38" width="38"
                fill="#f2f5e9" fill-opacity="0.5" stroke="#606060" stroke-width="1.0"/>
           <path id="arrow"
             d="M 11.500037,31.436501 C 11.940474,20.09759 22.043105,11.32322 32.158766,21.979434 L 37.068811,17.246167 C 37.068811,17.246167 37.088388,32 37.088388,32 L 22.160133,31.978069 C 22.160133,31.978069 26.997745,27.140456 26.997745,27.140456 C 18.528582,18.264221 13.291696,25.230495 11.500037,31.436501 z"
             style="fill:#404040;"/>
          </a>
         </g>
        </svg>
</svg>
