<?xml version="1.0" encoding="UTF-8" standalone="no"?>
<!DOCTYPE svg PUBLIC "-//W3C//DTD SVG 1.1//EN"
 "http://www.w3.org/Graphics/SVG/1.1/DTD/svg11.dtd">
<!-- Generated by graphviz version 2.40.1 (20161225.0304)
 -->
<!-- Title: src/services/ResourceManager.cxx Pages: 1 -->
<svg width="1985pt" height="420pt"
 viewBox="0.00 0.00 1984.50 420.00" xmlns="http://www.w3.org/2000/svg" xmlns:xlink="http://www.w3.org/1999/xlink">
<g id="graph0" class="graph" transform="scale(1 1) rotate(0) translate(4 416)">
<title>src/services/ResourceManager.cxx</title>
<!-- Node0 -->
<g id="node1" class="node">
<title>Node0</title>
<polygon fill="#bfbfbf" stroke="#000000" points="820,-392.5 820,-411.5 1003,-411.5 1003,-392.5 820,-392.5"/>
<text text-anchor="middle" x="911.5" y="-399.5" font-family="Helvetica,sans-Serif" font-size="10.00" fill="#000000">src/services/ResourceManager.cxx</text>
</g>
<!-- Node1 -->
<g id="node2" class="node">
<title>Node1</title>
<g id="a_node2"><a xlink:href="ResourceManager_8hxx.html" target="_top" xlink:title="ResourceManager.hxx">
<polygon fill="none" stroke="#000000" points="426,-280.5 426,-299.5 549,-299.5 549,-280.5 426,-280.5"/>
<text text-anchor="middle" x="487.5" y="-287.5" font-family="Helvetica,sans-Serif" font-size="10.00" fill="#000000">ResourceManager.hxx</text>
</a>
</g>
</g>
<!-- Node0&#45;&gt;Node1 -->
<g id="edge1" class="edge">
<title>Node0&#45;&gt;Node1</title>
<path fill="none" stroke="#191970" d="M875.35,-392.4509C798.3736,-372.1176 618.3826,-324.5728 533.4337,-302.1334"/>
<polygon fill="#191970" stroke="#191970" points="534.1208,-298.6949 523.5585,-299.5249 532.333,-305.4628 534.1208,-298.6949"/>
</g>
<!-- Node15 -->
<g id="node16" class="node">
<title>Node15</title>
<g id="a_node16"><a xlink:href="Exception_8hxx.html" target="_top" xlink:title="../util/Exception.hxx">
<polygon fill="none" stroke="#000000" points="52,-168.5 52,-187.5 165,-187.5 165,-168.5 52,-168.5"/>
<text text-anchor="middle" x="108.5" y="-175.5" font-family="Helvetica,sans-Serif" font-size="10.00" fill="#000000">../util/Exception.hxx</text>
</a>
</g>
</g>
<!-- Node0&#45;&gt;Node15 -->
<g id="edge17" class="edge">
<title>Node0&#45;&gt;Node15</title>
<path fill="none" stroke="#191970" d="M819.7693,-394.2972C680.4556,-379.8494 409.7391,-340.8755 201.5,-244 173.4234,-230.9384 144.9397,-209.201 127.0267,-194.2645"/>
<polygon fill="#191970" stroke="#191970" points="129.0147,-191.3605 119.1303,-187.5461 124.4786,-196.692 129.0147,-191.3605"/>
</g>
<!-- Node18 -->
<g id="node19" class="node">
<title>Node18</title>
<g id="a_node19"><a xlink:href="LOG_8hxx.html" target="_top" xlink:title="../util/LOG.hxx">
<polygon fill="none" stroke="#000000" points="739.5,-224.5 739.5,-243.5 825.5,-243.5 825.5,-224.5 739.5,-224.5"/>
<text text-anchor="middle" x="782.5" y="-231.5" font-family="Helvetica,sans-Serif" font-size="10.00" fill="#000000">../util/LOG.hxx</text>
</a>
</g>
</g>
<!-- Node0&#45;&gt;Node18 -->
<g id="edge20" class="edge">
<title>Node0&#45;&gt;Node18</title>
<path fill="none" stroke="#191970" d="M904.1948,-392.4862C883.3615,-365.3545 823.4112,-287.2798 796.2121,-251.8576"/>
<polygon fill="#191970" stroke="#191970" points="798.9127,-249.6278 790.0464,-243.8279 793.3607,-253.891 798.9127,-249.6278"/>
</g>
<!-- Node21 -->
<g id="node22" class="node">
<title>Node21</title>
<polygon fill="none" stroke="#bfbfbf" points="962,-168.5 962,-187.5 1017,-187.5 1017,-168.5 962,-168.5"/>
<text text-anchor="middle" x="989.5" y="-175.5" font-family="Helvetica,sans-Serif" font-size="10.00" fill="#000000">fstream</text>
</g>
<!-- Node0&#45;&gt;Node21 -->
<g id="edge71" class="edge">
<title>Node0&#45;&gt;Node21</title>
<path fill="none" stroke="#191970" d="M914.8516,-392.375C926.7025,-358.3415 966.7748,-243.262 982.7979,-197.247"/>
<polygon fill="#191970" stroke="#191970" points="986.1777,-198.184 986.1609,-187.5891 979.567,-195.882 986.1777,-198.184"/>
</g>
<!-- Node27 -->
<g id="node28" class="node">
<title>Node27</title>
<g id="a_node28"><a xlink:href="JsonSerialization_8hxx.html" target="_top" xlink:title="common/JsonSerialization.hxx">
<polygon fill="none" stroke="#000000" points="1252.5,-336.5 1252.5,-355.5 1416.5,-355.5 1416.5,-336.5 1252.5,-336.5"/>
<text text-anchor="middle" x="1334.5" y="-343.5" font-family="Helvetica,sans-Serif" font-size="10.00" fill="#000000">common/JsonSerialization.hxx</text>
</a>
</g>
</g>
<!-- Node0&#45;&gt;Node27 -->
<g id="edge33" class="edge">
<title>Node0&#45;&gt;Node27</title>
<path fill="none" stroke="#191970" d="M983.7357,-392.4369C1058.2581,-382.571 1174.3056,-367.2078 1252.2949,-356.8829"/>
<polygon fill="#191970" stroke="#191970" points="1253.1081,-360.3059 1262.5623,-355.5237 1252.1894,-353.3665 1253.1081,-360.3059"/>
</g>
<!-- Node44 -->
<g id="node45" class="node">
<title>Node44</title>
<g id="a_node45"><a xlink:href="Filesystem_8hxx.html" target="_top" xlink:title="Filesystem.hxx">
<polygon fill="none" stroke="#000000" points="1886.5,-112.5 1886.5,-131.5 1976.5,-131.5 1976.5,-112.5 1886.5,-112.5"/>
<text text-anchor="middle" x="1931.5" y="-119.5" font-family="Helvetica,sans-Serif" font-size="10.00" fill="#000000">Filesystem.hxx</text>
</a>
</g>
</g>
<!-- Node0&#45;&gt;Node44 -->
<g id="edge72" class="edge">
<title>Node0&#45;&gt;Node44</title>
<path fill="none" stroke="#191970" d="M1003.0771,-396.5196C1250.4324,-381.1134 1913.5,-335.5655 1913.5,-290 1913.5,-290 1913.5,-290 1913.5,-234 1913.5,-201.1472 1921.1431,-163.5528 1926.4684,-141.3462"/>
<polygon fill="#191970" stroke="#191970" points="1929.8987,-142.0551 1928.921,-131.5055 1923.1065,-140.3622 1929.8987,-142.0551"/>
</g>
<!-- Node2 -->
<g id="node3" class="node">
<title>Node2</title>
<polygon fill="none" stroke="#bfbfbf" points="1052,-112.5 1052,-131.5 1145,-131.5 1145,-112.5 1052,-112.5"/>
<text text-anchor="middle" x="1098.5" y="-119.5" font-family="Helvetica,sans-Serif" font-size="10.00" fill="#000000">unordered_map</text>
</g>
<!-- Node1&#45;&gt;Node2 -->
<g id="edge2" class="edge">
<title>Node1&#45;&gt;Node2</title>
<path fill="none" stroke="#191970" d="M549.1925,-284.6688C701.4108,-270.884 1085.2171,-232.0467 1121.5,-188 1133.0001,-174.0391 1123.3097,-153.9595 1113.2072,-139.62"/>
<polygon fill="#191970" stroke="#191970" points="1115.8945,-137.3719 1107.0495,-131.5395 1110.3268,-141.6147 1115.8945,-137.3719"/>
</g>
<!-- Node3 -->
<g id="node4" class="node">
<title>Node3</title>
<polygon fill="none" stroke="#bfbfbf" points="1028.5,-56.5 1028.5,-75.5 1072.5,-75.5 1072.5,-56.5 1028.5,-56.5"/>
<text text-anchor="middle" x="1050.5" y="-63.5" font-family="Helvetica,sans-Serif" font-size="10.00" fill="#000000">string</text>
</g>
<!-- Node1&#45;&gt;Node3 -->
<g id="edge3" class="edge">
<title>Node1&#45;&gt;Node3</title>
<path fill="none" stroke="#191970" d="M492.3314,-280.0839C508.5501,-248.109 564.6136,-147.7307 645.5,-112 712.2406,-82.5181 934.2448,-70.6852 1018.0744,-67.1976"/>
<polygon fill="#191970" stroke="#191970" points="1018.4259,-70.6864 1028.2767,-66.7863 1018.1438,-63.6921 1018.4259,-70.6864"/>
</g>
<!-- Node4 -->
<g id="node5" class="node">
<title>Node4</title>
<g id="a_node5"><a xlink:href="GameService_8hxx.html" target="_top" xlink:title="../GameService.hxx">
<polygon fill="none" stroke="#000000" points="385.5,-224.5 385.5,-243.5 497.5,-243.5 497.5,-224.5 385.5,-224.5"/>
<text text-anchor="middle" x="441.5" y="-231.5" font-family="Helvetica,sans-Serif" font-size="10.00" fill="#000000">../GameService.hxx</text>
</a>
</g>
</g>
<!-- Node1&#45;&gt;Node4 -->
<g id="edge4" class="edge">
<title>Node1&#45;&gt;Node4</title>
<path fill="none" stroke="#191970" d="M479.4874,-280.2455C473.0232,-272.3761 463.7615,-261.101 456.0017,-251.6542"/>
<polygon fill="#191970" stroke="#191970" points="458.4727,-249.1484 449.4208,-243.6427 453.0636,-253.5916 458.4727,-249.1484"/>
</g>
<!-- Node7 -->
<g id="node8" class="node">
<title>Node7</title>
<g id="a_node8"><a xlink:href="Meta_8hxx.html" target="_top" xlink:title="util/Meta.hxx">
<polygon fill="none" stroke="#000000" points="348.5,-112.5 348.5,-131.5 428.5,-131.5 428.5,-112.5 348.5,-112.5"/>
<text text-anchor="middle" x="388.5" y="-119.5" font-family="Helvetica,sans-Serif" font-size="10.00" fill="#000000">util/Meta.hxx</text>
</a>
</g>
</g>
<!-- Node1&#45;&gt;Node7 -->
<g id="edge15" class="edge">
<title>Node1&#45;&gt;Node7</title>
<path fill="none" stroke="#191970" d="M425.8557,-287.5677C356.0048,-283.4542 248.2395,-272.5476 220.5,-244 196.8308,-219.6412 191.741,-194.882 212.5,-168 216.4699,-162.8591 288.0361,-145.3254 338.6704,-133.4521"/>
<polygon fill="#191970" stroke="#191970" points="339.5501,-136.841 348.492,-131.1583 337.958,-130.0244 339.5501,-136.841"/>
</g>
<!-- Node14 -->
<g id="node15" class="node">
<title>Node14</title>
<g id="a_node15"><a xlink:href="ResourceManager_8inl_8hxx.html" target="_top" xlink:title="ResourceManager.inl.hxx">
<polygon fill="none" stroke="#000000" points="229.5,-224.5 229.5,-243.5 367.5,-243.5 367.5,-224.5 229.5,-224.5"/>
<text text-anchor="middle" x="298.5" y="-231.5" font-family="Helvetica,sans-Serif" font-size="10.00" fill="#000000">ResourceManager.inl.hxx</text>
</a>
</g>
</g>
<!-- Node1&#45;&gt;Node14 -->
<g id="edge16" class="edge">
<title>Node1&#45;&gt;Node14</title>
<path fill="none" stroke="#191970" d="M455.0097,-280.3733C423.3098,-270.9807 374.9424,-256.6496 340.3714,-246.4064"/>
<polygon fill="#191970" stroke="#191970" points="341.1486,-242.9863 330.5663,-243.5011 339.1599,-249.6979 341.1486,-242.9863"/>
</g>
<!-- Node5 -->
<g id="node6" class="node">
<title>Node5</title>
<g id="a_node6"><a xlink:href="Events_8hxx.html" target="_top" xlink:title="Events.hxx">
<polygon fill="none" stroke="#000000" points="222,-168.5 222,-187.5 293,-187.5 293,-168.5 222,-168.5"/>
<text text-anchor="middle" x="257.5" y="-175.5" font-family="Helvetica,sans-Serif" font-size="10.00" fill="#000000">Events.hxx</text>
</a>
</g>
</g>
<!-- Node4&#45;&gt;Node5 -->
<g id="edge5" class="edge">
<title>Node4&#45;&gt;Node5</title>
<path fill="none" stroke="#191970" d="M409.8693,-224.3733C379.1404,-215.021 332.324,-200.7725 298.6978,-190.5385"/>
<polygon fill="#191970" stroke="#191970" points="299.3038,-187.0644 288.718,-187.5011 297.2656,-193.7612 299.3038,-187.0644"/>
</g>
<!-- Node13 -->
<g id="node14" class="node">
<title>Node13</title>
<g id="a_node14"><a xlink:href="GameService_8inl_8hxx.html" target="_top" xlink:title="GameService.inl.hxx">
<polygon fill="none" stroke="#000000" points="311.5,-168.5 311.5,-187.5 429.5,-187.5 429.5,-168.5 311.5,-168.5"/>
<text text-anchor="middle" x="370.5" y="-175.5" font-family="Helvetica,sans-Serif" font-size="10.00" fill="#000000">GameService.inl.hxx</text>
</a>
</g>
</g>
<!-- Node4&#45;&gt;Node13 -->
<g id="edge14" class="edge">
<title>Node4&#45;&gt;Node13</title>
<path fill="none" stroke="#191970" d="M429.1327,-224.2455C418.5446,-215.8943 403.0936,-203.7076 390.7107,-193.9408"/>
<polygon fill="#191970" stroke="#191970" points="392.7447,-191.0875 382.7255,-187.6427 388.4097,-196.5837 392.7447,-191.0875"/>
</g>
<!-- Node5&#45;&gt;Node3 -->
<g id="edge6" class="edge">
<title>Node5&#45;&gt;Node3</title>
<path fill="none" stroke="#191970" d="M293.1176,-168.8668C362.1102,-151.1978 508.2247,-113.896 519.5,-112 706.797,-80.5056 935.1013,-69.9433 1018.2549,-66.9934"/>
<polygon fill="#191970" stroke="#191970" points="1018.4628,-70.4884 1028.3372,-66.6482 1018.2232,-63.4925 1018.4628,-70.4884"/>
</g>
<!-- Node6 -->
<g id="node7" class="node">
<title>Node6</title>
<polygon fill="none" stroke="#bfbfbf" points="807.5,-.5 807.5,-19.5 907.5,-19.5 907.5,-.5 807.5,-.5"/>
<text text-anchor="middle" x="857.5" y="-7.5" font-family="Helvetica,sans-Serif" font-size="10.00" fill="#000000">betterEnums.hxx</text>
</g>
<!-- Node5&#45;&gt;Node6 -->
<g id="edge7" class="edge">
<title>Node5&#45;&gt;Node6</title>
<path fill="none" stroke="#191970" d="M239.5401,-168.3701C226.8676,-160.4681 210.8833,-147.9885 203.5,-132 189.3388,-101.3341 180.4686,-80.7082 203.5,-56 223.6009,-34.4356 639.5937,-17.6444 797.4583,-12.0265"/>
<polygon fill="#191970" stroke="#191970" points="797.6061,-15.5235 807.4763,-11.6727 797.359,-8.5279 797.6061,-15.5235"/>
</g>
<!-- Node5&#45;&gt;Node7 -->
<g id="edge8" class="edge">
<title>Node5&#45;&gt;Node7</title>
<path fill="none" stroke="#191970" d="M280.0197,-168.3733C301.2372,-159.3032 333.2276,-145.6279 356.9769,-135.4755"/>
<polygon fill="#191970" stroke="#191970" points="358.4548,-138.6502 366.2742,-131.5011 355.7033,-132.2136 358.4548,-138.6502"/>
</g>
<!-- Node12 -->
<g id="node13" class="node">
<title>Node12</title>
<g id="a_node13"><a xlink:href="UIEvents_8hxx.html" target="_top" xlink:title="events/UIEvents.hxx">
<polygon fill="none" stroke="#000000" points="213,-112.5 213,-131.5 330,-131.5 330,-112.5 213,-112.5"/>
<text text-anchor="middle" x="271.5" y="-119.5" font-family="Helvetica,sans-Serif" font-size="10.00" fill="#000000">events/UIEvents.hxx</text>
</a>
</g>
</g>
<!-- Node5&#45;&gt;Node12 -->
<g id="edge13" class="edge">
<title>Node5&#45;&gt;Node12</title>
<path fill="none" stroke="#191970" d="M259.9386,-168.2455C261.7855,-160.8579 264.3828,-150.4689 266.6478,-141.4087"/>
<polygon fill="#191970" stroke="#191970" points="270.0594,-142.193 269.0893,-131.6427 263.2684,-140.4952 270.0594,-142.193"/>
</g>
<!-- Node8 -->
<g id="node9" class="node">
<title>Node8</title>
<polygon fill="none" stroke="#bfbfbf" points="428.5,-56.5 428.5,-75.5 488.5,-75.5 488.5,-56.5 428.5,-56.5"/>
<text text-anchor="middle" x="458.5" y="-63.5" font-family="Helvetica,sans-Serif" font-size="10.00" fill="#000000">iostream</text>
</g>
<!-- Node7&#45;&gt;Node8 -->
<g id="edge9" class="edge">
<title>Node7&#45;&gt;Node8</title>
<path fill="none" stroke="#191970" d="M400.6931,-112.2455C411.1321,-103.8943 426.3655,-91.7076 438.574,-81.9408"/>
<polygon fill="#191970" stroke="#191970" points="440.8244,-84.6227 446.4467,-75.6427 436.4515,-79.1566 440.8244,-84.6227"/>
</g>
<!-- Node9 -->
<g id="node10" class="node">
<title>Node9</title>
<polygon fill="none" stroke="#bfbfbf" points="213,-56.5 213,-75.5 282,-75.5 282,-56.5 213,-56.5"/>
<text text-anchor="middle" x="247.5" y="-63.5" font-family="Helvetica,sans-Serif" font-size="10.00" fill="#000000">type_traits</text>
</g>
<!-- Node7&#45;&gt;Node9 -->
<g id="edge10" class="edge">
<title>Node7&#45;&gt;Node9</title>
<path fill="none" stroke="#191970" d="M364.2612,-112.3733C341.2211,-103.2226 306.3786,-89.3844 280.7499,-79.2057"/>
<polygon fill="#191970" stroke="#191970" points="282.0082,-75.9395 271.4225,-75.5011 279.4244,-82.4452 282.0082,-75.9395"/>
</g>
<!-- Node10 -->
<g id="node11" class="node">
<title>Node10</title>
<polygon fill="none" stroke="#bfbfbf" points="300,-56.5 300,-75.5 351,-75.5 351,-56.5 300,-56.5"/>
<text text-anchor="middle" x="325.5" y="-63.5" font-family="Helvetica,sans-Serif" font-size="10.00" fill="#000000">variant</text>
</g>
<!-- Node7&#45;&gt;Node10 -->
<g id="edge11" class="edge">
<title>Node7&#45;&gt;Node10</title>
<path fill="none" stroke="#191970" d="M377.5262,-112.2455C368.3118,-104.0549 354.9468,-92.1749 344.0703,-82.5069"/>
<polygon fill="#191970" stroke="#191970" points="346.1474,-79.6704 336.348,-75.6427 341.4968,-84.9023 346.1474,-79.6704"/>
</g>
<!-- Node11 -->
<g id="node12" class="node">
<title>Node11</title>
<polygon fill="none" stroke="#bfbfbf" points="369,-56.5 369,-75.5 410,-75.5 410,-56.5 369,-56.5"/>
<text text-anchor="middle" x="389.5" y="-63.5" font-family="Helvetica,sans-Serif" font-size="10.00" fill="#000000">tuple</text>
</g>
<!-- Node7&#45;&gt;Node11 -->
<g id="edge12" class="edge">
<title>Node7&#45;&gt;Node11</title>
<path fill="none" stroke="#191970" d="M388.6742,-112.2455C388.8047,-104.9382 388.9876,-94.6944 389.1481,-85.7046"/>
<polygon fill="#191970" stroke="#191970" points="392.6486,-85.7036 389.3278,-75.6427 385.6497,-85.5786 392.6486,-85.7036"/>
</g>
<!-- Node16 -->
<g id="node17" class="node">
<title>Node16</title>
<polygon fill="none" stroke="#bfbfbf" points="0,-112.5 0,-131.5 65,-131.5 65,-112.5 0,-112.5"/>
<text text-anchor="middle" x="32.5" y="-119.5" font-family="Helvetica,sans-Serif" font-size="10.00" fill="#000000">stdexcept</text>
</g>
<!-- Node15&#45;&gt;Node16 -->
<g id="edge18" class="edge">
<title>Node15&#45;&gt;Node16</title>
<path fill="none" stroke="#191970" d="M95.2618,-168.2455C83.819,-159.814 67.0704,-147.4729 53.7525,-137.6598"/>
<polygon fill="#191970" stroke="#191970" points="55.7133,-134.757 45.5865,-131.6427 51.5609,-140.3924 55.7133,-134.757"/>
</g>
<!-- Node17 -->
<g id="node18" class="node">
<title>Node17</title>
<polygon fill="none" stroke="#bfbfbf" points="83,-112.5 83,-131.5 148,-131.5 148,-112.5 83,-112.5"/>
<text text-anchor="middle" x="115.5" y="-119.5" font-family="Helvetica,sans-Serif" font-size="10.00" fill="#000000">exception</text>
</g>
<!-- Node15&#45;&gt;Node17 -->
<g id="edge19" class="edge">
<title>Node15&#45;&gt;Node17</title>
<path fill="none" stroke="#191970" d="M109.7193,-168.2455C110.6327,-160.9382 111.9132,-150.6944 113.0369,-141.7046"/>
<polygon fill="#191970" stroke="#191970" points="116.5272,-141.9996 114.2947,-131.6427 109.5813,-141.1313 116.5272,-141.9996"/>
</g>
<!-- Node18&#45;&gt;Node3 -->
<g id="edge21" class="edge">
<title>Node18&#45;&gt;Node3</title>
<path fill="none" stroke="#191970" d="M739.0577,-229.7643C688.219,-223.8049 608.6489,-211.0107 590.5,-188 584.9953,-181.0207 584.9364,-174.9324 590.5,-168 644.5448,-100.6586 922.284,-75.0181 1018.0183,-68.0969"/>
<polygon fill="#191970" stroke="#191970" points="1018.5223,-71.5702 1028.2528,-67.3788 1018.0323,-64.5874 1018.5223,-71.5702"/>
</g>
<!-- Node18&#45;&gt;Node7 -->
<g id="edge31" class="edge">
<title>Node18&#45;&gt;Node7</title>
<path fill="none" stroke="#191970" d="M739.2483,-229.8742C667.5555,-222.6227 527.4426,-206.586 481.5,-188 452.6362,-176.3232 424.1385,-154.0854 406.4499,-138.6689"/>
<polygon fill="#191970" stroke="#191970" points="408.469,-135.7792 398.6805,-131.7249 403.8042,-140.9984 408.469,-135.7792"/>
</g>
<!-- Node18&#45;&gt;Node8 -->
<g id="edge23" class="edge">
<title>Node18&#45;&gt;Node8</title>
<path fill="none" stroke="#191970" d="M739.2732,-231.0132C696.8254,-226.5434 631.3648,-215.4455 581.5,-188 533.4433,-161.5497 491.431,-110.8651 471.2423,-83.902"/>
<polygon fill="#191970" stroke="#191970" points="473.9909,-81.7315 465.2552,-75.7367 468.3458,-85.8707 473.9909,-81.7315"/>
</g>
<!-- Node18&#45;&gt;Node15 -->
<g id="edge22" class="edge">
<title>Node18&#45;&gt;Node15</title>
<path fill="none" stroke="#191970" d="M739.2198,-230.7349C643.9763,-223.4996 409.0522,-205.3797 212.5,-188 200.5015,-186.9391 187.7298,-185.7557 175.3935,-184.5847"/>
<polygon fill="#191970" stroke="#191970" points="175.4475,-181.074 165.1599,-183.607 174.7817,-188.0423 175.4475,-181.074"/>
</g>
<!-- Node19 -->
<g id="node20" class="node">
<title>Node19</title>
<polygon fill="none" stroke="#bfbfbf" points="757.5,-168.5 757.5,-187.5 807.5,-187.5 807.5,-168.5 757.5,-168.5"/>
<text text-anchor="middle" x="782.5" y="-175.5" font-family="Helvetica,sans-Serif" font-size="10.00" fill="#000000">chrono</text>
</g>
<!-- Node18&#45;&gt;Node19 -->
<g id="edge24" class="edge">
<title>Node18&#45;&gt;Node19</title>
<path fill="none" stroke="#191970" d="M782.5,-224.2455C782.5,-216.9382 782.5,-206.6944 782.5,-197.7046"/>
<polygon fill="#191970" stroke="#191970" points="786.0001,-197.6426 782.5,-187.6427 779.0001,-197.6427 786.0001,-197.6426"/>
</g>
<!-- Node20 -->
<g id="node21" class="node">
<title>Node20</title>
<polygon fill="none" stroke="#bfbfbf" points="825.5,-168.5 825.5,-187.5 869.5,-187.5 869.5,-168.5 825.5,-168.5"/>
<text text-anchor="middle" x="847.5" y="-175.5" font-family="Helvetica,sans-Serif" font-size="10.00" fill="#000000">ctime</text>
</g>
<!-- Node18&#45;&gt;Node20 -->
<g id="edge25" class="edge">
<title>Node18&#45;&gt;Node20</title>
<path fill="none" stroke="#191970" d="M793.8221,-224.2455C803.4223,-215.9746 817.3892,-203.9416 828.6695,-194.2232"/>
<polygon fill="#191970" stroke="#191970" points="831.016,-196.8214 836.3076,-187.6427 826.447,-191.5182 831.016,-196.8214"/>
</g>
<!-- Node18&#45;&gt;Node21 -->
<g id="edge26" class="edge">
<title>Node18&#45;&gt;Node21</title>
<path fill="none" stroke="#191970" d="M818.0846,-224.3733C855.5421,-214.2398 914.248,-198.358 952.3023,-188.0632"/>
<polygon fill="#191970" stroke="#191970" points="953.2404,-191.4352 961.9794,-185.4452 951.4124,-184.6781 953.2404,-191.4352"/>
</g>
<!-- Node22 -->
<g id="node23" class="node">
<title>Node22</title>
<polygon fill="none" stroke="#bfbfbf" points="887.5,-168.5 887.5,-187.5 943.5,-187.5 943.5,-168.5 887.5,-168.5"/>
<text text-anchor="middle" x="915.5" y="-175.5" font-family="Helvetica,sans-Serif" font-size="10.00" fill="#000000">sstream</text>
</g>
<!-- Node18&#45;&gt;Node22 -->
<g id="edge27" class="edge">
<title>Node18&#45;&gt;Node22</title>
<path fill="none" stroke="#191970" d="M805.3635,-224.3733C826.905,-215.3032 859.3838,-201.6279 883.4956,-191.4755"/>
<polygon fill="#191970" stroke="#191970" points="885.0767,-194.6075 892.9348,-187.5011 882.3603,-188.156 885.0767,-194.6075"/>
</g>
<!-- Node23 -->
<g id="node24" class="node">
<title>Node23</title>
<polygon fill="none" stroke="#bfbfbf" points="1554.5,-112.5 1554.5,-131.5 1598.5,-131.5 1598.5,-112.5 1554.5,-112.5"/>
<text text-anchor="middle" x="1576.5" y="-119.5" font-family="Helvetica,sans-Serif" font-size="10.00" fill="#000000">SDL.h</text>
</g>
<!-- Node18&#45;&gt;Node23 -->
<g id="edge28" class="edge">
<title>Node18&#45;&gt;Node23</title>
<path fill="none" stroke="#191970" d="M825.6406,-233.3038C952.9021,-230.8857 1325.1192,-221.0987 1441.5,-188 1459.8573,-182.7792 1462.4296,-176.5352 1479.5,-168 1501.747,-156.8765 1527.1595,-144.8497 1546.3913,-135.8842"/>
<polygon fill="#191970" stroke="#191970" points="1547.971,-139.0096 1555.5647,-131.6213 1545.021,-132.6615 1547.971,-139.0096"/>
</g>
<!-- Node24 -->
<g id="node25" class="node">
<title>Node24</title>
<polygon fill="none" stroke="#bfbfbf" points="1168.5,-168.5 1168.5,-187.5 1232.5,-187.5 1232.5,-168.5 1168.5,-168.5"/>
<text text-anchor="middle" x="1200.5" y="-175.5" font-family="Helvetica,sans-Serif" font-size="10.00" fill="#000000">algorithm</text>
</g>
<!-- Node18&#45;&gt;Node24 -->
<g id="edge29" class="edge">
<title>Node18&#45;&gt;Node24</title>
<path fill="none" stroke="#191970" d="M825.659,-228.2179C906.2087,-217.4266 1078.4826,-194.3468 1158.2989,-183.6537"/>
<polygon fill="#191970" stroke="#191970" points="1159.0272,-187.0875 1168.4739,-182.2906 1158.0977,-180.1495 1159.0272,-187.0875"/>
</g>
<!-- Node25 -->
<g id="node26" class="node">
<title>Node25</title>
<polygon fill="none" stroke="#bfbfbf" points="599.5,-168.5 599.5,-187.5 647.5,-187.5 647.5,-168.5 599.5,-168.5"/>
<text text-anchor="middle" x="623.5" y="-175.5" font-family="Helvetica,sans-Serif" font-size="10.00" fill="#000000">mutex</text>
</g>
<!-- Node18&#45;&gt;Node25 -->
<g id="edge30" class="edge">
<title>Node18&#45;&gt;Node25</title>
<path fill="none" stroke="#191970" d="M755.1669,-224.3733C728.0829,-214.8342 686.5363,-200.2015 657.3732,-189.9302"/>
<polygon fill="#191970" stroke="#191970" points="658.2131,-186.5153 647.6183,-186.4945 655.8877,-193.1178 658.2131,-186.5153"/>
</g>
<!-- Node26 -->
<g id="node27" class="node">
<title>Node26</title>
<g id="a_node27"><a xlink:href="LOG_8inl_8hxx.html" target="_top" xlink:title="LOG.inl.hxx">
<polygon fill="none" stroke="#000000" points="666,-168.5 666,-187.5 739,-187.5 739,-168.5 666,-168.5"/>
<text text-anchor="middle" x="702.5" y="-175.5" font-family="Helvetica,sans-Serif" font-size="10.00" fill="#000000">LOG.inl.hxx</text>
</a>
</g>
</g>
<!-- Node18&#45;&gt;Node26 -->
<g id="edge32" class="edge">
<title>Node18&#45;&gt;Node26</title>
<path fill="none" stroke="#191970" d="M768.5651,-224.2455C756.4053,-215.7337 738.5536,-203.2375 724.4715,-193.3801"/>
<polygon fill="#191970" stroke="#191970" points="726.4747,-190.51 716.2752,-187.6427 722.4605,-196.2447 726.4747,-190.51"/>
</g>
<!-- Node28 -->
<g id="node29" class="node">
<title>Node28</title>
<polygon fill="none" stroke="#bfbfbf" points="1163.5,-112.5 1163.5,-131.5 1221.5,-131.5 1221.5,-112.5 1163.5,-112.5"/>
<text text-anchor="middle" x="1192.5" y="-119.5" font-family="Helvetica,sans-Serif" font-size="10.00" fill="#000000">json.hxx</text>
</g>
<!-- Node27&#45;&gt;Node28 -->
<g id="edge34" class="edge">
<title>Node27&#45;&gt;Node28</title>
<path fill="none" stroke="#191970" d="M1330.8586,-336.4732C1319.9889,-308.7385 1285.7657,-226.3237 1241.5,-168 1233.207,-157.0733 1222.1971,-146.4813 1212.7146,-138.221"/>
<polygon fill="#191970" stroke="#191970" points="1214.7815,-135.3856 1204.8813,-131.6123 1210.2677,-140.7358 1214.7815,-135.3856"/>
</g>
<!-- Node29 -->
<g id="node30" class="node">
<title>Node29</title>
<g id="a_node30"><a xlink:href="point_8hxx.html" target="_top" xlink:title="point.hxx">
<polygon fill="none" stroke="#000000" points="1730.5,-112.5 1730.5,-131.5 1792.5,-131.5 1792.5,-112.5 1730.5,-112.5"/>
<text text-anchor="middle" x="1761.5" y="-119.5" font-family="Helvetica,sans-Serif" font-size="10.00" fill="#000000">point.hxx</text>
</a>
</g>
</g>
<!-- Node27&#45;&gt;Node29 -->
<g id="edge35" class="edge">
<title>Node27&#45;&gt;Node29</title>
<path fill="none" stroke="#191970" d="M1416.5703,-340.9458C1522.0182,-333.7204 1694.2166,-319.1651 1716.5,-300 1763.1488,-259.8792 1765.0337,-179.0594 1763.1386,-141.728"/>
<polygon fill="#191970" stroke="#191970" points="1766.6234,-141.3805 1762.4745,-131.6318 1759.6385,-141.84 1766.6234,-141.3805"/>
</g>
<!-- Node30 -->
<g id="node31" class="node">
<title>Node30</title>
<g id="a_node31"><a xlink:href="MapNode_8hxx.html" target="_top" xlink:title="GameObjects/MapNode.hxx">
<polygon fill="none" stroke="#000000" points="1470.5,-224.5 1470.5,-243.5 1622.5,-243.5 1622.5,-224.5 1470.5,-224.5"/>
<text text-anchor="middle" x="1546.5" y="-231.5" font-family="Helvetica,sans-Serif" font-size="10.00" fill="#000000">GameObjects/MapNode.hxx</text>
</a>
</g>
</g>
<!-- Node27&#45;&gt;Node30 -->
<g id="edge36" class="edge">
<title>Node27&#45;&gt;Node30</title>
<path fill="none" stroke="#191970" d="M1352.575,-336.4509C1389.8898,-316.7375 1475.619,-271.4465 1519.5186,-248.2543"/>
<polygon fill="#191970" stroke="#191970" points="1521.2637,-251.2908 1528.4707,-243.5249 1517.9939,-245.1015 1521.2637,-251.2908"/>
</g>
<!-- Node40 -->
<g id="node41" class="node">
<title>Node40</title>
<g id="a_node41"><a xlink:href="TerrainGenerator_8hxx.html" target="_top" xlink:title="TerrainGenerator.hxx">
<polygon fill="none" stroke="#000000" points="1588,-280.5 1588,-299.5 1707,-299.5 1707,-280.5 1588,-280.5"/>
<text text-anchor="middle" x="1647.5" y="-287.5" font-family="Helvetica,sans-Serif" font-size="10.00" fill="#000000">TerrainGenerator.hxx</text>
</a>
</g>
</g>
<!-- Node27&#45;&gt;Node40 -->
<g id="edge62" class="edge">
<title>Node27&#45;&gt;Node40</title>
<path fill="none" stroke="#191970" d="M1387.951,-336.4369C1442.3063,-326.712 1526.5165,-311.6456 1584.1819,-301.3285"/>
<polygon fill="#191970" stroke="#191970" points="1585.0422,-304.7302 1594.2695,-299.5237 1583.8094,-297.8396 1585.0422,-304.7302"/>
</g>
<!-- Node42 -->
<g id="node43" class="node">
<title>Node42</title>
<g id="a_node43"><a xlink:href="Settings_8hxx.html" target="_top" xlink:title="Settings.hxx">
<polygon fill="none" stroke="#000000" points="1035,-168.5 1035,-187.5 1112,-187.5 1112,-168.5 1035,-168.5"/>
<text text-anchor="middle" x="1073.5" y="-175.5" font-family="Helvetica,sans-Serif" font-size="10.00" fill="#000000">Settings.hxx</text>
</a>
</g>
</g>
<!-- Node27&#45;&gt;Node42 -->
<g id="edge66" class="edge">
<title>Node27&#45;&gt;Node42</title>
<path fill="none" stroke="#191970" d="M1314.5147,-336.4979C1296.4037,-327.6669 1269.1617,-313.8297 1246.5,-300 1189.4358,-265.1755 1126.1223,-218.2455 1094.2501,-193.9947"/>
<polygon fill="#191970" stroke="#191970" points="1096.1961,-191.0769 1086.1256,-187.7851 1091.9453,-196.6384 1096.1961,-191.0769"/>
</g>
<!-- Node30&#45;&gt;Node3 -->
<g id="edge39" class="edge">
<title>Node30&#45;&gt;Node3</title>
<path fill="none" stroke="#191970" d="M1470.3663,-228.6449C1424.2172,-223.0327 1365.2351,-211.539 1317.5,-188 1271.4518,-165.2929 1275.9427,-135.8958 1230.5,-112 1182.6911,-86.86 1120.4029,-74.9264 1083.039,-69.6792"/>
<polygon fill="#191970" stroke="#191970" points="1083.1138,-66.1586 1072.7406,-68.3145 1082.1941,-73.098 1083.1138,-66.1586"/>
</g>
<!-- Node30&#45;&gt;Node23 -->
<g id="edge37" class="edge">
<title>Node30&#45;&gt;Node23</title>
<path fill="none" stroke="#191970" d="M1549.0578,-224.4509C1553.9729,-206.1013 1564.8239,-165.5908 1571.3118,-141.3693"/>
<polygon fill="#191970" stroke="#191970" points="1574.7421,-142.09 1573.9487,-131.5249 1567.9804,-140.2788 1574.7421,-142.09"/>
</g>
<!-- Node30&#45;&gt;Node24 -->
<g id="edge40" class="edge">
<title>Node30&#45;&gt;Node24</title>
<path fill="none" stroke="#191970" d="M1487.4136,-224.4369C1417.8979,-213.1858 1304.2082,-194.7851 1242.8913,-184.861"/>
<polygon fill="#191970" stroke="#191970" points="1243.2248,-181.3695 1232.7941,-183.2268 1242.1064,-188.2796 1243.2248,-181.3695"/>
</g>
<!-- Node30&#45;&gt;Node29 -->
<g id="edge50" class="edge">
<title>Node30&#45;&gt;Node29</title>
<path fill="none" stroke="#191970" d="M1603.3862,-224.4747C1648.3202,-216.0349 1706.5112,-202.7828 1725.5,-188 1740.5833,-176.2576 1750.1908,-156.3501 1755.6513,-141.4627"/>
<polygon fill="#191970" stroke="#191970" points="1759.0644,-142.2919 1758.9135,-131.6982 1752.4251,-140.0738 1759.0644,-142.2919"/>
</g>
<!-- Node31 -->
<g id="node32" class="node">
<title>Node31</title>
<polygon fill="none" stroke="#bfbfbf" points="1488.5,-168.5 1488.5,-187.5 1546.5,-187.5 1546.5,-168.5 1488.5,-168.5"/>
<text text-anchor="middle" x="1517.5" y="-175.5" font-family="Helvetica,sans-Serif" font-size="10.00" fill="#000000">memory</text>
</g>
<!-- Node30&#45;&gt;Node31 -->
<g id="edge38" class="edge">
<title>Node30&#45;&gt;Node31</title>
<path fill="none" stroke="#191970" d="M1541.4486,-224.2455C1537.4981,-216.617 1531.8903,-205.7881 1527.0942,-196.5267"/>
<polygon fill="#191970" stroke="#191970" points="1530.2001,-194.9131 1522.4935,-187.6427 1523.9841,-198.1321 1530.2001,-194.9131"/>
</g>
<!-- Node32 -->
<g id="node33" class="node">
<title>Node32</title>
<polygon fill="none" stroke="#bfbfbf" points="1797,-56.5 1797,-75.5 1844,-75.5 1844,-56.5 1797,-56.5"/>
<text text-anchor="middle" x="1820.5" y="-63.5" font-family="Helvetica,sans-Serif" font-size="10.00" fill="#000000">vector</text>
</g>
<!-- Node30&#45;&gt;Node32 -->
<g id="edge41" class="edge">
<title>Node30&#45;&gt;Node32</title>
<path fill="none" stroke="#191970" d="M1604.8813,-224.4558C1655.1974,-215.5415 1723.4232,-201.6032 1747.5,-188 1777.603,-170.9921 1784.2075,-161.9404 1801.5,-132 1809.793,-117.6414 1814.6828,-99.4071 1817.4196,-85.7446"/>
<polygon fill="#191970" stroke="#191970" points="1820.9313,-85.9878 1819.2396,-75.5289 1814.0398,-84.76 1820.9313,-85.9878"/>
</g>
<!-- Node33 -->
<g id="node34" class="node">
<title>Node33</title>
<g id="a_node34"><a xlink:href="Sprite_8hxx.html" target="_top" xlink:title="../Sprite.hxx">
<polygon fill="none" stroke="#000000" points="1641,-168.5 1641,-187.5 1716,-187.5 1716,-168.5 1641,-168.5"/>
<text text-anchor="middle" x="1678.5" y="-175.5" font-family="Helvetica,sans-Serif" font-size="10.00" fill="#000000">../Sprite.hxx</text>
</a>
</g>
</g>
<!-- Node30&#45;&gt;Node33 -->
<g id="edge42" class="edge">
<title>Node30&#45;&gt;Node33</title>
<path fill="none" stroke="#191970" d="M1569.1916,-224.3733C1590.5711,-215.3032 1622.8057,-201.6279 1646.7362,-191.4755"/>
<polygon fill="#191970" stroke="#191970" points="1648.2656,-194.6287 1656.1045,-187.5011 1645.5317,-188.1846 1648.2656,-194.6287"/>
</g>
<!-- Node34 -->
<g id="node35" class="node">
<title>Node34</title>
<g id="a_node35"><a xlink:href="enums_8hxx.html" target="_top" xlink:title="common/enums.hxx">
<polygon fill="none" stroke="#000000" points="1503.5,-56.5 1503.5,-75.5 1619.5,-75.5 1619.5,-56.5 1503.5,-56.5"/>
<text text-anchor="middle" x="1561.5" y="-63.5" font-family="Helvetica,sans-Serif" font-size="10.00" fill="#000000">common/enums.hxx</text>
</a>
</g>
</g>
<!-- Node30&#45;&gt;Node34 -->
<g id="edge49" class="edge">
<title>Node30&#45;&gt;Node34</title>
<path fill="none" stroke="#191970" d="M1554.791,-224.4422C1569.0121,-207.3248 1597.4907,-169.6908 1607.5,-132 1609.7815,-123.4089 1610.9016,-120.2123 1607.5,-112 1602.6688,-100.3363 1593.2863,-90.0881 1584.2482,-82.243"/>
<polygon fill="#191970" stroke="#191970" points="1586.167,-79.2942 1576.1852,-75.7423 1581.7734,-84.7436 1586.167,-79.2942"/>
</g>
<!-- Node36 -->
<g id="node37" class="node">
<title>Node36</title>
<g id="a_node37"><a xlink:href="TileManager_8hxx.html" target="_top" xlink:title="../TileManager.hxx">
<polygon fill="none" stroke="#000000" points="1326.5,-168.5 1326.5,-187.5 1432.5,-187.5 1432.5,-168.5 1326.5,-168.5"/>
<text text-anchor="middle" x="1379.5" y="-175.5" font-family="Helvetica,sans-Serif" font-size="10.00" fill="#000000">../TileManager.hxx</text>
</a>
</g>
</g>
<!-- Node30&#45;&gt;Node36 -->
<g id="edge51" class="edge">
<title>Node30&#45;&gt;Node36</title>
<path fill="none" stroke="#191970" d="M1517.7917,-224.3733C1490.1423,-215.1016 1448.1424,-201.0178 1417.6834,-190.804"/>
<polygon fill="#191970" stroke="#191970" points="1418.4276,-187.3621 1407.8337,-187.5011 1416.2021,-193.9989 1418.4276,-187.3621"/>
</g>
<!-- Node33&#45;&gt;Node23 -->
<g id="edge43" class="edge">
<title>Node33&#45;&gt;Node23</title>
<path fill="none" stroke="#191970" d="M1660.733,-168.2455C1644.7905,-159.4928 1621.1741,-146.527 1603.0011,-136.5496"/>
<polygon fill="#191970" stroke="#191970" points="1604.5137,-133.3873 1594.0634,-131.6427 1601.1448,-139.5233 1604.5137,-133.3873"/>
</g>
<!-- Node33&#45;&gt;Node29 -->
<g id="edge45" class="edge">
<title>Node33&#45;&gt;Node29</title>
<path fill="none" stroke="#191970" d="M1692.9575,-168.2455C1705.5732,-159.7337 1724.0944,-147.2375 1738.7045,-137.3801"/>
<polygon fill="#191970" stroke="#191970" points="1740.8761,-140.1371 1747.2082,-131.6427 1736.9609,-134.3343 1740.8761,-140.1371"/>
</g>
<!-- Node33&#45;&gt;Node32 -->
<g id="edge44" class="edge">
<title>Node33&#45;&gt;Node32</title>
<path fill="none" stroke="#191970" d="M1682.701,-168.2661C1689.1971,-154.2026 1702.899,-128.1232 1721.5,-112 1740.5762,-95.4649 1766.6038,-83.6831 1787.1842,-76.1848"/>
<polygon fill="#191970" stroke="#191970" points="1788.4978,-79.4337 1796.7954,-72.8458 1786.2006,-72.8214 1788.4978,-79.4337"/>
</g>
<!-- Node33&#45;&gt;Node34 -->
<g id="edge46" class="edge">
<title>Node33&#45;&gt;Node34</title>
<path fill="none" stroke="#191970" d="M1674.8799,-168.4635C1669.2542,-154.6458 1657.2875,-128.8697 1640.5,-112 1627.2427,-98.6778 1609.3458,-87.8375 1593.9386,-80.0338"/>
<polygon fill="#191970" stroke="#191970" points="1595.2564,-76.7831 1584.7309,-75.5722 1592.2039,-83.0826 1595.2564,-76.7831"/>
</g>
<!-- Node34&#45;&gt;Node6 -->
<g id="edge48" class="edge">
<title>Node34&#45;&gt;Node6</title>
<path fill="none" stroke="#191970" d="M1503.2898,-61.3696C1371.4913,-50.8857 1051.3568,-25.4204 917.6925,-14.788"/>
<polygon fill="#191970" stroke="#191970" points="917.8782,-11.2918 907.6321,-13.9878 917.3231,-18.2698 917.8782,-11.2918"/>
</g>
<!-- Node35 -->
<g id="node36" class="node">
<title>Node35</title>
<polygon fill="none" stroke="#bfbfbf" points="1533.5,-.5 1533.5,-19.5 1589.5,-19.5 1589.5,-.5 1533.5,-.5"/>
<text text-anchor="middle" x="1561.5" y="-7.5" font-family="Helvetica,sans-Serif" font-size="10.00" fill="#000000">stddef.h</text>
</g>
<!-- Node34&#45;&gt;Node35 -->
<g id="edge47" class="edge">
<title>Node34&#45;&gt;Node35</title>
<path fill="none" stroke="#191970" d="M1561.5,-56.2455C1561.5,-48.9382 1561.5,-38.6944 1561.5,-29.7046"/>
<polygon fill="#191970" stroke="#191970" points="1565.0001,-29.6426 1561.5,-19.6427 1558.0001,-29.6427 1565.0001,-29.6426"/>
</g>
<!-- Node36&#45;&gt;Node2 -->
<g id="edge53" class="edge">
<title>Node36&#45;&gt;Node2</title>
<path fill="none" stroke="#191970" d="M1331.5137,-168.4369C1282.7246,-158.7138 1207.143,-143.6513 1155.374,-133.3343"/>
<polygon fill="#191970" stroke="#191970" points="1155.8439,-129.8592 1145.3526,-131.3372 1154.4757,-136.7242 1155.8439,-129.8592"/>
</g>
<!-- Node36&#45;&gt;Node3 -->
<g id="edge54" class="edge">
<title>Node36&#45;&gt;Node3</title>
<path fill="none" stroke="#191970" d="M1365.9002,-168.4171C1344.9038,-154.0606 1302.8923,-127.0523 1263.5,-112 1201.7634,-88.4097 1125.0966,-75.5946 1082.6257,-69.834"/>
<polygon fill="#191970" stroke="#191970" points="1082.9648,-66.3486 1072.5947,-68.5192 1082.055,-73.2892 1082.9648,-66.3486"/>
</g>
<!-- Node36&#45;&gt;Node23 -->
<g id="edge52" class="edge">
<title>Node36&#45;&gt;Node23</title>
<path fill="none" stroke="#191970" d="M1415.5678,-168.4707C1447.2363,-160.0003 1494.7626,-147.0396 1544.5358,-132.2112"/>
<polygon fill="#191970" stroke="#191970" points="1545.6084,-135.5436 1554.1837,-129.3216 1543.5999,-128.838 1545.6084,-135.5436"/>
</g>
<!-- Node36&#45;&gt;Node28 -->
<g id="edge59" class="edge">
<title>Node36&#45;&gt;Node28</title>
<path fill="none" stroke="#191970" d="M1347.3536,-168.3733C1315.2287,-158.753 1265.8035,-143.9519 1231.4652,-133.6687"/>
<polygon fill="#191970" stroke="#191970" points="1232.3523,-130.2809 1221.7685,-130.7649 1230.3441,-136.9866 1232.3523,-130.2809"/>
</g>
<!-- Node37 -->
<g id="node38" class="node">
<title>Node37</title>
<g id="a_node38"><a xlink:href="tileData_8hxx.html" target="_top" xlink:title="tileData.hxx">
<polygon fill="none" stroke="#000000" points="1459,-112.5 1459,-131.5 1536,-131.5 1536,-112.5 1459,-112.5"/>
<text text-anchor="middle" x="1497.5" y="-119.5" font-family="Helvetica,sans-Serif" font-size="10.00" fill="#000000">tileData.hxx</text>
</a>
</g>
</g>
<!-- Node36&#45;&gt;Node37 -->
<g id="edge55" class="edge">
<title>Node36&#45;&gt;Node37</title>
<path fill="none" stroke="#191970" d="M1399.7849,-168.3733C1418.6421,-159.4241 1446.946,-145.9917 1468.2455,-135.8835"/>
<polygon fill="#191970" stroke="#191970" points="1469.9461,-138.9506 1477.4798,-131.5011 1466.9449,-132.6266 1469.9461,-138.9506"/>
</g>
<!-- Node38 -->
<g id="node39" class="node">
<title>Node38</title>
<g id="a_node39"><a xlink:href="Singleton_8hxx.html" target="_top" xlink:title="Singleton.hxx">
<polygon fill="none" stroke="#000000" points="951,-112.5 951,-131.5 1034,-131.5 1034,-112.5 951,-112.5"/>
<text text-anchor="middle" x="992.5" y="-119.5" font-family="Helvetica,sans-Serif" font-size="10.00" fill="#000000">Singleton.hxx</text>
</a>
</g>
</g>
<!-- Node36&#45;&gt;Node38 -->
<g id="edge60" class="edge">
<title>Node36&#45;&gt;Node38</title>
<path fill="none" stroke="#191970" d="M1326.4004,-171.689C1262.0594,-163.8284 1150.1404,-149.4722 1044.1232,-132.0249"/>
<polygon fill="#191970" stroke="#191970" points="1044.6508,-128.5647 1034.213,-130.382 1043.5059,-135.4705 1044.6508,-128.5647"/>
</g>
<!-- Node39 -->
<g id="node40" class="node">
<title>Node39</title>
<polygon fill="none" stroke="#bfbfbf" points="1316,-112.5 1316,-131.5 1441,-131.5 1441,-112.5 1316,-112.5"/>
<text text-anchor="middle" x="1378.5" y="-119.5" font-family="Helvetica,sans-Serif" font-size="10.00" fill="#000000">../common/enums.hxx</text>
</g>
<!-- Node36&#45;&gt;Node39 -->
<g id="edge61" class="edge">
<title>Node36&#45;&gt;Node39</title>
<path fill="none" stroke="#191970" d="M1379.3258,-168.2455C1379.1953,-160.9382 1379.0124,-150.6944 1378.8519,-141.7046"/>
<polygon fill="#191970" stroke="#191970" points="1382.3503,-141.5786 1378.6722,-131.6427 1375.3514,-141.7036 1382.3503,-141.5786"/>
</g>
<!-- Node37&#45;&gt;Node3 -->
<g id="edge56" class="edge">
<title>Node37&#45;&gt;Node3</title>
<path fill="none" stroke="#191970" d="M1458.8264,-113.4669C1456.0144,-112.9401 1453.2169,-112.4442 1450.5,-112 1314.623,-89.7838 1151.0477,-74.5233 1082.8286,-68.6663"/>
<polygon fill="#191970" stroke="#191970" points="1082.9778,-65.1665 1072.7174,-67.8074 1082.3853,-72.1413 1082.9778,-65.1665"/>
</g>
<!-- Node37&#45;&gt;Node32 -->
<g id="edge57" class="edge">
<title>Node37&#45;&gt;Node32</title>
<path fill="none" stroke="#191970" d="M1536.2464,-113.7903C1539.3742,-113.1695 1542.4882,-112.5654 1545.5,-112 1632.2925,-95.7067 1735.0381,-79.2751 1786.9237,-71.1766"/>
<polygon fill="#191970" stroke="#191970" points="1787.5584,-74.62 1796.9014,-69.6242 1786.4822,-67.7032 1787.5584,-74.62"/>
</g>
<!-- Node37&#45;&gt;Node34 -->
<g id="edge58" class="edge">
<title>Node37&#45;&gt;Node34</title>
<path fill="none" stroke="#191970" d="M1508.6479,-112.2455C1518.0087,-104.0549 1531.5858,-92.1749 1542.6349,-82.5069"/>
<polygon fill="#191970" stroke="#191970" points="1545.2588,-84.8618 1550.4798,-75.6427 1540.6492,-79.5937 1545.2588,-84.8618"/>
</g>
<!-- Node40&#45;&gt;Node30 -->
<g id="edge63" class="edge">
<title>Node40&#45;&gt;Node30</title>
<path fill="none" stroke="#191970" d="M1629.9071,-280.2455C1614.121,-271.4928 1590.7361,-258.527 1572.7413,-248.5496"/>
<polygon fill="#191970" stroke="#191970" points="1574.3341,-245.4308 1563.8913,-243.6427 1570.9397,-251.5528 1574.3341,-245.4308"/>
</g>
<!-- Node40&#45;&gt;Node32 -->
<g id="edge65" class="edge">
<title>Node40&#45;&gt;Node32</title>
<path fill="none" stroke="#191970" d="M1667.0413,-280.3754C1706.2336,-259.7304 1792.9546,-206.9093 1819.5,-132 1824.7631,-117.1479 1824.6609,-99.2101 1823.4387,-85.786"/>
<polygon fill="#191970" stroke="#191970" points="1826.9001,-85.2538 1822.2417,-75.7381 1819.9493,-86.0819 1826.9001,-85.2538"/>
</g>
<!-- Node41 -->
<g id="node42" class="node">
<title>Node41</title>
<polygon fill="none" stroke="#bfbfbf" points="1640.5,-224.5 1640.5,-243.5 1678.5,-243.5 1678.5,-224.5 1640.5,-224.5"/>
<text text-anchor="middle" x="1659.5" y="-231.5" font-family="Helvetica,sans-Serif" font-size="10.00" fill="#000000">map</text>
</g>
<!-- Node40&#45;&gt;Node41 -->
<g id="edge64" class="edge">
<title>Node40&#45;&gt;Node41</title>
<path fill="none" stroke="#191970" d="M1649.5902,-280.2455C1651.1561,-272.9382 1653.3512,-262.6944 1655.2776,-253.7046"/>
<polygon fill="#191970" stroke="#191970" points="1658.7607,-254.1541 1657.4337,-243.6427 1651.916,-252.6873 1658.7607,-254.1541"/>
</g>
<!-- Node42&#45;&gt;Node3 -->
<g id="edge67" class="edge">
<title>Node42&#45;&gt;Node3</title>
<path fill="none" stroke="#191970" d="M1034.8585,-169.5144C976.5791,-156.673 872.7899,-133.6166 871.5,-132 865.9561,-125.0518 866.0527,-119.0242 871.5,-112 889.3317,-89.0065 971.7456,-75.5043 1018.28,-69.5862"/>
<polygon fill="#191970" stroke="#191970" points="1018.9534,-73.03 1028.4538,-68.3404 1018.1025,-66.0819 1018.9534,-73.03"/>
</g>
<!-- Node42&#45;&gt;Node7 -->
<g id="edge69" class="edge">
<title>Node42&#45;&gt;Node7</title>
<path fill="none" stroke="#191970" d="M1034.8465,-169.3352C1032.0297,-168.8393 1029.2257,-168.3864 1026.5,-168 809.1597,-137.1929 547.0782,-126.5354 438.9266,-123.2781"/>
<polygon fill="#191970" stroke="#191970" points="438.74,-119.7712 428.6417,-122.9768 438.535,-126.7682 438.74,-119.7712"/>
</g>
<!-- Node42&#45;&gt;Node38 -->
<g id="edge68" class="edge">
<title>Node42&#45;&gt;Node38</title>
<path fill="none" stroke="#191970" d="M1059.3909,-168.2455C1047.0791,-159.7337 1029.0042,-147.2375 1014.7462,-137.3801"/>
<polygon fill="#191970" stroke="#191970" points="1016.6634,-134.4506 1006.4474,-131.6427 1012.6826,-140.2085 1016.6634,-134.4506"/>
</g>
<!-- Node43 -->
<g id="node44" class="node">
<title>Node43</title>
<polygon fill="none" stroke="#bfbfbf" points="880,-112.5 880,-131.5 933,-131.5 933,-112.5 880,-112.5"/>
<text text-anchor="middle" x="906.5" y="-119.5" font-family="Helvetica,sans-Serif" font-size="10.00" fill="#000000">cstddef</text>
</g>
<!-- Node42&#45;&gt;Node43 -->
<g id="edge70" class="edge">
<title>Node42&#45;&gt;Node43</title>
<path fill="none" stroke="#191970" d="M1044.7917,-168.3733C1016.6396,-158.933 973.6104,-144.5041 943.0336,-134.2508"/>
<polygon fill="#191970" stroke="#191970" points="943.7749,-130.8079 933.181,-130.9469 941.5493,-137.4447 943.7749,-130.8079"/>
</g>
<!-- Node44&#45;&gt;Node3 -->
<g id="edge74" class="edge">
<title>Node44&#45;&gt;Node3</title>
<path fill="none" stroke="#191970" d="M1886.3902,-118.3562C1861.3839,-116.38 1829.7279,-113.9501 1801.5,-112 1523.346,-92.7842 1186.9473,-73.6334 1082.7968,-67.7977"/>
<polygon fill="#191970" stroke="#191970" points="1082.8048,-64.2927 1072.6249,-67.2287 1082.4138,-71.2818 1082.8048,-64.2927"/>
</g>
<!-- Node44&#45;&gt;Node32 -->
<g id="edge75" class="edge">
<title>Node44&#45;&gt;Node32</title>
<path fill="none" stroke="#191970" d="M1912.4184,-112.3733C1894.7598,-103.4644 1868.2947,-90.1127 1848.2902,-80.0203"/>
<polygon fill="#191970" stroke="#191970" points="1849.8372,-76.8806 1839.3326,-75.5011 1846.6842,-83.1303 1849.8372,-76.8806"/>
</g>
<!-- Node45 -->
<g id="node46" class="node">
<title>Node45</title>
<polygon fill="none" stroke="#bfbfbf" points="1904.5,-56.5 1904.5,-75.5 1958.5,-75.5 1958.5,-56.5 1904.5,-56.5"/>
<text text-anchor="middle" x="1931.5" y="-63.5" font-family="Helvetica,sans-Serif" font-size="10.00" fill="#000000">ciso646</text>
</g>
<!-- Node44&#45;&gt;Node45 -->
<g id="edge73" class="edge">
<title>Node44&#45;&gt;Node45</title>
<path fill="none" stroke="#191970" d="M1931.5,-112.2455C1931.5,-104.9382 1931.5,-94.6944 1931.5,-85.7046"/>
<polygon fill="#191970" stroke="#191970" points="1935.0001,-85.6426 1931.5,-75.6427 1928.0001,-85.6427 1935.0001,-85.6426"/>
</g>
</g>
</svg>
