<?xml version="1.0" encoding="UTF-8" standalone="no"?>
<!DOCTYPE svg PUBLIC "-//W3C//DTD SVG 1.1//EN"
 "http://www.w3.org/Graphics/SVG/1.1/DTD/svg11.dtd">
<!-- Generated by graphviz version 2.40.1 (20161225.0304)
 -->
<!-- Title: src/engine/ResourcesManager.cxx Pages: 1 -->
<!--zoomable 308 -->
<svg id="main" version="1.1" xmlns="http://www.w3.org/2000/svg" xmlns:xlink="http://www.w3.org/1999/xlink" xml:space="preserve" onload="init(evt)">
<style type="text/css"><![CDATA[
.edge:hover path { stroke: red; }
.edge:hover polygon { stroke: red; fill: red; }
]]></style>
<script type="text/javascript"><![CDATA[
var edges = document.getElementsByTagName('g');
if (edges && edges.length) {
  for (var i=0;i<edges.length;i++) {
    if (edges[i].id.substr(0,4)=='edge') {
      edges[i].setAttribute('class','edge');
    }
  }
}
]]></script>
        <defs>
                <circle id="rim" cx="0" cy="0" r="7"/>
                <circle id="rim2" cx="0" cy="0" r="3.5"/>
                <g id="zoomPlus">
                        <use xlink:href="#rim" fill="#404040">
                                <set attributeName="fill" to="#808080" begin="zoomplus.mouseover" end="zoomplus.mouseout"/>
                        </use>
                        <path d="M-4,0h8M0,-4v8" fill="none" stroke="white" stroke-width="1.5" pointer-events="none"/>
                </g>
                <g id="zoomMin">
                        <use xlink:href="#rim" fill="#404040">
                                <set attributeName="fill" to="#808080" begin="zoomminus.mouseover" end="zoomminus.mouseout"/>
                        </use>
                        <path d="M-4,0h8" fill="none" stroke="white" stroke-width="1.5" pointer-events="none"/>
                </g>
                <g id="dirArrow">
                        <path fill="none" stroke="white" stroke-width="1.5" d="M0,-3.0v7 M-2.5,-0.5L0,-3.0L2.5,-0.5"/>
                </g>
               <g id="resetDef">
                       <use xlink:href="#rim2" fill="#404040">
                               <set attributeName="fill" to="#808080" begin="reset.mouseover" end="reset.mouseout"/>
                       </use>
               </g>
        </defs>

<script type="text/javascript">
var viewWidth = 1720;
var viewHeight = 308;
var sectionId = 'dynsection-0';
</script>
<script xlink:href="svgpan.js"/>
<svg id="graph" class="graph">
<g id="viewport">
<title>src/engine/ResourcesManager.cxx</title>
<!-- Node0 -->
<g id="node1" class="node">
<title>Node0</title>
<polygon fill="#bfbfbf" stroke="#000000" points="888.5,-280.5 888.5,-299.5 1069.5,-299.5 1069.5,-280.5 888.5,-280.5"/>
<text text-anchor="middle" x="979" y="-287.5" font-family="Helvetica,sans-Serif" font-size="10.00" fill="#000000">src/engine/ResourcesManager.cxx</text>
</g>
<!-- Node1 -->
<g id="node2" class="node">
<title>Node1</title>
<g id="a_node2"><a xlink:href="ResourcesManager_8hxx.html" target="_top" xlink:title="ResourcesManager.hxx">
<polygon fill="none" stroke="#000000" points="328,-224.5 328,-243.5 456,-243.5 456,-224.5 328,-224.5"/>
<text text-anchor="middle" x="392" y="-231.5" font-family="Helvetica,sans-Serif" font-size="10.00" fill="#000000">ResourcesManager.hxx</text>
</a>
</g>
</g>
<!-- Node0&#45;&gt;Node1 -->
<g id="edge1" class="edge">
<title>Node0&#45;&gt;Node1</title>
<path fill="none" stroke="#191970" d="M888.2467,-281.3421C772.2734,-270.2782 573.7093,-251.3351 466.2736,-241.0857"/>
<polygon fill="#191970" stroke="#191970" points="466.4541,-237.5871 456.1669,-240.1215 465.7892,-244.5555 466.4541,-237.5871"/>
</g>
<!-- Node5 -->
<g id="node6" class="node">
<title>Node5</title>
<g id="a_node6"><a xlink:href="TileManager_8hxx.html" target="_top" xlink:title="TileManager.hxx">
<polygon fill="none" stroke="#000000" points="228.5,-168.5 228.5,-187.5 325.5,-187.5 325.5,-168.5 228.5,-168.5"/>
<text text-anchor="middle" x="277" y="-175.5" font-family="Helvetica,sans-Serif" font-size="10.00" fill="#000000">TileManager.hxx</text>
</a>
</g>
</g>
<!-- Node0&#45;&gt;Node5 -->
<g id="edge24" class="edge">
<title>Node0&#45;&gt;Node5</title>
<path fill="none" stroke="#191970" d="M888.401,-288.1867C718.9326,-284.1408 366.7175,-272.3978 319,-244 301.5515,-233.616 290.1587,-212.8517 283.6994,-197.3723"/>
<polygon fill="#191970" stroke="#191970" points="286.8399,-195.7854 280.0019,-187.6926 280.3007,-198.2833 286.8399,-195.7854"/>
</g>
<!-- Node12 -->
<g id="node13" class="node">
<title>Node12</title>
<polygon fill="none" stroke="#bfbfbf" points="0,-112.5 0,-131.5 58,-131.5 58,-112.5 0,-112.5"/>
<text text-anchor="middle" x="29" y="-119.5" font-family="Helvetica,sans-Serif" font-size="10.00" fill="#000000">json.hxx</text>
</g>
<!-- Node0&#45;&gt;Node12 -->
<g id="edge55" class="edge">
<title>Node0&#45;&gt;Node12</title>
<path fill="none" stroke="#191970" d="M888.3555,-287.9371C729.0861,-283.6401 405.5226,-271.7237 296,-244 201.4441,-220.0648 99.0394,-163.7304 53.37,-136.8181"/>
<polygon fill="#191970" stroke="#191970" points="54.8922,-133.6511 44.509,-131.5441 51.312,-139.6663 54.8922,-133.6511"/>
</g>
<!-- Node15 -->
<g id="node16" class="node">
<title>Node15</title>
<g id="a_node16"><a xlink:href="WindowManager_8hxx.html" target="_top" xlink:title="WindowManager.hxx">
<polygon fill="none" stroke="#000000" points="458,-168.5 458,-187.5 576,-187.5 576,-168.5 458,-168.5"/>
<text text-anchor="middle" x="517" y="-175.5" font-family="Helvetica,sans-Serif" font-size="10.00" fill="#000000">WindowManager.hxx</text>
</a>
</g>
</g>
<!-- Node0&#45;&gt;Node15 -->
<g id="edge18" class="edge">
<title>Node0&#45;&gt;Node15</title>
<path fill="none" stroke="#191970" d="M939.6101,-280.4509C855.4792,-260.0556 658.4158,-212.2826 566.2067,-189.9289"/>
<polygon fill="#191970" stroke="#191970" points="566.8333,-186.4795 556.2902,-187.5249 565.184,-193.2824 566.8333,-186.4795"/>
</g>
<!-- Node16 -->
<g id="node17" class="node">
<title>Node16</title>
<g id="a_node17"><a xlink:href="Settings_8hxx.html" target="_top" xlink:title="Settings.hxx">
<polygon fill="none" stroke="#000000" points="1274.5,-224.5 1274.5,-243.5 1351.5,-243.5 1351.5,-224.5 1274.5,-224.5"/>
<text text-anchor="middle" x="1313" y="-231.5" font-family="Helvetica,sans-Serif" font-size="10.00" fill="#000000">Settings.hxx</text>
</a>
</g>
</g>
<!-- Node0&#45;&gt;Node16 -->
<g id="edge25" class="edge">
<title>Node0&#45;&gt;Node16</title>
<path fill="none" stroke="#191970" d="M1036.0371,-280.4369C1100.3238,-269.6583 1203.7463,-252.318 1264.3613,-242.155"/>
<polygon fill="#191970" stroke="#191970" points="1265.152,-245.5714 1274.4356,-240.4659 1263.9945,-238.6677 1265.152,-245.5714"/>
</g>
<!-- Node22 -->
<g id="node23" class="node">
<title>Node22</title>
<g id="a_node23"><a xlink:href="LOG_8hxx.html" target="_top" xlink:title="LOG.hxx">
<polygon fill="none" stroke="#000000" points="950,-224.5 950,-243.5 1008,-243.5 1008,-224.5 950,-224.5"/>
<text text-anchor="middle" x="979" y="-231.5" font-family="Helvetica,sans-Serif" font-size="10.00" fill="#000000">LOG.hxx</text>
</a>
</g>
</g>
<!-- Node0&#45;&gt;Node22 -->
<g id="edge34" class="edge">
<title>Node0&#45;&gt;Node22</title>
<path fill="none" stroke="#191970" d="M979,-280.2455C979,-272.9382 979,-262.6944 979,-253.7046"/>
<polygon fill="#191970" stroke="#191970" points="982.5001,-253.6426 979,-243.6427 975.5001,-253.6427 982.5001,-253.6426"/>
</g>
<!-- Node23 -->
<g id="node24" class="node">
<title>Node23</title>
<g id="a_node24"><a xlink:href="Exception_8hxx.html" target="_top" xlink:title="Exception.hxx">
<polygon fill="none" stroke="#000000" points="1490,-168.5 1490,-187.5 1576,-187.5 1576,-168.5 1490,-168.5"/>
<text text-anchor="middle" x="1533" y="-175.5" font-family="Helvetica,sans-Serif" font-size="10.00" fill="#000000">Exception.hxx</text>
</a>
</g>
</g>
<!-- Node0&#45;&gt;Node23 -->
<g id="edge49" class="edge">
<title>Node0&#45;&gt;Node23</title>
<path fill="none" stroke="#191970" d="M1069.6652,-285.387C1147.788,-279.9225 1263.1004,-268.2814 1361,-244 1412.7056,-231.1758 1469.9384,-207.1008 1503.619,-191.8435"/>
<polygon fill="#191970" stroke="#191970" points="1505.243,-194.9493 1512.8766,-187.6023 1502.3274,-188.5854 1505.243,-194.9493"/>
</g>
<!-- Node33 -->
<g id="node34" class="node">
<title>Node33</title>
<g id="a_node34"><a xlink:href="Filesystem_8hxx.html" target="_top" xlink:title="Filesystem.hxx">
<polygon fill="none" stroke="#000000" points="1585,-112.5 1585,-131.5 1675,-131.5 1675,-112.5 1585,-112.5"/>
<text text-anchor="middle" x="1630" y="-119.5" font-family="Helvetica,sans-Serif" font-size="10.00" fill="#000000">Filesystem.hxx</text>
</a>
</g>
</g>
<!-- Node0&#45;&gt;Node33 -->
<g id="edge50" class="edge">
<title>Node0&#45;&gt;Node33</title>
<path fill="none" stroke="#191970" d="M1069.7676,-285.3873C1156.7609,-279.7549 1291.3967,-267.8593 1406,-244 1487.6081,-227.01 1518.0291,-237.6331 1585,-188 1601.4762,-175.7893 1613.9327,-155.6634 1621.5159,-140.8409"/>
<polygon fill="#191970" stroke="#191970" points="1624.7864,-142.1166 1625.9768,-131.5889 1618.481,-139.0765 1624.7864,-142.1166"/>
</g>
<!-- Node35 -->
<g id="node36" class="node">
<title>Node35</title>
<polygon fill="none" stroke="#bfbfbf" points="1632,-224.5 1632,-243.5 1712,-243.5 1712,-224.5 1632,-224.5"/>
<text text-anchor="middle" x="1672" y="-231.5" font-family="Helvetica,sans-Serif" font-size="10.00" fill="#000000">SDL_image.h</text>
</g>
<!-- Node0&#45;&gt;Node35 -->
<g id="edge54" class="edge">
<title>Node0&#45;&gt;Node35</title>
<path fill="none" stroke="#191970" d="M1069.5277,-286.6566C1193.6416,-281.3505 1423.4197,-268.9418 1618,-244 1619.2767,-243.8363 1620.5689,-243.6622 1621.8715,-243.479"/>
<polygon fill="#191970" stroke="#191970" points="1622.622,-246.9048 1631.9735,-241.9248 1621.5575,-239.9862 1622.622,-246.9048"/>
</g>
<!-- Node2 -->
<g id="node3" class="node">
<title>Node2</title>
<polygon fill="none" stroke="#bfbfbf" points="967,-112.5 967,-131.5 1027,-131.5 1027,-112.5 967,-112.5"/>
<text text-anchor="middle" x="997" y="-119.5" font-family="Helvetica,sans-Serif" font-size="10.00" fill="#000000">iostream</text>
</g>
<!-- Node1&#45;&gt;Node2 -->
<g id="edge2" class="edge">
<title>Node1&#45;&gt;Node2</title>
<path fill="none" stroke="#191970" d="M448.4263,-224.4233C487.5111,-216.8598 540.3382,-204.7715 585,-188 602.867,-181.2906 604.7866,-173.7026 623,-168 684.5919,-148.7157 873.415,-131.8317 956.7547,-125.1038"/>
<polygon fill="#191970" stroke="#191970" points="957.1615,-128.5826 966.8509,-124.2969 956.6038,-121.6048 957.1615,-128.5826"/>
</g>
<!-- Node3 -->
<g id="node4" class="node">
<title>Node3</title>
<polygon fill="none" stroke="#bfbfbf" points="353.5,-112.5 353.5,-131.5 446.5,-131.5 446.5,-112.5 353.5,-112.5"/>
<text text-anchor="middle" x="400" y="-119.5" font-family="Helvetica,sans-Serif" font-size="10.00" fill="#000000">unordered_map</text>
</g>
<!-- Node1&#45;&gt;Node3 -->
<g id="edge3" class="edge">
<title>Node1&#45;&gt;Node3</title>
<path fill="none" stroke="#191970" d="M387.2233,-224.1411C381.5794,-211.2236 373.4915,-187.8762 378,-168 380.144,-158.548 384.478,-148.7672 388.7367,-140.6675"/>
<polygon fill="#191970" stroke="#191970" points="391.8961,-142.1895 393.7417,-131.7567 385.7929,-138.7615 391.8961,-142.1895"/>
</g>
<!-- Node4 -->
<g id="node5" class="node">
<title>Node4</title>
<polygon fill="none" stroke="#bfbfbf" points="465,-112.5 465,-131.5 509,-131.5 509,-112.5 465,-112.5"/>
<text text-anchor="middle" x="487" y="-119.5" font-family="Helvetica,sans-Serif" font-size="10.00" fill="#000000">SDL.h</text>
</g>
<!-- Node1&#45;&gt;Node4 -->
<g id="edge4" class="edge">
<title>Node1&#45;&gt;Node4</title>
<path fill="none" stroke="#191970" d="M393.5619,-224.0813C396.1602,-210.2551 402.4833,-184.9793 416,-168 426.554,-154.7424 442.0162,-144.0914 455.8188,-136.3904"/>
<polygon fill="#191970" stroke="#191970" points="457.8153,-139.2945 465.0286,-131.5344 454.5504,-133.1025 457.8153,-139.2945"/>
</g>
<!-- Node1&#45;&gt;Node5 -->
<g id="edge5" class="edge">
<title>Node1&#45;&gt;Node5</title>
<path fill="none" stroke="#191970" d="M372.2308,-224.3733C353.8531,-215.4241 326.2688,-201.9917 305.5107,-191.8835"/>
<polygon fill="#191970" stroke="#191970" points="307.0343,-188.7325 296.5112,-187.5011 303.9696,-195.026 307.0343,-188.7325"/>
</g>
<!-- Node5&#45;&gt;Node3 -->
<g id="edge7" class="edge">
<title>Node5&#45;&gt;Node3</title>
<path fill="none" stroke="#191970" d="M298.1445,-168.3733C317.8892,-159.3838 347.5698,-145.8706 369.8055,-135.7471"/>
<polygon fill="#191970" stroke="#191970" points="371.4806,-138.8302 379.1315,-131.5011 368.58,-132.4594 371.4806,-138.8302"/>
</g>
<!-- Node5&#45;&gt;Node4 -->
<g id="edge6" class="edge">
<title>Node5&#45;&gt;Node4</title>
<path fill="none" stroke="#191970" d="M317.0006,-168.4554C351.2684,-160.1149 402.1394,-147.347 454.8404,-132.2229"/>
<polygon fill="#191970" stroke="#191970" points="456.0645,-135.5124 464.6986,-129.372 454.1198,-128.788 456.0645,-135.5124"/>
</g>
<!-- Node6 -->
<g id="node7" class="node">
<title>Node6</title>
<polygon fill="none" stroke="#bfbfbf" points="934,-56.5 934,-75.5 978,-75.5 978,-56.5 934,-56.5"/>
<text text-anchor="middle" x="956" y="-63.5" font-family="Helvetica,sans-Serif" font-size="10.00" fill="#000000">string</text>
</g>
<!-- Node5&#45;&gt;Node6 -->
<g id="edge8" class="edge">
<title>Node5&#45;&gt;Node6</title>
<path fill="none" stroke="#191970" d="M283.5601,-168.2221C294.3429,-153.0826 317.3942,-124.4211 345,-112 397.9156,-88.1908 804.4698,-71.5517 923.4126,-67.1559"/>
<polygon fill="#191970" stroke="#191970" points="923.8264,-70.6432 933.6918,-66.7801 923.5706,-63.6479 923.8264,-70.6432"/>
</g>
<!-- Node7 -->
<g id="node8" class="node">
<title>Node7</title>
<g id="a_node8"><a xlink:href="tileData_8hxx.html" target="_top" xlink:title="tileData.hxx">
<polygon fill="none" stroke="#000000" points="219.5,-112.5 219.5,-131.5 296.5,-131.5 296.5,-112.5 219.5,-112.5"/>
<text text-anchor="middle" x="258" y="-119.5" font-family="Helvetica,sans-Serif" font-size="10.00" fill="#000000">tileData.hxx</text>
</a>
</g>
</g>
<!-- Node5&#45;&gt;Node7 -->
<g id="edge9" class="edge">
<title>Node5&#45;&gt;Node7</title>
<path fill="none" stroke="#191970" d="M273.6905,-168.2455C271.1567,-160.7776 267.5823,-150.2427 264.485,-141.1137"/>
<polygon fill="#191970" stroke="#191970" points="267.7991,-139.9879 261.2716,-131.6427 261.1702,-142.237 267.7991,-139.9879"/>
</g>
<!-- Node5&#45;&gt;Node12 -->
<g id="edge15" class="edge">
<title>Node5&#45;&gt;Node12</title>
<path fill="none" stroke="#191970" d="M230.9921,-168.4984C190.5263,-160.0118 129.7961,-146.9627 67.9476,-132.159"/>
<polygon fill="#191970" stroke="#191970" points="68.556,-128.7056 58.0147,-129.7685 66.9181,-135.5113 68.556,-128.7056"/>
</g>
<!-- Node13 -->
<g id="node14" class="node">
<title>Node13</title>
<g id="a_node14"><a xlink:href="Singleton_8hxx.html" target="_top" xlink:title="Singleton.hxx">
<polygon fill="none" stroke="#000000" points="565.5,-112.5 565.5,-131.5 648.5,-131.5 648.5,-112.5 565.5,-112.5"/>
<text text-anchor="middle" x="607" y="-119.5" font-family="Helvetica,sans-Serif" font-size="10.00" fill="#000000">Singleton.hxx</text>
</a>
</g>
</g>
<!-- Node5&#45;&gt;Node13 -->
<g id="edge16" class="edge">
<title>Node5&#45;&gt;Node13</title>
<path fill="none" stroke="#191970" d="M325.6926,-169.737C387.172,-159.3041 492.4835,-141.4331 555.3371,-130.767"/>
<polygon fill="#191970" stroke="#191970" points="556.1512,-134.179 565.4247,-129.0552 554.98,-127.2777 556.1512,-134.179"/>
</g>
<!-- Node14 -->
<g id="node15" class="node">
<title>Node14</title>
<polygon fill="none" stroke="#bfbfbf" points="76.5,-112.5 76.5,-131.5 201.5,-131.5 201.5,-112.5 76.5,-112.5"/>
<text text-anchor="middle" x="139" y="-119.5" font-family="Helvetica,sans-Serif" font-size="10.00" fill="#000000">../common/enums.hxx</text>
</g>
<!-- Node5&#45;&gt;Node14 -->
<g id="edge17" class="edge">
<title>Node5&#45;&gt;Node14</title>
<path fill="none" stroke="#191970" d="M253.277,-168.3733C230.8263,-159.2629 196.9261,-145.5062 171.8745,-135.3404"/>
<polygon fill="#191970" stroke="#191970" points="172.9957,-132.0182 162.4135,-131.5011 170.3635,-138.5045 172.9957,-132.0182"/>
</g>
<!-- Node7&#45;&gt;Node6 -->
<g id="edge10" class="edge">
<title>Node7&#45;&gt;Node6</title>
<path fill="none" stroke="#191970" d="M296.7049,-114.164C301.5058,-113.3496 306.3569,-112.6016 311,-112 544.9674,-81.6872 829.4588,-70.1436 923.8577,-66.981"/>
<polygon fill="#191970" stroke="#191970" points="924.031,-70.4773 933.9112,-66.6521 923.8021,-63.4811 924.031,-70.4773"/>
</g>
<!-- Node8 -->
<g id="node9" class="node">
<title>Node8</title>
<polygon fill="none" stroke="#bfbfbf" points="513.5,-56.5 513.5,-75.5 560.5,-75.5 560.5,-56.5 513.5,-56.5"/>
<text text-anchor="middle" x="537" y="-63.5" font-family="Helvetica,sans-Serif" font-size="10.00" fill="#000000">vector</text>
</g>
<!-- Node7&#45;&gt;Node8 -->
<g id="edge11" class="edge">
<title>Node7&#45;&gt;Node8</title>
<path fill="none" stroke="#191970" d="M296.5008,-114.2722C351.3226,-103.2686 450.9982,-83.262 503.1455,-72.7952"/>
<polygon fill="#191970" stroke="#191970" points="504.1007,-76.1733 513.2164,-70.7738 502.7231,-69.3102 504.1007,-76.1733"/>
</g>
<!-- Node9 -->
<g id="node10" class="node">
<title>Node9</title>
<g id="a_node10"><a xlink:href="enums_8hxx.html" target="_top" xlink:title="enums.hxx">
<polygon fill="none" stroke="#000000" points="222.5,-56.5 222.5,-75.5 293.5,-75.5 293.5,-56.5 222.5,-56.5"/>
<text text-anchor="middle" x="258" y="-63.5" font-family="Helvetica,sans-Serif" font-size="10.00" fill="#000000">enums.hxx</text>
</a>
</g>
</g>
<!-- Node7&#45;&gt;Node9 -->
<g id="edge12" class="edge">
<title>Node7&#45;&gt;Node9</title>
<path fill="none" stroke="#191970" d="M258,-112.2455C258,-104.9382 258,-94.6944 258,-85.7046"/>
<polygon fill="#191970" stroke="#191970" points="261.5001,-85.6426 258,-75.6427 254.5001,-85.6427 261.5001,-85.6426"/>
</g>
<!-- Node10 -->
<g id="node11" class="node">
<title>Node10</title>
<polygon fill="none" stroke="#bfbfbf" points="182,-.5 182,-19.5 238,-19.5 238,-.5 182,-.5"/>
<text text-anchor="middle" x="210" y="-7.5" font-family="Helvetica,sans-Serif" font-size="10.00" fill="#000000">stddef.h</text>
</g>
<!-- Node9&#45;&gt;Node10 -->
<g id="edge13" class="edge">
<title>Node9&#45;&gt;Node10</title>
<path fill="none" stroke="#191970" d="M249.639,-56.2455C242.825,-48.2958 233.0319,-36.8706 224.8848,-27.3656"/>
<polygon fill="#191970" stroke="#191970" points="227.4305,-24.9575 218.2651,-19.6427 222.1157,-29.513 227.4305,-24.9575"/>
</g>
<!-- Node11 -->
<g id="node12" class="node">
<title>Node11</title>
<polygon fill="none" stroke="#bfbfbf" points="256,-.5 256,-19.5 356,-19.5 356,-.5 256,-.5"/>
<text text-anchor="middle" x="306" y="-7.5" font-family="Helvetica,sans-Serif" font-size="10.00" fill="#000000">betterEnums.hxx</text>
</g>
<!-- Node9&#45;&gt;Node11 -->
<g id="edge14" class="edge">
<title>Node9&#45;&gt;Node11</title>
<path fill="none" stroke="#191970" d="M266.361,-56.2455C273.175,-48.2958 282.9681,-36.8706 291.1152,-27.3656"/>
<polygon fill="#191970" stroke="#191970" points="293.8843,-29.513 297.7349,-19.6427 288.5695,-24.9575 293.8843,-29.513"/>
</g>
<!-- Node15&#45;&gt;Node2 -->
<g id="edge20" class="edge">
<title>Node15&#45;&gt;Node2</title>
<path fill="none" stroke="#191970" d="M576.3469,-169.7511C580.965,-169.1456 585.5574,-168.5553 590,-168 724.1699,-151.2306 883.569,-133.9944 956.6965,-126.2365"/>
<polygon fill="#191970" stroke="#191970" points="957.2706,-129.6954 966.8465,-125.1619 956.5336,-122.7343 957.2706,-129.6954"/>
</g>
<!-- Node15&#45;&gt;Node4 -->
<g id="edge22" class="edge">
<title>Node15&#45;&gt;Node4</title>
<path fill="none" stroke="#191970" d="M511.7744,-168.2455C507.6877,-160.617 501.8865,-149.7881 496.925,-140.5267"/>
<polygon fill="#191970" stroke="#191970" points="499.9732,-138.8047 492.1657,-131.6427 493.8028,-142.1103 499.9732,-138.8047"/>
</g>
<!-- Node15&#45;&gt;Node6 -->
<g id="edge19" class="edge">
<title>Node15&#45;&gt;Node6</title>
<path fill="none" stroke="#191970" d="M554.4289,-168.4509C639.1624,-146.8333 844.4536,-94.4583 923.8777,-74.1952"/>
<polygon fill="#191970" stroke="#191970" points="924.9678,-77.5293 933.7921,-71.6658 923.2373,-70.7466 924.9678,-77.5293"/>
</g>
<!-- Node15&#45;&gt;Node8 -->
<g id="edge21" class="edge">
<title>Node15&#45;&gt;Node8</title>
<path fill="none" stroke="#191970" d="M518.7052,-168.4509C521.9819,-150.1013 529.2159,-109.5908 533.5412,-85.3693"/>
<polygon fill="#191970" stroke="#191970" points="536.9866,-85.9845 535.2991,-75.5249 530.0956,-84.7539 536.9866,-85.9845"/>
</g>
<!-- Node15&#45;&gt;Node13 -->
<g id="edge23" class="edge">
<title>Node15&#45;&gt;Node13</title>
<path fill="none" stroke="#191970" d="M532.6768,-168.2455C546.4856,-159.6534 566.8193,-147.0014 582.7292,-137.1018"/>
<polygon fill="#191970" stroke="#191970" points="584.8613,-139.8974 591.5028,-131.6427 581.1632,-133.954 584.8613,-139.8974"/>
</g>
<!-- Node16&#45;&gt;Node6 -->
<g id="edge26" class="edge">
<title>Node16&#45;&gt;Node6</title>
<path fill="none" stroke="#191970" d="M1332.8241,-224.3695C1346.3215,-216.6136 1363.1157,-204.3161 1371,-188 1385.6963,-157.5869 1393.5305,-137.1658 1371,-112 1345.5645,-83.5894 1081.5689,-70.8053 988.3654,-67.1536"/>
<polygon fill="#191970" stroke="#191970" points="988.2495,-63.6467 978.1232,-66.7624 987.9823,-70.6416 988.2495,-63.6467"/>
</g>
<!-- Node16&#45;&gt;Node13 -->
<g id="edge27" class="edge">
<title>Node16&#45;&gt;Node13</title>
<path fill="none" stroke="#191970" d="M1293.4466,-224.4062C1262.1159,-209.5188 1198.352,-181.1966 1141,-168 1050.1138,-147.0872 774.1603,-130.7215 658.6806,-124.6037"/>
<polygon fill="#191970" stroke="#191970" points="658.8425,-121.1075 648.6727,-124.078 658.4752,-128.0979 658.8425,-121.1075"/>
</g>
<!-- Node17 -->
<g id="node18" class="node">
<title>Node17</title>
<g id="a_node18"><a xlink:href="Meta_8hxx.html" target="_top" xlink:title="../../util/Meta.hxx">
<polygon fill="none" stroke="#000000" points="1264,-168.5 1264,-187.5 1362,-187.5 1362,-168.5 1264,-168.5"/>
<text text-anchor="middle" x="1313" y="-175.5" font-family="Helvetica,sans-Serif" font-size="10.00" fill="#000000">../../util/Meta.hxx</text>
</a>
</g>
</g>
<!-- Node16&#45;&gt;Node17 -->
<g id="edge28" class="edge">
<title>Node16&#45;&gt;Node17</title>
<path fill="none" stroke="#191970" d="M1313,-224.2455C1313,-216.9382 1313,-206.6944 1313,-197.7046"/>
<polygon fill="#191970" stroke="#191970" points="1316.5001,-197.6426 1313,-187.6427 1309.5001,-197.6427 1316.5001,-197.6426"/>
</g>
<!-- Node21 -->
<g id="node22" class="node">
<title>Node21</title>
<polygon fill="none" stroke="#bfbfbf" points="1418.5,-168.5 1418.5,-187.5 1471.5,-187.5 1471.5,-168.5 1418.5,-168.5"/>
<text text-anchor="middle" x="1445" y="-175.5" font-family="Helvetica,sans-Serif" font-size="10.00" fill="#000000">cstddef</text>
</g>
<!-- Node16&#45;&gt;Node21 -->
<g id="edge33" class="edge">
<title>Node16&#45;&gt;Node21</title>
<path fill="none" stroke="#191970" d="M1335.6916,-224.3733C1357.0711,-215.3032 1389.3057,-201.6279 1413.2362,-191.4755"/>
<polygon fill="#191970" stroke="#191970" points="1414.7656,-194.6287 1422.6045,-187.5011 1412.0317,-188.1846 1414.7656,-194.6287"/>
</g>
<!-- Node17&#45;&gt;Node2 -->
<g id="edge29" class="edge">
<title>Node17&#45;&gt;Node2</title>
<path fill="none" stroke="#191970" d="M1263.9717,-169.3114C1201.5004,-158.2406 1094.7148,-139.3165 1036.9419,-129.0783"/>
<polygon fill="#191970" stroke="#191970" points="1037.5433,-125.6304 1027.0859,-127.3317 1036.3217,-132.523 1037.5433,-125.6304"/>
</g>
<!-- Node18 -->
<g id="node19" class="node">
<title>Node18</title>
<polygon fill="none" stroke="#bfbfbf" points="1164.5,-112.5 1164.5,-131.5 1233.5,-131.5 1233.5,-112.5 1164.5,-112.5"/>
<text text-anchor="middle" x="1199" y="-119.5" font-family="Helvetica,sans-Serif" font-size="10.00" fill="#000000">type_traits</text>
</g>
<!-- Node17&#45;&gt;Node18 -->
<g id="edge30" class="edge">
<title>Node17&#45;&gt;Node18</title>
<path fill="none" stroke="#191970" d="M1293.4027,-168.3733C1275.2669,-159.4644 1248.0865,-146.1127 1227.5413,-136.0203"/>
<polygon fill="#191970" stroke="#191970" points="1228.8603,-132.7688 1218.3416,-131.5011 1225.7739,-139.0517 1228.8603,-132.7688"/>
</g>
<!-- Node19 -->
<g id="node20" class="node">
<title>Node19</title>
<polygon fill="none" stroke="#bfbfbf" points="1251.5,-112.5 1251.5,-131.5 1302.5,-131.5 1302.5,-112.5 1251.5,-112.5"/>
<text text-anchor="middle" x="1277" y="-119.5" font-family="Helvetica,sans-Serif" font-size="10.00" fill="#000000">variant</text>
</g>
<!-- Node17&#45;&gt;Node19 -->
<g id="edge31" class="edge">
<title>Node17&#45;&gt;Node19</title>
<path fill="none" stroke="#191970" d="M1306.7293,-168.2455C1301.7736,-160.5367 1294.717,-149.5598 1288.7224,-140.2348"/>
<polygon fill="#191970" stroke="#191970" points="1291.5506,-138.1618 1283.1989,-131.6427 1285.6624,-141.9471 1291.5506,-138.1618"/>
</g>
<!-- Node20 -->
<g id="node21" class="node">
<title>Node20</title>
<polygon fill="none" stroke="#bfbfbf" points="1320.5,-112.5 1320.5,-131.5 1361.5,-131.5 1361.5,-112.5 1320.5,-112.5"/>
<text text-anchor="middle" x="1341" y="-119.5" font-family="Helvetica,sans-Serif" font-size="10.00" fill="#000000">tuple</text>
</g>
<!-- Node17&#45;&gt;Node20 -->
<g id="edge32" class="edge">
<title>Node17&#45;&gt;Node20</title>
<path fill="none" stroke="#191970" d="M1317.8772,-168.2455C1321.6513,-160.6973 1326.9921,-150.0158 1331.5901,-140.8197"/>
<polygon fill="#191970" stroke="#191970" points="1334.837,-142.1522 1336.1787,-131.6427 1328.576,-139.0217 1334.837,-142.1522"/>
</g>
<!-- Node22&#45;&gt;Node2 -->
<g id="edge39" class="edge">
<title>Node22&#45;&gt;Node2</title>
<path fill="none" stroke="#191970" d="M1008.1102,-229.9587C1050.2597,-223.4434 1125.005,-209.1691 1141,-188 1170.5309,-148.9163 1089.2506,-132.2684 1037.0671,-125.7565"/>
<polygon fill="#191970" stroke="#191970" points="1037.3988,-122.2715 1027.0598,-124.5856 1036.5852,-129.2241 1037.3988,-122.2715"/>
</g>
<!-- Node22&#45;&gt;Node4 -->
<g id="edge44" class="edge">
<title>Node22&#45;&gt;Node4</title>
<path fill="none" stroke="#191970" d="M949.682,-233.7126C843.4336,-232.3713 483.0194,-225.0999 449,-188 435.379,-173.1456 451.451,-152.5814 466.685,-138.3733"/>
<polygon fill="#191970" stroke="#191970" points="469.2087,-140.8151 474.4133,-131.5867 464.5898,-135.5552 469.2087,-140.8151"/>
</g>
<!-- Node22&#45;&gt;Node6 -->
<g id="edge35" class="edge">
<title>Node22&#45;&gt;Node6</title>
<path fill="none" stroke="#191970" d="M1008.0996,-230.8061C1053.9696,-225.1054 1139.7625,-211.5169 1158,-188 1163.4473,-180.9758 1162.6582,-175.5706 1158,-168 1120.6759,-107.3405 1034.9135,-81.4422 988.0346,-71.4923"/>
<polygon fill="#191970" stroke="#191970" points="988.5963,-68.0353 978.1033,-69.5003 987.2197,-74.8987 988.5963,-68.0353"/>
</g>
<!-- Node22&#45;&gt;Node17 -->
<g id="edge47" class="edge">
<title>Node22&#45;&gt;Node17</title>
<path fill="none" stroke="#191970" d="M1008.056,-229.1283C1062.5894,-219.985 1181.2664,-200.0871 1253.4335,-187.9872"/>
<polygon fill="#191970" stroke="#191970" points="1254.4469,-191.3662 1263.7305,-186.2608 1253.2894,-184.4626 1254.4469,-191.3662"/>
</g>
<!-- Node22&#45;&gt;Node23 -->
<g id="edge36" class="edge">
<title>Node22&#45;&gt;Node23</title>
<path fill="none" stroke="#191970" d="M1008.2584,-232.3311C1084.3291,-227.7773 1294.7062,-213.8132 1480.0033,-188.0188"/>
<polygon fill="#191970" stroke="#191970" points="1480.5098,-191.4821 1489.9246,-186.6228 1479.5345,-184.5504 1480.5098,-191.4821"/>
</g>
<!-- Node26 -->
<g id="node27" class="node">
<title>Node26</title>
<polygon fill="none" stroke="#bfbfbf" points="632,-168.5 632,-187.5 682,-187.5 682,-168.5 632,-168.5"/>
<text text-anchor="middle" x="657" y="-175.5" font-family="Helvetica,sans-Serif" font-size="10.00" fill="#000000">chrono</text>
</g>
<!-- Node22&#45;&gt;Node26 -->
<g id="edge40" class="edge">
<title>Node22&#45;&gt;Node26</title>
<path fill="none" stroke="#191970" d="M949.7415,-230.5815C899.1182,-224.398 791.8017,-210.1077 692.0905,-188.0205"/>
<polygon fill="#191970" stroke="#191970" points="692.6812,-184.566 682.1571,-185.7881 691.1463,-191.3957 692.6812,-184.566"/>
</g>
<!-- Node27 -->
<g id="node28" class="node">
<title>Node27</title>
<polygon fill="none" stroke="#bfbfbf" points="700,-168.5 700,-187.5 744,-187.5 744,-168.5 700,-168.5"/>
<text text-anchor="middle" x="722" y="-175.5" font-family="Helvetica,sans-Serif" font-size="10.00" fill="#000000">ctime</text>
</g>
<!-- Node22&#45;&gt;Node27 -->
<g id="edge41" class="edge">
<title>Node22&#45;&gt;Node27</title>
<path fill="none" stroke="#191970" d="M949.6581,-228.981C906.4994,-221.3779 823.4953,-205.9136 754,-188 753.9014,-187.9746 753.8026,-187.949 753.7037,-187.9234"/>
<polygon fill="#191970" stroke="#191970" points="754.8705,-184.6157 744.2968,-185.2841 752.9795,-191.3554 754.8705,-184.6157"/>
</g>
<!-- Node28 -->
<g id="node29" class="node">
<title>Node28</title>
<polygon fill="none" stroke="#bfbfbf" points="762.5,-168.5 762.5,-187.5 817.5,-187.5 817.5,-168.5 762.5,-168.5"/>
<text text-anchor="middle" x="790" y="-175.5" font-family="Helvetica,sans-Serif" font-size="10.00" fill="#000000">fstream</text>
</g>
<!-- Node22&#45;&gt;Node28 -->
<g id="edge42" class="edge">
<title>Node22&#45;&gt;Node28</title>
<path fill="none" stroke="#191970" d="M949.8829,-225.3727C916.9453,-215.6134 863.2221,-199.6954 827.2539,-189.0382"/>
<polygon fill="#191970" stroke="#191970" points="828.1941,-185.6664 817.6118,-186.1813 826.2055,-192.378 828.1941,-185.6664"/>
</g>
<!-- Node29 -->
<g id="node30" class="node">
<title>Node29</title>
<polygon fill="none" stroke="#bfbfbf" points="836,-168.5 836,-187.5 892,-187.5 892,-168.5 836,-168.5"/>
<text text-anchor="middle" x="864" y="-175.5" font-family="Helvetica,sans-Serif" font-size="10.00" fill="#000000">sstream</text>
</g>
<!-- Node22&#45;&gt;Node29 -->
<g id="edge43" class="edge">
<title>Node22&#45;&gt;Node29</title>
<path fill="none" stroke="#191970" d="M959.2308,-224.3733C940.8531,-215.4241 913.2688,-201.9917 892.5107,-191.8835"/>
<polygon fill="#191970" stroke="#191970" points="894.0343,-188.7325 883.5112,-187.5011 890.9696,-195.026 894.0343,-188.7325"/>
</g>
<!-- Node30 -->
<g id="node31" class="node">
<title>Node30</title>
<polygon fill="none" stroke="#bfbfbf" points="910,-168.5 910,-187.5 974,-187.5 974,-168.5 910,-168.5"/>
<text text-anchor="middle" x="942" y="-175.5" font-family="Helvetica,sans-Serif" font-size="10.00" fill="#000000">algorithm</text>
</g>
<!-- Node22&#45;&gt;Node30 -->
<g id="edge45" class="edge">
<title>Node22&#45;&gt;Node30</title>
<path fill="none" stroke="#191970" d="M972.5551,-224.2455C967.4618,-216.5367 960.2092,-205.5598 954.048,-196.2348"/>
<polygon fill="#191970" stroke="#191970" points="956.8038,-194.0566 948.3711,-187.6427 950.9635,-197.9155 956.8038,-194.0566"/>
</g>
<!-- Node31 -->
<g id="node32" class="node">
<title>Node31</title>
<polygon fill="none" stroke="#bfbfbf" points="992,-168.5 992,-187.5 1040,-187.5 1040,-168.5 992,-168.5"/>
<text text-anchor="middle" x="1016" y="-175.5" font-family="Helvetica,sans-Serif" font-size="10.00" fill="#000000">mutex</text>
</g>
<!-- Node22&#45;&gt;Node31 -->
<g id="edge46" class="edge">
<title>Node22&#45;&gt;Node31</title>
<path fill="none" stroke="#191970" d="M985.4449,-224.2455C990.5382,-216.5367 997.7908,-205.5598 1003.952,-196.2348"/>
<polygon fill="#191970" stroke="#191970" points="1007.0365,-197.9155 1009.6289,-187.6427 1001.1962,-194.0566 1007.0365,-197.9155"/>
</g>
<!-- Node32 -->
<g id="node33" class="node">
<title>Node32</title>
<g id="a_node33"><a xlink:href="LOG_8inl_8hxx.html" target="_top" xlink:title="LOG.inl.hxx">
<polygon fill="none" stroke="#000000" points="1058.5,-168.5 1058.5,-187.5 1131.5,-187.5 1131.5,-168.5 1058.5,-168.5"/>
<text text-anchor="middle" x="1095" y="-175.5" font-family="Helvetica,sans-Serif" font-size="10.00" fill="#000000">LOG.inl.hxx</text>
</a>
</g>
</g>
<!-- Node22&#45;&gt;Node32 -->
<g id="edge48" class="edge">
<title>Node22&#45;&gt;Node32</title>
<path fill="none" stroke="#191970" d="M998.9411,-224.3733C1017.4786,-215.4241 1045.3028,-201.9917 1066.2413,-191.8835"/>
<polygon fill="#191970" stroke="#191970" points="1067.8352,-195.0006 1075.3191,-187.5011 1064.7919,-188.6967 1067.8352,-195.0006"/>
</g>
<!-- Node24 -->
<g id="node25" class="node">
<title>Node24</title>
<polygon fill="none" stroke="#bfbfbf" points="1501.5,-112.5 1501.5,-131.5 1566.5,-131.5 1566.5,-112.5 1501.5,-112.5"/>
<text text-anchor="middle" x="1534" y="-119.5" font-family="Helvetica,sans-Serif" font-size="10.00" fill="#000000">stdexcept</text>
</g>
<!-- Node23&#45;&gt;Node24 -->
<g id="edge37" class="edge">
<title>Node23&#45;&gt;Node24</title>
<path fill="none" stroke="#191970" d="M1533.1742,-168.2455C1533.3047,-160.9382 1533.4876,-150.6944 1533.6481,-141.7046"/>
<polygon fill="#191970" stroke="#191970" points="1537.1486,-141.7036 1533.8278,-131.6427 1530.1497,-141.5786 1537.1486,-141.7036"/>
</g>
<!-- Node25 -->
<g id="node26" class="node">
<title>Node25</title>
<polygon fill="none" stroke="#bfbfbf" points="1418.5,-112.5 1418.5,-131.5 1483.5,-131.5 1483.5,-112.5 1418.5,-112.5"/>
<text text-anchor="middle" x="1451" y="-119.5" font-family="Helvetica,sans-Serif" font-size="10.00" fill="#000000">exception</text>
</g>
<!-- Node23&#45;&gt;Node25 -->
<g id="edge38" class="edge">
<title>Node23&#45;&gt;Node25</title>
<path fill="none" stroke="#191970" d="M1518.7167,-168.2455C1506.253,-159.7337 1487.9549,-147.2375 1473.5208,-137.3801"/>
<polygon fill="#191970" stroke="#191970" points="1475.3515,-134.392 1465.1196,-131.6427 1471.4038,-140.1726 1475.3515,-134.392"/>
</g>
<!-- Node33&#45;&gt;Node6 -->
<g id="edge52" class="edge">
<title>Node33&#45;&gt;Node6</title>
<path fill="none" stroke="#191970" d="M1584.9767,-113.2827C1581.9444,-112.8129 1578.9313,-112.379 1576,-112 1352.0472,-83.0434 1080.0481,-70.6931 988.1124,-67.1461"/>
<polygon fill="#191970" stroke="#191970" points="988.1783,-63.6462 978.0532,-66.7657 987.9137,-70.6412 988.1783,-63.6462"/>
</g>
<!-- Node33&#45;&gt;Node8 -->
<g id="edge53" class="edge">
<title>Node33&#45;&gt;Node8</title>
<path fill="none" stroke="#191970" d="M1584.9891,-113.1814C1581.9538,-112.736 1578.9366,-112.3353 1576,-112 1374.533,-88.9985 726.774,-70.9485 570.9472,-66.8678"/>
<polygon fill="#191970" stroke="#191970" points="570.6785,-63.3597 560.5907,-66.5982 570.4963,-70.3573 570.6785,-63.3597"/>
</g>
<!-- Node34 -->
<g id="node35" class="node">
<title>Node34</title>
<polygon fill="none" stroke="#bfbfbf" points="1603,-56.5 1603,-75.5 1657,-75.5 1657,-56.5 1603,-56.5"/>
<text text-anchor="middle" x="1630" y="-63.5" font-family="Helvetica,sans-Serif" font-size="10.00" fill="#000000">ciso646</text>
</g>
<!-- Node33&#45;&gt;Node34 -->
<g id="edge51" class="edge">
<title>Node33&#45;&gt;Node34</title>
<path fill="none" stroke="#191970" d="M1630,-112.2455C1630,-104.9382 1630,-94.6944 1630,-85.7046"/>
<polygon fill="#191970" stroke="#191970" points="1633.5001,-85.6426 1630,-75.6427 1626.5001,-85.6427 1633.5001,-85.6426"/>
</g>
</g>
</svg>
        <g id="navigator" transform="translate(0 0)" fill="#404254">
                <rect fill="#f2f5e9" fill-opacity="0.5" stroke="#606060" stroke-width=".5" x="0" y="0" width="60" height="60"/>
                <use id="zoomplus" xlink:href="#zoomPlus" x="17" y="9" onmousedown="handleZoom(evt,'in')"/>
                <use id="zoomminus" xlink:href="#zoomMin" x="42" y="9" onmousedown="handleZoom(evt,'out')"/>
                <use id="reset" xlink:href="#resetDef" x="30" y="36" onmousedown="handleReset()"/>
                <g id="arrowUp" xlink:href="#dirArrow" transform="translate(30 24)" onmousedown="handlePan(0,-1)">
                  <use xlink:href="#rim" fill="#404040">
                        <set attributeName="fill" to="#808080" begin="arrowUp.mouseover" end="arrowUp.mouseout"/>
                  </use>
                  <path fill="none" stroke="white" stroke-width="1.5" d="M0,-3.0v7 M-2.5,-0.5L0,-3.0L2.5,-0.5"/>
                </g>
                <g id="arrowRight" xlink:href="#dirArrow" transform="rotate(90) translate(36 -43)" onmousedown="handlePan(1,0)">
                  <use xlink:href="#rim" fill="#404040">
                        <set attributeName="fill" to="#808080" begin="arrowRight.mouseover" end="arrowRight.mouseout"/>
                  </use>
                  <path fill="none" stroke="white" stroke-width="1.5" d="M0,-3.0v7 M-2.5,-0.5L0,-3.0L2.5,-0.5"/>
                </g>
                <g id="arrowDown" xlink:href="#dirArrow" transform="rotate(180) translate(-30 -48)" onmousedown="handlePan(0,1)">
                  <use xlink:href="#rim" fill="#404040">
                        <set attributeName="fill" to="#808080" begin="arrowDown.mouseover" end="arrowDown.mouseout"/>
                  </use>
                  <path fill="none" stroke="white" stroke-width="1.5" d="M0,-3.0v7 M-2.5,-0.5L0,-3.0L2.5,-0.5"/>
                </g>
                <g id="arrowLeft" xlink:href="#dirArrow" transform="rotate(270) translate(-36 17)" onmousedown="handlePan(-1,0)">
                  <use xlink:href="#rim" fill="#404040">
                        <set attributeName="fill" to="#808080" begin="arrowLeft.mouseover" end="arrowLeft.mouseout"/>
                  </use>
                  <path fill="none" stroke="white" stroke-width="1.5" d="M0,-3.0v7 M-2.5,-0.5L0,-3.0L2.5,-0.5"/>
                </g>
        </g>
        <svg viewBox="0 0 15 15" width="100%" height="30px" preserveAspectRatio="xMaxYMin meet">
         <g id="arrow_out" transform="scale(0.3 0.3)">
          <a xlink:href="ResourcesManager_8cxx__incl_org.svg" target="_base">
           <rect id="button" ry="5" rx="5" y="6" x="6" height="38" width="38"
                fill="#f2f5e9" fill-opacity="0.5" stroke="#606060" stroke-width="1.0"/>
           <path id="arrow"
             d="M 11.500037,31.436501 C 11.940474,20.09759 22.043105,11.32322 32.158766,21.979434 L 37.068811,17.246167 C 37.068811,17.246167 37.088388,32 37.088388,32 L 22.160133,31.978069 C 22.160133,31.978069 26.997745,27.140456 26.997745,27.140456 C 18.528582,18.264221 13.291696,25.230495 11.500037,31.436501 z"
             style="fill:#404040;"/>
          </a>
         </g>
        </svg>
</svg>
