<?xml version="1.0" encoding="UTF-8" standalone="no"?>
<!DOCTYPE svg PUBLIC "-//W3C//DTD SVG 1.1//EN"
 "http://www.w3.org/Graphics/SVG/1.1/DTD/svg11.dtd">
<!-- Generated by graphviz version 2.40.1 (20161225.0304)
 -->
<!-- Title: src/Scripting/ScriptEngine.cxx Pages: 1 -->
<svg width="834pt" height="140pt"
 viewBox="0.00 0.00 834.00 140.00" xmlns="http://www.w3.org/2000/svg" xmlns:xlink="http://www.w3.org/1999/xlink">
<g id="graph0" class="graph" transform="scale(1 1) rotate(0) translate(4 136)">
<title>src/Scripting/ScriptEngine.cxx</title>
<!-- Node0 -->
<g id="node1" class="node">
<title>Node0</title>
<polygon fill="#bfbfbf" stroke="#000000" points="292.5,-112.5 292.5,-131.5 453.5,-131.5 453.5,-112.5 292.5,-112.5"/>
<text text-anchor="middle" x="373" y="-119.5" font-family="Helvetica,sans-Serif" font-size="10.00" fill="#000000">src/Scripting/ScriptEngine.cxx</text>
</g>
<!-- Node1 -->
<g id="node2" class="node">
<title>Node1</title>
<g id="a_node2"><a xlink:href="ScriptEngine_8hxx.html" target="_top" xlink:title="ScriptEngine.hxx">
<polygon fill="none" stroke="#000000" points="0,-56.5 0,-75.5 98,-75.5 98,-56.5 0,-56.5"/>
<text text-anchor="middle" x="49" y="-63.5" font-family="Helvetica,sans-Serif" font-size="10.00" fill="#000000">ScriptEngine.hxx</text>
</a>
</g>
</g>
<!-- Node0&#45;&gt;Node1 -->
<g id="edge1" class="edge">
<title>Node0&#45;&gt;Node1</title>
<path fill="none" stroke="#191970" d="M317.6706,-112.4369C259.3237,-102.3522 167.744,-86.5237 108.0349,-76.2036"/>
<polygon fill="#191970" stroke="#191970" points="108.4548,-72.7243 98.0048,-74.47 107.2626,-79.6221 108.4548,-72.7243"/>
</g>
<!-- Node2 -->
<g id="node3" class="node">
<title>Node2</title>
<g id="a_node3"><a xlink:href="Filesystem_8hxx.html" target="_top" xlink:title="Filesystem.hxx">
<polygon fill="none" stroke="#000000" points="116,-56.5 116,-75.5 206,-75.5 206,-56.5 116,-56.5"/>
<text text-anchor="middle" x="161" y="-63.5" font-family="Helvetica,sans-Serif" font-size="10.00" fill="#000000">Filesystem.hxx</text>
</a>
</g>
</g>
<!-- Node0&#45;&gt;Node2 -->
<g id="edge2" class="edge">
<title>Node0&#45;&gt;Node2</title>
<path fill="none" stroke="#191970" d="M336.5559,-112.3733C300.6931,-102.9001 245.8122,-88.4032 206.9718,-78.1435"/>
<polygon fill="#191970" stroke="#191970" points="207.5308,-74.6712 196.9685,-75.5011 205.743,-81.439 207.5308,-74.6712"/>
</g>
<!-- Node4 -->
<g id="node5" class="node">
<title>Node4</title>
<polygon fill="none" stroke="#bfbfbf" points="210,-.5 210,-19.5 254,-19.5 254,-.5 210,-.5"/>
<text text-anchor="middle" x="232" y="-7.5" font-family="Helvetica,sans-Serif" font-size="10.00" fill="#000000">string</text>
</g>
<!-- Node0&#45;&gt;Node4 -->
<g id="edge10" class="edge">
<title>Node0&#45;&gt;Node4</title>
<path fill="none" stroke="#191970" d="M319.9168,-112.4917C296.6136,-105.8396 270.6094,-94.6616 253,-76 241.163,-63.4557 235.9979,-44.2486 233.7442,-29.7833"/>
<polygon fill="#191970" stroke="#191970" points="237.2156,-29.3351 232.526,-19.8347 230.2674,-30.186 237.2156,-29.3351"/>
</g>
<!-- Node6 -->
<g id="node7" class="node">
<title>Node6</title>
<polygon fill="none" stroke="#bfbfbf" points="262,-56.5 262,-75.5 342,-75.5 342,-56.5 262,-56.5"/>
<text text-anchor="middle" x="302" y="-63.5" font-family="Helvetica,sans-Serif" font-size="10.00" fill="#000000">angelscript.h</text>
</g>
<!-- Node0&#45;&gt;Node6 -->
<g id="edge6" class="edge">
<title>Node0&#45;&gt;Node6</title>
<path fill="none" stroke="#191970" d="M360.6327,-112.2455C350.0446,-103.8943 334.5936,-91.7076 322.2107,-81.9408"/>
<polygon fill="#191970" stroke="#191970" points="324.2447,-79.0875 314.2255,-75.6427 319.9097,-84.5837 324.2447,-79.0875"/>
</g>
<!-- Node7 -->
<g id="node8" class="node">
<title>Node7</title>
<polygon fill="none" stroke="#bfbfbf" points="360,-56.5 360,-75.5 528,-75.5 528,-56.5 360,-56.5"/>
<text text-anchor="middle" x="444" y="-63.5" font-family="Helvetica,sans-Serif" font-size="10.00" fill="#000000">scriptstdstring/scriptstdstring.h</text>
</g>
<!-- Node0&#45;&gt;Node7 -->
<g id="edge7" class="edge">
<title>Node0&#45;&gt;Node7</title>
<path fill="none" stroke="#191970" d="M385.3673,-112.2455C395.9554,-103.8943 411.4064,-91.7076 423.7893,-81.9408"/>
<polygon fill="#191970" stroke="#191970" points="426.0903,-84.5837 431.7745,-75.6427 421.7553,-79.0875 426.0903,-84.5837"/>
</g>
<!-- Node8 -->
<g id="node9" class="node">
<title>Node8</title>
<polygon fill="none" stroke="#bfbfbf" points="545.5,-56.5 545.5,-75.5 694.5,-75.5 694.5,-56.5 545.5,-56.5"/>
<text text-anchor="middle" x="620" y="-63.5" font-family="Helvetica,sans-Serif" font-size="10.00" fill="#000000">scriptbuilder/scriptbuilder.h</text>
</g>
<!-- Node0&#45;&gt;Node8 -->
<g id="edge8" class="edge">
<title>Node0&#45;&gt;Node8</title>
<path fill="none" stroke="#191970" d="M415.1802,-112.4369C457.4523,-102.8529 522.6062,-88.0812 568.0417,-77.78"/>
<polygon fill="#191970" stroke="#191970" points="569.0152,-81.1482 577.9938,-75.5237 567.4674,-74.3215 569.0152,-81.1482"/>
</g>
<!-- Node9 -->
<g id="node10" class="node">
<title>Node9</title>
<polygon fill="none" stroke="#bfbfbf" points="712,-56.5 712,-75.5 764,-75.5 764,-56.5 712,-56.5"/>
<text text-anchor="middle" x="738" y="-63.5" font-family="Helvetica,sans-Serif" font-size="10.00" fill="#000000">cassert</text>
</g>
<!-- Node0&#45;&gt;Node9 -->
<g id="edge9" class="edge">
<title>Node0&#45;&gt;Node9</title>
<path fill="none" stroke="#191970" d="M453.5071,-114.1825C518.4609,-107.101 612.2745,-95.1304 701.704,-76.2886"/>
<polygon fill="#191970" stroke="#191970" points="702.6951,-79.6558 711.7412,-74.1406 701.2302,-72.8108 702.6951,-79.6558"/>
</g>
<!-- Node10 -->
<g id="node11" class="node">
<title>Node10</title>
<polygon fill="none" stroke="#bfbfbf" points="782,-56.5 782,-75.5 826,-75.5 826,-56.5 782,-56.5"/>
<text text-anchor="middle" x="804" y="-63.5" font-family="Helvetica,sans-Serif" font-size="10.00" fill="#000000">SDL.h</text>
</g>
<!-- Node0&#45;&gt;Node10 -->
<g id="edge11" class="edge">
<title>Node0&#45;&gt;Node10</title>
<path fill="none" stroke="#191970" d="M453.8291,-117.4053C532.8671,-111.8473 656.6101,-100.3128 771.7485,-75.9107"/>
<polygon fill="#191970" stroke="#191970" points="772.7555,-79.2741 781.7926,-73.7441 771.2794,-72.4315 772.7555,-79.2741"/>
</g>
<!-- Node3 -->
<g id="node4" class="node">
<title>Node3</title>
<polygon fill="none" stroke="#bfbfbf" points="68,-.5 68,-19.5 122,-19.5 122,-.5 68,-.5"/>
<text text-anchor="middle" x="95" y="-7.5" font-family="Helvetica,sans-Serif" font-size="10.00" fill="#000000">ciso646</text>
</g>
<!-- Node2&#45;&gt;Node3 -->
<g id="edge3" class="edge">
<title>Node2&#45;&gt;Node3</title>
<path fill="none" stroke="#191970" d="M149.5037,-56.2455C139.7558,-47.9746 125.5741,-35.9416 114.1202,-26.2232"/>
<polygon fill="#191970" stroke="#191970" points="116.2541,-23.4437 106.3646,-19.6427 111.7253,-28.7813 116.2541,-23.4437"/>
</g>
<!-- Node2&#45;&gt;Node4 -->
<g id="edge4" class="edge">
<title>Node2&#45;&gt;Node4</title>
<path fill="none" stroke="#191970" d="M173.3673,-56.2455C183.9554,-47.8943 199.4064,-35.7076 211.7893,-25.9408"/>
<polygon fill="#191970" stroke="#191970" points="214.0903,-28.5837 219.7745,-19.6427 209.7553,-23.0875 214.0903,-28.5837"/>
</g>
<!-- Node5 -->
<g id="node6" class="node">
<title>Node5</title>
<polygon fill="none" stroke="#bfbfbf" points="140.5,-.5 140.5,-19.5 187.5,-19.5 187.5,-.5 140.5,-.5"/>
<text text-anchor="middle" x="164" y="-7.5" font-family="Helvetica,sans-Serif" font-size="10.00" fill="#000000">vector</text>
</g>
<!-- Node2&#45;&gt;Node5 -->
<g id="edge5" class="edge">
<title>Node2&#45;&gt;Node5</title>
<path fill="none" stroke="#191970" d="M161.5226,-56.2455C161.914,-48.9382 162.4628,-38.6944 162.9444,-29.7046"/>
<polygon fill="#191970" stroke="#191970" points="166.4434,-29.8156 163.4834,-19.6427 159.4534,-29.4411 166.4434,-29.8156"/>
</g>
</g>
</svg>
