<?xml version="1.0" encoding="UTF-8" standalone="no"?>
<!DOCTYPE svg PUBLIC "-//W3C//DTD SVG 1.1//EN"
 "http://www.w3.org/Graphics/SVG/1.1/DTD/svg11.dtd">
<!-- Generated by graphviz version 2.40.1 (20161225.0304)
 -->
<!-- Title: src/engine/basics/Settings.hxx Pages: 1 -->
<!--zoomable 151 -->
<svg id="main" version="1.1" xmlns="http://www.w3.org/2000/svg" xmlns:xlink="http://www.w3.org/1999/xlink" xml:space="preserve" onload="init(evt)">
<style type="text/css"><![CDATA[
.edge:hover path { stroke: red; }
.edge:hover polygon { stroke: red; fill: red; }
]]></style>
<script type="text/javascript"><![CDATA[
var edges = document.getElementsByTagName('g');
if (edges && edges.length) {
  for (var i=0;i<edges.length;i++) {
    if (edges[i].id.substr(0,4)=='edge') {
      edges[i].setAttribute('class','edge');
    }
  }
}
]]></script>
        <defs>
                <circle id="rim" cx="0" cy="0" r="7"/>
                <circle id="rim2" cx="0" cy="0" r="3.5"/>
                <g id="zoomPlus">
                        <use xlink:href="#rim" fill="#404040">
                                <set attributeName="fill" to="#808080" begin="zoomplus.mouseover" end="zoomplus.mouseout"/>
                        </use>
                        <path d="M-4,0h8M0,-4v8" fill="none" stroke="white" stroke-width="1.5" pointer-events="none"/>
                </g>
                <g id="zoomMin">
                        <use xlink:href="#rim" fill="#404040">
                                <set attributeName="fill" to="#808080" begin="zoomminus.mouseover" end="zoomminus.mouseout"/>
                        </use>
                        <path d="M-4,0h8" fill="none" stroke="white" stroke-width="1.5" pointer-events="none"/>
                </g>
                <g id="dirArrow">
                        <path fill="none" stroke="white" stroke-width="1.5" d="M0,-3.0v7 M-2.5,-0.5L0,-3.0L2.5,-0.5"/>
                </g>
               <g id="resetDef">
                       <use xlink:href="#rim2" fill="#404040">
                               <set attributeName="fill" to="#808080" begin="reset.mouseover" end="reset.mouseout"/>
                       </use>
               </g>
        </defs>

<script type="text/javascript">
var viewWidth = 3179;
var viewHeight = 151;
var sectionId = 'dynsection-1';
</script>
<script xlink:href="svgpan.js"/>
<svg id="graph" class="graph">
<g id="viewport">
<title>src/engine/basics/Settings.hxx</title>
<!-- Node9 -->
<g id="node1" class="node">
<title>Node9</title>
<polygon fill="#bfbfbf" stroke="#000000" points="1432.5,-123.5 1432.5,-142.5 1596.5,-142.5 1596.5,-123.5 1432.5,-123.5"/>
<text text-anchor="middle" x="1514.5" y="-130.5" font-family="Helvetica,sans-Serif" font-size="10.00" fill="#000000">src/engine/basics/Settings.hxx</text>
</g>
<!-- Node10 -->
<g id="node2" class="node">
<title>Node10</title>
<g id="a_node2"><a xlink:href="Soundtrack_8cxx.html" target="_top" xlink:title="src/engine/audio/Soundtrack.cxx">
<polygon fill="none" stroke="#000000" points="0,-62 0,-81 175,-81 175,-62 0,-62"/>
<text text-anchor="middle" x="87.5" y="-69" font-family="Helvetica,sans-Serif" font-size="10.00" fill="#000000">src/engine/audio/Soundtrack.cxx</text>
</a>
</g>
</g>
<!-- Node9&#45;&gt;Node10 -->
<g id="edge1" class="edge">
<title>Node9&#45;&gt;Node10</title>
<path fill="none" stroke="#191970" d="M1422.0015,-131.2943C1161.5201,-126.2529 425.1917,-110.3024 184.5,-87 169.817,-85.5785 153.982,-83.348 139.4499,-81.0174"/>
<polygon fill="#191970" stroke="#191970" points="1422.1187,-134.7971 1432.1843,-131.4905 1422.2536,-127.7984 1422.1187,-134.7971"/>
</g>
<!-- Node11 -->
<g id="node3" class="node">
<title>Node11</title>
<g id="a_node3"><a xlink:href="Camera_8cxx.html" target="_top" xlink:title="src/engine/basics/Camera.cxx">
<polygon fill="none" stroke="#000000" points="193.5,-62 193.5,-81 355.5,-81 355.5,-62 193.5,-62"/>
<text text-anchor="middle" x="274.5" y="-69" font-family="Helvetica,sans-Serif" font-size="10.00" fill="#000000">src/engine/basics/Camera.cxx</text>
</a>
</g>
</g>
<!-- Node9&#45;&gt;Node11 -->
<g id="edge2" class="edge">
<title>Node9&#45;&gt;Node11</title>
<path fill="none" stroke="#191970" d="M1421.9755,-130.8602C1186.5061,-125.1634 568.7394,-108.5788 364.5,-87 350.9401,-85.5673 336.334,-83.348 322.9147,-81.0322"/>
<polygon fill="#191970" stroke="#191970" points="1422.1396,-134.365 1432.221,-131.107 1422.3083,-127.3671 1422.1396,-134.365"/>
</g>
<!-- Node12 -->
<g id="node4" class="node">
<title>Node12</title>
<g id="a_node4"><a xlink:href="GameStates_8cxx.html" target="_top" xlink:title="src/engine/basics/GameStates.cxx">
<polygon fill="none" stroke="#000000" points="373.5,-62 373.5,-81 557.5,-81 557.5,-62 373.5,-62"/>
<text text-anchor="middle" x="465.5" y="-69" font-family="Helvetica,sans-Serif" font-size="10.00" fill="#000000">src/engine/basics/GameStates.cxx</text>
</a>
</g>
</g>
<!-- Node9&#45;&gt;Node12 -->
<g id="edge3" class="edge">
<title>Node9&#45;&gt;Node12</title>
<path fill="none" stroke="#191970" d="M1422.3536,-131.702C1252.644,-128.6065 879.3958,-118.5148 566.5,-87 551.5852,-85.4978 535.5123,-83.2985 520.671,-81.026"/>
<polygon fill="#191970" stroke="#191970" points="1422.4364,-135.2039 1432.4973,-131.883 1422.5614,-128.205 1422.4364,-135.2039"/>
</g>
<!-- Node13 -->
<g id="node5" class="node">
<title>Node13</title>
<g id="a_node5"><a xlink:href="isoMath_8cxx.html" target="_top" xlink:title="src/engine/basics/isoMath.cxx">
<polygon fill="none" stroke="#000000" points="575.5,-62 575.5,-81 737.5,-81 737.5,-62 575.5,-62"/>
<text text-anchor="middle" x="656.5" y="-69" font-family="Helvetica,sans-Serif" font-size="10.00" fill="#000000">src/engine/basics/isoMath.cxx</text>
</a>
</g>
</g>
<!-- Node9&#45;&gt;Node13 -->
<g id="edge4" class="edge">
<title>Node9&#45;&gt;Node13</title>
<path fill="none" stroke="#191970" d="M1422.3064,-130.4622C1278.6099,-125.8265 992.6749,-113.8746 751.5,-87 737.7151,-85.4639 722.8826,-83.2946 709.1309,-81.064"/>
<polygon fill="#191970" stroke="#191970" points="1422.298,-133.9636 1432.4042,-130.7834 1422.5206,-126.9671 1422.298,-133.9636"/>
</g>
<!-- Node14 -->
<g id="node6" class="node">
<title>Node14</title>
<g id="a_node6"><a xlink:href="Settings_8cxx.html" target="_top" xlink:title="src/engine/basics/Settings.cxx">
<polygon fill="none" stroke="#000000" points="403.5,-.5 403.5,-19.5 567.5,-19.5 567.5,-.5 403.5,-.5"/>
<text text-anchor="middle" x="485.5" y="-7.5" font-family="Helvetica,sans-Serif" font-size="10.00" fill="#000000">src/engine/basics/Settings.cxx</text>
</a>
</g>
</g>
<!-- Node9&#45;&gt;Node14 -->
<g id="edge5" class="edge">
<title>Node9&#45;&gt;Node14</title>
<path fill="none" stroke="#191970" d="M1422.3221,-130.3395C1239.2479,-124.5979 842.408,-109.7014 784.5,-87 764.2077,-79.0449 766.3174,-65.0737 746.5,-56 714.8628,-41.5145 629.5025,-28.0885 564.944,-19.5265"/>
<polygon fill="#191970" stroke="#191970" points="1422.3684,-133.8426 1432.4725,-130.6554 1422.5862,-126.846 1422.3684,-133.8426"/>
</g>
<!-- Node15 -->
<g id="node7" class="node">
<title>Node15</title>
<g id="a_node7"><a xlink:href="JsonSerialization_8hxx.html" target="_top" xlink:title="src/engine/common/JsonSerialization.hxx">
<polygon fill="none" stroke="#000000" points="793.5,-62 793.5,-81 1011.5,-81 1011.5,-62 793.5,-62"/>
<text text-anchor="middle" x="902.5" y="-69" font-family="Helvetica,sans-Serif" font-size="10.00" fill="#000000">src/engine/common/JsonSerialization.hxx</text>
</a>
</g>
</g>
<!-- Node9&#45;&gt;Node15 -->
<g id="edge6" class="edge">
<title>Node9&#45;&gt;Node15</title>
<path fill="none" stroke="#191970" d="M1422.0134,-125.1755C1323.6155,-116.6461 1163.4378,-102.1752 1025.5,-87 1009.1336,-85.1994 991.565,-83.0909 974.9742,-81.0192"/>
<polygon fill="#191970" stroke="#191970" points="1421.9598,-128.6839 1432.2242,-126.0585 1422.563,-121.7099 1421.9598,-128.6839"/>
</g>
<!-- Node17 -->
<g id="node9" class="node">
<title>Node17</title>
<g id="a_node9"><a xlink:href="Map_8cxx.html" target="_top" xlink:title="src/engine/Map.cxx">
<polygon fill="none" stroke="#000000" points="1001.5,-.5 1001.5,-19.5 1111.5,-19.5 1111.5,-.5 1001.5,-.5"/>
<text text-anchor="middle" x="1056.5" y="-7.5" font-family="Helvetica,sans-Serif" font-size="10.00" fill="#000000">src/engine/Map.cxx</text>
</a>
</g>
</g>
<!-- Node9&#45;&gt;Node17 -->
<g id="edge14" class="edge">
<title>Node9&#45;&gt;Node17</title>
<path fill="none" stroke="#191970" d="M1422.1416,-128.1417C1304.312,-121.1719 1112.5594,-106.9412 1086.5,-87 1064.9659,-70.5217 1058.8765,-36.4051 1057.1641,-19.6759"/>
<polygon fill="#191970" stroke="#191970" points="1422.0627,-131.6429 1432.2499,-128.7325 1422.4712,-124.6549 1422.0627,-131.6429"/>
</g>
<!-- Node18 -->
<g id="node10" class="node">
<title>Node18</title>
<g id="a_node10"><a xlink:href="AudioMixer_8cxx.html" target="_top" xlink:title="src/services/AudioMixer.cxx">
<polygon fill="none" stroke="#000000" points="1129.5,-.5 1129.5,-19.5 1281.5,-19.5 1281.5,-.5 1129.5,-.5"/>
<text text-anchor="middle" x="1205.5" y="-7.5" font-family="Helvetica,sans-Serif" font-size="10.00" fill="#000000">src/services/AudioMixer.cxx</text>
</a>
</g>
</g>
<!-- Node9&#45;&gt;Node18 -->
<g id="edge23" class="edge">
<title>Node9&#45;&gt;Node18</title>
<path fill="none" stroke="#191970" d="M1422.001,-129.2243C1305.7528,-123.5113 1118.7573,-110.7312 1097.5,-87 1088.3073,-76.7374 1089.9026,-67.4938 1097.5,-56 1109.8618,-37.2984 1131.5403,-26.1755 1152.2467,-19.5712"/>
<polygon fill="#191970" stroke="#191970" points="1422.1696,-132.7364 1432.3267,-129.7223 1422.507,-125.7445 1422.1696,-132.7364"/>
</g>
<!-- Node20 -->
<g id="node12" class="node">
<title>Node20</title>
<g id="a_node12"><a xlink:href="Engine_8cxx.html" target="_top" xlink:title="src/engine/Engine.cxx">
<polygon fill="none" stroke="#000000" points="1106,-62 1106,-81 1229,-81 1229,-62 1106,-62"/>
<text text-anchor="middle" x="1167.5" y="-69" font-family="Helvetica,sans-Serif" font-size="10.00" fill="#000000">src/engine/Engine.cxx</text>
</a>
</g>
</g>
<!-- Node9&#45;&gt;Node20 -->
<g id="edge12" class="edge">
<title>Node9&#45;&gt;Node20</title>
<path fill="none" stroke="#191970" d="M1441.7255,-121.8842C1385.9724,-113.1232 1307.2091,-100.2172 1238.5,-87 1229.0839,-85.1887 1219.0011,-83.0867 1209.4773,-81.0264"/>
<polygon fill="#191970" stroke="#191970" points="1441.4394,-125.3819 1451.8604,-123.4709 1442.5222,-118.4662 1441.4394,-125.3819"/>
</g>
<!-- Node21 -->
<g id="node13" class="node">
<title>Node21</title>
<g id="a_node13"><a xlink:href="EventManager_8cxx.html" target="_top" xlink:title="src/engine/EventManager.cxx">
<polygon fill="none" stroke="#000000" points="1247,-62 1247,-81 1406,-81 1406,-62 1247,-62"/>
<text text-anchor="middle" x="1326.5" y="-69" font-family="Helvetica,sans-Serif" font-size="10.00" fill="#000000">src/engine/EventManager.cxx</text>
</a>
</g>
</g>
<!-- Node9&#45;&gt;Node21 -->
<g id="edge13" class="edge">
<title>Node9&#45;&gt;Node21</title>
<path fill="none" stroke="#191970" d="M1475.5267,-120.2507C1439.8558,-108.5818 1387.8681,-91.5752 1355.6687,-81.0419"/>
<polygon fill="#191970" stroke="#191970" points="1474.5324,-123.6079 1485.125,-123.3906 1476.7088,-116.9549 1474.5324,-123.6079"/>
</g>
<!-- Node22 -->
<g id="node14" class="node">
<title>Node22</title>
<g id="a_node14"><a xlink:href="ResourcesManager_8cxx.html" target="_top" xlink:title="src/engine/ResourcesManager.cxx">
<polygon fill="none" stroke="#000000" points="1424,-62 1424,-81 1605,-81 1605,-62 1424,-62"/>
<text text-anchor="middle" x="1514.5" y="-69" font-family="Helvetica,sans-Serif" font-size="10.00" fill="#000000">src/engine/ResourcesManager.cxx</text>
</a>
</g>
</g>
<!-- Node9&#45;&gt;Node22 -->
<g id="edge15" class="edge">
<title>Node9&#45;&gt;Node22</title>
<path fill="none" stroke="#191970" d="M1514.5,-113.2462C1514.5,-102.5519 1514.5,-89.814 1514.5,-81.2449"/>
<polygon fill="#191970" stroke="#191970" points="1511.0001,-113.3906 1514.5,-123.3906 1518.0001,-113.3907 1511.0001,-113.3906"/>
</g>
<!-- Node23 -->
<g id="node15" class="node">
<title>Node23</title>
<g id="a_node15"><a xlink:href="TileManager_8cxx.html" target="_top" xlink:title="src/engine/TileManager.cxx">
<polygon fill="none" stroke="#000000" points="1623,-62 1623,-81 1772,-81 1772,-62 1623,-62"/>
<text text-anchor="middle" x="1697.5" y="-69" font-family="Helvetica,sans-Serif" font-size="10.00" fill="#000000">src/engine/TileManager.cxx</text>
</a>
</g>
</g>
<!-- Node9&#45;&gt;Node23 -->
<g id="edge16" class="edge">
<title>Node9&#45;&gt;Node23</title>
<path fill="none" stroke="#191970" d="M1552.8828,-120.1009C1587.5912,-108.4366 1637.898,-91.5302 1669.107,-81.0419"/>
<polygon fill="#191970" stroke="#191970" points="1551.4578,-116.8873 1543.0938,-123.3906 1553.6878,-123.5226 1551.4578,-116.8873"/>
</g>
<!-- Node24 -->
<g id="node16" class="node">
<title>Node24</title>
<g id="a_node16"><a xlink:href="Layout_8cxx.html" target="_top" xlink:title="src/engine/ui/basics\l/Layout.cxx">
<polygon fill="none" stroke="#000000" points="1790,-56.5 1790,-86.5 1903,-86.5 1903,-56.5 1790,-56.5"/>
<text text-anchor="start" x="1798" y="-74.5" font-family="Helvetica,sans-Serif" font-size="10.00" fill="#000000">src/engine/ui/basics</text>
<text text-anchor="middle" x="1846.5" y="-63.5" font-family="Helvetica,sans-Serif" font-size="10.00" fill="#000000">/Layout.cxx</text>
</a>
</g>
</g>
<!-- Node9&#45;&gt;Node24 -->
<g id="edge17" class="edge">
<title>Node9&#45;&gt;Node24</title>
<path fill="none" stroke="#191970" d="M1586.6221,-121.8465C1640.4827,-113.2088 1715.8112,-100.4766 1781.5,-87 1784.2275,-86.4404 1787.0148,-85.8496 1789.8269,-85.2382"/>
<polygon fill="#191970" stroke="#191970" points="1585.8075,-118.4321 1576.4842,-123.4646 1586.9109,-125.3446 1585.8075,-118.4321"/>
</g>
<!-- Node25 -->
<g id="node17" class="node">
<title>Node25</title>
<g id="a_node17"><a xlink:href="UIElement_8cxx.html" target="_top" xlink:title="src/engine/ui/basics\l/UIElement.cxx">
<polygon fill="none" stroke="#000000" points="1921,-56.5 1921,-86.5 2034,-86.5 2034,-56.5 1921,-56.5"/>
<text text-anchor="start" x="1929" y="-74.5" font-family="Helvetica,sans-Serif" font-size="10.00" fill="#000000">src/engine/ui/basics</text>
<text text-anchor="middle" x="1977.5" y="-63.5" font-family="Helvetica,sans-Serif" font-size="10.00" fill="#000000">/UIElement.cxx</text>
</a>
</g>
</g>
<!-- Node9&#45;&gt;Node25 -->
<g id="edge18" class="edge">
<title>Node9&#45;&gt;Node25</title>
<path fill="none" stroke="#191970" d="M1607.0205,-125.4503C1687.9746,-118.0971 1808.545,-105.335 1912.5,-87 1915.242,-86.5164 1918.0411,-85.9872 1920.8626,-85.4253"/>
<polygon fill="#191970" stroke="#191970" points="1606.5016,-121.9828 1596.8551,-126.3642 1607.1284,-128.9547 1606.5016,-121.9828"/>
</g>
<!-- Node26 -->
<g id="node18" class="node">
<title>Node26</title>
<g id="a_node18"><a xlink:href="Text_8cxx.html" target="_top" xlink:title="src/engine/ui/widgets\l/Text.cxx">
<polygon fill="none" stroke="#000000" points="2052.5,-56.5 2052.5,-86.5 2172.5,-86.5 2172.5,-56.5 2052.5,-56.5"/>
<text text-anchor="start" x="2060.5" y="-74.5" font-family="Helvetica,sans-Serif" font-size="10.00" fill="#000000">src/engine/ui/widgets</text>
<text text-anchor="middle" x="2112.5" y="-63.5" font-family="Helvetica,sans-Serif" font-size="10.00" fill="#000000">/Text.cxx</text>
</a>
</g>
</g>
<!-- Node9&#45;&gt;Node26 -->
<g id="edge19" class="edge">
<title>Node9&#45;&gt;Node26</title>
<path fill="none" stroke="#191970" d="M1606.946,-128.7273C1712.8868,-122.9601 1891.4875,-110.574 2043.5,-87 2046.4118,-86.5484 2049.3842,-86.0453 2052.38,-85.5043"/>
<polygon fill="#191970" stroke="#191970" points="1606.722,-125.2342 1596.9238,-129.2649 1607.097,-132.2241 1606.722,-125.2342"/>
</g>
<!-- Node27 -->
<g id="node19" class="node">
<title>Node27</title>
<g id="a_node19"><a xlink:href="UIManager_8cxx.html" target="_top" xlink:title="src/engine/UIManager.cxx">
<polygon fill="none" stroke="#000000" points="2190.5,-62 2190.5,-81 2332.5,-81 2332.5,-62 2190.5,-62"/>
<text text-anchor="middle" x="2261.5" y="-69" font-family="Helvetica,sans-Serif" font-size="10.00" fill="#000000">src/engine/UIManager.cxx</text>
</a>
</g>
</g>
<!-- Node9&#45;&gt;Node27 -->
<g id="edge20" class="edge">
<title>Node9&#45;&gt;Node27</title>
<path fill="none" stroke="#191970" d="M1606.9473,-130.2035C1736.0372,-125.4855 1977.4147,-113.706 2181.5,-87 2193.2832,-85.4581 2205.9469,-83.2592 2217.6447,-81.0006"/>
<polygon fill="#191970" stroke="#191970" points="1606.5774,-126.7144 1596.7096,-130.5714 1606.8289,-133.7099 1606.5774,-126.7144"/>
</g>
<!-- Node28 -->
<g id="node20" class="node">
<title>Node28</title>
<g id="a_node20"><a xlink:href="WindowManager_8cxx.html" target="_top" xlink:title="src/engine/WindowManager.cxx">
<polygon fill="none" stroke="#000000" points="2350.5,-62 2350.5,-81 2520.5,-81 2520.5,-62 2350.5,-62"/>
<text text-anchor="middle" x="2435.5" y="-69" font-family="Helvetica,sans-Serif" font-size="10.00" fill="#000000">src/engine/WindowManager.cxx</text>
</a>
</g>
</g>
<!-- Node9&#45;&gt;Node28 -->
<g id="edge21" class="edge">
<title>Node9&#45;&gt;Node28</title>
<path fill="none" stroke="#191970" d="M1606.9094,-131.1097C1760.0326,-127.2495 2075.8446,-116.2045 2341.5,-87 2355.3102,-85.4818 2370.1781,-83.2911 2383.9227,-81.0327"/>
<polygon fill="#191970" stroke="#191970" points="1606.525,-127.618 1596.6147,-131.3645 1606.6983,-134.6159 1606.525,-127.618"/>
</g>
<!-- Node29 -->
<g id="node21" class="node">
<title>Node29</title>
<g id="a_node21"><a xlink:href="Game_8cxx.html" target="_top" xlink:title="src/Game.cxx">
<polygon fill="none" stroke="#000000" points="2539,-62 2539,-81 2622,-81 2622,-62 2539,-62"/>
<text text-anchor="middle" x="2580.5" y="-69" font-family="Helvetica,sans-Serif" font-size="10.00" fill="#000000">src/Game.cxx</text>
</a>
</g>
</g>
<!-- Node9&#45;&gt;Node29 -->
<g id="edge22" class="edge">
<title>Node9&#45;&gt;Node29</title>
<path fill="none" stroke="#191970" d="M1606.5702,-131.7651C1821.9465,-128.4011 2353.662,-117.2146 2529.5,-87 2537.4347,-85.6366 2545.8665,-83.4097 2553.5411,-81.0637"/>
<polygon fill="#191970" stroke="#191970" points="1606.5008,-128.2656 1596.556,-131.9194 1606.6087,-135.2648 1606.5008,-128.2656"/>
</g>
<!-- Node30 -->
<g id="node22" class="node">
<title>Node30</title>
<g id="a_node22"><a xlink:href="android_2Filesystem_8cxx.html" target="_top" xlink:title="src/util/android/Filesystem.cxx">
<polygon fill="none" stroke="#000000" points="2640,-62 2640,-81 2805,-81 2805,-62 2640,-62"/>
<text text-anchor="middle" x="2722.5" y="-69" font-family="Helvetica,sans-Serif" font-size="10.00" fill="#000000">src/util/android/Filesystem.cxx</text>
</a>
</g>
</g>
<!-- Node9&#45;&gt;Node30 -->
<g id="edge24" class="edge">
<title>Node9&#45;&gt;Node30</title>
<path fill="none" stroke="#191970" d="M1606.8485,-130.7167C1837.3844,-124.7718 2433.8182,-107.8201 2631.5,-87 2645.2067,-85.5564 2659.9739,-83.3335 2673.5422,-81.0178"/>
<polygon fill="#191970" stroke="#191970" points="1606.7188,-127.2187 1596.812,-130.9745 1606.8986,-134.2164 1606.7188,-127.2187"/>
</g>
<!-- Node31 -->
<g id="node23" class="node">
<title>Node31</title>
<g id="a_node23"><a xlink:href="desktop_2Filesystem_8cxx.html" target="_top" xlink:title="src/util/desktop/Filesystem.cxx">
<polygon fill="none" stroke="#000000" points="2823,-62 2823,-81 2990,-81 2990,-62 2823,-62"/>
<text text-anchor="middle" x="2906.5" y="-69" font-family="Helvetica,sans-Serif" font-size="10.00" fill="#000000">src/util/desktop/Filesystem.cxx</text>
</a>
</g>
</g>
<!-- Node9&#45;&gt;Node31 -->
<g id="edge25" class="edge">
<title>Node9&#45;&gt;Node31</title>
<path fill="none" stroke="#191970" d="M1606.7305,-131.3157C1862.9454,-126.3847 2579.8931,-110.8095 2814.5,-87 2828.3585,-85.5935 2843.2884,-83.3828 2857.0059,-81.0669"/>
<polygon fill="#191970" stroke="#191970" points="1606.6417,-127.8166 1596.7106,-131.5076 1606.7758,-134.8153 1606.6417,-127.8166"/>
</g>
<!-- Node32 -->
<g id="node24" class="node">
<title>Node32</title>
<g id="a_node24"><a xlink:href="macOS_2Filesystem_8cxx.html" target="_top" xlink:title="src/util/macOS/Filesystem.cxx">
<polygon fill="none" stroke="#000000" points="3008,-62 3008,-81 3171,-81 3171,-62 3008,-62"/>
<text text-anchor="middle" x="3089.5" y="-69" font-family="Helvetica,sans-Serif" font-size="10.00" fill="#000000">src/util/macOS/Filesystem.cxx</text>
</a>
</g>
</g>
<!-- Node9&#45;&gt;Node32 -->
<g id="edge26" class="edge">
<title>Node9&#45;&gt;Node32</title>
<path fill="none" stroke="#191970" d="M1606.8976,-131.828C1887.5514,-128.0008 2727.4679,-114.5025 2999.5,-87 3013.2239,-85.6125 3028.0143,-83.3779 3041.5613,-81.0323"/>
<polygon fill="#191970" stroke="#191970" points="1606.7027,-128.3303 1596.7511,-131.9655 1606.7976,-135.3296 1606.7027,-128.3303"/>
</g>
<!-- Node15&#45;&gt;Node14 -->
<g id="edge7" class="edge">
<title>Node15&#45;&gt;Node14</title>
<path fill="none" stroke="#191970" d="M827.901,-60.498C748.7778,-48.8287 625.0631,-30.583 550.0074,-19.5137"/>
<polygon fill="#191970" stroke="#191970" points="827.3976,-63.9615 837.8013,-61.9581 828.419,-57.0364 827.3976,-63.9615"/>
</g>
<!-- Node16 -->
<g id="node8" class="node">
<title>Node16</title>
<g id="a_node8"><a xlink:href="TerrainGenerator_8cxx.html" target="_top" xlink:title="src/engine/map/TerrainGenerator.cxx">
<polygon fill="none" stroke="#000000" points="787.5,-.5 787.5,-19.5 983.5,-19.5 983.5,-.5 787.5,-.5"/>
<text text-anchor="middle" x="885.5" y="-7.5" font-family="Helvetica,sans-Serif" font-size="10.00" fill="#000000">src/engine/map/TerrainGenerator.cxx</text>
</a>
</g>
</g>
<!-- Node15&#45;&gt;Node16 -->
<g id="edge8" class="edge">
<title>Node15&#45;&gt;Node16</title>
<path fill="none" stroke="#191970" d="M897.1328,-52.0832C894.1577,-41.3205 890.5873,-28.4042 888.1937,-19.7449"/>
<polygon fill="#191970" stroke="#191970" points="893.8059,-53.1846 899.8438,-61.8906 900.5529,-51.3195 893.8059,-53.1846"/>
</g>
<!-- Node15&#45;&gt;Node17 -->
<g id="edge9" class="edge">
<title>Node15&#45;&gt;Node17</title>
<path fill="none" stroke="#191970" d="M935.935,-58.1477C965.0959,-46.5023 1006.6812,-29.8952 1032.6065,-19.5419"/>
<polygon fill="#191970" stroke="#191970" points="934.5513,-54.9315 926.5625,-61.8906 937.1474,-61.4323 934.5513,-54.9315"/>
</g>
<!-- Node15&#45;&gt;Node18 -->
<g id="edge10" class="edge">
<title>Node15&#45;&gt;Node18</title>
<path fill="none" stroke="#191970" d="M959.5256,-59.9255C1017.0128,-48.2573 1104.7029,-30.4588 1158.3784,-19.5643"/>
<polygon fill="#191970" stroke="#191970" points="958.6152,-56.5388 949.5113,-61.9581 960.0077,-63.3989 958.6152,-56.5388"/>
</g>
<!-- Node19 -->
<g id="node11" class="node">
<title>Node19</title>
<g id="a_node11"><a xlink:href="ResourceManager_8cxx.html" target="_top" xlink:title="src/services/ResourceManager.cxx">
<polygon fill="none" stroke="#000000" points="586,-.5 586,-19.5 769,-19.5 769,-.5 586,-.5"/>
<text text-anchor="middle" x="677.5" y="-7.5" font-family="Helvetica,sans-Serif" font-size="10.00" fill="#000000">src/services/ResourceManager.cxx</text>
</a>
</g>
</g>
<!-- Node15&#45;&gt;Node19 -->
<g id="edge11" class="edge">
<title>Node15&#45;&gt;Node19</title>
<path fill="none" stroke="#191970" d="M857.4886,-59.1969C814.7644,-47.5189 751.44,-30.2103 712.4094,-19.5419"/>
<polygon fill="#191970" stroke="#191970" points="856.7748,-62.6301 867.3438,-61.8906 858.6204,-55.8778 856.7748,-62.6301"/>
</g>
</g>
</svg>
        <g id="navigator" transform="translate(0 0)" fill="#404254">
                <rect fill="#f2f5e9" fill-opacity="0.5" stroke="#606060" stroke-width=".5" x="0" y="0" width="60" height="60"/>
                <use id="zoomplus" xlink:href="#zoomPlus" x="17" y="9" onmousedown="handleZoom(evt,'in')"/>
                <use id="zoomminus" xlink:href="#zoomMin" x="42" y="9" onmousedown="handleZoom(evt,'out')"/>
                <use id="reset" xlink:href="#resetDef" x="30" y="36" onmousedown="handleReset()"/>
                <g id="arrowUp" xlink:href="#dirArrow" transform="translate(30 24)" onmousedown="handlePan(0,-1)">
                  <use xlink:href="#rim" fill="#404040">
                        <set attributeName="fill" to="#808080" begin="arrowUp.mouseover" end="arrowUp.mouseout"/>
                  </use>
                  <path fill="none" stroke="white" stroke-width="1.5" d="M0,-3.0v7 M-2.5,-0.5L0,-3.0L2.5,-0.5"/>
                </g>
                <g id="arrowRight" xlink:href="#dirArrow" transform="rotate(90) translate(36 -43)" onmousedown="handlePan(1,0)">
                  <use xlink:href="#rim" fill="#404040">
                        <set attributeName="fill" to="#808080" begin="arrowRight.mouseover" end="arrowRight.mouseout"/>
                  </use>
                  <path fill="none" stroke="white" stroke-width="1.5" d="M0,-3.0v7 M-2.5,-0.5L0,-3.0L2.5,-0.5"/>
                </g>
                <g id="arrowDown" xlink:href="#dirArrow" transform="rotate(180) translate(-30 -48)" onmousedown="handlePan(0,1)">
                  <use xlink:href="#rim" fill="#404040">
                        <set attributeName="fill" to="#808080" begin="arrowDown.mouseover" end="arrowDown.mouseout"/>
                  </use>
                  <path fill="none" stroke="white" stroke-width="1.5" d="M0,-3.0v7 M-2.5,-0.5L0,-3.0L2.5,-0.5"/>
                </g>
                <g id="arrowLeft" xlink:href="#dirArrow" transform="rotate(270) translate(-36 17)" onmousedown="handlePan(-1,0)">
                  <use xlink:href="#rim" fill="#404040">
                        <set attributeName="fill" to="#808080" begin="arrowLeft.mouseover" end="arrowLeft.mouseout"/>
                  </use>
                  <path fill="none" stroke="white" stroke-width="1.5" d="M0,-3.0v7 M-2.5,-0.5L0,-3.0L2.5,-0.5"/>
                </g>
        </g>
        <svg viewBox="0 0 15 15" width="100%" height="30px" preserveAspectRatio="xMaxYMin meet">
         <g id="arrow_out" transform="scale(0.3 0.3)">
          <a xlink:href="Settings_8hxx__dep__incl_org.svg" target="_base">
           <rect id="button" ry="5" rx="5" y="6" x="6" height="38" width="38"
                fill="#f2f5e9" fill-opacity="0.5" stroke="#606060" stroke-width="1.0"/>
           <path id="arrow"
             d="M 11.500037,31.436501 C 11.940474,20.09759 22.043105,11.32322 32.158766,21.979434 L 37.068811,17.246167 C 37.068811,17.246167 37.088388,32 37.088388,32 L 22.160133,31.978069 C 22.160133,31.978069 26.997745,27.140456 26.997745,27.140456 C 18.528582,18.264221 13.291696,25.230495 11.500037,31.436501 z"
             style="fill:#404040;"/>
          </a>
         </g>
        </svg>
</svg>
