<?xml version="1.0" encoding="UTF-8" standalone="no"?>
<!DOCTYPE svg PUBLIC "-//W3C//DTD SVG 1.1//EN"
 "http://www.w3.org/Graphics/SVG/1.1/DTD/svg11.dtd">
<!-- Generated by graphviz version 2.40.1 (20161225.0304)
 -->
<!-- Title: src/engine/basics/Settings.cxx Pages: 1 -->
<svg width="2041pt" height="420pt"
 viewBox="0.00 0.00 2040.50 420.00" xmlns="http://www.w3.org/2000/svg" xmlns:xlink="http://www.w3.org/1999/xlink">
<g id="graph0" class="graph" transform="scale(1 1) rotate(0) translate(4 416)">
<title>src/engine/basics/Settings.cxx</title>
<!-- Node0 -->
<g id="node1" class="node">
<title>Node0</title>
<polygon fill="#bfbfbf" stroke="#000000" points="982.5,-392.5 982.5,-411.5 1146.5,-411.5 1146.5,-392.5 982.5,-392.5"/>
<text text-anchor="middle" x="1064.5" y="-399.5" font-family="Helvetica,sans-Serif" font-size="10.00" fill="#000000">src/engine/basics/Settings.cxx</text>
</g>
<!-- Node1 -->
<g id="node2" class="node">
<title>Node1</title>
<g id="a_node2"><a xlink:href="Settings_8hxx.html" target="_top" xlink:title="Settings.hxx">
<polygon fill="none" stroke="#000000" points="835,-224.5 835,-243.5 912,-243.5 912,-224.5 835,-224.5"/>
<text text-anchor="middle" x="873.5" y="-231.5" font-family="Helvetica,sans-Serif" font-size="10.00" fill="#000000">Settings.hxx</text>
</a>
</g>
</g>
<!-- Node0&#45;&gt;Node1 -->
<g id="edge1" class="edge">
<title>Node0&#45;&gt;Node1</title>
<path fill="none" stroke="#191970" d="M1052.7687,-392.3228C1031.119,-374.3992 983.5306,-334.6984 944.5,-300 925.9949,-283.5489 905.3093,-264.2079 891.0616,-250.7323"/>
<polygon fill="#191970" stroke="#191970" points="893.1457,-247.885 883.4818,-243.542 888.3281,-252.9635 893.1457,-247.885"/>
</g>
<!-- Node10 -->
<g id="node11" class="node">
<title>Node10</title>
<g id="a_node11"><a xlink:href="LOG_8hxx.html" target="_top" xlink:title="LOG.hxx">
<polygon fill="none" stroke="#000000" points="467.5,-224.5 467.5,-243.5 525.5,-243.5 525.5,-224.5 467.5,-224.5"/>
<text text-anchor="middle" x="496.5" y="-231.5" font-family="Helvetica,sans-Serif" font-size="10.00" fill="#000000">LOG.hxx</text>
</a>
</g>
</g>
<!-- Node0&#45;&gt;Node10 -->
<g id="edge10" class="edge">
<title>Node0&#45;&gt;Node10</title>
<path fill="none" stroke="#191970" d="M1032.3344,-392.4862C934.575,-363.5715 641.1977,-276.7979 535.2226,-245.4532"/>
<polygon fill="#191970" stroke="#191970" points="536.1469,-242.0767 525.5648,-242.5966 534.1614,-248.7893 536.1469,-242.0767"/>
</g>
<!-- Node11 -->
<g id="node12" class="node">
<title>Node11</title>
<g id="a_node12"><a xlink:href="Exception_8hxx.html" target="_top" xlink:title="Exception.hxx">
<polygon fill="none" stroke="#000000" points="30.5,-168.5 30.5,-187.5 116.5,-187.5 116.5,-168.5 30.5,-168.5"/>
<text text-anchor="middle" x="73.5" y="-175.5" font-family="Helvetica,sans-Serif" font-size="10.00" fill="#000000">Exception.hxx</text>
</a>
</g>
</g>
<!-- Node0&#45;&gt;Node11 -->
<g id="edge25" class="edge">
<title>Node0&#45;&gt;Node11</title>
<path fill="none" stroke="#191970" d="M1018.5253,-392.4306C974.7655,-383.2698 907.0861,-368.9654 848.5,-356 574.8186,-295.4328 247.7474,-218.9687 124.1387,-189.9247"/>
<polygon fill="#191970" stroke="#191970" points="124.7375,-186.4702 114.202,-187.5891 123.1358,-193.2845 124.7375,-186.4702"/>
</g>
<!-- Node22 -->
<g id="node23" class="node">
<title>Node22</title>
<g id="a_node23"><a xlink:href="Constants_8hxx.html" target="_top" xlink:title="Constants.hxx">
<polygon fill="none" stroke="#000000" points="1021.5,-336.5 1021.5,-355.5 1107.5,-355.5 1107.5,-336.5 1021.5,-336.5"/>
<text text-anchor="middle" x="1064.5" y="-343.5" font-family="Helvetica,sans-Serif" font-size="10.00" fill="#000000">Constants.hxx</text>
</a>
</g>
</g>
<!-- Node0&#45;&gt;Node22 -->
<g id="edge26" class="edge">
<title>Node0&#45;&gt;Node22</title>
<path fill="none" stroke="#191970" d="M1064.5,-392.2455C1064.5,-384.9382 1064.5,-374.6944 1064.5,-365.7046"/>
<polygon fill="#191970" stroke="#191970" points="1068.0001,-365.6426 1064.5,-355.6427 1061.0001,-365.6427 1068.0001,-365.6426"/>
</g>
<!-- Node23 -->
<g id="node24" class="node">
<title>Node23</title>
<g id="a_node24"><a xlink:href="JsonSerialization_8hxx.html" target="_top" xlink:title="JsonSerialization.hxx">
<polygon fill="none" stroke="#000000" points="1136,-336.5 1136,-355.5 1255,-355.5 1255,-336.5 1136,-336.5"/>
<text text-anchor="middle" x="1195.5" y="-343.5" font-family="Helvetica,sans-Serif" font-size="10.00" fill="#000000">JsonSerialization.hxx</text>
</a>
</g>
</g>
<!-- Node0&#45;&gt;Node23 -->
<g id="edge27" class="edge">
<title>Node0&#45;&gt;Node23</title>
<path fill="none" stroke="#191970" d="M1087.0197,-392.3733C1108.2372,-383.3032 1140.2276,-369.6279 1163.9769,-359.4755"/>
<polygon fill="#191970" stroke="#191970" points="1165.4548,-362.6502 1173.2742,-355.5011 1162.7033,-356.2136 1165.4548,-362.6502"/>
</g>
<!-- Node39 -->
<g id="node40" class="node">
<title>Node39</title>
<g id="a_node40"><a xlink:href="Filesystem_8hxx.html" target="_top" xlink:title="Filesystem.hxx">
<polygon fill="none" stroke="#000000" points="1900.5,-112.5 1900.5,-131.5 1990.5,-131.5 1990.5,-112.5 1900.5,-112.5"/>
<text text-anchor="middle" x="1945.5" y="-119.5" font-family="Helvetica,sans-Serif" font-size="10.00" fill="#000000">Filesystem.hxx</text>
</a>
</g>
</g>
<!-- Node0&#45;&gt;Node39 -->
<g id="edge61" class="edge">
<title>Node0&#45;&gt;Node39</title>
<path fill="none" stroke="#191970" d="M1146.8708,-400.1265C1366.3239,-394.0469 1948.5,-370.3468 1948.5,-290 1948.5,-290 1948.5,-290 1948.5,-234 1948.5,-201.7 1947.2378,-164.1791 1946.3508,-141.8005"/>
<polygon fill="#191970" stroke="#191970" points="1949.8387,-141.4334 1945.9298,-131.5861 1942.8447,-141.7217 1949.8387,-141.4334"/>
</g>
<!-- Node41 -->
<g id="node42" class="node">
<title>Node41</title>
<polygon fill="none" stroke="#bfbfbf" points="1976.5,-336.5 1976.5,-355.5 2032.5,-355.5 2032.5,-336.5 1976.5,-336.5"/>
<text text-anchor="middle" x="2004.5" y="-343.5" font-family="Helvetica,sans-Serif" font-size="10.00" fill="#000000">iomanip</text>
</g>
<!-- Node0&#45;&gt;Node41 -->
<g id="edge65" class="edge">
<title>Node0&#45;&gt;Node41</title>
<path fill="none" stroke="#191970" d="M1146.6791,-399.7114C1337.5451,-394.0845 1806.429,-378.3858 1962.5,-356 1963.7521,-355.8204 1965.0215,-355.6211 1966.3007,-355.4053"/>
<polygon fill="#191970" stroke="#191970" points="1967.0204,-358.831 1976.1685,-353.4867 1965.6843,-351.9597 1967.0204,-358.831"/>
</g>
<!-- Node2 -->
<g id="node3" class="node">
<title>Node2</title>
<polygon fill="none" stroke="#bfbfbf" points="1344.5,-56.5 1344.5,-75.5 1388.5,-75.5 1388.5,-56.5 1344.5,-56.5"/>
<text text-anchor="middle" x="1366.5" y="-63.5" font-family="Helvetica,sans-Serif" font-size="10.00" fill="#000000">string</text>
</g>
<!-- Node1&#45;&gt;Node2 -->
<g id="edge2" class="edge">
<title>Node1&#45;&gt;Node2</title>
<path fill="none" stroke="#191970" d="M859.384,-224.3801C842.3228,-211.5285 817.4296,-188.048 830.5,-168 847.3452,-142.1621 927.7217,-120.0381 957.5,-112 1028.628,-92.8003 1250.5468,-74.6847 1334.1772,-68.3644"/>
<polygon fill="#191970" stroke="#191970" points="1334.6425,-71.8394 1344.3531,-67.6022 1334.1195,-64.859 1334.6425,-71.8394"/>
</g>
<!-- Node3 -->
<g id="node4" class="node">
<title>Node3</title>
<g id="a_node4"><a xlink:href="Singleton_8hxx.html" target="_top" xlink:title="../../util/Singleton.hxx">
<polygon fill="none" stroke="#000000" points="1184.5,-112.5 1184.5,-131.5 1304.5,-131.5 1304.5,-112.5 1184.5,-112.5"/>
<text text-anchor="middle" x="1244.5" y="-119.5" font-family="Helvetica,sans-Serif" font-size="10.00" fill="#000000">../../util/Singleton.hxx</text>
</a>
</g>
</g>
<!-- Node1&#45;&gt;Node3 -->
<g id="edge3" class="edge">
<title>Node1&#45;&gt;Node3</title>
<path fill="none" stroke="#191970" d="M912.1542,-231.9347C986.1202,-227.4155 1144.5141,-214.8358 1191.5,-188 1210.7609,-176.9992 1225.7336,-156.0271 1234.7792,-140.666"/>
<polygon fill="#191970" stroke="#191970" points="1238.0513,-141.9836 1239.853,-131.5431 1231.9337,-138.5813 1238.0513,-141.9836"/>
</g>
<!-- Node4 -->
<g id="node5" class="node">
<title>Node4</title>
<g id="a_node5"><a xlink:href="Meta_8hxx.html" target="_top" xlink:title="../../util/Meta.hxx">
<polygon fill="none" stroke="#000000" points="646.5,-168.5 646.5,-187.5 744.5,-187.5 744.5,-168.5 646.5,-168.5"/>
<text text-anchor="middle" x="695.5" y="-175.5" font-family="Helvetica,sans-Serif" font-size="10.00" fill="#000000">../../util/Meta.hxx</text>
</a>
</g>
</g>
<!-- Node1&#45;&gt;Node4 -->
<g id="edge4" class="edge">
<title>Node1&#45;&gt;Node4</title>
<path fill="none" stroke="#191970" d="M842.9007,-224.3733C813.1739,-215.021 767.8841,-200.7725 735.3544,-190.5385"/>
<polygon fill="#191970" stroke="#191970" points="736.2895,-187.1636 725.7,-187.5011 734.1887,-193.8409 736.2895,-187.1636"/>
</g>
<!-- Node9 -->
<g id="node10" class="node">
<title>Node9</title>
<polygon fill="none" stroke="#bfbfbf" points="839,-168.5 839,-187.5 892,-187.5 892,-168.5 839,-168.5"/>
<text text-anchor="middle" x="865.5" y="-175.5" font-family="Helvetica,sans-Serif" font-size="10.00" fill="#000000">cstddef</text>
</g>
<!-- Node1&#45;&gt;Node9 -->
<g id="edge9" class="edge">
<title>Node1&#45;&gt;Node9</title>
<path fill="none" stroke="#191970" d="M872.1065,-224.2455C871.0626,-216.9382 869.5992,-206.6944 868.3149,-197.7046"/>
<polygon fill="#191970" stroke="#191970" points="871.7566,-197.0472 866.8775,-187.6427 864.827,-198.0372 871.7566,-197.0472"/>
</g>
<!-- Node5 -->
<g id="node6" class="node">
<title>Node5</title>
<polygon fill="none" stroke="#bfbfbf" points="596.5,-112.5 596.5,-131.5 656.5,-131.5 656.5,-112.5 596.5,-112.5"/>
<text text-anchor="middle" x="626.5" y="-119.5" font-family="Helvetica,sans-Serif" font-size="10.00" fill="#000000">iostream</text>
</g>
<!-- Node4&#45;&gt;Node5 -->
<g id="edge5" class="edge">
<title>Node4&#45;&gt;Node5</title>
<path fill="none" stroke="#191970" d="M683.4811,-168.2455C673.2902,-159.9746 658.4638,-147.9416 646.4893,-138.2232"/>
<polygon fill="#191970" stroke="#191970" points="648.3514,-135.2268 638.3812,-131.6427 643.9402,-140.662 648.3514,-135.2268"/>
</g>
<!-- Node6 -->
<g id="node7" class="node">
<title>Node6</title>
<polygon fill="none" stroke="#bfbfbf" points="803,-112.5 803,-131.5 872,-131.5 872,-112.5 803,-112.5"/>
<text text-anchor="middle" x="837.5" y="-119.5" font-family="Helvetica,sans-Serif" font-size="10.00" fill="#000000">type_traits</text>
</g>
<!-- Node4&#45;&gt;Node6 -->
<g id="edge6" class="edge">
<title>Node4&#45;&gt;Node6</title>
<path fill="none" stroke="#191970" d="M719.9107,-168.3733C743.1142,-159.2226 778.2038,-145.3844 804.0142,-135.2057"/>
<polygon fill="#191970" stroke="#191970" points="805.3892,-138.4258 813.4079,-131.5011 802.8211,-131.9139 805.3892,-138.4258"/>
</g>
<!-- Node7 -->
<g id="node8" class="node">
<title>Node7</title>
<polygon fill="none" stroke="#bfbfbf" points="675,-112.5 675,-131.5 726,-131.5 726,-112.5 675,-112.5"/>
<text text-anchor="middle" x="700.5" y="-119.5" font-family="Helvetica,sans-Serif" font-size="10.00" fill="#000000">variant</text>
</g>
<!-- Node4&#45;&gt;Node7 -->
<g id="edge7" class="edge">
<title>Node4&#45;&gt;Node7</title>
<path fill="none" stroke="#191970" d="M696.3709,-168.2455C697.0234,-160.9382 697.938,-150.6944 698.7407,-141.7046"/>
<polygon fill="#191970" stroke="#191970" points="702.2358,-141.9143 699.639,-131.6427 695.2635,-141.2918 702.2358,-141.9143"/>
</g>
<!-- Node8 -->
<g id="node9" class="node">
<title>Node8</title>
<polygon fill="none" stroke="#bfbfbf" points="744,-112.5 744,-131.5 785,-131.5 785,-112.5 744,-112.5"/>
<text text-anchor="middle" x="764.5" y="-119.5" font-family="Helvetica,sans-Serif" font-size="10.00" fill="#000000">tuple</text>
</g>
<!-- Node4&#45;&gt;Node8 -->
<g id="edge8" class="edge">
<title>Node4&#45;&gt;Node8</title>
<path fill="none" stroke="#191970" d="M707.5189,-168.2455C717.7098,-159.9746 732.5362,-147.9416 744.5107,-138.2232"/>
<polygon fill="#191970" stroke="#191970" points="747.0598,-140.662 752.6188,-131.6427 742.6486,-135.2268 747.0598,-140.662"/>
</g>
<!-- Node10&#45;&gt;Node2 -->
<g id="edge11" class="edge">
<title>Node10&#45;&gt;Node2</title>
<path fill="none" stroke="#191970" d="M525.6652,-229.7584C550.0272,-224.5089 583.3015,-212.9748 599.5,-188 618.1082,-159.31 564.0431,-136.8829 587.5,-112 600.5328,-98.175 1189.1916,-73.2455 1334.388,-67.2989"/>
<polygon fill="#191970" stroke="#191970" points="1334.5907,-70.7936 1344.4395,-66.8886 1334.3051,-63.7994 1334.5907,-70.7936"/>
</g>
<!-- Node10&#45;&gt;Node4 -->
<g id="edge23" class="edge">
<title>Node10&#45;&gt;Node4</title>
<path fill="none" stroke="#191970" d="M525.8631,-225.737C559.1108,-216.3809 613.6161,-201.0427 651.8494,-190.2836"/>
<polygon fill="#191970" stroke="#191970" points="653.0045,-193.5946 661.6825,-187.5165 651.1083,-186.8563 653.0045,-193.5946"/>
</g>
<!-- Node10&#45;&gt;Node5 -->
<g id="edge15" class="edge">
<title>Node10&#45;&gt;Node5</title>
<path fill="none" stroke="#191970" d="M467.3138,-232.1302C389.8125,-226.8701 183.3891,-210.8254 163.5,-188 157.6605,-181.2983 157.5334,-174.5888 163.5,-168 191.6392,-136.9265 478.5839,-126.0005 586.1067,-122.9792"/>
<polygon fill="#191970" stroke="#191970" points="586.3341,-126.4744 596.2351,-122.7033 586.1434,-119.477 586.3341,-126.4744"/>
</g>
<!-- Node10&#45;&gt;Node11 -->
<g id="edge12" class="edge">
<title>Node10&#45;&gt;Node11</title>
<path fill="none" stroke="#191970" d="M467.4919,-230.8398C405.5016,-223.9799 255.5741,-206.8199 130.5,-188 129.2426,-187.8108 127.9702,-187.6159 126.6873,-187.4162"/>
<polygon fill="#191970" stroke="#191970" points="127.1534,-183.9462 116.7239,-185.8106 126.0397,-190.8571 127.1534,-183.9462"/>
</g>
<!-- Node14 -->
<g id="node15" class="node">
<title>Node14</title>
<polygon fill="none" stroke="#bfbfbf" points="264.5,-168.5 264.5,-187.5 314.5,-187.5 314.5,-168.5 264.5,-168.5"/>
<text text-anchor="middle" x="289.5" y="-175.5" font-family="Helvetica,sans-Serif" font-size="10.00" fill="#000000">chrono</text>
</g>
<!-- Node10&#45;&gt;Node14 -->
<g id="edge16" class="edge">
<title>Node10&#45;&gt;Node14</title>
<path fill="none" stroke="#191970" d="M467.3575,-226.4996C434.8046,-218.0672 380.3071,-203.7892 324.4363,-188.2153"/>
<polygon fill="#191970" stroke="#191970" points="325.3031,-184.8235 314.7299,-185.5003 323.4174,-191.5648 325.3031,-184.8235"/>
</g>
<!-- Node15 -->
<g id="node16" class="node">
<title>Node15</title>
<polygon fill="none" stroke="#bfbfbf" points="332.5,-168.5 332.5,-187.5 376.5,-187.5 376.5,-168.5 332.5,-168.5"/>
<text text-anchor="middle" x="354.5" y="-175.5" font-family="Helvetica,sans-Serif" font-size="10.00" fill="#000000">ctime</text>
</g>
<!-- Node10&#45;&gt;Node15 -->
<g id="edge17" class="edge">
<title>Node10&#45;&gt;Node15</title>
<path fill="none" stroke="#191970" d="M472.0893,-224.3733C448.3232,-215.0007 412.0879,-200.7107 386.1253,-190.472"/>
<polygon fill="#191970" stroke="#191970" points="387.3121,-187.1777 376.7253,-186.7649 384.744,-193.6896 387.3121,-187.1777"/>
</g>
<!-- Node16 -->
<g id="node17" class="node">
<title>Node16</title>
<polygon fill="none" stroke="#bfbfbf" points="395,-168.5 395,-187.5 450,-187.5 450,-168.5 395,-168.5"/>
<text text-anchor="middle" x="422.5" y="-175.5" font-family="Helvetica,sans-Serif" font-size="10.00" fill="#000000">fstream</text>
</g>
<!-- Node10&#45;&gt;Node16 -->
<g id="edge18" class="edge">
<title>Node10&#45;&gt;Node16</title>
<path fill="none" stroke="#191970" d="M483.6102,-224.2455C472.5746,-215.8943 456.4708,-203.7076 443.5647,-193.9408"/>
<polygon fill="#191970" stroke="#191970" points="445.3283,-190.8862 435.2421,-187.6427 441.1041,-196.4681 445.3283,-190.8862"/>
</g>
<!-- Node17 -->
<g id="node18" class="node">
<title>Node17</title>
<polygon fill="none" stroke="#bfbfbf" points="468.5,-168.5 468.5,-187.5 524.5,-187.5 524.5,-168.5 468.5,-168.5"/>
<text text-anchor="middle" x="496.5" y="-175.5" font-family="Helvetica,sans-Serif" font-size="10.00" fill="#000000">sstream</text>
</g>
<!-- Node10&#45;&gt;Node17 -->
<g id="edge19" class="edge">
<title>Node10&#45;&gt;Node17</title>
<path fill="none" stroke="#191970" d="M496.5,-224.2455C496.5,-216.9382 496.5,-206.6944 496.5,-197.7046"/>
<polygon fill="#191970" stroke="#191970" points="500.0001,-197.6426 496.5,-187.6427 493.0001,-197.6427 500.0001,-197.6426"/>
</g>
<!-- Node18 -->
<g id="node19" class="node">
<title>Node18</title>
<polygon fill="none" stroke="#bfbfbf" points="1122.5,-112.5 1122.5,-131.5 1166.5,-131.5 1166.5,-112.5 1122.5,-112.5"/>
<text text-anchor="middle" x="1144.5" y="-119.5" font-family="Helvetica,sans-Serif" font-size="10.00" fill="#000000">SDL.h</text>
</g>
<!-- Node10&#45;&gt;Node18 -->
<g id="edge20" class="edge">
<title>Node10&#45;&gt;Node18</title>
<path fill="none" stroke="#191970" d="M525.5501,-229.5485C573.3216,-222.061 671.3652,-205.9895 753.5,-188 788.039,-180.4351 795.8456,-175.0173 830.5,-168 932.4678,-147.352 1054.8501,-132.137 1112.0521,-125.5742"/>
<polygon fill="#191970" stroke="#191970" points="1112.7353,-129.0192 1122.2769,-124.414 1111.946,-122.0639 1112.7353,-129.0192"/>
</g>
<!-- Node19 -->
<g id="node20" class="node">
<title>Node19</title>
<polygon fill="none" stroke="#bfbfbf" points="910.5,-168.5 910.5,-187.5 974.5,-187.5 974.5,-168.5 910.5,-168.5"/>
<text text-anchor="middle" x="942.5" y="-175.5" font-family="Helvetica,sans-Serif" font-size="10.00" fill="#000000">algorithm</text>
</g>
<!-- Node10&#45;&gt;Node19 -->
<g id="edge21" class="edge">
<title>Node10&#45;&gt;Node19</title>
<path fill="none" stroke="#191970" d="M525.6562,-231.9574C591.0012,-227.1097 754.2589,-213.4958 900.3134,-188.0217"/>
<polygon fill="#191970" stroke="#191970" points="901.1145,-191.4344 910.3524,-186.2469 899.8958,-184.5413 901.1145,-191.4344"/>
</g>
<!-- Node20 -->
<g id="node21" class="node">
<title>Node20</title>
<polygon fill="none" stroke="#bfbfbf" points="542.5,-168.5 542.5,-187.5 590.5,-187.5 590.5,-168.5 542.5,-168.5"/>
<text text-anchor="middle" x="566.5" y="-175.5" font-family="Helvetica,sans-Serif" font-size="10.00" fill="#000000">mutex</text>
</g>
<!-- Node10&#45;&gt;Node20 -->
<g id="edge22" class="edge">
<title>Node10&#45;&gt;Node20</title>
<path fill="none" stroke="#191970" d="M508.6931,-224.2455C519.1321,-215.8943 534.3655,-203.7076 546.574,-193.9408"/>
<polygon fill="#191970" stroke="#191970" points="548.8244,-196.6227 554.4467,-187.6427 544.4515,-191.1566 548.8244,-196.6227"/>
</g>
<!-- Node21 -->
<g id="node22" class="node">
<title>Node21</title>
<g id="a_node22"><a xlink:href="LOG_8inl_8hxx.html" target="_top" xlink:title="LOG.inl.hxx">
<polygon fill="none" stroke="#000000" points="173,-168.5 173,-187.5 246,-187.5 246,-168.5 173,-168.5"/>
<text text-anchor="middle" x="209.5" y="-175.5" font-family="Helvetica,sans-Serif" font-size="10.00" fill="#000000">LOG.inl.hxx</text>
</a>
</g>
</g>
<!-- Node10&#45;&gt;Node21 -->
<g id="edge24" class="edge">
<title>Node10&#45;&gt;Node21</title>
<path fill="none" stroke="#191970" d="M467.145,-228.6461C423.4903,-220.6301 338.6338,-204.8419 256.1809,-188.0994"/>
<polygon fill="#191970" stroke="#191970" points="256.6381,-184.6207 246.1405,-186.0533 255.2403,-191.4797 256.6381,-184.6207"/>
</g>
<!-- Node12 -->
<g id="node13" class="node">
<title>Node12</title>
<polygon fill="none" stroke="#bfbfbf" points="0,-112.5 0,-131.5 65,-131.5 65,-112.5 0,-112.5"/>
<text text-anchor="middle" x="32.5" y="-119.5" font-family="Helvetica,sans-Serif" font-size="10.00" fill="#000000">stdexcept</text>
</g>
<!-- Node11&#45;&gt;Node12 -->
<g id="edge13" class="edge">
<title>Node11&#45;&gt;Node12</title>
<path fill="none" stroke="#191970" d="M66.3583,-168.2455C60.6556,-160.4564 52.51,-149.3308 45.6375,-139.9439"/>
<polygon fill="#191970" stroke="#191970" points="48.2913,-137.6437 39.5598,-131.6427 42.6432,-141.7789 48.2913,-137.6437"/>
</g>
<!-- Node13 -->
<g id="node14" class="node">
<title>Node13</title>
<polygon fill="none" stroke="#bfbfbf" points="83,-112.5 83,-131.5 148,-131.5 148,-112.5 83,-112.5"/>
<text text-anchor="middle" x="115.5" y="-119.5" font-family="Helvetica,sans-Serif" font-size="10.00" fill="#000000">exception</text>
</g>
<!-- Node11&#45;&gt;Node13 -->
<g id="edge14" class="edge">
<title>Node11&#45;&gt;Node13</title>
<path fill="none" stroke="#191970" d="M80.8158,-168.2455C86.7179,-160.3761 95.1742,-149.101 102.2594,-139.6542"/>
<polygon fill="#191970" stroke="#191970" points="105.068,-141.7427 108.268,-131.6427 99.4679,-137.5427 105.068,-141.7427"/>
</g>
<!-- Node23&#45;&gt;Node1 -->
<g id="edge60" class="edge">
<title>Node23&#45;&gt;Node1</title>
<path fill="none" stroke="#191970" d="M1135.66,-337.6246C1093.5478,-330.5549 1036.3833,-318.5635 988.5,-300 954.1673,-286.6898 917.84,-264.2446 895.4155,-249.2772"/>
<polygon fill="#191970" stroke="#191970" points="897.2215,-246.2731 886.98,-243.5599 893.2942,-252.0676 897.2215,-246.2731"/>
</g>
<!-- Node24 -->
<g id="node25" class="node">
<title>Node24</title>
<polygon fill="none" stroke="#bfbfbf" points="1710.5,-112.5 1710.5,-131.5 1768.5,-131.5 1768.5,-112.5 1710.5,-112.5"/>
<text text-anchor="middle" x="1739.5" y="-119.5" font-family="Helvetica,sans-Serif" font-size="10.00" fill="#000000">json.hxx</text>
</g>
<!-- Node23&#45;&gt;Node24 -->
<g id="edge28" class="edge">
<title>Node23&#45;&gt;Node24</title>
<path fill="none" stroke="#191970" d="M1252.6149,-336.4956C1292.5292,-328.9332 1346.6692,-316.8169 1392.5,-300 1519.8838,-253.2586 1660.4794,-170.6146 1715.5363,-136.9245"/>
<polygon fill="#191970" stroke="#191970" points="1717.5309,-139.8067 1724.2137,-131.5854 1713.8626,-133.8449 1717.5309,-139.8067"/>
</g>
<!-- Node25 -->
<g id="node26" class="node">
<title>Node25</title>
<g id="a_node26"><a xlink:href="point_8hxx.html" target="_top" xlink:title="point.hxx">
<polygon fill="none" stroke="#000000" points="966.5,-112.5 966.5,-131.5 1028.5,-131.5 1028.5,-112.5 966.5,-112.5"/>
<text text-anchor="middle" x="997.5" y="-119.5" font-family="Helvetica,sans-Serif" font-size="10.00" fill="#000000">point.hxx</text>
</a>
</g>
</g>
<!-- Node23&#45;&gt;Node25 -->
<g id="edge29" class="edge">
<title>Node23&#45;&gt;Node25</title>
<path fill="none" stroke="#191970" d="M1186.9922,-336.375C1156.4647,-301.8389 1052.1669,-183.8453 1012.7514,-139.2541"/>
<polygon fill="#191970" stroke="#191970" points="1015.2214,-136.7637 1005.9761,-131.5891 1009.9766,-141.3997 1015.2214,-136.7637"/>
</g>
<!-- Node26 -->
<g id="node27" class="node">
<title>Node26</title>
<g id="a_node27"><a xlink:href="MapNode_8hxx.html" target="_top" xlink:title="GameObjects/MapNode.hxx">
<polygon fill="none" stroke="#000000" points="1146.5,-224.5 1146.5,-243.5 1298.5,-243.5 1298.5,-224.5 1146.5,-224.5"/>
<text text-anchor="middle" x="1222.5" y="-231.5" font-family="Helvetica,sans-Serif" font-size="10.00" fill="#000000">GameObjects/MapNode.hxx</text>
</a>
</g>
</g>
<!-- Node23&#45;&gt;Node26 -->
<g id="edge30" class="edge">
<title>Node23&#45;&gt;Node26</title>
<path fill="none" stroke="#191970" d="M1197.802,-336.4509C1202.2256,-318.1013 1211.9915,-277.5908 1217.8306,-253.3693"/>
<polygon fill="#191970" stroke="#191970" points="1221.2627,-254.0667 1220.2038,-243.5249 1214.4576,-252.4261 1221.2627,-254.0667"/>
</g>
<!-- Node37 -->
<g id="node38" class="node">
<title>Node37</title>
<g id="a_node38"><a xlink:href="TerrainGenerator_8hxx.html" target="_top" xlink:title="TerrainGenerator.hxx">
<polygon fill="none" stroke="#000000" points="1264,-280.5 1264,-299.5 1383,-299.5 1383,-280.5 1264,-280.5"/>
<text text-anchor="middle" x="1323.5" y="-287.5" font-family="Helvetica,sans-Serif" font-size="10.00" fill="#000000">TerrainGenerator.hxx</text>
</a>
</g>
</g>
<!-- Node23&#45;&gt;Node37 -->
<g id="edge56" class="edge">
<title>Node23&#45;&gt;Node37</title>
<path fill="none" stroke="#191970" d="M1217.504,-336.3733C1238.1435,-327.3435 1269.2158,-313.7494 1292.3889,-303.6111"/>
<polygon fill="#191970" stroke="#191970" points="1294.0245,-306.7159 1301.7831,-299.5011 1291.2187,-300.3028 1294.0245,-306.7159"/>
</g>
<!-- Node26&#45;&gt;Node2 -->
<g id="edge33" class="edge">
<title>Node26&#45;&gt;Node2</title>
<path fill="none" stroke="#191970" d="M1286.4297,-224.4775C1429.0041,-202.9418 1761.7561,-150.901 1777.5,-132 1783.189,-125.1701 1783.4255,-118.6257 1777.5,-112 1752.3504,-83.8786 1491.4602,-70.9265 1398.8717,-67.1908"/>
<polygon fill="#191970" stroke="#191970" points="1398.8205,-63.6862 1388.6905,-66.79 1398.5451,-70.6808 1398.8205,-63.6862"/>
</g>
<!-- Node26&#45;&gt;Node18 -->
<g id="edge31" class="edge">
<title>Node26&#45;&gt;Node18</title>
<path fill="none" stroke="#191970" d="M1252.3696,-224.4879C1283.1219,-213.1005 1324.1143,-192.4696 1305.5,-168 1271.0456,-122.7077 1236.614,-146.4668 1176.6613,-131.9902"/>
<polygon fill="#191970" stroke="#191970" points="1177.3835,-128.5597 1166.8162,-129.322 1175.5525,-135.316 1177.3835,-128.5597"/>
</g>
<!-- Node26&#45;&gt;Node19 -->
<g id="edge34" class="edge">
<title>Node26&#45;&gt;Node19</title>
<path fill="none" stroke="#191970" d="M1174.6844,-224.4369C1121.3481,-213.7696 1035.8778,-196.6756 984.8612,-186.4722"/>
<polygon fill="#191970" stroke="#191970" points="985.3217,-182.9951 974.8294,-184.4659 983.9488,-189.8592 985.3217,-182.9951"/>
</g>
<!-- Node26&#45;&gt;Node25 -->
<g id="edge44" class="edge">
<title>Node26&#45;&gt;Node25</title>
<path fill="none" stroke="#191970" d="M1190.8551,-224.4324C1165.2989,-216.1961 1128.7412,-203.2483 1098.5,-188 1069.305,-173.2792 1038.1626,-151.9724 1018.3018,-137.5841"/>
<polygon fill="#191970" stroke="#191970" points="1020.1517,-134.6004 1010.018,-131.5086 1016.0118,-140.245 1020.1517,-134.6004"/>
</g>
<!-- Node27 -->
<g id="node28" class="node">
<title>Node27</title>
<polygon fill="none" stroke="#bfbfbf" points="1238.5,-168.5 1238.5,-187.5 1296.5,-187.5 1296.5,-168.5 1238.5,-168.5"/>
<text text-anchor="middle" x="1267.5" y="-175.5" font-family="Helvetica,sans-Serif" font-size="10.00" fill="#000000">memory</text>
</g>
<!-- Node26&#45;&gt;Node27 -->
<g id="edge32" class="edge">
<title>Node26&#45;&gt;Node27</title>
<path fill="none" stroke="#191970" d="M1230.3384,-224.2455C1236.662,-216.3761 1245.7224,-205.101 1253.3136,-195.6542"/>
<polygon fill="#191970" stroke="#191970" points="1256.2158,-197.6302 1259.7514,-187.6427 1250.7592,-193.2454 1256.2158,-197.6302"/>
</g>
<!-- Node28 -->
<g id="node29" class="node">
<title>Node28</title>
<polygon fill="none" stroke="#bfbfbf" points="1811,-56.5 1811,-75.5 1858,-75.5 1858,-56.5 1811,-56.5"/>
<text text-anchor="middle" x="1834.5" y="-63.5" font-family="Helvetica,sans-Serif" font-size="10.00" fill="#000000">vector</text>
</g>
<!-- Node26&#45;&gt;Node28 -->
<g id="edge35" class="edge">
<title>Node26&#45;&gt;Node28</title>
<path fill="none" stroke="#191970" d="M1298.723,-224.7869C1402.5723,-212.1925 1577.3351,-190.8305 1591.5,-188 1682.8577,-169.7443 1718.9231,-187.8372 1793.5,-132 1809.4676,-120.0447 1820.6685,-99.8792 1827.2817,-84.9776"/>
<polygon fill="#191970" stroke="#191970" points="1830.5444,-86.2464 1831.1293,-75.6677 1824.0751,-83.5727 1830.5444,-86.2464"/>
</g>
<!-- Node29 -->
<g id="node30" class="node">
<title>Node29</title>
<g id="a_node30"><a xlink:href="Sprite_8hxx.html" target="_top" xlink:title="../Sprite.hxx">
<polygon fill="none" stroke="#000000" points="1107,-168.5 1107,-187.5 1182,-187.5 1182,-168.5 1107,-168.5"/>
<text text-anchor="middle" x="1144.5" y="-175.5" font-family="Helvetica,sans-Serif" font-size="10.00" fill="#000000">../Sprite.hxx</text>
</a>
</g>
</g>
<!-- Node26&#45;&gt;Node29 -->
<g id="edge36" class="edge">
<title>Node26&#45;&gt;Node29</title>
<path fill="none" stroke="#191970" d="M1208.9134,-224.2455C1197.1695,-215.814 1179.9801,-203.4729 1166.3118,-193.6598"/>
<polygon fill="#191970" stroke="#191970" points="1168.0954,-190.6316 1157.9309,-187.6427 1164.0129,-196.3179 1168.0954,-190.6316"/>
</g>
<!-- Node30 -->
<g id="node31" class="node">
<title>Node30</title>
<g id="a_node31"><a xlink:href="enums_8hxx.html" target="_top" xlink:title="common/enums.hxx">
<polygon fill="none" stroke="#000000" points="998.5,-56.5 998.5,-75.5 1114.5,-75.5 1114.5,-56.5 998.5,-56.5"/>
<text text-anchor="middle" x="1056.5" y="-63.5" font-family="Helvetica,sans-Serif" font-size="10.00" fill="#000000">common/enums.hxx</text>
</a>
</g>
</g>
<!-- Node26&#45;&gt;Node30 -->
<g id="edge43" class="edge">
<title>Node26&#45;&gt;Node30</title>
<path fill="none" stroke="#191970" d="M1180.5145,-224.4761C1111.9034,-207.9055 981.0058,-171.7206 957.5,-132 942.5794,-106.7869 974.5778,-89.2531 1006.087,-78.6284"/>
<polygon fill="#191970" stroke="#191970" points="1007.3216,-81.9088 1015.7975,-75.5521 1005.2074,-75.2357 1007.3216,-81.9088"/>
</g>
<!-- Node33 -->
<g id="node34" class="node">
<title>Node33</title>
<g id="a_node34"><a xlink:href="TileManager_8hxx.html" target="_top" xlink:title="../TileManager.hxx">
<polygon fill="none" stroke="#000000" points="1352.5,-168.5 1352.5,-187.5 1458.5,-187.5 1458.5,-168.5 1352.5,-168.5"/>
<text text-anchor="middle" x="1405.5" y="-175.5" font-family="Helvetica,sans-Serif" font-size="10.00" fill="#000000">../TileManager.hxx</text>
</a>
</g>
</g>
<!-- Node26&#45;&gt;Node33 -->
<g id="edge45" class="edge">
<title>Node26&#45;&gt;Node33</title>
<path fill="none" stroke="#191970" d="M1253.9588,-224.3733C1284.5207,-215.021 1331.0826,-200.7725 1364.5261,-190.5385"/>
<polygon fill="#191970" stroke="#191970" points="1365.9136,-193.7742 1374.4517,-187.5011 1363.8652,-187.0806 1365.9136,-193.7742"/>
</g>
<!-- Node29&#45;&gt;Node18 -->
<g id="edge37" class="edge">
<title>Node29&#45;&gt;Node18</title>
<path fill="none" stroke="#191970" d="M1144.5,-168.2455C1144.5,-160.9382 1144.5,-150.6944 1144.5,-141.7046"/>
<polygon fill="#191970" stroke="#191970" points="1148.0001,-141.6426 1144.5,-131.6427 1141.0001,-141.6427 1148.0001,-141.6426"/>
</g>
<!-- Node29&#45;&gt;Node25 -->
<g id="edge39" class="edge">
<title>Node29&#45;&gt;Node25</title>
<path fill="none" stroke="#191970" d="M1119.2298,-168.3733C1095.1034,-159.1822 1058.5638,-145.2624 1031.8123,-135.0713"/>
<polygon fill="#191970" stroke="#191970" points="1033.0313,-131.7904 1022.4404,-131.5011 1030.5393,-138.3318 1033.0313,-131.7904"/>
</g>
<!-- Node29&#45;&gt;Node28 -->
<g id="edge38" class="edge">
<title>Node29&#45;&gt;Node28</title>
<path fill="none" stroke="#191970" d="M1133.8033,-168.3969C1119.5686,-154.4962 1097.9087,-128.6177 1113.5,-112 1137.3119,-86.6205 1661.8735,-70.6696 1800.9235,-66.8771"/>
<polygon fill="#191970" stroke="#191970" points="1801.0885,-70.3741 1810.9905,-66.6055 1800.8997,-63.3766 1801.0885,-70.3741"/>
</g>
<!-- Node29&#45;&gt;Node30 -->
<g id="edge40" class="edge">
<title>Node29&#45;&gt;Node30</title>
<path fill="none" stroke="#191970" d="M1125.5937,-168.4759C1111.42,-160.4737 1092.4787,-147.8168 1080.5,-132 1070.1612,-118.3486 1063.9428,-99.81 1060.4356,-85.8561"/>
<polygon fill="#191970" stroke="#191970" points="1063.789,-84.8158 1058.1772,-75.8292 1056.9601,-86.3539 1063.789,-84.8158"/>
</g>
<!-- Node31 -->
<g id="node32" class="node">
<title>Node31</title>
<polygon fill="none" stroke="#bfbfbf" points="980.5,-.5 980.5,-19.5 1036.5,-19.5 1036.5,-.5 980.5,-.5"/>
<text text-anchor="middle" x="1008.5" y="-7.5" font-family="Helvetica,sans-Serif" font-size="10.00" fill="#000000">stddef.h</text>
</g>
<!-- Node30&#45;&gt;Node31 -->
<g id="edge41" class="edge">
<title>Node30&#45;&gt;Node31</title>
<path fill="none" stroke="#191970" d="M1048.139,-56.2455C1041.325,-48.2958 1031.5319,-36.8706 1023.3848,-27.3656"/>
<polygon fill="#191970" stroke="#191970" points="1025.9305,-24.9575 1016.7651,-19.6427 1020.6157,-29.513 1025.9305,-24.9575"/>
</g>
<!-- Node32 -->
<g id="node33" class="node">
<title>Node32</title>
<polygon fill="none" stroke="#bfbfbf" points="1054.5,-.5 1054.5,-19.5 1154.5,-19.5 1154.5,-.5 1054.5,-.5"/>
<text text-anchor="middle" x="1104.5" y="-7.5" font-family="Helvetica,sans-Serif" font-size="10.00" fill="#000000">betterEnums.hxx</text>
</g>
<!-- Node30&#45;&gt;Node32 -->
<g id="edge42" class="edge">
<title>Node30&#45;&gt;Node32</title>
<path fill="none" stroke="#191970" d="M1064.861,-56.2455C1071.675,-48.2958 1081.4681,-36.8706 1089.6152,-27.3656"/>
<polygon fill="#191970" stroke="#191970" points="1092.3843,-29.513 1096.2349,-19.6427 1087.0695,-24.9575 1092.3843,-29.513"/>
</g>
<!-- Node33&#45;&gt;Node2 -->
<g id="edge48" class="edge">
<title>Node33&#45;&gt;Node2</title>
<path fill="none" stroke="#191970" d="M1388.1242,-168.4558C1375.6411,-160.5215 1359.7818,-147.9621 1352.5,-132 1345.6817,-117.0539 1350.5362,-98.675 1356.32,-85.1105"/>
<polygon fill="#191970" stroke="#191970" points="1359.6081,-86.3463 1360.7462,-75.8127 1353.2877,-83.3374 1359.6081,-86.3463"/>
</g>
<!-- Node33&#45;&gt;Node3 -->
<g id="edge54" class="edge">
<title>Node33&#45;&gt;Node3</title>
<path fill="none" stroke="#191970" d="M1377.8231,-168.3733C1351.1672,-159.1016 1310.6762,-145.0178 1281.3116,-134.804"/>
<polygon fill="#191970" stroke="#191970" points="1282.4105,-131.4807 1271.8157,-131.5011 1280.1109,-138.0921 1282.4105,-131.4807"/>
</g>
<!-- Node33&#45;&gt;Node18 -->
<g id="edge46" class="edge">
<title>Node33&#45;&gt;Node18</title>
<path fill="none" stroke="#191970" d="M1352.1219,-169.1149C1307.5407,-161.2904 1242.1661,-148.8823 1176.8215,-132.1322"/>
<polygon fill="#191970" stroke="#191970" points="1177.3201,-128.6455 1166.7612,-129.5183 1175.5597,-135.4206 1177.3201,-128.6455"/>
</g>
<!-- Node33&#45;&gt;Node24 -->
<g id="edge53" class="edge">
<title>Node33&#45;&gt;Node24</title>
<path fill="none" stroke="#191970" d="M1458.7332,-171.4108C1516.1275,-163.9303 1610.3319,-150.5657 1700.2973,-132.0933"/>
<polygon fill="#191970" stroke="#191970" points="1701.0339,-135.515 1710.1127,-130.0537 1699.6097,-128.6614 1701.0339,-135.515"/>
</g>
<!-- Node34 -->
<g id="node35" class="node">
<title>Node34</title>
<polygon fill="none" stroke="#bfbfbf" points="1456,-112.5 1456,-131.5 1549,-131.5 1549,-112.5 1456,-112.5"/>
<text text-anchor="middle" x="1502.5" y="-119.5" font-family="Helvetica,sans-Serif" font-size="10.00" fill="#000000">unordered_map</text>
</g>
<!-- Node33&#45;&gt;Node34 -->
<g id="edge47" class="edge">
<title>Node33&#45;&gt;Node34</title>
<path fill="none" stroke="#191970" d="M1422.3961,-168.2455C1437.418,-159.5731 1459.6043,-146.7645 1476.821,-136.825"/>
<polygon fill="#191970" stroke="#191970" points="1478.8871,-139.6737 1485.7975,-131.6427 1475.3872,-133.6114 1478.8871,-139.6737"/>
</g>
<!-- Node35 -->
<g id="node36" class="node">
<title>Node35</title>
<g id="a_node36"><a xlink:href="tileData_8hxx.html" target="_top" xlink:title="tileData.hxx">
<polygon fill="none" stroke="#000000" points="1361,-112.5 1361,-131.5 1438,-131.5 1438,-112.5 1361,-112.5"/>
<text text-anchor="middle" x="1399.5" y="-119.5" font-family="Helvetica,sans-Serif" font-size="10.00" fill="#000000">tileData.hxx</text>
</a>
</g>
</g>
<!-- Node33&#45;&gt;Node35 -->
<g id="edge49" class="edge">
<title>Node33&#45;&gt;Node35</title>
<path fill="none" stroke="#191970" d="M1404.4549,-168.2455C1403.672,-160.9382 1402.5744,-150.6944 1401.6112,-141.7046"/>
<polygon fill="#191970" stroke="#191970" points="1405.0786,-141.2129 1400.5331,-131.6427 1398.1185,-141.9587 1405.0786,-141.2129"/>
</g>
<!-- Node36 -->
<g id="node37" class="node">
<title>Node36</title>
<polygon fill="none" stroke="#bfbfbf" points="1567,-112.5 1567,-131.5 1692,-131.5 1692,-112.5 1567,-112.5"/>
<text text-anchor="middle" x="1629.5" y="-119.5" font-family="Helvetica,sans-Serif" font-size="10.00" fill="#000000">../common/enums.hxx</text>
</g>
<!-- Node33&#45;&gt;Node36 -->
<g id="edge55" class="edge">
<title>Node33&#45;&gt;Node36</title>
<path fill="none" stroke="#191970" d="M1443.7525,-168.4369C1481.8467,-158.9133 1540.4313,-144.2672 1581.5987,-133.9753"/>
<polygon fill="#191970" stroke="#191970" points="1582.5528,-137.3446 1591.4053,-131.5237 1580.855,-130.5536 1582.5528,-137.3446"/>
</g>
<!-- Node35&#45;&gt;Node2 -->
<g id="edge50" class="edge">
<title>Node35&#45;&gt;Node2</title>
<path fill="none" stroke="#191970" d="M1393.7518,-112.2455C1389.2565,-104.617 1382.8752,-93.7881 1377.4175,-84.5267"/>
<polygon fill="#191970" stroke="#191970" points="1380.2747,-82.4811 1372.1823,-75.6427 1374.2439,-86.035 1380.2747,-82.4811"/>
</g>
<!-- Node35&#45;&gt;Node28 -->
<g id="edge51" class="edge">
<title>Node35&#45;&gt;Node28</title>
<path fill="none" stroke="#191970" d="M1438.2186,-113.6317C1441.3527,-113.0465 1444.4756,-112.4938 1447.5,-112 1577.4397,-90.7835 1733.4405,-75.2433 1800.8073,-69.0085"/>
<polygon fill="#191970" stroke="#191970" points="1801.2022,-72.487 1810.8407,-68.0883 1800.5628,-65.5163 1801.2022,-72.487"/>
</g>
<!-- Node35&#45;&gt;Node30 -->
<g id="edge52" class="edge">
<title>Node35&#45;&gt;Node30</title>
<path fill="none" stroke="#191970" d="M1360.8203,-115.6849C1303.6265,-106.3472 1195.6529,-88.7188 1124.9031,-77.1679"/>
<polygon fill="#191970" stroke="#191970" points="1125.1785,-73.6666 1114.7452,-75.5094 1124.0505,-80.5751 1125.1785,-73.6666"/>
</g>
<!-- Node37&#45;&gt;Node26 -->
<g id="edge57" class="edge">
<title>Node37&#45;&gt;Node26</title>
<path fill="none" stroke="#191970" d="M1305.9071,-280.2455C1290.121,-271.4928 1266.7361,-258.527 1248.7413,-248.5496"/>
<polygon fill="#191970" stroke="#191970" points="1250.3341,-245.4308 1239.8913,-243.6427 1246.9397,-251.5528 1250.3341,-245.4308"/>
</g>
<!-- Node37&#45;&gt;Node28 -->
<g id="edge59" class="edge">
<title>Node37&#45;&gt;Node28</title>
<path fill="none" stroke="#191970" d="M1374.0311,-280.4566C1487.2444,-258.0673 1756.0532,-198.9703 1816.5,-132 1827.8025,-119.4777 1832.1042,-100.5346 1833.6942,-86.15"/>
<polygon fill="#191970" stroke="#191970" points="1837.2126,-86.0345 1834.47,-75.8008 1830.2322,-85.5112 1837.2126,-86.0345"/>
</g>
<!-- Node38 -->
<g id="node39" class="node">
<title>Node38</title>
<polygon fill="none" stroke="#bfbfbf" points="1316.5,-224.5 1316.5,-243.5 1354.5,-243.5 1354.5,-224.5 1316.5,-224.5"/>
<text text-anchor="middle" x="1335.5" y="-231.5" font-family="Helvetica,sans-Serif" font-size="10.00" fill="#000000">map</text>
</g>
<!-- Node37&#45;&gt;Node38 -->
<g id="edge58" class="edge">
<title>Node37&#45;&gt;Node38</title>
<path fill="none" stroke="#191970" d="M1325.5902,-280.2455C1327.1561,-272.9382 1329.3512,-262.6944 1331.2776,-253.7046"/>
<polygon fill="#191970" stroke="#191970" points="1334.7607,-254.1541 1333.4337,-243.6427 1327.916,-252.6873 1334.7607,-254.1541"/>
</g>
<!-- Node39&#45;&gt;Node2 -->
<g id="edge63" class="edge">
<title>Node39&#45;&gt;Node2</title>
<path fill="none" stroke="#191970" d="M1900.0668,-117.6058C1787.1343,-106.6831 1495.8194,-78.5076 1398.6121,-69.1058"/>
<polygon fill="#191970" stroke="#191970" points="1398.8084,-65.6086 1388.5179,-68.1295 1398.1345,-72.5761 1398.8084,-65.6086"/>
</g>
<!-- Node39&#45;&gt;Node28 -->
<g id="edge64" class="edge">
<title>Node39&#45;&gt;Node28</title>
<path fill="none" stroke="#191970" d="M1926.4184,-112.3733C1908.7598,-103.4644 1882.2947,-90.1127 1862.2902,-80.0203"/>
<polygon fill="#191970" stroke="#191970" points="1863.8372,-76.8806 1853.3326,-75.5011 1860.6842,-83.1303 1863.8372,-76.8806"/>
</g>
<!-- Node40 -->
<g id="node41" class="node">
<title>Node40</title>
<polygon fill="none" stroke="#bfbfbf" points="1918.5,-56.5 1918.5,-75.5 1972.5,-75.5 1972.5,-56.5 1918.5,-56.5"/>
<text text-anchor="middle" x="1945.5" y="-63.5" font-family="Helvetica,sans-Serif" font-size="10.00" fill="#000000">ciso646</text>
</g>
<!-- Node39&#45;&gt;Node40 -->
<g id="edge62" class="edge">
<title>Node39&#45;&gt;Node40</title>
<path fill="none" stroke="#191970" d="M1945.5,-112.2455C1945.5,-104.9382 1945.5,-94.6944 1945.5,-85.7046"/>
<polygon fill="#191970" stroke="#191970" points="1949.0001,-85.6426 1945.5,-75.6427 1942.0001,-85.6427 1949.0001,-85.6426"/>
</g>
</g>
</svg>
