<?xml version="1.0" encoding="UTF-8" standalone="no"?>
<!DOCTYPE svg PUBLIC "-//W3C//DTD SVG 1.1//EN"
 "http://www.w3.org/Graphics/SVG/1.1/DTD/svg11.dtd">
<!-- Generated by graphviz version 2.40.1 (20161225.0304)
 -->
<!-- Title: src/engine/Sprite.cxx Pages: 1 -->
<!--zoomable 308 -->
<svg id="main" version="1.1" xmlns="http://www.w3.org/2000/svg" xmlns:xlink="http://www.w3.org/1999/xlink" xml:space="preserve" onload="init(evt)">
<style type="text/css"><![CDATA[
.edge:hover path { stroke: red; }
.edge:hover polygon { stroke: red; fill: red; }
]]></style>
<script type="text/javascript"><![CDATA[
var edges = document.getElementsByTagName('g');
if (edges && edges.length) {
  for (var i=0;i<edges.length;i++) {
    if (edges[i].id.substr(0,4)=='edge') {
      edges[i].setAttribute('class','edge');
    }
  }
}
]]></script>
        <defs>
                <circle id="rim" cx="0" cy="0" r="7"/>
                <circle id="rim2" cx="0" cy="0" r="3.5"/>
                <g id="zoomPlus">
                        <use xlink:href="#rim" fill="#404040">
                                <set attributeName="fill" to="#808080" begin="zoomplus.mouseover" end="zoomplus.mouseout"/>
                        </use>
                        <path d="M-4,0h8M0,-4v8" fill="none" stroke="white" stroke-width="1.5" pointer-events="none"/>
                </g>
                <g id="zoomMin">
                        <use xlink:href="#rim" fill="#404040">
                                <set attributeName="fill" to="#808080" begin="zoomminus.mouseover" end="zoomminus.mouseout"/>
                        </use>
                        <path d="M-4,0h8" fill="none" stroke="white" stroke-width="1.5" pointer-events="none"/>
                </g>
                <g id="dirArrow">
                        <path fill="none" stroke="white" stroke-width="1.5" d="M0,-3.0v7 M-2.5,-0.5L0,-3.0L2.5,-0.5"/>
                </g>
               <g id="resetDef">
                       <use xlink:href="#rim2" fill="#404040">
                               <set attributeName="fill" to="#808080" begin="reset.mouseover" end="reset.mouseout"/>
                       </use>
               </g>
        </defs>

<script type="text/javascript">
var viewWidth = 1884;
var viewHeight = 308;
var sectionId = 'dynsection-0';
</script>
<script xlink:href="svgpan.js"/>
<svg id="graph" class="graph">
<g id="viewport">
<title>src/engine/Sprite.cxx</title>
<!-- Node0 -->
<g id="node1" class="node">
<title>Node0</title>
<polygon fill="#bfbfbf" stroke="#000000" points="379.5,-280.5 379.5,-299.5 498.5,-299.5 498.5,-280.5 379.5,-280.5"/>
<text text-anchor="middle" x="439" y="-287.5" font-family="Helvetica,sans-Serif" font-size="10.00" fill="#000000">src/engine/Sprite.cxx</text>
</g>
<!-- Node1 -->
<g id="node2" class="node">
<title>Node1</title>
<g id="a_node2"><a xlink:href="Sprite_8hxx.html" target="_top" xlink:title="Sprite.hxx">
<polygon fill="none" stroke="#000000" points="172,-168.5 172,-187.5 238,-187.5 238,-168.5 172,-168.5"/>
<text text-anchor="middle" x="205" y="-175.5" font-family="Helvetica,sans-Serif" font-size="10.00" fill="#000000">Sprite.hxx</text>
</a>
</g>
</g>
<!-- Node0&#45;&gt;Node1 -->
<g id="edge1" class="edge">
<title>Node0&#45;&gt;Node1</title>
<path fill="none" stroke="#191970" d="M419.0493,-280.4509C377.6895,-260.6548 282.4421,-215.0663 234.1743,-191.9638"/>
<polygon fill="#191970" stroke="#191970" points="235.4313,-188.6852 224.9002,-187.5249 232.4092,-194.9992 235.4313,-188.6852"/>
</g>
<!-- Node5 -->
<g id="node6" class="node">
<title>Node5</title>
<g id="a_node6"><a xlink:href="enums_8hxx.html" target="_top" xlink:title="common/enums.hxx">
<polygon fill="none" stroke="#000000" points="18,-56.5 18,-75.5 134,-75.5 134,-56.5 18,-56.5"/>
<text text-anchor="middle" x="76" y="-63.5" font-family="Helvetica,sans-Serif" font-size="10.00" fill="#000000">common/enums.hxx</text>
</a>
</g>
</g>
<!-- Node0&#45;&gt;Node5 -->
<g id="edge40" class="edge">
<title>Node0&#45;&gt;Node5</title>
<path fill="none" stroke="#191970" d="M379.2886,-283.7116C333.5653,-277.4659 269.6172,-265.5935 217,-244 132.2627,-209.2247 87.7625,-212.4647 44,-132 35.1324,-115.6954 46.7347,-96.563 58.3727,-83.1077"/>
<polygon fill="#191970" stroke="#191970" points="61.1733,-85.2368 65.441,-75.5395 56.0575,-80.4589 61.1733,-85.2368"/>
</g>
<!-- Node8 -->
<g id="node9" class="node">
<title>Node8</title>
<g id="a_node9"><a xlink:href="ResourcesManager_8hxx.html" target="_top" xlink:title="ResourcesManager.hxx">
<polygon fill="none" stroke="#000000" points="572,-224.5 572,-243.5 700,-243.5 700,-224.5 572,-224.5"/>
<text text-anchor="middle" x="636" y="-231.5" font-family="Helvetica,sans-Serif" font-size="10.00" fill="#000000">ResourcesManager.hxx</text>
</a>
</g>
</g>
<!-- Node0&#45;&gt;Node8 -->
<g id="edge8" class="edge">
<title>Node0&#45;&gt;Node8</title>
<path fill="none" stroke="#191970" d="M472.8655,-280.3733C506.049,-270.9404 556.755,-256.5265 592.8194,-246.2747"/>
<polygon fill="#191970" stroke="#191970" points="593.9145,-249.6021 602.5764,-243.5011 592.0005,-242.8689 593.9145,-249.6021"/>
</g>
<!-- Node17 -->
<g id="node18" class="node">
<title>Node17</title>
<g id="a_node18"><a xlink:href="WindowManager_8hxx.html" target="_top" xlink:title="WindowManager.hxx">
<polygon fill="none" stroke="#000000" points="986,-168.5 986,-187.5 1104,-187.5 1104,-168.5 986,-168.5"/>
<text text-anchor="middle" x="1045" y="-175.5" font-family="Helvetica,sans-Serif" font-size="10.00" fill="#000000">WindowManager.hxx</text>
</a>
</g>
</g>
<!-- Node0&#45;&gt;Node17 -->
<g id="edge23" class="edge">
<title>Node0&#45;&gt;Node17</title>
<path fill="none" stroke="#191970" d="M497.5374,-280.4641C552.2774,-271.4432 636.2717,-257.3361 709,-244 807.4438,-225.9484 921.7247,-203.095 988.4355,-189.5629"/>
<polygon fill="#191970" stroke="#191970" points="989.2213,-192.9749 998.3246,-187.5545 987.828,-186.1149 989.2213,-192.9749"/>
</g>
<!-- Node18 -->
<g id="node19" class="node">
<title>Node18</title>
<g id="a_node19"><a xlink:href="Camera_8hxx.html" target="_top" xlink:title="basics/Camera.hxx">
<polygon fill="none" stroke="#000000" points="256,-168.5 256,-187.5 366,-187.5 366,-168.5 256,-168.5"/>
<text text-anchor="middle" x="311" y="-175.5" font-family="Helvetica,sans-Serif" font-size="10.00" fill="#000000">basics/Camera.hxx</text>
</a>
</g>
</g>
<!-- Node0&#45;&gt;Node18 -->
<g id="edge29" class="edge">
<title>Node0&#45;&gt;Node18</title>
<path fill="none" stroke="#191970" d="M428.0868,-280.4509C406.1711,-261.2747 356.5957,-217.8962 329.5129,-194.1988"/>
<polygon fill="#191970" stroke="#191970" points="331.7162,-191.4759 321.8856,-187.5249 327.1066,-196.744 331.7162,-191.4759"/>
</g>
<!-- Node19 -->
<g id="node20" class="node">
<title>Node19</title>
<g id="a_node20"><a xlink:href="isoMath_8hxx.html" target="_top" xlink:title="basics/isoMath.hxx">
<polygon fill="none" stroke="#000000" points="384,-168.5 384,-187.5 494,-187.5 494,-168.5 384,-168.5"/>
<text text-anchor="middle" x="439" y="-175.5" font-family="Helvetica,sans-Serif" font-size="10.00" fill="#000000">basics/isoMath.hxx</text>
</a>
</g>
</g>
<!-- Node0&#45;&gt;Node19 -->
<g id="edge32" class="edge">
<title>Node0&#45;&gt;Node19</title>
<path fill="none" stroke="#191970" d="M439,-280.4509C439,-262.184 439,-221.9553 439,-197.6976"/>
<polygon fill="#191970" stroke="#191970" points="442.5001,-197.5249 439,-187.5249 435.5001,-197.5249 442.5001,-197.5249"/>
</g>
<!-- Node21 -->
<g id="node22" class="node">
<title>Node21</title>
<g id="a_node22"><a xlink:href="MapLayers_8hxx.html" target="_top" xlink:title="map/MapLayers.hxx">
<polygon fill="none" stroke="#000000" points="61.5,-112.5 61.5,-131.5 176.5,-131.5 176.5,-112.5 61.5,-112.5"/>
<text text-anchor="middle" x="119" y="-119.5" font-family="Helvetica,sans-Serif" font-size="10.00" fill="#000000">map/MapLayers.hxx</text>
</a>
</g>
</g>
<!-- Node0&#45;&gt;Node21 -->
<g id="edge37" class="edge">
<title>Node0&#45;&gt;Node21</title>
<path fill="none" stroke="#191970" d="M383.4612,-280.4847C323.6555,-267.9085 228.3196,-240.8675 163,-188 147.3448,-175.3292 135.2165,-155.5953 127.6948,-141.0038"/>
<polygon fill="#191970" stroke="#191970" points="130.7696,-139.3239 123.2367,-131.8736 124.4794,-142.3953 130.7696,-139.3239"/>
</g>
<!-- Node22 -->
<g id="node23" class="node">
<title>Node22</title>
<g id="a_node23"><a xlink:href="LOG_8hxx.html" target="_top" xlink:title="LOG.hxx">
<polygon fill="none" stroke="#000000" points="1374,-224.5 1374,-243.5 1432,-243.5 1432,-224.5 1374,-224.5"/>
<text text-anchor="middle" x="1403" y="-231.5" font-family="Helvetica,sans-Serif" font-size="10.00" fill="#000000">LOG.hxx</text>
</a>
</g>
</g>
<!-- Node0&#45;&gt;Node22 -->
<g id="edge41" class="edge">
<title>Node0&#45;&gt;Node22</title>
<path fill="none" stroke="#191970" d="M498.575,-286.5392C678.5677,-276.0832 1213.5926,-245.0029 1363.5406,-236.2922"/>
<polygon fill="#191970" stroke="#191970" points="1363.8811,-239.7785 1373.6612,-235.7043 1363.475,-232.7902 1363.8811,-239.7785"/>
</g>
<!-- Node23 -->
<g id="node24" class="node">
<title>Node23</title>
<g id="a_node24"><a xlink:href="Exception_8hxx.html" target="_top" xlink:title="Exception.hxx">
<polygon fill="none" stroke="#000000" points="1236,-168.5 1236,-187.5 1322,-187.5 1322,-168.5 1236,-168.5"/>
<text text-anchor="middle" x="1279" y="-175.5" font-family="Helvetica,sans-Serif" font-size="10.00" fill="#000000">Exception.hxx</text>
</a>
</g>
</g>
<!-- Node0&#45;&gt;Node23 -->
<g id="edge60" class="edge">
<title>Node0&#45;&gt;Node23</title>
<path fill="none" stroke="#191970" d="M498.7373,-282.035C655.3985,-261.1469 1076.2627,-205.0316 1225.5662,-185.1245"/>
<polygon fill="#191970" stroke="#191970" points="1226.3897,-188.5458 1235.8394,-183.7548 1225.4645,-181.6072 1226.3897,-188.5458"/>
</g>
<!-- Node2 -->
<g id="node3" class="node">
<title>Node2</title>
<polygon fill="none" stroke="#bfbfbf" points="385,-112.5 385,-131.5 429,-131.5 429,-112.5 385,-112.5"/>
<text text-anchor="middle" x="407" y="-119.5" font-family="Helvetica,sans-Serif" font-size="10.00" fill="#000000">SDL.h</text>
</g>
<!-- Node1&#45;&gt;Node2 -->
<g id="edge2" class="edge">
<title>Node1&#45;&gt;Node2</title>
<path fill="none" stroke="#191970" d="M238.3562,-168.7527C276.2545,-158.2463 337.6695,-141.2203 374.997,-130.8721"/>
<polygon fill="#191970" stroke="#191970" points="376.1455,-134.1858 384.847,-128.1414 374.2754,-127.4402 376.1455,-134.1858"/>
</g>
<!-- Node3 -->
<g id="node4" class="node">
<title>Node3</title>
<polygon fill="none" stroke="#bfbfbf" points="333.5,-56.5 333.5,-75.5 380.5,-75.5 380.5,-56.5 333.5,-56.5"/>
<text text-anchor="middle" x="357" y="-63.5" font-family="Helvetica,sans-Serif" font-size="10.00" fill="#000000">vector</text>
</g>
<!-- Node1&#45;&gt;Node3 -->
<g id="edge3" class="edge">
<title>Node1&#45;&gt;Node3</title>
<path fill="none" stroke="#191970" d="M205.1238,-168.1201C205.8362,-153.8746 209.2286,-127.5709 224,-112 250.0222,-84.5694 293.1853,-73.493 323.2564,-69.0224"/>
<polygon fill="#191970" stroke="#191970" points="323.8397,-72.4758 333.2973,-67.7005 322.926,-65.5357 323.8397,-72.4758"/>
</g>
<!-- Node4 -->
<g id="node5" class="node">
<title>Node4</title>
<g id="a_node5"><a xlink:href="point_8hxx.html" target="_top" xlink:title="basics/point.hxx">
<polygon fill="none" stroke="#000000" points="233,-112.5 233,-131.5 329,-131.5 329,-112.5 233,-112.5"/>
<text text-anchor="middle" x="281" y="-119.5" font-family="Helvetica,sans-Serif" font-size="10.00" fill="#000000">basics/point.hxx</text>
</a>
</g>
</g>
<!-- Node1&#45;&gt;Node4 -->
<g id="edge4" class="edge">
<title>Node1&#45;&gt;Node4</title>
<path fill="none" stroke="#191970" d="M218.2382,-168.2455C229.681,-159.814 246.4296,-147.4729 259.7475,-137.6598"/>
<polygon fill="#191970" stroke="#191970" points="261.9391,-140.3924 267.9135,-131.6427 257.7867,-134.757 261.9391,-140.3924"/>
</g>
<!-- Node1&#45;&gt;Node5 -->
<g id="edge5" class="edge">
<title>Node1&#45;&gt;Node5</title>
<path fill="none" stroke="#191970" d="M171.6944,-172.7008C131.1552,-165.4919 66.3161,-151.2533 52,-132 41.2761,-117.5777 50.8592,-97.8818 60.9191,-83.7673"/>
<polygon fill="#191970" stroke="#191970" points="63.7305,-85.853 67.0671,-75.7972 58.1879,-81.5774 63.7305,-85.853"/>
</g>
<!-- Node6 -->
<g id="node7" class="node">
<title>Node6</title>
<polygon fill="none" stroke="#bfbfbf" points="0,-.5 0,-19.5 56,-19.5 56,-.5 0,-.5"/>
<text text-anchor="middle" x="28" y="-7.5" font-family="Helvetica,sans-Serif" font-size="10.00" fill="#000000">stddef.h</text>
</g>
<!-- Node5&#45;&gt;Node6 -->
<g id="edge6" class="edge">
<title>Node5&#45;&gt;Node6</title>
<path fill="none" stroke="#191970" d="M67.639,-56.2455C60.825,-48.2958 51.0319,-36.8706 42.8848,-27.3656"/>
<polygon fill="#191970" stroke="#191970" points="45.4305,-24.9575 36.2651,-19.6427 40.1157,-29.513 45.4305,-24.9575"/>
</g>
<!-- Node7 -->
<g id="node8" class="node">
<title>Node7</title>
<polygon fill="none" stroke="#bfbfbf" points="74,-.5 74,-19.5 174,-19.5 174,-.5 74,-.5"/>
<text text-anchor="middle" x="124" y="-7.5" font-family="Helvetica,sans-Serif" font-size="10.00" fill="#000000">betterEnums.hxx</text>
</g>
<!-- Node5&#45;&gt;Node7 -->
<g id="edge7" class="edge">
<title>Node5&#45;&gt;Node7</title>
<path fill="none" stroke="#191970" d="M84.361,-56.2455C91.175,-48.2958 100.9681,-36.8706 109.1152,-27.3656"/>
<polygon fill="#191970" stroke="#191970" points="111.8843,-29.513 115.7349,-19.6427 106.5695,-24.9575 111.8843,-29.513"/>
</g>
<!-- Node8&#45;&gt;Node2 -->
<g id="edge11" class="edge">
<title>Node8&#45;&gt;Node2</title>
<path fill="none" stroke="#191970" d="M616.6582,-224.2975C590.8085,-211.3544 543.5453,-187.7729 503,-168 480.6897,-157.1198 455.3653,-144.9946 436.3303,-135.9254"/>
<polygon fill="#191970" stroke="#191970" points="437.7995,-132.7485 427.2659,-131.6112 434.7912,-139.0691 437.7995,-132.7485"/>
</g>
<!-- Node9 -->
<g id="node10" class="node">
<title>Node9</title>
<polygon fill="none" stroke="#bfbfbf" points="1171,-112.5 1171,-131.5 1231,-131.5 1231,-112.5 1171,-112.5"/>
<text text-anchor="middle" x="1201" y="-119.5" font-family="Helvetica,sans-Serif" font-size="10.00" fill="#000000">iostream</text>
</g>
<!-- Node8&#45;&gt;Node9 -->
<g id="edge9" class="edge">
<title>Node8&#45;&gt;Node9</title>
<path fill="none" stroke="#191970" d="M700.0723,-232.1005C812.2501,-228.069 1039.3066,-216.5677 1113,-188 1141.1559,-177.0852 1168.1034,-154.4735 1184.5932,-138.7789"/>
<polygon fill="#191970" stroke="#191970" points="1187.1134,-141.2097 1191.8076,-131.7115 1182.2148,-136.2092 1187.1134,-141.2097"/>
</g>
<!-- Node10 -->
<g id="node11" class="node">
<title>Node10</title>
<polygon fill="none" stroke="#bfbfbf" points="529.5,-112.5 529.5,-131.5 622.5,-131.5 622.5,-112.5 529.5,-112.5"/>
<text text-anchor="middle" x="576" y="-119.5" font-family="Helvetica,sans-Serif" font-size="10.00" fill="#000000">unordered_map</text>
</g>
<!-- Node8&#45;&gt;Node10 -->
<g id="edge10" class="edge">
<title>Node8&#45;&gt;Node10</title>
<path fill="none" stroke="#191970" d="M630.8844,-224.4509C620.9214,-205.8533 598.7635,-164.4919 585.8552,-140.3964"/>
<polygon fill="#191970" stroke="#191970" points="588.9101,-138.6869 581.1026,-131.5249 582.7397,-141.9925 588.9101,-138.6869"/>
</g>
<!-- Node11 -->
<g id="node12" class="node">
<title>Node11</title>
<g id="a_node12"><a xlink:href="TileManager_8hxx.html" target="_top" xlink:title="TileManager.hxx">
<polygon fill="none" stroke="#000000" points="718.5,-168.5 718.5,-187.5 815.5,-187.5 815.5,-168.5 718.5,-168.5"/>
<text text-anchor="middle" x="767" y="-175.5" font-family="Helvetica,sans-Serif" font-size="10.00" fill="#000000">TileManager.hxx</text>
</a>
</g>
</g>
<!-- Node8&#45;&gt;Node11 -->
<g id="edge12" class="edge">
<title>Node8&#45;&gt;Node11</title>
<path fill="none" stroke="#191970" d="M658.5197,-224.3733C679.7372,-215.3032 711.7276,-201.6279 735.4769,-191.4755"/>
<polygon fill="#191970" stroke="#191970" points="736.9548,-194.6502 744.7742,-187.5011 734.2033,-188.2136 736.9548,-194.6502"/>
</g>
<!-- Node11&#45;&gt;Node2 -->
<g id="edge13" class="edge">
<title>Node11&#45;&gt;Node2</title>
<path fill="none" stroke="#191970" d="M718.3,-173.8496C655.6782,-167.9285 543.521,-155.3512 439.2832,-131.9736"/>
<polygon fill="#191970" stroke="#191970" points="439.7504,-128.4903 429.2223,-129.6774 438.1928,-135.3148 439.7504,-128.4903"/>
</g>
<!-- Node11&#45;&gt;Node10 -->
<g id="edge14" class="edge">
<title>Node11&#45;&gt;Node10</title>
<path fill="none" stroke="#191970" d="M734.1659,-168.3733C702.1305,-158.9807 653.2513,-144.6496 618.3145,-134.4064"/>
<polygon fill="#191970" stroke="#191970" points="618.9864,-130.9561 608.4056,-131.5011 617.0169,-137.6733 618.9864,-130.9561"/>
</g>
<!-- Node12 -->
<g id="node13" class="node">
<title>Node12</title>
<polygon fill="none" stroke="#bfbfbf" points="1032,-56.5 1032,-75.5 1076,-75.5 1076,-56.5 1032,-56.5"/>
<text text-anchor="middle" x="1054" y="-63.5" font-family="Helvetica,sans-Serif" font-size="10.00" fill="#000000">string</text>
</g>
<!-- Node11&#45;&gt;Node12 -->
<g id="edge15" class="edge">
<title>Node11&#45;&gt;Node12</title>
<path fill="none" stroke="#191970" d="M815.7532,-169.5464C852.4831,-162.2144 903.5918,-149.9321 946,-132 963.1087,-124.7657 1004.7237,-98.3008 1031.0145,-81.161"/>
<polygon fill="#191970" stroke="#191970" points="1033.16,-83.9398 1039.6094,-75.5341 1029.3258,-78.0832 1033.16,-83.9398"/>
</g>
<!-- Node13 -->
<g id="node14" class="node">
<title>Node13</title>
<g id="a_node14"><a xlink:href="tileData_8hxx.html" target="_top" xlink:title="tileData.hxx">
<polygon fill="none" stroke="#000000" points="783.5,-112.5 783.5,-131.5 860.5,-131.5 860.5,-112.5 783.5,-112.5"/>
<text text-anchor="middle" x="822" y="-119.5" font-family="Helvetica,sans-Serif" font-size="10.00" fill="#000000">tileData.hxx</text>
</a>
</g>
</g>
<!-- Node11&#45;&gt;Node13 -->
<g id="edge16" class="edge">
<title>Node11&#45;&gt;Node13</title>
<path fill="none" stroke="#191970" d="M776.5803,-168.2455C784.5458,-160.1352 796.0641,-148.4075 805.5079,-138.7919"/>
<polygon fill="#191970" stroke="#191970" points="808.0195,-141.2297 812.5295,-131.6427 803.0253,-136.3247 808.0195,-141.2297"/>
</g>
<!-- Node14 -->
<g id="node15" class="node">
<title>Node14</title>
<polygon fill="none" stroke="#bfbfbf" points="879,-112.5 879,-131.5 937,-131.5 937,-112.5 879,-112.5"/>
<text text-anchor="middle" x="908" y="-119.5" font-family="Helvetica,sans-Serif" font-size="10.00" fill="#000000">json.hxx</text>
</g>
<!-- Node11&#45;&gt;Node14 -->
<g id="edge20" class="edge">
<title>Node11&#45;&gt;Node14</title>
<path fill="none" stroke="#191970" d="M791.2388,-168.3733C814.2789,-159.2226 849.1214,-145.3844 874.7501,-135.2057"/>
<polygon fill="#191970" stroke="#191970" points="876.0756,-138.4452 884.0775,-131.5011 873.4918,-131.9395 876.0756,-138.4452"/>
</g>
<!-- Node15 -->
<g id="node16" class="node">
<title>Node15</title>
<g id="a_node16"><a xlink:href="Singleton_8hxx.html" target="_top" xlink:title="Singleton.hxx">
<polygon fill="none" stroke="#000000" points="993.5,-112.5 993.5,-131.5 1076.5,-131.5 1076.5,-112.5 993.5,-112.5"/>
<text text-anchor="middle" x="1035" y="-119.5" font-family="Helvetica,sans-Serif" font-size="10.00" fill="#000000">Singleton.hxx</text>
</a>
</g>
</g>
<!-- Node11&#45;&gt;Node15 -->
<g id="edge21" class="edge">
<title>Node11&#45;&gt;Node15</title>
<path fill="none" stroke="#191970" d="M812.7663,-168.4369C860.1803,-158.5295 934.1254,-143.0783 983.5404,-132.7528"/>
<polygon fill="#191970" stroke="#191970" points="984.3148,-136.1666 993.3875,-130.6951 982.883,-129.3146 984.3148,-136.1666"/>
</g>
<!-- Node16 -->
<g id="node17" class="node">
<title>Node16</title>
<polygon fill="none" stroke="#bfbfbf" points="640.5,-112.5 640.5,-131.5 765.5,-131.5 765.5,-112.5 640.5,-112.5"/>
<text text-anchor="middle" x="703" y="-119.5" font-family="Helvetica,sans-Serif" font-size="10.00" fill="#000000">../common/enums.hxx</text>
</g>
<!-- Node11&#45;&gt;Node16 -->
<g id="edge22" class="edge">
<title>Node11&#45;&gt;Node16</title>
<path fill="none" stroke="#191970" d="M755.8521,-168.2455C746.4913,-160.0549 732.9142,-148.1749 721.8651,-138.5069"/>
<polygon fill="#191970" stroke="#191970" points="723.8508,-135.5937 714.0202,-131.6427 719.2412,-140.8618 723.8508,-135.5937"/>
</g>
<!-- Node13&#45;&gt;Node3 -->
<g id="edge18" class="edge">
<title>Node13&#45;&gt;Node3</title>
<path fill="none" stroke="#191970" d="M783.286,-113.6034C780.1509,-113.0246 777.0264,-112.481 774,-112 632.3713,-89.4881 461.93,-74.394 390.7744,-68.624"/>
<polygon fill="#191970" stroke="#191970" points="390.8662,-65.1202 380.6183,-67.8094 390.3065,-72.0978 390.8662,-65.1202"/>
</g>
<!-- Node13&#45;&gt;Node5 -->
<g id="edge19" class="edge">
<title>Node13&#45;&gt;Node5</title>
<path fill="none" stroke="#191970" d="M783.3078,-113.4555C780.1678,-112.9098 777.0363,-112.4143 774,-112 653.654,-95.5801 295.2272,-76.7357 144.2492,-69.2805"/>
<polygon fill="#191970" stroke="#191970" points="144.3361,-65.7806 134.1761,-68.7848 143.992,-72.7721 144.3361,-65.7806"/>
</g>
<!-- Node13&#45;&gt;Node12 -->
<g id="edge17" class="edge">
<title>Node13&#45;&gt;Node12</title>
<path fill="none" stroke="#191970" d="M860.5705,-112.6899C905.8032,-101.7716 979.9432,-83.8758 1022.0849,-73.7036"/>
<polygon fill="#191970" stroke="#191970" points="1022.9227,-77.102 1031.8222,-71.3533 1021.2801,-70.2975 1022.9227,-77.102"/>
</g>
<!-- Node17&#45;&gt;Node2 -->
<g id="edge27" class="edge">
<title>Node17&#45;&gt;Node2</title>
<path fill="none" stroke="#191970" d="M985.9499,-175.3055C858.3538,-169.2021 559.4061,-153.3175 439.2291,-131.7508"/>
<polygon fill="#191970" stroke="#191970" points="439.6618,-128.2707 429.1854,-129.8507 438.3605,-135.1487 439.6618,-128.2707"/>
</g>
<!-- Node17&#45;&gt;Node3 -->
<g id="edge26" class="edge">
<title>Node17&#45;&gt;Node3</title>
<path fill="none" stroke="#191970" d="M1058.1346,-168.4246C1075.3185,-154.7863 1101.4153,-129.4853 1085,-112 1060.9501,-86.3825 531.3006,-70.6063 390.9022,-66.8645"/>
<polygon fill="#191970" stroke="#191970" points="390.8263,-63.3614 380.7375,-66.5966 390.6418,-70.359 390.8263,-63.3614"/>
</g>
<!-- Node17&#45;&gt;Node9 -->
<g id="edge25" class="edge">
<title>Node17&#45;&gt;Node9</title>
<path fill="none" stroke="#191970" d="M1071.8174,-168.3733C1097.5332,-159.1419 1136.538,-145.1402 1164.9599,-134.9375"/>
<polygon fill="#191970" stroke="#191970" points="1166.3032,-138.174 1174.5326,-131.5011 1163.9381,-131.5857 1166.3032,-138.174"/>
</g>
<!-- Node17&#45;&gt;Node12 -->
<g id="edge24" class="edge">
<title>Node17&#45;&gt;Node12</title>
<path fill="none" stroke="#191970" d="M1073.4381,-168.3621C1089.9279,-161.1374 1109.299,-149.4529 1119,-132 1130.4855,-111.3366 1107.3484,-92.6419 1085.5634,-80.4681"/>
<polygon fill="#191970" stroke="#191970" points="1086.8954,-77.2144 1076.4147,-75.6634 1083.6406,-83.4117 1086.8954,-77.2144"/>
</g>
<!-- Node17&#45;&gt;Node15 -->
<g id="edge28" class="edge">
<title>Node17&#45;&gt;Node15</title>
<path fill="none" stroke="#191970" d="M1043.2581,-168.2455C1041.9533,-160.9382 1040.124,-150.6944 1038.5187,-141.7046"/>
<polygon fill="#191970" stroke="#191970" points="1041.9254,-140.8717 1036.7219,-131.6427 1035.0344,-142.1022 1041.9254,-140.8717"/>
</g>
<!-- Node18&#45;&gt;Node2 -->
<g id="edge30" class="edge">
<title>Node18&#45;&gt;Node2</title>
<path fill="none" stroke="#191970" d="M327.7219,-168.2455C342.5889,-159.5731 364.5466,-146.7645 381.5858,-136.825"/>
<polygon fill="#191970" stroke="#191970" points="383.5955,-139.7047 390.4697,-131.6427 380.0683,-133.6582 383.5955,-139.7047"/>
</g>
<!-- Node18&#45;&gt;Node4 -->
<g id="edge31" class="edge">
<title>Node18&#45;&gt;Node4</title>
<path fill="none" stroke="#191970" d="M305.7744,-168.2455C301.6877,-160.617 295.8865,-149.7881 290.925,-140.5267"/>
<polygon fill="#191970" stroke="#191970" points="293.9732,-138.8047 286.1657,-131.6427 287.8028,-142.1103 293.9732,-138.8047"/>
</g>
<!-- Node19&#45;&gt;Node2 -->
<g id="edge34" class="edge">
<title>Node19&#45;&gt;Node2</title>
<path fill="none" stroke="#191970" d="M433.426,-168.2455C429.0669,-160.617 422.8789,-149.7881 417.5867,-140.5267"/>
<polygon fill="#191970" stroke="#191970" points="420.5104,-138.5886 412.5101,-131.6427 414.4327,-142.0616 420.5104,-138.5886"/>
</g>
<!-- Node19&#45;&gt;Node3 -->
<g id="edge35" class="edge">
<title>Node19&#45;&gt;Node3</title>
<path fill="none" stroke="#191970" d="M419.7925,-168.4673C405.7118,-160.5391 387.1751,-147.9821 376,-132 366.4032,-118.2752 361.6177,-99.7437 359.2528,-85.8112"/>
<polygon fill="#191970" stroke="#191970" points="362.7027,-85.2108 357.8295,-75.8033 355.7725,-86.1965 362.7027,-85.2108"/>
</g>
<!-- Node19&#45;&gt;Node4 -->
<g id="edge33" class="edge">
<title>Node19&#45;&gt;Node4</title>
<path fill="none" stroke="#191970" d="M411.8388,-168.3733C385.7933,-159.1419 346.2884,-145.1402 317.5021,-134.9375"/>
<polygon fill="#191970" stroke="#191970" points="318.4015,-131.5429 307.8067,-131.5011 316.063,-138.1408 318.4015,-131.5429"/>
</g>
<!-- Node20 -->
<g id="node21" class="node">
<title>Node20</title>
<polygon fill="none" stroke="#bfbfbf" points="447,-112.5 447,-131.5 511,-131.5 511,-112.5 447,-112.5"/>
<text text-anchor="middle" x="479" y="-119.5" font-family="Helvetica,sans-Serif" font-size="10.00" fill="#000000">algorithm</text>
</g>
<!-- Node19&#45;&gt;Node20 -->
<g id="edge36" class="edge">
<title>Node19&#45;&gt;Node20</title>
<path fill="none" stroke="#191970" d="M445.9675,-168.2455C451.5311,-160.4564 459.478,-149.3308 466.1829,-139.9439"/>
<polygon fill="#191970" stroke="#191970" points="469.148,-141.8144 472.1124,-131.6427 463.4519,-137.7457 469.148,-141.8144"/>
</g>
<!-- Node21&#45;&gt;Node3 -->
<g id="edge39" class="edge">
<title>Node21&#45;&gt;Node3</title>
<path fill="none" stroke="#191970" d="M159.6432,-112.4369C205.7604,-101.5858 280.141,-84.0845 323.2085,-73.9509"/>
<polygon fill="#191970" stroke="#191970" points="324.257,-77.2999 333.1896,-71.6025 322.6537,-70.486 324.257,-77.2999"/>
</g>
<!-- Node21&#45;&gt;Node5 -->
<g id="edge38" class="edge">
<title>Node21&#45;&gt;Node5</title>
<path fill="none" stroke="#191970" d="M111.51,-112.2455C105.4674,-104.3761 96.8097,-93.101 89.5559,-83.6542"/>
<polygon fill="#191970" stroke="#191970" points="92.2705,-81.4426 83.4042,-75.6427 86.7185,-85.7058 92.2705,-81.4426"/>
</g>
<!-- Node22&#45;&gt;Node2 -->
<g id="edge51" class="edge">
<title>Node22&#45;&gt;Node2</title>
<path fill="none" stroke="#191970" d="M1373.6031,-233.1991C1249.8214,-229.6834 770.574,-214.5965 622,-188 555.247,-176.0504 480.11,-149.9367 438.6898,-134.3779"/>
<polygon fill="#191970" stroke="#191970" points="439.7467,-131.0354 429.1555,-130.7584 437.2623,-137.5797 439.7467,-131.0354"/>
</g>
<!-- Node22&#45;&gt;Node9 -->
<g id="edge46" class="edge">
<title>Node22&#45;&gt;Node9</title>
<path fill="none" stroke="#191970" d="M1373.8635,-229.648C1329.7067,-222.5256 1248.6776,-207.228 1227,-188 1213.6379,-176.1478 1207.071,-156.5418 1203.8886,-141.7716"/>
<polygon fill="#191970" stroke="#191970" points="1207.2784,-140.8473 1202.0582,-131.6278 1200.3896,-142.0904 1207.2784,-140.8473"/>
</g>
<!-- Node22&#45;&gt;Node12 -->
<g id="edge42" class="edge">
<title>Node22&#45;&gt;Node12</title>
<path fill="none" stroke="#191970" d="M1392.0842,-224.3827C1379.1181,-211.7264 1360.2756,-188.6611 1369,-168 1380.6042,-140.5188 1425.6795,-134.4186 1406,-112 1385.0396,-88.1223 1169.4516,-72.865 1086.3861,-67.8335"/>
<polygon fill="#191970" stroke="#191970" points="1086.4447,-64.3309 1076.2545,-67.231 1086.0291,-71.3186 1086.4447,-64.3309"/>
</g>
<!-- Node22&#45;&gt;Node20 -->
<g id="edge52" class="edge">
<title>Node22&#45;&gt;Node20</title>
<path fill="none" stroke="#191970" d="M1373.8415,-232.8971C1259.2888,-228.4359 839.9957,-210.8663 709,-188 638.9956,-175.7802 559.85,-150.4217 515.0372,-134.9396"/>
<polygon fill="#191970" stroke="#191970" points="516.0724,-131.594 505.4776,-131.6063 513.7676,-138.2037 516.0724,-131.594"/>
</g>
<!-- Node22&#45;&gt;Node23 -->
<g id="edge43" class="edge">
<title>Node22&#45;&gt;Node23</title>
<path fill="none" stroke="#191970" d="M1381.6836,-224.3733C1361.7784,-215.3838 1331.8564,-201.8706 1309.44,-191.7471"/>
<polygon fill="#191970" stroke="#191970" points="1310.5925,-188.4272 1300.0382,-187.5011 1307.7113,-194.8068 1310.5925,-188.4272"/>
</g>
<!-- Node26 -->
<g id="node27" class="node">
<title>Node26</title>
<polygon fill="none" stroke="#bfbfbf" points="1378,-168.5 1378,-187.5 1428,-187.5 1428,-168.5 1378,-168.5"/>
<text text-anchor="middle" x="1403" y="-175.5" font-family="Helvetica,sans-Serif" font-size="10.00" fill="#000000">chrono</text>
</g>
<!-- Node22&#45;&gt;Node26 -->
<g id="edge47" class="edge">
<title>Node22&#45;&gt;Node26</title>
<path fill="none" stroke="#191970" d="M1403,-224.2455C1403,-216.9382 1403,-206.6944 1403,-197.7046"/>
<polygon fill="#191970" stroke="#191970" points="1406.5001,-197.6426 1403,-187.6427 1399.5001,-197.6427 1406.5001,-197.6426"/>
</g>
<!-- Node27 -->
<g id="node28" class="node">
<title>Node27</title>
<polygon fill="none" stroke="#bfbfbf" points="1446,-168.5 1446,-187.5 1490,-187.5 1490,-168.5 1446,-168.5"/>
<text text-anchor="middle" x="1468" y="-175.5" font-family="Helvetica,sans-Serif" font-size="10.00" fill="#000000">ctime</text>
</g>
<!-- Node22&#45;&gt;Node27 -->
<g id="edge48" class="edge">
<title>Node22&#45;&gt;Node27</title>
<path fill="none" stroke="#191970" d="M1414.3221,-224.2455C1423.9223,-215.9746 1437.8892,-203.9416 1449.1695,-194.2232"/>
<polygon fill="#191970" stroke="#191970" points="1451.516,-196.8214 1456.8076,-187.6427 1446.947,-191.5182 1451.516,-196.8214"/>
</g>
<!-- Node28 -->
<g id="node29" class="node">
<title>Node28</title>
<polygon fill="none" stroke="#bfbfbf" points="1508.5,-168.5 1508.5,-187.5 1563.5,-187.5 1563.5,-168.5 1508.5,-168.5"/>
<text text-anchor="middle" x="1536" y="-175.5" font-family="Helvetica,sans-Serif" font-size="10.00" fill="#000000">fstream</text>
</g>
<!-- Node22&#45;&gt;Node28 -->
<g id="edge49" class="edge">
<title>Node22&#45;&gt;Node28</title>
<path fill="none" stroke="#191970" d="M1425.8635,-224.3733C1447.405,-215.3032 1479.8838,-201.6279 1503.9956,-191.4755"/>
<polygon fill="#191970" stroke="#191970" points="1505.5767,-194.6075 1513.4348,-187.5011 1502.8603,-188.156 1505.5767,-194.6075"/>
</g>
<!-- Node29 -->
<g id="node30" class="node">
<title>Node29</title>
<polygon fill="none" stroke="#bfbfbf" points="1582,-168.5 1582,-187.5 1638,-187.5 1638,-168.5 1582,-168.5"/>
<text text-anchor="middle" x="1610" y="-175.5" font-family="Helvetica,sans-Serif" font-size="10.00" fill="#000000">sstream</text>
</g>
<!-- Node22&#45;&gt;Node29 -->
<g id="edge50" class="edge">
<title>Node22&#45;&gt;Node29</title>
<path fill="none" stroke="#191970" d="M1432.219,-226.0953C1468.8965,-216.1729 1531.8778,-199.1345 1572.1927,-188.2281"/>
<polygon fill="#191970" stroke="#191970" points="1573.1851,-191.5855 1581.9241,-185.5954 1571.357,-184.8284 1573.1851,-191.5855"/>
</g>
<!-- Node30 -->
<g id="node31" class="node">
<title>Node30</title>
<polygon fill="none" stroke="#bfbfbf" points="1656,-168.5 1656,-187.5 1704,-187.5 1704,-168.5 1656,-168.5"/>
<text text-anchor="middle" x="1680" y="-175.5" font-family="Helvetica,sans-Serif" font-size="10.00" fill="#000000">mutex</text>
</g>
<!-- Node22&#45;&gt;Node30 -->
<g id="edge53" class="edge">
<title>Node22&#45;&gt;Node30</title>
<path fill="none" stroke="#191970" d="M1432.1388,-229.551C1476.3656,-222.5734 1563.2256,-207.9914 1646.1089,-188.0185"/>
<polygon fill="#191970" stroke="#191970" points="1647.0474,-191.3922 1655.9323,-185.6209 1645.3875,-184.5919 1647.0474,-191.3922"/>
</g>
<!-- Node31 -->
<g id="node32" class="node">
<title>Node31</title>
<g id="a_node32"><a xlink:href="Meta_8hxx.html" target="_top" xlink:title="Meta.hxx">
<polygon fill="none" stroke="#000000" points="1722,-168.5 1722,-187.5 1784,-187.5 1784,-168.5 1722,-168.5"/>
<text text-anchor="middle" x="1753" y="-175.5" font-family="Helvetica,sans-Serif" font-size="10.00" fill="#000000">Meta.hxx</text>
</a>
</g>
</g>
<!-- Node22&#45;&gt;Node31 -->
<g id="edge54" class="edge">
<title>Node22&#45;&gt;Node31</title>
<path fill="none" stroke="#191970" d="M1432.2259,-230.6298C1485.724,-224.2536 1603.1446,-209.3011 1711.5028,-188.151"/>
<polygon fill="#191970" stroke="#191970" points="1712.4903,-191.5236 1721.6225,-186.1521 1711.1337,-184.6563 1712.4903,-191.5236"/>
</g>
<!-- Node35 -->
<g id="node36" class="node">
<title>Node35</title>
<g id="a_node36"><a xlink:href="LOG_8inl_8hxx.html" target="_top" xlink:title="LOG.inl.hxx">
<polygon fill="none" stroke="#000000" points="1802.5,-168.5 1802.5,-187.5 1875.5,-187.5 1875.5,-168.5 1802.5,-168.5"/>
<text text-anchor="middle" x="1839" y="-175.5" font-family="Helvetica,sans-Serif" font-size="10.00" fill="#000000">LOG.inl.hxx</text>
</a>
</g>
</g>
<!-- Node22&#45;&gt;Node35 -->
<g id="edge59" class="edge">
<title>Node22&#45;&gt;Node35</title>
<path fill="none" stroke="#191970" d="M1432.0018,-231.5461C1495.4147,-225.9744 1651.3129,-211.1557 1792.2809,-187.9734"/>
<polygon fill="#191970" stroke="#191970" points="1793.1131,-191.3831 1802.4033,-186.2898 1791.9646,-184.478 1793.1131,-191.3831"/>
</g>
<!-- Node24 -->
<g id="node25" class="node">
<title>Node24</title>
<polygon fill="none" stroke="#bfbfbf" points="1332.5,-112.5 1332.5,-131.5 1397.5,-131.5 1397.5,-112.5 1332.5,-112.5"/>
<text text-anchor="middle" x="1365" y="-119.5" font-family="Helvetica,sans-Serif" font-size="10.00" fill="#000000">stdexcept</text>
</g>
<!-- Node23&#45;&gt;Node24 -->
<g id="edge44" class="edge">
<title>Node23&#45;&gt;Node24</title>
<path fill="none" stroke="#191970" d="M1293.9801,-168.2455C1307.1751,-159.6534 1326.6051,-147.0014 1341.8079,-137.1018"/>
<polygon fill="#191970" stroke="#191970" points="1343.7215,-140.0325 1350.1916,-131.6427 1339.9017,-134.1665 1343.7215,-140.0325"/>
</g>
<!-- Node25 -->
<g id="node26" class="node">
<title>Node25</title>
<polygon fill="none" stroke="#bfbfbf" points="1249.5,-112.5 1249.5,-131.5 1314.5,-131.5 1314.5,-112.5 1249.5,-112.5"/>
<text text-anchor="middle" x="1282" y="-119.5" font-family="Helvetica,sans-Serif" font-size="10.00" fill="#000000">exception</text>
</g>
<!-- Node23&#45;&gt;Node25 -->
<g id="edge45" class="edge">
<title>Node23&#45;&gt;Node25</title>
<path fill="none" stroke="#191970" d="M1279.5226,-168.2455C1279.914,-160.9382 1280.4628,-150.6944 1280.9444,-141.7046"/>
<polygon fill="#191970" stroke="#191970" points="1284.4434,-141.8156 1281.4834,-131.6427 1277.4534,-141.4411 1284.4434,-141.8156"/>
</g>
<!-- Node31&#45;&gt;Node9 -->
<g id="edge55" class="edge">
<title>Node31&#45;&gt;Node9</title>
<path fill="none" stroke="#191970" d="M1721.6611,-169.6332C1718.7462,-169.0162 1715.8265,-168.4575 1713,-168 1508.1304,-134.8392 1449.8329,-165.3299 1241.1738,-131.919"/>
<polygon fill="#191970" stroke="#191970" points="1241.556,-128.4351 1231.1229,-130.2792 1240.4288,-135.3438 1241.556,-128.4351"/>
</g>
<!-- Node32 -->
<g id="node33" class="node">
<title>Node32</title>
<polygon fill="none" stroke="#bfbfbf" points="1718.5,-112.5 1718.5,-131.5 1787.5,-131.5 1787.5,-112.5 1718.5,-112.5"/>
<text text-anchor="middle" x="1753" y="-119.5" font-family="Helvetica,sans-Serif" font-size="10.00" fill="#000000">type_traits</text>
</g>
<!-- Node31&#45;&gt;Node32 -->
<g id="edge56" class="edge">
<title>Node31&#45;&gt;Node32</title>
<path fill="none" stroke="#191970" d="M1753,-168.2455C1753,-160.9382 1753,-150.6944 1753,-141.7046"/>
<polygon fill="#191970" stroke="#191970" points="1756.5001,-141.6426 1753,-131.6427 1749.5001,-141.6427 1756.5001,-141.6426"/>
</g>
<!-- Node33 -->
<g id="node34" class="node">
<title>Node33</title>
<polygon fill="none" stroke="#bfbfbf" points="1805.5,-112.5 1805.5,-131.5 1856.5,-131.5 1856.5,-112.5 1805.5,-112.5"/>
<text text-anchor="middle" x="1831" y="-119.5" font-family="Helvetica,sans-Serif" font-size="10.00" fill="#000000">variant</text>
</g>
<!-- Node31&#45;&gt;Node33 -->
<g id="edge57" class="edge">
<title>Node31&#45;&gt;Node33</title>
<path fill="none" stroke="#191970" d="M1766.5866,-168.2455C1778.3305,-159.814 1795.5199,-147.4729 1809.1882,-137.6598"/>
<polygon fill="#191970" stroke="#191970" points="1811.4871,-140.3179 1817.5691,-131.6427 1807.4046,-134.6316 1811.4871,-140.3179"/>
</g>
<!-- Node34 -->
<g id="node35" class="node">
<title>Node34</title>
<polygon fill="none" stroke="#bfbfbf" points="1659.5,-112.5 1659.5,-131.5 1700.5,-131.5 1700.5,-112.5 1659.5,-112.5"/>
<text text-anchor="middle" x="1680" y="-119.5" font-family="Helvetica,sans-Serif" font-size="10.00" fill="#000000">tuple</text>
</g>
<!-- Node31&#45;&gt;Node34 -->
<g id="edge58" class="edge">
<title>Node31&#45;&gt;Node34</title>
<path fill="none" stroke="#191970" d="M1740.2844,-168.2455C1729.398,-159.8943 1713.5117,-147.7076 1700.78,-137.9408"/>
<polygon fill="#191970" stroke="#191970" points="1702.6346,-134.9523 1692.5699,-131.6427 1698.3739,-140.5063 1702.6346,-134.9523"/>
</g>
</g>
</svg>
        <g id="navigator" transform="translate(0 0)" fill="#404254">
                <rect fill="#f2f5e9" fill-opacity="0.5" stroke="#606060" stroke-width=".5" x="0" y="0" width="60" height="60"/>
                <use id="zoomplus" xlink:href="#zoomPlus" x="17" y="9" onmousedown="handleZoom(evt,'in')"/>
                <use id="zoomminus" xlink:href="#zoomMin" x="42" y="9" onmousedown="handleZoom(evt,'out')"/>
                <use id="reset" xlink:href="#resetDef" x="30" y="36" onmousedown="handleReset()"/>
                <g id="arrowUp" xlink:href="#dirArrow" transform="translate(30 24)" onmousedown="handlePan(0,-1)">
                  <use xlink:href="#rim" fill="#404040">
                        <set attributeName="fill" to="#808080" begin="arrowUp.mouseover" end="arrowUp.mouseout"/>
                  </use>
                  <path fill="none" stroke="white" stroke-width="1.5" d="M0,-3.0v7 M-2.5,-0.5L0,-3.0L2.5,-0.5"/>
                </g>
                <g id="arrowRight" xlink:href="#dirArrow" transform="rotate(90) translate(36 -43)" onmousedown="handlePan(1,0)">
                  <use xlink:href="#rim" fill="#404040">
                        <set attributeName="fill" to="#808080" begin="arrowRight.mouseover" end="arrowRight.mouseout"/>
                  </use>
                  <path fill="none" stroke="white" stroke-width="1.5" d="M0,-3.0v7 M-2.5,-0.5L0,-3.0L2.5,-0.5"/>
                </g>
                <g id="arrowDown" xlink:href="#dirArrow" transform="rotate(180) translate(-30 -48)" onmousedown="handlePan(0,1)">
                  <use xlink:href="#rim" fill="#404040">
                        <set attributeName="fill" to="#808080" begin="arrowDown.mouseover" end="arrowDown.mouseout"/>
                  </use>
                  <path fill="none" stroke="white" stroke-width="1.5" d="M0,-3.0v7 M-2.5,-0.5L0,-3.0L2.5,-0.5"/>
                </g>
                <g id="arrowLeft" xlink:href="#dirArrow" transform="rotate(270) translate(-36 17)" onmousedown="handlePan(-1,0)">
                  <use xlink:href="#rim" fill="#404040">
                        <set attributeName="fill" to="#808080" begin="arrowLeft.mouseover" end="arrowLeft.mouseout"/>
                  </use>
                  <path fill="none" stroke="white" stroke-width="1.5" d="M0,-3.0v7 M-2.5,-0.5L0,-3.0L2.5,-0.5"/>
                </g>
        </g>
        <svg viewBox="0 0 15 15" width="100%" height="30px" preserveAspectRatio="xMaxYMin meet">
         <g id="arrow_out" transform="scale(0.3 0.3)">
          <a xlink:href="Sprite_8cxx__incl_org.svg" target="_base">
           <rect id="button" ry="5" rx="5" y="6" x="6" height="38" width="38"
                fill="#f2f5e9" fill-opacity="0.5" stroke="#606060" stroke-width="1.0"/>
           <path id="arrow"
             d="M 11.500037,31.436501 C 11.940474,20.09759 22.043105,11.32322 32.158766,21.979434 L 37.068811,17.246167 C 37.068811,17.246167 37.088388,32 37.088388,32 L 22.160133,31.978069 C 22.160133,31.978069 26.997745,27.140456 26.997745,27.140456 C 18.528582,18.264221 13.291696,25.230495 11.500037,31.436501 z"
             style="fill:#404040;"/>
          </a>
         </g>
        </svg>
</svg>
