<?xml version="1.0" encoding="UTF-8" standalone="no"?>
<!DOCTYPE svg PUBLIC "-//W3C//DTD SVG 1.1//EN"
 "http://www.w3.org/Graphics/SVG/1.1/DTD/svg11.dtd">
<!-- Generated by graphviz version 2.40.1 (20161225.0304)
 -->
<!-- Title: src/engine/map/TerrainGenerator.cxx Pages: 1 -->
<svg width="2046pt" height="420pt"
 viewBox="0.00 0.00 2046.00 420.00" xmlns="http://www.w3.org/2000/svg" xmlns:xlink="http://www.w3.org/1999/xlink">
<g id="graph0" class="graph" transform="scale(1 1) rotate(0) translate(4 416)">
<title>src/engine/map/TerrainGenerator.cxx</title>
<!-- Node0 -->
<g id="node1" class="node">
<title>Node0</title>
<polygon fill="#bfbfbf" stroke="#000000" points="1334,-392.5 1334,-411.5 1530,-411.5 1530,-392.5 1334,-392.5"/>
<text text-anchor="middle" x="1432" y="-399.5" font-family="Helvetica,sans-Serif" font-size="10.00" fill="#000000">src/engine/map/TerrainGenerator.cxx</text>
</g>
<!-- Node1 -->
<g id="node2" class="node">
<title>Node1</title>
<g id="a_node2"><a xlink:href="TerrainGenerator_8hxx.html" target="_top" xlink:title="TerrainGenerator.hxx">
<polygon fill="none" stroke="#000000" points="1328.5,-280.5 1328.5,-299.5 1447.5,-299.5 1447.5,-280.5 1328.5,-280.5"/>
<text text-anchor="middle" x="1388" y="-287.5" font-family="Helvetica,sans-Serif" font-size="10.00" fill="#000000">TerrainGenerator.hxx</text>
</a>
</g>
</g>
<!-- Node0&#45;&gt;Node1 -->
<g id="edge1" class="edge">
<title>Node0&#45;&gt;Node1</title>
<path fill="none" stroke="#191970" d="M1425.9982,-392.4322C1420.4854,-383.3313 1412.3785,-369.1197 1407,-356 1400.781,-340.8302 1395.7613,-322.916 1392.4467,-309.5817"/>
<polygon fill="#191970" stroke="#191970" points="1395.7958,-308.5363 1390.0746,-299.6189 1388.9861,-310.1577 1395.7958,-308.5363"/>
</g>
<!-- Node16 -->
<g id="node17" class="node">
<title>Node16</title>
<polygon fill="none" stroke="#bfbfbf" points="1806,-112.5 1806,-131.5 1864,-131.5 1864,-112.5 1806,-112.5"/>
<text text-anchor="middle" x="1835" y="-119.5" font-family="Helvetica,sans-Serif" font-size="10.00" fill="#000000">json.hxx</text>
</g>
<!-- Node0&#45;&gt;Node16 -->
<g id="edge65" class="edge">
<title>Node0&#45;&gt;Node16</title>
<path fill="none" stroke="#191970" d="M1530.1417,-395.5424C1654.8223,-384.588 1854,-356.6569 1854,-290 1854,-290 1854,-290 1854,-234 1854,-201.2688 1846.0148,-163.9052 1840.3978,-141.6716"/>
<polygon fill="#191970" stroke="#191970" points="1843.7289,-140.5763 1837.8035,-131.7934 1836.9585,-142.3545 1843.7289,-140.5763"/>
</g>
<!-- Node20 -->
<g id="node21" class="node">
<title>Node20</title>
<g id="a_node21"><a xlink:href="Constants_8hxx.html" target="_top" xlink:title="Constants.hxx">
<polygon fill="none" stroke="#000000" points="1882,-336.5 1882,-355.5 1968,-355.5 1968,-336.5 1882,-336.5"/>
<text text-anchor="middle" x="1925" y="-343.5" font-family="Helvetica,sans-Serif" font-size="10.00" fill="#000000">Constants.hxx</text>
</a>
</g>
</g>
<!-- Node0&#45;&gt;Node20 -->
<g id="edge30" class="edge">
<title>Node0&#45;&gt;Node20</title>
<path fill="none" stroke="#191970" d="M1530.0715,-393.5894C1618.5918,-385.5379 1752.2974,-372.2335 1868,-356 1869.2592,-355.8233 1870.5333,-355.6397 1871.8176,-355.4502"/>
<polygon fill="#191970" stroke="#191970" points="1872.445,-358.8948 1881.7893,-353.9014 1871.3706,-351.9777 1872.445,-358.8948"/>
</g>
<!-- Node21 -->
<g id="node22" class="node">
<title>Node21</title>
<g id="a_node22"><a xlink:href="LOG_8hxx.html" target="_top" xlink:title="LOG.hxx">
<polygon fill="none" stroke="#000000" points="489,-224.5 489,-243.5 547,-243.5 547,-224.5 489,-224.5"/>
<text text-anchor="middle" x="518" y="-231.5" font-family="Helvetica,sans-Serif" font-size="10.00" fill="#000000">LOG.hxx</text>
</a>
</g>
</g>
<!-- Node0&#45;&gt;Node21 -->
<g id="edge31" class="edge">
<title>Node0&#45;&gt;Node21</title>
<path fill="none" stroke="#191970" d="M1333.9427,-398.1887C1152.9866,-390.78 779.7699,-373.6112 723,-356 648.2448,-332.8094 572.1425,-277.3721 537.4213,-249.9366"/>
<polygon fill="#191970" stroke="#191970" points="539.5047,-247.121 529.5115,-243.6015 535.1287,-252.5846 539.5047,-247.121"/>
</g>
<!-- Node22 -->
<g id="node23" class="node">
<title>Node22</title>
<g id="a_node23"><a xlink:href="Exception_8hxx.html" target="_top" xlink:title="Exception.hxx">
<polygon fill="none" stroke="#000000" points="573,-168.5 573,-187.5 659,-187.5 659,-168.5 573,-168.5"/>
<text text-anchor="middle" x="616" y="-175.5" font-family="Helvetica,sans-Serif" font-size="10.00" fill="#000000">Exception.hxx</text>
</a>
</g>
</g>
<!-- Node0&#45;&gt;Node22 -->
<g id="edge50" class="edge">
<title>Node0&#45;&gt;Node22</title>
<path fill="none" stroke="#191970" d="M1397.1985,-392.4467C1266.7841,-356.6466 807.0585,-230.4474 660.9389,-190.3362"/>
<polygon fill="#191970" stroke="#191970" points="661.5389,-186.8715 650.9691,-187.5994 659.6858,-193.6217 661.5389,-186.8715"/>
</g>
<!-- Node36 -->
<g id="node37" class="node">
<title>Node36</title>
<g id="a_node37"><a xlink:href="JsonSerialization_8hxx.html" target="_top" xlink:title="JsonSerialization.hxx">
<polygon fill="none" stroke="#000000" points="1416.5,-336.5 1416.5,-355.5 1535.5,-355.5 1535.5,-336.5 1416.5,-336.5"/>
<text text-anchor="middle" x="1476" y="-343.5" font-family="Helvetica,sans-Serif" font-size="10.00" fill="#000000">JsonSerialization.hxx</text>
</a>
</g>
</g>
<!-- Node0&#45;&gt;Node36 -->
<g id="edge51" class="edge">
<title>Node0&#45;&gt;Node36</title>
<path fill="none" stroke="#191970" d="M1439.6642,-392.2455C1445.8473,-384.3761 1454.7063,-373.101 1462.1289,-363.6542"/>
<polygon fill="#191970" stroke="#191970" points="1464.9975,-365.6683 1468.4236,-355.6427 1459.4932,-361.3435 1464.9975,-365.6683"/>
</g>
<!-- Node39 -->
<g id="node40" class="node">
<title>Node39</title>
<g id="a_node40"><a xlink:href="Filesystem_8hxx.html" target="_top" xlink:title="Filesystem.hxx">
<polygon fill="none" stroke="#000000" points="0,-112.5 0,-131.5 90,-131.5 90,-112.5 0,-112.5"/>
<text text-anchor="middle" x="45" y="-119.5" font-family="Helvetica,sans-Serif" font-size="10.00" fill="#000000">Filesystem.hxx</text>
</a>
</g>
</g>
<!-- Node0&#45;&gt;Node39 -->
<g id="edge61" class="edge">
<title>Node0&#45;&gt;Node39</title>
<path fill="none" stroke="#191970" d="M1333.748,-399.1087C1019.9036,-389.2316 62,-353.855 62,-290 62,-290 62,-290 62,-234 62,-201.192 54.7815,-163.584 49.752,-141.3624"/>
<polygon fill="#191970" stroke="#191970" points="53.1324,-140.4474 47.4357,-131.5144 46.3184,-142.0502 53.1324,-140.4474"/>
</g>
<!-- Node41 -->
<g id="node42" class="node">
<title>Node41</title>
<polygon fill="none" stroke="#bfbfbf" points="1986,-336.5 1986,-355.5 2038,-355.5 2038,-336.5 1986,-336.5"/>
<text text-anchor="middle" x="2012" y="-343.5" font-family="Helvetica,sans-Serif" font-size="10.00" fill="#000000">noise.h</text>
</g>
<!-- Node0&#45;&gt;Node41 -->
<g id="edge66" class="edge">
<title>Node0&#45;&gt;Node41</title>
<path fill="none" stroke="#191970" d="M1530.2217,-399.439C1637.682,-395.3399 1814.9702,-384.7733 1975.6843,-355.9257"/>
<polygon fill="#191970" stroke="#191970" points="1976.5462,-359.3263 1985.7564,-354.0896 1975.2908,-352.4398 1976.5462,-359.3263"/>
</g>
<!-- Node2 -->
<g id="node3" class="node">
<title>Node2</title>
<g id="a_node3"><a xlink:href="MapNode_8hxx.html" target="_top" xlink:title="../GameObjects/MapNode.hxx">
<polygon fill="none" stroke="#000000" points="1395.5,-224.5 1395.5,-243.5 1556.5,-243.5 1556.5,-224.5 1395.5,-224.5"/>
<text text-anchor="middle" x="1476" y="-231.5" font-family="Helvetica,sans-Serif" font-size="10.00" fill="#000000">../GameObjects/MapNode.hxx</text>
</a>
</g>
</g>
<!-- Node1&#45;&gt;Node2 -->
<g id="edge2" class="edge">
<title>Node1&#45;&gt;Node2</title>
<path fill="none" stroke="#191970" d="M1403.3284,-280.2455C1416.8303,-271.6534 1436.7122,-259.0014 1452.2686,-249.1018"/>
<polygon fill="#191970" stroke="#191970" points="1454.2897,-251.9643 1460.8472,-243.6427 1450.5315,-246.0587 1454.2897,-251.9643"/>
</g>
<!-- Node7 -->
<g id="node8" class="node">
<title>Node7</title>
<polygon fill="none" stroke="#bfbfbf" points="1397.5,-56.5 1397.5,-75.5 1444.5,-75.5 1444.5,-56.5 1397.5,-56.5"/>
<text text-anchor="middle" x="1421" y="-63.5" font-family="Helvetica,sans-Serif" font-size="10.00" fill="#000000">vector</text>
</g>
<!-- Node1&#45;&gt;Node7 -->
<g id="edge29" class="edge">
<title>Node1&#45;&gt;Node7</title>
<path fill="none" stroke="#191970" d="M1344.8865,-280.4531C1251.7649,-257.9602 1045.9186,-197.0559 1119,-112 1136.3362,-91.8233 1311.9933,-75.0183 1387.164,-68.693"/>
<polygon fill="#191970" stroke="#191970" points="1387.8182,-72.1509 1397.4948,-67.8367 1387.2398,-65.1748 1387.8182,-72.1509"/>
</g>
<!-- Node19 -->
<g id="node20" class="node">
<title>Node19</title>
<polygon fill="none" stroke="#bfbfbf" points="1034,-224.5 1034,-243.5 1072,-243.5 1072,-224.5 1034,-224.5"/>
<text text-anchor="middle" x="1053" y="-231.5" font-family="Helvetica,sans-Serif" font-size="10.00" fill="#000000">map</text>
</g>
<!-- Node1&#45;&gt;Node19 -->
<g id="edge28" class="edge">
<title>Node1&#45;&gt;Node19</title>
<path fill="none" stroke="#191970" d="M1328.22,-283.4545C1266.9518,-276.1492 1169.1489,-262.8292 1086,-244 1084.7192,-243.71 1083.4155,-243.3962 1082.1023,-243.0649"/>
<polygon fill="#191970" stroke="#191970" points="1082.6426,-239.5827 1072.071,-240.2849 1080.7731,-246.3285 1082.6426,-239.5827"/>
</g>
<!-- Node3 -->
<g id="node4" class="node">
<title>Node3</title>
<polygon fill="none" stroke="#bfbfbf" points="1478,-112.5 1478,-131.5 1522,-131.5 1522,-112.5 1478,-112.5"/>
<text text-anchor="middle" x="1500" y="-119.5" font-family="Helvetica,sans-Serif" font-size="10.00" fill="#000000">SDL.h</text>
</g>
<!-- Node2&#45;&gt;Node3 -->
<g id="edge3" class="edge">
<title>Node2&#45;&gt;Node3</title>
<path fill="none" stroke="#191970" d="M1475.7878,-224.4565C1475.71,-211.4921 1476.3173,-187.6749 1481,-168 1483.1944,-158.78 1486.9964,-149.016 1490.6256,-140.8669"/>
<polygon fill="#191970" stroke="#191970" points="1493.9088,-142.1098 1494.9961,-131.5709 1487.574,-139.1315 1493.9088,-142.1098"/>
</g>
<!-- Node4 -->
<g id="node5" class="node">
<title>Node4</title>
<polygon fill="none" stroke="#bfbfbf" points="1616,-168.5 1616,-187.5 1674,-187.5 1674,-168.5 1616,-168.5"/>
<text text-anchor="middle" x="1645" y="-175.5" font-family="Helvetica,sans-Serif" font-size="10.00" fill="#000000">memory</text>
</g>
<!-- Node2&#45;&gt;Node4 -->
<g id="edge4" class="edge">
<title>Node2&#45;&gt;Node4</title>
<path fill="none" stroke="#191970" d="M1505.0521,-224.3733C1533.1543,-215.0613 1575.9054,-200.8953 1606.7607,-190.671"/>
<polygon fill="#191970" stroke="#191970" points="1607.9355,-193.969 1616.327,-187.5011 1605.7336,-187.3243 1607.9355,-193.969"/>
</g>
<!-- Node5 -->
<g id="node6" class="node">
<title>Node5</title>
<polygon fill="none" stroke="#bfbfbf" points="932,-56.5 932,-75.5 976,-75.5 976,-56.5 932,-56.5"/>
<text text-anchor="middle" x="954" y="-63.5" font-family="Helvetica,sans-Serif" font-size="10.00" fill="#000000">string</text>
</g>
<!-- Node2&#45;&gt;Node5 -->
<g id="edge5" class="edge">
<title>Node2&#45;&gt;Node5</title>
<path fill="none" stroke="#191970" d="M1406.2522,-224.4882C1321.6241,-211.2541 1175.8894,-182.964 1060,-132 1028.7118,-118.2406 995.7558,-96.3946 975.0546,-81.6421"/>
<polygon fill="#191970" stroke="#191970" points="976.8681,-78.6342 966.7146,-75.608 972.7648,-84.3055 976.8681,-78.6342"/>
</g>
<!-- Node6 -->
<g id="node7" class="node">
<title>Node6</title>
<polygon fill="none" stroke="#bfbfbf" points="795,-168.5 795,-187.5 859,-187.5 859,-168.5 795,-168.5"/>
<text text-anchor="middle" x="827" y="-175.5" font-family="Helvetica,sans-Serif" font-size="10.00" fill="#000000">algorithm</text>
</g>
<!-- Node2&#45;&gt;Node6 -->
<g id="edge6" class="edge">
<title>Node2&#45;&gt;Node6</title>
<path fill="none" stroke="#191970" d="M1395.4427,-227.049C1256.3103,-215.0437 975.6755,-190.8287 869.2358,-181.6444"/>
<polygon fill="#191970" stroke="#191970" points="869.4577,-178.1506 859.1938,-180.7779 868.8558,-185.1247 869.4577,-178.1506"/>
</g>
<!-- Node2&#45;&gt;Node7 -->
<g id="edge7" class="edge">
<title>Node2&#45;&gt;Node7</title>
<path fill="none" stroke="#191970" d="M1481.5751,-224.3156C1495.0543,-200.8126 1528.4887,-141.9485 1531,-132 1533.1756,-123.3815 1535.9259,-119.3992 1531,-112 1514.1631,-86.7093 1480.4728,-75.2978 1454.7897,-70.1641"/>
<polygon fill="#191970" stroke="#191970" points="1455.1516,-66.6739 1444.695,-68.3798 1453.9331,-73.5671 1455.1516,-66.6739"/>
</g>
<!-- Node8 -->
<g id="node9" class="node">
<title>Node8</title>
<g id="a_node9"><a xlink:href="Sprite_8hxx.html" target="_top" xlink:title="../Sprite.hxx">
<polygon fill="none" stroke="#000000" points="1523.5,-168.5 1523.5,-187.5 1598.5,-187.5 1598.5,-168.5 1523.5,-168.5"/>
<text text-anchor="middle" x="1561" y="-175.5" font-family="Helvetica,sans-Serif" font-size="10.00" fill="#000000">../Sprite.hxx</text>
</a>
</g>
</g>
<!-- Node2&#45;&gt;Node8 -->
<g id="edge8" class="edge">
<title>Node2&#45;&gt;Node8</title>
<path fill="none" stroke="#191970" d="M1490.8059,-224.2455C1503.7256,-215.7337 1522.6931,-203.2375 1537.6552,-193.3801"/>
<polygon fill="#191970" stroke="#191970" points="1539.9387,-196.067 1546.3638,-187.6427 1536.0876,-190.2216 1539.9387,-196.067"/>
</g>
<!-- Node9 -->
<g id="node10" class="node">
<title>Node9</title>
<g id="a_node10"><a xlink:href="point_8hxx.html" target="_top" xlink:title="basics/point.hxx">
<polygon fill="none" stroke="#000000" points="1654,-112.5 1654,-131.5 1750,-131.5 1750,-112.5 1654,-112.5"/>
<text text-anchor="middle" x="1702" y="-119.5" font-family="Helvetica,sans-Serif" font-size="10.00" fill="#000000">basics/point.hxx</text>
</a>
</g>
</g>
<!-- Node2&#45;&gt;Node9 -->
<g id="edge16" class="edge">
<title>Node2&#45;&gt;Node9</title>
<path fill="none" stroke="#191970" d="M1556.6922,-224.6193C1606.6361,-217.2332 1664.6275,-205.2737 1683,-188 1695.599,-176.1545 1700.0207,-156.5476 1701.4868,-141.7753"/>
<polygon fill="#191970" stroke="#191970" points="1704.9902,-141.828 1702.1183,-131.6299 1698.0038,-141.3931 1704.9902,-141.828"/>
</g>
<!-- Node10 -->
<g id="node11" class="node">
<title>Node10</title>
<g id="a_node11"><a xlink:href="enums_8hxx.html" target="_top" xlink:title="common/enums.hxx">
<polygon fill="none" stroke="#000000" points="1568,-56.5 1568,-75.5 1684,-75.5 1684,-56.5 1568,-56.5"/>
<text text-anchor="middle" x="1626" y="-63.5" font-family="Helvetica,sans-Serif" font-size="10.00" fill="#000000">common/enums.hxx</text>
</a>
</g>
</g>
<!-- Node2&#45;&gt;Node10 -->
<g id="edge15" class="edge">
<title>Node2&#45;&gt;Node10</title>
<path fill="none" stroke="#191970" d="M1546.0772,-224.4652C1602.6885,-215.9227 1677.1972,-202.5293 1704,-188 1734.6691,-171.3748 1745.7953,-164.2897 1759,-132 1772.3573,-99.3373 1733.395,-82.7341 1694.2501,-74.355"/>
<polygon fill="#191970" stroke="#191970" points="1694.8142,-70.8989 1684.3259,-72.3971 1693.4593,-77.7665 1694.8142,-70.8989"/>
</g>
<!-- Node13 -->
<g id="node14" class="node">
<title>Node13</title>
<g id="a_node14"><a xlink:href="TileManager_8hxx.html" target="_top" xlink:title="../TileManager.hxx">
<polygon fill="none" stroke="#000000" points="1270,-168.5 1270,-187.5 1376,-187.5 1376,-168.5 1270,-168.5"/>
<text text-anchor="middle" x="1323" y="-175.5" font-family="Helvetica,sans-Serif" font-size="10.00" fill="#000000">../TileManager.hxx</text>
</a>
</g>
</g>
<!-- Node2&#45;&gt;Node13 -->
<g id="edge17" class="edge">
<title>Node2&#45;&gt;Node13</title>
<path fill="none" stroke="#191970" d="M1449.6984,-224.3733C1424.5872,-215.1822 1386.5562,-201.2624 1358.7128,-191.0713"/>
<polygon fill="#191970" stroke="#191970" points="1359.5522,-187.6516 1348.9584,-187.5011 1357.1462,-194.2251 1359.5522,-187.6516"/>
</g>
<!-- Node8&#45;&gt;Node3 -->
<g id="edge9" class="edge">
<title>Node8&#45;&gt;Node3</title>
<path fill="none" stroke="#191970" d="M1550.3746,-168.2455C1541.4527,-160.0549 1528.512,-148.1749 1517.9808,-138.5069"/>
<polygon fill="#191970" stroke="#191970" points="1520.2371,-135.8271 1510.5036,-131.6427 1515.5032,-140.9837 1520.2371,-135.8271"/>
</g>
<!-- Node8&#45;&gt;Node7 -->
<g id="edge10" class="edge">
<title>Node8&#45;&gt;Node7</title>
<path fill="none" stroke="#191970" d="M1564.8514,-168.4148C1569.7369,-154.5363 1576.1601,-128.6854 1564,-112 1551.013,-94.18 1492.788,-79.8309 1454.7558,-72.1427"/>
<polygon fill="#191970" stroke="#191970" points="1455.1054,-68.6447 1444.6186,-70.1535 1453.7575,-75.5137 1455.1054,-68.6447"/>
</g>
<!-- Node8&#45;&gt;Node9 -->
<g id="edge11" class="edge">
<title>Node8&#45;&gt;Node9</title>
<path fill="none" stroke="#191970" d="M1585.2388,-168.3733C1608.2789,-159.2226 1643.1214,-145.3844 1668.7501,-135.2057"/>
<polygon fill="#191970" stroke="#191970" points="1670.0756,-138.4452 1678.0775,-131.5011 1667.4918,-131.9395 1670.0756,-138.4452"/>
</g>
<!-- Node8&#45;&gt;Node10 -->
<g id="edge12" class="edge">
<title>Node8&#45;&gt;Node10</title>
<path fill="none" stroke="#191970" d="M1571.6738,-168.305C1580.7716,-159.5597 1593.6623,-145.9605 1602,-132 1610.6819,-117.463 1617.0071,-99.2753 1620.9776,-85.6757"/>
<polygon fill="#191970" stroke="#191970" points="1624.3863,-86.4799 1623.6571,-75.9102 1617.6357,-84.6277 1624.3863,-86.4799"/>
</g>
<!-- Node11 -->
<g id="node12" class="node">
<title>Node11</title>
<polygon fill="none" stroke="#bfbfbf" points="1550,-.5 1550,-19.5 1606,-19.5 1606,-.5 1550,-.5"/>
<text text-anchor="middle" x="1578" y="-7.5" font-family="Helvetica,sans-Serif" font-size="10.00" fill="#000000">stddef.h</text>
</g>
<!-- Node10&#45;&gt;Node11 -->
<g id="edge13" class="edge">
<title>Node10&#45;&gt;Node11</title>
<path fill="none" stroke="#191970" d="M1617.639,-56.2455C1610.825,-48.2958 1601.0319,-36.8706 1592.8848,-27.3656"/>
<polygon fill="#191970" stroke="#191970" points="1595.4305,-24.9575 1586.2651,-19.6427 1590.1157,-29.513 1595.4305,-24.9575"/>
</g>
<!-- Node12 -->
<g id="node13" class="node">
<title>Node12</title>
<polygon fill="none" stroke="#bfbfbf" points="1624,-.5 1624,-19.5 1724,-19.5 1724,-.5 1624,-.5"/>
<text text-anchor="middle" x="1674" y="-7.5" font-family="Helvetica,sans-Serif" font-size="10.00" fill="#000000">betterEnums.hxx</text>
</g>
<!-- Node10&#45;&gt;Node12 -->
<g id="edge14" class="edge">
<title>Node10&#45;&gt;Node12</title>
<path fill="none" stroke="#191970" d="M1634.361,-56.2455C1641.175,-48.2958 1650.9681,-36.8706 1659.1152,-27.3656"/>
<polygon fill="#191970" stroke="#191970" points="1661.8843,-29.513 1665.7349,-19.6427 1656.5695,-24.9575 1661.8843,-29.513"/>
</g>
<!-- Node13&#45;&gt;Node3 -->
<g id="edge18" class="edge">
<title>Node13&#45;&gt;Node3</title>
<path fill="none" stroke="#191970" d="M1353.4274,-168.3733C1385.3571,-158.2712 1435.3432,-142.4564 1467.8903,-132.159"/>
<polygon fill="#191970" stroke="#191970" points="1469.3214,-135.3773 1477.7998,-129.0238 1467.2098,-128.7034 1469.3214,-135.3773"/>
</g>
<!-- Node13&#45;&gt;Node5 -->
<g id="edge20" class="edge">
<title>Node13&#45;&gt;Node5</title>
<path fill="none" stroke="#191970" d="M1269.985,-168.4452C1228.4493,-160.3859 1169.4478,-147.6686 1119,-132 1070.8032,-117.0306 1016.8316,-94.2441 984.1434,-79.7424"/>
<polygon fill="#191970" stroke="#191970" points="985.2698,-76.4121 974.7121,-75.5256 982.4126,-82.8025 985.2698,-76.4121"/>
</g>
<!-- Node14 -->
<g id="node15" class="node">
<title>Node14</title>
<polygon fill="none" stroke="#bfbfbf" points="1271.5,-112.5 1271.5,-131.5 1364.5,-131.5 1364.5,-112.5 1271.5,-112.5"/>
<text text-anchor="middle" x="1318" y="-119.5" font-family="Helvetica,sans-Serif" font-size="10.00" fill="#000000">unordered_map</text>
</g>
<!-- Node13&#45;&gt;Node14 -->
<g id="edge19" class="edge">
<title>Node13&#45;&gt;Node14</title>
<path fill="none" stroke="#191970" d="M1322.1291,-168.2455C1321.4766,-160.9382 1320.562,-150.6944 1319.7593,-141.7046"/>
<polygon fill="#191970" stroke="#191970" points="1323.2365,-141.2918 1318.861,-131.6427 1316.2642,-141.9143 1323.2365,-141.2918"/>
</g>
<!-- Node15 -->
<g id="node16" class="node">
<title>Node15</title>
<g id="a_node16"><a xlink:href="tileData_8hxx.html" target="_top" xlink:title="tileData.hxx">
<polygon fill="none" stroke="#000000" points="1382.5,-112.5 1382.5,-131.5 1459.5,-131.5 1459.5,-112.5 1382.5,-112.5"/>
<text text-anchor="middle" x="1421" y="-119.5" font-family="Helvetica,sans-Serif" font-size="10.00" fill="#000000">tileData.hxx</text>
</a>
</g>
</g>
<!-- Node13&#45;&gt;Node15 -->
<g id="edge21" class="edge">
<title>Node13&#45;&gt;Node15</title>
<path fill="none" stroke="#191970" d="M1340.0703,-168.2455C1355.247,-159.5731 1377.6621,-146.7645 1395.0563,-136.825"/>
<polygon fill="#191970" stroke="#191970" points="1397.1794,-139.643 1404.1253,-131.6427 1393.7064,-133.5653 1397.1794,-139.643"/>
</g>
<!-- Node13&#45;&gt;Node16 -->
<g id="edge25" class="edge">
<title>Node13&#45;&gt;Node16</title>
<path fill="none" stroke="#191970" d="M1376.0704,-172.8449C1458.2093,-164.7659 1621.0564,-148.3493 1759,-132 1770.9592,-130.5826 1783.9599,-128.9177 1795.7715,-127.3575"/>
<polygon fill="#191970" stroke="#191970" points="1796.3394,-130.8128 1805.7892,-126.0221 1795.4144,-123.8742 1796.3394,-130.8128"/>
</g>
<!-- Node17 -->
<g id="node18" class="node">
<title>Node17</title>
<g id="a_node18"><a xlink:href="Singleton_8hxx.html" target="_top" xlink:title="Singleton.hxx">
<polygon fill="none" stroke="#000000" points="912.5,-112.5 912.5,-131.5 995.5,-131.5 995.5,-112.5 912.5,-112.5"/>
<text text-anchor="middle" x="954" y="-119.5" font-family="Helvetica,sans-Serif" font-size="10.00" fill="#000000">Singleton.hxx</text>
</a>
</g>
</g>
<!-- Node13&#45;&gt;Node17 -->
<g id="edge26" class="edge">
<title>Node13&#45;&gt;Node17</title>
<path fill="none" stroke="#191970" d="M1269.7383,-169.9169C1199.2129,-159.2139 1075.6433,-140.4608 1005.8396,-129.8673"/>
<polygon fill="#191970" stroke="#191970" points="1005.941,-126.3426 995.529,-128.3025 1004.8906,-133.2634 1005.941,-126.3426"/>
</g>
<!-- Node18 -->
<g id="node19" class="node">
<title>Node18</title>
<polygon fill="none" stroke="#bfbfbf" points="1128.5,-112.5 1128.5,-131.5 1253.5,-131.5 1253.5,-112.5 1128.5,-112.5"/>
<text text-anchor="middle" x="1191" y="-119.5" font-family="Helvetica,sans-Serif" font-size="10.00" fill="#000000">../common/enums.hxx</text>
</g>
<!-- Node13&#45;&gt;Node18 -->
<g id="edge27" class="edge">
<title>Node13&#45;&gt;Node18</title>
<path fill="none" stroke="#191970" d="M1300.3084,-168.3733C1278.9289,-159.3032 1246.6943,-145.6279 1222.7638,-135.4755"/>
<polygon fill="#191970" stroke="#191970" points="1223.9683,-132.1846 1213.3955,-131.5011 1221.2344,-138.6287 1223.9683,-132.1846"/>
</g>
<!-- Node15&#45;&gt;Node5 -->
<g id="edge22" class="edge">
<title>Node15&#45;&gt;Node5</title>
<path fill="none" stroke="#191970" d="M1382.2862,-113.6017C1379.1511,-113.0232 1376.0265,-112.4803 1373,-112 1229.6631,-89.2548 1056.9508,-74.144 986.3982,-68.4894"/>
<polygon fill="#191970" stroke="#191970" points="986.6036,-64.9948 976.3582,-67.6935 986.0504,-71.9729 986.6036,-64.9948"/>
</g>
<!-- Node15&#45;&gt;Node7 -->
<g id="edge23" class="edge">
<title>Node15&#45;&gt;Node7</title>
<path fill="none" stroke="#191970" d="M1421,-112.2455C1421,-104.9382 1421,-94.6944 1421,-85.7046"/>
<polygon fill="#191970" stroke="#191970" points="1424.5001,-85.6426 1421,-75.6427 1417.5001,-85.6427 1424.5001,-85.6426"/>
</g>
<!-- Node15&#45;&gt;Node10 -->
<g id="edge24" class="edge">
<title>Node15&#45;&gt;Node10</title>
<path fill="none" stroke="#191970" d="M1456.2408,-112.3733C1490.9194,-102.9001 1543.9883,-88.4032 1581.5462,-78.1435"/>
<polygon fill="#191970" stroke="#191970" points="1582.4949,-81.5126 1591.2191,-75.5011 1580.6502,-74.7601 1582.4949,-81.5126"/>
</g>
<!-- Node21&#45;&gt;Node3 -->
<g id="edge41" class="edge">
<title>Node21&#45;&gt;Node3</title>
<path fill="none" stroke="#191970" d="M547.0921,-233.2585C688.7957,-229.5394 1303.2295,-212.1355 1385,-188 1420.8984,-177.4042 1457.5876,-153.643 1479.5813,-137.7148"/>
<polygon fill="#191970" stroke="#191970" points="1481.8414,-140.3963 1487.7946,-131.6321 1477.6754,-134.771 1481.8414,-140.3963"/>
</g>
<!-- Node21&#45;&gt;Node5 -->
<g id="edge32" class="edge">
<title>Node21&#45;&gt;Node5</title>
<path fill="none" stroke="#191970" d="M488.915,-232.7556C402.5251,-228.7643 151.951,-214.9421 128,-188 122.0942,-181.3567 122.3741,-174.882 128,-168 179.3003,-105.2456 775.2516,-74.1378 921.6655,-67.4114"/>
<polygon fill="#191970" stroke="#191970" points="921.9662,-70.9015 931.7974,-66.9521 921.6492,-63.9087 921.9662,-70.9015"/>
</g>
<!-- Node21&#45;&gt;Node6 -->
<g id="edge42" class="edge">
<title>Node21&#45;&gt;Node6</title>
<path fill="none" stroke="#191970" d="M547.0747,-229.6853C594.6697,-222.4767 692.3754,-207.0705 784.7455,-188.1537"/>
<polygon fill="#191970" stroke="#191970" points="785.734,-191.5235 794.8188,-186.0721 784.3173,-184.6683 785.734,-191.5235"/>
</g>
<!-- Node21&#45;&gt;Node22 -->
<g id="edge33" class="edge">
<title>Node21&#45;&gt;Node22</title>
<path fill="none" stroke="#191970" d="M535.0703,-224.2455C550.247,-215.5731 572.6621,-202.7645 590.0563,-192.825"/>
<polygon fill="#191970" stroke="#191970" points="592.1794,-195.643 599.1253,-187.6427 588.7064,-189.5653 592.1794,-195.643"/>
</g>
<!-- Node25 -->
<g id="node26" class="node">
<title>Node25</title>
<polygon fill="none" stroke="#bfbfbf" points="580,-112.5 580,-131.5 640,-131.5 640,-112.5 580,-112.5"/>
<text text-anchor="middle" x="610" y="-119.5" font-family="Helvetica,sans-Serif" font-size="10.00" fill="#000000">iostream</text>
</g>
<!-- Node21&#45;&gt;Node25 -->
<g id="edge36" class="edge">
<title>Node21&#45;&gt;Node25</title>
<path fill="none" stroke="#191970" d="M547.2762,-229.2201C586.699,-222.1181 653.5884,-207.4936 668,-188 681.727,-169.4324 658.9408,-149.7465 638.0229,-136.757"/>
<polygon fill="#191970" stroke="#191970" points="639.6794,-133.6708 629.2844,-131.6228 636.1333,-139.7062 639.6794,-133.6708"/>
</g>
<!-- Node26 -->
<g id="node27" class="node">
<title>Node26</title>
<polygon fill="none" stroke="#bfbfbf" points="137,-168.5 137,-187.5 187,-187.5 187,-168.5 137,-168.5"/>
<text text-anchor="middle" x="162" y="-175.5" font-family="Helvetica,sans-Serif" font-size="10.00" fill="#000000">chrono</text>
</g>
<!-- Node21&#45;&gt;Node26 -->
<g id="edge37" class="edge">
<title>Node21&#45;&gt;Node26</title>
<path fill="none" stroke="#191970" d="M488.8868,-231.2624C433.712,-225.7705 310.0451,-212.012 197.0018,-187.9641"/>
<polygon fill="#191970" stroke="#191970" points="197.6603,-184.5257 187.1467,-185.8351 196.1822,-191.3678 197.6603,-184.5257"/>
</g>
<!-- Node27 -->
<g id="node28" class="node">
<title>Node27</title>
<polygon fill="none" stroke="#bfbfbf" points="205,-168.5 205,-187.5 249,-187.5 249,-168.5 205,-168.5"/>
<text text-anchor="middle" x="227" y="-175.5" font-family="Helvetica,sans-Serif" font-size="10.00" fill="#000000">ctime</text>
</g>
<!-- Node21&#45;&gt;Node27 -->
<g id="edge38" class="edge">
<title>Node21&#45;&gt;Node27</title>
<path fill="none" stroke="#191970" d="M488.8721,-230.1753C442.2513,-223.7687 347.8874,-209.6338 259.1938,-188.0388"/>
<polygon fill="#191970" stroke="#191970" points="259.7937,-184.5818 249.2459,-185.5788 258.1132,-191.3771 259.7937,-184.5818"/>
</g>
<!-- Node28 -->
<g id="node29" class="node">
<title>Node28</title>
<polygon fill="none" stroke="#bfbfbf" points="267.5,-168.5 267.5,-187.5 322.5,-187.5 322.5,-168.5 267.5,-168.5"/>
<text text-anchor="middle" x="295" y="-175.5" font-family="Helvetica,sans-Serif" font-size="10.00" fill="#000000">fstream</text>
</g>
<!-- Node21&#45;&gt;Node28 -->
<g id="edge39" class="edge">
<title>Node21&#45;&gt;Node28</title>
<path fill="none" stroke="#191970" d="M488.9554,-227.0217C454.1742,-218.6205 393.9115,-203.9234 332.693,-188.141"/>
<polygon fill="#191970" stroke="#191970" points="333.4211,-184.7142 322.8633,-185.5995 331.6688,-191.4914 333.4211,-184.7142"/>
</g>
<!-- Node29 -->
<g id="node30" class="node">
<title>Node29</title>
<polygon fill="none" stroke="#bfbfbf" points="341,-168.5 341,-187.5 397,-187.5 397,-168.5 341,-168.5"/>
<text text-anchor="middle" x="369" y="-175.5" font-family="Helvetica,sans-Serif" font-size="10.00" fill="#000000">sstream</text>
</g>
<!-- Node21&#45;&gt;Node29 -->
<g id="edge40" class="edge">
<title>Node21&#45;&gt;Node29</title>
<path fill="none" stroke="#191970" d="M492.386,-224.3733C467.9313,-215.1822 430.8946,-201.2624 403.7791,-191.0713"/>
<polygon fill="#191970" stroke="#191970" points="404.8719,-187.7431 394.2798,-187.5011 402.4091,-194.2956 404.8719,-187.7431"/>
</g>
<!-- Node30 -->
<g id="node31" class="node">
<title>Node30</title>
<polygon fill="none" stroke="#bfbfbf" points="415,-168.5 415,-187.5 463,-187.5 463,-168.5 415,-168.5"/>
<text text-anchor="middle" x="439" y="-175.5" font-family="Helvetica,sans-Serif" font-size="10.00" fill="#000000">mutex</text>
</g>
<!-- Node21&#45;&gt;Node30 -->
<g id="edge43" class="edge">
<title>Node21&#45;&gt;Node30</title>
<path fill="none" stroke="#191970" d="M504.2393,-224.2455C492.3448,-215.814 474.935,-203.4729 461.0915,-193.6598"/>
<polygon fill="#191970" stroke="#191970" points="462.7854,-190.5704 452.6031,-187.6427 458.7372,-196.2811 462.7854,-190.5704"/>
</g>
<!-- Node31 -->
<g id="node32" class="node">
<title>Node31</title>
<g id="a_node32"><a xlink:href="Meta_8hxx.html" target="_top" xlink:title="Meta.hxx">
<polygon fill="none" stroke="#000000" points="715,-168.5 715,-187.5 777,-187.5 777,-168.5 715,-168.5"/>
<text text-anchor="middle" x="746" y="-175.5" font-family="Helvetica,sans-Serif" font-size="10.00" fill="#000000">Meta.hxx</text>
</a>
</g>
</g>
<!-- Node21&#45;&gt;Node31 -->
<g id="edge44" class="edge">
<title>Node21&#45;&gt;Node31</title>
<path fill="none" stroke="#191970" d="M547.3403,-226.7936C587.4819,-216.9343 659.7068,-199.1948 705.1291,-188.0385"/>
<polygon fill="#191970" stroke="#191970" points="706.073,-191.4107 714.9495,-185.6264 704.4033,-184.6128 706.073,-191.4107"/>
</g>
<!-- Node35 -->
<g id="node36" class="node">
<title>Node35</title>
<g id="a_node36"><a xlink:href="LOG_8inl_8hxx.html" target="_top" xlink:title="LOG.inl.hxx">
<polygon fill="none" stroke="#000000" points="481.5,-168.5 481.5,-187.5 554.5,-187.5 554.5,-168.5 481.5,-168.5"/>
<text text-anchor="middle" x="518" y="-175.5" font-family="Helvetica,sans-Serif" font-size="10.00" fill="#000000">LOG.inl.hxx</text>
</a>
</g>
</g>
<!-- Node21&#45;&gt;Node35 -->
<g id="edge49" class="edge">
<title>Node21&#45;&gt;Node35</title>
<path fill="none" stroke="#191970" d="M518,-224.2455C518,-216.9382 518,-206.6944 518,-197.7046"/>
<polygon fill="#191970" stroke="#191970" points="521.5001,-197.6426 518,-187.6427 514.5001,-197.6427 521.5001,-197.6426"/>
</g>
<!-- Node23 -->
<g id="node24" class="node">
<title>Node23</title>
<polygon fill="none" stroke="#bfbfbf" points="413.5,-112.5 413.5,-131.5 478.5,-131.5 478.5,-112.5 413.5,-112.5"/>
<text text-anchor="middle" x="446" y="-119.5" font-family="Helvetica,sans-Serif" font-size="10.00" fill="#000000">stdexcept</text>
</g>
<!-- Node22&#45;&gt;Node23 -->
<g id="edge34" class="edge">
<title>Node22&#45;&gt;Node23</title>
<path fill="none" stroke="#191970" d="M586.776,-168.3733C558.5075,-159.0613 515.5035,-144.8953 484.4656,-134.671"/>
<polygon fill="#191970" stroke="#191970" points="485.4357,-131.3056 474.8427,-131.5011 483.2456,-137.9542 485.4357,-131.3056"/>
</g>
<!-- Node24 -->
<g id="node25" class="node">
<title>Node24</title>
<polygon fill="none" stroke="#bfbfbf" points="496.5,-112.5 496.5,-131.5 561.5,-131.5 561.5,-112.5 496.5,-112.5"/>
<text text-anchor="middle" x="529" y="-119.5" font-family="Helvetica,sans-Serif" font-size="10.00" fill="#000000">exception</text>
</g>
<!-- Node22&#45;&gt;Node24 -->
<g id="edge35" class="edge">
<title>Node22&#45;&gt;Node24</title>
<path fill="none" stroke="#191970" d="M600.8458,-168.2455C587.4973,-159.6534 567.8414,-147.0014 552.4617,-137.1018"/>
<polygon fill="#191970" stroke="#191970" points="554.2836,-134.1121 543.9806,-131.6427 550.4949,-139.9982 554.2836,-134.1121"/>
</g>
<!-- Node31&#45;&gt;Node25 -->
<g id="edge45" class="edge">
<title>Node31&#45;&gt;Node25</title>
<path fill="none" stroke="#191970" d="M722.6208,-168.3733C700.4955,-159.2629 667.0866,-145.5062 642.3981,-135.3404"/>
<polygon fill="#191970" stroke="#191970" points="643.6536,-132.0723 633.0742,-131.5011 640.9883,-138.5451 643.6536,-132.0723"/>
</g>
<!-- Node32 -->
<g id="node33" class="node">
<title>Node32</title>
<polygon fill="none" stroke="#bfbfbf" points="786.5,-112.5 786.5,-131.5 855.5,-131.5 855.5,-112.5 786.5,-112.5"/>
<text text-anchor="middle" x="821" y="-119.5" font-family="Helvetica,sans-Serif" font-size="10.00" fill="#000000">type_traits</text>
</g>
<!-- Node31&#45;&gt;Node32 -->
<g id="edge46" class="edge">
<title>Node31&#45;&gt;Node32</title>
<path fill="none" stroke="#191970" d="M759.064,-168.2455C770.3562,-159.814 786.8845,-147.4729 800.0271,-137.6598"/>
<polygon fill="#191970" stroke="#191970" points="802.1669,-140.4301 808.0857,-131.6427 797.9789,-134.8211 802.1669,-140.4301"/>
</g>
<!-- Node33 -->
<g id="node34" class="node">
<title>Node33</title>
<polygon fill="none" stroke="#bfbfbf" points="658.5,-112.5 658.5,-131.5 709.5,-131.5 709.5,-112.5 658.5,-112.5"/>
<text text-anchor="middle" x="684" y="-119.5" font-family="Helvetica,sans-Serif" font-size="10.00" fill="#000000">variant</text>
</g>
<!-- Node31&#45;&gt;Node33 -->
<g id="edge47" class="edge">
<title>Node31&#45;&gt;Node33</title>
<path fill="none" stroke="#191970" d="M735.2004,-168.2455C726.1322,-160.0549 712.9794,-148.1749 702.2755,-138.5069"/>
<polygon fill="#191970" stroke="#191970" points="704.4429,-135.7482 694.6758,-131.6427 699.7509,-140.9429 704.4429,-135.7482"/>
</g>
<!-- Node34 -->
<g id="node35" class="node">
<title>Node34</title>
<polygon fill="none" stroke="#bfbfbf" points="727.5,-112.5 727.5,-131.5 768.5,-131.5 768.5,-112.5 727.5,-112.5"/>
<text text-anchor="middle" x="748" y="-119.5" font-family="Helvetica,sans-Serif" font-size="10.00" fill="#000000">tuple</text>
</g>
<!-- Node31&#45;&gt;Node34 -->
<g id="edge48" class="edge">
<title>Node31&#45;&gt;Node34</title>
<path fill="none" stroke="#191970" d="M746.3484,-168.2455C746.6093,-160.9382 746.9752,-150.6944 747.2963,-141.7046"/>
<polygon fill="#191970" stroke="#191970" points="750.7964,-141.7613 747.6556,-131.6427 743.8008,-141.5113 750.7964,-141.7613"/>
</g>
<!-- Node36&#45;&gt;Node1 -->
<g id="edge55" class="edge">
<title>Node36&#45;&gt;Node1</title>
<path fill="none" stroke="#191970" d="M1460.6716,-336.2455C1447.1697,-327.6534 1427.2878,-315.0014 1411.7314,-305.1018"/>
<polygon fill="#191970" stroke="#191970" points="1413.4685,-302.0587 1403.1528,-299.6427 1409.7103,-307.9643 1413.4685,-302.0587"/>
</g>
<!-- Node36&#45;&gt;Node2 -->
<g id="edge54" class="edge">
<title>Node36&#45;&gt;Node2</title>
<path fill="none" stroke="#191970" d="M1476,-336.4509C1476,-318.184 1476,-277.9553 1476,-253.6976"/>
<polygon fill="#191970" stroke="#191970" points="1479.5001,-253.5249 1476,-243.5249 1472.5001,-253.5249 1479.5001,-253.5249"/>
</g>
<!-- Node36&#45;&gt;Node9 -->
<g id="edge53" class="edge">
<title>Node36&#45;&gt;Node9</title>
<path fill="none" stroke="#191970" d="M1504.3792,-336.3745C1555.4133,-317.3316 1661.3285,-269.4867 1704,-188 1711.4693,-173.7364 1710.1406,-155.2573 1707.4195,-141.4819"/>
<polygon fill="#191970" stroke="#191970" points="1710.7924,-140.5362 1705.0802,-131.6131 1703.9811,-142.1508 1710.7924,-140.5362"/>
</g>
<!-- Node36&#45;&gt;Node16 -->
<g id="edge52" class="edge">
<title>Node36&#45;&gt;Node16</title>
<path fill="none" stroke="#191970" d="M1516.8047,-336.4696C1545.1298,-328.8953 1583.1643,-316.7754 1614,-300 1698.9357,-253.7927 1783.5349,-173.8129 1818.3907,-139.0041"/>
<polygon fill="#191970" stroke="#191970" points="1821.2326,-141.109 1825.7892,-131.544 1816.2624,-136.1798 1821.2326,-141.109"/>
</g>
<!-- Node37 -->
<g id="node38" class="node">
<title>Node37</title>
<g id="a_node38"><a xlink:href="Settings_8hxx.html" target="_top" xlink:title="Settings.hxx">
<polygon fill="none" stroke="#000000" points="886.5,-224.5 886.5,-243.5 963.5,-243.5 963.5,-224.5 886.5,-224.5"/>
<text text-anchor="middle" x="925" y="-231.5" font-family="Helvetica,sans-Serif" font-size="10.00" fill="#000000">Settings.hxx</text>
</a>
</g>
</g>
<!-- Node36&#45;&gt;Node37 -->
<g id="edge56" class="edge">
<title>Node36&#45;&gt;Node37</title>
<path fill="none" stroke="#191970" d="M1429.022,-336.4509C1325.507,-315.4098 1078.6394,-265.2298 973.6237,-243.8836"/>
<polygon fill="#191970" stroke="#191970" points="974.112,-240.4113 963.6152,-241.8492 972.7176,-247.2711 974.112,-240.4113"/>
</g>
<!-- Node37&#45;&gt;Node5 -->
<g id="edge57" class="edge">
<title>Node37&#45;&gt;Node5</title>
<path fill="none" stroke="#191970" d="M919.6253,-224.3689C908.5439,-203.1469 885.5966,-151.1338 903,-112 908.4508,-99.7432 918.9599,-89.3755 929.0289,-81.6036"/>
<polygon fill="#191970" stroke="#191970" points="931.1744,-84.3721 937.2627,-75.7012 927.096,-78.6828 931.1744,-84.3721"/>
</g>
<!-- Node37&#45;&gt;Node17 -->
<g id="edge58" class="edge">
<title>Node37&#45;&gt;Node17</title>
<path fill="none" stroke="#191970" d="M927.4725,-224.4509C932.2238,-206.1013 942.7131,-165.5908 948.9847,-141.3693"/>
<polygon fill="#191970" stroke="#191970" points="952.4153,-142.083 951.5337,-131.5249 945.6388,-140.3283 952.4153,-142.083"/>
</g>
<!-- Node37&#45;&gt;Node31 -->
<g id="edge59" class="edge">
<title>Node37&#45;&gt;Node31</title>
<path fill="none" stroke="#191970" d="M894.2288,-224.3733C864.335,-215.021 818.7907,-200.7725 786.0783,-190.5385"/>
<polygon fill="#191970" stroke="#191970" points="786.9586,-187.1466 776.3697,-187.5011 784.8685,-193.8273 786.9586,-187.1466"/>
</g>
<!-- Node38 -->
<g id="node39" class="node">
<title>Node38</title>
<polygon fill="none" stroke="#bfbfbf" points="953.5,-168.5 953.5,-187.5 1006.5,-187.5 1006.5,-168.5 953.5,-168.5"/>
<text text-anchor="middle" x="980" y="-175.5" font-family="Helvetica,sans-Serif" font-size="10.00" fill="#000000">cstddef</text>
</g>
<!-- Node37&#45;&gt;Node38 -->
<g id="edge60" class="edge">
<title>Node37&#45;&gt;Node38</title>
<path fill="none" stroke="#191970" d="M934.5803,-224.2455C942.5458,-216.1352 954.0641,-204.4075 963.5079,-194.7919"/>
<polygon fill="#191970" stroke="#191970" points="966.0195,-197.2297 970.5295,-187.6427 961.0253,-192.3247 966.0195,-197.2297"/>
</g>
<!-- Node39&#45;&gt;Node5 -->
<g id="edge63" class="edge">
<title>Node39&#45;&gt;Node5</title>
<path fill="none" stroke="#191970" d="M90.0235,-113.8263C94.7326,-113.1339 99.4569,-112.5063 104,-112 421.6542,-76.6012 809.2484,-68.1825 921.894,-66.4221"/>
<polygon fill="#191970" stroke="#191970" points="921.9788,-69.9213 931.9253,-66.2718 921.8739,-62.9221 921.9788,-69.9213"/>
</g>
<!-- Node39&#45;&gt;Node7 -->
<g id="edge64" class="edge">
<title>Node39&#45;&gt;Node7</title>
<path fill="none" stroke="#191970" d="M90.3901,-120.1527C303.4091,-111.4833 1201.4044,-74.937 1387.2512,-67.3735"/>
<polygon fill="#191970" stroke="#191970" points="1387.4098,-70.87 1397.2592,-66.9662 1387.1251,-63.8758 1387.4098,-70.87"/>
</g>
<!-- Node40 -->
<g id="node41" class="node">
<title>Node40</title>
<polygon fill="none" stroke="#bfbfbf" points="18,-56.5 18,-75.5 72,-75.5 72,-56.5 18,-56.5"/>
<text text-anchor="middle" x="45" y="-63.5" font-family="Helvetica,sans-Serif" font-size="10.00" fill="#000000">ciso646</text>
</g>
<!-- Node39&#45;&gt;Node40 -->
<g id="edge62" class="edge">
<title>Node39&#45;&gt;Node40</title>
<path fill="none" stroke="#191970" d="M45,-112.2455C45,-104.9382 45,-94.6944 45,-85.7046"/>
<polygon fill="#191970" stroke="#191970" points="48.5001,-85.6426 45,-75.6427 41.5001,-85.6427 48.5001,-85.6426"/>
</g>
</g>
</svg>
