<?xml version="1.0" encoding="UTF-8" standalone="no"?>
<!DOCTYPE svg PUBLIC "-//W3C//DTD SVG 1.1//EN"
 "http://www.w3.org/Graphics/SVG/1.1/DTD/svg11.dtd">
<!-- Generated by graphviz version 2.40.1 (20161225.0304)
 -->
<!-- Title: src/engine/ui/widgets/Text.cxx Pages: 1 -->
<!--zoomable 431 -->
<svg id="main" version="1.1" xmlns="http://www.w3.org/2000/svg" xmlns:xlink="http://www.w3.org/1999/xlink" xml:space="preserve" onload="init(evt)">
<style type="text/css"><![CDATA[
.edge:hover path { stroke: red; }
.edge:hover polygon { stroke: red; fill: red; }
]]></style>
<script type="text/javascript"><![CDATA[
var edges = document.getElementsByTagName('g');
if (edges && edges.length) {
  for (var i=0;i<edges.length;i++) {
    if (edges[i].id.substr(0,4)=='edge') {
      edges[i].setAttribute('class','edge');
    }
  }
}
]]></script>
        <defs>
                <circle id="rim" cx="0" cy="0" r="7"/>
                <circle id="rim2" cx="0" cy="0" r="3.5"/>
                <g id="zoomPlus">
                        <use xlink:href="#rim" fill="#404040">
                                <set attributeName="fill" to="#808080" begin="zoomplus.mouseover" end="zoomplus.mouseout"/>
                        </use>
                        <path d="M-4,0h8M0,-4v8" fill="none" stroke="white" stroke-width="1.5" pointer-events="none"/>
                </g>
                <g id="zoomMin">
                        <use xlink:href="#rim" fill="#404040">
                                <set attributeName="fill" to="#808080" begin="zoomminus.mouseover" end="zoomminus.mouseout"/>
                        </use>
                        <path d="M-4,0h8" fill="none" stroke="white" stroke-width="1.5" pointer-events="none"/>
                </g>
                <g id="dirArrow">
                        <path fill="none" stroke="white" stroke-width="1.5" d="M0,-3.0v7 M-2.5,-0.5L0,-3.0L2.5,-0.5"/>
                </g>
               <g id="resetDef">
                       <use xlink:href="#rim2" fill="#404040">
                               <set attributeName="fill" to="#808080" begin="reset.mouseover" end="reset.mouseout"/>
                       </use>
               </g>
        </defs>

<script type="text/javascript">
var viewWidth = 1844;
var viewHeight = 431;
var sectionId = 'dynsection-0';
</script>
<script xlink:href="svgpan.js"/>
<svg id="graph" class="graph">
<g id="viewport">
<title>src/engine/ui/widgets/Text.cxx</title>
<!-- Node0 -->
<g id="node1" class="node">
<title>Node0</title>
<polygon fill="#bfbfbf" stroke="#000000" points="1522,-392.5 1522,-422.5 1642,-422.5 1642,-392.5 1522,-392.5"/>
<text text-anchor="start" x="1530" y="-410.5" font-family="Helvetica,sans-Serif" font-size="10.00" fill="#000000">src/engine/ui/widgets</text>
<text text-anchor="middle" x="1582" y="-399.5" font-family="Helvetica,sans-Serif" font-size="10.00" fill="#000000">/Text.cxx</text>
</g>
<!-- Node1 -->
<g id="node2" class="node">
<title>Node1</title>
<g id="a_node2"><a xlink:href="Text_8hxx.html" target="_top" xlink:title="Text.hxx">
<polygon fill="none" stroke="#000000" points="327,-336.5 327,-355.5 385,-355.5 385,-336.5 327,-336.5"/>
<text text-anchor="middle" x="356" y="-343.5" font-family="Helvetica,sans-Serif" font-size="10.00" fill="#000000">Text.hxx</text>
</a>
</g>
</g>
<!-- Node0&#45;&gt;Node1 -->
<g id="edge1" class="edge">
<title>Node0&#45;&gt;Node1</title>
<path fill="none" stroke="#191970" d="M1521.6206,-404.4712C1305.4202,-393.6259 573.3008,-356.9005 395.2635,-347.9696"/>
<polygon fill="#191970" stroke="#191970" points="395.218,-344.463 385.0552,-347.4575 394.8672,-351.4542 395.218,-344.463"/>
</g>
<!-- Node24 -->
<g id="node25" class="node">
<title>Node24</title>
<g id="a_node25"><a xlink:href="LOG_8hxx.html" target="_top" xlink:title="LOG.hxx">
<polygon fill="none" stroke="#000000" points="1135,-224.5 1135,-243.5 1193,-243.5 1193,-224.5 1135,-224.5"/>
<text text-anchor="middle" x="1164" y="-231.5" font-family="Helvetica,sans-Serif" font-size="10.00" fill="#000000">LOG.hxx</text>
</a>
</g>
</g>
<!-- Node0&#45;&gt;Node24 -->
<g id="edge37" class="edge">
<title>Node0&#45;&gt;Node24</title>
<path fill="none" stroke="#191970" d="M1545.6365,-392.4065C1465.2276,-359.0311 1273.388,-279.4039 1196.5967,-247.53"/>
<polygon fill="#191970" stroke="#191970" points="1197.5474,-244.1351 1186.9696,-243.534 1194.8638,-250.6003 1197.5474,-244.1351"/>
</g>
<!-- Node25 -->
<g id="node26" class="node">
<title>Node25</title>
<g id="a_node26"><a xlink:href="Exception_8hxx.html" target="_top" xlink:title="Exception.hxx">
<polygon fill="none" stroke="#000000" points="1562,-168.5 1562,-187.5 1648,-187.5 1648,-168.5 1562,-168.5"/>
<text text-anchor="middle" x="1605" y="-175.5" font-family="Helvetica,sans-Serif" font-size="10.00" fill="#000000">Exception.hxx</text>
</a>
</g>
</g>
<!-- Node0&#45;&gt;Node25 -->
<g id="edge56" class="edge">
<title>Node0&#45;&gt;Node25</title>
<path fill="none" stroke="#191970" d="M1583.5091,-392.4419C1587.526,-352.3599 1598.4805,-243.0534 1603.0045,-197.9113"/>
<polygon fill="#191970" stroke="#191970" points="1606.4933,-198.1973 1604.008,-187.8981 1599.5282,-197.4992 1606.4933,-198.1973"/>
</g>
<!-- Node38 -->
<g id="node39" class="node">
<title>Node38</title>
<g id="a_node39"><a xlink:href="Settings_8hxx.html" target="_top" xlink:title="Settings.hxx">
<polygon fill="none" stroke="#000000" points="1495.5,-224.5 1495.5,-243.5 1572.5,-243.5 1572.5,-224.5 1495.5,-224.5"/>
<text text-anchor="middle" x="1534" y="-231.5" font-family="Helvetica,sans-Serif" font-size="10.00" fill="#000000">Settings.hxx</text>
</a>
</g>
</g>
<!-- Node0&#45;&gt;Node38 -->
<g id="edge57" class="edge">
<title>Node0&#45;&gt;Node38</title>
<path fill="none" stroke="#191970" d="M1577.8243,-392.4065C1569.1389,-361.0126 1549.132,-288.6961 1539.4481,-253.6925"/>
<polygon fill="#191970" stroke="#191970" points="1542.7339,-252.4427 1536.6941,-243.738 1535.9873,-254.3092 1542.7339,-252.4427"/>
</g>
<!-- Node40 -->
<g id="node41" class="node">
<title>Node40</title>
<g id="a_node41"><a xlink:href="Filesystem_8hxx.html" target="_top" xlink:title="Filesystem.hxx">
<polygon fill="none" stroke="#000000" points="1729,-112.5 1729,-131.5 1819,-131.5 1819,-112.5 1729,-112.5"/>
<text text-anchor="middle" x="1774" y="-119.5" font-family="Helvetica,sans-Serif" font-size="10.00" fill="#000000">Filesystem.hxx</text>
</a>
</g>
</g>
<!-- Node0&#45;&gt;Node40 -->
<g id="edge62" class="edge">
<title>Node0&#45;&gt;Node40</title>
<path fill="none" stroke="#191970" d="M1639.5929,-392.4605C1687.5376,-376.0549 1748,-344.5517 1748,-290 1748,-290 1748,-290 1748,-234 1748,-200.7204 1759.0271,-163.2857 1766.7187,-141.2224"/>
<polygon fill="#191970" stroke="#191970" points="1770.0487,-142.3059 1770.1636,-131.7117 1763.4671,-139.9219 1770.0487,-142.3059"/>
</g>
<!-- Node42 -->
<g id="node43" class="node">
<title>Node42</title>
<polygon fill="none" stroke="#bfbfbf" points="1776,-336.5 1776,-355.5 1836,-355.5 1836,-336.5 1776,-336.5"/>
<text text-anchor="middle" x="1806" y="-343.5" font-family="Helvetica,sans-Serif" font-size="10.00" fill="#000000">SDL_ttf.h</text>
</g>
<!-- Node0&#45;&gt;Node42 -->
<g id="edge66" class="edge">
<title>Node0&#45;&gt;Node42</title>
<path fill="none" stroke="#191970" d="M1636.7966,-392.4554C1676.8126,-381.4689 1730.1458,-366.826 1766.1537,-356.9399"/>
<polygon fill="#191970" stroke="#191970" points="1767.1084,-360.3074 1775.8249,-354.2847 1765.2551,-353.5572 1767.1084,-360.3074"/>
</g>
<!-- Node2 -->
<g id="node3" class="node">
<title>Node2</title>
<polygon fill="none" stroke="#bfbfbf" points="616,-56.5 616,-75.5 660,-75.5 660,-56.5 616,-56.5"/>
<text text-anchor="middle" x="638" y="-63.5" font-family="Helvetica,sans-Serif" font-size="10.00" fill="#000000">string</text>
</g>
<!-- Node1&#45;&gt;Node2 -->
<g id="edge2" class="edge">
<title>Node1&#45;&gt;Node2</title>
<path fill="none" stroke="#191970" d="M326.867,-343.1709C241.8438,-334.117 0,-302.3556 0,-234 0,-234 0,-234 0,-178 0,-143.6999 10.7505,-129.9154 40,-112 86.6474,-83.4285 476.4872,-80.5453 531,-76 556.1308,-73.9046 584.5524,-71.2342 605.7842,-69.1801"/>
<polygon fill="#191970" stroke="#191970" points="606.2654,-72.6499 615.8792,-68.1975 605.5872,-65.6828 606.2654,-72.6499"/>
</g>
<!-- Node3 -->
<g id="node4" class="node">
<title>Node3</title>
<g id="a_node4"><a xlink:href="UIElement_8hxx.html" target="_top" xlink:title="../basics/UIElement.hxx">
<polygon fill="none" stroke="#000000" points="290.5,-280.5 290.5,-299.5 421.5,-299.5 421.5,-280.5 290.5,-280.5"/>
<text text-anchor="middle" x="356" y="-287.5" font-family="Helvetica,sans-Serif" font-size="10.00" fill="#000000">../basics/UIElement.hxx</text>
</a>
</g>
</g>
<!-- Node1&#45;&gt;Node3 -->
<g id="edge3" class="edge">
<title>Node1&#45;&gt;Node3</title>
<path fill="none" stroke="#191970" d="M356,-336.2455C356,-328.9382 356,-318.6944 356,-309.7046"/>
<polygon fill="#191970" stroke="#191970" points="359.5001,-309.6426 356,-299.6427 352.5001,-309.6427 359.5001,-309.6426"/>
</g>
<!-- Node3&#45;&gt;Node2 -->
<g id="edge4" class="edge">
<title>Node3&#45;&gt;Node2</title>
<path fill="none" stroke="#191970" d="M290.4791,-286.9616C220.0177,-282.3319 114.1504,-270.9923 85,-244 40.9958,-203.2535 16.2307,-155.9831 57,-112 92.9062,-73.2634 478.3701,-80.4576 531,-76 556.128,-73.8717 584.5498,-71.2032 605.7823,-69.1581"/>
<polygon fill="#191970" stroke="#191970" points="606.2617,-72.6282 615.8778,-68.1806 605.587,-65.6608 606.2617,-72.6282"/>
</g>
<!-- Node4 -->
<g id="node5" class="node">
<title>Node4</title>
<g id="a_node5"><a xlink:href="mapEdit_8hxx.html" target="_top" xlink:title="../../basics/mapEdit.hxx">
<polygon fill="none" stroke="#000000" points="565,-224.5 565,-243.5 695,-243.5 695,-224.5 565,-224.5"/>
<text text-anchor="middle" x="630" y="-231.5" font-family="Helvetica,sans-Serif" font-size="10.00" fill="#000000">../../basics/mapEdit.hxx</text>
</a>
</g>
</g>
<!-- Node3&#45;&gt;Node4 -->
<g id="edge5" class="edge">
<title>Node3&#45;&gt;Node4</title>
<path fill="none" stroke="#191970" d="M402.791,-280.4369C449.9795,-270.7925 522.872,-255.8948 573.3124,-245.5858"/>
<polygon fill="#191970" stroke="#191970" points="574.3054,-248.9553 583.402,-243.5237 572.9037,-242.097 574.3054,-248.9553"/>
</g>
<!-- Node5 -->
<g id="node6" class="node">
<title>Node5</title>
<g id="a_node6"><a xlink:href="ResourcesManager_8hxx.html" target="_top" xlink:title="../../ResourcesManager.hxx">
<polygon fill="none" stroke="#000000" points="94,-224.5 94,-243.5 240,-243.5 240,-224.5 94,-224.5"/>
<text text-anchor="middle" x="167" y="-231.5" font-family="Helvetica,sans-Serif" font-size="10.00" fill="#000000">../../ResourcesManager.hxx</text>
</a>
</g>
</g>
<!-- Node3&#45;&gt;Node5 -->
<g id="edge7" class="edge">
<title>Node3&#45;&gt;Node5</title>
<path fill="none" stroke="#191970" d="M323.5097,-280.3733C291.8098,-270.9807 243.4424,-256.6496 208.8714,-246.4064"/>
<polygon fill="#191970" stroke="#191970" points="209.6486,-242.9863 199.0663,-243.5011 207.6599,-249.6979 209.6486,-242.9863"/>
</g>
<!-- Node8 -->
<g id="node9" class="node">
<title>Node8</title>
<polygon fill="none" stroke="#bfbfbf" points="543,-112.5 543,-131.5 587,-131.5 587,-112.5 543,-112.5"/>
<text text-anchor="middle" x="565" y="-119.5" font-family="Helvetica,sans-Serif" font-size="10.00" fill="#000000">SDL.h</text>
</g>
<!-- Node3&#45;&gt;Node8 -->
<g id="edge36" class="edge">
<title>Node3&#45;&gt;Node8</title>
<path fill="none" stroke="#191970" d="M348.4032,-280.1777C331.9498,-257.6439 296.6985,-201.5932 325,-168 353.6451,-133.999 473.514,-142.1337 532.7718,-131.6869"/>
<polygon fill="#191970" stroke="#191970" points="533.6894,-135.0707 542.7572,-129.5911 532.2515,-128.2199 533.6894,-135.0707"/>
</g>
<!-- Node18 -->
<g id="node19" class="node">
<title>Node18</title>
<g id="a_node19"><a xlink:href="WindowManager_8hxx.html" target="_top" xlink:title="../../WindowManager.hxx">
<polygon fill="none" stroke="#000000" points="740,-168.5 740,-187.5 876,-187.5 876,-168.5 740,-168.5"/>
<text text-anchor="middle" x="808" y="-175.5" font-family="Helvetica,sans-Serif" font-size="10.00" fill="#000000">../../WindowManager.hxx</text>
</a>
</g>
</g>
<!-- Node3&#45;&gt;Node18 -->
<g id="edge24" class="edge">
<title>Node3&#45;&gt;Node18</title>
<path fill="none" stroke="#191970" d="M421.5791,-284.7277C507.598,-277.229 653.5223,-262.3374 704,-244 736.2155,-232.2969 768.8588,-209.3764 788.7657,-193.8725"/>
<polygon fill="#191970" stroke="#191970" points="791.0801,-196.5038 796.7239,-187.5373 786.7204,-191.0272 791.0801,-196.5038"/>
</g>
<!-- Node19 -->
<g id="node20" class="node">
<title>Node19</title>
<g id="a_node20"><a xlink:href="signal_8hxx.html" target="_top" xlink:title="../../basics/signal.hxx">
<polygon fill="none" stroke="#000000" points="417.5,-224.5 417.5,-243.5 536.5,-243.5 536.5,-224.5 417.5,-224.5"/>
<text text-anchor="middle" x="477" y="-231.5" font-family="Helvetica,sans-Serif" font-size="10.00" fill="#000000">../../basics/signal.hxx</text>
</a>
</g>
</g>
<!-- Node3&#45;&gt;Node19 -->
<g id="edge30" class="edge">
<title>Node3&#45;&gt;Node19</title>
<path fill="none" stroke="#191970" d="M376.8006,-280.3733C396.2243,-271.3838 425.4224,-257.8706 447.2964,-247.7471"/>
<polygon fill="#191970" stroke="#191970" points="448.8656,-250.8776 456.4708,-243.5011 445.9255,-244.5249 448.8656,-250.8776"/>
</g>
<!-- Node4&#45;&gt;Node2 -->
<g id="edge6" class="edge">
<title>Node4&#45;&gt;Node2</title>
<path fill="none" stroke="#191970" d="M637.1015,-224.3724C643.2052,-215.4569 651.5517,-201.5662 655,-188 664.0864,-152.2523 653.2125,-109.2953 645.1497,-85.07"/>
<polygon fill="#191970" stroke="#191970" points="648.449,-83.9017 641.8288,-75.6299 641.8457,-86.2247 648.449,-83.9017"/>
</g>
<!-- Node6 -->
<g id="node7" class="node">
<title>Node6</title>
<polygon fill="none" stroke="#bfbfbf" points="1081,-112.5 1081,-131.5 1141,-131.5 1141,-112.5 1081,-112.5"/>
<text text-anchor="middle" x="1111" y="-119.5" font-family="Helvetica,sans-Serif" font-size="10.00" fill="#000000">iostream</text>
</g>
<!-- Node5&#45;&gt;Node6 -->
<g id="edge8" class="edge">
<title>Node5&#45;&gt;Node6</title>
<path fill="none" stroke="#191970" d="M184.3536,-224.443C212.7648,-209.335 271.4158,-180.3811 325,-168 361.6163,-159.5395 915.5113,-131.6613 1070.8004,-123.9767"/>
<polygon fill="#191970" stroke="#191970" points="1071.0472,-127.4689 1080.8622,-123.4795 1070.7016,-120.4774 1071.0472,-127.4689"/>
</g>
<!-- Node7 -->
<g id="node8" class="node">
<title>Node7</title>
<polygon fill="none" stroke="#bfbfbf" points="66.5,-112.5 66.5,-131.5 159.5,-131.5 159.5,-112.5 66.5,-112.5"/>
<text text-anchor="middle" x="113" y="-119.5" font-family="Helvetica,sans-Serif" font-size="10.00" fill="#000000">unordered_map</text>
</g>
<!-- Node5&#45;&gt;Node7 -->
<g id="edge9" class="edge">
<title>Node5&#45;&gt;Node7</title>
<path fill="none" stroke="#191970" d="M140.0356,-224.4934C123.8286,-217.2188 104.5492,-205.4326 95,-188 86.919,-173.2477 93.2882,-154.6184 100.5925,-140.9168"/>
<polygon fill="#191970" stroke="#191970" points="103.8226,-142.3292 105.8831,-131.9366 97.7914,-138.7759 103.8226,-142.3292"/>
</g>
<!-- Node5&#45;&gt;Node8 -->
<g id="edge10" class="edge">
<title>Node5&#45;&gt;Node8</title>
<path fill="none" stroke="#191970" d="M176.1131,-224.4098C190.8953,-209.5274 221.7149,-181.2119 254,-168 367.1734,-121.6867 409.402,-157.4562 532.9595,-131.8374"/>
<polygon fill="#191970" stroke="#191970" points="533.753,-135.2467 542.7845,-129.7076 532.27,-128.4056 533.753,-135.2467"/>
</g>
<!-- Node9 -->
<g id="node10" class="node">
<title>Node9</title>
<g id="a_node10"><a xlink:href="TileManager_8hxx.html" target="_top" xlink:title="TileManager.hxx">
<polygon fill="none" stroke="#000000" points="104.5,-168.5 104.5,-187.5 201.5,-187.5 201.5,-168.5 104.5,-168.5"/>
<text text-anchor="middle" x="153" y="-175.5" font-family="Helvetica,sans-Serif" font-size="10.00" fill="#000000">TileManager.hxx</text>
</a>
</g>
</g>
<!-- Node5&#45;&gt;Node9 -->
<g id="edge11" class="edge">
<title>Node5&#45;&gt;Node9</title>
<path fill="none" stroke="#191970" d="M164.5614,-224.2455C162.7145,-216.8579 160.1172,-206.4689 157.8522,-197.4087"/>
<polygon fill="#191970" stroke="#191970" points="161.2316,-196.4952 155.4107,-187.6427 154.4406,-198.193 161.2316,-196.4952"/>
</g>
<!-- Node9&#45;&gt;Node2 -->
<g id="edge14" class="edge">
<title>Node9&#45;&gt;Node2</title>
<path fill="none" stroke="#191970" d="M157.7254,-168.3493C165.6248,-153.384 183.0378,-124.957 207,-112 215.8016,-107.2407 507.6396,-78.6224 606.0022,-69.088"/>
<polygon fill="#191970" stroke="#191970" points="606.3445,-72.5713 615.9607,-68.1238 605.6699,-65.6039 606.3445,-72.5713"/>
</g>
<!-- Node9&#45;&gt;Node7 -->
<g id="edge13" class="edge">
<title>Node9&#45;&gt;Node7</title>
<path fill="none" stroke="#191970" d="M146.0325,-168.2455C140.4689,-160.4564 132.522,-149.3308 125.8171,-139.9439"/>
<polygon fill="#191970" stroke="#191970" points="128.5481,-137.7457 119.8876,-131.6427 122.852,-141.8144 128.5481,-137.7457"/>
</g>
<!-- Node9&#45;&gt;Node8 -->
<g id="edge12" class="edge">
<title>Node9&#45;&gt;Node8</title>
<path fill="none" stroke="#191970" d="M201.8072,-170.0322C206.5988,-169.3163 211.3911,-168.6263 216,-168 353.7749,-149.2764 393.2,-161.4084 532.996,-131.8532"/>
<polygon fill="#191970" stroke="#191970" points="533.7515,-135.2708 542.7936,-129.749 532.2816,-128.4268 533.7515,-135.2708"/>
</g>
<!-- Node10 -->
<g id="node11" class="node">
<title>Node10</title>
<g id="a_node11"><a xlink:href="tileData_8hxx.html" target="_top" xlink:title="tileData.hxx">
<polygon fill="none" stroke="#000000" points="447.5,-112.5 447.5,-131.5 524.5,-131.5 524.5,-112.5 447.5,-112.5"/>
<text text-anchor="middle" x="486" y="-119.5" font-family="Helvetica,sans-Serif" font-size="10.00" fill="#000000">tileData.hxx</text>
</a>
</g>
</g>
<!-- Node9&#45;&gt;Node10 -->
<g id="edge15" class="edge">
<title>Node9&#45;&gt;Node10</title>
<path fill="none" stroke="#191970" d="M201.5089,-169.8797C256.2757,-160.7064 348.0451,-145.3187 427,-132 430.3807,-131.4297 433.8701,-130.8403 437.3842,-130.2462"/>
<polygon fill="#191970" stroke="#191970" points="438.0069,-133.6906 447.2827,-128.5712 436.8389,-126.7888 438.0069,-133.6906"/>
</g>
<!-- Node15 -->
<g id="node16" class="node">
<title>Node15</title>
<polygon fill="none" stroke="#bfbfbf" points="216,-112.5 216,-131.5 274,-131.5 274,-112.5 216,-112.5"/>
<text text-anchor="middle" x="245" y="-119.5" font-family="Helvetica,sans-Serif" font-size="10.00" fill="#000000">json.hxx</text>
</g>
<!-- Node9&#45;&gt;Node15 -->
<g id="edge21" class="edge">
<title>Node9&#45;&gt;Node15</title>
<path fill="none" stroke="#191970" d="M169.0252,-168.2455C183.1408,-159.6534 203.9263,-147.0014 220.1899,-137.1018"/>
<polygon fill="#191970" stroke="#191970" points="222.4363,-139.8319 229.1585,-131.6427 218.7966,-133.8525 222.4363,-139.8319"/>
</g>
<!-- Node16 -->
<g id="node17" class="node">
<title>Node16</title>
<g id="a_node17"><a xlink:href="Singleton_8hxx.html" target="_top" xlink:title="Singleton.hxx">
<polygon fill="none" stroke="#000000" points="780.5,-112.5 780.5,-131.5 863.5,-131.5 863.5,-112.5 780.5,-112.5"/>
<text text-anchor="middle" x="822" y="-119.5" font-family="Helvetica,sans-Serif" font-size="10.00" fill="#000000">Singleton.hxx</text>
</a>
</g>
</g>
<!-- Node9&#45;&gt;Node16 -->
<g id="edge22" class="edge">
<title>Node9&#45;&gt;Node16</title>
<path fill="none" stroke="#191970" d="M201.6517,-173.9275C324.0457,-163.6823 643.933,-136.9055 769.924,-126.3591"/>
<polygon fill="#191970" stroke="#191970" points="770.4082,-129.8309 780.0813,-125.5089 769.8242,-122.8553 770.4082,-129.8309"/>
</g>
<!-- Node17 -->
<g id="node18" class="node">
<title>Node17</title>
<polygon fill="none" stroke="#bfbfbf" points="292.5,-112.5 292.5,-131.5 417.5,-131.5 417.5,-112.5 292.5,-112.5"/>
<text text-anchor="middle" x="355" y="-119.5" font-family="Helvetica,sans-Serif" font-size="10.00" fill="#000000">../common/enums.hxx</text>
</g>
<!-- Node9&#45;&gt;Node17 -->
<g id="edge23" class="edge">
<title>Node9&#45;&gt;Node17</title>
<path fill="none" stroke="#191970" d="M187.725,-168.3733C221.7508,-158.9404 273.7437,-144.5265 310.7234,-134.2747"/>
<polygon fill="#191970" stroke="#191970" points="312.0266,-137.5455 320.7281,-131.5011 310.1565,-130.7999 312.0266,-137.5455"/>
</g>
<!-- Node10&#45;&gt;Node2 -->
<g id="edge16" class="edge">
<title>Node10&#45;&gt;Node2</title>
<path fill="none" stroke="#191970" d="M512.1297,-112.3733C538.1351,-102.7923 578.0881,-88.0728 605.9848,-77.7951"/>
<polygon fill="#191970" stroke="#191970" points="607.4954,-80.9686 615.6689,-74.2273 605.0754,-74.4002 607.4954,-80.9686"/>
</g>
<!-- Node11 -->
<g id="node12" class="node">
<title>Node11</title>
<polygon fill="none" stroke="#bfbfbf" points="709.5,-56.5 709.5,-75.5 756.5,-75.5 756.5,-56.5 709.5,-56.5"/>
<text text-anchor="middle" x="733" y="-63.5" font-family="Helvetica,sans-Serif" font-size="10.00" fill="#000000">vector</text>
</g>
<!-- Node10&#45;&gt;Node11 -->
<g id="edge17" class="edge">
<title>Node10&#45;&gt;Node11</title>
<path fill="none" stroke="#191970" d="M524.5938,-113.25C572.5525,-102.3768 653.6204,-83.997 699.2253,-73.6574"/>
<polygon fill="#191970" stroke="#191970" points="700.2259,-77.0195 709.2045,-71.3949 698.6781,-70.1927 700.2259,-77.0195"/>
</g>
<!-- Node12 -->
<g id="node13" class="node">
<title>Node12</title>
<g id="a_node13"><a xlink:href="enums_8hxx.html" target="_top" xlink:title="enums.hxx">
<polygon fill="none" stroke="#000000" points="450.5,-56.5 450.5,-75.5 521.5,-75.5 521.5,-56.5 450.5,-56.5"/>
<text text-anchor="middle" x="486" y="-63.5" font-family="Helvetica,sans-Serif" font-size="10.00" fill="#000000">enums.hxx</text>
</a>
</g>
</g>
<!-- Node10&#45;&gt;Node12 -->
<g id="edge18" class="edge">
<title>Node10&#45;&gt;Node12</title>
<path fill="none" stroke="#191970" d="M486,-112.2455C486,-104.9382 486,-94.6944 486,-85.7046"/>
<polygon fill="#191970" stroke="#191970" points="489.5001,-85.6426 486,-75.6427 482.5001,-85.6427 489.5001,-85.6426"/>
</g>
<!-- Node13 -->
<g id="node14" class="node">
<title>Node13</title>
<polygon fill="none" stroke="#bfbfbf" points="410,-.5 410,-19.5 466,-19.5 466,-.5 410,-.5"/>
<text text-anchor="middle" x="438" y="-7.5" font-family="Helvetica,sans-Serif" font-size="10.00" fill="#000000">stddef.h</text>
</g>
<!-- Node12&#45;&gt;Node13 -->
<g id="edge19" class="edge">
<title>Node12&#45;&gt;Node13</title>
<path fill="none" stroke="#191970" d="M477.639,-56.2455C470.825,-48.2958 461.0319,-36.8706 452.8848,-27.3656"/>
<polygon fill="#191970" stroke="#191970" points="455.4305,-24.9575 446.2651,-19.6427 450.1157,-29.513 455.4305,-24.9575"/>
</g>
<!-- Node14 -->
<g id="node15" class="node">
<title>Node14</title>
<polygon fill="none" stroke="#bfbfbf" points="484,-.5 484,-19.5 584,-19.5 584,-.5 484,-.5"/>
<text text-anchor="middle" x="534" y="-7.5" font-family="Helvetica,sans-Serif" font-size="10.00" fill="#000000">betterEnums.hxx</text>
</g>
<!-- Node12&#45;&gt;Node14 -->
<g id="edge20" class="edge">
<title>Node12&#45;&gt;Node14</title>
<path fill="none" stroke="#191970" d="M494.361,-56.2455C501.175,-48.2958 510.9681,-36.8706 519.1152,-27.3656"/>
<polygon fill="#191970" stroke="#191970" points="521.8843,-29.513 525.7349,-19.6427 516.5695,-24.9575 521.8843,-29.513"/>
</g>
<!-- Node18&#45;&gt;Node2 -->
<g id="edge25" class="edge">
<title>Node18&#45;&gt;Node2</title>
<path fill="none" stroke="#191970" d="M793.5059,-168.4509C764.0228,-149.0268 696.8478,-104.7703 661.2073,-81.2895"/>
<polygon fill="#191970" stroke="#191970" points="662.7336,-78.1038 652.4574,-75.5249 658.8825,-83.9492 662.7336,-78.1038"/>
</g>
<!-- Node18&#45;&gt;Node6 -->
<g id="edge26" class="edge">
<title>Node18&#45;&gt;Node6</title>
<path fill="none" stroke="#191970" d="M859.7433,-168.4369C919.4484,-157.4023 1016.3636,-139.4906 1070.7272,-129.4432"/>
<polygon fill="#191970" stroke="#191970" points="1071.4894,-132.8617 1080.6867,-127.6025 1070.2171,-125.9782 1071.4894,-132.8617"/>
</g>
<!-- Node18&#45;&gt;Node8 -->
<g id="edge28" class="edge">
<title>Node18&#45;&gt;Node8</title>
<path fill="none" stroke="#191970" d="M766.5029,-168.4369C718.4389,-157.3604 640.3065,-139.3546 596.8033,-129.3292"/>
<polygon fill="#191970" stroke="#191970" points="597.5722,-125.9147 587.0416,-127.0795 596.0001,-132.7359 597.5722,-125.9147"/>
</g>
<!-- Node18&#45;&gt;Node11 -->
<g id="edge27" class="edge">
<title>Node18&#45;&gt;Node11</title>
<path fill="none" stroke="#191970" d="M799.8944,-168.408C792.3353,-159.29 780.918,-145.0668 772,-132 761.3744,-116.4311 750.5693,-97.8886 743.0353,-84.4277"/>
<polygon fill="#191970" stroke="#191970" points="746.0781,-82.6977 738.1769,-75.6393 739.9519,-86.0844 746.0781,-82.6977"/>
</g>
<!-- Node18&#45;&gt;Node16 -->
<g id="edge29" class="edge">
<title>Node18&#45;&gt;Node16</title>
<path fill="none" stroke="#191970" d="M810.4386,-168.2455C812.2855,-160.8579 814.8828,-150.4689 817.1478,-141.4087"/>
<polygon fill="#191970" stroke="#191970" points="820.5594,-142.193 819.5893,-131.6427 813.7684,-140.4952 820.5594,-142.193"/>
</g>
<!-- Node19&#45;&gt;Node11 -->
<g id="edge34" class="edge">
<title>Node19&#45;&gt;Node11</title>
<path fill="none" stroke="#191970" d="M490.5705,-224.4504C509.0754,-211.4791 543.3207,-187.654 573,-168 620.7467,-136.3815 677.4275,-100.6701 708.8916,-81.0045"/>
<polygon fill="#191970" stroke="#191970" points="710.8094,-83.9334 717.4392,-75.6692 707.1029,-77.9952 710.8094,-83.9334"/>
</g>
<!-- Node20 -->
<g id="node21" class="node">
<title>Node20</title>
<polygon fill="none" stroke="#bfbfbf" points="334,-168.5 334,-187.5 392,-187.5 392,-168.5 334,-168.5"/>
<text text-anchor="middle" x="363" y="-175.5" font-family="Helvetica,sans-Serif" font-size="10.00" fill="#000000">memory</text>
</g>
<!-- Node19&#45;&gt;Node20 -->
<g id="edge31" class="edge">
<title>Node19&#45;&gt;Node20</title>
<path fill="none" stroke="#191970" d="M457.4027,-224.3733C439.2669,-215.4644 412.0865,-202.1127 391.5413,-192.0203"/>
<polygon fill="#191970" stroke="#191970" points="392.8603,-188.7688 382.3416,-187.5011 389.7739,-195.0517 392.8603,-188.7688"/>
</g>
<!-- Node21 -->
<g id="node22" class="node">
<title>Node21</title>
<polygon fill="none" stroke="#bfbfbf" points="410.5,-168.5 410.5,-187.5 475.5,-187.5 475.5,-168.5 410.5,-168.5"/>
<text text-anchor="middle" x="443" y="-175.5" font-family="Helvetica,sans-Serif" font-size="10.00" fill="#000000">functional</text>
</g>
<!-- Node19&#45;&gt;Node21 -->
<g id="edge32" class="edge">
<title>Node19&#45;&gt;Node21</title>
<path fill="none" stroke="#191970" d="M471.0777,-224.2455C466.3973,-216.5367 459.7327,-205.5598 454.0711,-196.2348"/>
<polygon fill="#191970" stroke="#191970" points="457.0361,-194.3741 448.8545,-187.6427 451.0525,-198.007 457.0361,-194.3741"/>
</g>
<!-- Node22 -->
<g id="node23" class="node">
<title>Node22</title>
<polygon fill="none" stroke="#bfbfbf" points="494,-168.5 494,-187.5 526,-187.5 526,-168.5 494,-168.5"/>
<text text-anchor="middle" x="510" y="-175.5" font-family="Helvetica,sans-Serif" font-size="10.00" fill="#000000">list</text>
</g>
<!-- Node19&#45;&gt;Node22 -->
<g id="edge33" class="edge">
<title>Node19&#45;&gt;Node22</title>
<path fill="none" stroke="#191970" d="M482.7482,-224.2455C487.2435,-216.617 493.6248,-205.7881 499.0825,-196.5267"/>
<polygon fill="#191970" stroke="#191970" points="502.2561,-198.035 504.3177,-187.6427 496.2253,-194.4811 502.2561,-198.035"/>
</g>
<!-- Node23 -->
<g id="node24" class="node">
<title>Node23</title>
<polygon fill="none" stroke="#bfbfbf" points="582,-168.5 582,-187.5 646,-187.5 646,-168.5 582,-168.5"/>
<text text-anchor="middle" x="614" y="-175.5" font-family="Helvetica,sans-Serif" font-size="10.00" fill="#000000">algorithm</text>
</g>
<!-- Node19&#45;&gt;Node23 -->
<g id="edge35" class="edge">
<title>Node19&#45;&gt;Node23</title>
<path fill="none" stroke="#191970" d="M500.5511,-224.3733C522.8391,-215.2629 556.4937,-201.5062 581.3637,-191.3404"/>
<polygon fill="#191970" stroke="#191970" points="582.8239,-194.5247 590.7562,-187.5011 580.1753,-188.0451 582.8239,-194.5247"/>
</g>
<!-- Node24&#45;&gt;Node2 -->
<g id="edge38" class="edge">
<title>Node24&#45;&gt;Node2</title>
<path fill="none" stroke="#191970" d="M1134.9211,-231.294C1078.6679,-225.6058 957.4499,-211.0037 923,-188 889.3751,-165.5472 906.5721,-134.5317 873,-112 864.5974,-106.3606 732.9988,-82.6835 670.492,-71.6738"/>
<polygon fill="#191970" stroke="#191970" points="670.8295,-68.1795 660.3746,-69.8961 669.618,-75.0739 670.8295,-68.1795"/>
</g>
<!-- Node24&#45;&gt;Node6 -->
<g id="edge42" class="edge">
<title>Node24&#45;&gt;Node6</title>
<path fill="none" stroke="#191970" d="M1193.278,-231.4536C1242.5453,-226.4957 1338.6531,-213.7051 1359,-188 1364.5169,-181.0303 1364.6834,-174.8345 1359,-168 1333.0746,-136.8237 1214.8778,-126.6811 1151.4748,-123.4555"/>
<polygon fill="#191970" stroke="#191970" points="1151.5753,-119.9564 1141.4206,-122.9786 1151.2436,-126.9485 1151.5753,-119.9564"/>
</g>
<!-- Node24&#45;&gt;Node8 -->
<g id="edge47" class="edge">
<title>Node24&#45;&gt;Node8</title>
<path fill="none" stroke="#191970" d="M1134.8481,-231.9434C1050.6414,-225.8384 808.1527,-207.0551 731,-188 680.9296,-175.6337 625.8623,-151.4832 593.4185,-136.0767"/>
<polygon fill="#191970" stroke="#191970" points="594.6357,-132.7784 584.1067,-131.5988 591.602,-139.0869 594.6357,-132.7784"/>
</g>
<!-- Node24&#45;&gt;Node23 -->
<g id="edge48" class="edge">
<title>Node24&#45;&gt;Node23</title>
<path fill="none" stroke="#191970" d="M1134.8075,-231.3239C1061.3782,-224.5478 863.0717,-205.9712 698,-188 684.5212,-186.5326 669.8397,-184.823 656.5759,-183.2368"/>
<polygon fill="#191970" stroke="#191970" points="656.6394,-179.7193 646.2926,-181.9981 655.8022,-186.669 656.6394,-179.7193"/>
</g>
<!-- Node24&#45;&gt;Node25 -->
<g id="edge39" class="edge">
<title>Node24&#45;&gt;Node25</title>
<path fill="none" stroke="#191970" d="M1193.2768,-230.2823C1266.4261,-220.9935 1458.012,-196.6651 1551.7708,-184.7593"/>
<polygon fill="#191970" stroke="#191970" points="1552.4118,-188.2061 1561.8912,-183.4741 1551.53,-181.2618 1552.4118,-188.2061"/>
</g>
<!-- Node28 -->
<g id="node29" class="node">
<title>Node28</title>
<polygon fill="none" stroke="#bfbfbf" points="932,-168.5 932,-187.5 982,-187.5 982,-168.5 932,-168.5"/>
<text text-anchor="middle" x="957" y="-175.5" font-family="Helvetica,sans-Serif" font-size="10.00" fill="#000000">chrono</text>
</g>
<!-- Node24&#45;&gt;Node28 -->
<g id="edge43" class="edge">
<title>Node24&#45;&gt;Node28</title>
<path fill="none" stroke="#191970" d="M1134.8575,-226.4996C1102.3046,-218.0672 1047.8071,-203.7892 991.9363,-188.2153"/>
<polygon fill="#191970" stroke="#191970" points="992.8031,-184.8235 982.2299,-185.5003 990.9174,-191.5648 992.8031,-184.8235"/>
</g>
<!-- Node29 -->
<g id="node30" class="node">
<title>Node29</title>
<polygon fill="none" stroke="#bfbfbf" points="1000,-168.5 1000,-187.5 1044,-187.5 1044,-168.5 1000,-168.5"/>
<text text-anchor="middle" x="1022" y="-175.5" font-family="Helvetica,sans-Serif" font-size="10.00" fill="#000000">ctime</text>
</g>
<!-- Node24&#45;&gt;Node29 -->
<g id="edge44" class="edge">
<title>Node24&#45;&gt;Node29</title>
<path fill="none" stroke="#191970" d="M1139.5893,-224.3733C1115.8232,-215.0007 1079.5879,-200.7107 1053.6253,-190.472"/>
<polygon fill="#191970" stroke="#191970" points="1054.8121,-187.1777 1044.2253,-186.7649 1052.244,-193.6896 1054.8121,-187.1777"/>
</g>
<!-- Node30 -->
<g id="node31" class="node">
<title>Node30</title>
<polygon fill="none" stroke="#bfbfbf" points="1062.5,-168.5 1062.5,-187.5 1117.5,-187.5 1117.5,-168.5 1062.5,-168.5"/>
<text text-anchor="middle" x="1090" y="-175.5" font-family="Helvetica,sans-Serif" font-size="10.00" fill="#000000">fstream</text>
</g>
<!-- Node24&#45;&gt;Node30 -->
<g id="edge45" class="edge">
<title>Node24&#45;&gt;Node30</title>
<path fill="none" stroke="#191970" d="M1151.1102,-224.2455C1140.0746,-215.8943 1123.9708,-203.7076 1111.0647,-193.9408"/>
<polygon fill="#191970" stroke="#191970" points="1112.8283,-190.8862 1102.7421,-187.6427 1108.6041,-196.4681 1112.8283,-190.8862"/>
</g>
<!-- Node31 -->
<g id="node32" class="node">
<title>Node31</title>
<polygon fill="none" stroke="#bfbfbf" points="1136,-168.5 1136,-187.5 1192,-187.5 1192,-168.5 1136,-168.5"/>
<text text-anchor="middle" x="1164" y="-175.5" font-family="Helvetica,sans-Serif" font-size="10.00" fill="#000000">sstream</text>
</g>
<!-- Node24&#45;&gt;Node31 -->
<g id="edge46" class="edge">
<title>Node24&#45;&gt;Node31</title>
<path fill="none" stroke="#191970" d="M1164,-224.2455C1164,-216.9382 1164,-206.6944 1164,-197.7046"/>
<polygon fill="#191970" stroke="#191970" points="1167.5001,-197.6426 1164,-187.6427 1160.5001,-197.6427 1167.5001,-197.6426"/>
</g>
<!-- Node32 -->
<g id="node33" class="node">
<title>Node32</title>
<polygon fill="none" stroke="#bfbfbf" points="1210,-168.5 1210,-187.5 1258,-187.5 1258,-168.5 1210,-168.5"/>
<text text-anchor="middle" x="1234" y="-175.5" font-family="Helvetica,sans-Serif" font-size="10.00" fill="#000000">mutex</text>
</g>
<!-- Node24&#45;&gt;Node32 -->
<g id="edge49" class="edge">
<title>Node24&#45;&gt;Node32</title>
<path fill="none" stroke="#191970" d="M1176.1931,-224.2455C1186.6321,-215.8943 1201.8655,-203.7076 1214.074,-193.9408"/>
<polygon fill="#191970" stroke="#191970" points="1216.3244,-196.6227 1221.9467,-187.6427 1211.9515,-191.1566 1216.3244,-196.6227"/>
</g>
<!-- Node33 -->
<g id="node34" class="node">
<title>Node33</title>
<g id="a_node34"><a xlink:href="Meta_8hxx.html" target="_top" xlink:title="Meta.hxx">
<polygon fill="none" stroke="#000000" points="1444,-168.5 1444,-187.5 1506,-187.5 1506,-168.5 1444,-168.5"/>
<text text-anchor="middle" x="1475" y="-175.5" font-family="Helvetica,sans-Serif" font-size="10.00" fill="#000000">Meta.hxx</text>
</a>
</g>
</g>
<!-- Node24&#45;&gt;Node33 -->
<g id="edge50" class="edge">
<title>Node24&#45;&gt;Node33</title>
<path fill="none" stroke="#191970" d="M1193.2104,-229.4137C1242.2653,-221.6075 1344.2507,-204.9322 1430,-188 1431.2366,-187.7558 1432.4914,-187.5038 1433.7574,-187.2459"/>
<polygon fill="#191970" stroke="#191970" points="1434.5023,-190.6659 1443.5687,-185.1841 1433.0626,-183.8156 1434.5023,-190.6659"/>
</g>
<!-- Node37 -->
<g id="node38" class="node">
<title>Node37</title>
<g id="a_node38"><a xlink:href="LOG_8inl_8hxx.html" target="_top" xlink:title="LOG.inl.hxx">
<polygon fill="none" stroke="#000000" points="1276.5,-168.5 1276.5,-187.5 1349.5,-187.5 1349.5,-168.5 1276.5,-168.5"/>
<text text-anchor="middle" x="1313" y="-175.5" font-family="Helvetica,sans-Serif" font-size="10.00" fill="#000000">LOG.inl.hxx</text>
</a>
</g>
</g>
<!-- Node24&#45;&gt;Node37 -->
<g id="edge55" class="edge">
<title>Node24&#45;&gt;Node37</title>
<path fill="none" stroke="#191970" d="M1189.614,-224.3733C1214.0687,-215.1822 1251.1054,-201.2624 1278.2209,-191.0713"/>
<polygon fill="#191970" stroke="#191970" points="1279.5909,-194.2956 1287.7202,-187.5011 1277.1281,-187.7431 1279.5909,-194.2956"/>
</g>
<!-- Node26 -->
<g id="node27" class="node">
<title>Node26</title>
<polygon fill="none" stroke="#bfbfbf" points="1645.5,-112.5 1645.5,-131.5 1710.5,-131.5 1710.5,-112.5 1645.5,-112.5"/>
<text text-anchor="middle" x="1678" y="-119.5" font-family="Helvetica,sans-Serif" font-size="10.00" fill="#000000">stdexcept</text>
</g>
<!-- Node25&#45;&gt;Node26 -->
<g id="edge40" class="edge">
<title>Node25&#45;&gt;Node26</title>
<path fill="none" stroke="#191970" d="M1617.7156,-168.2455C1628.602,-159.8943 1644.4883,-147.7076 1657.22,-137.9408"/>
<polygon fill="#191970" stroke="#191970" points="1659.6261,-140.5063 1665.4301,-131.6427 1655.3654,-134.9523 1659.6261,-140.5063"/>
</g>
<!-- Node27 -->
<g id="node28" class="node">
<title>Node27</title>
<polygon fill="none" stroke="#bfbfbf" points="1562.5,-112.5 1562.5,-131.5 1627.5,-131.5 1627.5,-112.5 1562.5,-112.5"/>
<text text-anchor="middle" x="1595" y="-119.5" font-family="Helvetica,sans-Serif" font-size="10.00" fill="#000000">exception</text>
</g>
<!-- Node25&#45;&gt;Node27 -->
<g id="edge41" class="edge">
<title>Node25&#45;&gt;Node27</title>
<path fill="none" stroke="#191970" d="M1603.2581,-168.2455C1601.9533,-160.9382 1600.124,-150.6944 1598.5187,-141.7046"/>
<polygon fill="#191970" stroke="#191970" points="1601.9254,-140.8717 1596.7219,-131.6427 1595.0344,-142.1022 1601.9254,-140.8717"/>
</g>
<!-- Node33&#45;&gt;Node6 -->
<g id="edge51" class="edge">
<title>Node33&#45;&gt;Node6</title>
<path fill="none" stroke="#191970" d="M1443.5902,-170.703C1439.0417,-169.7387 1434.4086,-168.8065 1430,-168 1330.3064,-149.7619 1211.9969,-134.3045 1151.3187,-126.8228"/>
<polygon fill="#191970" stroke="#191970" points="1151.3802,-123.3043 1141.0289,-125.5625 1150.5292,-130.2523 1151.3802,-123.3043"/>
</g>
<!-- Node34 -->
<g id="node35" class="node">
<title>Node34</title>
<polygon fill="none" stroke="#bfbfbf" points="1367.5,-112.5 1367.5,-131.5 1436.5,-131.5 1436.5,-112.5 1367.5,-112.5"/>
<text text-anchor="middle" x="1402" y="-119.5" font-family="Helvetica,sans-Serif" font-size="10.00" fill="#000000">type_traits</text>
</g>
<!-- Node33&#45;&gt;Node34 -->
<g id="edge52" class="edge">
<title>Node33&#45;&gt;Node34</title>
<path fill="none" stroke="#191970" d="M1462.2844,-168.2455C1451.398,-159.8943 1435.5117,-147.7076 1422.78,-137.9408"/>
<polygon fill="#191970" stroke="#191970" points="1424.6346,-134.9523 1414.5699,-131.6427 1420.3739,-140.5063 1424.6346,-134.9523"/>
</g>
<!-- Node35 -->
<g id="node36" class="node">
<title>Node35</title>
<polygon fill="none" stroke="#bfbfbf" points="1454.5,-112.5 1454.5,-131.5 1505.5,-131.5 1505.5,-112.5 1454.5,-112.5"/>
<text text-anchor="middle" x="1480" y="-119.5" font-family="Helvetica,sans-Serif" font-size="10.00" fill="#000000">variant</text>
</g>
<!-- Node33&#45;&gt;Node35 -->
<g id="edge53" class="edge">
<title>Node33&#45;&gt;Node35</title>
<path fill="none" stroke="#191970" d="M1475.8709,-168.2455C1476.5234,-160.9382 1477.438,-150.6944 1478.2407,-141.7046"/>
<polygon fill="#191970" stroke="#191970" points="1481.7358,-141.9143 1479.139,-131.6427 1474.7635,-141.2918 1481.7358,-141.9143"/>
</g>
<!-- Node36 -->
<g id="node37" class="node">
<title>Node36</title>
<polygon fill="none" stroke="#bfbfbf" points="1308.5,-112.5 1308.5,-131.5 1349.5,-131.5 1349.5,-112.5 1308.5,-112.5"/>
<text text-anchor="middle" x="1329" y="-119.5" font-family="Helvetica,sans-Serif" font-size="10.00" fill="#000000">tuple</text>
</g>
<!-- Node33&#45;&gt;Node36 -->
<g id="edge54" class="edge">
<title>Node33&#45;&gt;Node36</title>
<path fill="none" stroke="#191970" d="M1449.9017,-168.3733C1424.7432,-158.7234 1385.9943,-143.8608 1359.1752,-133.5741"/>
<polygon fill="#191970" stroke="#191970" points="1360.124,-130.1894 1349.5338,-129.876 1357.6172,-136.7251 1360.124,-130.1894"/>
</g>
<!-- Node38&#45;&gt;Node2 -->
<g id="edge58" class="edge">
<title>Node38&#45;&gt;Node2</title>
<path fill="none" stroke="#191970" d="M1536.0627,-224.2102C1540.3707,-200.7324 1547.4189,-141.0268 1515,-112 1481.2761,-81.8048 746.0366,-80.5555 701,-76 690.8598,-74.9743 679.8683,-73.3937 669.9482,-71.7897"/>
<polygon fill="#191970" stroke="#191970" points="670.5203,-68.3369 660.0787,-70.132 669.3608,-75.2402 670.5203,-68.3369"/>
</g>
<!-- Node38&#45;&gt;Node16 -->
<g id="edge59" class="edge">
<title>Node38&#45;&gt;Node16</title>
<path fill="none" stroke="#191970" d="M1514.0851,-224.4108C1482.1801,-209.5298 1417.2663,-181.2162 1359,-168 1267.4313,-147.23 989.4007,-130.7545 873.5412,-124.6051"/>
<polygon fill="#191970" stroke="#191970" points="873.6739,-121.1073 863.5037,-124.0767 873.3058,-128.0977 873.6739,-121.1073"/>
</g>
<!-- Node38&#45;&gt;Node33 -->
<g id="edge60" class="edge">
<title>Node38&#45;&gt;Node33</title>
<path fill="none" stroke="#191970" d="M1523.723,-224.2455C1515.1782,-216.1352 1502.8222,-204.4075 1492.6915,-194.7919"/>
<polygon fill="#191970" stroke="#191970" points="1494.8218,-191.9884 1485.1592,-187.6427 1490.0028,-197.0655 1494.8218,-191.9884"/>
</g>
<!-- Node39 -->
<g id="node40" class="node">
<title>Node39</title>
<polygon fill="none" stroke="#bfbfbf" points="1666.5,-168.5 1666.5,-187.5 1719.5,-187.5 1719.5,-168.5 1666.5,-168.5"/>
<text text-anchor="middle" x="1693" y="-175.5" font-family="Helvetica,sans-Serif" font-size="10.00" fill="#000000">cstddef</text>
</g>
<!-- Node38&#45;&gt;Node39 -->
<g id="edge61" class="edge">
<title>Node38&#45;&gt;Node39</title>
<path fill="none" stroke="#191970" d="M1561.3331,-224.3733C1587.6229,-215.114 1627.5394,-201.0553 1656.5299,-190.8448"/>
<polygon fill="#191970" stroke="#191970" points="1658.0189,-194.0312 1666.2882,-187.4079 1655.6934,-187.4287 1658.0189,-194.0312"/>
</g>
<!-- Node40&#45;&gt;Node2 -->
<g id="edge64" class="edge">
<title>Node40&#45;&gt;Node2</title>
<path fill="none" stroke="#191970" d="M1728.9925,-113.151C1725.9564,-112.7129 1722.9381,-112.3222 1720,-112 1269.5285,-62.6064 1152.0689,-119.6025 701,-76 690.8554,-75.0194 679.8626,-73.4514 669.9427,-71.8452"/>
<polygon fill="#191970" stroke="#191970" points="670.5168,-68.3927 660.0739,-70.1804 669.3524,-75.2951 670.5168,-68.3927"/>
</g>
<!-- Node40&#45;&gt;Node11 -->
<g id="edge65" class="edge">
<title>Node40&#45;&gt;Node11</title>
<path fill="none" stroke="#191970" d="M1728.9882,-113.1893C1725.9531,-112.742 1722.9362,-112.3387 1720,-112 1529.2454,-89.9966 917.2861,-71.2979 766.7115,-66.9517"/>
<polygon fill="#191970" stroke="#191970" points="766.7759,-63.4522 756.6796,-66.6638 766.575,-70.4494 766.7759,-63.4522"/>
</g>
<!-- Node41 -->
<g id="node42" class="node">
<title>Node41</title>
<polygon fill="none" stroke="#bfbfbf" points="1747,-56.5 1747,-75.5 1801,-75.5 1801,-56.5 1747,-56.5"/>
<text text-anchor="middle" x="1774" y="-63.5" font-family="Helvetica,sans-Serif" font-size="10.00" fill="#000000">ciso646</text>
</g>
<!-- Node40&#45;&gt;Node41 -->
<g id="edge63" class="edge">
<title>Node40&#45;&gt;Node41</title>
<path fill="none" stroke="#191970" d="M1774,-112.2455C1774,-104.9382 1774,-94.6944 1774,-85.7046"/>
<polygon fill="#191970" stroke="#191970" points="1777.5001,-85.6426 1774,-75.6427 1770.5001,-85.6427 1777.5001,-85.6426"/>
</g>
</g>
</svg>
        <g id="navigator" transform="translate(0 0)" fill="#404254">
                <rect fill="#f2f5e9" fill-opacity="0.5" stroke="#606060" stroke-width=".5" x="0" y="0" width="60" height="60"/>
                <use id="zoomplus" xlink:href="#zoomPlus" x="17" y="9" onmousedown="handleZoom(evt,'in')"/>
                <use id="zoomminus" xlink:href="#zoomMin" x="42" y="9" onmousedown="handleZoom(evt,'out')"/>
                <use id="reset" xlink:href="#resetDef" x="30" y="36" onmousedown="handleReset()"/>
                <g id="arrowUp" xlink:href="#dirArrow" transform="translate(30 24)" onmousedown="handlePan(0,-1)">
                  <use xlink:href="#rim" fill="#404040">
                        <set attributeName="fill" to="#808080" begin="arrowUp.mouseover" end="arrowUp.mouseout"/>
                  </use>
                  <path fill="none" stroke="white" stroke-width="1.5" d="M0,-3.0v7 M-2.5,-0.5L0,-3.0L2.5,-0.5"/>
                </g>
                <g id="arrowRight" xlink:href="#dirArrow" transform="rotate(90) translate(36 -43)" onmousedown="handlePan(1,0)">
                  <use xlink:href="#rim" fill="#404040">
                        <set attributeName="fill" to="#808080" begin="arrowRight.mouseover" end="arrowRight.mouseout"/>
                  </use>
                  <path fill="none" stroke="white" stroke-width="1.5" d="M0,-3.0v7 M-2.5,-0.5L0,-3.0L2.5,-0.5"/>
                </g>
                <g id="arrowDown" xlink:href="#dirArrow" transform="rotate(180) translate(-30 -48)" onmousedown="handlePan(0,1)">
                  <use xlink:href="#rim" fill="#404040">
                        <set attributeName="fill" to="#808080" begin="arrowDown.mouseover" end="arrowDown.mouseout"/>
                  </use>
                  <path fill="none" stroke="white" stroke-width="1.5" d="M0,-3.0v7 M-2.5,-0.5L0,-3.0L2.5,-0.5"/>
                </g>
                <g id="arrowLeft" xlink:href="#dirArrow" transform="rotate(270) translate(-36 17)" onmousedown="handlePan(-1,0)">
                  <use xlink:href="#rim" fill="#404040">
                        <set attributeName="fill" to="#808080" begin="arrowLeft.mouseover" end="arrowLeft.mouseout"/>
                  </use>
                  <path fill="none" stroke="white" stroke-width="1.5" d="M0,-3.0v7 M-2.5,-0.5L0,-3.0L2.5,-0.5"/>
                </g>
        </g>
        <svg viewBox="0 0 15 15" width="100%" height="30px" preserveAspectRatio="xMaxYMin meet">
         <g id="arrow_out" transform="scale(0.3 0.3)">
          <a xlink:href="Text_8cxx__incl_org.svg" target="_base">
           <rect id="button" ry="5" rx="5" y="6" x="6" height="38" width="38"
                fill="#f2f5e9" fill-opacity="0.5" stroke="#606060" stroke-width="1.0"/>
           <path id="arrow"
             d="M 11.500037,31.436501 C 11.940474,20.09759 22.043105,11.32322 32.158766,21.979434 L 37.068811,17.246167 C 37.068811,17.246167 37.088388,32 37.088388,32 L 22.160133,31.978069 C 22.160133,31.978069 26.997745,27.140456 26.997745,27.140456 C 18.528582,18.264221 13.291696,25.230495 11.500037,31.436501 z"
             style="fill:#404040;"/>
          </a>
         </g>
        </svg>
</svg>
