<?xml version="1.0" encoding="UTF-8" standalone="no"?>
<!DOCTYPE svg PUBLIC "-//W3C//DTD SVG 1.1//EN"
 "http://www.w3.org/Graphics/SVG/1.1/DTD/svg11.dtd">
<!-- Generated by graphviz version 2.40.1 (20161225.0304)
 -->
<!-- Title: src/engine/TileManager.cxx Pages: 1 -->
<!--zoomable 308 -->
<svg id="main" version="1.1" xmlns="http://www.w3.org/2000/svg" xmlns:xlink="http://www.w3.org/1999/xlink" xml:space="preserve" onload="init(evt)">
<style type="text/css"><![CDATA[
.edge:hover path { stroke: red; }
.edge:hover polygon { stroke: red; fill: red; }
]]></style>
<script type="text/javascript"><![CDATA[
var edges = document.getElementsByTagName('g');
if (edges && edges.length) {
  for (var i=0;i<edges.length;i++) {
    if (edges[i].id.substr(0,4)=='edge') {
      edges[i].setAttribute('class','edge');
    }
  }
}
]]></script>
        <defs>
                <circle id="rim" cx="0" cy="0" r="7"/>
                <circle id="rim2" cx="0" cy="0" r="3.5"/>
                <g id="zoomPlus">
                        <use xlink:href="#rim" fill="#404040">
                                <set attributeName="fill" to="#808080" begin="zoomplus.mouseover" end="zoomplus.mouseout"/>
                        </use>
                        <path d="M-4,0h8M0,-4v8" fill="none" stroke="white" stroke-width="1.5" pointer-events="none"/>
                </g>
                <g id="zoomMin">
                        <use xlink:href="#rim" fill="#404040">
                                <set attributeName="fill" to="#808080" begin="zoomminus.mouseover" end="zoomminus.mouseout"/>
                        </use>
                        <path d="M-4,0h8" fill="none" stroke="white" stroke-width="1.5" pointer-events="none"/>
                </g>
                <g id="dirArrow">
                        <path fill="none" stroke="white" stroke-width="1.5" d="M0,-3.0v7 M-2.5,-0.5L0,-3.0L2.5,-0.5"/>
                </g>
               <g id="resetDef">
                       <use xlink:href="#rim2" fill="#404040">
                               <set attributeName="fill" to="#808080" begin="reset.mouseover" end="reset.mouseout"/>
                       </use>
               </g>
        </defs>

<script type="text/javascript">
var viewWidth = 1705;
var viewHeight = 308;
var sectionId = 'dynsection-0';
</script>
<script xlink:href="svgpan.js"/>
<svg id="graph" class="graph">
<g id="viewport">
<title>src/engine/TileManager.cxx</title>
<!-- Node0 -->
<g id="node1" class="node">
<title>Node0</title>
<polygon fill="#bfbfbf" stroke="#000000" points="736.5,-280.5 736.5,-299.5 885.5,-299.5 885.5,-280.5 736.5,-280.5"/>
<text text-anchor="middle" x="811" y="-287.5" font-family="Helvetica,sans-Serif" font-size="10.00" fill="#000000">src/engine/TileManager.cxx</text>
</g>
<!-- Node1 -->
<g id="node2" class="node">
<title>Node1</title>
<g id="a_node2"><a xlink:href="TileManager_8hxx.html" target="_top" xlink:title="TileManager.hxx">
<polygon fill="none" stroke="#000000" points="485.5,-168.5 485.5,-187.5 582.5,-187.5 582.5,-168.5 485.5,-168.5"/>
<text text-anchor="middle" x="534" y="-175.5" font-family="Helvetica,sans-Serif" font-size="10.00" fill="#000000">TileManager.hxx</text>
</a>
</g>
</g>
<!-- Node0&#45;&gt;Node1 -->
<g id="edge1" class="edge">
<title>Node0&#45;&gt;Node1</title>
<path fill="none" stroke="#191970" d="M736.2785,-280.5014C680.5528,-272.369 609.9412,-259.5277 585,-244 566.647,-232.5739 552.3549,-212.0276 543.6292,-196.8849"/>
<polygon fill="#191970" stroke="#191970" points="546.5715,-194.9697 538.7123,-187.8645 540.4253,-198.3199 546.5715,-194.9697"/>
</g>
<!-- Node13 -->
<g id="node14" class="node">
<title>Node13</title>
<g id="a_node14"><a xlink:href="LOG_8hxx.html" target="_top" xlink:title="LOG.hxx">
<polygon fill="none" stroke="#000000" points="1166,-224.5 1166,-243.5 1224,-243.5 1224,-224.5 1166,-224.5"/>
<text text-anchor="middle" x="1195" y="-231.5" font-family="Helvetica,sans-Serif" font-size="10.00" fill="#000000">LOG.hxx</text>
</a>
</g>
</g>
<!-- Node0&#45;&gt;Node13 -->
<g id="edge14" class="edge">
<title>Node0&#45;&gt;Node13</title>
<path fill="none" stroke="#191970" d="M876.5756,-280.4369C956.8914,-268.7242 1090.3383,-249.2632 1156.0284,-239.6834"/>
<polygon fill="#191970" stroke="#191970" points="1156.5807,-243.1399 1165.9709,-238.2334 1155.5705,-236.2132 1156.5807,-243.1399"/>
</g>
<!-- Node14 -->
<g id="node15" class="node">
<title>Node14</title>
<g id="a_node15"><a xlink:href="Exception_8hxx.html" target="_top" xlink:title="Exception.hxx">
<polygon fill="none" stroke="#000000" points="1055,-168.5 1055,-187.5 1141,-187.5 1141,-168.5 1055,-168.5"/>
<text text-anchor="middle" x="1098" y="-175.5" font-family="Helvetica,sans-Serif" font-size="10.00" fill="#000000">Exception.hxx</text>
</a>
</g>
</g>
<!-- Node0&#45;&gt;Node14 -->
<g id="edge33" class="edge">
<title>Node0&#45;&gt;Node14</title>
<path fill="none" stroke="#191970" d="M835.4695,-280.4509C886.7265,-260.4482 1005.4637,-214.1117 1064.0527,-191.2477"/>
<polygon fill="#191970" stroke="#191970" points="1065.5491,-194.4209 1073.5925,-187.5249 1063.0043,-187.8999 1065.5491,-194.4209"/>
</g>
<!-- Node29 -->
<g id="node30" class="node">
<title>Node29</title>
<g id="a_node30"><a xlink:href="Settings_8hxx.html" target="_top" xlink:title="basics/Settings.hxx">
<polygon fill="none" stroke="#000000" points="755.5,-224.5 755.5,-243.5 866.5,-243.5 866.5,-224.5 755.5,-224.5"/>
<text text-anchor="middle" x="811" y="-231.5" font-family="Helvetica,sans-Serif" font-size="10.00" fill="#000000">basics/Settings.hxx</text>
</a>
</g>
</g>
<!-- Node0&#45;&gt;Node29 -->
<g id="edge34" class="edge">
<title>Node0&#45;&gt;Node29</title>
<path fill="none" stroke="#191970" d="M811,-280.2455C811,-272.9382 811,-262.6944 811,-253.7046"/>
<polygon fill="#191970" stroke="#191970" points="814.5001,-253.6426 811,-243.6427 807.5001,-253.6427 814.5001,-253.6426"/>
</g>
<!-- Node31 -->
<g id="node32" class="node">
<title>Node31</title>
<g id="a_node32"><a xlink:href="ResourcesManager_8hxx.html" target="_top" xlink:title="ResourcesManager.hxx">
<polygon fill="none" stroke="#000000" points="594,-224.5 594,-243.5 722,-243.5 722,-224.5 594,-224.5"/>
<text text-anchor="middle" x="658" y="-231.5" font-family="Helvetica,sans-Serif" font-size="10.00" fill="#000000">ResourcesManager.hxx</text>
</a>
</g>
</g>
<!-- Node0&#45;&gt;Node31 -->
<g id="edge39" class="edge">
<title>Node0&#45;&gt;Node31</title>
<path fill="none" stroke="#191970" d="M784.6984,-280.3733C759.5872,-271.1822 721.5562,-257.2624 693.7128,-247.0713"/>
<polygon fill="#191970" stroke="#191970" points="694.5522,-243.6516 683.9584,-243.5011 692.1462,-250.2251 694.5522,-243.6516"/>
</g>
<!-- Node32 -->
<g id="node33" class="node">
<title>Node32</title>
<g id="a_node33"><a xlink:href="Filesystem_8hxx.html" target="_top" xlink:title="Filesystem.hxx">
<polygon fill="none" stroke="#000000" points="26,-112.5 26,-131.5 116,-131.5 116,-112.5 26,-112.5"/>
<text text-anchor="middle" x="71" y="-119.5" font-family="Helvetica,sans-Serif" font-size="10.00" fill="#000000">Filesystem.hxx</text>
</a>
</g>
</g>
<!-- Node0&#45;&gt;Node32 -->
<g id="edge44" class="edge">
<title>Node0&#45;&gt;Node32</title>
<path fill="none" stroke="#191970" d="M753.2229,-280.4796C702.2159,-271.8207 625.9275,-258.2503 560,-244 395.2627,-208.3918 201.5823,-157.298 115.7817,-134.1823"/>
<polygon fill="#191970" stroke="#191970" points="116.6726,-130.7976 106.106,-131.5708 114.8485,-137.5558 116.6726,-130.7976"/>
</g>
<!-- Node34 -->
<g id="node35" class="node">
<title>Node34</title>
<polygon fill="none" stroke="#bfbfbf" points="1242,-224.5 1242,-243.5 1286,-243.5 1286,-224.5 1242,-224.5"/>
<text text-anchor="middle" x="1264" y="-231.5" font-family="Helvetica,sans-Serif" font-size="10.00" fill="#000000">bitset</text>
</g>
<!-- Node0&#45;&gt;Node34 -->
<g id="edge48" class="edge">
<title>Node0&#45;&gt;Node34</title>
<path fill="none" stroke="#191970" d="M885.6707,-286.4571C968.4261,-281.4991 1105.8018,-270.2091 1231.96,-243.8512"/>
<polygon fill="#191970" stroke="#191970" points="1232.7424,-247.2632 1241.7961,-241.7603 1231.2869,-240.4162 1232.7424,-247.2632"/>
</g>
<!-- Node2 -->
<g id="node3" class="node">
<title>Node2</title>
<polygon fill="none" stroke="#bfbfbf" points="700,-112.5 700,-131.5 744,-131.5 744,-112.5 700,-112.5"/>
<text text-anchor="middle" x="722" y="-119.5" font-family="Helvetica,sans-Serif" font-size="10.00" fill="#000000">SDL.h</text>
</g>
<!-- Node1&#45;&gt;Node2 -->
<g id="edge2" class="edge">
<title>Node1&#45;&gt;Node2</title>
<path fill="none" stroke="#191970" d="M566.9146,-168.4617C598.5184,-159.2638 647.5817,-144.8809 690,-132 690.1009,-131.9693 690.2021,-131.9386 690.3034,-131.9078"/>
<polygon fill="#191970" stroke="#191970" points="691.4508,-135.2168 699.9805,-128.9323 689.3934,-128.526 691.4508,-135.2168"/>
</g>
<!-- Node3 -->
<g id="node4" class="node">
<title>Node3</title>
<polygon fill="none" stroke="#bfbfbf" points="487.5,-112.5 487.5,-131.5 580.5,-131.5 580.5,-112.5 487.5,-112.5"/>
<text text-anchor="middle" x="534" y="-119.5" font-family="Helvetica,sans-Serif" font-size="10.00" fill="#000000">unordered_map</text>
</g>
<!-- Node1&#45;&gt;Node3 -->
<g id="edge3" class="edge">
<title>Node1&#45;&gt;Node3</title>
<path fill="none" stroke="#191970" d="M534,-168.2455C534,-160.9382 534,-150.6944 534,-141.7046"/>
<polygon fill="#191970" stroke="#191970" points="537.5001,-141.6426 534,-131.6427 530.5001,-141.6427 537.5001,-141.6426"/>
</g>
<!-- Node4 -->
<g id="node5" class="node">
<title>Node4</title>
<polygon fill="none" stroke="#bfbfbf" points="227,-56.5 227,-75.5 271,-75.5 271,-56.5 227,-56.5"/>
<text text-anchor="middle" x="249" y="-63.5" font-family="Helvetica,sans-Serif" font-size="10.00" fill="#000000">string</text>
</g>
<!-- Node1&#45;&gt;Node4 -->
<g id="edge4" class="edge">
<title>Node1&#45;&gt;Node4</title>
<path fill="none" stroke="#191970" d="M485.2262,-176.5194C414.8259,-173.3122 289.7803,-163.257 259,-132 247.2067,-120.0241 245.5664,-100.4346 246.3602,-85.7018"/>
<polygon fill="#191970" stroke="#191970" points="249.8595,-85.8733 247.3139,-75.5889 242.8904,-85.216 249.8595,-85.8733"/>
</g>
<!-- Node5 -->
<g id="node6" class="node">
<title>Node5</title>
<g id="a_node6"><a xlink:href="tileData_8hxx.html" target="_top" xlink:title="tileData.hxx">
<polygon fill="none" stroke="#000000" points="134.5,-112.5 134.5,-131.5 211.5,-131.5 211.5,-112.5 134.5,-112.5"/>
<text text-anchor="middle" x="173" y="-119.5" font-family="Helvetica,sans-Serif" font-size="10.00" fill="#000000">tileData.hxx</text>
</a>
</g>
</g>
<!-- Node1&#45;&gt;Node5 -->
<g id="edge5" class="edge">
<title>Node1&#45;&gt;Node5</title>
<path fill="none" stroke="#191970" d="M485.3648,-171.322C424.5846,-162.8418 317.4263,-147.4466 226,-132 224.5574,-131.7563 223.0934,-131.505 221.616,-131.2481"/>
<polygon fill="#191970" stroke="#191970" points="222.2159,-127.7999 211.7566,-129.4895 220.9866,-134.6912 222.2159,-127.7999"/>
</g>
<!-- Node10 -->
<g id="node11" class="node">
<title>Node10</title>
<polygon fill="none" stroke="#bfbfbf" points="268,-112.5 268,-131.5 326,-131.5 326,-112.5 268,-112.5"/>
<text text-anchor="middle" x="297" y="-119.5" font-family="Helvetica,sans-Serif" font-size="10.00" fill="#000000">json.hxx</text>
</g>
<!-- Node1&#45;&gt;Node10 -->
<g id="edge11" class="edge">
<title>Node1&#45;&gt;Node10</title>
<path fill="none" stroke="#191970" d="M490.8217,-168.4136C452.5814,-159.8351 395.0007,-146.7033 335.9039,-132.1731"/>
<polygon fill="#191970" stroke="#191970" points="336.5705,-128.7326 326.0231,-129.7339 334.8928,-135.5286 336.5705,-128.7326"/>
</g>
<!-- Node11 -->
<g id="node12" class="node">
<title>Node11</title>
<g id="a_node12"><a xlink:href="Singleton_8hxx.html" target="_top" xlink:title="Singleton.hxx">
<polygon fill="none" stroke="#000000" points="598.5,-112.5 598.5,-131.5 681.5,-131.5 681.5,-112.5 598.5,-112.5"/>
<text text-anchor="middle" x="640" y="-119.5" font-family="Helvetica,sans-Serif" font-size="10.00" fill="#000000">Singleton.hxx</text>
</a>
</g>
</g>
<!-- Node1&#45;&gt;Node11 -->
<g id="edge12" class="edge">
<title>Node1&#45;&gt;Node11</title>
<path fill="none" stroke="#191970" d="M552.4638,-168.2455C569.1074,-159.4527 593.7993,-146.4079 612.7192,-136.4125"/>
<polygon fill="#191970" stroke="#191970" points="614.5408,-139.4086 621.7478,-131.6427 611.2709,-133.2193 614.5408,-139.4086"/>
</g>
<!-- Node12 -->
<g id="node13" class="node">
<title>Node12</title>
<polygon fill="none" stroke="#bfbfbf" points="344.5,-112.5 344.5,-131.5 469.5,-131.5 469.5,-112.5 344.5,-112.5"/>
<text text-anchor="middle" x="407" y="-119.5" font-family="Helvetica,sans-Serif" font-size="10.00" fill="#000000">../common/enums.hxx</text>
</g>
<!-- Node1&#45;&gt;Node12 -->
<g id="edge13" class="edge">
<title>Node1&#45;&gt;Node12</title>
<path fill="none" stroke="#191970" d="M512.1679,-168.3733C491.6897,-159.3435 460.8601,-145.7494 437.8681,-135.6111"/>
<polygon fill="#191970" stroke="#191970" points="439.1093,-132.3333 428.5472,-131.5011 436.285,-138.7383 439.1093,-132.3333"/>
</g>
<!-- Node5&#45;&gt;Node4 -->
<g id="edge6" class="edge">
<title>Node5&#45;&gt;Node4</title>
<path fill="none" stroke="#191970" d="M186.2382,-112.2455C197.681,-103.814 214.4296,-91.4729 227.7475,-81.6598"/>
<polygon fill="#191970" stroke="#191970" points="229.9391,-84.3924 235.9135,-75.6427 225.7867,-78.757 229.9391,-84.3924"/>
</g>
<!-- Node6 -->
<g id="node7" class="node">
<title>Node6</title>
<polygon fill="none" stroke="#bfbfbf" points="72.5,-56.5 72.5,-75.5 119.5,-75.5 119.5,-56.5 72.5,-56.5"/>
<text text-anchor="middle" x="96" y="-63.5" font-family="Helvetica,sans-Serif" font-size="10.00" fill="#000000">vector</text>
</g>
<!-- Node5&#45;&gt;Node6 -->
<g id="edge7" class="edge">
<title>Node5&#45;&gt;Node6</title>
<path fill="none" stroke="#191970" d="M159.5876,-112.2455C147.9943,-103.814 131.0252,-91.4729 117.5322,-81.6598"/>
<polygon fill="#191970" stroke="#191970" points="119.4047,-78.6938 109.2587,-75.6427 115.2874,-84.355 119.4047,-78.6938"/>
</g>
<!-- Node7 -->
<g id="node8" class="node">
<title>Node7</title>
<g id="a_node8"><a xlink:href="enums_8hxx.html" target="_top" xlink:title="enums.hxx">
<polygon fill="none" stroke="#000000" points="137.5,-56.5 137.5,-75.5 208.5,-75.5 208.5,-56.5 137.5,-56.5"/>
<text text-anchor="middle" x="173" y="-63.5" font-family="Helvetica,sans-Serif" font-size="10.00" fill="#000000">enums.hxx</text>
</a>
</g>
</g>
<!-- Node5&#45;&gt;Node7 -->
<g id="edge8" class="edge">
<title>Node5&#45;&gt;Node7</title>
<path fill="none" stroke="#191970" d="M173,-112.2455C173,-104.9382 173,-94.6944 173,-85.7046"/>
<polygon fill="#191970" stroke="#191970" points="176.5001,-85.6426 173,-75.6427 169.5001,-85.6427 176.5001,-85.6426"/>
</g>
<!-- Node8 -->
<g id="node9" class="node">
<title>Node8</title>
<polygon fill="none" stroke="#bfbfbf" points="97,-.5 97,-19.5 153,-19.5 153,-.5 97,-.5"/>
<text text-anchor="middle" x="125" y="-7.5" font-family="Helvetica,sans-Serif" font-size="10.00" fill="#000000">stddef.h</text>
</g>
<!-- Node7&#45;&gt;Node8 -->
<g id="edge9" class="edge">
<title>Node7&#45;&gt;Node8</title>
<path fill="none" stroke="#191970" d="M164.639,-56.2455C157.825,-48.2958 148.0319,-36.8706 139.8848,-27.3656"/>
<polygon fill="#191970" stroke="#191970" points="142.4305,-24.9575 133.2651,-19.6427 137.1157,-29.513 142.4305,-24.9575"/>
</g>
<!-- Node9 -->
<g id="node10" class="node">
<title>Node9</title>
<polygon fill="none" stroke="#bfbfbf" points="171,-.5 171,-19.5 271,-19.5 271,-.5 171,-.5"/>
<text text-anchor="middle" x="221" y="-7.5" font-family="Helvetica,sans-Serif" font-size="10.00" fill="#000000">betterEnums.hxx</text>
</g>
<!-- Node7&#45;&gt;Node9 -->
<g id="edge10" class="edge">
<title>Node7&#45;&gt;Node9</title>
<path fill="none" stroke="#191970" d="M181.361,-56.2455C188.175,-48.2958 197.9681,-36.8706 206.1152,-27.3656"/>
<polygon fill="#191970" stroke="#191970" points="208.8843,-29.513 212.7349,-19.6427 203.5695,-24.9575 208.8843,-29.513"/>
</g>
<!-- Node13&#45;&gt;Node2 -->
<g id="edge24" class="edge">
<title>Node13&#45;&gt;Node2</title>
<path fill="none" stroke="#191970" d="M1165.666,-233.1382C1111.0555,-230.7464 990.7455,-221.7483 896,-188 879.4848,-182.1173 877.9749,-175.2221 862,-168 826.2885,-151.8552 783.1861,-138.5609 754.3252,-130.4867"/>
<polygon fill="#191970" stroke="#191970" points="754.9466,-127.0278 744.3766,-127.7526 753.0916,-133.7775 754.9466,-127.0278"/>
</g>
<!-- Node13&#45;&gt;Node4 -->
<g id="edge15" class="edge">
<title>Node13&#45;&gt;Node4</title>
<path fill="none" stroke="#191970" d="M1190.5794,-224.293C1185.1109,-210.7183 1177.7054,-185.7395 1188,-168 1204.1867,-140.1075 1234.8133,-159.8925 1251,-132 1255.4616,-124.3119 1257.1396,-118.4279 1251,-112 1216.7579,-76.1498 450.3886,-67.6799 281.6626,-66.2472"/>
<polygon fill="#191970" stroke="#191970" points="281.4559,-62.7454 271.4273,-66.1628 281.3981,-69.7452 281.4559,-62.7454"/>
</g>
<!-- Node13&#45;&gt;Node14 -->
<g id="edge16" class="edge">
<title>Node13&#45;&gt;Node14</title>
<path fill="none" stroke="#191970" d="M1178.1039,-224.2455C1163.082,-215.5731 1140.8957,-202.7645 1123.679,-192.825"/>
<polygon fill="#191970" stroke="#191970" points="1125.1128,-189.6114 1114.7025,-187.6427 1121.6129,-195.6737 1125.1128,-189.6114"/>
</g>
<!-- Node17 -->
<g id="node18" class="node">
<title>Node17</title>
<polygon fill="none" stroke="#bfbfbf" points="800,-112.5 800,-131.5 860,-131.5 860,-112.5 800,-112.5"/>
<text text-anchor="middle" x="830" y="-119.5" font-family="Helvetica,sans-Serif" font-size="10.00" fill="#000000">iostream</text>
</g>
<!-- Node13&#45;&gt;Node17 -->
<g id="edge19" class="edge">
<title>Node13&#45;&gt;Node17</title>
<path fill="none" stroke="#191970" d="M1165.67,-232.2194C1117.1104,-228.5122 1017.5733,-217.676 939,-188 905.8614,-175.484 871.5338,-152.8037 850.4695,-137.5711"/>
<polygon fill="#191970" stroke="#191970" points="852.4233,-134.6632 842.2962,-131.5501 848.2716,-140.2991 852.4233,-134.6632"/>
</g>
<!-- Node18 -->
<g id="node19" class="node">
<title>Node18</title>
<polygon fill="none" stroke="#bfbfbf" points="1197,-168.5 1197,-187.5 1247,-187.5 1247,-168.5 1197,-168.5"/>
<text text-anchor="middle" x="1222" y="-175.5" font-family="Helvetica,sans-Serif" font-size="10.00" fill="#000000">chrono</text>
</g>
<!-- Node13&#45;&gt;Node18 -->
<g id="edge20" class="edge">
<title>Node13&#45;&gt;Node18</title>
<path fill="none" stroke="#191970" d="M1199.703,-224.2455C1203.3424,-216.6973 1208.4924,-206.0158 1212.9262,-196.8197"/>
<polygon fill="#191970" stroke="#191970" points="1216.1605,-198.1704 1217.3509,-187.6427 1209.8551,-195.1303 1216.1605,-198.1704"/>
</g>
<!-- Node19 -->
<g id="node20" class="node">
<title>Node19</title>
<polygon fill="none" stroke="#bfbfbf" points="1265,-168.5 1265,-187.5 1309,-187.5 1309,-168.5 1265,-168.5"/>
<text text-anchor="middle" x="1287" y="-175.5" font-family="Helvetica,sans-Serif" font-size="10.00" fill="#000000">ctime</text>
</g>
<!-- Node13&#45;&gt;Node19 -->
<g id="edge21" class="edge">
<title>Node13&#45;&gt;Node19</title>
<path fill="none" stroke="#191970" d="M1211.0252,-224.2455C1225.1408,-215.6534 1245.9263,-203.0014 1262.1899,-193.1018"/>
<polygon fill="#191970" stroke="#191970" points="1264.4363,-195.8319 1271.1585,-187.6427 1260.7966,-189.8525 1264.4363,-195.8319"/>
</g>
<!-- Node20 -->
<g id="node21" class="node">
<title>Node20</title>
<polygon fill="none" stroke="#bfbfbf" points="1327.5,-168.5 1327.5,-187.5 1382.5,-187.5 1382.5,-168.5 1327.5,-168.5"/>
<text text-anchor="middle" x="1355" y="-175.5" font-family="Helvetica,sans-Serif" font-size="10.00" fill="#000000">fstream</text>
</g>
<!-- Node13&#45;&gt;Node20 -->
<g id="edge22" class="edge">
<title>Node13&#45;&gt;Node20</title>
<path fill="none" stroke="#191970" d="M1222.505,-224.3733C1248.8802,-215.1419 1288.8851,-201.1402 1318.0358,-190.9375"/>
<polygon fill="#191970" stroke="#191970" points="1319.5716,-194.1082 1327.8539,-187.5011 1317.2591,-187.5012 1319.5716,-194.1082"/>
</g>
<!-- Node21 -->
<g id="node22" class="node">
<title>Node21</title>
<polygon fill="none" stroke="#bfbfbf" points="1401,-168.5 1401,-187.5 1457,-187.5 1457,-168.5 1401,-168.5"/>
<text text-anchor="middle" x="1429" y="-175.5" font-family="Helvetica,sans-Serif" font-size="10.00" fill="#000000">sstream</text>
</g>
<!-- Node13&#45;&gt;Node21 -->
<g id="edge23" class="edge">
<title>Node13&#45;&gt;Node21</title>
<path fill="none" stroke="#191970" d="M1224.0198,-226.2526C1227.0485,-225.4771 1230.0844,-224.7135 1233,-224 1300.3547,-207.5177 1320.01,-205.5988 1390.8844,-188.2035"/>
<polygon fill="#191970" stroke="#191970" points="1391.882,-191.5623 1400.7495,-185.7641 1390.2017,-184.767 1391.882,-191.5623"/>
</g>
<!-- Node22 -->
<g id="node23" class="node">
<title>Node22</title>
<polygon fill="none" stroke="#bfbfbf" points="1475,-168.5 1475,-187.5 1539,-187.5 1539,-168.5 1475,-168.5"/>
<text text-anchor="middle" x="1507" y="-175.5" font-family="Helvetica,sans-Serif" font-size="10.00" fill="#000000">algorithm</text>
</g>
<!-- Node13&#45;&gt;Node22 -->
<g id="edge25" class="edge">
<title>Node13&#45;&gt;Node22</title>
<path fill="none" stroke="#191970" d="M1224.3868,-225.9437C1227.2876,-225.2457 1230.195,-224.5841 1233,-224 1332.4781,-203.2844 1361.4849,-208.1075 1464.9199,-188.0738"/>
<polygon fill="#191970" stroke="#191970" points="1465.6934,-191.4888 1474.8292,-186.1233 1464.3414,-184.6205 1465.6934,-191.4888"/>
</g>
<!-- Node23 -->
<g id="node24" class="node">
<title>Node23</title>
<polygon fill="none" stroke="#bfbfbf" points="1557,-168.5 1557,-187.5 1605,-187.5 1605,-168.5 1557,-168.5"/>
<text text-anchor="middle" x="1581" y="-175.5" font-family="Helvetica,sans-Serif" font-size="10.00" fill="#000000">mutex</text>
</g>
<!-- Node13&#45;&gt;Node23 -->
<g id="edge26" class="edge">
<title>Node13&#45;&gt;Node23</title>
<path fill="none" stroke="#191970" d="M1224.3638,-225.8273C1227.2692,-225.1529 1230.184,-224.5286 1233,-224 1368.2464,-198.6119 1408.1505,-215.7039 1546.8211,-187.9067"/>
<polygon fill="#191970" stroke="#191970" points="1547.8843,-191.2617 1556.9788,-185.8266 1546.4799,-184.4041 1547.8843,-191.2617"/>
</g>
<!-- Node24 -->
<g id="node25" class="node">
<title>Node24</title>
<g id="a_node25"><a xlink:href="Meta_8hxx.html" target="_top" xlink:title="Meta.hxx">
<polygon fill="none" stroke="#000000" points="948,-168.5 948,-187.5 1010,-187.5 1010,-168.5 948,-168.5"/>
<text text-anchor="middle" x="979" y="-175.5" font-family="Helvetica,sans-Serif" font-size="10.00" fill="#000000">Meta.hxx</text>
</a>
</g>
</g>
<!-- Node13&#45;&gt;Node24 -->
<g id="edge27" class="edge">
<title>Node13&#45;&gt;Node24</title>
<path fill="none" stroke="#191970" d="M1165.8693,-226.4476C1128.2369,-216.6911 1062.5133,-199.6516 1019.8903,-188.6012"/>
<polygon fill="#191970" stroke="#191970" points="1020.6694,-185.1875 1010.111,-186.0658 1018.9126,-191.9635 1020.6694,-185.1875"/>
</g>
<!-- Node28 -->
<g id="node29" class="node">
<title>Node28</title>
<g id="a_node29"><a xlink:href="LOG_8inl_8hxx.html" target="_top" xlink:title="LOG.inl.hxx">
<polygon fill="none" stroke="#000000" points="1623.5,-168.5 1623.5,-187.5 1696.5,-187.5 1696.5,-168.5 1623.5,-168.5"/>
<text text-anchor="middle" x="1660" y="-175.5" font-family="Helvetica,sans-Serif" font-size="10.00" fill="#000000">LOG.inl.hxx</text>
</a>
</g>
</g>
<!-- Node13&#45;&gt;Node28 -->
<g id="edge32" class="edge">
<title>Node13&#45;&gt;Node28</title>
<path fill="none" stroke="#191970" d="M1224.3532,-225.7695C1227.2608,-225.1068 1230.179,-224.501 1233,-224 1397.2779,-194.8244 1444.1532,-213.3745 1613.4181,-187.9011"/>
<polygon fill="#191970" stroke="#191970" points="1614.0623,-191.3433 1623.4158,-186.3672 1613.0007,-184.4243 1614.0623,-191.3433"/>
</g>
<!-- Node15 -->
<g id="node16" class="node">
<title>Node15</title>
<polygon fill="none" stroke="#bfbfbf" points="1176.5,-112.5 1176.5,-131.5 1241.5,-131.5 1241.5,-112.5 1176.5,-112.5"/>
<text text-anchor="middle" x="1209" y="-119.5" font-family="Helvetica,sans-Serif" font-size="10.00" fill="#000000">stdexcept</text>
</g>
<!-- Node14&#45;&gt;Node15 -->
<g id="edge17" class="edge">
<title>Node14&#45;&gt;Node15</title>
<path fill="none" stroke="#191970" d="M1117.0816,-168.3733C1134.7402,-159.4644 1161.2053,-146.1127 1181.2098,-136.0203"/>
<polygon fill="#191970" stroke="#191970" points="1182.8158,-139.1303 1190.1674,-131.5011 1179.6628,-132.8806 1182.8158,-139.1303"/>
</g>
<!-- Node16 -->
<g id="node17" class="node">
<title>Node16</title>
<polygon fill="none" stroke="#bfbfbf" points="1093.5,-112.5 1093.5,-131.5 1158.5,-131.5 1158.5,-112.5 1093.5,-112.5"/>
<text text-anchor="middle" x="1126" y="-119.5" font-family="Helvetica,sans-Serif" font-size="10.00" fill="#000000">exception</text>
</g>
<!-- Node14&#45;&gt;Node16 -->
<g id="edge18" class="edge">
<title>Node14&#45;&gt;Node16</title>
<path fill="none" stroke="#191970" d="M1102.8772,-168.2455C1106.6513,-160.6973 1111.9921,-150.0158 1116.5901,-140.8197"/>
<polygon fill="#191970" stroke="#191970" points="1119.837,-142.1522 1121.1787,-131.6427 1113.576,-139.0217 1119.837,-142.1522"/>
</g>
<!-- Node24&#45;&gt;Node17 -->
<g id="edge28" class="edge">
<title>Node24&#45;&gt;Node17</title>
<path fill="none" stroke="#191970" d="M953.386,-168.3733C928.9313,-159.1822 891.8946,-145.2624 864.7791,-135.0713"/>
<polygon fill="#191970" stroke="#191970" points="865.8719,-131.7431 855.2798,-131.5011 863.4091,-138.2956 865.8719,-131.7431"/>
</g>
<!-- Node25 -->
<g id="node26" class="node">
<title>Node25</title>
<polygon fill="none" stroke="#bfbfbf" points="937.5,-112.5 937.5,-131.5 1006.5,-131.5 1006.5,-112.5 937.5,-112.5"/>
<text text-anchor="middle" x="972" y="-119.5" font-family="Helvetica,sans-Serif" font-size="10.00" fill="#000000">type_traits</text>
</g>
<!-- Node24&#45;&gt;Node25 -->
<g id="edge29" class="edge">
<title>Node24&#45;&gt;Node25</title>
<path fill="none" stroke="#191970" d="M977.7807,-168.2455C976.8673,-160.9382 975.5868,-150.6944 974.4631,-141.7046"/>
<polygon fill="#191970" stroke="#191970" points="977.9187,-141.1313 973.2053,-131.6427 970.9728,-141.9996 977.9187,-141.1313"/>
</g>
<!-- Node26 -->
<g id="node27" class="node">
<title>Node26</title>
<polygon fill="none" stroke="#bfbfbf" points="1024.5,-112.5 1024.5,-131.5 1075.5,-131.5 1075.5,-112.5 1024.5,-112.5"/>
<text text-anchor="middle" x="1050" y="-119.5" font-family="Helvetica,sans-Serif" font-size="10.00" fill="#000000">variant</text>
</g>
<!-- Node24&#45;&gt;Node26 -->
<g id="edge30" class="edge">
<title>Node24&#45;&gt;Node26</title>
<path fill="none" stroke="#191970" d="M991.3673,-168.2455C1001.9554,-159.8943 1017.4064,-147.7076 1029.7893,-137.9408"/>
<polygon fill="#191970" stroke="#191970" points="1032.0903,-140.5837 1037.7745,-131.6427 1027.7553,-135.0875 1032.0903,-140.5837"/>
</g>
<!-- Node27 -->
<g id="node28" class="node">
<title>Node27</title>
<polygon fill="none" stroke="#bfbfbf" points="878.5,-112.5 878.5,-131.5 919.5,-131.5 919.5,-112.5 878.5,-112.5"/>
<text text-anchor="middle" x="899" y="-119.5" font-family="Helvetica,sans-Serif" font-size="10.00" fill="#000000">tuple</text>
</g>
<!-- Node24&#45;&gt;Node27 -->
<g id="edge31" class="edge">
<title>Node24&#45;&gt;Node27</title>
<path fill="none" stroke="#191970" d="M965.0651,-168.2455C952.9053,-159.7337 935.0536,-147.2375 920.9715,-137.3801"/>
<polygon fill="#191970" stroke="#191970" points="922.9747,-134.51 912.7752,-131.6427 918.9605,-140.2447 922.9747,-134.51"/>
</g>
<!-- Node29&#45;&gt;Node4 -->
<g id="edge35" class="edge">
<title>Node29&#45;&gt;Node4</title>
<path fill="none" stroke="#191970" d="M806.7239,-224.3442C794.1852,-196.1231 758.0735,-115.5385 753,-112 714.3309,-85.0301 386.2377,-70.9494 281.204,-67.1027"/>
<polygon fill="#191970" stroke="#191970" points="281.3118,-63.6044 271.1924,-66.7425 281.0601,-70.5999 281.3118,-63.6044"/>
</g>
<!-- Node29&#45;&gt;Node11 -->
<g id="edge36" class="edge">
<title>Node29&#45;&gt;Node11</title>
<path fill="none" stroke="#191970" d="M796.4206,-224.4509C766.7641,-205.0268 699.194,-160.7703 663.3438,-137.2895"/>
<polygon fill="#191970" stroke="#191970" points="664.8256,-134.0761 654.5425,-131.5249 660.9902,-139.9319 664.8256,-134.0761"/>
</g>
<!-- Node29&#45;&gt;Node24 -->
<g id="edge37" class="edge">
<title>Node29&#45;&gt;Node24</title>
<path fill="none" stroke="#191970" d="M839.8802,-224.3733C867.8161,-215.0613 910.3142,-200.8953 940.9869,-190.671"/>
<polygon fill="#191970" stroke="#191970" points="942.1166,-193.9839 950.4966,-187.5011 939.903,-187.3431 942.1166,-193.9839"/>
</g>
<!-- Node30 -->
<g id="node31" class="node">
<title>Node30</title>
<polygon fill="none" stroke="#bfbfbf" points="800.5,-168.5 800.5,-187.5 853.5,-187.5 853.5,-168.5 800.5,-168.5"/>
<text text-anchor="middle" x="827" y="-175.5" font-family="Helvetica,sans-Serif" font-size="10.00" fill="#000000">cstddef</text>
</g>
<!-- Node29&#45;&gt;Node30 -->
<g id="edge38" class="edge">
<title>Node29&#45;&gt;Node30</title>
<path fill="none" stroke="#191970" d="M813.787,-224.2455C815.8977,-216.8579 818.866,-206.4689 821.4547,-197.4087"/>
<polygon fill="#191970" stroke="#191970" points="824.863,-198.2195 824.245,-187.6427 818.1323,-196.2964 824.863,-198.2195"/>
</g>
<!-- Node31&#45;&gt;Node1 -->
<g id="edge43" class="edge">
<title>Node31&#45;&gt;Node1</title>
<path fill="none" stroke="#191970" d="M636.6836,-224.3733C616.7784,-215.3838 586.8564,-201.8706 564.44,-191.7471"/>
<polygon fill="#191970" stroke="#191970" points="565.5925,-188.4272 555.0382,-187.5011 562.7113,-194.8068 565.5925,-188.4272"/>
</g>
<!-- Node31&#45;&gt;Node2 -->
<g id="edge42" class="edge">
<title>Node31&#45;&gt;Node2</title>
<path fill="none" stroke="#191970" d="M660.376,-224.1094C663.8501,-210.7516 671.1102,-186.4901 682,-168 688.1864,-157.4959 696.9039,-147.1315 704.6223,-138.9077"/>
<polygon fill="#191970" stroke="#191970" points="707.1299,-141.3494 711.601,-131.7442 702.1159,-136.4647 707.1299,-141.3494"/>
</g>
<!-- Node31&#45;&gt;Node3 -->
<g id="edge41" class="edge">
<title>Node31&#45;&gt;Node3</title>
<path fill="none" stroke="#191970" d="M648.7428,-224.297C636.0703,-211.1518 612.4438,-187.1304 591,-168 579.3195,-157.5797 565.6933,-146.5449 554.693,-137.8959"/>
<polygon fill="#191970" stroke="#191970" points="556.5606,-134.914 546.5213,-131.5283 552.258,-140.4356 556.5606,-134.914"/>
</g>
<!-- Node31&#45;&gt;Node17 -->
<g id="edge40" class="edge">
<title>Node31&#45;&gt;Node17</title>
<path fill="none" stroke="#191970" d="M672.6646,-224.4509C702.6215,-204.9441 771.039,-160.3932 806.9783,-136.9909"/>
<polygon fill="#191970" stroke="#191970" points="808.9024,-139.9147 815.3725,-131.5249 805.0826,-134.0487 808.9024,-139.9147"/>
</g>
<!-- Node32&#45;&gt;Node4 -->
<g id="edge46" class="edge">
<title>Node32&#45;&gt;Node4</title>
<path fill="none" stroke="#191970" d="M101.5993,-112.3733C133.7991,-102.243 184.2589,-86.368 216.9828,-76.0728"/>
<polygon fill="#191970" stroke="#191970" points="218.4499,-79.2805 226.9386,-72.9407 216.3491,-72.6031 218.4499,-79.2805"/>
</g>
<!-- Node32&#45;&gt;Node6 -->
<g id="edge47" class="edge">
<title>Node32&#45;&gt;Node6</title>
<path fill="none" stroke="#191970" d="M75.3547,-112.2455C78.7244,-104.6973 83.493,-94.0158 87.5983,-84.8197"/>
<polygon fill="#191970" stroke="#191970" points="90.8147,-86.2009 91.6952,-75.6427 84.4227,-83.3473 90.8147,-86.2009"/>
</g>
<!-- Node33 -->
<g id="node34" class="node">
<title>Node33</title>
<polygon fill="none" stroke="#bfbfbf" points="0,-56.5 0,-75.5 54,-75.5 54,-56.5 0,-56.5"/>
<text text-anchor="middle" x="27" y="-63.5" font-family="Helvetica,sans-Serif" font-size="10.00" fill="#000000">ciso646</text>
</g>
<!-- Node32&#45;&gt;Node33 -->
<g id="edge45" class="edge">
<title>Node32&#45;&gt;Node33</title>
<path fill="none" stroke="#191970" d="M63.3358,-112.2455C57.1527,-104.3761 48.2937,-93.101 40.8711,-83.6542"/>
<polygon fill="#191970" stroke="#191970" points="43.5068,-81.3435 34.5764,-75.6427 38.0025,-85.6683 43.5068,-81.3435"/>
</g>
</g>
</svg>
        <g id="navigator" transform="translate(0 0)" fill="#404254">
                <rect fill="#f2f5e9" fill-opacity="0.5" stroke="#606060" stroke-width=".5" x="0" y="0" width="60" height="60"/>
                <use id="zoomplus" xlink:href="#zoomPlus" x="17" y="9" onmousedown="handleZoom(evt,'in')"/>
                <use id="zoomminus" xlink:href="#zoomMin" x="42" y="9" onmousedown="handleZoom(evt,'out')"/>
                <use id="reset" xlink:href="#resetDef" x="30" y="36" onmousedown="handleReset()"/>
                <g id="arrowUp" xlink:href="#dirArrow" transform="translate(30 24)" onmousedown="handlePan(0,-1)">
                  <use xlink:href="#rim" fill="#404040">
                        <set attributeName="fill" to="#808080" begin="arrowUp.mouseover" end="arrowUp.mouseout"/>
                  </use>
                  <path fill="none" stroke="white" stroke-width="1.5" d="M0,-3.0v7 M-2.5,-0.5L0,-3.0L2.5,-0.5"/>
                </g>
                <g id="arrowRight" xlink:href="#dirArrow" transform="rotate(90) translate(36 -43)" onmousedown="handlePan(1,0)">
                  <use xlink:href="#rim" fill="#404040">
                        <set attributeName="fill" to="#808080" begin="arrowRight.mouseover" end="arrowRight.mouseout"/>
                  </use>
                  <path fill="none" stroke="white" stroke-width="1.5" d="M0,-3.0v7 M-2.5,-0.5L0,-3.0L2.5,-0.5"/>
                </g>
                <g id="arrowDown" xlink:href="#dirArrow" transform="rotate(180) translate(-30 -48)" onmousedown="handlePan(0,1)">
                  <use xlink:href="#rim" fill="#404040">
                        <set attributeName="fill" to="#808080" begin="arrowDown.mouseover" end="arrowDown.mouseout"/>
                  </use>
                  <path fill="none" stroke="white" stroke-width="1.5" d="M0,-3.0v7 M-2.5,-0.5L0,-3.0L2.5,-0.5"/>
                </g>
                <g id="arrowLeft" xlink:href="#dirArrow" transform="rotate(270) translate(-36 17)" onmousedown="handlePan(-1,0)">
                  <use xlink:href="#rim" fill="#404040">
                        <set attributeName="fill" to="#808080" begin="arrowLeft.mouseover" end="arrowLeft.mouseout"/>
                  </use>
                  <path fill="none" stroke="white" stroke-width="1.5" d="M0,-3.0v7 M-2.5,-0.5L0,-3.0L2.5,-0.5"/>
                </g>
        </g>
        <svg viewBox="0 0 15 15" width="100%" height="30px" preserveAspectRatio="xMaxYMin meet">
         <g id="arrow_out" transform="scale(0.3 0.3)">
          <a xlink:href="TileManager_8cxx__incl_org.svg" target="_base">
           <rect id="button" ry="5" rx="5" y="6" x="6" height="38" width="38"
                fill="#f2f5e9" fill-opacity="0.5" stroke="#606060" stroke-width="1.0"/>
           <path id="arrow"
             d="M 11.500037,31.436501 C 11.940474,20.09759 22.043105,11.32322 32.158766,21.979434 L 37.068811,17.246167 C 37.068811,17.246167 37.088388,32 37.088388,32 L 22.160133,31.978069 C 22.160133,31.978069 26.997745,27.140456 26.997745,27.140456 C 18.528582,18.264221 13.291696,25.230495 11.500037,31.436501 z"
             style="fill:#404040;"/>
          </a>
         </g>
        </svg>
</svg>
