<?xml version="1.0" encoding="UTF-8" standalone="no"?>
<!DOCTYPE svg PUBLIC "-//W3C//DTD SVG 1.1//EN"
 "http://www.w3.org/Graphics/SVG/1.1/DTD/svg11.dtd">
<!-- Generated by graphviz version 2.40.1 (20161225.0304)
 -->
<!-- Title: src/engine/WindowManager.cxx Pages: 1 -->
<svg width="1261pt" height="196pt"
 viewBox="0.00 0.00 1261.00 196.00" xmlns="http://www.w3.org/2000/svg" xmlns:xlink="http://www.w3.org/1999/xlink">
<g id="graph0" class="graph" transform="scale(1 1) rotate(0) translate(4 192)">
<title>src/engine/WindowManager.cxx</title>
<!-- Node0 -->
<g id="node1" class="node">
<title>Node0</title>
<polygon fill="#bfbfbf" stroke="#000000" points="473.5,-168.5 473.5,-187.5 643.5,-187.5 643.5,-168.5 473.5,-168.5"/>
<text text-anchor="middle" x="558.5" y="-175.5" font-family="Helvetica,sans-Serif" font-size="10.00" fill="#000000">src/engine/WindowManager.cxx</text>
</g>
<!-- Node1 -->
<g id="node2" class="node">
<title>Node1</title>
<g id="a_node2"><a xlink:href="WindowManager_8hxx.html" target="_top" xlink:title="WindowManager.hxx">
<polygon fill="none" stroke="#000000" points="292.5,-112.5 292.5,-131.5 410.5,-131.5 410.5,-112.5 292.5,-112.5"/>
<text text-anchor="middle" x="351.5" y="-119.5" font-family="Helvetica,sans-Serif" font-size="10.00" fill="#000000">WindowManager.hxx</text>
</a>
</g>
</g>
<!-- Node0&#45;&gt;Node1 -->
<g id="edge1" class="edge">
<title>Node0&#45;&gt;Node1</title>
<path fill="none" stroke="#191970" d="M522.9154,-168.3733C487.8984,-158.9001 434.3119,-144.4032 396.3875,-134.1435"/>
<polygon fill="#191970" stroke="#191970" points="397.1873,-130.7341 386.6202,-131.5011 395.3592,-137.4912 397.1873,-130.7341"/>
</g>
<!-- Node7 -->
<g id="node8" class="node">
<title>Node7</title>
<g id="a_node8"><a xlink:href="LOG_8hxx.html" target="_top" xlink:title="LOG.hxx">
<polygon fill="none" stroke="#000000" points="646.5,-112.5 646.5,-131.5 704.5,-131.5 704.5,-112.5 646.5,-112.5"/>
<text text-anchor="middle" x="675.5" y="-119.5" font-family="Helvetica,sans-Serif" font-size="10.00" fill="#000000">LOG.hxx</text>
</a>
</g>
</g>
<!-- Node0&#45;&gt;Node7 -->
<g id="edge7" class="edge">
<title>Node0&#45;&gt;Node7</title>
<path fill="none" stroke="#191970" d="M578.613,-168.3733C597.3103,-159.4241 625.3744,-145.9917 646.4934,-135.8835"/>
<polygon fill="#191970" stroke="#191970" points="648.1405,-138.9755 655.6494,-131.5011 645.1183,-132.6614 648.1405,-138.9755"/>
</g>
<!-- Node8 -->
<g id="node9" class="node">
<title>Node8</title>
<g id="a_node9"><a xlink:href="Exception_8hxx.html" target="_top" xlink:title="Exception.hxx">
<polygon fill="none" stroke="#000000" points="1136.5,-56.5 1136.5,-75.5 1222.5,-75.5 1222.5,-56.5 1136.5,-56.5"/>
<text text-anchor="middle" x="1179.5" y="-63.5" font-family="Helvetica,sans-Serif" font-size="10.00" fill="#000000">Exception.hxx</text>
</a>
</g>
</g>
<!-- Node0&#45;&gt;Node8 -->
<g id="edge26" class="edge">
<title>Node0&#45;&gt;Node8</title>
<path fill="none" stroke="#191970" d="M598.4093,-168.4593C630.1554,-160.3246 675.411,-147.5004 713.5,-132 731.1775,-124.8061 733.2115,-117.4568 751.5,-112 909.2252,-64.9387 959.3762,-98.5086 1126.306,-76.0209"/>
<polygon fill="#191970" stroke="#191970" points="1127.0024,-79.4577 1136.4227,-74.6092 1126.0349,-72.5249 1127.0024,-79.4577"/>
</g>
<!-- Node22 -->
<g id="node23" class="node">
<title>Node22</title>
<g id="a_node23"><a xlink:href="Settings_8hxx.html" target="_top" xlink:title="basics/Settings.hxx">
<polygon fill="none" stroke="#000000" points="163,-112.5 163,-131.5 274,-131.5 274,-112.5 163,-112.5"/>
<text text-anchor="middle" x="218.5" y="-119.5" font-family="Helvetica,sans-Serif" font-size="10.00" fill="#000000">basics/Settings.hxx</text>
</a>
</g>
</g>
<!-- Node0&#45;&gt;Node22 -->
<g id="edge27" class="edge">
<title>Node0&#45;&gt;Node22</title>
<path fill="none" stroke="#191970" d="M500.4382,-168.4369C440.431,-158.5533 346.9268,-143.1527 284.238,-132.8274"/>
<polygon fill="#191970" stroke="#191970" points="284.5018,-129.3238 274.0659,-131.152 283.3642,-136.2308 284.5018,-129.3238"/>
</g>
<!-- Node24 -->
<g id="node25" class="node">
<title>Node24</title>
<g id="a_node25"><a xlink:href="Filesystem_8hxx.html" target="_top" xlink:title="Filesystem.hxx">
<polygon fill="none" stroke="#000000" points="428.5,-112.5 428.5,-131.5 518.5,-131.5 518.5,-112.5 428.5,-112.5"/>
<text text-anchor="middle" x="473.5" y="-119.5" font-family="Helvetica,sans-Serif" font-size="10.00" fill="#000000">Filesystem.hxx</text>
</a>
</g>
</g>
<!-- Node0&#45;&gt;Node24 -->
<g id="edge32" class="edge">
<title>Node0&#45;&gt;Node24</title>
<path fill="none" stroke="#191970" d="M543.6941,-168.2455C530.7744,-159.7337 511.8069,-147.2375 496.8448,-137.3801"/>
<polygon fill="#191970" stroke="#191970" points="498.4124,-134.2216 488.1362,-131.6427 494.5613,-140.067 498.4124,-134.2216"/>
</g>
<!-- Node26 -->
<g id="node27" class="node">
<title>Node26</title>
<polygon fill="none" stroke="#bfbfbf" points="760.5,-112.5 760.5,-131.5 840.5,-131.5 840.5,-112.5 760.5,-112.5"/>
<text text-anchor="middle" x="800.5" y="-119.5" font-family="Helvetica,sans-Serif" font-size="10.00" fill="#000000">SDL_image.h</text>
</g>
<!-- Node0&#45;&gt;Node26 -->
<g id="edge36" class="edge">
<title>Node0&#45;&gt;Node26</title>
<path fill="none" stroke="#191970" d="M599.8263,-168.4369C641.4938,-158.7948 705.8523,-143.9019 750.4007,-133.5932"/>
<polygon fill="#191970" stroke="#191970" points="751.1966,-137.0016 760.15,-131.3372 749.6184,-130.1818 751.1966,-137.0016"/>
</g>
<!-- Node2 -->
<g id="node3" class="node">
<title>Node2</title>
<polygon fill="none" stroke="#bfbfbf" points="318.5,-56.5 318.5,-75.5 362.5,-75.5 362.5,-56.5 318.5,-56.5"/>
<text text-anchor="middle" x="340.5" y="-63.5" font-family="Helvetica,sans-Serif" font-size="10.00" fill="#000000">string</text>
</g>
<!-- Node1&#45;&gt;Node2 -->
<g id="edge2" class="edge">
<title>Node1&#45;&gt;Node2</title>
<path fill="none" stroke="#191970" d="M349.5839,-112.2455C348.1486,-104.9382 346.1364,-94.6944 344.3705,-85.7046"/>
<polygon fill="#191970" stroke="#191970" points="347.756,-84.7805 342.3941,-75.6427 340.8873,-86.1298 347.756,-84.7805"/>
</g>
<!-- Node3 -->
<g id="node4" class="node">
<title>Node3</title>
<polygon fill="none" stroke="#bfbfbf" points="320.5,-.5 320.5,-19.5 380.5,-19.5 380.5,-.5 320.5,-.5"/>
<text text-anchor="middle" x="350.5" y="-7.5" font-family="Helvetica,sans-Serif" font-size="10.00" fill="#000000">iostream</text>
</g>
<!-- Node1&#45;&gt;Node3 -->
<g id="edge3" class="edge">
<title>Node1&#45;&gt;Node3</title>
<path fill="none" stroke="#191970" d="M338.472,-112.3141C328.4208,-103.9649 315.2875,-90.922 309.5,-76 302.4867,-57.9174 316.2846,-39.3274 329.7291,-26.504"/>
<polygon fill="#191970" stroke="#191970" points="332.2809,-28.9193 337.4441,-19.6676 327.6385,-23.6802 332.2809,-28.9193"/>
</g>
<!-- Node4 -->
<g id="node5" class="node">
<title>Node4</title>
<polygon fill="none" stroke="#bfbfbf" points="381,-56.5 381,-75.5 428,-75.5 428,-56.5 381,-56.5"/>
<text text-anchor="middle" x="404.5" y="-63.5" font-family="Helvetica,sans-Serif" font-size="10.00" fill="#000000">vector</text>
</g>
<!-- Node1&#45;&gt;Node4 -->
<g id="edge4" class="edge">
<title>Node1&#45;&gt;Node4</title>
<path fill="none" stroke="#191970" d="M360.7319,-112.2455C368.3317,-104.2155 379.2877,-92.6394 388.3368,-83.0781"/>
<polygon fill="#191970" stroke="#191970" points="391.0421,-85.3115 395.3739,-75.6427 385.958,-80.4998 391.0421,-85.3115"/>
</g>
<!-- Node5 -->
<g id="node6" class="node">
<title>Node5</title>
<polygon fill="none" stroke="#bfbfbf" points="518.5,-56.5 518.5,-75.5 562.5,-75.5 562.5,-56.5 518.5,-56.5"/>
<text text-anchor="middle" x="540.5" y="-63.5" font-family="Helvetica,sans-Serif" font-size="10.00" fill="#000000">SDL.h</text>
</g>
<!-- Node1&#45;&gt;Node5 -->
<g id="edge5" class="edge">
<title>Node1&#45;&gt;Node5</title>
<path fill="none" stroke="#191970" d="M385.1794,-112.4978C415.2217,-103.9546 460.6321,-90.8775 508.5582,-76.2352"/>
<polygon fill="#191970" stroke="#191970" points="509.6387,-79.5648 518.1731,-73.2868 507.5864,-72.8724 509.6387,-79.5648"/>
</g>
<!-- Node6 -->
<g id="node7" class="node">
<title>Node6</title>
<g id="a_node7"><a xlink:href="Singleton_8hxx.html" target="_top" xlink:title="../util/Singleton.hxx">
<polygon fill="none" stroke="#000000" points="71,-56.5 71,-75.5 182,-75.5 182,-56.5 71,-56.5"/>
<text text-anchor="middle" x="126.5" y="-63.5" font-family="Helvetica,sans-Serif" font-size="10.00" fill="#000000">../util/Singleton.hxx</text>
</a>
</g>
</g>
<!-- Node1&#45;&gt;Node6 -->
<g id="edge6" class="edge">
<title>Node1&#45;&gt;Node6</title>
<path fill="none" stroke="#191970" d="M313.0768,-112.4369C274.8125,-102.9133 215.9663,-88.2672 174.6151,-77.9753"/>
<polygon fill="#191970" stroke="#191970" points="175.3141,-74.5426 164.7647,-75.5237 173.6234,-81.3353 175.3141,-74.5426"/>
</g>
<!-- Node7&#45;&gt;Node2 -->
<g id="edge8" class="edge">
<title>Node7&#45;&gt;Node2</title>
<path fill="none" stroke="#191970" d="M646.2796,-119.1702C593.4011,-113.7095 478.2525,-100.2617 372.5949,-75.955"/>
<polygon fill="#191970" stroke="#191970" points="373.2639,-72.517 362.7294,-73.6467 371.669,-79.3329 373.2639,-72.517"/>
</g>
<!-- Node7&#45;&gt;Node3 -->
<g id="edge12" class="edge">
<title>Node7&#45;&gt;Node3</title>
<path fill="none" stroke="#191970" d="M661.7059,-112.3649C637.9883,-95.9499 590.2264,-63.596 571.5,-56 511.1913,-31.5371 436.1295,-19.4551 390.8327,-13.9853"/>
<polygon fill="#191970" stroke="#191970" points="391.1467,-10.4983 380.8104,-12.8247 390.3414,-17.4519 391.1467,-10.4983"/>
</g>
<!-- Node7&#45;&gt;Node5 -->
<g id="edge17" class="edge">
<title>Node7&#45;&gt;Node5</title>
<path fill="none" stroke="#191970" d="M652.2927,-112.3733C630.0639,-103.1524 596.3612,-89.1721 571.7725,-78.9723"/>
<polygon fill="#191970" stroke="#191970" points="573.0885,-75.729 562.5105,-75.1303 570.4063,-82.1948 573.0885,-75.729"/>
</g>
<!-- Node7&#45;&gt;Node8 -->
<g id="edge9" class="edge">
<title>Node7&#45;&gt;Node8</title>
<path fill="none" stroke="#191970" d="M704.5349,-114.6641C709.1841,-113.6583 713.9587,-112.7242 718.5,-112 895.4478,-83.781 944.9965,-100.6283 1126.2845,-76.0349"/>
<polygon fill="#191970" stroke="#191970" points="1126.9989,-79.4696 1136.4263,-74.6348 1126.0416,-72.5353 1126.9989,-79.4696"/>
</g>
<!-- Node11 -->
<g id="node12" class="node">
<title>Node11</title>
<polygon fill="none" stroke="#bfbfbf" points="618.5,-56.5 618.5,-75.5 668.5,-75.5 668.5,-56.5 618.5,-56.5"/>
<text text-anchor="middle" x="643.5" y="-63.5" font-family="Helvetica,sans-Serif" font-size="10.00" fill="#000000">chrono</text>
</g>
<!-- Node7&#45;&gt;Node11 -->
<g id="edge13" class="edge">
<title>Node7&#45;&gt;Node11</title>
<path fill="none" stroke="#191970" d="M669.926,-112.2455C665.5669,-104.617 659.3789,-93.7881 654.0867,-84.5267"/>
<polygon fill="#191970" stroke="#191970" points="657.0104,-82.5886 649.0101,-75.6427 650.9327,-86.0616 657.0104,-82.5886"/>
</g>
<!-- Node12 -->
<g id="node13" class="node">
<title>Node12</title>
<polygon fill="none" stroke="#bfbfbf" points="686.5,-56.5 686.5,-75.5 730.5,-75.5 730.5,-56.5 686.5,-56.5"/>
<text text-anchor="middle" x="708.5" y="-63.5" font-family="Helvetica,sans-Serif" font-size="10.00" fill="#000000">ctime</text>
</g>
<!-- Node7&#45;&gt;Node12 -->
<g id="edge14" class="edge">
<title>Node7&#45;&gt;Node12</title>
<path fill="none" stroke="#191970" d="M681.2482,-112.2455C685.7435,-104.617 692.1248,-93.7881 697.5825,-84.5267"/>
<polygon fill="#191970" stroke="#191970" points="700.7561,-86.035 702.8177,-75.6427 694.7253,-82.4811 700.7561,-86.035"/>
</g>
<!-- Node13 -->
<g id="node14" class="node">
<title>Node13</title>
<polygon fill="none" stroke="#bfbfbf" points="749,-56.5 749,-75.5 804,-75.5 804,-56.5 749,-56.5"/>
<text text-anchor="middle" x="776.5" y="-63.5" font-family="Helvetica,sans-Serif" font-size="10.00" fill="#000000">fstream</text>
</g>
<!-- Node7&#45;&gt;Node13 -->
<g id="edge15" class="edge">
<title>Node7&#45;&gt;Node13</title>
<path fill="none" stroke="#191970" d="M693.0929,-112.2455C708.879,-103.4928 732.2639,-90.527 750.2587,-80.5496"/>
<polygon fill="#191970" stroke="#191970" points="752.0603,-83.5528 759.1087,-75.6427 748.6659,-77.4308 752.0603,-83.5528"/>
</g>
<!-- Node14 -->
<g id="node15" class="node">
<title>Node14</title>
<polygon fill="none" stroke="#bfbfbf" points="822.5,-56.5 822.5,-75.5 878.5,-75.5 878.5,-56.5 822.5,-56.5"/>
<text text-anchor="middle" x="850.5" y="-63.5" font-family="Helvetica,sans-Serif" font-size="10.00" fill="#000000">sstream</text>
</g>
<!-- Node7&#45;&gt;Node14 -->
<g id="edge16" class="edge">
<title>Node7&#45;&gt;Node14</title>
<path fill="none" stroke="#191970" d="M704.7911,-112.6269C734.4193,-103.1458 780.3433,-88.4501 812.7006,-78.0958"/>
<polygon fill="#191970" stroke="#191970" points="813.8164,-81.4137 822.2739,-75.0324 811.6829,-74.7467 813.8164,-81.4137"/>
</g>
<!-- Node15 -->
<g id="node16" class="node">
<title>Node15</title>
<polygon fill="none" stroke="#bfbfbf" points="896.5,-56.5 896.5,-75.5 960.5,-75.5 960.5,-56.5 896.5,-56.5"/>
<text text-anchor="middle" x="928.5" y="-63.5" font-family="Helvetica,sans-Serif" font-size="10.00" fill="#000000">algorithm</text>
</g>
<!-- Node7&#45;&gt;Node15 -->
<g id="edge18" class="edge">
<title>Node7&#45;&gt;Node15</title>
<path fill="none" stroke="#191970" d="M704.6275,-115.1489C709.2647,-114.0805 714.0113,-112.9999 718.5,-112 790.3844,-95.9865 810.9652,-93.3055 886.3152,-76.2231"/>
<polygon fill="#191970" stroke="#191970" points="887.3195,-79.5841 896.2922,-73.9501 885.7645,-72.759 887.3195,-79.5841"/>
</g>
<!-- Node16 -->
<g id="node17" class="node">
<title>Node16</title>
<polygon fill="none" stroke="#bfbfbf" points="978.5,-56.5 978.5,-75.5 1026.5,-75.5 1026.5,-56.5 978.5,-56.5"/>
<text text-anchor="middle" x="1002.5" y="-63.5" font-family="Helvetica,sans-Serif" font-size="10.00" fill="#000000">mutex</text>
</g>
<!-- Node7&#45;&gt;Node16 -->
<g id="edge19" class="edge">
<title>Node7&#45;&gt;Node16</title>
<path fill="none" stroke="#191970" d="M704.5727,-114.8818C709.217,-113.8479 713.9802,-112.8481 718.5,-112 826.1273,-91.8056 857.7026,-99.915 968.5621,-75.9259"/>
<polygon fill="#191970" stroke="#191970" points="969.4485,-79.3147 978.4613,-73.7451 967.9424,-72.4786 969.4485,-79.3147"/>
</g>
<!-- Node17 -->
<g id="node18" class="node">
<title>Node17</title>
<g id="a_node18"><a xlink:href="Meta_8hxx.html" target="_top" xlink:title="Meta.hxx">
<polygon fill="none" stroke="#000000" points="200.5,-56.5 200.5,-75.5 262.5,-75.5 262.5,-56.5 200.5,-56.5"/>
<text text-anchor="middle" x="231.5" y="-63.5" font-family="Helvetica,sans-Serif" font-size="10.00" fill="#000000">Meta.hxx</text>
</a>
</g>
</g>
<!-- Node7&#45;&gt;Node17 -->
<g id="edge20" class="edge">
<title>Node7&#45;&gt;Node17</title>
<path fill="none" stroke="#191970" d="M646.0831,-118.3279C583.927,-110.5636 434.6575,-91.888 309.5,-76 297.5582,-74.4841 284.5895,-72.8261 272.718,-71.3038"/>
<polygon fill="#191970" stroke="#191970" points="272.9856,-67.8095 262.6213,-70.0079 272.0944,-74.7525 272.9856,-67.8095"/>
</g>
<!-- Node21 -->
<g id="node22" class="node">
<title>Node21</title>
<g id="a_node22"><a xlink:href="LOG_8inl_8hxx.html" target="_top" xlink:title="LOG.inl.hxx">
<polygon fill="none" stroke="#000000" points="1045,-56.5 1045,-75.5 1118,-75.5 1118,-56.5 1045,-56.5"/>
<text text-anchor="middle" x="1081.5" y="-63.5" font-family="Helvetica,sans-Serif" font-size="10.00" fill="#000000">LOG.inl.hxx</text>
</a>
</g>
</g>
<!-- Node7&#45;&gt;Node21 -->
<g id="edge25" class="edge">
<title>Node7&#45;&gt;Node21</title>
<path fill="none" stroke="#191970" d="M704.5517,-114.7649C709.1986,-113.7461 713.9682,-112.7816 718.5,-112 855.093,-88.442 893.8679,-98.6053 1035.012,-75.9207"/>
<polygon fill="#191970" stroke="#191970" points="1035.601,-79.371 1044.9057,-74.3042 1034.4722,-72.4626 1035.601,-79.371"/>
</g>
<!-- Node9 -->
<g id="node10" class="node">
<title>Node9</title>
<polygon fill="none" stroke="#bfbfbf" points="1105,-.5 1105,-19.5 1170,-19.5 1170,-.5 1105,-.5"/>
<text text-anchor="middle" x="1137.5" y="-7.5" font-family="Helvetica,sans-Serif" font-size="10.00" fill="#000000">stdexcept</text>
</g>
<!-- Node8&#45;&gt;Node9 -->
<g id="edge10" class="edge">
<title>Node8&#45;&gt;Node9</title>
<path fill="none" stroke="#191970" d="M1172.1842,-56.2455C1166.2821,-48.3761 1157.8258,-37.101 1150.7406,-27.6542"/>
<polygon fill="#191970" stroke="#191970" points="1153.5321,-25.5427 1144.732,-19.6427 1147.932,-29.7427 1153.5321,-25.5427"/>
</g>
<!-- Node10 -->
<g id="node11" class="node">
<title>Node10</title>
<polygon fill="none" stroke="#bfbfbf" points="1188,-.5 1188,-19.5 1253,-19.5 1253,-.5 1188,-.5"/>
<text text-anchor="middle" x="1220.5" y="-7.5" font-family="Helvetica,sans-Serif" font-size="10.00" fill="#000000">exception</text>
</g>
<!-- Node8&#45;&gt;Node10 -->
<g id="edge11" class="edge">
<title>Node8&#45;&gt;Node10</title>
<path fill="none" stroke="#191970" d="M1186.6417,-56.2455C1192.3444,-48.4564 1200.49,-37.3308 1207.3625,-27.9439"/>
<polygon fill="#191970" stroke="#191970" points="1210.3568,-29.7789 1213.4402,-19.6427 1204.7087,-25.6437 1210.3568,-29.7789"/>
</g>
<!-- Node17&#45;&gt;Node3 -->
<g id="edge21" class="edge">
<title>Node17&#45;&gt;Node3</title>
<path fill="none" stroke="#191970" d="M251.9568,-56.3733C270.9738,-47.4241 299.5175,-33.9917 320.9976,-23.8835"/>
<polygon fill="#191970" stroke="#191970" points="322.7522,-26.926 330.3101,-19.5011 319.7716,-20.5923 322.7522,-26.926"/>
</g>
<!-- Node18 -->
<g id="node19" class="node">
<title>Node18</title>
<polygon fill="none" stroke="#bfbfbf" points="233,-.5 233,-19.5 302,-19.5 302,-.5 233,-.5"/>
<text text-anchor="middle" x="267.5" y="-7.5" font-family="Helvetica,sans-Serif" font-size="10.00" fill="#000000">type_traits</text>
</g>
<!-- Node17&#45;&gt;Node18 -->
<g id="edge22" class="edge">
<title>Node17&#45;&gt;Node18</title>
<path fill="none" stroke="#191970" d="M237.7707,-56.2455C242.7264,-48.5367 249.783,-37.5598 255.7776,-28.2348"/>
<polygon fill="#191970" stroke="#191970" points="258.8376,-29.9471 261.3011,-19.6427 252.9494,-26.1618 258.8376,-29.9471"/>
</g>
<!-- Node19 -->
<g id="node20" class="node">
<title>Node19</title>
<polygon fill="none" stroke="#bfbfbf" points="105,-.5 105,-19.5 156,-19.5 156,-.5 105,-.5"/>
<text text-anchor="middle" x="130.5" y="-7.5" font-family="Helvetica,sans-Serif" font-size="10.00" fill="#000000">variant</text>
</g>
<!-- Node17&#45;&gt;Node19 -->
<g id="edge23" class="edge">
<title>Node17&#45;&gt;Node19</title>
<path fill="none" stroke="#191970" d="M213.9071,-56.2455C198.121,-47.4928 174.7361,-34.527 156.7413,-24.5496"/>
<polygon fill="#191970" stroke="#191970" points="158.3341,-21.4308 147.8913,-19.6427 154.9397,-27.5528 158.3341,-21.4308"/>
</g>
<!-- Node20 -->
<g id="node21" class="node">
<title>Node20</title>
<polygon fill="none" stroke="#bfbfbf" points="174,-.5 174,-19.5 215,-19.5 215,-.5 174,-.5"/>
<text text-anchor="middle" x="194.5" y="-7.5" font-family="Helvetica,sans-Serif" font-size="10.00" fill="#000000">tuple</text>
</g>
<!-- Node17&#45;&gt;Node20 -->
<g id="edge24" class="edge">
<title>Node17&#45;&gt;Node20</title>
<path fill="none" stroke="#191970" d="M225.0551,-56.2455C219.9618,-48.5367 212.7092,-37.5598 206.548,-28.2348"/>
<polygon fill="#191970" stroke="#191970" points="209.3038,-26.0566 200.8711,-19.6427 203.4635,-29.9155 209.3038,-26.0566"/>
</g>
<!-- Node22&#45;&gt;Node2 -->
<g id="edge28" class="edge">
<title>Node22&#45;&gt;Node2</title>
<path fill="none" stroke="#191970" d="M239.4725,-112.3733C259.0567,-103.3838 288.4961,-89.8706 310.551,-79.7471"/>
<polygon fill="#191970" stroke="#191970" points="312.1729,-82.8538 319.8011,-75.5011 309.2527,-76.4919 312.1729,-82.8538"/>
</g>
<!-- Node22&#45;&gt;Node6 -->
<g id="edge29" class="edge">
<title>Node22&#45;&gt;Node6</title>
<path fill="none" stroke="#191970" d="M202.4748,-112.2455C188.3592,-103.6534 167.5737,-91.0014 151.3101,-81.1018"/>
<polygon fill="#191970" stroke="#191970" points="152.7034,-77.8525 142.3415,-75.6427 149.0637,-83.8319 152.7034,-77.8525"/>
</g>
<!-- Node22&#45;&gt;Node17 -->
<g id="edge30" class="edge">
<title>Node22&#45;&gt;Node17</title>
<path fill="none" stroke="#191970" d="M220.7644,-112.2455C222.4794,-104.8579 224.8912,-94.4689 226.9944,-85.4087"/>
<polygon fill="#191970" stroke="#191970" points="230.4095,-86.1751 229.2615,-75.6427 223.5908,-84.5922 230.4095,-86.1751"/>
</g>
<!-- Node23 -->
<g id="node24" class="node">
<title>Node23</title>
<polygon fill="none" stroke="#bfbfbf" points="0,-56.5 0,-75.5 53,-75.5 53,-56.5 0,-56.5"/>
<text text-anchor="middle" x="26.5" y="-63.5" font-family="Helvetica,sans-Serif" font-size="10.00" fill="#000000">cstddef</text>
</g>
<!-- Node22&#45;&gt;Node23 -->
<g id="edge31" class="edge">
<title>Node22&#45;&gt;Node23</title>
<path fill="none" stroke="#191970" d="M185.494,-112.3733C151.4368,-102.4399 98.4417,-86.983 63.1152,-76.6794"/>
<polygon fill="#191970" stroke="#191970" points="63.7855,-73.2292 53.2055,-73.7891 61.8254,-79.9492 63.7855,-73.2292"/>
</g>
<!-- Node24&#45;&gt;Node2 -->
<g id="edge34" class="edge">
<title>Node24&#45;&gt;Node2</title>
<path fill="none" stroke="#191970" d="M450.6365,-112.3733C428.9645,-103.2482 396.2221,-89.462 372.0669,-79.2913"/>
<polygon fill="#191970" stroke="#191970" points="373.1978,-75.9699 362.6232,-75.315 370.4814,-82.4214 373.1978,-75.9699"/>
</g>
<!-- Node24&#45;&gt;Node4 -->
<g id="edge35" class="edge">
<title>Node24&#45;&gt;Node4</title>
<path fill="none" stroke="#191970" d="M461.4811,-112.2455C451.2902,-103.9746 436.4638,-91.9416 424.4893,-82.2232"/>
<polygon fill="#191970" stroke="#191970" points="426.3514,-79.2268 416.3812,-75.6427 421.9402,-84.662 426.3514,-79.2268"/>
</g>
<!-- Node25 -->
<g id="node26" class="node">
<title>Node25</title>
<polygon fill="none" stroke="#bfbfbf" points="446.5,-56.5 446.5,-75.5 500.5,-75.5 500.5,-56.5 446.5,-56.5"/>
<text text-anchor="middle" x="473.5" y="-63.5" font-family="Helvetica,sans-Serif" font-size="10.00" fill="#000000">ciso646</text>
</g>
<!-- Node24&#45;&gt;Node25 -->
<g id="edge33" class="edge">
<title>Node24&#45;&gt;Node25</title>
<path fill="none" stroke="#191970" d="M473.5,-112.2455C473.5,-104.9382 473.5,-94.6944 473.5,-85.7046"/>
<polygon fill="#191970" stroke="#191970" points="477.0001,-85.6426 473.5,-75.6427 470.0001,-85.6427 477.0001,-85.6426"/>
</g>
</g>
</svg>
